<svg width="1299" height="22" viewBox="0 0 1299 22" fill="none" xmlns="http://www.w3.org/2000/svg">
<path d="M22.9766 0C35.344 0 45.4295 9.76143 45.9531 22H0C0.523602 9.76143 10.6091 0 22.9766 0ZM69.4766 0C82.1129 0 92.4182 9.76142 92.9531 22H46C46.535 9.76142 56.8402 0 69.4766 0ZM115.977 0C128.344 0 138.43 9.76143 138.953 22H93C93.5236 9.76143 103.609 0 115.977 0ZM162.477 0C175.113 0 185.418 9.76142 185.953 22H139C139.535 9.76142 149.84 0 162.477 0ZM208.977 0C221.344 0 231.43 9.76143 231.953 22H186C186.524 9.76143 196.609 0 208.977 0ZM254.977 0C267.344 0 277.43 9.76143 277.953 22H232C232.524 9.76143 242.609 0 254.977 0ZM301.477 0C314.113 0 324.418 9.76142 324.953 22H278C278.535 9.76142 288.84 0 301.477 0ZM347.977 0C360.344 0 370.43 9.76143 370.953 22H325C325.524 9.76143 335.609 0 347.977 0ZM394.477 0C407.113 0 417.418 9.76142 417.953 22H371C371.535 9.76142 381.84 0 394.477 0ZM440.977 0C453.344 0 463.43 9.76143 463.953 22H418C418.524 9.76143 428.609 0 440.977 0ZM486.977 0C499.344 0 509.43 9.76143 509.953 22H464C464.524 9.76143 474.609 0 486.977 0ZM533.477 0C546.113 0 556.418 9.76142 556.953 22H510C510.535 9.76142 520.84 0 533.477 0ZM579.977 0C592.344 0 602.43 9.76143 602.953 22H557C557.524 9.76143 567.609 0 579.977 0ZM625.977 0C638.344 0 648.43 9.76143 648.953 22H603C603.524 9.76143 613.609 0 625.977 0ZM672.477 0C685.113 0 695.418 9.76142 695.953 22H649C649.535 9.76142 659.84 0 672.477 0ZM718.977 0C731.344 0 741.43 9.76143 741.953 22H696C696.524 9.76143 706.609 0 718.977 0ZM765.477 0C778.113 0 788.418 9.76142 788.953 22H742C742.535 9.76142 752.84 0 765.477 0ZM811.977 0C824.344 0 834.43 9.76143 834.953 22H789C789.524 9.76143 799.609 0 811.977 0ZM857.977 0C870.344 0 880.43 9.76143 880.953 22H835C835.524 9.76143 845.609 0 857.977 0ZM904.477 0C917.113 0 927.418 9.76142 927.953 22H881C881.535 9.76142 891.84 0 904.477 0ZM950.977 0C963.344 0 973.43 9.76143 973.953 22H928C928.524 9.76143 938.609 0 950.977 0ZM997.477 0C1010.11 0 1020.42 9.76142 1020.95 22H974C974.535 9.76142 984.84 0 997.477 0ZM1043.98 0C1056.34 0 1066.43 9.76143 1066.95 22H1021C1021.52 9.76143 1031.61 0 1043.98 0ZM1089.98 0C1102.34 0 1112.43 9.76143 1112.95 22H1067C1067.52 9.76143 1077.61 0 1089.98 0ZM1136.48 0C1149.11 0 1159.42 9.76142 1159.95 22H1113C1113.53 9.76142 1123.84 0 1136.48 0ZM1182.98 0C1195.34 0 1205.43 9.76143 1205.95 22H1160C1160.52 9.76143 1170.61 0 1182.98 0ZM1229.48 0C1242.11 0 1252.42 9.76142 1252.95 22H1206C1206.53 9.76142 1216.84 0 1229.48 0ZM1275.98 0C1288.34 0 1298.43 9.76143 1298.95 22H1253C1253.52 9.76143 1263.61 0 1275.98 0Z" fill="#2F2F2F"/>
</svg>
