<?xml version="1.0" encoding="UTF-8"?>
<svg id="Layer_1" data-name="Layer 1" xmlns="http://www.w3.org/2000/svg" viewBox="0 0 2162.85 980.8">
  <defs>
    <style>
      .cls-1 {
        fill: #2f2f2f;
      }
    </style>
  </defs>
  <polygon points="1976.02 255.66 1976.02 259.64 1970.03 259.63 1973.06 255.67 1976.02 255.66"/>
  <polygon points="719.05 843.69 719.05 849.61 716.07 846.65 719.05 843.69"/>
  <path d="M749.03,115.65c1.3.67,1.3,1.33,0,2v-2Z"/>
  <path d="M115.03,59.65c1.3.67,1.3,1.33,0,2v-2Z"/>
  <path d="M141.03,39.65c1.3.67,1.3,1.33,0,2v-2Z"/>
  <path d="M1893.03,159.65c1.3.67,1.3,1.33,0,2v-2Z"/>
  <path d="M1907.03,159.65c1.3.67,1.3,1.33,0,2v-2Z"/>
  <g>
    <path class="cls-1" d="M1550.04,431.66c3.21,8.77,11.62,14.61,15.75,23.23,15.13,31.62,19.07,82.99-.08,113.43-21.91,34.83-54.59,47.45-91.75,60.25-16.74,5.76-34.3,9.3-51.08,14.95-2.97,4.09,2.68,13.43,3.17,19.11,3.05,34.83.48,69.85-22.96,97.07-10.32,11.98-43.56,31.47-58.53,37.47-14.24,5.71-29.49,7.52-44.34,10.66-1.91,7.21,4.65,12.35,5.7,18.94,8.9,55.87-36.02,98.14-88.91,102.85-84.48,7.52-170.27,8.55-240.8-43.14-12.09-8.86-20.97-21.25-34.11-27.88-106.15,1.29-219.96-12.71-317.41-56.61-34.52-15.55-68.28-40.52-104.7-53.3-5.77-2.02-11.43-4.33-17.71-2.78-4.7,12.54-8.34,35.08-20.33,42.66-17.13,10.83-52.69,5.66-71.83,12.17-13.64,21.65-17.53,47.28-45.63,54.37-41.17,10.4-93.56,2.56-135.48.56-30.69-1.46-63.54-.91-93.95-4.05-10.25-1.06-15.88-1.71-16.43-13.37l2.37-6.66,16.63-.36c39.07-51.35,82.64-99.58,133.52-139.45,5.73-4.67,2.26-21.87-5.69-19.82-4.44,1.15-29.66,21.25-34.43,25.69-12.5,11.65-30.44,30.96-42.04,43.96-21.33,23.9-41.23,51.72-60.84,77.16l-7.1,2.87-2.06-5.99c2.52-2.43,3.61-5.75,5.4-8.63,28.36-45.53,89.26-110.7,130.61-145.39,3.05-2.56,7.09-3.27,10.04-5.95l-1.05-16.04c-57.38,28.55-95.81,85.83-140.98,129.96-5.53-4.1-2.78-7.74-.32-12.29,9.71-17.93,46.45-55.53,62.29-71.7,22.38-22.85,47.96-42.67,74.59-60.38l-1.57-19.59c-5.95-5.75-38.26,22.03-44.02,26.98-34.6,29.76-65.66,63.88-97.98,96.02l-5.98,1,1.03-9.95c35.53-35.03,69.63-87.8,112.7-113.29,14.66-8.68,41.54-11.58,25.32-32.45-21.63-2.15-120.08,97.17-137.97,117.8l-7.09,1.89c-6-6.26,19.79-34.68,24.5-40.48,13.07-16.08,32-34.73,50.55-49.46,21.64-17.18,46.79-30.06,67.93-48.07l.71-16.7-3.78-2.43c-11.24,6.94-24.96,13-35.75,20.32-19.82,13.45-50.32,40.9-68.2,57.8-7.13,6.74-35.17,42.22-40.93,41.03l-2.74-6.67c26.25-35.12,58.3-66.19,92.74-93.3,8.81-6.94,31.84-25.27,40.28-29.72,5.23-2.76,10.64-4.37,16.59-4.4l.08-23.92c-2.88-2.82-24.18,9.87-28.6,12.39-39.96,22.83-80,60.97-111.44,94.56-2.69,2.88-11.4,16.14-12.29,16.66-4.35,2.49-10.32-.12-9.36-6.17.25-1.56,16.24-22.68,18.66-25.49,16.06-18.63,43.91-42.51,63.03-58.97,24.16-20.81,49.2-41.33,77.1-56.9.91-5.12,3.9-31.11-3.84-29.9-.65.1-9.23,5.75-11.1,6.96-41.93,27.33-82.9,69.34-121.47,101.54l-17.7,27.31c-4.4.81-2.99-1.78-2.78-4.77,2.25-32.08,71.72-84.79,96.51-105.6,13.31-11.17,27.91-27.62,43.38-36.52,5.6-3.22,9.81-2.31,15.05-4.95l.85-20.13c-10.54.71-19.95,6.93-28.61,12.38-33.51,21.07-74.81,53.29-102.18,81.82-5.73,5.98-11.51,14.04-15.78,21.19l-4.44,2.07-4.43-4.45c2.99-6.54,6.22-13.11,10.62-18.85,21.16-27.63,71.73-66.08,101-87,13.7-9.79,26.88-19.27,42.91-25.09l.92-22.09c-3.81-3.72-33.24,13.11-38.61,16.4-30.89,18.9-71.05,48-97.41,72.59-6.29,5.87-9.18,14.58-17.72,15.28l-2.5,11.52-5.7.22-1.59-8.74c.42-2.28,4.06-4.19,5.3-6.55,24.39-46.41,98.93-79.64,139.61-112.33l18.29-4.7,2.33-29.66c-.97-1.09-17.07,5.96-19.74,7.24-47.68,22.87-97.81,56.96-135.53,93.46-7.39,7.15-3.12,13.48-17.74,11.28-2.71-.41-3.49,1.18-2.94-2.95.74-2.52,20.18-24.58,23.86-28.11,33.16-31.8,88.75-67.65,130.08-87.97,7.09-3.49,13.68-7.12,21.88-7.12l2.15-25.84c-3.08-3.23-39.58,16.64-45.37,19.86-19.32,10.73-43.05,25.5-62.48,39.28-16.39,11.62-38.74,34.75-54.31,43.69-18.65,10.71-10.47-4.07-3.12-12.12,26.1-28.6,118.25-88.14,154.73-102.26,4.08-1.58,8.08-2.56,12.48-2.52l1.87-16.77-4.63-3.11c-47.55,20.26-93.54,41.36-134.11,74.01-8.97,7.22-20.7,17.12-29.13,24.87-4.75,4.36-5.73,12.59-13.91,11.07-.79-5.2,1.32-9,3.59-13.39,13.88-26.83,105.47-81.64,135.06-96.94,13.82-7.15,27.94-13.65,42.91-18.09l4.43-21.55c-36.54,12.76-71.15,30.11-103.01,51.98l-2.96-3.97c.47,7.95-10.41,12.42-16.7,16.42-2.76,1.76-4.58,2.63-8.54,5.27-13.69,9.12-30.47,16.82-39.85,30.23l-4.93-.93c-1.62-11.56,18.98-25.03,28.18-31.82,40.23-29.65,95.92-62.84,141.81-82.19,2.99-1.26,6.95-.46,10-2,4.59-2.64,7.54-26.52,2.84-27.03-5.73,3.82-16.26,4.17-21.27,6.22-37.26,15.27-100.48,52.25-132.51,77.87-6.48,5.18-22.81,23.82-28.08,25.93-6.44,2.58.64-12.45,1.71-14.3,14.9-25.68,104.57-76.57,133.97-90.03,11.46-5.25,46.48-14.64,52.43-19.57,3.16-2.62,18.24-30.82,16.91-32.07l-59.03,30.01-4.95-4,1.91,5.84c-7.43,2.07-13.79,7.68-20.56,10.72-3.25,1.46-5.88-.37-6.47-.22-.55.14.65,3.5-1.66,5.67-4.46,4.19-13.41,5.66-18.24,9.94l-2.95-3.96c.07,2.53-.15,5-1.99,6.97-5.97,6.39-38.41,23.78-48.69,31.37-5.45,4.02-33.22,30.66-37.32,27.66-5.43-14.02,14.94-22.83,21.98-33.14l5.98,3.15-3.96-5.97c16.72-7.2,29.87-20.45,44.93-30.08,42.11-26.94,89.45-45.15,132.4-69.6,3.37-1.92,23.36-12.53,20.65-16.32-38.4-11.61-64.91,18.77-95.9,35.07-14.72,7.74-32.18,11.61-45.92,22.08l-76.16,56.82c-1.11-4.12,1.38-5.45,2.91-8.07,11.23-19.31,62.23-58.52,82.46-71.54,18.48-11.9,39.07-20.12,56.61-33.39-.87-1.72-4.84-2.22-6.67-2.36-30.56-2.2-102.25,54.95-121.28,76.34-2.21,2.48-4.69,4.66-7.04,6.99l-2.03-5.97c21.27-32.75,54.54-53.68,85.02-77-19.81-5.08-38.52,6.97-53,19l-2.97-3.98-.45,7.57-35.56,28.41c2.62-20.61,20.98-36.07,37.98-46.03l-.99-3.97-21.02-.97-3.54-6.48c-.95-4.84-1.98-11.9,4.55-12.56l53.92-4.08c48.58,1.01,97.77-1.43,146.08,2.12,7.73.57,20.19,2.22,27.45,4.55,23.18,7.41,38.52,42.63,49.63,62.37,4.76,4.02,31.21,5.27,40.04,7.96,16.76,5.1,28.92,24.35,37.54,38.46,2.44,3.99,1.78,10.33,7.34,10.75,34.94-11.39,71.5-16.3,107.02-25.09,23.37-5.78,46.2-14.8,69.48-20.52,122.38-30.06,244.57-34.03,369.43-34.57,221.43-.96,442.18,57.73,657.11,105.06,113.04,24.89,232.65,46.93,344.04,75.96,55.78,14.54,111.56,34.66,86.9,105.02-26.62,75.93-130.15,71.54-195.94,68.02-43-2.3-79.85-15.38-120.57-21.43-51.54-7.67-117.34,3.73-171.53-.47-9.02-.7-57.25-11.18-60.92-8.06ZM149.03,67.65v2c1.3-.67,1.3-1.33,0-2ZM177.03,73.65v2c1.3-.67,1.3-1.33,0-2ZM153.03,75.65v2c1.3-.67,1.3-1.33,0-2ZM201.05,75.69l-6.98,6.98.94.94,6.98-6.98-.94-.94ZM185.03,77.65v2c1.3-.67,1.3-1.33,0-2ZM238.01,91.64v-3.98h-1.96v3.98h1.96ZM251.03,89.65v2c1.3-.67,1.3-1.33,0-2ZM247.03,93.65v2c1.3-.67,1.3-1.33,0-2ZM311.03,97.65v2c1.3-.67,1.3-1.33,0-2ZM343.34,102.34c-13.04-12.59-18.98-.15-26.41,7.39-1.7,1.72-4.24-.07-4.57.32-2.3,2.7-6.49,15.11-10.27,18.62,4.85,6.13,12.31,1.12,18.87.9,10.99-.36,22.1.45,33.09.08,2.93-2.94-7.26-23.99-10.7-27.3ZM296.01,107.64v-5.98h-1.96v5.98h1.96ZM221.03,109.65v2c1.3-.67,1.3-1.33,0-2ZM95.03,119.65v2c1.3-.67,1.3-1.33,0-2ZM260.01,123.64v-3.98h-1.96v3.98h1.96ZM187.03,121.65v2c1.3-.67,1.3-1.33,0-2ZM197.03,121.65v2c1.3-.67,1.3-1.33,0-2ZM908.04,129.63h2.96s2.99-3,2.99-3l-5.95,1.04v1.96ZM1182.02,129.64v-3.99s-3.98,3.01-3.98,3.01l3.98.98ZM125.03,129.65v2c1.3-.67,1.3-1.33,0-2ZM1054.03,133.66c-42.26-2.59-84.53.41-127.07.08-8.28-.06-26.69-2.97-33.67-2.19-1.44.16-.28,3.75-4.11,4.26-36.58,4.91-77.35,2.34-113.88,6.1-69.58,7.16-136.25,28.9-203.24,46.76-39.41,10.51-80.03,16.89-118.58,31.42l-13.54,23.47-7.56-2.85,5.64-17.06-10.72.26-18.29,41.71c-4.48,2.21-3.08-6.79-2.94-8.95.57-8.76,2.86-19.71,5.7-28.1-1.82-2.75-3.06-3.51-6.42-2.65-10.4,2.67-6.39,52.08-18.32,59.67-9.56-8.82-4.15-14.43-3.16-23.13,1.24-10.76.83-21.68,6.08-31.87l-4.9-2.96c-4.85,1.1-13.25,40.52-14.49,47.53-22.53,128.25-9,271.85,51.12,387.81,9.1,17.56,20.9,33.99,31.37,50.64l2.94-2.94c-26.07-53.81-55.42-114.41-63.73-174.28-1.47-10.62-5.94-30.5,3.73-36.75,3.64,40.58,13.88,80.56,28.49,118.53,6.88,17.89,36.72,84.7,52.56,91.45,8.09-.68-3.53-14.51-5.43-18.57-13.12-28.04-36.1-97.36-37.46-128.74-.13-2.99-.02-11.5,4.84-10.66,4.57,2.42,15.3,58.8,18.02,67.99,6.73,22.75,37.96,85.52,53.98,102.02,2.09,2.15,3.49,4.68,7.02,3.96-12.47-35.53-27.58-70.54-35.36-107.62-3.22-15.34-9.19-46.85-6.62-61.36,1.56-8.77,5.95-5.71,8.01,1.97,4.84,18.06,4.42,41.33,8.96,61.04,6.97,30.24,25.21,72.02,41.41,98.59,4.1,6.73,10.07,18.86,18.6,19.4l-28.02-79.98c-6.82-19.45-24.8-145.58-14.73-153.78l7.75-.26c-2.61,70.24,9.5,143.17,40.59,206.43,4.71,9.58,22.91,41.67,29.31,48.17,1.04,1.05,9.45,5.84,8.15.39s-9.55-17.04-12.38-23.63c-20.44-47.63-39.18-116.35-35.73-168.43.29-4.45,1.71-8.53,2.11-12.91h5.94c-1.11,15.38,2.42,29.9,4.01,45.02,2.59,24.58,3.27,47.28,10.58,71.42,7.06,23.33,39.44,88.94,55.41,106.03,2.42,2.59,14.14,9.61,12,2.57-24.8-42.03-43.18-87.76-52.52-135.49-3.03-15.49-7.38-44.46-5.49-60.59.52-4.39,1.42-8.02,5.04-10.92,3.68,2.41,2.8,5.3,3.09,8.87,2.77,34.76,3.89,67.42,14.91,101.09,8.93,27.28,46.41,101.79,71.05,114.95,2.51,1.34,6.7,3.02,5.93-1.92-18.02-25.72-32.79-56.37-44.38-85.67-2.68-6.77-3.59-6.81-5.54-10.93-6.23-13.18-20.94-75.48-23.54-91.96-.39-2.48-.78-4.93-.54-7.47l5-1c2.18,1.13,2.34,3,2.92,5.08,11.71,42.57,20.42,85.54,41.05,124.95,9.63,18.39,22.72,34.48,34.68,51.32,7.36,10.36,13.78,30.02,27.34,30.7l2.98-3c-20.17-33.81-40.35-67.54-52.87-105.14-6.26-18.79-14.58-47.41-13.07-66.96.23-2.97-1.58-5.78,2.96-4.95,7.17,5.9,4.07,14.59,5.57,22.44,9.82,51.27,45.5,120.52,81.51,158.49,5.97,6.3,10.3,10.5,19.08,12.94l2.84-2.85c-39.43-52.4-65.98-117.59-71.96-183.03l6.62,4.49c5.58,18.87,8.48,38.74,14.37,57.5,12.05,38.36,50.34,105.23,82.9,129.1,2.74,2.01,4.04,3.77,8.08,2.9.9-3.75-1.28-5.53-2.71-8.27-23.29-44.58-43.31-71.45-57.9-122.1-3.32-11.54-22.92-91.66-19.37-95.61,5.91-.6,7.61,7.17,9.02,11.96,21.18,71.71,28.99,127.72,78.14,189.86,4.04,5.11,30.84,33.92,36.82,28.16.57-3.27-1.56-5.38-3.16-7.83-9-13.78-18.98-26.35-27.18-40.82-27.78-49-49.96-105.44-57.45-161.22l5.82-.13-.22-7.04,39.99-30.3-11.99-64.44-9.81-.21c.38,13.22.67,27.88,2.03,40.98.35,3.42,7.08,25.24.97,24.99l-17.28-59.68-7.71-.29,7.23,41.87-4.21,4.13-15.1-39.96-13.93,1.97c-2.74,2.74,10.31,30.47-1.97,29.99l-10.25-29.76c-53.4,4.57-100.14-15.32-150.39-28.61l-4.53-11.86-20.56-4.94c4.65-11.69-8.89-19.69-15.1-29.01-9.31-13.96-17.56-29.08-23.17-44.93l4.97-4.89c7.96,10.72,11.8,23.87,18.97,35.04,14.62,22.76,34.59,38.64,57.42,52.58,1.41.86,13.46,8.03,10.61,1.4-15.54-17.75-32.9-34.35-45.63-54.38-5.53-8.69-16.06-27.31-19.42-36.59-.97-2.68-3-6.8,2.03-6.04,13.21,13.38,19.79,31.85,32.24,45.77,11.23,12.56,54.63,53.08,68.04,59.96,5.04,2.58,9.28,2.62,14.75,2.23-36.06-35.06-66.96-73.53-91.04-117.94-4.34-8-12.49-22.99-14.9-31.12-1.75-5.93,5.82-2.36,8.85,1.17,7.59,8.84,15.31,28.7,22.25,39.75,22.42,35.73,45.38,65.06,80.21,89.79,6.09,4.32,34.27,23.84,40.62,18.36-1.95-8.24-12.96-12.2-19.03-17.94-33.09-31.27-86.59-105.72-104.68-147.33-2.12-4.89-8.69-15.24-3.25-18.71,5.77-1.21,15.36,24.48,18.27,29.69,25.17,44.91,55.95,87.67,96.86,119.14,6.73,5.18,48.38,36.12,53.83,31.15l-.93-4.05c-25.99-18.77-47.43-40.01-65.51-66.49-19.27-28.22-42.52-65.1-59.14-94.86-5.05-9.04-9.08-18.65-14.41-27.55,3.32-5.69,7.33,1.15,9.95,4.01,8.92,9.75,13.37,22.75,20.4,33.6,29.51,45.57,75.58,114.84,124.32,139.68,9.13,4.66,16.39,9.55,27.35,7.65l-1.26-6.13c-23.68-9.73-38.64-32.01-55.65-49.95-36.66-38.66-56.85-68.07-83.44-114.56-2.07-3.62-12.06-20.83-9.64-23.34,4.87-.91,5.03.48,7.71,3.27,10.7,11.14,23.68,40.2,33.44,54.56,30.46,44.78,70.32,91.14,118.18,117.82,6.44,3.59,24.6,13.28,27.68,2.33-18.55-13.68-36.5-28.92-53.06-44.96-31.12-30.14-61.16-73.33-83.05-110.95-1.52-2.62-4.02-3.94-2.91-8.07,2.14-2.32,18.1,14.77,19.94,17.04,42.02,51.65,64.06,99.1,130.31,129.69,4.41,2.04,18.21,8.53,21.61,3.1,3.8-6.06-6.74-7.76-10.49-10.24-36.17-23.9-90.71-83.33-113.44-120.55-6.1-9.98-10.91-20.61-13.95-32.02,3.01-3.68,3.03-3.48,6.01-.05,5.26,6.06,10.62,20.16,15.94,28.06,25.98,38.56,64.89,82.48,106.71,103.29,10.25,5.1,28.53,16.13,39.39,8.69,2.32-1.59,2.34-2.5-.01-4.07-4.01-2.68-12.69-3.92-17.43-6.57-23.21-12.99-45.63-37.12-62.54-57.46-15.28-18.38-35.23-41.67-40.04-64.94,25.68,26.45,44.22,60.24,74.15,82.83,19.01,14.34,43.77,27.99,67.83,29.15-8.88-8.44-21.79-12.04-31.87-19.11-28.7-20.13-68-66.9-83.85-98.14-1.84-3.62-2.83-6.57-2.26-10.72,1.93-2.23,8.62,5.48,9.94,7.04,15.28,17.88,25.37,40.73,43.1,56.9,17.23,15.71,41.5,31.88,64.95,34.03-18.18-19.23-37.22-36.56-52.78-58.2-3.63-5.04-23.3-31.06-17.2-35.77,3.62-.73,4.97,1.77,6.86,4.11,5.65,6.98,10.71,16.99,17.18,24.82,17.94,21.74,38.15,42.64,64.97,52.99,2.96-.14,2.69-2.25.96-4.91-7.68-11.88-23.7-21.65-33.01-33-5.2-6.34-38.74-60.33-34.96-64.01,4.87-.91,5.03.48,7.71,3.27,6.18,6.43,12.62,21.07,18.65,29.35,9.02,12.39,27.01,37.1,39.55,44.45,2.62,1.54,3.95,4.02,8.07,2.91l-43.99-80.95,5-1.05,52.03,65.99c3.99.83,3.6-1.74,2.55-4.56-2.13-5.75-19.36-35.68-15.57-39.41l5.6.44,24.37,45.55c1.46-13.3,1.8-27.51-.2-40.78-1.66-11.01-6.75-21.46-7.3-32.86-.17-3.6-1.4-5.78,2.55-8.33,3.56-1.7,3.63,3.52,4.32,5.57,6.87,20.22,11.34,43,10.66,64.4,4.39.73,4.78-1.83,5.89-5.09,2.11-6.25,2.77-34.66,7.13-36.88,3.96-1.06,4.44,4.74,4.77,7.16,2,14.47-5.38,29.06,1.23,40.81,3.29.7,11.79-11.77,13.35-14.61,4.74-8.61,4.62-15.26,8.65-23.37,4.35.12,4.99,3.01,4.86,6.7-.39,11.79-7.71,23.96-9.88,35.28,2.2,2.4,17.03-11.42,19.04-13.94,6.6-8.31,7.26-21.57,16.94-24.04l-15.98,47.98,24.06-14.91,16.89-21.06c5.75,1.91-2.53,20.32-4.2,23.75-2.22,4.56-6.67,8.85-8.85,13.19-1.19,2.36-2.54,4.56,1.12,5.05,11.01,1.8,35.01-32.59,37.93-32,9.09,1.86-14.15,31.5-3.98,31.94l34.99-27.95c1.29,11.41-4.17,21.69-9.93,31.01l4.65,2.75c6.66-.59,31.21-30.1,37.61-36.45,2.66-2.63,2.62-4.33,7.68-3.3.52,4.09-.35,7.15-2.24,10.74-5.53,10.49-22.11,25.11-27.47,34.53-1.61,2.83-2.77,5.34-2.26,8.72l39.98-17.98c2.54,14.1-15.06,19.17-17.98,31.98,3.84,5.07,29.89-9.02,34.96-12.02l3.06,3.04c-.73,5.32-7.78,12.72-11.99,16.04-2.36,1.86-23.84,11.72-20.04,14.94,17.86,2.1,31.16-11.47,47.98-13.98-.27,13.41-19.37,21.52-29.94,27.13-2.67,1.42-5.12-.61-4.04,4.85,21.06,3.17,35-4.13,51.9-15.12l6.08,2.17c-7.11,17.37-24.48,20.42-39.03,28.95-3.79,5.36,19.2,4.34,22.03,4.01,12.28-1.45,21.76-11.51,30.99-19.01,5.97-4.85,9.12-2.77,6.47,4.45-4.66,12.69-17,23.54-26.46,32.54,12.63,1.72,24.76-5.29,34.66-12.32,8.01-5.7,11.82-16.09,23.33-13.65-1.35,15.48-14.84,23.22-23.99,33.97,12.07-2.01,26.38-7.78,36.67-14.31,2.4-1.52,11.34-11.94,13.32-9.66.31,11.44-7.37,20.82-15.97,27.02-3.19,7.15,19.31-4.42,20.7-5.31,5.78-3.72,10.78-11.05,17.11-14.89l-1.04-4.98-41.81-23.53-12.97,5.67,5.07-12.02c-8.08-8.5-28.85-28.35-30.75-39.48-1.62-9.53,14.76-25.1,19.72-33.44l33.93-32.03c-47.28-33.98-86.67-81.67-137.37-110.64-60.65-34.65-154.62-31.95-222.57-57.43-2.16-.81-28.88-12.69-24.03-16.95,19.09,3.43,35.56,9.23,55.02,11.54,2.08.25,4.8-1.73,7.51-1.16,7.6,1.58,14.17,11.95,26.38,1.61,2.09.49,1.92,7.89,12.08,8.05l7.97-10.03,5.48,11.54,19.55,2.45-1.68-12.8,5.65-3.19,5.9,19.11,20.13.89,2.99-13.97,7.87,16.09,15.97,5.65,3.27-4.84c.84-6.49-6.3-15.25.9-20.91l9.42,27.56,19.57,2.39c1.45-1.35-7.75-20.44,3.99-19.98l5.87,24.65,16.92,7.45,1.39-14.82,7.83-3.3,2.38,24.64c9.13,9.52,16.27,16.22,17.41-1.9.58-9.11-4.46-18.33,1.22-24.7,9.56.26,6.17,40.1,7.42,46.54,9.93,13.94,12.45,6.95,16.13-5.03,1.4-4.54,3.27-32.07,9.43-27.54,4.91,16.16-5.09,32.4-5.73,48.64,3.35,3.6,12.67,12.04,17.5,9.08,2.84-7.01,5.35-14.33,7.33-21.64,1.36-5.01-.93-13.43,5.88-14.08,10.16,2.07-9.29,47.19.09,53.97,11,3.32,20.07-36.04,20.97-43.98h5.96c1.43,19.06-2.77,37.7-9.61,55.4l10.35,8.33c5.25-1.01,12.95-22.17,14.37-27.62.44-1.67,1.51-22.36,5.93-14.14,5.89,10.94-1.55,42.43-8.49,53.06l13.62,10.09,3.97-2.52,11.69-41.42,6.17-1.18-7.99,52.99,5.24,6.78,12.51,1.99c1.86-7.66,6.21-15.68,7.74-23.25,1.65-8.15.95-22.97,2.84-29.16.8-2.62,2.94-3.87,5.64-3.33,2.68,1.93,2.46,31.49,1.99,36.96-.62,7.14-9.74,32.54-2.76,34.87l6.8-.83c5.26-3.22,13.97-29.58,15.53-36.47,2.19-9.71,1.38-22.65,4.88-33.12,2.4-7.18,7.24,1.15,7.3,5.48.18,12.79-1.29,41.41-4.22,53.59-2.2,9.11-8.92,15.83-7.49,25.5,2.8-.01,5.86.48,8.57-.42,11.06-3.67,24.48-45.45,23.44-57.58,13.05-2.12,7.23,20.17,5.43,28.46-2.24,10.32-12.94,29.54-13.45,36.73-.95,13.23,11.95,4.91,17.05-1.13,11.57-13.67,25.8-47.95,30.52-65.48.62-2.3-.31-21.35,5.41-18.54,3.54,2.32,2.85,5.36,3.13,8.87,2.57,32.44-11.74,62.22-26.47,89.79l1.41,5.32c12.32,1.81,35.95-41.45,39.93-52.03s3.4-23.9,12.03-31.93c7.93-.11,3.17,27.01,2.11,32.07-2.41,11.49-10.03,31.95-16.23,41.77-1.77,2.8-20.21,23.1-16.87,26.11,13.31-.02,27.5-13.26,36.04-22.94,12.29-13.93,30.44-48.89,35.04-66.96,5.15-20.22,5.15-42.38,9.92-62.12,7.42.22,5.48,23.06,5.06,29.1-3.74,53.77-19.95,76.33-47.13,118.87-1.7,2.66-3.96,3.96-2.92,8.06,19.62-7.86,34.98-20.37,49.01-35.97,18.17-20.2,16.8-26.52,26.82-49.18,1.34-3.02,2.1-5.59,6.14-4.84.62,25.8-15.82,51.96-30.33,72.65-3.7,5.27-14.71,15.47-16.7,19.31-1.82,3.51-.31,3.84,2.08,6.04,24.49-6.08,53.01-35.32,61.33-58.63,3.81-10.67,2.67-22.12,8.62-31.33,3.22,2.61,4.98,4.39,5.1,8.85.4,14.93-15.42,49.3-24.42,61.78-2.61,3.61-23.22,22.02-19.67,25.31,5.23.75,9.01-1.29,13.39-3.59,28.44-14.93,47.88-52.12,58.42-81.21l6.17-1.2c.64,23.32-12.63,48.44-25.55,67.45-4.74,6.98-12.67,13.81-16.45,19.56-1.74,2.64-1.62,4.93,1,4.95,20.98-12.93,41.7-32.67,53.4-54.57,4.75-8.9,6.51-18.15,11.04-26.96,4.98-9.7,9.5-7.62,8.19,2.07-1.17,8.69-13.53,37.41-18.19,45.93-7.92,14.49-21.07,22.99-27.42,37.56,4.39.46,7.14.3,11.08-1.9,5.83-3.26,39.03-35.53,42.63-41.28,4.12-6.56,16.95-44.11,19.27-44.85l5.03,1.19c.77,30.42-20.11,53.9-34.03,78.84,3.48,3.22,31.72-26.21,34.83-30.15,10.82-13.68,17.99-29.7,24.2-45.82l5.03,4.96c-5.66,28.87-22.62,56.15-44.04,76.06-.82,4.02,1.7,3.56,4.55,2.55,14.86-5.29,47.8-40.72,54.4-55.6,1.12-2.53,9.49-36.37,15.02-29.96-.49,33.53-20.59,64.35-43.98,87,2.38,2.36,8.52-1.95,10.65-3.35,22.32-14.66,43.77-45.58,54.6-69.75l6.73.1-31,71.98c15.89-13.15,30.92-34.55,41.35-52.65,17.01-29.5,20.97-53.19,15.67-87.33,8.32.29,8.52,12.98,9.67,19.31,7.95,43.91-11.04,82.15-37.64,115.68,2.92,3.78,2.31,2.41,5.29,1.38,17.39-6.02,42.18-45.01,48.7-62.38l5.77,3.2c-7.37,26.08-21.01,49.37-39.79,68.77,28.58-9.43,48.55-33.15,61-59.94,7.94-.38-3.85,26.13-5.24,28.72-5.35,9.94-14.79,17.05-19.76,27.22,3.53,2.75,21.61-10.95,25.11-13.89,2.45-2.05,14.04-13.89,15.75-16.23,4.39-5.98,6.99-15.12,11.51-21.41l5.61-.44-1.52,11.46-36.46,50.52c12.32,1.1,21.02-9.6,30.13-14.94,1.77-1.04,4.25.63,4.94.44,1.04-.28,10.61-13.99,12.57-16.83,2.78-4.03,14.4-30.5,20.33-24.65-5.85,24.38-21.08,46.01-39.99,61.97,12.63,1.28,23.06-7.43,32.02-14.96,13.71-11.52,21.81-23.98,31-39.02l4.95,3.09-19.97,42.9c4,3.98,24.83-17.52,27.95-21.03,1.6-1.81,10.81-18.66,14.03-14.95,1.08,16.87-13.58,28.2-21.98,41-1.59,5.14,16.89-6.08,18.64-7.36,12.44-9.07,21.9-23.25,27.61-37.37l5.72-.27c1.25,13.99-10.08,22.33-15.7,33.28-.92,1.79-4.14,5.31-1.3,6.7,17.13-10.73,29.81-19.89,40.65-37.34,2.71-4.36,2.73-15.19,9.34-12.62s-3.75,19.63-6.14,23.82c-3.77,6.58-14.95,18.41-16.82,23.2-.99,2.53.35,3.71,2.94,2.94,24.99-7.45,28.58-31.81,36.93-53.08l6.1-.88,1,13.98c8.69-9.69,9.22-31.97,5.42-43.42-6.08-18.32-54.55-34.74-72.39-39.59-133.02-36.16-269.41-58.25-404.78-83.22-49.1-9.06-94.84-22.61-142.83-33.17-111.17-24.48-224.48-42.46-337.42-56.81l-7.97,6.22-4.25-8.12-54.77.15,2.04,6.95-6.03,1.02,1.99-7.97ZM774.02,133.67h-3.98v1.96h3.98v-1.96ZM119.03,135.65v2c1.3-.67,1.3-1.33,0-2ZM219.03,139.65v2c1.3-.67,1.3-1.33,0-2ZM313.03,139.65v2c1.3-.67,1.3-1.33,0-2ZM109.03,147.65v2c1.3-.67,1.3-1.33,0-2ZM440.02,775.64c.9-3.47-1.44-4-2.98-6-5.89-7.68-14.74-14.65-20.66-23.34-37.07-54.33-70.99-203.27-74.34-269.52-3.76-74.18-6.27-197.31,24.95-263.18,9.77-20.62,21.24-40.28,39-54.96-1.89-2.88-3.82-2.79-6.85-3.11-27.47-2.84-62.62-3.49-90.23-1.95-15.17.85-19.81-.56-24.34,15.6-8.26,29.48-9.43,62.84-12.78,93.22-13.64,123.65-14.84,258.67,13.58,380.88,2.53,10.89,5.65,21.9,9.63,32.37l10.67,2.34,4.34,15.64-7.97-3.99,40.34,93.67,97.63-7.68ZM427.48,171.97c-5.74.94-31.32,21.63-31.4,26.68,2.32,3.47,3.14,2.57,6.37,2.47,13.11-.38,28.49-6.28,41.6-8.47l.36-4.34c-3.52-6.39-8.1-17.79-16.94-16.35ZM1534.02,191.67h-3.98v1.96h3.98v-1.96ZM256.02,201.64v-3.99s-3.98,3.01-3.98,3.01l3.98.98ZM171.03,199.65v2c1.3-.67,1.3-1.33,0-2ZM121.03,201.65v2c1.3-.67,1.3-1.33,0-2ZM273.03,207.65v2c1.3-.67,1.3-1.33,0-2ZM260.01,223.64v-3.98h-1.96v3.98h1.96ZM249.03,233.65v2c1.3-.67,1.3-1.33,0-2ZM265.03,233.65v2c1.3-.67,1.3-1.33,0-2ZM1320.02,335.66c-1.93-2.11-31.69,20.53-27.98,23.98,5.34-.49,32.91-18.6,27.98-23.98ZM83.03,337.65v2c1.3-.67,1.3-1.33,0-2ZM1371.45,451.03c1.13-.75,1.45-4.59,3.81-5.21,2.69-.7,6.02,2.08,9.31,1.46,7.67-1.45,41.12-29.69,43.16-37.08.52-1.89.53-3.22.02-5.11-1.07-3.94-29.45-23.46-35.1-27.06-19.27-12.26-40.86-21.62-60.08-34.13-7.87-1.19-35.78,38.57-49.58,24.15-19.19,21.99-10.11,37.72,9.01,54.63,16.52,14.6,58.09,42.43,79.44,28.36ZM250.01,373.64v-3.98h-1.96v3.98h1.96ZM996.02,383.65c-11.17.93-6.03,22.59,1.99,25.99l-1.99-25.99ZM1021.99,387.65h-5.95c2.92,8.14.88,16.83,3.82,24.82l6.17,1.18-4.03-26ZM1800.02,391.64v-3.99s-3.98,3.01-3.98,3.01l3.98.98ZM169.05,397.69l-2.98,2.98.94.94c1.11-1.27,4.03-2.61,2.04-3.92ZM972.02,397.66l-4.04,3.01,3.06,10.97.98-13.98ZM1086.04,403.66l4.99,13.95,2.73-10.69-7.72-3.26ZM157.03,405.65v2c1.3-.67,1.3-1.33,0-2ZM1536.04,571.64c4.16.93,4.55-2.19,6.43-4.55,24.42-30.57,22.39-71.45,6.97-105.85-15.78-35.19-56.46-41.47-90.43-47.77l-3.21,1.34-9.77,28.81c10.07,4.35,21.28,5.38,31.36,9.67,2.54,1.08,26.92,14.54,22.63,18.35-19.04-1.16-46.19-15.78-64.57-11.56-6.52,1.5-17.17,19.23-24.48,25.51-21.89,18.8-69.58,31.25-98.15,31.86-13.81.3-34.26-8.66-43.68,6.3-15.62,8.41-5.22-8.81-11.06-13.16-28.51-7.03-55.34-19.79-79.07-36.87-12.33,23.15-12.47,49.63-30.93,70.97l-30.06,29.93c.72,3.45,18.91-8.15,20.66-9.33,18.51-12.5,30.59-25.25,40.35-45.65,3.94-8.24,6.88-19.66,8.97-28.66l6.02-1.34c2.95,2.9-12.22,46.86-15.63,53.36-3.48,6.64-15.95,24.95-21.07,29.93-6.87,6.69-20.44,9.78-21.28,20.7,7.84,7.26,57.03-34.44,60.9-44.08,2.4-5.96-.48-17.47,9.08-17.9,1.92,31.42-21.14,57.44-45.95,72.99-.65,9.22,30.88-7.13,33.35-8.61,21-12.58,31.62-33.84,36.43-57.22l6.17-1.17c-1.06,29.32-16.7,52.6-34.97,74.02l-15.02,13.95c15.49,6.91,47.53-24.66,54.9-36.06,3.81-5.89,3.41-12.81,8.09-17.87,4.41,2.85,2.33,4.44,2.07,8-1.48,20.68-10.96,41.73-27.03,54.96,2.95,3.83,2.32,2.39,5.27,1.36,11.64-4.07,19.29-13.96,27.52-22.53l26.14-41.81c7.03,3.24-4.18,27.8-6.62,33.33-2.6,5.88-5.93,11.49-8.7,17.3l-15.64,19.34c27.12-4.56,40.71-28.72,57.02-47.97,4.2-.87,3.22,2.08,3.08,5.06-.5,10.52-14.48,28.15-20.1,37.93,12.12,1.96,31.56-17.7,39.04-26.96,4.41-5.46,5.38-13.51,11.93-16.07,4.2-.06-2.36,16.81-3.24,18.76-2,4.45-20.97,29.89-19.72,31.26,19.02-12.94,36.37-27.22,46.98-48.05l5.03,1.14c2.57,16.57-13.87,30.1-18,43.94-.8,2.68.25,3.72,2.93,2.93,14.04-4.15,36.82-39.01,44.1-51.91l4.91,2.88-11.95,35.07c21.31-10.13,34.05-29.91,44.98-49.96,9.57,13.97-3.96,29.11-8.98,41.96,23.23-10.42,31.92-33.1,43-54l4.6,4.51c-1.28,7.01-3.82,14.01-5.21,20.93-.6,3.01-1.73,5.31,2.56,4.55,19.99-20.25,32.33-51.45,33.04-79.97,5.58-.57,8,6.45,8.04,10.94l-7.06,55.04c16.71-20.25,28.38-44.6,30.98-71.02.57-5.76,1.42-18.73,1.09-24.05-.12-1.94-5.98-12.42-2.05-12.93,5.39-.92,6.11,2.2,8.01,5.99,12.57,25.09-2.33,65.23-11.01,90.01ZM954.01,431.65c-.36-5.28,2.22-13.56-3.96-16,.36,5.28-2.22,13.56,3.96,16ZM1114.02,419.66h-3.98v7.98h3.98v-7.98ZM1008.02,435.64l-4.99-13.95c-7.53,4.32-3.67,15.46,4.99,13.95ZM976.01,433.65v-4.98s-3.96-3.02-3.96-3.02v4.98s3.96,3.02,3.96,3.02ZM1039.03,429.65v2c1.3-.67,1.3-1.33,0-2ZM1138.02,453.66c-.42-7.92,2.65-16.82-4.99-21.97-3.18-.22-3.41,18.51-1.16,20.79l6.16,1.18ZM1421.79,449.38c2.2-7.02,10.2-9.13,8.22-17.73l-15.97,13.03,3.01,4.95,4.74-.25ZM1994.05,439.64c2.93.64,4.16-.85,5.95-2.99l-4.96-4.96c-4.44,2.84-1.34,3.66-.99,7.95ZM1062.03,433.66l-10.19,1.28c-5.43,11.81-15.47,22.87-13.8,36.7,3.17,3.67,18.33-20.93,19.59-23.39,2.48-4.8,5.36-8.71,4.4-14.6ZM359.03,437.65v2c1.3-.67,1.3-1.33,0-2ZM932.04,479.64c4.34.59,7.57-.17,8.05-4.96.35-3.55-6.39-37.02-9.06-36.99l-4.68,6.6,5.69,35.35ZM1067.33,482.94c4.56-4.67,19.31-23.72,21.68-29.31,3.8-8.98,3.93-19.35-7.89-13.91l-31.06,50.93c4.91,3.61,13.82-4.17,17.28-7.72ZM981.06,447.66c-6.36,1.34-.37,16,3.97,17.95,6.5-3.26,1.62-19.12-3.97-17.95ZM1062.04,515.64c1.73,1.87,17.66-8.66,20.06-10.92,3.56-3.34,26.85-33.93,28.45-37.65,3.44-7.99-2.21-12.35-7.56-17.41-4.35-1.78-5.88,13.02-7.49,16.46-4.14,8.87-11.54,20.68-17.53,28.47-2.7,3.52-19.76,16.91-15.95,21.03ZM1136.05,531.65c14.26-10.9,26.14-40.18,27.51-57.62.78-9.94-3.34-16.01-10.56-22.36-4.3-.83-3.11,1.94-2.96,4.94.27,5.56,2.25,8.55,1.54,15.49-1.9,18.64-10.17,41.48-15.53,59.55ZM1395.03,453.65v2c1.3-.67,1.3-1.33,0-2ZM908.03,455.65v39c0,.98,2.44,3.62,2.01,5.63l5.98,1.38-2.34-42.66-5.65-3.35ZM995.03,455.65v2c1.3-.67,1.3-1.33,0-2ZM1394.02,459.66c-9.74.63-15.32,6.32-15.98,15.98,3.98,3.65,17.37-14.67,15.98-15.98ZM1347.35,465.98c-2.97,1.03-8.24,14.38-9.67,18.36-.81,2.26-2.19,4.56,1.4,5.31,8.98,1.89,17.53-13.91,22.93-19.07,1.33-5.85-11.1-5.84-14.65-4.61ZM963.85,471.81l-5.81-.15,5.81,22.8,6.16,1.19-6.17-23.84ZM1126.01,473.66c-4-.68-5.74,2.56-7.66,5.31-8.92,12.85-10.4,28.85-23.23,42.77-3.34,3.62-14.67,7.18-9.16,12.97,8.29,5.43,22.79-10.69,27.32-16.8,8.36-11.28,17.82-30.5,12.72-44.25ZM892.02,475.66h-3.98v3.98h3.98v-3.98ZM1002.03,489.64c-1.4-16.65-17.04-19.66-9.69-.28l9.69.28ZM870.05,537.64c2.73.55,4.83-.73,5.67-3.35,1.07-3.31-4.16-36.7-5.8-41.54-1.1-3.26-1.5-5.82-5.89-5.09l6.01,49.98ZM833.03,489.65v2c1.3-.67,1.3-1.33,0-2ZM944.02,491.66l-6.1,2.88-2,6.01,7.3,23.18,6.95-3.34-6.16-28.73ZM706.04,505.64h2.96s2.99-2.99,2.99-2.99l-2.99-2.98h-2.96s0,5.97,0,5.97ZM820.02,499.67h-3.98v1.96h3.98v-1.96ZM846.02,499.65c-5.25-.33-7.92,4.28-8.17,8.98-.69,13.07,5.95,32.02,4.18,46.02,1.46,8.63,8.73,4.39,10-2.04l-6.02-52.95ZM824.02,511.64h-5.98s0,66.02,0,66.02c7.37.7,11.41-1.33,12.14-8.97,1.56-16.5-8.12-39.61-6.15-57.05ZM922.01,513.65c-10.44-7.88-2.61,35.07,1.01,37.99,13.35-12.96,2.4-23.73-1.01-37.99ZM992.04,527.64l-1.98-9.11-7.75,1.4-.29,7.71h10.02ZM1016.02,539.64l-4.98-19.98c-5.09,5.57-5.95,22.1,4.98,19.98ZM364.01,525.64v-3.98h-1.96v3.98h1.96ZM1038.02,561.64c1.16-1.31-1.33-31.08-1.99-34.99-1.28-7.57-7.18-6.64-8.1,1.9-1.18,10.93-3.92,31,10.09,33.09ZM755.03,525.65v2c1.3-.67,1.3-1.33,0-2ZM898.05,531.65c-.77,11.43,4.16,22.16,5.86,33.3.59,3.91-1.95,7.43-1.49,11.26.35,2.92,6.56,18.29,10.58,17.43,2.77-1.84,3.01-3.89,3.2-6.97.23-3.81-10.94-43.75-13.19-49-1.03-2.4-2-5.49-4.96-6.02ZM954.04,589.64l6.9-2.08,26.7-41.34-2.59-6.52c-11.83,2.84-12.56,12.95-18.18,21.78-5.86,9.2-15.25,15.9-12.83,28.15ZM1058.02,589.66c2.89-14.99,1.42-29.42-2.98-44l-9.01,32.84c2.18,5.3,5.02,12.56,11.99,11.16ZM877.06,547.66c-7.07,6.43-.55,16.16.43,23.53,2.37,17.76,4.38,40.51,13.68,56.32,1.12,1.9,3.36,4.7,5.82,4.13l4.59-8.67c-12.1-20.98-12.11-48.18-19.66-70.21-.84-2.44-1.27-5.83-4.86-5.1ZM974.87,604.48c6.97-6.08,34.74-40.34,32.9-47.41l-4.96-5.31c-4.75-.83-18.73,27.55-22.76,32.89-5.72,7.58-14.44,16.36-22,22.02l6.86,4.98c5.06-.55,7-4.58,9.97-7.17ZM1075.05,555.69l-2.98,2.98.94.94c1.11-1.27,4.03-2.61,2.04-3.92ZM898.01,569.64v-3.98h-1.96v3.98h1.96ZM1108.03,633.65c-1.69,1.29-1.67,3.38-5.99,1.99,5.08-18.9,5.11-35.03-.03-53.99-5.12-.8-3.11.46-4.17,2.81-2.91,6.41-3.94,15.4-7.66,21.95l-6.15,1.24v-35c0-1.46-5.42-9.03-7.98-6.99-4.28,9.71-3.94,22.01-7.6,31.42-5.22,13.39-29.25,53.98-39.13,63.87-9.3,9.3-22.86,13.47-31.25,23.71,1.91,2.79,3.81,3.01,6.96,3.18,21.3,1.2,66.84-49.02,70.97-70.83l6.02-1.34c-6.63,37.49-30.68,72.23-63.95,90.99-.16,6.22,25.76,1.45,29.94-.02,5.2-1.82,27.93-19.48,32.01-23.99,7.72-8.53,12.65-23.42,17.86-33.75l6.13-1.23c-4.19,25.65-19.22,51.12-38.12,68.86l-25.86,15.1c18.21,7.38,35.66-4.56,49.81-15.15,10.66-7.98,17.03-14.69,23.27-26.73,2.79-5.37,2.4-16.68,8.89-16.09,1.12,26.31-17.53,52.05-36.99,67.99-5.78,4.74-15.21,6.76-19,13.98,16.68,4.37,34.85-7.38,46.94-18.04,7.55-6.66,12.2-16.84,21.05-19.93,4.68,5.28-24.54,53.63-37.98,52.02-.32,10.75,18.89,1.6,24.07-.95,12.48-6.16,20.88-17.83,30.93-27.03l1.95,7.9-26.94,36.05c24.86-4.09,46.84-22.43,59.01-44.01,2.96-.25,4.84,2.15,4.93,4.9.37,11.08-25.29,35.48-21.93,39.11,23.46-3.11,35.14-17.68,50.3-32.68,2.66-2.63,2.66-4.32,7.68-3.3-3.03,14.9-13.04,27.03-23.97,37.01-2.11,5.12,6.5,2.42,8,1.99,20.5-5.99,38.84-24.28,51.01-41,5.47-2.29,2.1,7.49,1.4,9.42-3.05,8.42-10,17.41-16.42,23.59-2.06,4.91,5.94,2.69,8.03,2.02,12.33-3.92,41.21-31.29,47.66-42.34,4.22-7.23,3.65-17.28,11.29-22.67,6.41-.12-2.19,19.34-3.47,22.49-5.72,14.13-14.07,30.5-25.52,40.48,7.21.65,20.33-5.12,26.65-9.35,8.34-5.57,11.69-14.92,18.34-19.82,1.89-1.39,4.59.09,4.75-.12.81-1.05.53-4.91,1.83-7.09,8.57-14.39,15.76-26.45,21.45-42.62,4.46-.84,2.83,1.99,3.01,4.99.52,8.71-11.11,39.56-15.63,48.4-2.01,3.94-5.46,6.49-8.39,9.62-.75,2.57.41,3.95,2.95,2.95,10.92-4.3,32.78-30.6,38.65-41.37,7.49-13.77,10.03-29.73,14.41-44.6,8.66-.41,7.2,11.89,0,12.02l4.03,3.26c.48,25.28-14.51,46.51-26.04,67.73l2.95.96c30.42-17.63,45.34-78.16,30.08-108.02-2.3-4.5-4.48-7.33-10.01-7.75-83.67,24.1-181.3,24.56-252.04-32.15l-9.99,29.91c-4.53-2.92-1.96-4.22-1.67-7.59.85-9.62,4.56-19.1,2.25-28.96l-12.59-11.4c-3.63,9.21-2.48,27.53-10.99,33.99l-.99-3.99-3.01,3.97,4,.02ZM856.02,567.66c-14.2,2.17-9.46,20.05-7.75,30.75,2.34,14.65,8.52,36.48,13.24,50.76,1.82,5.51,3.09,13.7,8.5,16.47l7.63-15.43c-1.13-18.23-11.67-36.35-16.63-54.55-2.43-8.91-3.75-18.85-4.99-28.01ZM1557.03,569.65v2c1.3-.67,1.3-1.33,0-2ZM1018.27,571.89l-42.3,58.74,3.11,5.02c3.63.76,23.73-15.24,27.02-18.95,5.17-5.82,23.37-33.22,21.65-39.62l-9.48-5.2ZM830.04,665.66l6.91,4.07c1.73,9.04,4.33,17.83,7.58,26.42,2.1,5.57,11.7,35.09,18.47,33.5,14.71-14.61.45-29.13-4.52-43.45-3.46-9.97-5.08-20.58-9.88-30.12l-17.56-70.38c-18.02,7.38-7.29,22.44-4.89,36.87.54,3.26,3.43,4.03-1.15,7.07-10.07-.9-9.79-29.65-13.95-29.93-7.28,3.95-16.88,5.4-15.03,15.96-10.74-3.96-16.13,5.46-25.7,8.27,5.66,38.12,18.99,75.35,36.66,109.76,10.56,20.56,49.61,91.82,66.74,101.26,2.76,1.52,4.63,3.49,8.3,2.68,2.63-2.49-15.84-28.25-18.3-32.66-21.08-37.76-42.79-78.65-56.22-119.8-6.03-18.48-12.56-37.88-11.46-57.52,6.97-7.97,13.32,36.19,14.1,38.88,3.53,12.19,34.77,94.94,42.89,95.07,10.67-13.17-4.85-30.65-9.97-43.99-6.33-16.51-14.56-34.04-13.02-51.96ZM157.03,595.65v2c1.3-.67,1.3-1.33,0-2ZM1042,595.66c-5.08-1.14-3.48,1.38-5.15,3.75-10.86,15.36-22.95,29.48-33.7,44.36-2.15,2.98-6.98,9.4-2.08,11.89,7.42,1.53,24.69-15.19,28.95-21.02,4.54-6.21,18.74-32.69,11.98-38.98ZM195.03,599.65v2c1.3-.67,1.3-1.33,0-2ZM930.02,619.64l-6.98-17.98c-5.62,5.03-6.53,11.51-1.02,17.01l8,.97ZM1230.01,623.64v-5.98h-1.96v5.98h1.96ZM438.02,727.64l-45.97-107.98c2.1,19.1,10.44,37.65,17.63,55.34,5.32,13.09,13.23,32.24,19.55,44.45,1.67,3.22,4.26,8.82,8.79,8.19ZM125.03,621.65v2c1.3-.67,1.3-1.33,0-2ZM271.03,635.65v2c1.3-.67,1.3-1.33,0-2ZM940.02,643.66l-7.88,3.17,2.08,6.66,5.81.17v-10ZM661.03,659.65v2c1.3-.67,1.3-1.33,0-2ZM956.02,669.64l-.98-7.98-2.99,3.01v4.97s3.97,0,3.97,0ZM892.03,703.63c9.75.18,36.46-19.62,39.14-27.87l-.1-8.14h-6.07s-32.96,36.01-32.96,36.01ZM946.02,687.66l-37.98,39.98c19.9.16,32.22-23.72,37.98-39.98ZM280,699.67c-3.36-2.33-20.29,13.75-23.76,17.19-22.14,21.9-53.26,58.9-71.87,84.13-2.37,3.21-22.17,31.07-20.32,32.66l11.98-1c34.43-39.65,66.92-80.9,106.16-115.92l-2.19-17.05ZM953.03,703.65v2c1.3-.67,1.3-1.33,0-2ZM961.22,754.88c5.82-5.84,14.67-17.19,18.58-24.47,2.51-4.66,12.12-23.78,5.22-26.76-13.86,26.01-29.07,55.75-58.98,66.02l1.02,4c12.88-4.23,24.65-9.27,34.16-18.8ZM213.03,707.65v2c1.3-.67,1.3-1.33,0-2ZM956.02,711.66c-3.77-.87-4.74,2.14-6.99,3.99-6.16,5.05-18.77,16.33-24.08,21.92-2.63,2.77-6.63,8.09-6.91,12.07,4.86,4.42,43.28-26.16,37.98-37.98ZM1000.05,721.65c-3.79,18.87-18.88,35.77-33.08,47.94-11.59,9.93-27.01,16.96-37.95,26.05-2.16,1.8-4.11,2.86-1.02,5.04,9.71,5.42,33.69-11.9,41.87-18.2,13.22-10.18,32.27-31.68,35.73-48.29,1.09-5.21,1.75-12.84-5.55-12.54ZM289.93,725.75c-2.93-.85-4.67.28-6.99,1.8-18.82,12.29-67.27,79.53-80.97,101.02-1.57,2.46-2.53,3.9-1.91,7.07,7.03.82,11.93-.16,17.29-4.69,8.92-7.54,30.13-32.39,38.64-42.36,13.15-15.4,22.36-34.02,39.04-46.87l-5.09-15.97ZM909.03,733.65v2c1.3-.67,1.3-1.33,0-2ZM876.02,735.66c-5.18-.7-8.35,6.31-7.68,10.55l15.67,23.43-7.99-33.98ZM1279.52,816.17c-5.27-4.95-51.5-1.91-62.57-2.44-36.23-1.75-95.28-5.27-127.34-20.66-28.55-13.72-50.64-37.43-74.55-57.41-14.35,35.86-40.26,67.49-74.99,85,1.89,2.85,3.87,2.84,6.91,3.14,20.44,2.06,46.64-22.66,59.01-37.19,1.65-1.94,10.74-18.54,14.03-14.95-7.24,31.52-32.22,54.42-59.98,69,23.58,11.11,49.26-13.46,63.95-30.05,1.61-1.82,10.81-18.65,14.03-14.95,1.46,12.18-7.9,21.5-14.96,30.02-12.48,15.06-26.72,26.3-42.99,36.97-.04,5.94,20.24,1.1,23.95-.01,21.4-6.43,31.71-25.58,47.99-38.99-3.16,24.09-25.43,38.31-41.79,53.19-2.22,2.02-5.01,2.96-4.18,6.8,26.94,1.2,38.77-9.73,55.18-27.8,2.02-2.22,2.96-5.01,6.8-4.18-.61,16.39-13.82,26.36-25.44,35.54-2.39,1.89-5.45,2.28-4.54,6.44,16.44.1,30.16-8.51,42.03-18.95,5.62-4.94,7.47-14.09,15.95-13.03,4.15,4.08-20.61,35.53-26,38.99l.98,4.94c29.25-9.32,52-27.98,68.03-53.9l2.63,6.54-27.63,43.4c23.76-2.82,36.97-20.96,51.03-37.96,4.11-.89,3.39,2.14,3.05,5.04-.68,5.66-19.47,33.54-18.06,34.94,17.96-6.29,31.91-18.96,43.02-33.97,4.63-1.06,3.34,4.25,2.84,6.84-1.43,7.51-8.08,14.23-9.84,20.18-.87,2.95.22,3.39,2.98,2.99,19.35-7.35,31-23.41,42.64-39.38,1.8-2.47,2.07-5.57,6.34-4.64,3.38,4.02-7.71,23.89-10.38,28.59-3.47,6.11-11.83,12.57-10.59,19.41,14.61-6.37,36.08-28.82,43.4-42.6,3.99-7.52,3.41-16.07,10.58-21.38,4.48,2.92,2.04,4.17,1.67,7.6-1.48,13.62-7.97,27.81-10.7,41.33,2.92,3.11,7.83-2.19,9.74-4.27,14.48-15.83,16.92-49.52,7.78-68.18ZM903.03,739.65v2c1.3-.67,1.3-1.33,0-2ZM484.04,743.66l-40.06,5.07c3.05,11.86,15.36,17.41,26.87,16.88,10.53-1.28,12.99-13.02,13.2-21.94ZM236.05,837.63c6.13,1.92,10.84.8,16.11-2.88,10.09-7.03,28.92-35.8,38.85-47.13,5.58-6.37,12.45-11.73,18.13-18.03l-7.07-17.1c-8.07-5.19-21.27,22.7-27.98,26.21l-38.04,58.93ZM910.02,837.64c1.98-1.92-5.57-13.23-7.16-15.82-10.2-16.63-21.31-33.63-32-50-1.41-2.16-5.61-10.45-8.81-8.16-5.75,12.44,2.76,23.52,9.14,33.83,6.51,10.52,21.74,28.81,30.81,37.19,2.73,2.51,3.93,3.67,8.02,2.96ZM887.01,773.69c-1.98,1.39,1.08,2.75,2.04,3.92,1.99-1.31-.93-2.65-2.04-3.92ZM316.01,777.65c-3.03-.82-3.31.81-5,1.97-8.98,6.17-35.97,44.3-41.03,55.02-1.29,2.73-3.08,1.64,1.04,4.96l54.14-43.93-9.16-18.02ZM913.03,779.65v2c1.3-.67,1.3-1.33,0-2ZM922.01,793.64v-3.98h-1.96v3.98h1.96ZM384.03,801.66l-21.95,2.99c8.11,13.52,20.29,15.56,21.95-2.99ZM302.04,837.63c5.65,7.32,31.76-18.61,33.68-24.62l-3.64-6.47c-5.2-3.34-14.71,8.19-18.1,12.06-2.13,2.43-13.41,17.13-11.94,19.03ZM352.03,833.63l-2.88-6.09-6.01-2c-3.04-.34-11.23,8.2-9.09,10.09l17.99-2ZM1036.01,897.64v-3.98h-1.96v3.98h1.96Z"/>
    <polygon class="cls-1" points="385.74 315.35 378.04 315.66 378.04 297.64 384.79 297.89 387.78 300.94 385.74 315.35"/>
    <polygon class="cls-1" points="477.87 519.78 479.71 538.34 478.15 540.76 472.04 541.64 472.04 519.64 477.87 519.78"/>
    <path class="cls-1" d="M934.02,295.64c-8.81,2.07-12.73-22.18-6.99-21.95,5.46,5.71,7.4,14.28,6.99,21.95Z"/>
    <polygon class="cls-1" points="726.01 577.66 728.06 592.6 722.05 597.64 720.01 582.69 726.01 577.66"/>
    <path class="cls-1" d="M694.01,625.64c-9.15-1.15-10.71-13.44-2.98-17.95,7.18,4.89,5.21,10.83,2.98,17.95Z"/>
    <path class="cls-1" d="M394.01,489.64c-7.22-1-7.84-22.18-2.98-21.96,6.86,6.08,5.54,14.14,2.98,21.96Z"/>
    <path class="cls-1" d="M436,521.65l3.94,12.79-6.89,3.19c-4.55-1.43-5.37-17.12,2.95-15.98Z"/>
    <polygon class="cls-1" points="584.03 539.63 586.06 556.63 581.05 557.63 578.03 552.65 578.04 539.64 584.03 539.63"/>
    <path class="cls-1" d="M511.03,469.69l4.76,11.01-4.76,8.91c-3.68.14-5.15-17.4,0-19.92Z"/>
    <path class="cls-1" d="M612.02,565.66c-1.5,3.84,3.51,17.57-2.96,17.97l-4.87-14.73,1.77-2.32,6.06-.92Z"/>
    <path class="cls-1" d="M598.01,301.65l-7.61-9.4,2.63-8.56c4.71,4.53,5.17,11.82,4.98,17.96Z"/>
    <path class="cls-1" d="M654.01,615.64l-7.86-3.25,1.9-8.74c7.64.49,8.64,5.93,5.96,11.99Z"/>
    <path class="cls-1" d="M680.01,309.65c-4.99.6-13.46-12.71-6.95-13.99,5.73-1.13,8.32,9.99,6.95,13.99Z"/>
    <path class="cls-1" d="M514.03,405.63l-6.14-1.23c-.98-4.59-6.77-8.82-.83-12.74,5.91-1.18,4.7,10.92,6.97,13.97Z"/>
    <path class="cls-1" d="M1207.52,385.12c-1.24,1.34-5.05,3.23-6.55.59-7.47-13.17,16.91-11.75,6.55-.59Z"/>
    <path class="cls-1" d="M1734.05,313.66c8.29-1.79,7.02,14.12,2.98,13.95l-4.88-6.88,1.9-7.07Z"/>
    <polygon class="cls-1" points="1638.05 297.66 1644.17 302.69 1639.03 311.61 1638.05 297.66"/>
    <path class="cls-1" d="M1707.03,305.69l3.07,8.95c-1.28,7.87-9.09,5.64-7.73-1.56l4.66-7.4Z"/>
    <path class="cls-1" d="M1969.06,363.66c5.87-1.31,6.85,10.88,1.94,11.98-5.87,1.31-6.85-10.88-1.94-11.98Z"/>
    <path class="cls-1" d="M548.05,541.65l2.98-15.96c5.87,4.72,3.47,13.39-2.98,15.96Z"/>
    <path class="cls-1" d="M758.02,299.64c-7,.12-8.4-8.66-7.98-13.98,5.78-1.95,9.15,12.66,7.98,13.98Z"/>
    <path class="cls-1" d="M546.02,343.64c-7.9.29-5.99-8.45-5.98-13.98,7.9-.29,5.99,8.45,5.98,13.98Z"/>
    <path class="cls-1" d="M1185.03,353.69c6.45,3.13.73,12.79-3.97,11.95l-1.06-7.02,5.03-4.93Z"/>
    <polygon class="cls-1" points="1944.02 353.66 1944.02 363.66 1936.04 363.64 1936.99 355.6 1944.02 353.66"/>
    <polygon class="cls-1" points="2026.02 373.66 2025.08 381.69 2018.04 383.64 2018.04 373.64 2026.02 373.66"/>
    <path class="cls-1" d="M1673.89,315.54l-5.77.08.94-9.95c8.03-.48,7.37,4.19,4.83,9.87Z"/>
    <path class="cls-1" d="M1068.04,311.64l2.99-13.95c4.13.07,5.3,15.55-2.99,13.95Z"/>
    <polygon class="cls-1" points="1266.02 413.66 1265 421.62 1258.04 425.64 1259.07 417.68 1266.02 413.66"/>
    <path class="cls-1" d="M1266.02,185.66c1.92,1.88-2.16,11.86-4.99,11.95-6.2.19-.92-17.75,4.99-11.95Z"/>
    <polygon class="cls-1" points="764.02 595.64 761.06 607.63 758.04 595.65 764.02 595.64"/>
    <path class="cls-1" d="M1426.02,281.64l-7.97-3.01,3.01-6.97c5.55.24,5.35,5.6,4.96,9.98Z"/>
    <path class="cls-1" d="M1493.05,271.67c7.33-1.97,9.19,6.08,1.98,9.94-3.85-2.16-7.47-8.46-1.98-9.94Z"/>
    <path class="cls-1" d="M1990.04,385.64c-1.87-10.67,7.5-14.47,7.97-3.01l-7.97,3.01Z"/>
    <path class="cls-1" d="M1214.04,395.68l6.99-4c9.09,8.16-5.7,15.83-6.99,4Z"/>
    <path class="cls-1" d="M1101.82,323.46l-5.78.18,2-11.98c7.95,0,6.14,6.55,3.78,11.8Z"/>
    <polygon class="cls-1" points="779.82 265.84 782.02 275.64 776.24 275.45 774.04 265.66 779.82 265.84"/>
    <path class="cls-1" d="M1856.02,337.66c1.77,5.01,1.42,8.44-2.99,11.95l-3.06-6.98,6.05-4.96Z"/>
    <path class="cls-1" d="M1092.02,147.64h-2.96c-5.31-3.85-8.75-11.61-.05-9.97l3,9.97Z"/>
    <polygon class="cls-1" points="1610 297.65 1610 307.64 1604.04 307.66 1604.04 297.64 1610 297.65"/>
    <path class="cls-1" d="M568.01,315.63c-3.21-.1-7.12-10.83-5.96-11.97l7.87,3.23-1.9,8.74Z"/>
    <path class="cls-1" d="M1466.02,259.66l-2.01,7.98c-5.97,1.24-11.59-3.78-4.75-7.75l6.75-.23Z"/>
    <path class="cls-1" d="M410.02,275.66v10s-7.98-.02-7.98-.02c-1.41-1.27,3.59-11.77,7.98-9.98Z"/>
    <polygon class="cls-1" points="712.02 291.64 707.02 289.66 706.04 279.66 711.04 281.64 712.02 291.64"/>
    <path class="cls-1" d="M1333.06,237.66c5.41-1.23,6.84,8.87,1.94,9.98-5.41,1.23-6.84-8.87-1.94-9.98Z"/>
    <polygon class="cls-1" points="1770.02 325.65 1764.04 325.65 1764.31 316.93 1767.03 313.69 1769.76 316.93 1770.02 325.65"/>
    <rect class="cls-1" x="1128.04" y="317.64" width="5.98" height="10.02"/>
    <polygon class="cls-1" points="626.04 283.66 634.01 286.67 631.03 293.61 626.04 283.66"/>
    <path class="cls-1" d="M1308.05,233.63c-1.77-1.27-3.1-11.04,2.96-9.98l2.93,6.89c-1.03,1.98-4.2,4.3-5.88,3.09Z"/>
    <path class="cls-1" d="M1180.01,149.65l2.01,11.99-5.98.02c.88-4.13-3.13-13.64,3.97-12.01Z"/>
    <path class="cls-1" d="M828.02,285.64c-7.01-.05-7.99-6.85-5.97-11.99l5.97,11.99Z"/>
    <rect class="cls-1" x="1796.04" y="327.64" width="5.98" height="10.02"/>
    <path class="cls-1" d="M1210.02,163.64h-4.97s-2.06-1.94-2.06-1.94l-.94-8.04c4.13-1.97,9.47,8.66,7.98,9.98Z"/>
    <polygon class="cls-1" points="2048.04 375.64 2048.05 372.68 2053.06 367.66 2058.02 370.68 2054.79 375.41 2048.04 375.64"/>
    <polygon class="cls-1" points="1044.02 301.64 1038.28 298.4 1041.03 289.69 1044.02 301.64"/>
    <path class="cls-1" d="M986,265.65c1.32,3.9,3.3,13.09-3.96,11.98.92-4.13-3.15-13.61,3.96-11.98Z"/>
    <path class="cls-1" d="M875.06,257.66c3.71-.82,5.71,4.09,4.95,6.97-2.02,7.64-12.77-5.25-4.95-6.97Z"/>
    <polygon class="cls-1" points="852.02 267.64 846.04 267.66 846.04 257.66 851.04 259.64 852.02 267.64"/>
    <polygon class="cls-1" points="1577.03 285.69 1580.09 290.64 1577.03 297.61 1573.98 292.66 1577.03 285.69"/>
    <path class="cls-1" d="M2074.02,373.64h-4.97s-2.97-2.98-2.97-2.98l4.95-6.97c3.75,2.46,3.24,5.78,2.99,9.95Z"/>
    <polygon class="cls-1" points="1012.02 295.64 1006.04 295.66 1006.04 285.66 1011.04 287.64 1012.02 295.64"/>
    <path class="cls-1" d="M436.04,265.64c-7.32,5.29-10.71-11.43-1.03-7.97,3.47,1.24,2,7.27,1.03,7.97Z"/>
    <path class="cls-1" d="M1244.02,405.66c.49.49-.29,6.05,0,7.98h-7.98s2.2-7.79,2.2-7.79c.8-.49,5.57-.4,5.78-.19Z"/>
    <polygon class="cls-1" points="954.02 253.64 946.99 251.69 946.04 245.66 953.08 247.6 954.02 253.64"/>
    <polygon class="cls-1" points="526 377.66 524.06 389.64 521.99 380.65 526 377.66"/>
    <polygon class="cls-1" points="1148.04 151.64 1148.04 141.66 1153.93 144.75 1153.93 148.54 1148.04 151.64"/>
    <path class="cls-1" d="M1238.02,175.64h-5.98c-.25-4.18-.76-7.49,2.99-9.95,3.75,2.46,3.24,5.77,2.99,9.95Z"/>
    <path class="cls-1" d="M1391.03,245.69l4.96,4.96-4.96,4.96c-4.25-3.04-4.25-6.88,0-9.92Z"/>
    <path class="cls-1" d="M1884.02,351.66c1,10.93-10.4,10.49-5.96,0h5.96Z"/>
    <polygon class="cls-1" points="1362.02 245.65 1362.02 253.64 1359.06 253.63 1356.05 250.63 1356.04 245.66 1362.02 245.65"/>
    <polygon class="cls-1" points="1914.02 355.66 1914.01 360.63 1911 363.63 1908.04 363.64 1908.04 355.65 1914.02 355.66"/>
    <polygon class="cls-1" points="1282.04 209.64 1282.04 201.66 1285 201.67 1288.02 206.62 1285 209.63 1282.04 209.64"/>
    <polygon class="cls-1" points="1028.02 139.66 1029.99 144.65 1027 147.63 1024.04 147.64 1024.04 139.66 1028.02 139.66"/>
    <rect class="cls-1" x="870.05" y="187.66" width="1.96" height="5.98"/>
    <rect class="cls-1" x="387.37" y="356.71" width="1.33" height="9.87" transform="translate(-142.07 380.31) rotate(-45)"/>
    <path class="cls-1" d="M1467.03,197.65c1.3.67,1.3,1.33,0,2v-2Z"/>
    <path class="cls-1" d="M875.03,187.65c1.3.67,1.3,1.33,0,2v-2Z"/>
    <path class="cls-1" d="M418.02,767.64c-2.63,2.73-14.71-12.05-16.38-14.6-4.62-7.03-32.4-61.39-33.22-66.83-.54-3.59-.34-4.3,2.61-6.52l46.99,87.95Z"/>
    <path class="cls-1" d="M357.77,691.93l38.26,77.7c-7.21,5.64-22.91-24.65-25.43-29.55-3.05-5.95-20.9-46.13-18.56-48.42l5.72.27Z"/>
    <path class="cls-1" d="M333.03,697.69l38.91,68.96-4.91,4.96c-4.88-4.03-8.1-9.3-11.34-14.62-5.56-9.12-22.42-42.19-24.75-51.27-1.03-4-1.78-5.27,2.09-8.03Z"/>
    <path class="cls-1" d="M348.02,769.64c-3.89,4.23-15.58-19.92-16.78-22.2-3.51-6.67-11.47-21.99-13.65-28.35-1.09-3.19-2.14-5.94-1.55-9.43,4.14-.9,4.55,2.14,6.44,4.54,4.29,5.46,28.3,52.43,25.54,55.44Z"/>
    <path class="cls-1" d="M325.84,673.81l2.18,11.82c-7.29.13-12.9-15.17-2.18-11.82Z"/>
    <polygon class="cls-1" points="350.01 679.65 344 674.68 345.03 667.69 350.01 679.65"/>
    <polygon class="cls-1" points="366.02 671.64 361.02 669.67 360.05 661.65 365.03 665.65 366.02 671.64"/>
    <path class="cls-1" d="M1373.06,573.66c5.41-1.23,6.84,8.87,1.94,9.98-5.41,1.23-6.84-8.87-1.94-9.98Z"/>
    <polygon class="cls-1" points="1312.04 585.64 1312.27 578.89 1317 575.66 1320.03 580.62 1315 585.63 1312.04 585.64"/>
    <rect class="cls-1" x="1406.04" y="575.64" width="5.98" height="10.02"/>
    <rect class="cls-1" x="1437.13" y="568.74" width="5.81" height="5.81" transform="translate(202.92 1504.41) rotate(-58.67)"/>
    <polygon class="cls-1" points="1479.03 551.69 1482.05 556.65 1479.03 561.61 1476.01 556.65 1479.03 551.69"/>
    <polygon class="cls-1" points="1292.02 557.64 1289.06 557.63 1286.04 554.62 1291.04 547.66 1292.02 557.64"/>
    <polygon class="cls-1" points="1256.02 551.66 1256.02 559.64 1250.04 559.64 1250.05 554.67 1253.06 551.67 1256.02 551.66"/>
    <path class="cls-1" d="M1346.02,583.66c4.58,4.93-7.9,11.51-5.98,3.02.38-1.69,4.95-4.12,5.98-3.02Z"/>
    <path class="cls-1" d="M1233.83,739.46l-5.78.19,3.02-11.99c7.3,1,4.63,7.08,2.76,11.8Z"/>
    <path class="cls-1" d="M1200.02,735.64h-7.98c-1.44-13.26,9.38-13.38,7.98,0Z"/>
    <polygon class="cls-1" points="1362.02 681.66 1362.02 693.66 1356.04 693.65 1356.39 685 1362.02 681.66"/>
    <polygon class="cls-1" points="1274.02 739.64 1269.05 739.63 1266.17 736.45 1268.05 729.66 1273.04 731.64 1274.02 739.64"/>
    <polygon class="cls-1" points="1320.02 701.66 1318.01 711.64 1312.14 708.54 1315.05 701.67 1320.02 701.66"/>
    <polygon class="cls-1" points="1166.02 721.66 1165.08 727.69 1163.02 729.63 1158.04 729.64 1158.04 721.66 1166.02 721.66"/>
    <polygon class="cls-1" points="1396.02 663.66 1396.02 671.64 1390.04 671.64 1390.05 666.67 1393.06 663.67 1396.02 663.66"/>
    <polygon class="cls-1" points="1150.02 693.66 1150.01 698.63 1147 701.63 1144.04 701.64 1144.04 693.65 1150.02 693.66"/>
    <polygon class="cls-1" points="1132.03 681.63 1128.04 681.64 1128.05 677.65 1132.03 681.63"/>
    <path class="cls-1" d="M1246.02,831.66c2.06,4.63-4.54,14.9-8.96,13.98-7.91-1.64,3.17-16.44,8.96-13.98Z"/>
    <polygon class="cls-1" points="1077.69 843.33 1070.04 843.64 1075.06 833.66 1079.7 838.29 1077.69 843.33"/>
    <path class="cls-1" d="M1201.05,851.67c14.74-.1-1.9,19.38-3,3l3-3Z"/>
    <polygon class="cls-1" points="1102.02 845.66 1101.08 853.69 1094.04 855.64 1095.87 846.83 1102.02 845.66"/>
    <path class="cls-1" d="M1149.81,845.46c-9.91,7.53-11.16-15.3,2.18-4.81-1.81.88-1.6,4.37-2.18,4.81Z"/>
    <path class="cls-1" d="M1048.02,771.66l-.34,8.64-5.64,3.34c-.72-.82.07-14.51,5.98-11.98Z"/>
    <polygon class="cls-1" points="1180.02 845.66 1179.08 851.69 1172.04 853.64 1172.99 847.6 1180.02 845.66"/>
    <polygon class="cls-1" points="1030.02 751.66 1028 759.64 1024.04 759.64 1024.04 751.65 1030.02 751.66"/>
    <path class="cls-1" d="M1282.02,395.64h-5.98s0-5.98,0-5.98c3.64-.65,6.62,2.2,5.98,5.98Z"/>
    <polygon class="cls-1" points="1392.04 435.64 1392.04 429.66 1395 429.67 1397.99 432.65 1395 435.63 1392.04 435.64"/>
    <rect class="cls-1" x="1404.04" y="419.66" width="3.98" height="3.98"/>
    <path class="cls-1" d="M830.02,655.65l-6.14-1.23.17-10.76c7.16-.5,6.27,7.26,5.97,11.99Z"/>
  </g>
</svg>