<?xml version="1.0" encoding="UTF-8"?>
<svg id="Layer_1" data-name="Layer 1" xmlns="http://www.w3.org/2000/svg" viewBox="0 0 475.02 563.2">
  <defs>
    <style>
      .cls-1 {
        fill: #02587e;
      }
    </style>
  </defs>
  <path class="cls-1" d="M273.91,514.69c2.77,5.84,2.73,12.11.21,17.39l-6.36,5.95-10.8,4.05c-4.37,1.52-8.97,2.16-13.98,2.02-6.05,6.38-14.87,7.77-23.25,4.48l-9.73-12.25c-6.45-.25-13.42-1.02-18.56-4.31-5.38-3.38-9.12-7.07-11.09-13.13,1.92-10.26,4.9-19.64,9.23-30.57-9.46.94-18.18-3.81-20.57-13.22-.24-6.52,3.91-11.89,9.45-14.64l8.74-4.06-4.86-2.35-3.52,2.9-23.22-4-15.67-7.73-3.52-5.21c-9.97,3.74-19.77,2.48-27.7-4.47-3.29-4.97-5.29-10.32-6.5-16.6l-13.11-7.64c-12.49-5.4-21.87-14.59-28.88-26.15l-19.97-30.02c-4.78-4.99-8.08-10.97-10.6-17.4l-7.9-17.12c-6.47-13.8-11.08-27.94-11.43-43.53-2.66-15.66-3.22-31.04.35-46.54l.76-17.36.87-18.77,11.68-29.26,9.92-24.05c6.29-10.32,12.13-20.15,20.08-29.04l7.96-10.08,15.91-16.02,5.53-4.57c10.8-10.41,21.82-20.11,33.95-28.79,11.73-6.57,22.98-11.54,35.7-15.52l49.28-15.61c2.87-.04,5.21-.8,7.43-2.67l20.13-2.93c3.51-.51,7-.53,10.5.19l36.71,6.23,15.12,1.69c5.84.41,11.34,1.42,17.16,2.75l13.56,4.57,12.05,6.14c12.41,5.9,23.72,12.8,34.45,21.55,6.88,5.57,13.65,10.25,21.25,14.63,15.01,9.47,27.33,21.38,36.51,36.44,8.87,10.54,15.51,21.77,20.59,34.52,5.69,10.77,11.16,21.39,14.9,32.99l2.01,11.92c.35,12.03,1.44,23.69,3.54,35.69v9.04c-.08,12.44-1.24,24.49-4.77,36.34l-3.11,18.17-5.08,26.86-6.42,19.58c-3.92,15.37-10.48,29.23-19.69,42.06l-8.52,11.59-18.32,17.57c-5.86,3.58-10.89,7.57-15.98,12.06-2.65,1.62-5.03,3.52-7.08,5.91l-10.96,8.08-10.45,6.59-2.83,11.17c-1.38,4.83-3.97,9.82-7.05,13.66-2.15,1.48-3.64,3.21-4.96,5.19l-11.43,5.55c-3.09.43-7.04.29-10.2-.6l-13.86-2.45c-5.43-1.45-10.7-2.34-16.57-2.73l2.38,8.19c2.82,5.59,1.49,12.09-4.26,15.21l-8.93-.3-8.96-.87,1.07,12.18c-.3,3.69.44,7.47,1.69,11.45ZM283.16,84.72c5.7,1.55,10.65,4.04,16.23,7.14l25.17,18.92c2.82,1.82,5.31,3.83,7.77,6.21,13.32,8.2,25.16,18.24,33.46,31.55l14.01,22.15c10.68,20.32,16.32,42.35,17.35,65.46,1.97,9.64,1.98,18.57,1.84,28.46-1.38,9.34-3.97,18.41-6.98,27.72l-7.85,20.08c-5.13,10.16-11.68,19.11-19.24,27.67-9.25,12.96-20.53,23.7-34.53,31.38l-6.48,3.47c-3.41,1.14-6.63,2.44-9.1,5.07-11.77,8.09-24.18,14.76-37.07,20.47l-2.12-2.27-1.46,1.27c-2.93,13.79-3.49,27.49-2.03,41.65l1.38,13.68c3.96-.66,6.99-.7,10.77.45,8.73-.31,17.65-2.55,25.52-6.33l23.38-10.78,17.68-11.21,28.62-21.3,13.48-10.46c10.77-9.24,20.1-19.58,27.37-31.75l8.69-14.46,7.99-25.89c3.04-7.91,5.4-15.72,6.88-24.11l5.57-32.31,1.83-6.35c2.19-8.66,2.74-16.87,3.2-25.98l-2.96-27.55c-.22-12.21-1.1-24.56-6.36-35.59l-15.75-32.32-22.03-31.01c-4.07-6.08-8.83-10.88-14.9-15.09l-8.18-5.88c-10.41-6.11-19.99-12.77-29.25-20.59-5.82-4.65-11.77-8.27-18.51-11.47l-10.4-5.51-13.2-6.64-15.05-4.19-34.86-4.34c-12.36-2.17-24.32-4.07-36.9-3.95-12.82,2.18-24.59,5.15-36.8,9.19l-36.24,11.75c-13.22,4.13-25.81,8.89-37.17,16.81l-22.57,19.48c-11.91,9.04-22.4,18.78-30.97,31.01-7.15,6.8-11.85,14.93-16.48,23.58l-7.43,17.4-8.64,26.51c-3.45,5.98-5.78,13.05-2.93,19.5l4.57-20.86c.75-3.78,3.13-5.63,7.41-6.04,3.07,3.19,4.63,7.96,2.03,12.78l.95,5.38,4.49,1.86,20.36,2.12c1.85,1.45,3.18,3.12,4.05,5.06-.96,1.77-2.08,3.37-3.25,4.61l-18.29-.14-9.45-3.73-4.22,11.07-6.61,2.03-3.81-4.56c.05,10.66-.28,20.39-2.72,30.43l-1.01,10.59,2.33,22.64c.75,8.24,1.6,16.55,4.81,24.13l7.22,19.01,9.5,18.44,4.82,7.17,11.35,17.51,16.83,23.14c5.8,5.8,12.75,9.4,20.14,12.78l3.15,2.55,2.17-2.86c.77-8.05,4.65-14.96,10.07-20.75l6.52-7.52c3.31-3.97,6.94-7.89,10.52-10.73-5.73-2.09-10.8-6.5-14.84-11.24l-12.33-14.63-7.93-11.03c-6.26-8.85-11.64-18-16.28-27.71l-6.14-27.88-.88-23.81.27-8.79.47-8.29c3.37-18.78,9.15-36.12,15.95-54,5.76-13.04,13.53-24.44,22.24-35.65l5.61-7.59c12.39-12.05,25.92-22.52,41.54-30.25,22-10.72,44.46-18.38,68.65-22.28l16.91-.28-.57-.78c-3.52-1.79-5.2-5-6.31-9.41l-.7-20.28-10.87-1.63-2.88-5.09,2.81-4.71,7.42-.23c7.53,1.59,15.04,2.19,23.08,2.13l6.84,1.93c.86,2.74,1.12,4.7.93,7.9-5.33,1.88-9.49,1.72-14.8.31l1.23,5.91-.5,18.39-5.66,4.21.48.95,6.57.53,20.42,3.07.29-.49-4.93-10.21,2.48-12.19,4.5-13.85,7.68-4.94c6.57-.03,13.31,2.34,18.74,6.33,3.76.66,6.56,2.84,7.8,6.31-1.46,4.26-5.77,5.55-9.61,3.54l-12.94-5.66-1.74,8.75,5.94,1.97c1.56,1.18,2.89,2.85,3.93,5.04-1.21,1.61-2.62,3-4.61,4.75l-7.63-3.26-1.61,4.45,13.2,3.57c2.22,1.37,3.33,3.69,3.79,6.53-1.42,2.06-3.99,3.46-6.5,3.63l-6.73-1.46-.47.58ZM272.63,81.17l-.53.86,4.16-.1-3.63-.76ZM277.75,82.79l-.65.02.65.02h.67l.65-.02-.65-.02h-.67ZM283.08,83.55l-3.16.12,2.63.74.53-.86ZM143.82,210.52c-3.2-.63-4.66-.97-4.99-1.26l2.1-3.78,6.56,1.64,3.09-4.42,2.81,3.17c.75,5.91,1.96,9.45,5.52,14.63l5.85-12.74c1.87-2.61,2.25-6.09-.91-8.41-.76-2.44-1.04-3.92-1.04-5.96l6.16-1.39c6.04,2.83,12.54,2.72,17.48-1.51l4.9-1.45,2.8,3.3c3.67-.56,6.67.39,8.22,4l13.11-2.51,4.23,3.91-2.7,5.12-3.92,5.07c1.58,3.74,5.05,7.48,9.34,8.96,8.61,4.95,17.79,7.48,27.78,6.64l33.7-7.02c6.81.54,13.3,2.3,19.75,5.24,4.75,1.31,8.79-.15,13.71-2.78l-3.08-5.92c-6.98-3.13-13.69-3.78-21.18-1.38h-8.86s-13.51,2.08-13.51,2.08c-2.33,1.57-4.8,2.39-7.53,2.74-7.96.13-15.17-1.21-21.7-5.68-.95-4.53.3-9.65,3.83-12.26,4.18-.11,7.23-1.11,10.37-3.76,6.36-1.78,13.3-2,19.75-.99,3.24,1.29,6.04,1.6,9.82,1.34l4.13,1.48-1.86,4.27c-7.88,2.23-15.3,3.88-23.24,4.6l-11.4-2.78c-2.3.77-4.25,1.69-5.94,2.9,3.42,3.32,6.21,3.66,10.08,2.38l11.11-.68,21.96-4.09,18.44,1.37c5.04.88,9.29,2.1,14.02,4.02,3.18,2.09,5.78,4.35,7.37,6.59.44,4.41.14,7.88-1.83,10.74l-9.82,4.58,7.69,11.39,9.9.65,8.33,14.7c2.19,3.03,3.86,6.21,5.16,9.72l-4.83,8.87c-2.63,1.08-4.64,1.36-7.02.52-1.14-2.27-1.29-3.24-.67-6.68l-2.62-1.86-1.86,8.52-6.4-1.25-2.26-5.77c-1.27,2.32-3.07,4.87-4.77,6.3-3.98-4.38-4.66-7.72-2.92-11.88,1.67-3.17,4.61-4.69,9.27-6.13-2.41-2.16-5.77-3.38-9.58-4.27l-18.3-.22c-2.71-2.33-6.15-2.48-8.77-.35l-11.24,2.42c-.12,3.52-1.58,5.26-4.3,6.03l-17.39,4.25,18.76-.04c3.66,2.02,6.42,2.05,11.01,1.52l3.02,2.5-2.05,3.36c-7.6,2.24-15.28,3.92-23.11,4.61l-11.42-2.77c-2.3.77-4.25,1.68-5.94,2.89,3.42,3.32,6.21,3.66,10.08,2.38l11.11-.68,21.96-4.09,18.44,1.36c5.04.88,9.29,2.1,14.03,4.01,3.2,2.15,5.74,4.37,7.45,6.61.17,4.24-.11,7.21-1.33,10.4l-10.34,4.91,7.94,11.56,9.56.46,9.09,15.9c1.91,2.63,3.46,5.97,4.64,8.89l7.68-9.82,8.67-11.47c3.61-5.5,6.52-11.04,8.57-17.37,6.69-14.09,11.77-28.53,12.65-44.37l-2.14-20.06c-1.37-22.5-8.24-44-19.45-63.21l-12.5-18.7c-3.67-5.02-7.71-9.47-12.41-13.64l-13.01-9.97-17.58-13.64c-7.5-6.51-15.25-12.07-24.54-16.21-9.49-4.69-19.66-6.67-30.34-7.55-12.81-3.27-25.39-2.36-38.17.85l-26.91,8.17c-24.27,8.7-45.91,21.5-63.65,40.22l-11.35,15.69-6.91,10.14c-10.22,20.17-16.76,41.64-21.08,63.87l.28,24.92c.53,14.28,2.29,28.36,8.51,41.38l4.15,7.91,9.07,12.85,11.42,15.6c3.08,3.15,5.78,6.14,8.17,9.86l8.23,4.93c2.25.31,3.59,3.08,3.42,5.2,2.48-1.61,5.92-1.97,9.23-1.46l2.18,2.13-.58,2.48c7.61.05,14.03,1.85,20.67,5.44l4.64,8.22c8.01,2.27,15.35,5.39,22.32,9.73l5.87,2.54,11.61-13.85c5.3-.21,9.57.55,14.49,2.44,3.94,1.84,7.81,2.49,12.18,2.28,6.32-.64,12.46-.57,18.97.21l8.49-2.68c2.01-.85,4.36-1.05,6.12-.52,4.54-12.49,18.93-18.06,30.97-12.15,3.3,1.29,5.54,2.91,8.17,5.46l23.82-15.67-3.53-3.85,1.1-4.25-2.94-1.5-1.75,8.41-6.43-1.24-2.24-5.78-4.11,6.35c-3.92-2.48-5.43-7.03-3.91-11.16,1.58-3.74,4.58-5.47,9.6-6.83-2.47-2.25-5.76-3.42-9.61-4.32l-18.29-.23c-2.72-2.33-6.16-2.49-8.76-.35l-11.29,2.41c.06,3.92-1.88,5.57-5.07,6.22l-15.3,3.34c-2.46,2.35-3.32,2.85-7.24,3.95l-.11-7.5-3.06,4.17-4.22,1.04.27-5.08c-1.52.72-3.33,2.65-4.33,5.07l-2.43,2.01-3.03-2.83c1.65-3.56,3.94-6.72,7.06-9.69,6.52-2.45,11.87-2.84,19.44-2.3l-1.57-10.87-13.33,6.01-23.59,6.36c-21.92,6.88-44.42,10.39-67.28,10.27l-4.97,3.9-2.17-9.49-4.2,9.67-2.59,2.16-2.35-2.46-.33-9.21c-2.69,2.81-3.94,5.11-3.82,9.47l-2.57,2.23-2.22-3.09c.05-8.71,6.64-16.25,15.51-16.28,5.35,1.65,10.47,2.1,15.37.44l5.85-10.85c-6.97-4.65-12.67-8.83-17.31-15.19l-6.17-8.45-4.16,2.45-3.24-2.51,9.66-7.64-5.09-1.12,2.14-3.92,6.57,1.65,3.09-4.42,2.8,3.16c.8,6.19,2.14,9.85,5.62,14.73l5.88-12.83c1.28-2.15,1.71-5.24.14-7.24-1.75-2.57-2.31-4.57-2.28-7.09-5.61-.79-8.16-.49-13.06,3.85l-2.27-9.45-4.55,10.39-3.12,1.25-1.39-2.51-.42-8.97c-2.64,2.76-3.92,5.11-3.8,9.45l-2.57,2.24-2.22-3.09c.06-8.71,6.64-16.25,15.51-16.28,5.35,1.65,10.47,2.1,15.37.44l5.85-10.83c-6.77-4.53-12.2-8.6-16.92-14.61l-6.56-9.05-4.15,2.45-3.26-2.51,9.62-7.63ZM198.04,203.87l-.81,4.5,3.51,1.05.57-3.77-3.27-1.78ZM179.77,205.35l1.43,3.15,3.07-.68-1.05-2.32-3.45-.16ZM25.74,210.31c0-1.22,0-1.22,0,0q0,2.34,0,0ZM193.22,221.04l2.36-5.2-3.71-1.23-.69,3.56-2.87-.75-2.63-1.39-1.17,2.79,3.33,3.07,5.36-.87ZM178.12,227.07c2.82.16,5.98-3.09,4.69-6.41-4.22-2.01-8.63-2.71-13.05-2.27l2.15,3.13-.78,3.08,6.99,2.46ZM206.74,225.97l1.14-6.32-1.61-1.16-2.46,1.58c-4.14,0-7.91,2.19-7.37,6.25,4.12.6,8.39.45,10.3-.35ZM283.25,283.64l-13.51,2.07c-2.33,1.57-4.8,2.39-7.54,2.74-7.95.13-15.17-1.2-21.69-5.69-.96-4.46.33-9.76,3.78-12.14l7.84-1.49-3.09-3.02.95-5.07-3.52,4.33-4.11,1.04.27-5.08c-1.21.56-3.11,2.4-3.97,4.39l-2.69,2.75-3.09-2.86c1.65-3.9,4.15-7.17,7.67-10.09,6.38-2.06,11.48-2.39,18.79-1.97l-1.55-10.8-12.69,5.71-31.06,8.63-23.02,5.76c5.17,2.32,8.59.59,10.36,5.56l13.13-2.64,4.23,3.95-2.7,5.12-3.92,5.08c1.58,3.74,5.05,7.47,9.34,8.95,8.61,4.95,17.79,7.48,27.78,6.64l33.7-7.02c6.81.54,13.3,2.3,19.75,5.24,4.75,1.31,8.79-.15,13.71-2.78l-3.08-5.92c-6.98-3.13-13.69-3.78-21.18-1.38h-8.86ZM254.61,261.23l-.5.5.5.5.5-.5-.5-.5ZM183.99,263.57l-14.01,1.03c4.47,1.99,9.41,1.6,14.01-1.03ZM197.04,275.84l-.81,4.5,3.51,1.05.57-3.77-3.27-1.78ZM178.77,277.32l1.43,3.15,3.07-.68-1.05-2.32-3.45-.16ZM192.23,293.01l2.36-5.2-3.71-1.23-.69,3.56-2.87-.75-2.63-1.39-1.17,2.79,3.33,3.07,5.36-.87ZM177.12,299.04c2.82.16,5.98-3.09,4.69-6.41-4.22-2.01-8.63-2.71-13.05-2.27l2.15,3.13-.78,3.08,6.99,2.46ZM205.75,297.94l1.14-6.32-1.61-1.16-2.46,1.58c-4.14,0-7.91,2.19-7.37,6.25,4.12.6,8.39.45,10.3-.35ZM253.61,333.2l-.5.5.5.5.5-.5-.5-.5ZM305.52,373.43c-5.83-2.95-9.81-2.45-14.94-1.92-2.91,4.03-4.75,7.77-5.68,12.6l20.62-10.68ZM121.82,393.68c-3,6.36-5.41,13.35-4.62,20.34,2.17,5.69,7.42,7.4,13.25,7.77l4.51.07,2.68,4.66c4.54-1.02,8.44-4.58,11.39-8.48l7.09-8.96c3.74-5.35,5.9-10.72,6.85-17.3l.32-14.69c-7.52-4.81-15.04-4.83-24.47-3.93l-9.65,10.37c4.09,4.3,7.72,5.41,13.03,4.61,4.8-.74,8.7,1.7,9.44,6.51,2.85,5.37.02,11.41-5.73,13.31-3.24,3-7.12,3.81-11.78,3.17-4.41-1.36-5.79-6.77-4.01-10.45l-8.29-7ZM250.03,482.45l7.96-.44c-.13-6.84,1.35-13.67,4.18-19.32l-2.93-20.86-.15-28.62c.88-9.86,2.55-19.22,6.87-27.88l-4.77,1.94-18.13-.14c-7.89,1.28-15.4-.64-21.99-5.29l-9.57,14.76c-5.02,12.42-7.44,25.08-8.74,38.47l-.73,14.12c-1.54,8.69-1.98,18.29,3.57,25.59l12.01,1.85,8.95-14.17c4.4-.83,8.24.05,11.43,2.73l4.5,19.2,7.52-1.93ZM193.45,399.52l.57-5.29-4.53-1.1,3.96,6.39ZM186.08,440.98l2.37-21.19-5.27-5.63-7.69-12.46c-6.02,13.86-14.37,24.66-25.19,33.21l8.07,2.02c9.43.08,18.61,1.59,27.71,4.06ZM335.76,457.17l5.17-7.08-21.15,9.2c6.1,3.57,10.85,1.89,15.99-2.11ZM216.37,517.92l-11.23-2.2v-15.39s-3.88-.85-3.88-.85l-2.37,3.41.58,18.75,13.73,1.68,2.66-1.05.52-4.34ZM252.31,519.11l2.34-5.86c-.21-4.85-.5-8.7-1.65-12.89-5.06,3.02-4.02,6.88-3.64,10.88-.82,3.46-1.96,5.69,2.96,7.87ZM236.98,507.21c2.28,2.55,4.96,1.69,6.46-.07-4.08-5.9-11.83-6.44-17.64-3.43-5.03,4.81-4.79,12.04-.63,16.99,3.98,4.84,11.82,4.84,17.02.04-1.77-2.47-4.44-3.29-8.23-2.21l-6.14-3.93,1.5-6.81,7.66-.59ZM247.67,522.91l-.36,5.33,5.19.77.51-5.23-5.34-.88Z"/>
  <path class="cls-1" d="M323.29,200.96c-3.89-3.92-4.93-7.34-3.61-11.45,1.65-3.71,4.61-5.44,9.63-6.82-2.47-2.24-5.76-3.41-9.61-4.31l-18.28-.22c-2.99-2.62-6.51-2.22-9.42-.15l-10.59,2.19c-.17,3.63-1.55,5.22-4.32,6.08l-15.48,3.34-6.91,4.49c-1.54-3.12-1.22-3.31-.9-7.97l-3.64,4.6-3.81.61.27-5.04c-1.05.63-3.11,2.69-4.03,4.16l-2.05,3.05-3.44-2.65c2.01-7.77,8.3-11.63,16.31-12.46l10.01.14-1.78-11.02-13.23,6.21-22.76,6.16c-22.19,6.96-44.93,10.64-68.09,10.48l-4.94,3.9-2.18-9.47-4.2,9.67-2.59,2.15-2.34-2.46-.33-9.19c-2.69,2.8-3.94,5.11-3.82,9.46l-2.58,2.23-2.21-3.1c.02-8.63,6.68-16.34,15.47-16.19,5.07,1.31,9.07,1.65,14.76,1.09l6.57-11.49c-6.75-4.58-11.77-8.37-16.61-14.11l-6.93-9.63-4.15,2.45-3.27-2.52,9.71-7.72-5.02-.56,2-4.42,6.84,1.78,1.98-4.27c1.75.27,3.15,1.47,3.57,2.98,1,6.05,2.3,9.81,5.71,14.65l5.83-12.83c1.81-2.61,2.15-6.11-.89-8.4l-1.44-5.14c2.25-1.74,3.84-2.05,6.52-2.09,5.78,2.48,11.99,2.61,16.9-1.16l4.78-2.12,3.59,3.39c3.48-.37,6.57.46,8.14,4.11l12.09-2.41c1.63.62,3.45,1.68,4.89,2.84-.32,2.27-.91,3.88-1.99,5.49l-4.28,5.66c1.65,4.03,5.4,7.7,10,9.27,8.36,4.81,17.41,7.09,27.1,6.32l33.7-7.03c6.81.54,13.29,2.32,19.76,5.22,4.84,1.43,9.57-.32,13.75-3.01l-3.17-5.65c-6.88-3.19-13.7-3.79-21.13-1.41l-8.88.03-12.95,1.92c-2.52,1.43-5.16,2.42-8.07,2.94-7.78.04-14.58-1.3-21.3-5.29-1.72-4.36-.33-9.98,3.49-12.73,3.8-.12,6.84-.91,9.71-3.41,6.38-2.26,13.61-2.41,20.34-1.3,3.23,1.23,6.04,1.55,9.82,1.31l4.13,1.47-1.86,4.27c-7.88,2.23-15.3,3.88-23.24,4.6l-11.4-2.78c-2.3.78-4.25,1.68-5.94,2.89,3.42,3.32,6.21,3.67,10.08,2.38l11.11-.68,21.96-4.09,18.44,1.36c5.04.91,9.26,2.12,14.05,3.98l7.13,5.91c.6,4.43.41,7.71-1.09,11.14l-10.32,4.94,7.66,11.36,9.88.66,9.05,15.84c1.97,2.57,3.32,5.51,4.42,8.59l-4.8,8.95c-2.35.62-4.26.95-6.26.97-1.75-2.2-2.46-2.83-1.32-6.68l-2.66-2.55-1.77,8.24-6.07-.37-2.76-6.12-4.4,6.51ZM202.04,128.9l-.81,4.5,3.51,1.05.57-3.77-3.27-1.78ZM183.77,130.38l1.43,3.15,3.07-.68-1.05-2.32-3.45-.16ZM197.22,146.07l2.36-5.2-3.71-1.23-.69,3.56-2.87-.75-2.63-1.39-1.17,2.79,3.33,3.07,5.36-.87ZM182.12,152.1c2.82.16,5.98-3.09,4.69-6.41-4.22-2.01-8.63-2.71-13.05-2.27l2.15,3.13-.78,3.08,6.99,2.46ZM210.74,151l1.14-6.32-1.61-1.16-2.46,1.58c-4.14,0-7.91,2.19-7.37,6.25,4.12.6,8.39.45,10.3-.35ZM258.6,186.26l-.5.5.5.5.5-.5-.5-.5Z"/>
  <path class="cls-1" d="M61.68,315.3c-4.62,2.5-9.22,3.97-14.05,5.25-3.09,2.26-6.5,2.17-8.51-.81-2.03-2.69-.82-6.39,2.49-8.18l8.73-8.24,8.96-11.85-19.1-4.49c-3.82.76-6.69-.84-9.48-3.27l-2.98-4.92c1.05-1.63,2.31-3.18,3.58-4.18l7.02-4.15,17.93-5.19,6.38-.7,5.35,3.76-2.37,5.85-13.86,4,13.49,4.08c2.69.48,4.77,1.6,6.17,3.37.84,2.81.58,5.33-.64,7.96l-7.79,9.69,9.47-1.8c2.88-2.22,5.75-.82,7.33,1.83,1.23,2.79-.43,5.87-3.47,6.98l-14.65,5Z"/>
  <path class="cls-1" d="M126.48,102.65l5.3,8.6c-1.1,4.25-3.36,5.71-7.76,6.37l-12.81-12.33c-3.83-3.72-7.25-7.44-10.33-11.69-1.41-4.66-1.14-8.99,2.58-12.05,3.51-5.29,8.92-8.67,15.25-9.62,5.88-1.81,11.66-.26,14.94,4.43,4.1,3.91,4.41,10.43,2.53,15.35l12.1,6.72-1.12,6.25-6.34,1.72-10.95-5.91-3.39,2.17ZM118.67,95.22c3.69-2.88,7.1-6.04,9.03-10.83-3.52-2.87-6.11-3.5-9.79-2.04-2.35,1.48-5.04,4.38-5.9,6.86l6.66,6.01Z"/>
  <path class="cls-1" d="M324.73,96.55l1.66-8.36-9.43-4.91-8.85,9.65-4.52-5.14,1.92-6.9,4.69-9.33,4.59-9.45c1.45-2.67,2.64-4.34,4.7-6.13,2.96-.41,4.81-.25,7.89.28l3.47,2.28c7.61,1.97,13.93,6.43,17.35,13.8-.13,4.1-.7,7.4-1.98,11.37-2.84,1.9-5.43,3.11-9.99,4.36l-.21,12.37-6.73,3.2-4.56-7.07ZM333.77,77.94l3.55-1.69.31-2.07-11.76-6.62-3.26,5.64,11.16,4.74Z"/>
  <path class="cls-1" d="M91.06,160.59l-7.21,14.36c-1.25,5.1-4.36,8.84-9.51,10.68l-10.21-6.36-16-6.01c-4.55.54-7.2-2.63-7.23-6.99.29-4.12,1.15-7.82,2.53-11.62l5.24-11.81,3.68-5.28,7.64.22c1.05,4.11,1.46,5.9.04,8.26l-6.8,18.44c3.3-.28,3.88-2.39,4.5-4.49l2.96-5.19,7.12-.37c1.17,5.78.26,9.29-2.76,13.85l8.68,2.69,5.3-10.81c1.36-2.65,3.21-4.67,5.61-5.26,3.3.15,4.68,1.74,6.41,5.69Z"/>
  <path class="cls-1" d="M64.19,127.05c.07-3.79,2.17-6.71,5.85-7.03l10.81,6.62c5.54,3,10.71,4.83,17.97,3.54l-10.03-13.38-8.19-8.95c-1.23-2.9-1.57-5.52-.46-8.04,2.38-1.63,5.03-1.66,7.87-.45l12.69,9.42c5.57,5.28,9.98,11.62,10.67,19.44-.76,7.51-5.55,12.62-11.6,15.33-6.33,3.43-14.19,2.74-20.06-1.84-1.61-2.59-3.68-4.7-6.28-6.67-3.89-1.88-6.71-4.38-9.23-7.98Z"/>
  <path class="cls-1" d="M357.05,127.61l.66-18.9.24-8.13-9.67,10.22c-2.79,1.47-6.37,1.81-9.85,1.13-1.23-5.01,1.28-8.53,5-11.15l14.1-14.89,4.18-4.9,7.27,1.72.04,25.56-.9,5.22,15.28-15.25c2.34.18,4.46.9,6.19,2.08.5,2.86.28,4.91-.88,7.65l-22.26,22.32-9.41-2.69Z"/>
  <path class="cls-1" d="M197.95,64.85l2.12,9.81-.46,5.3-5.25,2.65-6.64-6.12-4.89-25.03c-.33-2.56.62-5.04,2.18-6.88,2.93-.81,4.65-.83,7.7-.18l14.09,12.53c.42-3.5.1-6.97-.88-10.62-.28-2.34-.18-4.07.3-6.19l6.4-3c3.27,3.69,4.32,6.58,4.92,10.87l3.76,24.55c-1.96,2.06-4.79,3.75-7.64,4.88l-14.92-12.8-.8.21ZM197.47,64.08l.43-.61-.43.61Z"/>
  <path class="cls-1" d="M443.16,249.05c-8.9,3.01-17.63,3.09-25.49-1.47-5.74-6.83-7.97-16.07-6.09-24.59,2.3-8.08,8.92-11.39,17.27-11.26,13.65.49,22.96,13.5,21.17,27.58l-6.87,9.74ZM429.46,240.81c4.78,1.66,8.37-.19,10.5-5.19,1.47-2.82-.9-7.47-4.2-10.1-2.64-3.57-7.95-5.28-10.96-2.97-4.07,2.24-4.84,6.82-2.8,10.92-.17,4.63,2.84,7.81,7.46,7.34Z"/>
  <path class="cls-1" d="M387.18,166.45c-.21-4.48-.01-6.24,1.35-9.65,1.87-1.84,1.82-5.31.09-6.96l-7.15-10.45-9.33-.07c-.52-1.25-.99-3.74-1.31-6.47,1.22-1.84,3.1-3.08,5.87-4.07l23.08-2.62c4.75-1.83,9.23-1.02,13,2.52l.25,9.37-11.94,17.23-5.23,10.39-8.67.77ZM401.81,137.23l-9.37.27,4.43,6.48,4.94-6.76Z"/>
  <path class="cls-1" d="M90.76,355.62l-10.41,1.96c-5.43.82-10.43.88-15.45-.7l-3.91-4.39c.15-2.42.8-4.33,2.39-6.06l8.13-13.91c2.84-5.87,6.08-10.73,10.74-15.7,3.4.96,4.82,2.27,6.39,4.97-.92,2.47-2.45,4.82-4.51,7.41l7.92,11.21c.92,3.58,4.59,5.93,8.3,3.3l6.61,2.41-.52,7.92-15.67,1.58ZM84.28,346.21l-4.95-8.44-5.62,10.61,10.57-2.17Z"/>
  <path class="cls-1" d="M432.53,298.56l-16.79-3.14c-5.2.04-9.62-2.99-11.03-8.11,6.11-7.17,12.03-12.64,20.46-17.68-2.55-1-4.72-1.34-8.59-1.34-2.03-.75-4.77-3.54-6.07-5.82,1.64-4.89,5.68-6.04,9.72-4.45,8.36.77,16.62,1.94,23.88,6.09-.37,6.59-5,10.67-10.52,12.6l-13.03,9.24,15.09,2.81c1.73,1.23,3.26,3.87,3.41,5.73-1.11,2.91-2.91,3.95-6.53,4.06Z"/>
  <path class="cls-1" d="M394.54,337.14c-3.73.52-6.78.32-8.13-2.64-.86-2.29-1.06-4.54.32-6.93,2.17-1.69,4.71-2.44,7.29-1.81l3.57.57.68-3.88,6.8-11.58-5.88-10.11c2.45-2.44,4.9-2.82,8.87-2.54l9.59,13.35,9.32,12.8c1.97,2.15,2.4,4.84,1.78,7.94-1.06,2.15-3.66,3.89-6.65,3.84l-27.57.98ZM414.96,326.16l-3.43-5.15-3.63,5.14h7.06Z"/>
  <path class="cls-1" d="M58.44,246.62c5.22.62,5.43,2.33,6.8,5.52.08,2.48-2.87,4.76-6.07,5.13-10.54-1.26-19.61-5.64-28.35-11.59-2.4-2.96-3.11-6.12-2.18-10.01l17.48-9.59,15.66-8.81c2.67.22,4.54.88,6.57,2.43,1.14,2.2.32,5.04-1.87,6.7l-11.05,5.27c4.57,2.55,4.37,6.58,3.4,10.38l-.38,4.57ZM48.6,243.84l.61-8.03-8.02,3.88,7.41,4.15Z"/>
  <path class="cls-1" d="M408.23,179.04c-3.47,2.06-6.25,2.45-10.85.17-.81-2.18-.02-5.62,1.78-7.65l21.01-9.68-1.55-7.31c-1.42-3.12.55-6.95,3.05-8.15,3.88-1.08,6.56.12,8.73,3.75l6.35,25.4,1.28,5.73-5.21,4c-5.42-2.67-8.33-6.6-9.45-13.04-4.7,3.38-9.69,5.54-15.13,6.78Z"/>
  <path class="cls-1" d="M379.73,352.71l-7.49,6.66-7.49,5.68c-2.09,1.65-4.7,2.37-7.67,2-1.38-1.96-2.73-4.58-2.7-6.62l9.86-10.07c2.75-4.04,5.87-7.29,10.22-10.42,8.61,2.48,16.3,5.96,23.11,11.67,5.92,1.86,9.65,6.6,10.06,12.63l-2.93,4.44-5.17-1.92c-3.94-3.56-7.87-6.32-12.44-8.61l-7.36-5.43Z"/>
  <path class="cls-1" d="M315.11,427.62c-5.9,2.85-11.78,1.67-16.3-2.14l-2.84-11.78c1.43-4.48,3.75-8.8,6.68-12.98,4.43-2.78,9.52-3.4,13.85-1.49,8.21,8.3,7.63,21.14-1.39,28.39ZM315.37,411.84l-8.86-1.61-2.83,3.44,2,4.2,7.08-.11,2.62-5.92Z"/>
  <path class="cls-1" d="M178.38,90.08c-5.06-2.67-6.86-5.69-8.9-10.26l-3.76-8.12-6.16-10.95c-1.4-2.35-1.19-4.88.39-7.04,2.27-1.75,4.74-2.38,7.67-.98,6.37,10.24,10.61,19.72,15.38,31.15l-4.62,6.2Z"/>
  <path class="cls-1" d="M426.67,204.38c-6.44,3.8-13.51,3.4-19.71-.25-.29-3.81,1.87-7.33,5.05-8.69l26.6-5.22,5.69,3.54c-.48,2.75-1.41,4.89-2.96,6.69l-14.67,3.94Z"/>
  <path class="cls-1" d="M232.56,442.52c-5.72-.76-9.85-2.07-13.54-5.2-4.72-9.81-1.18-19.83,8.2-25.48,4.84.54,9.4,1.6,13.84,3.16,3.41,5.42,3.82,10.19,2.53,16.75-1.95,3.77-5.71,7.94-11.03,10.78ZM236.56,425.4c-5.48-2.72-8.41-1.66-11.47,2.41,1.7,1.55,4.13,2.98,5.95,3.23,3.22-1.72,4.87-2.91,5.52-5.64Z"/>
  <polygon class="cls-1" points="174.82 293.7 175.49 293.7 176.14 293.72 175.49 293.73 174.82 293.73 174.16 293.72 174.82 293.7"/>
  <rect class="cls-1" x="172.3" y="293.36" width=".71" height=".71" transform="translate(-157.11 208.08) rotate(-44.99)"/>
  <polygon class="cls-1" points="175.81 221.73 176.49 221.73 177.14 221.75 176.49 221.76 175.81 221.76 175.16 221.75 175.81 221.73"/>
  <rect class="cls-1" x="173.3" y="221.39" width=".71" height=".71" transform="translate(-105.93 187.71) rotate(-44.99)"/>
  <polygon class="cls-1" points="179.81 146.76 180.49 146.76 181.14 146.78 180.49 146.8 179.81 146.8 179.16 146.78 179.81 146.76"/>
  <rect class="cls-1" x="177.3" y="146.43" width=".71" height=".71" transform="translate(-51.76 168.59) rotate(-44.99)"/>
</svg>