<?xml version="1.0" encoding="UTF-8"?>
<svg id="Layer_1" data-name="Layer 1" xmlns="http://www.w3.org/2000/svg" viewBox="0 0 365.78 131.93">
  <path d="M297.15,80.49l-.19,6.67-.08,10c-.1,6.01-.15,11.89-3.38,17.72-6.1-5.85-5.41-13.87-4.62-20.91l-.38-8.64-.11-62.87,1.89-5.34,5.89.14,1.12,10.94-.15,11.16.14,16.41-.16,8.57.03,16.13Z"/>
  <path d="M203.69,112.19l-2.56,4.75-4.55-.81-.54-5.13c.56-6.87.42-13.16-.77-20.03l-.23-9.07c-.28-4.68-.38-9.21.4-13.89l-.21-30.87.3-14.78,1.71-3.89h4.27s1.96,8.64,1.96,8.64v58.75s.59,5.94.59,5.94l-.14,8.26c.33,3.93.22,7.73-.26,12.13Z"/>
  <path d="M114.24,112.95l-1.23,4.35-4.36.78-1.97-9.99c.83-2.75.88-5.54-.14-8.39l.16-52.16,1.23-14.06c.43-2.94,1.79-5.58,4.59-7.09,4.13,5.42,4.3,11.54,3.03,17.56l-.22,26.86-.42,19.54-.67,22.61Z"/>
  <path d="M17.24,121.33l-1.48-19.58c.25-2.9.25-5.75-.05-8.76l.17-20.95-.45-16.86c-1.82-6.53-2.27-12.98-1.61-19.4l3.36-3.23,2.77,2.85,2.38,10.76,2.14,20.03.23,35.77c-.6,3.08-.54,5.83-.17,8.91,1.61,4.7-.07,10.24-7.28,10.45Z"/>
  <path d="M261.8,118.14l-.95-15.29.24-14.4,1.04-18.24.53-15.57,1.92-4.37,5.08-.18c1.33,7.15,1.88,13.56,1.9,20.92l-1.28,34.96c1.2,5.78-1.95,11.24-8.47,12.18Z"/>
  <path d="M92.45,112.21c-.38,4.06-.69,7.18-5.74,8.29l-4.12-19.03v-35.14s1.89-12.55,1.89-12.55l4.21-3.28,2.67,4.2.17,44.34c-.53,4.4.12,8.5.91,13.17Z"/>
  <path d="M312.36,119.07c-2.76-4.95-3.05-9.11-2.44-13.86-1.1-1.86-1.59-4.25-.55-6.44l-.12-36.56c-.7-4.86-.04-9.57.65-14.44l2.99-2.09,3.13,1.19,1.36,8.26v57.26s-5.01,6.67-5.01,6.67Z"/>
  <path d="M47.45,113.42c.46,4.15-.64,6.81-5.77,7.97l-1.42-8.42-.66-25.81.62-16.01-.3-15.82,3.24-3.66,4.37,3.21.15,11.07.7,7.04-.39,9.22c.89,10.17.72,20.27-.54,31.21Z"/>
  <path d="M132.02,123.87l-2.33-13.05-.38-14.39.28-36.33,1.26-8.48c1.22-.51,3.6-.59,5.99.05.76,1.61,1.33,3.38.74,5.75l-.28,49.14-1.06,15.52-4.22,1.79Z"/>
  <path d="M228.07,110.73c-1.08,4.82-1.92,8.2-3.82,12.6-3.67-3.82-4.28-8.29-3.67-13.37l-.67-9.82.14-6.34-.36-7.91v-9.85s.19-19.24.19-19.24l2.46-5.19,4.9-.36.81,10.73c-.76,6.21-.78,12.62-.01,18.81l-.48,19.1c.68,3.5.75,6.87.51,10.85Z"/>
  <path d="M362.46,78.42l.88,31.04-3.4,4.07-3.62-3.57-2.05-38.13c-.89-8.05-1.17-16.11-.56-24.08l1.57-3.52,5.05-.4,1.1,19.19,1.04,15.39Z"/>
  <path d="M179.42,102.43c.64,5.45-.24,10.3-5.29,13.31-3.47-5.27-4.22-11.44-2.91-17.22l.54-45.45c1.4-1.98,4.61-2.3,6.84-1.31l1.46,29.57c.61,6.82.5,13.55-.64,21.1Z"/>
  <path d="M338.19,111.82l-2.37,3.27-3.64-.6-1.85-7.61.08-31.49c1.08-3.5,2-5.81,4.34-7.56,3.19,3.15,3.74,5.27,4.04,9l.32,13.33.51,10.89-1.43,10.77Z"/>
  <path d="M65.55,116.41l-.6-11.53.38-9.65-.55-11.68c-.31-3.19.04-6.04.99-8.98l5.01,1.77,1.14,4.59.79,16.09c.25,6.8,0,13.66-1.88,19.68l-3.27,2.5-2.01-2.8Z"/>
  <path d="M251.01,106.54l-2.2,13.53c-4.4-1.12-5.02-2.88-6.37-6.59l1.08-20.55c-1.17-4.95,1.66-9.54,6.67-10.15,1.34,6.07,1.49,11.49.6,17.1l.21,6.65Z"/>
  <path d="M151.87,111.61l-.79-12.58,1.12-10.1c-.79-3.61-.07-6.95,1.96-10.32,3.25.32,4.95,1.76,5.37,4.3,1.39,10.68.32,20.28-2.42,30.36l-5.23-1.66Z"/>
</svg>