<?xml version="1.0" encoding="UTF-8"?>
<svg id="Layer_1" data-name="Layer 1" xmlns="http://www.w3.org/2000/svg" viewBox="0 0 829.02 683.04">
  <defs>
    <style>
      .cls-1 {
        fill: #fff;
      }
    </style>
  </defs>
  <g>
    <rect class="cls-1" x="29.43" y="27.47" width="769.01" height="625.95"/>
    <path d="M798.43,650.42H41.06c-3.32,0-7.05-.48-10.34,0-.41.06-.87,0-1.29,0l3,3V36.84c0-2.59.49-5.75,0-8.31-.06-.33,0-.72,0-1.06l-3,3h757.38c3.32,0,7.05.48,10.34,0,.41-.06.87,0,1.29,0l-3-3v600.51c0,8.08-.44,16.3,0,24.38.02.35,0,.71,0,1.06,0,3.86,6,3.87,6,0V52.91c0-8.08.44-16.3,0-24.38-.02-.35,0-.71,0-1.06,0-1.62-1.37-3-3-3H60.64c-9.96,0-19.96-.25-29.92,0-.43.01-.86,0-1.29,0-1.62,0-3,1.37-3,3v600.51c0,8.08-.44,16.3,0,24.38.02.35,0,.71,0,1.06,0,1.62,1.37,3,3,3h737.8c9.96,0,19.96.25,29.92,0,.43-.01.86,0,1.29,0,3.86,0,3.87-6,0-6Z"/>
  </g>
  <g>
    <path d="M61.43,653.4h-3s-1.77-26.24-1.77-26.24c-.83-17.57-2.68-34.48-6.49-51.68l-2.58-23.1,5.65-35.1c2.33-9.74,3.78-19.37,3.93-29.11-9.68,5.09-18.16,8.86-27.74,8.23v-2c5.18-.62,10.21-1.59,15.22-3.7l-15.22,1.7v-3c8.22-.04,16.75-1.55,24.43-5.57l6.71-2.04-.37-7.32c-9.16,7.12-19.71,9.43-30.76,9.94v-3c10.19.14,19.8-2.53,28.8-8.28,2.26-.93,3.36-2.94,3.19-5.62-9.17.81-16.3,3.76-25.62,6.88,5.75-6.32,14.55-7.53,22.33-9.19l3.71,1.47,4.74-13.98c1.13,2.01,1.22,4.33.75,6.49-2.64,6.62-3.99,13.08-3.89,20,1.98,2.84.34,5.69-2.78,6.93-.7,13.58-2.67,26.52-5.41,40.08-4.08,16.44-5.3,32.55-1.72,49.21,3.68,17.61,5.75,34.79,6.37,52.72l1.53,25.28Z"/>
    <path d="M29.43,260.41v-3s2.73,2.23,2.73,2.23l10.17,13.33.98.72c-.23.12-.91.49-.62.34l-1.04-.39c-3.61-2.18-6.93-5.86-9.59-9.87l-2.63-3.36Z"/>
    <path d="M66.37,452.84c-13.31-10.22-21.53-25.85-23.78-41.74,5.52,15.71,13.71,28.44,23.78,41.74Z"/>
    <path d="M62.52,460.96c-9.08-3.23-15.68-12.75-17.98-22.85,4.91,8.49,10.3,14.92,17.98,22.85Z"/>
    <path d="M65.16,214.96l-14.51-1.01c-3.66,1.28-7.92,3.22-11.73,3.36,5.53-8.51,15.37-7.71,23.54-7.26l2.91,1.07-.2,3.84Z"/>
    <path d="M89.36,256.64c-8.38,1.49-15.82.52-23.91-.21-3.62.39-7.12,1.19-9.92-2.47l5.88.55c9.41-.17,18.33-1.21,27.95,2.12Z"/>
    <path d="M98.42,217.38c-3.81-2.08-8.15-1.96-12.54-1.3l-3.3-.67,1.26-3.39c6.63-1.25,11.44-1.22,16.52,2.51l.76,3.23-2.7-.37Z"/>
    <path d="M58.25,219.7c-1.58,3.49-1.66,3.71-3.23,5.11l-4.67-2.97-5.54,1.48c2.96-5.14,8.71-5.29,14.09-5.66,2.49,1.07,4.32,2.44,4.76,4.58l-5.41-2.54Z"/>
    <path d="M92.62,222.6l-3.91,2.62-3.32-3.64-4.25,1.3c3.22-6.13,13.18-4.76,16.51,1.37l-5.03-1.65Z"/>
    <path d="M72.59,242.88l-2.72-.51-.51-1.61,3.11-.34c2.82,1.77,5.55,1.97,8.33.63l2.75-.82,1.25-4.71,1.61,5.3-4.41,2.53c-3.35,1.23-6.04,1.45-9.42-.46Z"/>
    <path d="M82.11,235.51c-4.31-4.27-4.2-11.01-4.83-16.75l1.83-1.34.22,2.99,2.78,15.1Z"/>
    <path d="M80.56,266.17l-12.61.59c4.03-3.83,8.77-2.98,12.61-.59Z"/>
    <path d="M65.71,302.46l8.47-8.25c.14,4.05-3.07,9.4-8.47,8.25Z"/>
    <path d="M81.65,260.12c-3.94,1.99-10.54,2.09-14.51-.1l14.51.1Z"/>
    <path d="M66.78,242.39c-.67.39-2.26-.68-3.37-2.53.46-1.59,1.64-3.49,2.21-3.38l1.15,5.91Z"/>
    <path d="M53.51,252.45c-.16-4.09,2.79-7.04,5.7-8.84l-5.7,8.84Z"/>
    <path d="M62.32,224.43c-2.03,2.76-5.01,3.26-8,2.54l8-2.54Z"/>
    <path d="M91.65,227.88c-2.27,2.2-5.15.8-6.24-1.59l6.24,1.59Z"/>
    <path d="M76.04,251.53c-1.96-.19-2.17-3.54-.94-5.19l.94,5.19Z"/>
    <path d="M148.27,186.58l.87-1.15-.87,1.15Z"/>
    <path d="M635.33,190.59l-.88-2.02c-7.84-5.04-15.64-3.1-24.26-1.4,8.35-4.82,17.69-5.33,25.87-.44l3.34,5.76-4.08-1.9Z"/>
    <path d="M798.43,233.41l-.05,4.95-5-5.08c-.4,3.57.82,6.38,3.85,9.09l-2.64,4.86,3.83-.82v1.13c-2.33,1.28-4.66,1.92-7.55,2.36-1.98-2.07-3.04-4.27-4.04-7.53l-3.01,6.04.03-10.57c-2.92-4.1-4.85-8.77-4.9-14.14l-3.68-2.69-1.37-12.67c-1.88,2.73-3.29,5.78-8.77,6.38l5.74-9.22c.69-2.44-.9-5.47-2.98-7.37l-2.15-1.9-2.35,2.24c-2.13,3.01-2.88,4.71-5.21,9.81-1.6-5.71-2.31-11.65-3.18-18.43l-5.45-5.56c.09,3.23.74,5.52,2.16,7.71l2.79,4.85.79.28c.26.92-.36,2.7-.97,1.6l-.47-1.09-3.31-4.06,2.42,10.8-6.22-9.43-15.59-7.18-6.43-7.01c-5.32.68-10.46,4.29-14.01,9l-4.15,17.72c6.69-.83,11.08,1.21,14.97,6.19-2.52,1.49-4.88,1.33-7.33,0-2.78-1.09-6.71-1.63-8.68-1.07l1.16,16.67c-2.74,6.29-2.54,12.7-1.25,19.14l5.19,20.47,2.68.97-1.55,1.39,7.71,17.1c6.68,3.86,13.46,4.19,21.14,3.25,12.25-4.53,24.05-10.4,34.06-18.09l-.77-1.57c0,.43,0,.18,0-.91l1.22,1.59,7.18-9.43c.66,7.63-6.19,12.59-11.83,17.35l-25.14,13.17-14.64,1.06c3.18,8.58,4.86,17.76,3.84,28.43-1.31-1.54-1.57-2.19-3.12-4.97l.18,14.81c6.24.91,10.22,4.07,12.23,9.35l-.31,8.01,6.15-7.59c5.45-1.2,8.65-1.25,13.36.79,7.49-3.59,14.79-8.78,20.87-14.2l-3.98-1.71,2.38-3.04c2.89.42,2.47,1.58.3,2.59,3.35.56,6.36-2.3,9.65-5.59l-17,1.75c2.94-1.9,5.79-2.55,9.16-2.51l9.76-1.09,4.25-5.19v4.84c-12.55,14.59-28.45,26.55-46.98,33.06-5.34,1.97-9.96.41-12.82-4.26-7.42-6.84-11.95-16.33-9.93-26.45,1.19-3.86,2.22-7.29,2.57-11.56-3.1,4.52-4.21,9.35-5.37,14.78-.95,5.91-.4,11.44,1.87,17.02l16.05,18.94c14.9-6.99,29.82-15.03,43.62-25.4l10.99-9.14v3.17s-10.98,9.93-10.98,9.93c-12.86,9.4-26.37,16.6-41.15,23.03-2.6-.05-4.77-.77-6.71-2.16l-15.24-19.11c-2.77-10.28-1.24-19.96,3.43-30.67-12.2,6.76-24.39,12.01-37.68,16.46-7.11,4.68-11.52,11.34-14.98,19.51l32.69,22.46c6.67,3.96,11.88,8.82,15.26,15.71,4.48,6.28,7.49,12.86,10.02,20.27l6.03,37.26c1.5-3.32,1.85-5.59,5.58-5.68l-3.38,28.9,10.55,57.7.96,22.38c-2.7.93-4.67,1.4-7.15,1.71-4.5-.62-8.77-.52-13.06.38l-1.53,44.19-6.49,49.59-1.16,11.98h-3.01s1.55-14.32,1.55-14.32l6.16-52.6,1.66-38.31-14.96,3.88c-9.6,2.88-19.55,3-29.76.25l1.44,25.15-4.81,47.9.72,28.06h-3s-.37-34.03-.37-34.03l5.06-47.1-1.2-20.76c-3.05-.85-4.2-2.26-5.23-4.79l-1.25-23.36-2.14-13.74c2.93-8.54,2.6-17.06-1.01-25.21-1.25-4.8-2.42-8.98-1.47-14.27l2.93,10.76,4.57-16.56.44-29.51-.07-11.61c1.64,3.55,1.93,7.09,1.76,11.14l.28,18.31c2.18-6.01,3.18-11.77,7.4-17.4l-7.87,28.29c-.55,6.79-2.51,13.28-4.99,20.03,2.7,7.59,4.34,15.41,1.7,23.38-.83,5.11-.66,10.15,1.01,15.08l1.03,18.63c6.95,1.44,13.93,1.68,20.71-.24l20.87-5.04-6.03-37.11-5.91-38.34-.38-31.48-.93-9.03c.14-5.53-.23-10.25-1.26-15.24-7.23,9.6-11.28,19.06-17.32,29.46,3.28-13.24,10.79-24.79,19.19-35.59,4.68-3.5,8.59-5.64,14.84-7.37-2.71-4.53-6.2-9.44-10.07-13.57l-31.59-21.38-17.45-12.59-5.66-4.62c-4.64,10.14-11.14,17.99-19.65,24.8-12.02,9.14-24.93,15.89-39.11,20.91l-13.8,4.87-10.16-9.62c-7.14-7.34-12.46-15.5-15.76-25.46-.62-5.39.18-10.7,1.49-15.94l-38.53,23.3-22.81,14.17-9.24,27.83-4.69,32.55c10.5,7.22,16.9,17.48,19.32,29.92,3.34,13.93,4.97,27.71,5.85,42.11l9.9,54.11,10.55,41.34c-7.48,2.67-13.55,3.81-20.64,4.39.61,15.52-1.11,30.71-4.3,45.56h-2.93c3.27-14.77,4.68-29.1,4.95-45.42l-20.45,5.16c-8.35,1.37-17.1.79-25.17-.91,1.98,14.04,2.4,27.72,1.6,41.17h-2s-1.7-42.14-1.7-42.14l-3.96,1.04.27,4.4c1.75,3.25,2.43,6.63,1.89,10.08-1.49,4.06-.97,7.65.83,11.59.81,2.85-.1,5.28-2.09,7.14l-7.24,7.87-9,.03,1.15-.91c3.79-1.14,7.13-2.47,10.11-4.78l-33.26,2.92-44.99-1.2-37.49-1.99-.58.68,20.2,5.23-13.14.04-23.01-7.92c-6.77-.88-12.42-2.64-18.22-5.69l2.23,13.62h-3c-2.83-10.24-2.21-21.14.82-31.58-16.36-.87-31.46-3.02-47.28-9.43l1.22,20.09,5.24,20.92-3-.02-2.21-8.23-2.79,8.22-3,.02,4.45-13c-1.8-9.26-2.78-18.18-2.36-28.59l-23.26-7.86,5.35-20.5c6.36-19.88,9.57-40.12,11.77-60.98l4.83-37.08c1.42-12.88,4.26-25.16,9.23-36.82l5.12-6.4-1.02-.92-1.53-17.48c-2.86-8.83-6.73-16.96-7.36-27.18l6.02,17.74,1.39-5.56c2.3,7.41,2.48,14.5,2.91,22.42l-.2,9.7.05.39c4.16-4.22,8.35-7.26,14.26-10.76.25-.57,1.71-4.63,2.81-1.61l17.57-8.33-9.33-45.71c-2.63-8.45-5.15-16.07-9.6-23.62-8.01-6.47-16.66-11.18-26.59-14.31l-46.77-16.72c3.14,5.87,4.44,11.72,3.02,17.85-1.93,9.39-6.46,17.2-12.57,24.55-8.04,8.05-17.05,14.27-27.32,19.68-9.08-2.99-16.57-7.82-24.26-13.53-13.46-8.79-25.62-18.87-34.86-31.98-3.98-6.24-6.77-12.24-6.21-19.41l-38.76,20.69c-11.63,4.31-22.51,8.64-34.32,14.61,9.43,9.88,14.96,20.81,17.64,33.24l.62.47-.02,3.22-.78-2.68-.38-.52-9.7-20.63c-4.44,8.96-7.23,17.09-9.93,26.49l-1.87,4.12v-7c2.59-8.5,5.59-16.71,10.15-24.96l-.73-2.18-1.94,1.45-7.44,16.68-.03-6,6.42-12.57,1.32-1.94-1.58-1.57-6.15,11.08v-5s5.05-8.34,5.05-8.34l-2.37-.35-.4,1.86-2.28,3.84.02-3.98.72-1.2-.73-.83v-2.99c7.22-5.25,15.23-8.97,24.52-11.8l-24.53-14.14v-3.06s27.18,15.57,27.18,15.57l9.1-3.51c-13.84-2.5-25.43-9.29-36.26-18.03v-3.94c9.77,8.71,20.78,15.54,34.1,18.93,4.34.25,8.29-1.55,11.47-4.4,7.29-5.85,13.07-12.55,16.98-21.06,2.25-5.2,2.66-10.72,1.06-16.1-4.31-3.19-4.9-8.44-3.77-13.49-3.63,3.38-6.94,5.83-11.42,7.96l-16.99-1.08c-5.44-3.4-11.11-5.66-14.84-11.22,7.96,3.45,13.92,8.58,21.96,8.74,8.04,1.16,15.14-1.4,19.79-8.03,9.29-7.96,13.41-18.93,14.02-31.15l1.55-37.87c-.88-9.85-4.67-17.01-14.28-20.21-20.34-5.97-42.8-1.51-59.65,10.89v-6.27c4.66-4.31,9.77-8.16,15.84-11.01l10.37-4.39-5.01-10.51,11.03-1.96c1.28.09,2.91-.57,3.89-1.61-6.35-.88-11.45.59-17.1,2.76-6.85,2.83-13.1,6.16-19.03,9.99v-3.33c5.57-3.81,11.62-6.92,18.21-9.57,5.77-2.26,11.29-3.38,17.54-3.21l21.77,9.43,6.77,4.15,17.6,4.33c4.18,2.72,6.07,6.1,5.47,11.21-1.73,4.39-4.52,8.09-8.15,11.33.96,6.76-.09,13.65-2.89,19.77l-.06,10.85-2.23,24.84c-2.04,8.44-5.28,15.53-11.62,21.66l.38,12.23,14.59,5.92,19.29,8.16-.54-29.48c-5.39.16-8.77-3.41-10.63-7.85-3.43-6.68-5.57-14.11-3.69-21.3,1.65-4.8,4.39-8.39,9.42-8.94-.76-10.61-.52-20.34,2.92-30.02,1.86-6.54,6.38-11.52,12.25-14.39l1.41-6.04c5.1-6.6,12.42-12.3,21.75-11.04-2.92,3.23-6.61,4.3-10.61,5.28-5.79,3.17-9.02,9.16-11.51,15.2-8.29,4.26-12.07,11.95-13.18,21.11l-.62,20.74c3.33,1.93,5.06,3.94,7.68,7.47l1.66-15.45c1.75-6.44,5.32-12.33,9.68-16.89-.9-4.94-.4-8.63.86-13.63l3.67-2.46-2.93,9.17,1.29,6.91c-8.07,8.11-11.69,18.13-11.35,29.71l-2.68,4.46-3.95-2.9c-1.71-2.68-4.16-4.18-6.95-4.47-2.99.87-4.98,3.15-6.29,6.5-1.41,9.07,1.68,17.61,7.34,24.81l4.6.76,3.77-4.03c.05,13.85,6.23,23.56,15.56,34.66-9.73-3.96-13.46-13.96-16.57-22.97l.68,27.34c-1.18,4-3.19,8-5.55,10.58l-3.88.14-1.98,5.4,8.46,15.05c6.63,8.49,13.72,16.09,21.78,23.2,7.39,4.65,14.31,8.72,22.37,11.9,17.86-7.39,30.27-23.18,32.24-42.05l-2.53-5.96,1.18-12.59c-15.08,10.8-34.03,9.99-46.52-2.7,10.48,4.77,19.11,9.23,29.99,7.11,13.41-2.99,23.62-12.05,29.37-24.62,5.81-15.07,8.12-31.37,6.5-47.67.15-9.26-.4-17.9-3.3-26.73-.73-5.33-2.8-10.73-7.14-13.71-5.43-.44-9.74-2.01-14.53-4.4l-16.19-9.01-10,.72-7.65-1.29c4.13-6.39,8.28-9.43,14.77-11.9l-1.96,3.1,4.2-1.5-10.34,9.41c4.65.4,8.43-.74,12.5-3.1,4.85-2.65,9.97-4.44,15.25-5.1l1.96,1.67-.88,1.82-16.58,5.27,11.45,2.67,9.61-.88,7.31-1.41c-2.99,4.2-8.19,5.4-13.76,6.05,5.06,3.15,10.01.33,16.63-.23-2.14,2.32-4.77,3.12-8.71,4.69l11.3,1.02,5.83,3.2-5.91-.67c2.29,3.46,4.16,7.9,5.33,12.39l3.35,19.24.96-15.16-4.04-15.34c.78-1.66.62-3.98-.49-5.65-2.17-3.33-3.51-5.75-4.96-9.44l-10.67-10.04c-3.66-.79-6.34-1.92-8.83-3.6l-7.16-2.57-13.57-.54,5.02-3.63-14,2.27-5.9,5.37c-.11-2.94,1.58-5.31,4.4-7.73,4.35-1.35,8.97-2.24,13.52-2.35l20.58,6.86,3.12,2.58c5.05,1.25,8.93,4.01,12.19,7.93,3.36,3.23,5.49,6.76,6.55,11.13,2.85,3.14,4.83,6.83,3.07,10.9,4.13,7.97,4.84,16.89,2.7,25.95l-2.2,17.86c5.71-.08,7.34,3.14,7.89,8.12-.64,7.5-3.59,13.75-7.1,21.68,15.14-7.05,29.34-15.26,43.5-24.52,3-.98,4.51-3,5.23-6.13l.47-21.96c-3.12-1.92-4.99-3.64-6.91-6.31-3.23-8.55-4.93-16.67-4.28-25.78l2.04-3.8,3.9-.56c-1.33-10.91-.72-21.63,1.2-32.56,2.25-6.99,6.22-13.15,13.27-16l5.33-5.14,11.67-1.83.79-.36,10.71-1.84,16.32,3.53c1.89.85,4.42,3.14,6.33,5.06l11.93,12.25c3.18,8.29,5.13,16.22,4.96,25.13l-.1,12.7c1.64,1.57,2.49,4.01,1.85,6.09-1.47,6.64-2.04,12.57-2.07,19.23.74,9.6-1.04,18.95-5.52,27.35-1.96,2.43-2.85,6.31-1.83,8.54l25.96,11.18c4.15-2.82,9.48-5.12,13.91-1.78-4.47.78-8.3,1.77-12.45,3.63-7.57,6.27-13.51,13.28-17.92,22.12-6.6,16.51-10.85,33.08-14.57,50.48l-10,43-3.68,27.57-1.16.57,2.9,15.51c8.42-19.75,11.64-39.71,12.79-60.6l4.1-30.88c2.14-7.09,3.38-14.53,8.53-19.97-6.23,17.53-9.52,34.45-10.38,52.7-1.12,21.57-4.93,41.99-13.23,61.84l-5.57,23.58c-.58,10.14.82,18.6,4.61,28.47-6.03-5.03-6.15-12.31-7.33-19.47.03-10.83,2.19-21.25,5.26-31.74l-13.53,6.83c-8.05,2.41-11.6,8.98-15.01,17.24-2.25-8.21,4.05-14.64,9.94-19.44,5.83-4.53,11.02-9.01,14.34-15.62l-38.27,18.53c-7.49,4.55-13.77,9.55-18.17,17.26,11.03,6.54,19.18,15.32,25.43,26.1,4.95,12.6,8.8,25,10.42,38.7-4.43-8.37-5.41-16.82-7.98-25.18-3.44-10.12-7.52-19.08-16.02-26.87l-4.97,61.86-3.44,40.4-6.64,31.91,44.96,8.36.02,2.07-32.52-5.06-29.55-7.07-7.42-2.75-2.65,9.67,18.26,5.33c17.59,7.27,36.13,10.39,54.61,11.47,6.51-24.32,3.72-47.43,0-72.11,7.17,12.31,5.51,26.08,5.94,39.25.3,11.68-.38,22.56-2.92,33.83l-4.03,1.72-2.28,15.35c9.29,4.53,18.09,6.63,28.1,6.17l33.05,3.07,35.94.07c13.4,1.28,26.51,1.13,39.76-.77l14.49-.85,4.04-4.12c-2.58-5.87-3.55-10.09-1.15-15.88l-1.89-7.85c-1.3-1.99-.66-4.82,1.02-6.44,2.58-1.59,2.46-4.99.24-6.75l-2.72-4.95,2.79-4.38,4.25-23.38c1.32-2.56,1.7-5.61-.28-8.04l-9.06,23.35,5.65-3.35c-1.63,4.43-4.69,8.24-10.18,6.6l6.48-15.13,4.27-13.97c2.07-1.42,5.36-.48,7.57,2.6,3.27-4.78,5.89-10.41,5.38-16.88l3.13-20.16c2.11-9.91-1.36-18.8-2.63-29.76,3.94,6.33,5.08,13.89,6.15,22.11l6.74-17.35c2.18,7.09-2.93,11.78-3.98,17.84l-5.01,15.34-1.63,18.08c-1.11,4.45-3.03,8.82-5.18,12.97-3.87,6.53-6.2,13.29-6.87,21-.81,4.39-2.42,8.77-4.28,12.75,2.29,2.92,3.94,5.92,4.57,9.75,7.81,1.79,16.32,2.64,24.49,1.65,14-4.27,27.21-6.58,42.56-8.39l-2.3-11.57-14.2,3.96c-17.22,5.61-34.95,7.22-52.85,4.84l-1.3-1.68,2.01-.77c17.57,1.41,34.7.06,51.26-5.44-4.1-15.11-6.28-29.67-7.6-44.98-2.93-17.1-3.89-33.79-3.8-51.09l-.94-10.13-2.17-13.34-7.38,15.66c1.43-10.5,6.44-19.4,10.94-29.56-3.51-9.34-10.99-16.38-19.34-21.66l-11.94-6.99,6.41,12.5c3.6,6.62,5.44,14.46,2.66,21.36-1.62-11.08-3.11-19.82-9.23-27.84-4.25-7.69-7.78-15.42-8.92-24.12l-4.45-24.42c-2.32,12.65-.38,23.87,1.19,35.87-5.64-9.18-4.26-19.43-4.52-29.24l2.56-21.25c.11-21.99-2.19-43.18-7.03-64.56-2.85-11.4-7.51-21.4-13.97-31.15-7.36-12.2-20.21-20.32-34.37-20.77-6.49,0-10.65,2.89-15.13,7.66-1.11-5.29,3.14-7.08,6.32-8.64,7.73-3,15.39-2.04,23.11.73l13.85,8.26c11.81,13.48,20.37,28.62,23.56,46.59l10.36-6.92c.93-7.09.68-14.55-.89-21.35-4.23-5.4-6.37-11.33-7.65-17.68-2.78-2.39-4.84-5.27-6.51-8.73l-3.47-19.66c.47-2.28,1.49-3.92,3.76-5.35l-2.77-16.51c.26-6.88,1.68-13.53,3.68-20.11,2.03-6.94,5.42-12.73,11.42-16.77,5.47-7.56,15.36-12.7,24.91-8.97-7.36,1.63-13.98,1.9-18.11,7.84-5.36,2.67-9.6,7.04-12.93,12.06l-6.14,20.04,3.14,22.42c.65-3.16.46-5.04-.11-8.75l2.45-5.94c-.98-1.32-1.64-4.13-1.32-6.01l-.43-.73-.37,1.6-2.11.18c.88-8.74,4.25-16.94,10.79-23.01,2.25-3.18,4.43-6.7,8.91-7.85l-11.28,14.1c1.39,1.9.86,3.38-.19,5.06l-.63.76-4.5,8.34.49.8c2.63-3.93,5.76-8.07,10.28-10.22,5.63,2.07,10.15,3.64,15.38,3.01-4.14-2.44-8.21-2.6-9.53-7.39,9.5,6.22,19.71,6.83,28.57,1.04l-17.21,1.24c-3.73-1.44-7.08-2.14-8.5-5.86,7.27,2.86,13.9,3.96,20.72,2.83-6.8-2.25-14.34-.95-17.79-7.66,6.96,3.13,13.16,5.38,19.68,4.82-6.31-2.53-13.21-3.66-14.85-10.64,8.78,7.33,17.57,9.68,27.82,8.05,1.93-.14,3.67-.69,5.06-1.9l-8.42,1.13c-6.38-2.18-14.78-5.69-15.57-13.14,7.95,6.58,15.06,12.01,24.05,10.26-4.33-1.2-8.53-.47-10.81-4.56l15,1.94-4.63,7.1-14.71,10.3c-7.23,2.95-14.95,4.59-22.46,6.25,6.99,1.27,13.35-.71,19.24-3.78l13.04-6.01c2.56-1.89,6.9-2.55,8.38.73l3.54,4.52c-.72-3.61-1.55-5.3-3.64-8.58-.27-1.61.22-4.23,1-5.2l2.07,5.78c.29-3.24.32-4.44,1.52-7.76l5.13,14.08-.47-10.37c4.85,4.7,3.44,10.32,3.31,15.05-5.06-1.37-5.4-3.93-6.51-8.26-.33,2.81.49,6.09,1.95,9.28l.59,7.26c2.6,5.81,3.98,10.8,5.06,17.34l3.78-6.32c.68-8.16.7-16.45-.14-24.63-1.95-7.64-5.54-13.95-12.42-17.77-2.87-5.67-7.34-9.51-13.21-11.81-5.14-1.9-10.28-2.99-15.85-2.92-3.37,0-6.49-.19-9.56-.88,11.44-4.37,22.45-1.12,32.4,3.72l8.59,9.48c6.98,5,11.36,11.66,13.15,20.28.89,8.34.81,17.1.18,24.97,2.14,1.22,3.25,2.75,4.27,5.09l-3.71,24.14c-2.1,2.69-4.13,4.8-6.4,6.6l-3.23,13.98.04,15.51c.28,5.13,1.93,10.13,4.99,14.09,4.81.86,8.24,3.13,11.43,6.83l27.57,12.02-2.19-17.87c-4.45-5.5-7.87-11.76-8.84-19.13l-1.95-18.74c-1.6-2.89-2.48-5.99-2.76-9.23l-1.42-18.18.9-3.85,3.49-.58-.87-13.94c-.09-9.3,2.15-18.43,6.86-26.46,3.06-4.9,6.85-8.71,12.49-10.91,3.99-10.57,15.1-15.53,26.23-14.62l12.21-1.11,19.95,9.72c6.94,1.82,11.97,6.64,15.1,12.97,4.33,6.54,7.86,13.45,10.24,20.94l-3.65,15.18-2.3,15.59,4.14,1.3,1.57,5.04-9.94,27.78c-1.89,2.18-4.44,3.42-7.29,3.9-.95,5.1-2.12,10.44-4.58,15.36l-2.21,17.72c1.75,4.49,4.39,8.3,8,11.31,4.25-.36,7.24,1.33,9.27,4.67l19.77,15.75c3.83-8.47,7.92-14.82,14.65-20.13l17.53-6.42,26.25-12.87-3.25-11.1c-5.93-.99-9.53-3.34-12.65-7.74-4.79-11.25-8.64-22.48-11.51-34.39-2.9-8.64-2.55-17.21.63-26.12-3.73-7.32-5.15-14.94-4.22-23.01.95-8.31,3.44-15.77,7.21-23.18l19.91-19.18c3.12-1.84,6.03-3.55,9.88-3.28-10.81,7.82-20.34,15.37-28.53,25.77-3.81,8.84-5.71,18.05-5.39,27.32l4.95-21.74c4.57-8.15,12.54-11.64,21.97-12.6,7.2.63,14.59,2.4,21.29,5.17,7.57,4.48,13.95,8.99,20.3,14.97,10.63,11.39,19.47,23.74,27.02,36.92ZM301.04,132.87l-.44.21-3.61,1.18c-4.38.09-8.32,2.22-10.87,5.97-6.94,2.29-11.17,7.55-13.5,14.61-2.55,12.67-4.12,26.28.88,38.93.39-6.77,1.42-12.34,4.32-17.99l-.22-13.76c4.51-7.05,10.84-8.24,19.06-8.16-4.48-2.05-8.7-3.02-13.3-4.02,5.19-1.82,10.06-.7,14.54,2.13,4.63,2.86,9.07,5.1,14.31,6.25-5.32-7.14-12.72-11.01-21.32-12.95,6.77-2.67,12.2,2.1,17.02,5.64l11.45,8.44-3.17-5.33-.43-.29-.55-.71-.69-.72.94-.73.56.63.67.57.32.43,4.3,4.04c-2.72-7.98-10-9.51-15.46-14.42,8.77.99,14.04,7.9,18.95,13.72l.64-.64-2.26-3.87-.38-.38-.43-.71-.76-.77.77-.74.67.71.59.65.38.39,6.17,8.26c-1.05-9.19-9.1-11.53-14.43-17.37,9.15,1.84,13.67,9.89,18.45,16.06-.51-5.44-1.9-8.62-4.5-13.23,7.25,2.09,6.81,8.46,8.69,14.81l-.45-11.08c2.9,3.19,2.75,7,3.13,10.29l6.12,9.55c.14-3.48-.32-7.43-1.85-10.86-1.55-4.37-3.41-8.12-6.99-11.17l-11.29-11.34-14.73-2.48-11.33.25ZM331.07,219.28c5.81.53,8.77,3.97,10.49,9.41,4.54-4.91,7.23-10.6,6.76-17.3l-.88-25.01c-.22-5.6-1.26-10.79-2.7-16.2-1.08-3.87-3.07-7.56-6.25-9.34-5.16,1.2-9.56.71-14.25-1.37-7.5,2.64-15.56,1.6-22.38-2.32l-11.27-.57c-3.64,1.06-6.86,2.61-9.33,4.46-1.48,3.55-1.94,6.52-2.01,10.39,1.13,4.01.5,7.7-2.01,11-1.36,6.54-1.29,13.44-.06,20.06l2.32,14.81c3.05,5.1,6.96,9.47,11.97,12.24,2.28-6.47,6.36-8.96,12.1-8.93,5.38-2.35,11.04-2.82,16.71-1.1,3.29-2.38,7.08-2.48,10.78-.23ZM325.49,157.23l.76-.7-.76.7ZM78.87,169.51l-3.44-5.43c-7.4-.53-14.36-.64-21.17.45l3.72,8.39,20.89-3.41ZM88.1,169.82l-8.62-5.12c.6,4.76,3.95,6.03,8.62,5.12ZM596.13,171.05l1.68,1.54,1.59-1.9-3.28.36ZM105.79,204.36l.62-9.36,7.04-8.6c1.07-5.15-.42-8.21-5.15-10.06-19.03-5.84-39.76-5.15-58.16,2.56-5.38,2.63-10.28,4.76-14.73,9.15,13.43-6.8,28.34-10.28,43.98-8.72,7.8.92,14.83,3.46,20.91,8.25,4.26,4.9,4.28,10.69,5.49,16.78ZM610.19,187.17c-1.61.44-3.18,2.83-3.89,5.32,4.74-2.28,8.06-3.55,13.05-4.57,5.85.28,11.09.86,15.97,2.66l2.7,3.1c3.38,1.64,6.14,3.21,7.36,7.21l-11.37-7.65-.84.88,13.77,10.98c3.66,5.58,5.52,12.1,5.33,19.49-1.55-.38-3.1-1.83-3.7-3.16l-2.48-8.18-.7.72c1.38,5.16,1.43,10.72.43,16.3,1.16,3.08,1.92,6.76,1.7,9.96l-1.03,9.34c3.13-4.48,4.69-9,5.62-14.47l4.13-22.03c-.62-6.36-3.83-12.55-7.19-17.66l-.65.54c2.04,4.92,5.82,9.13,5.21,15.46l-7.96-15.17-8.36-11.3-.89-.58.99-.87.66.62.84.29.65-.85c-3.57-2.49-8.08-4.6-12.34-6.02l-1.42,2.64-2.68-.62-11.97,1.35c-4.85,1.97-7.85,4.93-11.35,9.82-.57-5.47,4.03-8,8.13-11.13,5.41-1.72,10.44-2.31,16.74-2.78-2.65-1.78-6.81-3.87-9.69-4.59l-9.01,5.77c-5.51,2.57-8.39,8.17-7.31,14.05l6.36,1.33c-.73-4.83,2.19-9.24,7.7-10.22l-2.51,4ZM598.55,173.41c-4.6,1.51-8.45,4.55-10.25,9.14l10.25-9.14ZM596,191.51c-1.01-5.4.05-8.38,2.52-12.1l11.03-6.04c-6.21.43-10.72,3.9-15.98,7.4l-2.36,9.99,4.79.76ZM584.7,180.5l5.6-5.74c-3.21.99-4.88,2.81-5.6,5.74ZM165.57,184.16l6.89-5.24-1.58-.62-5.32,5.86ZM189.53,180.11c1.69.27,3.91-.53,4.7-1.56l-4.7,1.56ZM581.64,189.5l.23-9.32-3.32,6.19.81,2.73,2.27.4ZM729.39,180.42l1.59,2.06.52-1.68-2.1-.38ZM736.23,183.42c.05-2.38-1.36-3.24-2.89-2.83l2.89,2.83ZM741.61,186.09c.91-2.51-.78-4.8-3.3-4.58l3.3,4.58ZM746.02,186.64l.19-3.39-2.81-.68,2.62,4.08ZM640.26,184.73l-.86.4.86-.4ZM577.06,188.64l-1.08-2.76c-4.43,2.76-8.33,6.12-10.49,10.44,4.06-3.53,7.39-6.37,11.22-7.19l.34-.48ZM643.12,186.56l-.47.87.47-.87ZM589.49,189.28l-3.14-1.8-.64,1.87,2.26,1.34,1.51-1.42ZM643.97,187.64l-.57.31,1.48,2.43.61-.54-1.52-2.21ZM193.54,190.41c0-.61-.5-1.11-1.11-1.11s-1.11.5-1.11,1.11.5,1.11,1.11,1.11,1.11-.5,1.11-1.11ZM272.7,198.36c-1.15-3.99-2.47-6.83-6.31-9.2-1.2,3.75-1.51,6.78-1.44,10.43,1.3,7.64,1.6,15.22,8.41,21.04l-.96-18.78c-4.1,3.18-1.56,5.64-.16,8.91-1.86-.86-3.19-2.23-4.36-3.88l1.87-6.52-1.22-5.24-2.05,3.54c-.83-2.67-.5-4.48,2.13-6.19l3.44,6.98.65-1.09ZM578.06,189.73l-.5.14c-7.31,4.91-12.76,11.64-16.77,19.99l-1.19,14.63c1.52-7.08,3.34-13.35,6.84-19.92,2.42-4.5,5.35-8.85,8.71-12.27l2.92-.72v-1.84ZM758.69,195.52c1.3-2.06,1.01-4.82-.99-6.15-.35,2.27-.14,4.24.99,6.15ZM350.1,198.53l.92-8.73c-2.49,2.64-1.92,6.15-.92,8.73ZM499.09,190.89l-.65.02.65.02h.68l.65-.02-.65-.02h-.68ZM633.59,197.13l-6.87-6.19c-5.71-.45-10.64-.24-15.5,1.99,8.53-.37,14.51,1.22,22.37,4.2ZM645.98,190.38l-.6.56,1.51,2.48.51-.52-1.42-2.52ZM614.61,301.17l3.19,5.16,5.47-11.99c3.84-1.47,4.28-3.61,6.21-7.87l1.22,7.18.72-.71-.05-8.71,4.07-1.67c-.6-2.03-.44-4.88,1.92-5.02,4.44-10.24,6.3-21.41,6.87-33.14,1.1-5.15.46-10.01-1.19-14.9,1.22-5.55,1.21-10.88-.44-16.13-4.99-7.14-10.74-12.59-18.18-17.15l-13.03-.62c-9.97.63-19.48-.9-28.84-3.96-9.04,6.07-14.06,14.96-18.08,24.93l-3.85,23.12c-1.19,9.41-1.35,18.78-.69,27.96l7.18,17.2,3.1,11.27c2.71.01,2.37.63,2.49,1.55l.1,3.91,2.14-5.47,7.75,9.95,3.16,1.26.8,3.6c1.34-.68,3.09-1.09,4.96-1.25l4.07-.24,1.25,5.4,1.1-4.3,12.19-3.13,4.37-6.22ZM629.68,191.93l1.77-.08-1.77.08ZM519.93,192.42l-.02.65v.68l.02.65.02-.65v-.68l-.02-.65ZM631.97,192.31l-.52.57,1.41.67.65-.67-1.53-.56ZM761.93,192.42l-.02.65v.68l.02.65.02-.65v-.68l-.02-.65ZM647.93,193.41l-.6.55.55,1.54.68-.65-.63-1.44ZM490.02,259.09c2.33.02,5.17.74,7.5,2.04l9.76,3.84c1.44,2.97,2.42,6.33,3.61,10.67l3.1-4.67c1.94-1.11,3.44-2.74,4.14-4.83,6.69-10.21,8.63-21.61,6.85-33.8.17-6.48-1.22-12.55-4.34-18.21l-.53-8.99c-4.83-1.3-7.2-4.94-9.5-9.01-4.69,3.26-9.28,5.53-14.27,7.16-7.51,4.99-16.14,7.69-24.7,4.4-4.48,4.4-8.25,9.79-16.11,9.51l6.97-5.51c-5.9.81-9.5,4.74-9.11,10.71-.13,12.98.59,25.46,2.74,38.21,2.9,6.6,6.67,12.06,12.09,16.88-.38-5.34,1.36-9.19,5.91-11.42,3.29-2.38,6.03-5.84,11.09-5.52l-10.4,7.32c-2.68,1.52-4.81,4.52-4.34,7.51,1.69-2.67,3.1-4.6,5.26-6.63,4.17-2.36,7.51-4.23,11.83-5.26-2.12,3.1-4.26,3.48-7.98,5.47,5.59.15,10.96-.31,17.06-1.7l-8.5-1.76.9-5.65-.18-.2c-2.46.62-5.35,0-8.1-1.57l-3.09.56-1.56-3.63c.46-1.99,2.45-2.79,2.23.4l8.59,2.82c2.59-2.39,4.24-3.99,8.27-3.44l-5.41,4.01.25.28ZM454.64,199.18l.57-.51-.57.51ZM273.06,199.3v1.4s0-1.4,0-1.4ZM463.68,204.72l1.55-2.31-5.05-.63-7.87,12.55,10.32-9.45,1.05-.16ZM463.67,205.96l-3.39,3.67,8.52-6.04-4.84,1.83-.29.54ZM638.55,204.41l.62-.93-.62.93ZM472.25,205.02c-2.34-.22-2.16-.2.43.04,1.06.1.67.06-.43-.04ZM639.9,204.43l-.42.47,5.68,8.32.53-.29.28-2.59-6.06-5.92ZM467.58,206.31c-.9,2.75-.72,2.2-.46,1.4l2.37-.81-1.92-.59ZM778.6,212.34l2.86,2.82-4.23-7.42c-.63,5.26-.97,8.55,1.6,13.58l-.24-8.97ZM786.88,233.36l1.3-9.22-5.48-8.88c-.25,6.54-.4,10.89.87,17.54l1.47-5.98,1.83,6.54ZM340.95,232.25l-4.73-8.91c-3.97-1.89-8.82-3.28-13.21-3.62-2.93,1.82-5.23,1.63-8.3-.21l-11.73,3.42c-5.04.25-8.7,3.03-9.75,8.97-8.09-1.01-12.41-7.43-16.65-14.69-.15,7.02,1.93,14.08,5.01,20.96l14.16,13.97c4.27,3.29,8.87,5.62,14.19,6.74,10.69,2.27,21.17-1.9,26.59-11.34,5.51-6.31,9.02-13.7,10.78-21.21l-6.36,5.92ZM649.93,219.41l-.5.5.5.5.73-.5-.73-.5ZM789.87,231.65l1.88-3.59-2.44-1.85.55,5.44ZM528.99,249.65l.44,6.97c4.08-4.39,4.62-9.09,5.6-14.53l1.2-15.28c-5.4,1.68-6.81,5.62-7.3,9.32,2.26-3.49,3.67-6.17,6.77-6.96l-4.58,8.41c3.74,4.8,2.33,9.11-2.13,12.07ZM276.19,233.55l-.44,1.76.44-1.76ZM449.38,236.59l-1.46-3.35-2.56,1.52,3.65,2.55.38-.73ZM276.89,235.4l-.6.69-1.78,16.05-4.89,5.33c4.02,16.73,17.45,29.92,33.84,34.79l19-2.79c9.58-5.3,16.24-14.5,18.25-25.41-1.03-4.69-1.29-9.25-1.55-15.07-5.91,9.65-16.23,14.7-27.17,13.05-8.24-1.03-15.03-4.65-20.94-10.28-6.05-4.52-11-9.97-14.17-16.36ZM453.07,258.17l-2.35-7.9c1.16-2.18,1.48-5.63-.28-7.99l-.36,7.79c-1.46-3.02-1.87-4.8-1.07-8.29-.14-1.28-1.12-2.98-2.57-4.34l2.13,14.82,3.05,7.27,1.44-1.37ZM449.94,239.07l.18-1.6-.18,1.6ZM557.97,242.43c.23-1.8-.73-3.96-2.52-5.14l1.46,18.25,1.06-13.11ZM529.71,246.87l2.16-3.93-2.39-2.9.23,6.84ZM791.99,247.8l1.9-4.84-2.1-2.49.2,7.33ZM656,246.75l-1.19-2.61c-2.65,2.89-4.19,4.7-5.51,6.81l6.71-4.21ZM220.94,274.48l6.2-10.75,1.3-12.78-3.33-2.35-1.32,1.74c2.55,2.52,3.07,3.69,3.62,6.55-1.59,4.93-3.01,8.68-5.45,13.06l-1.02,4.53ZM645.64,261.08l-2.9,16.32c2.43-1.13,3.4-2.05,4.96-3.79,3.69-8.58,6.37-16.4,8.39-25.42-3.25,2.24-5.08,4.41-7,7.07,2.67,4.7,2.19,10.01-2.56,11.67,1.34-3.8,2.06-6.68,1.84-9.53l-2.74,3.69ZM225.97,255.31c-.53-1.87-2.37-2.4-2.66-.71l-.69,11.12,3.35-10.41ZM267.42,274.34l17.26,17.87c8.32,5.05,16.33,9.13,25.65,12.75,8.47-4.1,15.62-8.45,22.86-13.72,8.94-7.76,14.44-17.78,15.01-29.75-.52-3.36-1.88-6.33-4.68-8.16,2.28,16.17-5.92,30.72-19.71,38.61l-20.2,3.27c-15.49-4.39-27.62-14.21-34.41-28.78l-2.32-10.85-4.91,3.89,5.44,14.88ZM284.86,348.55c4.39,7.37,7.19,14.43,9.75,22.01,4.57-2.31,8.28-3.16,12.35-.36l2.32,23.3c-.78,4.43-4.7,6.39-8.51,5.71l3.15,20.06,16.63-7.94-2.49-12.51-2.84-3.47-2.74-28.73c3.11.17,5.19,1.04,7.54,2.71l16.26-38.97,9.07-34.93c3.92-12.73,9.76-24.27,20.54-33.07l-17.43-7.66c2.08,5.38,2.52,9.98,1.07,14.73-2.92,12.11-10.21,22.03-20.96,28.18-5.9,4.3-12.28,7.39-19.26,10l-14.64-6.42c-8.13-4.07-15.18-9.02-21.03-15.96-6.88-6.41-11.95-14.21-13.5-24.41l-34.5,18.22c-2.46.19-3.89.02-5.73-1.18-1.42,9.83-6.82,19.35-14.15,26.78l-2.26,10.08,51.64,18.31c.97-2.32,1.59-3.3,2.6-4.33l2.69,2.79c1.44,2.8,3.77,5.04,6.69,6.08,6.35,3.17,11.75,6.49,17.73,10.97ZM506.17,270.51c.1,1.45-1.2.93-2.33-.93l-29.96,2.7c-1.63,4.14-.18,6.87,3.61,8.12.94,3.83,3.63,6.99,7.8,5.54,1.5-1.45,5.25-3.29,6.34-2.71,3.67,3.76,6.42,1.23,9.7.24l5.37-8.81c1.61,4.77-1.5,9.76-5.84,11.26-3.22,2.57-7.15,2.7-10.27-.26l-5.11,3.45c-3.8-.4-7.72-2.6-9.87-5.74l-5.67-5.76-1.39,3.69-11.1-11.9c2.91,8.53,8,15.44,14.56,21.42,6.73,8.31,17.19,11.91,27.53,8.69,11.2-6.91,20.07-16.76,24.99-28.98l1.84-16.13-6.48,14.41-4.98,6-5.43,4.31-2.36-9.91-.96,1.29ZM453.15,260.38l-.24-1.07.24,1.07ZM506.63,268.49c-4.36-3.69-10.92-7.69-18-6.31,3.87,2.34,7.69,3.28,11.94,4.09l5.48,2.89.59-.67ZM221.93,266.41l-.5.5.5.5.5-.5-.5-.5ZM483.42,337.44c4.05,2.47,8.18,4.58,12.72,6.12,11.02-4.36,19.64-10.59,28.2-18.3,3.9-3.99,7.48-8.85,9.98-13.75-3.67-2.95-5.67-5.35-8.09-9.16-2.73-6.7-3.37-13.57-3.19-21.01-6.17,7.76-12.29,14.36-20.1,19.6-9.56,4.5-20.05,2.71-28.29-3.76l-10.08-9.8c1.36,6.82,1.33,13.54-1.31,19.71l-4.36,5.19c5.41,11.36,14.09,19.03,24.52,25.16ZM633.67,293.59c2.29-2.99,2.3-6.37,0-9.36v9.36ZM91.85,322.12l7.97-14.35c.6-6.05,2.82-12.35-3.09-17.07.73,7.94-.34,14.38-3.72,21.21-3.48,5.76-7.61,10.41-12.39,15.6l11.22-5.39ZM110.23,314.5l9.14-6.36c3.85,1.25,6.06-1.54,6.14-5l-23.24-9.45c2.94,9.17-.66,17.45-5.77,25.7l6.8-3.4c1.89-.68,4.66-1.21,6.93-1.49ZM626.93,296.42l-.02.65v.68l.02.65.02-.65v-.68l-.02-.65ZM589.91,376.39l35.71-17.68,14.57-12.51c2.82-4.32,5.29-8.82,5.93-13.57l-11.31-11.97-1.44,4.13c-1.32-7.86-1-14.4-.33-21.37-5.26,6.28-10.89,10.94-17.45,15.33-9.19,4.59-19.97,5.66-29.71,2.37-6.21-2.12-10.61-5.34-14.42-11.02,1.13,9.02,2.88,17.03,1.22,25.04-5.05,7.76-1.87,17.17,2.49,24.44l14.73,16.8ZM453.24,318.2c5.76,10.85,14.52,19.45,25.06,25.27l16.48,9.67c11.55-4.33,22.43-11.21,32.47-18.78,6.65-5.73,12.33-11.36,15.26-19.97l-5.4-4.89-3.46,9.15c-9.69,13.08-22.7,22.73-38.43,27.85-6.88-2.32-12.87-5.91-18.81-10.01-8.98-6.52-16.59-14.05-20.32-25.05l-3.51,1.64.65,5.14ZM603.93,310.41l-.5.5.5.5.5-.5-.5-.5ZM592.93,312.42l-.02.65v.68l.02.65.02-.65v-.68l-.02-.65ZM600.93,313.41l-.5.5.5.5.5-.5-.5-.5ZM203.74,317.43c-1.19,2.44-.64,4.47,1.34,6.57.58,5.71-.82,11.49-3.12,16.82-3.66,8.21-8.33,15.18-14.71,21.44l-16.87,9.53-24.54-12.78c-10.72-9.69-20.39-19.94-27.64-32.38-2-4.22-3-7.56-2.35-12.37l-6.63,5.48c.91,5.61,2.88,10.17,5.78,15.15,8.74,11.69,19.11,21.54,31.37,29.5,8.07,5.97,15.92,10.78,25.11,15.54,9.02-5.54,17.01-10.97,24.6-17.75,5.64-6.88,10.72-13.6,12.82-22.16,2.29-8.26.95-16.69-5.16-22.6ZM467.93,424.73l6.53,4.13-.28-12.53c1.37-5.24,7.01-7.53,12.27-6.19l6.53-21.93c1.91-5.53,3.73-10.51,6.77-15.47l68.46-42.53c1.93-.91,2.65-3.6,1.57-4.91l-24.89-10.64c-2.5,7.85-8.25,14.64-14.8,20.42l-17.69,12.38c-5.87,3.77-12.12,6.56-18.97,7.87l-17.9-10.04c-8.62-5.07-15.59-11.64-21.03-20.04,2.73,17.98,4.07,35.16,3.05,53.1l5.23,32.78,4.68.83c.72,4.21.86,7.53.47,12.76ZM589.93,314.41l-.5.5.5.5.5-.5-.5-.5ZM609.93,316.41l-.5.5.5.5.5-.5-.5-.5ZM591.58,317.44l2.17,2.28.39-1.4-2.56-.88ZM604.54,318.55c0-.54-.44-.98-.98-.98s-.98.44-.98.98.44.98.98.98.98-.44.98-.98ZM564.01,356.33l6.57,12.91,16.47,17.33,13.39-5.23c12.87-4.78,24.68-10.89,35.73-19.2,8.86-6.82,16.46-15.32,21.2-25.23-3.31-2.28-5.84-4.54-8.55-7.34l-.65,7.45c-3.91,9.96-10.67,16.99-19.56,22.68-12.49,7.94-25.18,13.97-39.19,19.66l-14.88-16.04c-7.09-8.25-8.23-17.95-6.1-29.92-6.44,5.37-6.78,14.55-4.42,22.94ZM742.04,341.97c-2.87-3.03-4.9-5.89-8.9-6.24,2.7,5.27,4.8,7.87,8.37,12.28l.53-6.04ZM760.77,344.89l-8.92-.88c-2.03,1.49-3.41,3.08-5.24,6.2,5.08-.79,8.84-2.14,14.15-5.32ZM323.02,404.86l2.41-23.46,7.75-35.29-7.21,16.03c-5.27,13.88-6.85,29.13-3.47,43.14l.52-.41ZM319.13,376.87c.38-2.85-.12-5.98-3.08-7.8l1.67,12.94,1.41-5.14ZM306.19,394.03l-2.21-22.45-8.73,1.3,4.73,23.67c1.87-.25,4.44-1.25,6.21-2.52ZM750.08,533.16l-4.43-26.15-7.68-43.32-8.46-52.32c-2.04-6.23-2.91-12.38-5.86-18.62,2.39,14.32,6.29,27.25,7.86,41.63,1.63,19.06,4.47,37.11,8.41,55.7,3.07,14.56,5.24,28.34,5.77,43.3l4.38-.23ZM737.17,488.09c-4.32-21.05-7.14-40.88-8.63-61.72-2.56-10.94-3.43-21.51-7.64-32.26l7.09,51.81,7.59,53.41,6.38,34.81c2.64-16.01-1.89-30.45-4.78-46.04ZM739.16,532.92l-4.51-28.73-6.39-37.78-4.28-39.6-4.73-30.96h-1.77s3.6,27.08,3.6,27.08l1.44,17.52,2.1,14.93,10.47,73.82.13,3.84,3.95-.13ZM731.91,534.67c1.05-13.11-2.27-24.18-2.89-35.82l-4.58-29.43-3.74-26.26-2.86-31.04c-.47-5.56-.84-10.92-3.64-16.06l1.58,23.39.65,13.96.82,20.03,5.77,42.31c3.76,12.99,3.76,26.34,8.9,38.93ZM723.57,534.63l4,.25.42-4.12c-6.51-28.44-10.8-56.53-13.29-85.53l-.47-23.75-.85-11.09-1.04-10.31-2.05-.25-.75,2.62.87,25.97.96,12.99c-.4,14.19.67,27.76,3.48,41.7l8.73,51.52ZM464.79,419.48c1.18-2.42,1.22-5.61-1.31-7.23l1.31,7.23ZM483.88,433.93l2.13-20.82c-2.84-.84-6.91.24-8.66,3.09l.93,14.49,5.6,3.25ZM320.16,425.26c3.4-2.21,4.24-6.53,1.95-9.14l-10.67,13.17,8.72-4.03ZM261.42,461.08c1.71-3.04,2.62-6.3,1.15-9.09-3.6,12.06-7.51,23.25-6.88,35.61l5.73-26.52ZM247.77,592.98c6.3-22.63,8.5-44.5,9.7-67.5l4.03-38.96,3.28-22.89c.56-3.32,1.73-6.51.64-9.73l-9.36,45.26-2.08,35.71c-1.36,19.47-5.02,37.65-10.73,56.76.97.57,2.67,1.1,4.51,1.36ZM255.31,591.31c4.08-21.62,6.78-42.49,8.88-64.18.23-17.81,1.81-34.89,3.99-52.69l1.83-15.97-1.17-1.69-1.29.17-.4,2.33-.83,9.15-5.15,43.71-1.35,11.54-3.22,35.73c-1.4,12.24-3.91,23.63-6.97,34.85l3.82.78,1.88-3.74ZM266.53,554.55l1.7-22.14.94-8.29c.19-20.18,1.81-39.88,4.89-59.98.61-1.63.03-3.35-2.32-4.13l-5.79,68.79-3.26,28.72c-1.15,13.43-3.36,26.07-6.82,38.57l3.06-.38.45-2.27,7.14-38.88ZM512.85,558.18c2.42,10.8,1.66,22.91,8.76,32.67-.69-11.95-5.36-22.07-6.51-33.15-3.32-13.15-5.23-26.02-6.32-39.56l-1.15-16.64c-.6-13.66-1.71-26.93-7.12-39.2l3.75,19.52,3.21,35.57,2.04,23.96,3.36,16.83ZM513.28,590.67l3.18.12-3.82-17.78-6.45-41.54c-1.29-22.14-1.78-43.55-6.78-65.56-1.72,7.94,2.3,15.37,1.81,23.43l.91,11.16.9,16.31c.34,11,1.58,21.58,3.46,32.53l6.78,41.31ZM250.27,552.24l2.41-37.79c.57-3.34.88-6.58.18-10.14l-4.7,38.91c-1.54,16.64-6.37,31.9-9.3,49.1,7.92-12.43,7.41-26.83,11.41-40.08ZM512.74,539.39l.23-4.05-.23,4.05ZM703.91,551.61l21.27-5.48c8.07-2.52,15.77-3.23,24.28-1.65l.49-7.75c-9.36-1.75-18.19-.36-27.41,1.82l-18.49,4.51c-8.21,2.1-15.75,2.06-23.79.82l1.62,5.07,22.04,2.66ZM513.74,544.39l.23-4.05-.23,4.05ZM514.82,546.58c-.11-1.1-.14-1.49-.04-.43.24,2.59.26,2.77.04.43ZM515.93,550.42l-.02.65v.68l.02.65.02-.65v-.68l-.02-.65ZM516.93,555.41l-.5.5.5.5.5-.5-.5-.5ZM524.01,588.02l1.86.17-8.67-30.9-.97.68,7.78,30.04ZM337.42,646.66l-3.16.12,2.64.74.53-.86Z"/>
    <path d="M146.22,188.63l1.07-.99-1.07.99Z"/>
    <path d="M146.61,192.52l-1.71-2.64,1.31-1.25.69,1.88,1.45-.82,4.02-6.25-3.23,1.99,10.32-12.16-1.83,4.76c2.27-1.46,4.33-2.78,7.41-3.57l-14.01,12.67,9.78-1.69c-2.3,2.47-4.45,3.21-7.49,4.02l-6.72,3.06Z"/>
    <path d="M147.29,187.64l.98-1.06-.98,1.06Z"/>
    <path d="M360.63,480.13c3.07-14.87,4.36-28.59-.24-42.89-1.68-8.11-1.8-15.79-.47-24.02,3.6-16.84,3.61-33.34-.35-50.15l-4.51,22.26-.18,24.22c-2.37-5.87-2.58-12.26-2.73-19.26,1.52-12.82,3.98-25.02,7.58-37.47,2.64-15.69,4.1-30.95,5.07-46.83.13-6.68,1.38-13,4.05-18.97,3.11-4.56,7.71-8.23,12.82-6.16-5.36,2.05-10.11,4.28-11.23,9.6,3.43-3.69,5.74-6.7,11.22-8.05l-2.7,4.41c-6.74,4.7-9.43,11.7-10.85,19.39l-1.83,14.24c-.55,10.95-1.68,21.26-3.91,32l2.28,24.68c3.72,7,9.09,12.3,15.98,16.14,7.91,4.83,17.28,6.47,25.94,3.44,12.34-5.96,20.44-15.82,24.45-28.73l3.96-19.03-.47-19.79c-2.48-3.96-8.29-5.25-13.12-3.77-3.3.34-6.04,1.29-9.36-1.54,5.66-2.66,10.65-2.33,16.71-2.06l6.37,4.78-6.68-29.16c-6.26-7.05-14.22-12.23-23.17-14.6-6.23,1.76-11.95,1.21-17.66-1.63-3.46-3.05-3.57-7.81-2.79-11.85.78-4.61,5.68-8.28,10.88-7.66-4.83,2.54-9.11,5.09-9.92,11.6,4.4-5.45,11.03-7.47,17.82-5.12-7.43-.03-14.4,1.53-16.52,9.25l4.93.42-.18,2.13,3.11,1.41,17.39-1.77c8.46.21,14.08,6.09,17.78,13.45l14.7,52.12c3.02,10.98,5.42,21.81,5.5,33.12l-1.14,11.17c-.35,3.59.27,8.02-3.33,10.56,3.28-16.87,2.49-33.32-2.3-49.74l-5.53-21.14c-1.44,11.57.46,22.49,1.31,34.24,1.69,14.87.95,28.88-2.72,43.29-.23,2.74-1.05,5.18-3.04,6.93l3.61-21.46-1.05-32.93-8.87,24.9-7.58,6.8-7.36,31.21c1.54,7.07,2.67,13.38,6.74,19.3-3.7-18.09-4.25-38.32,6.76-54.78-5.25,18.74-9.37,35.61-4.29,53.76l8.02,23.19c0,2.32-.15,4.2-.7,6.47l-3.81-11.47c-8.28,8.87-16.46,17.66-28.67,22.49-11.24-4.86-21.01-11.52-30.54-19.57-.35,6.04,0,13.15-5.2,18.64ZM424.45,290.22c-1.63-4.42-5.58-6.42-9.19-6.44l9.19,6.44ZM368.03,447.87c8.53,7.92,18.26,13.86,28.55,18.56,9.77-5.62,16.94-12.29,23.15-21-5.94-5.99-7.63-13.36-9.16-21.59.17-9.99,2.46-19.37,5.79-29.99-6.63,5.22-13.62,7.99-22,6.89-11.32-1.24-19.95-7.28-28.23-15.61l8.39,27.25c1.34,10.69,2.27,22.21-5.32,30.6,3.62-12.1,5.44-22.74,1.61-34.12l-5.04-14.85-.91,10.12c2.67,14.67,3.54,28.88,3.17,43.73ZM366.03,446.26l-2.16-36.7c-4.08,13.15-1.65,25.45,2.16,36.7ZM392.71,476.73c2.06,1.54,4.24,1.6,6.61.68,9.44-6.24,17.45-13.46,25.03-21.49l-3.18-7.67c-6.22,9.48-14.61,16.29-24.9,21.22-11.73-4.92-21.76-11.02-30.65-20.34l1.07,9.64,26.01,17.96Z"/>
    <path d="M381.94,600.46c-3.54.64-6.24.91-9.71.63,2.65-1.26,5.12-1.69,8.2-1.93l27.29-1.31c-11-2.59-22.28-3.6-33.89-3.89l-22.4.64-33.14,1.12-4.18-2.07,13.74-.36c-.24-2.92,0-6.18.47-10.12-4.85,2.33-9.65,5.03-15.13,3.93l14.81-5.95-2.98-10.24c3.17-2.55,6.76-4.22,11.59-5.51,2.53,2.21,3.87,3.94,5.57,6.91l5.22-1.9-4.82,4.78,1.17,11.35c.34,3.18-1.76,5.59-4.5,6.53l31.15-1.52c14.44-.28,28.21.85,42.01,4.84l33.89,8.16c2.12.37,4.06,1.18,5.23,3.15l-42.79-9.42c-1.62,1.93-3.98,2.71-6.22,1.99l-20.59.2ZM330.88,579.76l8.59-5.47-3.17-5.1-7.78,3.11,2.37,7.47ZM330.58,591.25l9.81-2.39-1.16-11.82-7.33,4.71-1.32,9.5Z"/>
    <path d="M348.56,496.23c-1.41-4.37,2.57-8.48,3.88-12.68,2.64-7.51,3.88-14.93,2.53-22.73l-11.48-43.58c-2.87-15.22-2.96-29.88,1.01-44.87l9-40.91,1.54-16.19.63,13.24-6.18,33.82-6.39,31.04c1.23,12.75,2.96,24.92,6.13,37.13l7.47,27.79c1.93,12.67.26,26.42-8.14,37.93Z"/>
    <path d="M425.87,562.31l-10.05,15.96c-4.38-5.55-7.1-11.01-10.19-17.1l-1.48,26.96-3.4.09,1.47-33.92.95-2.7,2.1.83,10.25,20.48,13.59-21.18c2.09,13.19.42,26.23-4.24,38.31-3.39-9.71,2.66-17.43,1.01-27.74Z"/>
    <path d="M384.82,589.64l-7.69-1.29-2.74-6.88-.36-23.25c4.82-5.62,12.47-6.8,19.56-3.57,2.07,9.26,2.16,18.97.65,28.36-.9,4.96-3.82,6.75-9.41,6.63ZM390.44,585.55c1.72-11.22,2-18.92-.22-28.86-4.92.17-8.58.9-12.71,2.57l.81,26.83,12.12-.55Z"/>
    <path d="M356.24,590.79c-2.82-.98-4.81-2.62-6.07-5.25l-2.18-19.25c1.89-3.71,4.86-5.78,8.72-7.87l6.64-.85,3.95,5.28c1.33,8.47,1.54,15.95.53,24.66l-11.59,3.29ZM364.12,585.87c1.02-8.71,1-16.34-1.23-24.73-4.96,1.01-8.65,2.29-11.79,4.81l2.73,21.29,10.29-1.38Z"/>
    <polygon points="449.4 508.16 448.22 504.02 450.73 505.84 449.4 508.16"/>
    <path d="M461.47,529.44l1.18-1.88-1.18,1.88Z"/>
    <path d="M470.4,517.45c-1.41-2.52-2.22-5.15-2.75-8.06l-2.24,3.06-1.91-2.05,1.8-2.03,2.76-1.02,1.67,2.98c1.33,2.43,2.27,5.1.67,7.12Z"/>
    <polygon points="432.45 514.5 430.78 515 431.36 517.48 429.25 515.71 430.64 512.11 432.45 514.5"/>
    <path d="M432.43,518.43l-1.06-.95,1.06.95Z"/>
    <path d="M436.45,524.37l-.03,9.54.51.5,1.5-.5-.59-.5-.54-3.48,2.5-1.72,2.48,2.78,3.62-.1.5,4.18-8.12,4.52.78,1.08,5.77-2.93,3.25-.39-.38,3.43c4.57-3.02,9.67-4.48,14.13-2.14l.31.37,1.32.91.45.44-.08-3.24,4.44,1.08s-.38,1.9-.34,1.7l-2.26,2.61-2.72-1.26-.28-.29-1.55-.88-.42-.24c-4.91-1.12-9.6-.48-14.2,2.57l.63-4.03-8.4,3.25-.76-1.22-1.55-1.57,2.16-1.3,7.33-3.97-7.4-3.79-.07,3.14.72.52-.07,2.07-2.66-.44-.84-.61c-.86-1.42-.93-2.54-.19-5.82l-2.98-2.21.03-7.98,1.3,7.09,2.72-1.14Z"/>
    <polygon points="445.15 527.57 444.27 524.6 445.57 525.65 445.15 527.57"/>
    <path d="M455.39,506.52l-2.28-5.59-4.88,3.09c-.69-.52,1.38-2.8,2.12-3.58l4.89.63.15,5.45Z"/>
    <polygon points="453.46 534.52 451.27 533.62 452.92 533.44 453.46 534.52"/>
    <path d="M451.27,533.62l-2.96-2.02,2.96,2.02Z"/>
    <path d="M459.4,531.51c-3.27,2.78-8.36.67-10.26-2.9l4.76,2.46,1.09-5.15,1.26,4.47,3.15,1.12Z"/>
    <path d="M459.4,531.51l1.01-1.12-1.01,1.12Z"/>
    <path d="M448.31,531.6l-1.06-1.08,1.06,1.08Z"/>
    <path d="M460.41,530.39l1.06-.96-1.06.96Z"/>
    <path d="M447.25,530.52l-2.1-2.95,2.1,2.95Z"/>
    <path d="M465.41,512.45l2.1,1.37-1.21,2.16-3.16,1.76.74,3.13,5.16.38,1.36-3.8,1.28,11.37-1.82-4.63c-.42-.96-1.66-1.66-3.15-1.98l1.31,7.07-6.84,7.19-10.83-.22,3.11-1.71c3.46-.01,6.59-.52,9.17-2.43,1.5-3.24,2.01-6.57,1.53-9.78l-1.51,5.24-.57-4.95-6.01.21c-2,1.51-2.43,1.79-4.3,2.64l-4.35-2.82,1.73,5.97-3.43-6.05-1.09.4-.35,1.63-1.92-2.7.71,8.03-3.08-7.6,5.99-2.51-.82-4.56,3.79-4.69-3.19,2.06c-.78,2.33-2.62,3.18-4.61,2.81-2.44-.75-3.27-2.74-2.32-4.96l.65-.77-4.7-1.51-.42,4.7.55.6c1.96,3.52,3.54,7.56,1.57,10.87.72-4.07-1.08-7.02-4-9.87l1.97-.57-.68-.48-.38-6.38,8.63,1.66-1.36,3.78,1.55,2.17,7.21-6.52.73,5.01,5.62-.87-.35-5.78c1.23,2.64,3.02,5.26,6.34,6.66l.06,1.96,3.43-.17.2-2.52ZM440.16,510.65l-.5.52.5-.52ZM455.74,517.94l2.22.36-.21,3.42c2.56-.68,3.34-3.02,2.38-6.47-1.1-.69-3.56-1.25-5.2-1.1l-.37,6.34,1.75-.32-.57-2.23ZM453.36,514.13l-6.98.93c.39,5.27,2.44,7.72,7.05,8.5l-.07-9.43ZM465.95,525.35l-.22,4.04.22-4.04Z"/>
    <path d="M346.9,458.15c2.3,7.77-1.46,15.23-5.62,22.06-3.63,4.77-7.41,10.1-14.86,10.37,4.77-6.93,8.71-13.1,10.22-20.89,2.94-13.15,3.62-25.86,1.98-39.39,1.65,1.25,1.99,3.64,1.87,6.13,1.12,7.47,1.26,14.61.14,22-.66,9.3-2.96,17.71-7.14,26.16,8.15-6.39,11.06-15.93,13.41-26.43Z"/>
    <path d="M444.81,576.2l-5.78-1.17-2.36,10.61c4.41.53,8.09-.69,9.44,4.67l-13.41-2.84,6.45-31.25c3.51-.31,8.37.62,12.47,1.69l2.05,1.03-.84,2.88-10.95-2.66-1.68,12.62,7.27,1.31-.39,2.48-2.27.63Z"/>
    <path d="M449.37,433.53l-7.04-18.55-1.57,12.22,1.37,13.95c-4.02-3.48-2.64-7.72-2.62-11.67-.53-7.48-.51-13.69,2.85-21.12l2.05,5.29,9.96,27.03c.49,7.03,3.79,14.06-1.2,20.43-.18-10.2-.79-18.75-3.8-27.58Z"/>
    <path d="M337.1,521.41c-1.82,2.52-5.8,2.3-8.41,1.63l-3.91,1.72-3-2.96c.97-1.6,2-2.83,3.18-3.87,3.51,1.8,5.66,1.53,7.83-1.85l-8.57.52,3.13-4.39c2.5-.23,4.3.82,5.32,3.01,1.73,1.83,2.73,2.64,4.76,4.01l5.25-5.41-8.15-9.77,5.04-3.92,10.3,13.96-7.15.9.81,2.64,5.88-1.02,4.77-.44.75,5.23c-2.05.15-3.69.11-4.61-.13,3.21-1.58,1.43-2.04-.33-2.5l-1.08,3.47-4.69-.2c-2.71.76-5.53.66-7.1-.63ZM339.33,518.4l-.63,2.09,2.21.84.4-2.37-1.98-.56ZM347.54,519.41c0-.61-.5-1.11-1.11-1.11s-1.11.5-1.11,1.11.5,1.11,1.11,1.11,1.11-.5,1.11-1.11ZM330.33,519.32l.45,3.16,1.67-.5v-2.16s-2.12-.5-2.12-.5ZM323.02,521.27l3.09,1.5,1.07-1.77-4.16.26Z"/>
    <path d="M404.85,379.4c-6.85,2.67-14.08.55-18.7-4.75l-4.87-4.12,14.2-1.52c2.41.64,5.21.87,7.87.68l12.35,3.03-10.85,6.69ZM407.15,372.06l-16.43-1.49c4.96,3.36,10.73,4.1,16.43,1.49ZM408.66,374.86c-6.72,1.06-12.95.08-20.74-1.57,5.31,6.24,14.34,7.28,20.74,1.57Z"/>
    <path d="M428.28,452.56l-5.28-27.85c-.9-9.45-1.8-19.35,3.2-27.74-1.54,12.64-2.2,23.99,1.03,35.78l3.16,19.25-2.11.56Z"/>
    <path d="M452.37,492.22c-7.24,1.31-11.03-4.54-14.99-8.92-5.32-9.15-8.55-19.71-6.23-29.81,2.06,9.7,2.6,17.69,6.88,25.3,3.2,6.31,8.55,9.83,14.33,13.42Z"/>
    <path d="M324.63,538.91c-5.19-4.02-12.72-1.83-15.24,3.1l-2.46,3.54-3.24-2.53c-2.26-7.21-4.9-13.91-3.65-22.13l6.32,21.53c2.53-4.41,5.76-6.54,9.42-7.66,5.32-1.01,9.43-.34,13.49,3.96l-4.63.18Z"/>
    <path d="M463.25,452.43l-2.09,3.55.2-18.55c-.62-2.62-.92-5.27-.41-8.2,2.21,6.31,2.54,12.78,2.94,19.7,4.2,9.13,8.61,19.85,3.43,29.99.46-9.27-.19-17.73-4.07-26.49Z"/>
    <path d="M471.05,485.99c-6.25,1.72-9.71-2.27-13.57-5.72-5.38-8.62-13.07-17.24-11.78-28.82,3.77,10.68,7.83,21.07,16.32,29.36l9.03,5.18Z"/>
    <path d="M371.53,623.99c-5.28.68-9.96.19-15.14-.55-12.84-2.73-25.33-4.53-38.32-5.54l-2.23-.57-.06-1.11,2.09-.35,36.63,5.28,17.03,2.84Z"/>
    <path d="M419.68,275.89l-4.31-2.34,5.31.98.54.38c5.35,2.39,9.36,6.64,12.91,11.96,5.17,10.5,10,21.54,10.04,33.82-3.5-11.94-6.33-23.37-12.96-33.97-3.25-4.42-6.83-8.04-10.95-10.79l-.57-.04Z"/>
    <path d="M436.78,441.43l-6.38-17.17-1.39-12.8.05-9.11c.4-4.3.35-8.11,3.21-11.29l-1.13,11.35c-.45,3.34-.46,6.65-.15,10.05l1.67,12.6c1.91,5.24,4.12,9.73,4.13,16.38Z"/>
    <path d="M377.86,329.04l-2.62.67-1.3,1.61-2.1-1.49,1.77-2.49,9.99-2.96c3.67,1.17,6.85,2.81,8.28,7.62l-4.98-3.76c-1.13,2.91-1.92,4.05-3.85,5.01-2.65-.65-3.37-.97-5.19-4.21Z"/>
    <path d="M471.19,477.47c1.86-13.14-.04-24.21-4.77-36.51,7.89,9.73,11.51,25.09,4.77,36.51Z"/>
    <path d="M394.16,324.81l-12.43-4.01c-3.96-.57-7.5.72-12.02,2.63,4.17-7,12.76-7.23,19.75-3.96,2.81.31,6.2,1.57,4.7,5.33Z"/>
    <path d="M424.02,330.93c-.68,1.7-1.74,3.57-3.01,4.8-2.61-.25-4.02-1.4-5.19-4.05l-4.2,1.69c1.29-3.86,5.23-5.45,9.31-5.48,3.29.79,9.51,1.12,8.85,7.22l-5.76-4.18Z"/>
    <path d="M453.3,490.54c-2.86-1.87-4.73-5.26-6.46-8.67-2.08-7.7-4.77-14.88-3.87-22.91,1.92,5.23,2.92,9.88,3.89,14.92l6.44,16.66Z"/>
    <path d="M386.53,632.56l24.8-.27,21.07-3.18c-12.4,4.42-24.65,5-36.83,5.42l-9.04-1.97Z"/>
    <path d="M307.92,509.03c-.65,6.63-.82,12.06-3.47,17.58l2.18-21.22-2.21-20.23c2.83,4.76,2.89,9.71,3.36,15.23l.15,8.64Z"/>
    <path d="M365.64,278.21l-7.8,16.51c.63-9.33,5.24-17.43,11.78-24.08,2.58-1.55,5.25-2.76,8.19-2.24-4.9,3.26-8.31,5.52-12.17,9.81Z"/>
    <path d="M405.2,357.73l3.74.61,1.66-4.54,1.06,5.14c-1.18,1.09-3.27,1.48-5.55.95-4.26,2.57-8.34,1.26-12.41-1.27-2.2.51-3.94.4-5.73-.41-.3-2,.09-4.01.8-6.01l1.72,6.34,2.66-2.08,3.02,1.3c2.55,1.92,6,1.95,9.03-.02Z"/>
    <path d="M330.83,481.62l-2.03-6.06.09-9.38c1.08-5.76.38-11.7,4.39-17.09l-3.02,22.28c.83,3.32,1.3,5.47.57,10.25Z"/>
    <polygon points="341.28 514.67 334.85 515.78 329.42 509.74 334.27 505.69 341.28 514.67"/>
    <path d="M337.09,626.98c8.5.84,16.01,1.81,23.51,4.33l-33.49-4.12c3.02-.97,6.28-.69,9.98-.21Z"/>
    <path d="M347.78,488.32l.86-15.61,1.38-1.31.47,1.98c.18,5.47.19,10.3-2.71,14.94Z"/>
    <path d="M406.37,338.48c-1.88-2.82.05-7.65,2.97-10.23l-2.97,10.23Z"/>
    <polygon points="402.48 383.26 392.91 383.46 392.37 382.56 401.94 382.36 402.48 383.26"/>
    <polygon points="434.37 488.81 437.23 490.57 436.05 492.96 433.43 492.59 434.37 488.81"/>
    <polygon points="463.17 489.19 466.07 490.41 465.38 493.2 462.78 492.13 463.17 489.19"/>
    <polygon points="455.86 489.49 459.23 491.21 458.55 493.21 456.16 493.14 455.86 489.49"/>
    <path d="M442.78,490.28c2.52,3.97-1.89,3.95-1.71,1.4.86-.71,2.55-2.09,1.71-1.4Z"/>
    <polygon points="377.73 370.47 377.34 367.92 379.29 366.37 377.73 370.47"/>
    <polygon points="417.93 370.42 417.94 371.07 417.94 371.75 417.93 372.4 417.91 371.75 417.91 371.07 417.93 370.42"/>
    <polygon points="444.93 321.42 444.94 322.07 444.94 322.75 444.93 323.4 444.91 322.75 444.91 322.07 444.93 321.42"/>
    <path d="M87.43,653.41h-3s12.7-8.41,12.7-8.41c9.73-6.82,17.61-15.29,26.52-23.63-7.99,12.83-20.3,21.55-33.02,29.23l-3.2,2.81Z"/>
    <polygon points="124.43 653.41 123.43 653.41 133.9 642.39 134.39 642.89 124.43 653.41"/>
    <path d="M142.56,188.47c.32-5.61,5.14-8.78,8.57-11.99l-8.57,11.99Z"/>
    <polygon points="189.3 464.61 191.26 490.31 189.75 492.76 187.53 490.19 184.74 456.16 187.33 453.19 199.26 472.81 206.29 454.39 208.95 452.22 210.87 455.31 213.42 489.5 212.07 492.22 209.61 490.26 207.42 462.65 199.96 480.76 189.3 464.61"/>
    <path d="M133.23,505.43l-15.45,10.51-2.79-37.82,9.01-6.42,6.51-.03,2.8,5.69,1.16,13.11c.3,4.89-.21,9.58-1.25,14.96ZM130.46,502.68c.4-9.96.05-18.24-1.44-27.78-4.34,1.18-7.58,2.73-10.25,4.61l2.7,29.7,8.99-6.52Z"/>
    <path d="M172.44,494.86c-4.44,1.76-7.74-.13-9.65-4.11l-2.16-25.33c.59-5.23,3.5-8.18,8.39-9.7l6.63-.43,4.08,5.23,1.87,24.81c-.71,5.15-3.43,9.12-9.15,9.53ZM177.47,488.72c.15-10.84-.8-19.33-2.74-29.45-4.18.2-6.69.88-9.93,2.63-.04,10.46.57,19.31,2.42,29.42,4.22.2,6.72-.38,10.26-2.6Z"/>
    <path d="M149.09,501.94l-6.73.49-3.77-5.8-.27-26.1c2.31-6.11,7.72-9.93,14.11-9.56,3.59,4.24,4.08,9.15,4.19,14.43l.29,17.98c-1.38,4.46-3.33,6.47-7.83,8.56ZM152.99,495.56l-.02-15.4-1.96-15.51c-4.64.64-7.72,3-9.49,6.74l1.39,27.27,10.09-3.1Z"/>
    <path d="M249.24,409.6c-.99,2.12-1.79,5.32-2.36,7.91l-.73-12.24-2.59-.38-1.3,2.54-3.22-1.63c3.59-2.01,5.96-2.6,8.41-2.34l-.21,4.7,1.99,1.43Z"/>
    <polygon points="250.58 430.64 248.29 432.66 244.25 430.69 247.58 430.16 249.02 425.1 250.58 430.64"/>
    <path d="M228.36,433.19l-2.02,1.17,2.02-1.17Z"/>
    <path d="M231.47,403.38l-1.32-2.57-.08-2.47-1.49.95.71.99-2.43,1.51.77,3.51-2.04,2.71,2.5,1.7,3.58.26,1.12-4.18,6.79,3.6,2.78.78-.1-2.72,1.99,1.38-1.3,2.75-3.64.95-.4,3.31c3.38-.52,5.95,1.47,5.47,3.72-2.32,1.22-2.15,2.3.32,1.28l3.21,2.17-1.63,3.78-2.6,1.92.58,1.97-7.76.7-5.22.99-1.43-1.29,9.37-2.49,3.01.14,1.2-5.32-3.34,3.68c.87-2.71,2-6.47.29-9.41l-.92,8.1-.93.15c-1.94,3.53-5.86,4.28-9.68,2.36l-1.41-1.95,4.26-1.53-.45-2.77-3.49-.44,1.95,3.15-.96,1-3.24-4.55v3.09s-4.61-2.87-4.61-2.87l.02-1.83-1.49,1.23-1.05.52.5-2.19,4.04-1-.46-6.73,3.07-1.68-3.18-.32,4.33-5.1-3.94-3.19,8.28-5.36.45,7.6ZM235.93,408.41l-.5.5.5.5.5-.5-.5-.5ZM231.13,411.16l1.7,1.41,1.56-1.9-3.26.49ZM235.82,411.58c-.11-1.1-.14-1.49-.04-.43.24,2.59.26,2.77.04.43ZM229.32,415.53l.71-3.89-5.66.1-.52,5.6,4.11,2.34,3.18-4.07c-.39-.78.44.87.91,1.81l.39-2.51-.54-.91-2.58,1.53ZM236.42,416.95l.72-2.71-1.47,2.85.75-.14ZM237.12,417.79l-.66.04-3.47,1.46-.86,7.84,5.78-1.45.24-1.04c1.11-2.3.85-5.22-1.02-6.85ZM242.93,418.41l-.5.5.5.6.5-.6-.5-.5ZM230.93,419.41l-.5.5.5.5.5-.5-.5-.5ZM244.26,423.41l.82,1.72,1.36-1.33-2.18-.39Z"/>
    <polygon points="231.27 432.38 231.45 433.16 228.36 433.19 231.27 432.38"/>
    <path d="M219.53,426.63l-1.01-2.26,1.01,2.26Z"/>
    <polygon points="227.43 426.36 225.55 426.06 225.52 424.3 227.43 426.36"/>
    <path d="M221.65,436.71l-3.18,2.17,3.18-2.17Z"/>
    <path d="M229.29,400.27l-.71-.99.71.99Z"/>
    <polygon points="232.79 405.78 231.39 404.97 231.47 403.38 232.79 405.78"/>
    <polygon points="251.77 428.41 249.27 420.56 251.4 421.08 251.4 418.44 252.03 423.59 251.77 428.41"/>
    <path d="M221.65,436.71l.79-2.36h3.91s-.61,2.49-.61,2.49l5.72-3.69,11.39,1.04-.68-1.16-.63-.61.86-.94.75.46,5.9,2.15,2.92-2.47.1,4.91-7.12-2.46.39,3.89c-6.72-4.82-14.47-4.56-19.67,1.79l-1.53-2.68-2.48-.35Z"/>
    <polygon points="251.43 409.38 249.24 409.6 249.86 407.33 251.36 406.72 251.43 409.38"/>
    <path d="M216.47,410.39l-.47-2.05-4.83.22,3.13,9.86c-1.58-1.53-2.79-3.57-3.88-5.91l-.52-4.3,5.49-1.27,2.74,1.47-.57,1.44-1.1.55Z"/>
    <path d="M222.46,411.43l-2.1,3.12-3.83-1.95c2.2-.09,4.16-1.31,5.82-3.18l.11,2Z"/>
    <polygon points="251.41 413.42 251.43 409.38 252.59 411.1 251.41 413.42"/>
    <polygon points="216.53 412.61 215.29 411.83 216.47 410.39 216.53 412.61"/>
    <polygon points="224.2 427.75 220.61 425.49 220.9 421.43 224.2 427.75"/>
    <path d="M210.42,412.51l-.31,1.39-2.03.25c3.8,3.6,3.52,6.16,3.45,11.26l3.04-2.97-.54,10.21-1.49-5.25-3.12-3.5.84-4.21-4.41-6.87,2.62-1.28,1.96.96Z"/>
    <polygon points="250.58 430.64 250.44 429.03 251.77 428.41 250.58 430.64"/>
    <polygon points="250.2 416.48 249.65 414.54 251.41 413.42 250.2 416.48"/>
    <path d="M239.21,428.6l.86-1.49-.86,1.49Z"/>
    <polygon points="214.56 422.45 214.3 418.42 215.67 420.05 214.56 422.45"/>
    <polygon points="228.84 428.31 229.84 431.09 224.2 427.75 228.84 428.31"/>
    <path d="M251.4,418.44l-1.2-1.96,1.2,1.96Z"/>
    <path d="M222.43,434.36c-2.16.04-5.7,2.04-3.96,4.53l-2.88-.27,1.49-3.85-3.06-2.1,1.86-5.19,3.65-.84,1.7,1-.3,1.78.7-1.03,3.29,1.22.21,3.44-2.71,1.32ZM221.92,432.82l-4.11-4.26c-1.02,3.01-.65,7.09,4.11,4.26ZM221.93,429.41l-.5.5.53.48.5-.49-.53-.49ZM222.92,432.16l-.03-1.32c-.03-1.11-.02-.83.03,1.32Z"/>
    <path d="M249.27,420.56l-2.39-3.05c1.48.8,2.13,1.85,2.39,3.05Z"/>
    <polygon points="218.52 424.36 217.35 422.88 218.38 421.34 218.52 424.36"/>
    <path d="M244.97,499.63l-2.48,2.56-3.97-.69-4.5-4.86,2.83-35.27c5.41,1.56,10.25,4.84,12.9,10.13-.72,9.77-2.32,18.84-4.78,28.14ZM242.24,498.55l4.32-24.21c-1.02-3.54-3.67-6.29-6.8-7.87l-2.81,28.88,5.29,3.19Z"/>
    <path d="M231.29,474.6c-3.37,4.93-6.07,1.48-9.86,1.03l.71,13.42,9.22,2.48,1.49,2.63-2.74,1.11-11.73-3.39-1.18-37.16,14.63,3,1.57,2.23-1.95,1.57-10.64-2.44.72,12.86,9.76,2.65Z"/>
    <path d="M126.32,420.8l2.06-2.35,3.04,2.29-.5,3.9-15.75,1,2.44-1.82.47-1.48-1.17-.81-1.6,1.54c-2.14,3.94-5.53,4.78-9.64,3.76-2.05,1.25-4.36,1.48-5.77.46l3.13-1.41.2-1.6-1.58-.43-2.34,3.22.72-4.65,5.34.54,4.15-3.27,4.95,2.17c2.61-2.3,3.86-4.59,3.53-6.25l-6.9-8.69,4.87-2.88,10.29,12.94-7.02.64.43,3.69,3.46-2.62,3.01,2.45.16-.35ZM122.49,420.2l-.67,2.7,2.14.67.06-2.21-1.54-1.16ZM126.86,421.73l-.42.19.46,1.53,2.54-.44-2.58-1.29ZM108.48,422.15l-1.3,2.75,2.68.54.06-2.01-1.44-1.28Z"/>
    <path d="M70.84,511.1c.14-5.82,6.89-7.33,9.74-11.5,8.57-8.71,13.1-19.28,19.95-29.56-4.85,16.43-15.83,30.37-29.68,41.06Z"/>
    <path d="M282.47,424.38l3.82-27.08.36-21.06c2.85,6.74,1.74,13.74.93,21.12l-3.46,27.07-1.65-.05Z"/>
    <path d="M116.8,564.49c-14.59.05-30.16-2.08-39.77-13.72,11.66,7.83,23.71,13.32,38.63,11.31.92.47,1.24.76,1.14,2.41Z"/>
    <path d="M66.96,450.4l-6.05-16.39c-1.52-3.55-2.56-6.57-2.39-11.12l4.72,10.9c1.68,5.19,5.74,9.79,3.72,16.62Z"/>
    <polygon points="117.15 416.93 112.78 419.33 108.59 416.37 106.37 412.07 110.84 409.07 117.15 416.93"/>
    <path d="M71.57,635.9c9.85-3.47,18.87-7.99,28.79-14.28-7.2,7.26-17.03,13.18-28.79,14.28Z"/>
    <path d="M66.1,436.87l-1.6-12.45-.49-10.6c2.89,4.23,2.56,9.38,2.34,14.66.66,2.75,1.72,5.56-.25,8.39Z"/>
    <path d="M63.23,528.75c-1.48,5.26-4.19,9.43-8.53,13.34.82-4.87,3.64-9.99,8.53-13.34Z"/>
    <polygon points="104.63 420.48 101.3 418.94 103.12 416 106.78 415.32 108.81 418.42 104.63 420.48"/>
    <path d="M77.44,451.3c2.94-3.76,6.76-6.15,11.04-7.51-3.69,3.19-7.09,5.42-11.04,7.51Z"/>
    <polygon points="239.17 387.05 242.19 388.37 241.79 391.1 238.29 391 239.17 387.05"/>
    <polygon points="219.79 392.73 217.35 393.02 217.94 389.43 220.03 389.03 221.06 391.81 221.02 392.27 220.89 393.13 219.79 392.73"/>
    <polygon points="224.94 387.92 228.62 389.69 227.84 392.06 225.13 391.91 224.94 387.92"/>
    <polygon points="232.37 387.41 235.27 388.4 235.05 391.91 231.68 390.38 232.37 387.41"/>
    <polygon points="211.53 389.12 213.88 391.02 213.05 393.88 210.31 392.96 211.53 389.12"/>
    <polygon points="88.77 532.17 89.16 531.59 89.94 532.33 92.63 532.89 89.75 533.56 88.77 532.17"/>
    <path d="M191.91,272.5l-12.33-2.62-7.3,2.17,16.36.74c3.64,2.44,6.82,2.54,11.6,3.47-4.21,2.62-8.48.45-12.08-1.69l-26.18-.51,11.84-4.56c3.58-1.14,7.24-.95,10.76.22,2.99-.37,5.85.27,7.86,2.02l1.71,1.24-1.24-.07-1-.4Z"/>
    <path d="M167.9,231.06l-3.88,4.27-5.32-3.61-5.85,1.16c4.98-6.04,16.29-7.19,21.54.43l-6.48-2.25Z"/>
    <path d="M195.16,299.38c.27,5.05-4.15,5.22-7.47,6.57-8.39,1.02-18.98.19-23.82-7.94,10.84,6.16,20.35,9.87,31.29,1.37Z"/>
    <path d="M175.03,226.6l-10.66-3.39c-4.25-.9-8.43-.18-13.2.95,6.69-5.93,16.51-5.15,24.7-2.45l1.72,2.46-2.56,2.43ZM174.31,224.59l-.23-2.33-6.95-.61,7.18,2.94Z"/>
    <path d="M217.26,232.08c-5.5-3.74-9.96-4.6-15.46-3.07-2.6.75-5.93.47-6.97-3,3.86-2.7,8.27-2.02,12.67-.67,3.92,1.03,9.14,1.31,9.77,6.74ZM205.07,226.27c-3.26-1.14-5.58-1.09-8.34-.03,2.71,1.74,5.68,1.74,8.34.03Z"/>
    <path d="M116.44,248.56l4.67,12.33c-4.07-4.22-5.75-9.7-6.83-15.3.79-3.94,2.21-6.73,6.06-7.51,3.33,1.8,6.32,5.04,5.93,7.92l-6.54-5.87c-2.88,2.67-3.37,4.83-3.29,8.43Z"/>
    <path d="M207.86,237.64l-4.12,2.22-3.8-3.65-3.98-.18c4.94-4.7,13.61-2.84,17.52,3.72l-5.62-2.11Z"/>
    <path d="M192.6,256.92c-1.84,1.45-5.15,2.47-7.58,2.36-3.17-2.61-5.69-2.97-9.73-3.18,1.78-2.57,5.9-2.73,8.07.88l9.24-.06Z"/>
    <path d="M127.28,256.86l-1.38,1.62-3.14-.96c-1.02-2.32-1.24-5.15-.77-8.02l2.93-2.36,2.39,1.58-4.28,4.05c.71,2.75,1.55,3.25,4.25,4.09Z"/>
    <path d="M190.25,278.96c-5.47,2.19-11.76,1.56-16.51-2.15l16.51,2.15Z"/>
    <path d="M192.01,243.95l.54,3.02-1.13.08-1.01-1.49-.03-13.42,1.75-1.73c-.52,4.8-.6,8.46-.13,13.53Z"/>
    <path d="M188.06,285.04l-12.2-1.11c3.29-2.82,8.51-2.24,12.2,1.11Z"/>
    <path d="M192.87,259.87c1.56-2.52,2.41-4.35,3.46-7.43.39.81.83,2.87,1.06,5.08-.92,1.22-3.11,2.67-4.53,2.36Z"/>
    <polygon points="171.96 256.8 170 252.91 173.37 249.03 171.96 256.8"/>
    <path d="M161.87,259.91l6.58-5.62c-.57,3.29-3.3,5.52-6.58,5.62Z"/>
    <polygon points="201.95 266.38 197.41 259.92 198.4 259.05 202.46 264.94 201.95 266.38"/>
    <polygon points="535.43 653.41 534.43 653.41 537.36 631.4 538.17 621.42 539.15 603.47 540.11 585.41 545.16 546.89 546.5 546.41 541.32 586.32 540.6 600.37 540.12 618.07 535.43 653.41"/>
    <polygon points="633.43 653.41 632.43 653.41 626.21 633.47 622.43 615.39 618.21 586.97 619.17 586.33 624.49 618.42 633.43 653.41"/>
    <path d="M601.87,504.95l1.29-26.9-9.03,15.61-6.69-16.52-1.2,25.19-2.41,1.29-1.08-3.15c1.14-12,.31-22.9,3.41-35.44,4.11,7.79,5.51,14.34,8.39,22.22l9.66-18.35,3.23,1.27-2.43,37.08-2.15.26-1-2.56Z"/>
    <path d="M649.77,522.92c-1.93,2.29-3.61,3.3-6.13,3.95l-10.84-6.59,2.78-36.29c5.55,1.92,10.04,5.37,13.64,9.82,2.28,9.75,1.73,18.59.55,29.11ZM645.19,522.87l1.88-25.86c-2.15-3.39-4.96-6-8.54-8.02l-2.49,29.57c2.65,1.87,4.83,3.02,9.15,4.31Z"/>
    <path d="M577.79,499.9c-5.1,4.28-11.42,4.23-15.46-.61l1.24-28.36c1.74-4.4,5.19-6.7,9.92-5.78,4.42-.36,6.95,2.97,7.17,7.33l-2.87,27.43ZM574.38,498.9l2.67-29.04c-3.2-1.76-6.9-1.69-10.08.2l-1.29,28.51,8.7.32Z"/>
    <path d="M550.34,505.13l-5.63-.37-2.83-5.34,1.01-24.09c.54-4.11,3.1-6.24,6.99-7.92l6.54.24,2.64,5.65-1.69,25.85c-1.56,3.07-3.7,4.78-7.04,5.97ZM554.19,499.03l.9-28.39-8.8,2.8-1.05,28.05,8.95-2.45Z"/>
    <path d="M615.61,494.73l-1.27,11.77,12.84,6.06,1.38,1.53-1.44,2.66-16-7.89,2.82-35.65c5.95,2.06,13.94,3.53,16.88,10.73l-14.4-6.49-.68,14c3.42,1.12,8.15.16,9.2,6.26l-9.35-2.96Z"/>
    <path d="M539.56,498.4c-.74,6.71-3.56,12.96-10.69,15.95l-2.9-33.13,7.17-6.48,4.37.92,1.72,3.28.33,19.46ZM536.2,502.18l-.32-23.23c-3.31-.32-5.71,1.86-6.52,4.32l1.93,25.83c2.25-2.28,3.62-4.38,4.91-6.92Z"/>
    <path d="M527.37,423.35l1.07-.95,1.06-.56-1.24-2.4-.69-3.33,4.16-2.02.2-.36.73-3.44,4.29-1.09,4.06,11.79-4.62.39-1.58-3.33-.98,4.03-3.48.57,1.57,2,1.95-1.6,9.68-.37.36,4.6-3.58.53-19.24,2.13c.27-2.39.83-3.96,1.58-4.69h4.16s.37-.44.37-.44l.17-1.45ZM533.09,414.37l-.32,1.2.32-1.2ZM533.93,416.41l-.5.5.5.5.5-.5-.5-.5ZM537.93,424.42l-.02.65v.68l.02.65.02-.65v-.68l-.02-.65ZM528.12,425.53l-.52,1.77.52-1.77ZM533.93,425.42l-.02.65v.68l.02.65.02-.65v-.68l-.02-.65ZM522.93,427.41l-.5.5.5.5.5-.5-.5-.5Z"/>
    <polygon points="528.26 419.44 528.44 422.4 527.37 423.35 523.52 423.4 525.09 419.58 528.26 419.44"/>
    <path d="M625.61,420.62l-2.24-1.11,2.24,1.11Z"/>
    <path d="M660.78,432.59l-4.77,6.09,1.28-4.53c1.68-2.48,2.52-6.03,1.75-8.27l-3.14.8-.17,3.18-2.45,1.8,1.07-2.47-2.99-3.43,8.89-1.65.53,8.48Z"/>
    <path d="M615.45,444.6l.18-4.05-.18,4.05Z"/>
    <path d="M643.63,447.29l-1.97,1.62,1.97-1.62Z"/>
    <polygon points="643.14 431.02 642.25 433.87 643.55 434.54 644.09 435.5 640.39 435.31 639.45 432.53 641.49 431.99 641.03 430.39 639.42 430.41 642.43 429.67 643.14 431.02"/>
    <path d="M640.39,435.31c.09-.07.02.38.23.8l-2.76,1.43-.06,1.54-.23,6.21,3.61.59c-3.73,2.03-10.67-.01-10.63-4.6l4.58,2.96,1.38-3.51-3.36-1.34-3.94,2.14-.28-8.27c-1.79,2.8-1.97,6.45.02,9.49l2.74,4c-3.99-1.71-6.9-5.35-5.27-9.63h-1.67s-.86-1.64-.86-1.64l2.22-.35-1.35-1.9,4.51-1.49-.56-2.85,3.52-1.64c-.2-.84.22.9.37,1.52l-1.43,1.79-.4,8.1c1.46-3.93,6.28-5.1,9.63-3.35ZM636.52,436.81l-1.57-.59-1.58,2.03,2.54-.77.62-.66ZM636.99,437.28l-.61.65.5.57.59-.59-.47-.63Z"/>
    <polygon points="645.37 450.44 646.31 449.29 647.7 449.85 647.41 450.97 648.71 451.35 650.57 453.63 647.33 452.12 646.71 451.16 645.37 450.44"/>
    <path d="M618.46,446.71l-3.01-2.11,3.77-6.08,2.36,3.28.36.6.5,1.5.5.5.48.54,1.54.84c-1.93-.29-2.49-.22-.05,1.16l-1.98-1.52-.48-.51-.5-.5-.5-1.5-.52-.89-3.34.11.89,4.58Z"/>
    <path d="M641.17,445.89l1.02-1.34-1.02,1.34Z"/>
    <polygon points="639.45 432.53 637.08 434.06 639.42 430.41 639.45 432.53"/>
    <polygon points="629.63 426.87 625.4 427.26 623.44 424.31 625.61 420.62 627.59 421.48 624.88 424.88 629.63 426.87"/>
    <path d="M648.48,455.36l-.61,3.58c.29,0-1.5-.02-2.25-.03l-.58-1.55-.58-3.37-1.38-.82,1.67-.51.52.2,3.22,2.5Z"/>
    <path d="M618.66,434.52l.73-1.14-.73,1.14Z"/>
    <path d="M619.39,433.38l1.05-.98-1.05.98Z"/>
    <path d="M642.39,455.47c-6.17-2.48-13.07-2.97-19.57-.91l-1.8-3.32-3.68.61-3.03-.83-.25-2.47,4.4-1.82,5.25.73-7.92,2.79,12.24-.95-3.71,2.9c6.43-1.31,13.1-.82,18.06,3.27Z"/>
    <path d="M651.22,457.66l2.59.3.22-1.9-2.78-1.64,2.43-7.28-5.98,2.7-.26-1.07,4.83-3.31-3.93-1.56,2.84-1.4-1.05-3.89-3.25,5.7.04-2.82.54-5.6c4.61.21,5.79,5.01,5.04,9.07l2.77,3.12-.33,5.53c1.59-2.79,2.27-7.15,2.09-10.34-.84-1.93-1.32-3.6-1-4.61l3.22,5.96-.37-5.97,5.91-5.38-2.43-2,1.6-1.11,2.17,1.37c-1.19,3.38-2.99,5.76-5.61,7.85l.76,4.94-2.85,3.22c-.1,3.25-1.31,6.08-3.51,7.44l1.06,4-3.47.19-1.27-1.54Z"/>
    <path d="M645.58,445.17l1.29-.86-1.29.86Z"/>
    <path d="M615.47,432.61l.75-1.05-.75,1.05Z"/>
    <path d="M616.22,431.56c-1.51-3.23-2.23-5.77-.85-8.31l1.24,5.62.92,1.76-1.31.93Z"/>
    <path d="M643.46,456.37l-1.07-.91,1.07.91Z"/>
    <path d="M643.84,436.97l-3.22-.86,3.22.86Z"/>
    <polygon points="620.33 428.35 615.36 423.25 617.34 422.51 618.73 424.25 621.25 419.41 620.33 428.35"/>
    <polygon points="641.65 448.91 641.16 451.35 630.05 449.11 631.94 447.81 631.69 446.75 641.65 448.91"/>
    <path d="M651.22,457.66l-2.74-2.3,2.74,2.3Z"/>
    <path d="M645.03,457.36l-1.58-.99,1.58.99Z"/>
    <polygon points="643.55 434.54 643.14 431.02 644.67 432.86 643.55 434.54"/>
    <path d="M660.78,432.59l1.56-1.29-1.56,1.29Z"/>
    <path d="M653.28,431.65l-4.5.07c-1.38,1.97-2.43,6.04-1.88,9.77l-2.68.92c.71-1.84.67-4.71-.38-5.45l.26-1.47c1.04-.31,1.55-2.51,1.6-4.85-1.07-1.25-2.99-2.02-5.19-2.34-3.83.34-5.18-1.17-8.05-3.99,1.39-1.3,3.33-2.6,5.07-3.59l.83-.09-2.71-3.82,5.44-3.43,4.32.5.12,4.27c-1.78,3.87-.76,6.77,2.43,8.59,1.69,2.21,3.4,3.85,5.32,4.9ZM637.51,421.96l-1.27,2.89,1.77,2,5.27.05.58-12.04-4.02,2.32-.45,4.41-1.88.36ZM645.93,426.41l-.5.5.5.5.5-.5-.5-.5ZM646.93,429.41l-.5.5.5.5.5-.5-.5-.5Z"/>
    <path d="M644.6,446.25l.98-1.07-.98,1.07Z"/>
    <polygon points="647.44 448.78 646.31 449.29 645.37 450.44 645.82 446.98 647.97 446.32 648.06 447.35 647.44 448.78"/>
    <path d="M624.76,433.23l-.88,2.25v6.99s1.28,1.16,1.28,1.16l-.51.55-.74-.77-1.95-4.05c-.79-2.26.57-5.33,2.79-6.14Z"/>
    <path d="M643.3,443.61l.92-1.19-.92,1.19Z"/>
    <path d="M643.63,447.29l.97-1.04-.97,1.04Z"/>
    <path d="M618.66,434.52l-3.03,6.03-2.41-4.06,2.25-3.88-.99,3,4.18-1.09ZM615.93,436.41l-.5.5.5.5.5-.5-.5-.5Z"/>
    <polygon points="623.37 419.51 621.25 419.41 622.64 418.51 623.37 419.51"/>
    <path d="M632.46,424.32l-2.82,2.55,2.82-2.55Z"/>
    <path d="M642.19,444.55l1.11-.94-1.11.94Z"/>
    <polygon points="620.44 432.4 620.33 428.35 621.71 429.78 620.44 432.4"/>
    <path d="M503.78,436.8l3.42,14.94c-2.98-3.73-4.03-8.34-4.77-13.04,2.48-11.16,3.74-22.53,11.81-31.85l-10.46,29.94Z"/>
    <path d="M515.68,508.4l-.03-10.62,7.18-39.75,1.31-6.75c.27,2.92.12,6.08-.4,9.38l-6.57,37.58-1.49,10.15Z"/>
    <path d="M504.35,407.59c6.58-14.2,15.74-26.6,26.94-38.16l-26.94,38.16Z"/>
    <path d="M674.72,443.92l-2.89,16.62c1.26-13.54.27-26.13-1.17-40.35l4.06,23.73Z"/>
    <path d="M680.88,418.61l-.1-6.63c1.14-7.12,2.15-13.59,5.49-19.37l-5.39,26Z"/>
    <path d="M508.9,447.48c-1.04-7.07-1.46-15.1,4.33-21.16-2.39,6.9-3.79,13.41-4.33,21.16Z"/>
    <polygon points="651.15 410.6 648.2 406.86 651.78 405.28 653.59 407.95 651.15 410.6"/>
    <polygon points="635.45 402.02 638.2 404.52 636.33 407.09 632.88 405.8 635.45 402.02"/>
    <polygon points="643.6 403.24 646.24 405.53 644.72 408.03 640.92 406.69 643.6 403.24"/>
    <path d="M662.87,408.96c-2.45,1.48-3.38,1.97-5.99,2.44l1.91-4.65,4.08,2.22Z"/>
    <polygon points="627.72 401 629.95 403.76 628.71 406.29 625.49 404.08 627.72 401"/>
    <path d="M524.73,392.26l17.78-25.82c-4.33,9.51-10.1,18.23-17.78,25.82Z"/>
    <path d="M612.24,291.14c-2.19.96-4.33,1.52-6.74,1.84-9.94,0-19.46-.04-27.56-5.51l.39,4.11-3.91,3.13c-2.24-4.52-1.8-8.84,1.12-12.23l13.94-3.88,5.65,2.68c4.16-2.91,7.76-1.11,11.17,1.04l7.64,3.31c2.56,2.09,4.11,3.83,4.85,6.2-.6,3.55-1.2,5.74-4.52,7.73l-2.03-8.42ZM593.8,286.39l1.61-3.09-2.06,1.6.45,1.48ZM583.71,284.91l-1.44,2.99,1.68.61.61-1.58-.84-2.01ZM604.31,291.16l-7.07-3.48-11.12,1.21,18.19,2.27ZM604.7,288.35l1.14,3.13,1.72-.51-.99-2.16-1.86-.46Z"/>
    <path d="M624.71,243.57l-3.45.26c3.32,1.48,8.04.67,8.25,5.97l-5.17-2.99-3.54,4.08c-2-.89-2.72-1.43-4.82-3.98l-6.15,1.07c2.31-2.46,5.15-3.46,8.56-4.57l-6.47-.17,3.38-2.22-7.74-1.08c1.3-3.36,3.04-4.27,5.4-4.16l12.56.39c4.62.59,9.39,2.79,11.46,7.28-5.87-1.61-10.07-2.67-15.69-3.05l4.4,2.42,1.58.67-1.68,1.09-.87-1.01ZM619.93,246.41l-.5.5.5.5.5-.5-.5-.5Z"/>
    <path d="M602.45,301.97l-8.69,2.52-7.61-3.82,2.07-5.61,13.49,1.64-3.1,2.02,3.84,3.26ZM591.93,297.41l-.5.5.5.5.5-.5-.5-.5Z"/>
    <path d="M602.87,274.4l3.89.58.35-4.84,2.02,4.82c-.92,1.22-2.63,2.23-4.49,2.36-3.28.22-4.86.56-7.85,1.64-2.22,1.02-5.42-.73-7.08-2.72l-5.12-1.71c-.91-2.4-1.03-4.49,1.31-6.66l.21,4.87c2.32.73,4.6,1.66,6.96,3.06.86,1.62,3.61,1.47,4.68-.18l5.12-1.22Z"/>
    <path d="M581.06,240.4c3.54,2.05,5.17,3.12,6.86,5.75l-4.49-2.38-4.62,4.21c-1.77-1.25-2.24-2.51-2.89-5.21l-6.44,1.74,1.44-2.85,1.97-.17.52-1.06,7.64-.02Z"/>
    <path d="M581.06,240.4c-1.5-1.05-5.06-1.12-7.64.02l-2.49,1.23c-.85-1-.75-.79-.87-2.3l9.72-1.68c-4.61-1.91-9.45-1.79-14.84-.48,1.5-5.42,6.46-6.35,10.74-5.27l13.1,3.18,1.38,2.97-3.68.84-2.53-.13.59,1.08,1.15.85-1.69.57-.3-.84-2.62-.04Z"/>
    <path d="M591.14,260.36l1.78-19.16c2.86,5.64,1.4,12.54-1.78,19.16Z"/>
    <path d="M617.41,255.6c-2.71-1.08-5.02-2.29-7.24-3.79,3.35-.25,5.78.97,7.24,3.79Z"/>
    <path d="M587.28,248.31c-1.06,2.42-3.19,3.55-6.13,2.48l6.13-2.48Z"/>
    <path d="M580.72,351.35c.46,2.7,1.15,5.16-.59,7.87l-2.7-19.1c2.16,3.64,2.77,7.03,3.29,11.23Z"/>
    <path d="M594.39,364.36l8.86-12.09c-.32,4.53-2.69,11.08-8.86,12.09Z"/>
    <path d="M307.57,189.62l-13.59-4.2-9,4.06c1.93-5.72,7.87-7.44,13.24-6.06l10.54,2.46.6,1.98-1.79,1.76Z"/>
    <path d="M302.31,194.34l-3.39,4-5.01-3.34c-.94.58-3.88,1.9-5.18,1.88,4.75-7.12,15.14-6.8,19.75-.57l-6.17-1.97Z"/>
    <path d="M345.6,189.27l-7.44-2.95-11.26,3.83-1.92-3.42,14.52-3.19c3.01,1.03,5.48,2.06,6.1,5.73Z"/>
    <path d="M337.44,195.17l-3.86,3.44-2.94-3.12-4.53.43c3.39-5.28,12.03-5.88,16.51.25l-5.19-1Z"/>
    <path d="M327.09,213.23c-1.78,5.26-8.93,5.15-13.24,2.53l-2.49.26-1.18-2.35,3.17-.84c4.27,3.77,7.23,2.34,13.74.4Z"/>
    <path d="M325,207.44c-2.7-3.54-4.01-8.55-2.27-14.62l2.27,14.62Z"/>
    <path d="M308.76,216.52l-2.81-2.57c.57-2.28,1.11-3.51,2.71-5.05l.09,7.62Z"/>
    <path d="M327.91,216.71l.8-6.6,2.17,2.97c-.54,1.14-.95,1.75-2.97,3.63Z"/>
    <path d="M301.36,200.01l5.25-2.38c-.88,2.5-3.26,3.19-5.25,2.38Z"/>
    <polygon points="328.44 198.39 330.44 198.8 331.43 199.98 329.88 200.48 328.44 198.39"/>
    <path d="M307.62,242.23c-4.45-.84-7.07-1.94-9.35-4.34-1.44-3.64-1.58-7.39-.15-10.41l8.4-1.22c3.6-.78,7.04-1.07,11.07-.58l-8.48,2.54c6.73.48,12.16.5,18.73-.87l-8.71-1.58c2.59-1.23,5.24-1.25,8.61-1.14l8.1,2.15c2.3,7.37-1.28,12.97-8.45,14.91l-4.56-4.59-9.4.04c-1.44,2.44-3.18,3.95-5.81,5.11ZM310.61,234.79l14.28-.86,2.13.95-2.72,2.2,4.55,1.56,4.09-2.96c1.33-2.45,1.76-5.87.52-7.98-5.11,2.18-9.54,2.99-15.05,3.23l-18.5-1.64c-1.17,2.77-.2,6.91,2.27,8.94,2.88,1.33,5.95,1.27,8.93.05l-.5-3.5Z"/>
    <path d="M798.43,139.41v3.98s-11.67-6.15-11.67-6.15l-2.98,1.38-2.03-3.37-5.78,5.08c-1.11,1.26-2.56,1.79-4.82,1.6l-3.56,6.02,10.06,1.17,10.09,10.02,10.68-.74v3s-12.1.63-12.1.63l-8.4-9.3c-6.62-2.23-13.89-1.61-20.56.7l-9.17,2.67c17.58,2.84,33.71,11.1,46.77,23.69l3.46,2.61v5c-9.57-10.5-21.32-18.64-35.02-24-8.31-3.63-16.69-4.66-26.76-4.74,1.77-4.44,6.66-4.29,10.72-5.39l18.91-4.79-1.1-3.69,4.61-4.95,7.58-3.79,3.51-4,3.46,3.13,3.52-.94,2.43,2.2,8.15,2.97Z"/>
    <path d="M798.43,257.41c-2.23,1.31-4.02,4.08-3.98,6.92l3.98-4.92v17.17s-3.83.29-3.83.29l3.82,9.54v4s-3.17-2.89-3.17-2.89c-3.85-7.51-4.62-15.79-3.61-23.66l-5.58-.55-1.76-5.63,6.32,4.29,6.37-9.92,1.44-2.64v8Z"/>
    <path d="M798.43,309.41v1l-8.15,6.06c-2.61-3.82-5.12-8.79-6.85-13.1l-11.12-8.06c.99-4.59,2.45-7.1,5.27-9.39l.63-.39,2.99.54.73,4.34c-.62,4.99.41,9.37,3.8,12.48l3.89,10.42,8.79-3.91ZM779.42,286.75l-.89.19c-.26,3.73-.53,7.55,1.39,11.73.48-3.99.25-8.41-.51-11.92ZM777.16,296.37l-.62-7.53-2.39,4.7,3.01,2.82Z"/>
    <polygon points="798.43 383.41 798.43 385.41 796.74 386.42 796.35 383.79 798.43 383.41"/>
    <path d="M778.7,396.67l.69-1.28-.69,1.28Z"/>
    <polygon points="774.43 401.38 771.56 405.43 771.33 402.66 772.42 401.41 774.43 401.38"/>
    <path d="M762.36,407.28l.02-4.92c.88,1.02.91,3.87-.02,4.92Z"/>
    <polygon points="759.31 410.28 762.36 407.28 761.96 409.55 759.31 410.28"/>
    <polygon points="784.07 392.33 783.98 389.91 781.21 392.23 778.35 391.35 785.57 388.94 784.07 392.33"/>
    <polygon points="777.36 401.68 774.43 401.38 774.46 400.45 775.47 399.45 776.51 399.42 777.36 401.68"/>
    <polygon points="759.31 410.28 758.45 411.92 759.18 412.27 760.63 415.41 757.26 416.36 758.42 412.9 757.66 412.59 756.08 410.13 757.33 408.62 757.85 410.42 759.31 410.28"/>
    <polygon points="758.78 418.58 760.63 415.41 761.23 418.63 758.78 418.58"/>
    <path d="M757.55,417.21l-.29-.85.29.85Z"/>
    <path d="M758.78,418.58l-1.22-1.37,1.22,1.37Z"/>
    <polygon points="779.42 393.41 777.32 392.93 778.35 391.35 779.42 393.41"/>
    <path d="M798.43,400.41v5l-4.14,7.42.64.58.5,1.5.56.43,1.73,1.58-1.9,2.64-.48-3.64-.41-.51-.5-1.5-.9-.66,1.63-4.18c1.3-2.74,2.17-5.53,2.59-8.05l-.83-.64-4.12.12.52,1.46,1.18.83-2.08,3.14-6.59,1.01c.96,1.36,2.26,2.75,3.69,4l.62.04.3.93.76.53-.36,5.18,3.03,3.02-2.33,3.66,2.53-.44.81-4.19c1.42,1.31,1.11,4.4-.6,5.41l-1.62,2.48.45.49,1,1.93-2.65,1.48-3.27-2.4-.4-.43-2.54,2.69-10.66-5.74-.66-.29-11.55,2.37,1.02-2.41,2,.72,8.94-1.56.76.56,10.03,4.22-1.95-2.16-.63-.16-2.53-3.23,3.67,1.98.43.4,4.64,1.64.26.68,3.32.95-.39-.9-3.3-2.23,4.08-6.73-7.58,3.06,2.81,3.02c-2.97.37-4.43-1.94-3.61-3.87,4.76-1.28,6.27-4.73,6.03-8.7l-.45-.5-.2-.65-1.05-.12c-3.48-1.21-7.88-.53-10.85,1.08-2.01-.22-3.08-.15-6.4.19l4.37,5.6,1.44-5.16.5,6.2c3.88-.8,6.28-3.69,7.06-8.65,2.65,3.6-1.12,7.03-4.61,8.81-3.3,1.3-6.81-.39-9.59-3.78-.37-3.8-.36-7.59.97-10.51l.59,3.62,5.56-.22.37-4.97,4.48-.24,1.4,5.92,1.36-6.23,1.07-.68-4.31.37-4.72-1.33,5.78-.73.93-8.62.51,7.38c2.73,2.1,2.97,2.37,4.9,5.49l4.1-1.94-1.03-.82c-1.88-.58-1.27-3.21.81-3.81l4.11,1.04.47.75h.49ZM786.67,404.2l.47-.56-.47.56ZM779.93,406.47q0-1.22,0,0,0,2.34,0,0ZM781.93,408.41l-.5.5.5.5.5-.5-.5-.5ZM778.93,409.41l-.5.5.5.56.5-.56-.5-.5ZM773.93,410.41l-.5.5.5.5.5-.5-.5-.5Z"/>
    <polygon points="779.4 395.39 779.42 393.41 780.58 393.98 779.4 395.39"/>
    <path d="M778.7,396.67l-2.19,2.76-1.04.03-1.02,1-2.04.96-1.09,1.25-4.84-1.31.41-5.42-1.59-.72c-1.32,1.29-2.36,4.48-2.93,7.15l-1.54-1.95-1.23.45.74,5.51-3.02,2.25,1.58-4.07c-.09-2.76.09-5.04.5-7.11l2.5,2.11.63-2,1.38-3.2,2.52.51.52.47,2.65.58-1.65,2.07.23,3.26,2.95-.9c2.67-2.01,4.85-3.28,7.57-3.66Z"/>
    <path d="M798.43,520.41v3s-1.08-2.46-1.08-2.46l-.43-.53-.5-2.5-.51-.5-.5-2.5-.87-.4-11.27-33.67c-.94,4.59-1.61,8.1-3.84,11.94-5.72-.23-10.59-2.76-14.3-6.26l2.75-35.26,7.53,4.32c-1.34-4-2.57-7.25-2.71-11.39l5.37,13.81c3.24,3.91,5.21,8.77,4.68,14.26l7.53,26.26,5.45,15.28.22.6.49,2.5.51.5.5,2.5.49.5h.5ZM776.95,488.84c2.16-9.22,1.82-17.86.15-26.74l-6.03-5.13-2.48,28.14,8.36,3.73Z"/>
    <polygon points="798.43 303.43 798.43 304.41 796.89 304.24 796.89 303.55 798.43 303.43"/>
    <path d="M798.43,414.41l-.07-.99.07.99Z"/>
    <path d="M758.59,462.64c-4.4,2.03-5.5.45-8.99-1.33l-1.21,11.97,9.94,5.14,1.38,1.66-1.15,2.78-13.69-7.59,4.23-34.84,14.08,7.35.42,2.15-2.12,1.14-10.01-5.51-1.15,12.41,8.26,4.68Z"/>
    <path d="M746.56,577.41l.28-8.18.78,7.66.18.57,3.08,17.35,1.65,9.08.43.52.5,3.5.47.5.5,2.5.63.48,1.59,8.48.36.53.48,4.5.46.5.5,3.5.67.51-.09,4.14-.75-3.62-.44-.51-.49-3.5-.55-.49-.48-4.51-.54-.48-1.61-8.48-.27-.55-.5-2.5-.55-.49-.49-3.5-.64-.48c-2.34-8.59-4.04-17.63-4.61-26.44l-.55-.58Z"/>
    <polygon points="766.59 410.5 764.45 410.4 766.38 408.29 766.59 410.5"/>
    <path d="M766.76,411.22l-.17-.72.97-1.53-1.17-.68,2.55-2.14,1.12,12.85.96.34c3.57,2.53,7.41,3.95,11.31,1.43-2.13,2.88-7.02,3.16-10.27,2.43l-1.37-3.39-1.09-.26-2.45-5.87-.38-2.47Z"/>
    <path d="M766.76,411.22l-.68,6.2-1.06.73c-.19,1.11.88,2.5,2.24,3.77l.73.45.48,1.64-2.07.23-8.91.96-.81-.81.04-3.05,3.69.33-3.08,2.12.58.31,9.48-1.14-.45-.73-5.23-1.18c1.36-1.46,1.8-3.26,1.22-4.98-.96-2.4-.32-4.86,1.5-5.67l-.73,3.62,3.04-2.8ZM765.74,416.69l-1.92-2.88.93,3.64.99-.77Z"/>
    <polygon points="771.34 378.18 773.94 379.96 772.98 382.54 770.17 381.95 771.34 378.18"/>
    <polygon points="781.2 380.59 778.83 383.51 776.59 381.16 778.36 379.45 781.2 380.59"/>
    <path d="M783.68,420.25c2.19-2.95,3.15-4.6,4.76-7.91l-.58,5.43-4.18,2.48Z"/>
    <polygon points="791.46 380.73 793.64 381.95 793.04 384.71 790.12 383.97 791.46 380.73"/>
    <polygon points="785.78 379.9 787.72 381.88 785.82 383.88 783.59 382.37 785.78 379.9"/>
    <rect x="766.57" y="418.56" width=".71" height=".71" transform="translate(-71.59 664.99) rotate(-45)"/>
    <path d="M718.98,224.39l1.3-1.47-1.12-1.23c.12-.13-.27.3-1.38,1.58l-3.46,1.01-2.3-3.69-5.3,2.06c1.11-3.53,3.29-4.03,7-4.79l-5.54-.8c4.15-2.45,8.84-1.08,12.4,2.24l1.3-.45,1.35-3.88c.36,2.32.3,5.13,0,7.83l-7.71,17.91,5.88,6.44c-4.06.84-8.46-2.71-8.13-7.6l5.77-12.93c-2.91.53-5.11.75-7,.52l6.94-2.77Z"/>
    <path d="M739.52,215.42c-2.83.25-4.46.22-6.57-2.28,2.57-1.65,4.36-2.41,7.12-3.29,9.31-1.94,19.54-.16,24.61,8.86-8.12-5.09-16.01-7.18-25.15-3.28Z"/>
    <path d="M742.25,264.26c-1.69.76-4.31,1-6.76.15-7.2-1.59-13.6-2.01-21.11-2.27l1.84-1.86,13.93.25,12.09,3.72Z"/>
    <path d="M789.48,292.93l-6.59,6.35c.58-7.12,1.45-10.38,4.74-16.45l4.92,4.51c-.47,2.08-1.17,3.63-2.29,5.27l-.78.32ZM789.74,291.93l.23-5.93c-3.75,2.2-4.82,4.87-4.3,8.66l2.61-6.75.76,4.51.71-.49Z"/>
    <path d="M754.07,223.98l-4.38,2.56c-1.26-1.22-2.11-2.29-3.69-4.58l-5.8.03c5.55-4.17,13.41-2.78,18.86,2.89l-4.98-.9Z"/>
    <path d="M769.54,310.87l-2.95-4.87,4.55,1.41-.28,2.51.15.54c2.09,1.06,4.1-.34,5.93-3.34,4.05,1.78,7.22,6.38,7.35,11.42l-3.93-6.91-9.35,11.08,2.84,1.42c-2.42.62-5.25.9-7.56.56l6.84-6.48,6.07-7.53-1.91-1.3-3.43,3.47-3.86-1.58-.47-.41Z"/>
    <path d="M763.51,304.94l-2.62,4.05-.87-8.65c2.89-4.31,6.08-8.52,11.79-10l-9.62,9.95,1.31,4.65Z"/>
    <path d="M760.89,308.99l2.13,3.19.49-7.24,1.18,4.77.14,11.97c-1.23-1.81-1.48-5.12-1.5-8.23l-3.18-2.44.74-2.01Z"/>
    <path d="M789.53,280.89c-.78-.82-1.71-3.07-2.65-5.69l-6.16,9.53c.55-3.81,1.8-6.83,3.37-10.53l3.46-1.65,2.85,2.15-1.44,2.17.57,4.03Z"/>
    <path d="M744.29,317.03c-5.04-1.4-8.86-7.19-8.25-13.48l8.25,13.48Z"/>
    <path d="M791.53,311.85l1.53-10.58,2.06-9.11c.53,7.34-1.17,13.48-3.59,19.68Z"/>
    <path d="M731.72,267.88c-4.84,3.09-10.71,1.92-14.58-1.2l14.58,1.2Z"/>
    <path d="M731.51,245.44c-2.15.71-5.14-.02-8.5-1.18,1.86-2.92,6.39-2.72,8.5,1.18Z"/>
    <path d="M751.91,218.31c-4.04.02-7.88.21-12.32,1.57,3.14-3.35,8.41-4.68,12.81-1.87l.53.4,1.5.5.5.5,1.5.5.78.74-.55.5-.73-.73-1.5-.5-.5-.5-1.5-.5-.52-.6Z"/>
    <path d="M748.51,229.75c-2.88,1.03-6.45-.33-8.35-4.2l8.35,4.2Z"/>
    <path d="M727.06,257.63c-2.38,3.23-5.67,2.57-7.71-.06l7.71.06Z"/>
    <path d="M732.67,247.81l1.56-3.22-.56-4.13,2.13,2.48c-.37,2.47-.58,3.49-3.13,4.88Z"/>
    <path d="M724.9,255.46l-1.4-5.11c2.02,1.06,2.39,3.42,1.4,5.11Z"/>
    <polygon points="722.39 270.42 724.5 270.79 723.98 272.48 722.39 270.42"/>
    <polygon points="772.93 253.42 772.94 254.07 772.94 254.75 772.93 255.4 772.91 254.75 772.91 254.07 772.93 253.42"/>
    <polygon points="732.09 253.89 732.76 253.89 733.42 253.91 732.76 253.93 732.09 253.93 731.44 253.91 732.09 253.89"/>
    <polygon points="715.09 253.89 715.76 253.89 716.42 253.91 715.76 253.93 715.09 253.93 714.44 253.91 715.09 253.89"/>
    <polygon points="729.09 251.89 729.76 251.89 730.42 251.91 729.76 251.93 729.09 251.93 728.44 251.91 729.09 251.89"/>
    <polygon points="739.93 301.42 739.94 302.07 739.94 302.75 739.93 303.4 739.91 302.75 739.91 302.07 739.93 301.42"/>
    <polygon points="755.93 279.42 755.94 280.07 755.94 280.75 755.93 281.4 755.91 280.75 755.91 280.07 755.93 279.42"/>
    <polygon points="758.93 275.42 758.94 276.07 758.94 276.75 758.93 277.4 758.91 276.75 758.91 276.07 758.93 275.42"/>
    <polygon points="779.93 243.42 779.94 244.07 779.94 244.75 779.93 245.4 779.91 244.75 779.91 244.07 779.93 243.42"/>
    <polygon points="778.93 260.42 778.94 261.07 778.94 261.75 778.93 262.4 778.91 261.75 778.91 261.07 778.93 260.42"/>
    <polygon points="711.93 262.42 711.94 263.07 711.94 263.75 711.93 264.4 711.91 263.75 711.91 263.07 711.93 262.42"/>
    <polygon points="726.09 271.89 726.76 271.89 727.42 271.91 726.76 271.93 726.09 271.93 725.44 271.91 726.09 271.89"/>
    <polygon points="773.93 262.42 773.94 263.07 773.94 263.75 773.93 264.4 773.91 263.75 773.91 263.07 773.93 262.42"/>
    <polygon points="760.93 263.42 760.94 264.07 760.94 264.75 760.93 265.4 760.91 264.75 760.91 264.07 760.93 263.42"/>
    <rect x="756.57" y="266.56" width=".71" height=".71" transform="translate(32.97 613.4) rotate(-45)"/>
    <rect x="754.57" y="268.56" width=".71" height=".71" transform="translate(30.97 612.58) rotate(-45)"/>
    <rect x="757.57" y="269.56" width=".71" height=".71" transform="translate(31.14 614.99) rotate(-45)"/>
    <rect x="748.57" y="270.56" width=".71" height=".71" transform="translate(27.79 608.92) rotate(-45)"/>
    <rect x="767.57" y="270.56" width=".71" height=".71" transform="translate(33.36 622.35) rotate(-45)"/>
    <rect x="762.57" y="262.56" width=".71" height=".71" transform="translate(37.55 616.47) rotate(-45)"/>
    <rect x="745.57" y="262.56" width=".71" height=".71" transform="translate(32.57 604.45) rotate(-45)"/>
    <rect x="761.57" y="272.56" width=".71" height=".71" transform="translate(30.19 618.7) rotate(-45)"/>
    <rect x="766.57" y="260.56" width=".71" height=".71" transform="translate(40.14 618.72) rotate(-45)"/>
    <rect x="781.57" y="253.56" width=".71" height=".71" transform="translate(49.48 627.27) rotate(-45)"/>
    <rect x="776.57" y="259.56" width=".71" height=".71" transform="translate(43.77 625.5) rotate(-45)"/>
    <rect x="744.57" y="274.56" width=".71" height=".71" transform="translate(23.79 607.26) rotate(-45)"/>
    <rect x="765.57" y="276.56" width=".71" height=".71" transform="translate(28.53 622.7) rotate(-45)"/>
    <rect x="742.57" y="259.56" width=".71" height=".71" transform="translate(33.81 601.45) rotate(-45)"/>
    <rect x="760.57" y="278.56" width=".71" height=".71" transform="translate(25.65 619.75) rotate(-45)"/>
    <polygon points="717.93 281.41 718.43 281.91 717.93 282.41 716.84 281.91 717.93 281.41"/>
    <rect x="738.57" y="282.56" width=".71" height=".71" transform="translate(16.38 605.36) rotate(-45)"/>
    <rect x="746.57" y="283.56" width=".71" height=".71" transform="translate(18.02 611.31) rotate(-45)"/>
    <rect x="768.57" y="283.56" width=".71" height=".71" transform="translate(24.46 626.87) rotate(-45)"/>
    <rect x="773.57" y="283.56" width=".71" height=".71" transform="translate(25.92 630.4) rotate(-45)"/>
    <rect x="724.57" y="284.56" width=".71" height=".71" transform="translate(10.86 596.05) rotate(-45)"/>
    <rect x="735.57" y="285.56" width=".71" height=".71" transform="translate(13.38 604.12) rotate(-45)"/>
    <rect x="726.57" y="286.56" width=".71" height=".71" transform="translate(10.04 598.05) rotate(-45)"/>
    <rect x="732.57" y="287.56" width=".71" height=".71" transform="translate(11.09 602.58) rotate(-45)"/>
    <rect x="742.57" y="287.56" width=".71" height=".71" transform="translate(14.02 609.66) rotate(-45)"/>
    <rect x="739.57" y="288.56" width=".71" height=".71" transform="translate(12.43 607.83) rotate(-45)"/>
    <rect x="768.57" y="288.56" width=".71" height=".71" transform="translate(20.92 628.33) rotate(-45)"/>
    <rect x="762.57" y="290.56" width=".71" height=".71" transform="translate(17.75 624.68) rotate(-45)"/>
    <rect x="754.57" y="292.56" width=".71" height=".71" transform="translate(13.99 619.6) rotate(-45)"/>
    <rect x="748.57" y="293.56" width=".71" height=".71" transform="translate(11.53 615.66) rotate(-45)"/>
    <rect x="757.57" y="293.56" width=".71" height=".71" transform="translate(14.17 622.02) rotate(-45)"/>
    <rect x="752.57" y="295.56" width=".71" height=".71" transform="translate(11.29 619.07) rotate(-45)"/>
    <rect x="776.57" y="248.56" width=".71" height=".71" transform="translate(51.55 622.27) rotate(-45)"/>
    <rect x="719.57" y="250.56" width=".71" height=".71" transform="translate(33.44 582.55) rotate(-45)"/>
    <rect x="743.57" y="299.56" width=".71" height=".71" transform="translate(5.82 613.88) rotate(-45)"/>
    <rect x="748.57" y="299.56" width=".71" height=".71" transform="translate(7.29 617.41) rotate(-45)"/>
    <rect x="775.57" y="256.56" width=".71" height=".71" transform="translate(45.6 623.91) rotate(-45)"/>
    <rect x="736.57" y="300.56" width=".71" height=".71" transform="translate(3.07 609.22) rotate(-45)"/>
    <rect x="717.57" y="251.56" width=".71" height=".71" transform="translate(32.15 581.43) rotate(-45)"/>
    <rect x="740.57" y="256.56" width=".71" height=".71" transform="translate(35.35 599.16) rotate(-45)"/>
    <rect x="737.57" y="256.56" width=".71" height=".71" transform="translate(34.47 597.04) rotate(-45)"/>
    <path d="M488.62,172.91c-7.69.43-14.2,2.66-22.12,6.77,4.21-6.87,14.29-10.22,22.12-6.77Z"/>
    <path d="M515.46,180.78c-5.4-.8-10.38-3.22-15.66-6.9,5.43-1.17,12.12.59,15.66,6.9Z"/>
    <path d="M501.78,228.42c-3.21,1.55-6.8,4.6-10.55.34l18.14-6.52c3.79.52,7.01,1.25,7.6,5.5-5.75-2.67-9.97-2.17-15.2.68Z"/>
    <path d="M468.59,232.5c-4.41-.34-7.27.31-11.99,2.09-.29-2.47,2.68-4.82,5.71-5.55,5.92.19,10.86.6,16.53,2.85-3.4,3-6.59,2.02-10.26.61Z"/>
    <path d="M495.44,237.71l1.12-4.11c5.78-3.14,12.92-3.45,16.74,1.47l-5-.36-3.46,3.21c-1.95-.68-2.69-1.29-4.01-4.11l-4.24,2.94.41.39,4.81,2.92c-1.99.61-4.45-.28-5.83-1.73l-.55-.61Z"/>
    <path d="M472.98,237.68l-3.52,3.87-4.55-2.82-4.68,1.61c3.14-5.7,12.57-7.77,16.63-1.58l-3.88-1.08Z"/>
    <path d="M480.24,251.74l-.19-17.35c1.94,5.37,2.27,11.61.19,17.35Z"/>
    <path d="M495.76,257.35l.67-4.37-2.91-2.4c1.7-.45,3.06.23,4.83,2.79-.08,1.1-1.55,3.29-2.6,3.97Z"/>
    <path d="M493.51,279.38l-8.72.45-1.26-5.37,11.86-1.07-.99,5.28-.89.71ZM484.58,276.45l2.18,2.28.39-1.4-2.56-.87ZM492.05,277.05c1.01,1.94,1.14,1.66,1.03-.11l-1.03.11ZM488.93,277.41l-.5.5.5.5.5-.5-.5-.5Z"/>
  </g>
</svg>