<?xml version="1.0" encoding="UTF-8"?>
<svg id="Layer_1" data-name="Layer 1" xmlns="http://www.w3.org/2000/svg" viewBox="0 0 1137.06 870.57">
  <defs>
    <style>
      .cls-1 {
        fill: #02587e;
      }

      .cls-2 {
        fill: #f04b55;
      }
    </style>
  </defs>
  <path class="cls-2" d="M804.94,776.92l-6.48-7.89c-15.12-15.73-28.88-32.26-41.64-50.03-2.59-2.42-4.45-4.91-6.01-8.05l-17.55-20.5-12.02-14.9c-1.97-1.76-3.61-3.71-5.1-5.95l-9.29-9.72-14.92-16.02-6.05-5.95-9.38-9.59-6.89-7.14-32.75-37.18-25.45-30.55-12.19-15.82-5.92-7.05-17.53-21.53-33.67-37.06-16.86-19.17-8.41-10.71-4.28-5.73-7.54-9.51-10.86-14.03-12.18-14.75-6.16-7.99c-2.81-3.64-5.07-7.18-6.8-11.63,2.32-6.66,4.41-12.33,7.95-17.82l8.71-15.35c-.58-7.41,5.54-14.01,12.45-13.62l10.07,8.16,5.42,5.52,16.17,16.84,8.62,10.28,10.26,11.05c26.47,28.84,51.33,58.44,74.11,90.52l39.5,50.41,22.74,27.39,8.53,9.49,14,14.93,14.98,16.06,32.02,32.89,33.78,37.21,34.63,38.33,26.8,32.08,14.4,18.83c10.34,11.93,19.37,24.44,28.02,37.66l5.66,8.5c5.01,4.55,6.85,11.08,5.06,17.66l-16.45,19.59-7.63,8.56c-2.23,1.81-3.96,2.96-6.62,4.25-2.8-.37-4.65-1.1-7.77-2.61l-4.83-5.38c-16.67-22.52-35.21-42.92-54.64-62.98Z"/>
  <path class="cls-2" d="M728.94,845.41c-4-.57-6-1.3-7.74-3.85l-5.05-4.14-26.53-31.22-12.64-13.48-25.03-26.01-18.15-21.58-12.46-14.72-12.21-15.82-17.49-21.44-4.5-6.46-6.64-8.4-14.26-17.69-14.34-18.71-22.47-27.34-14.62-16.58c-11.75-15.27-24.11-29.29-37.7-43.01-8.56-9.37-16.24-18.45-23.37-28.68-1.94-1.75-3.59-3.75-4.94-6.08l-22.56-26.46c-8.44-9.35-15.45-19.17-22.04-29.78-3.03-3.03-4.12-7.83-4.06-11.9l13.22-18.07c4.69-5.96,9.78-11.08,16.63-14.83,6.64.67,11.81,3.96,16.55,8.34l8.63,8.31,16.03,16.98,21.61,22.38,17.8,19.02,11.34,12.85,36.97,44.88,34.74,44.21,23.87,31.18,6.56,8.44,28.73,33.11,13.49,16.56,21.27,24.75,12.96,13.99,11.92,13.05,11.19,11.8,24.37,29.54,20.15,26.13.32,12.09c-4.67,5.64-9.11,9.72-14.94,13.51l-11.3,7.7-13.33,7.41Z"/>
  <path class="cls-2" d="M588.91,833.5c-8.71,4.63-17.02,3.25-23.5-3.28l-9.17-9.69-11.96-13.99-10.22-10.89-31.14-35.68-6.06-7.07-11.03-12.88-29.39-36.55-22.71-27.24-26.27-29.69-7.01-8.02-6.52-7.55-27.12-25.79c-10.86-9.37-19.58-20.22-28.52-31.49-5.04-7.41-10.66-13.6-17.73-19.23-8.13-6.11-14.62-13.49-19.62-22.33-7.2-8.88-12.87-18.26-17.18-28.87l.11-6.7c3.61-3.98,7.41-6.56,12.44-7.9l19.48-5.46,9.19-2.83c3.34-2.46,6.87-3.92,11.34-5.05,8.2.67,14.23,5.98,18.09,13.14,9.15,12.3,18.25,23.48,28.77,34.24l27.5,30.7,19.86,21,17.39,19.52,10.2,12.95,11.62,13.31,8.05,8.97,9.77,10.21,12.26,12.74,7.61,7.43c12.82,13.57,23.86,28.05,34.41,43.35l17.5,19.61,7.77,8.21,10.26,9.77c4.93,4.84,9.21,10.09,13.17,15.82l8.34,11.67c5.99,8.88,13.09,16.59,21.03,23.91l4.82,6.19c4.25,5.4,3.69,11.28-.8,16.74-6.63,6.33-14.42,11.37-22.51,16.22-3.1,2.94-7.38,4.95-12.51,2.5Z"/>
  <path class="cls-1" d="M416.55,735.92l-15.68,2.62-29.24,2.84-21.89,3.9c-7.68.85-14.78,2.62-22.25,4.84-15.29,1.87-30.31,1.08-45.77.08l-28.9,3.29c-9.43.84-18.55.68-27.96-.19l-14.19-1.04c-19.19-2.37-37.87-5.29-56.08-11.63-7.93-4-16.52-5.31-25.08-7.21l-13.53-3.42-9.53-4.32c-5.61-1.36-10.69-3.42-15.56-6.39l-15.36-10.91c-2.3-4.94-2.89-10.49-2.85-16.21l.11-9.96-.89-58.56c5.87-4.42,13.17-4.25,18.91-.21l23.75,8.1,32.58,7.18,20.3,6.82,34.23,8.96c17.95,3.98,35.25,6.72,53.44,8.41l16.06.2,14.27,1.71,11.33.52c15.6-.71,30.61.41,45.95,2.79l9.58-.63,12.38-1.73c2.94,2.33,4.8,4.04,6.59,6.86l21.84,28.19,14.62,15.3,6.92,7.05c3.01,3.82,4.34,7.32,1.86,12.73Z"/>
  <path class="cls-1" d="M921.96,322.13c-17.11-4.2-33.37-7.81-50.54-9.97l-20.03-2.8-46.82-4.02c-3.9.08-7.45-.16-11.19-.93l-42.78.02-12.16,1.17-18.9,1.11-11.47.58-8.4.48-11.2.87-15.94.96-21.82,2c-10.95,1.86-21.67,3.95-32.12,7.88l-23.81,5c-7.82,4.94-17.61,5.96-25.84,1.55l-22.86-21.07-10.83-10.12-5.8-5.26c-5.51-5.31-10.78-10.67-14.9-17.16-1.12-9.86,5.8-17.39,15.12-19.07l29.09-7.98,76.75-17.13,64.94-10.86,10.18-.56,15.93-1.37,50.62.07,16.39,1.07,15.93,1.15,11.06.67,42.31,4.44,39.63,6.41c23.71,4.53,46.58,9.22,69.48,16.52l32.4,8.52,18.72,5.52,35.75,9.17c14.02,1.88,26.12,6.97,38.35,15.03,4.9,4.6,5.94,11.89,6.63,18.92l.97,16.06c1.57,16.89.84,33.2-.33,50.33-2.38,3.12-4.95,5.25-8.4,7.22-4.73-1.04-8.72-2.04-12.53-4.47l-24.05-9.84-31.66-11.45-20.87-6.15-6.16-1.83-20.24-5.73-51.44-13.36-7.14-1.58Z"/>
  <path class="cls-1" d="M932.44,497.28l-37.08-6.97-53.09-8.77-20.81-2.64-22.96-1.62-21.71-.68-27.21.56-41.03,2.26c-7.17.46-13.3-1.34-19.46-4.61l-9.11-5.89-5.86-6.19-9.99-11.13-24.78-25.04c-5.55-5.85-9.68-11.98-12.92-19.59,1.32-3.6,3.1-6.25,5.9-9.03,8.69-2.09,16.73-2.94,25.54-3.29l27.2-.69,25.57-1.38,32.78-1.03,25.99-1.13,42.64.4,58.19.85c31.07.89,60.78,4.84,91.13,11.56l31.86,7.3,55.6,16.16,6.98,3.3,20.38,8.54,7.69,4.18,17.28,8.78,3.45,9.58c1.38,9.83,3.51,19.02,6.32,28.62l3.11,40.67c.44,6.76-1.24,12.25-7.69,15.44-5.01-.02-10.24-.9-15.22-2.31l-14.42-5.79-30.78-11.16-48.55-14.28-18.22-4.16-12.18-3.18-22.95-5.03-11.6-2.62Z"/>
  <path class="cls-1" d="M1105.88,700.89c2.41,8.22,1.86,16.22-1.63,22.98-5.05,5.65-11.77,5.19-16.82.11l-7.84-4.99-8.53-5.48-16.12-9.87-15.47-7.62-40.81-15.28-16.38-5.56c-13.64-5.22-27.15-9.3-41.46-12.46l-36.62-8.05-23.45-3.7c-9.13-1.58-18.58-1.97-26.8-6.19l-20.39-8.55c-3.41-2-6.57-4.07-9.32-6.72-5.45-7.72-11.59-14.3-18.93-20.16l-14.82-15.12-14.28-14.72c-4.66-3.23-8.64-7.55-11.79-12.05-1.83-4.68-.98-7.46,2.93-10.89,5.48-2.68,12.71-3.03,19.18-1.39l22.88.2,7.17.45,12.86.62,12.87,1.17,11.11.79,18.57,2.39c3.07.82,6.19,1.35,9.45,1.49l20.97,3.04,19.02,3.87,55.05,9.84c27.1,6.85,52.96,14.48,78.57,25.33l25.07,8.92c8.33,3.24,14.59,8.14,19.61,15.77,1.46,5.77,1.78,11.83,1.45,18.15l.95,14.96.35,21.26,3.37,17.43Z"/>
  <path class="cls-2" d="M262.91,312.15c-6.2,4.31-13.81,7.25-20.63,3.73l-6.42-3.63c-16.03-10.79-30.96-22.59-45.2-35.56l-7.6-5.5c-3.66-2.7-6.85-5.75-9.61-9.43-3.24-4.6-4.19-9.47-3.6-15.31l11.25-32.68,8.73-26.31c.01-3.32.61-6.17,1.71-9.2.79-6.68,4.27-13.5,11.36-14.91,5.36,1.01,10.57,1.2,15.9.26l16.67-.43,29.28-.03,16.07-1.37,9.04.07c2.93-1.27,5.59.09,6.81,2.67,4.06,2.67,7.01,6.49,7.69,11.33l7.59,28.4,9.32,31.55,4.72,15.72-2.78,11.37c-7.48,11.29-17.66,19.8-29.04,26.85l-8.24,5.86-9.16,6.83-6.47,4.58-7.37,5.17Z"/>
  <path class="cls-1" d="M295.96,587.19c-3,1.76-6.6,2.27-10.2,2.25-4.46.75-8.67.93-13.01-.12l-28.49-3.69c-27.84-1.43-54.74-6.39-81.16-15.59l-14.46-3.6c-13.06-6.02-26.34-10.62-40.57-13.4-9.97-3.27-18.57-8.64-26.01-15.93-5.61-1.07-7.89-5.57-9.2-11.07l.41-48.25.88-21.49.82-15.19c.51-3.44,5.13-6.21,8.74-5.82,4.51,4.06,8.75,7.73,14.11,10.03,13.18,4.66,25.37,10.69,37.27,17.7l17.63,9.59,44.14,15.65,15.86,4.18c5.39,1.22,10,4.6,11.94,10.05l23.19,24.61,15.48,18.61,9.65,12.34,13.92,14.08c5.3,3.12,9.41,7.09,9.05,15.08Z"/>
  <path class="cls-2" d="M91.36,360.72c-5.13-.35-9.32-.86-13.68-1.92-5.66-1.01-10.97-3.35-14.06-8.17l-12.8-23.24-10.57-27.37-6.86-20.16-2.21-20.75-.3-15.66c-2.83-7.87.26-15.55,7.15-19.99l7.23-5.7,22.27-13.66c2.86-2.95,7.24-2.11,9.91.87,6.09.64,11.14,3.29,14.74,8.12l18.73,17.28c5.65,4.14,10.31,8.74,15.18,13.86,6.35,7.02,11.21,15.79,12.1,25.32l.29,6.56-6.59,40.13-6.75,30.05c-2.96,8.28-8.69,14.23-17.55,13.38l-16.23,1.03Z"/>
  <path class="cls-2" d="M267.49,447.87l-20.7-.76-12.87-1.07-15.73-2.27-10.88-2.95-16.7-6.16c-3.83-.84-7.26-2.38-10.6-4.37-3.71-5.83-6.41-11.18-8.79-17.51l-3.84-12.05c-3.06-7.34-.59-14.28,5.22-19.87,7.13-5.62,15.42-9.44,24.25-12.51l34.12-14.67,14.38-7.82c4.57-1.71,9.85-1.91,14.6-.83,7.55,2.69,14.12,5.95,20.09,11.1l12.79,8.22c9.05,3.19,17.04,7.62,25,12.93,4.65,2.96,8.04,7.08,9.74,12.34l-1.97,12.49-4.19,13.97-7.43,15.55c-.27,3.86-2.16,7.91-5.74,9.08-8.87,2.65-17.13,4.36-26,5.28l-14.73,1.89Z"/>
  <path class="cls-2" d="M417.43,354.51l-13.8-.1c-8.24.98-16.23,1.18-24.32.71-4.98-1.27-8.34-3.76-9.93-8.55l-2.59-12.2-4.15-26.02-5.1-34.81c-.32-8.9,1.13-16.6,4.69-24.57l11.19-9.01c16.6-9.97,31.68-21.6,45.53-35.23,4.64-5.04,12.3-4.14,16.55.88,4.93,2.71,9.04,5.97,13.05,9.97,3.36,2.67,6.33,5.59,8.85,9.06,4.56,3.64,6.92,8.53,5.64,14.32l-6.35,44.2c-3.76,15.39-8.37,29.68-15.53,43.67l-6.91,15.18c-1.66,4.68-4.93,9.27-9.07,11.65l-7.76.86Z"/>
  <path class="cls-1" d="M869.47,158.17l-46.34-4.42-29.15-1.88-51.75-2.05-8.93-.24-10.47.25-9.43.26-28.79,1.27-34.07,3.1-39.96,3.79-25.06,2-54.91,10.01c-5.96.52-11.15,1.75-17.27,3.55-4.88-1.96-8.45-6.91-9.64-12.27l-10.71-21.26-9.31-19.89-2.99-14.69c2.76-4.28,5.9-7.52,10.22-10,13.82-7.25,27.85-12.57,43.47-14.26l14.91-3.21,19.44-3.63,56.59-5.34,9.32-.91,35.79-2.14,12.12-.68,15.91-.82,17.81-.73c2.93.33,5.95.44,8.94.02l21.52.11,20.66-.02,10.3-.47,10.5.39,48.8.75,17.18,1.24c26.38,1.06,52.04,4.79,78.19,9.36l24.13,4.95,28.89,5.18,39.19,9.62,9.25,2.88c19.4,5.74,38.22,12.17,56.64,19.89,4.18,3.54,7.01,6.28,10.31,10.62l-3.38,19.99-.5,19.18c.34,7.83,1.2,15.27,3.21,22.79l.81,10.6c-1.03,4.55-3.54,8.27-6.75,10.08-4.44,2.18-8.76,1.39-13.35-.21-16.87-7.6-34.04-13.03-52.24-16.6l-11.87-3.34-37.25-10.52-12.48-2.72-29.67-7.31-37.1-7.72-30.73-4.53Z"/>
  <path class="cls-2" d="M141.4,151.97c-11.23.98-21.77.36-32.29-1.07-8.15.34-15.66-.6-23.43-3.16-3.45-2.81-5.14-6.58-6.03-11.04l-2.35-12.45c-.62-5.8-1.68-11.16-3.57-17.05,1.66-10.91,8.48-20.92,17.93-26.85l15.68-13.37,7.83-7.27c11.52-9.61,24.6-16.45,38.19-22.62,9.04-5.46,18.21-8.87,28.49-12.07,7.29,3.43,13.59,7.02,20.04,11.49,6.64,3.15,11.63,8.32,15.06,14.99.1,6.17-.45,11.92-2.65,17.37-5.37,11.63-11.03,22.35-17.98,33.07l-15.38,31.61c-1.88,7.91-8.19,12.3-15.88,14.29l-10.98,2.22-12.67,1.9Z"/>
  <path class="cls-2" d="M349.51,146.94l-17.21-2.83c-5.75-.97-10.99-2.89-15.39-6.84-12.85-19.21-22.62-39.48-29.12-61.67l-9.15-19.43,2.05-9.7,7.74-3.36,28.65-14.27,9.21-1.13,33.48,16.61c12.02,7.92,22.87,16.04,32.74,26.27l14.75,13.15c8.85,9.55,11.21,21.53,7.72,33.8l-5.34,25.31c-2.25,4.07-3.87,6.27-8.07,7.7-8.49,1.56-16.9,2.21-25.45,1.75l-26.63-5.36Z"/>
</svg>