<?xml version="1.0" encoding="UTF-8"?>
<svg id="Layer_1" data-name="Layer 1" xmlns="http://www.w3.org/2000/svg" viewBox="0 0 985.32 415.72" preserveAspectRatio="none">
  <g>
    <path d="M277.82,264.85l6.09-2.74,9.03-4.31c5.42-2.58,10.81-4.99,17.16-5.38-.37.88-.82,1.72-1.3,2.5-.46.78-.99,1.51-1.56,2.2-1.14,1.39-2.48,2.61-3.94,3.7-2.92,2.18-6.33,3.79-9.58,5.2l-7.3,4.64-54.37,31.57c-2.03.04-4.07.05-6.12.04-.78-1.37-1.5-2.78-2.19-4.19l-2.09-4.24c3-2.15,6.01-4.28,9.03-6.37l10.15-4.67,14.69-7.32,7.81-3.56,14.49-7.08Z"/>
    <path d="M361.81,301.03c1.2-1.27,2.37-2.55,3.5-3.84,1.03.63,2.06,1.31,3.14,1.85l-1.03,5.03c-2.37,6.47-4.12,12.51-4.87,19.44l-2.24,8.8c-.99,4.59-2.06,8.99-4.24,13.23l-8.2,29.76-4.5,14.09c-1.22,1-2.45,2-3.7,2.98-2.19-.61-4.33-1.4-6.49-2.11-.06-3.06-.07-6.11-.04-9.14l19.9-55.27,1.46-5.77,2.96-7.72c1.06-3.79,2.49-7.32,4.35-11.33Z"/>
    <path d="M450.72,306.16l1.43-4.35,5.07-.78,2.29,9.99c-.97,2.75-1.02,5.54.17,8.39l-.19,52.16-1.43,14.06c-.5,2.94-2.08,5.58-5.34,7.09-4.8-5.42-5-11.54-3.52-17.56l.26-26.86.49-19.54.78-22.61Z"/>
    <path d="M563.57,297.77l1.73,19.58c-.3,2.9-.29,5.75.06,8.76l-.19,20.95.52,16.86c2.12,6.53,2.65,12.98,1.88,19.4l-3.9,3.23-3.23-2.85-2.76-10.76-2.49-20.03-.27-35.77c.7-3.08.63-5.83.19-8.91-1.87-4.7.08-10.24,8.47-10.45Z"/>
    <path d="M326.97,270.84c-3.58,3.62-7.14,7.28-10.66,10.96l-10.69,9.65c-4.7,3.89-9.43,7.74-14.19,11.55l-11.95,10.01c-1.62.35-3.26.69-4.92,1.01-1.5-1.68-3.09-3.28-4.5-5.05,4.47-5.88,9.13-10.32,14.92-14.87,9.49-6.79,18.9-13.67,28.24-20.65,1.94-2.21,4.42-3.61,6.84-4.08,1.19-.22,2.47-.28,3.63-.04,1.19.22,2.25.74,3.29,1.49Z"/>
    <path d="M476.07,306.89c.44-4.06.8-7.18,6.68-8.29l4.79,19.03v35.14s-2.2,12.55-2.2,12.55l-4.9,3.28-3.11-4.2-.2-44.34c.62-4.4-.14-8.5-1.06-13.17Z"/>
    <path d="M308.18,237.32c-4.02,3.58-7.82,5.36-12.45,6.45-1.46,1.54-3.48,2.8-5.9,2.67l-34.29,12.67c-4.24,2.48-8.97,3.39-13.85,4.13l-3.28-3.17c-.06-1.48-.19-2.93-.18-4.42,2.46-1.39,4.94-2.75,7.42-4.08l54.98-16c1.26.34,2.47.67,3.74.96,1.28.29,2.54.55,3.8.79Z"/>
    <path d="M528.42,305.69c-.54-4.15.75-6.81,6.71-7.97l1.66,8.42.77,25.81-.72,16.01.35,15.82-3.76,3.66-5.08-3.21-.18-11.07-.82-7.04.45-9.22c-1.04-10.17-.84-20.27.63-31.21Z"/>
    <path d="M430.02,295.24l2.71,13.05.45,14.39-.33,36.33-1.47,8.48c-1.42.51-4.18.59-6.97-.05-.89-1.61-1.55-3.38-.86-5.75l.33-49.14,1.23-15.52,4.91-1.79Z"/>
    <path d="M343.11,293.65c3.26-3.63,5.6-6.24,8.98-9.35.2,2.33-.08,4.57-.74,6.7-.68,2.16-1.78,4.28-3.19,6.41l-4.05,8.95-3.06,5.56-3.34,7.18-4.54,8.74-9.12,16.95c-1.73,1.04-3.52,2.12-5.28,3.08l-5.8-2.92c1.54-3.24,3.1-6.48,4.7-9.71,4.03-4.79,7.3-10.31,9.83-16.03l10.35-16.06c1.29-3.33,3.03-6.22,5.27-9.5Z"/>
    <path d="M263.25,196.07c10.33.59,20.66,1.25,30.97,1.98,1.29,1.08,2.57,2.13,3.85,3.13l-1.9,1.37c-.62.47-1.21.95-1.82,1.43-12.71.1-25.44.41-38.16.94-8.07.85-16.15,1.21-24.09.26l-3.47-2.22-.1-3.48.05-3.49c6.42-.06,12.83-.05,19.25,0,5.15-.02,10.29.01,15.43.08Z"/>
    <path d="M379.58,315.51c.21-5.45,1.82-10.17,6.07-12.64,2.21,5.43,2.63,11.66.96,17.33-1.34,15.09-2.75,30.18-4.23,45.26-.99.9-2.57,1.42-4.24,1.4-1.67,0-3.45-.4-4.83-1.07.72-9.84,1.56-19.67,2.52-29.48.37-6.86,1.62-13.44,3.74-20.79Z"/>
    <path d="M296.73,218.99c1.17.52,2.34,1.03,3.5,1.51-.06.98-.21,1.98-.2,2.96-2.41.89-4.82,1.82-7.23,2.78l-31.02,5.41c-1.83-.29-3.36-.61-4.71-1.17-.68-.28-1.31-.61-1.91-1.03-.58-.42-1.12-.94-1.64-1.56,2.64-4.17,4.68-4.96,8.35-5.7l13.21-1.72,10.79-1.58c3.59.08,7.25.11,10.86.11Z"/>
    <path d="M507.36,302.7l.7,11.53-.44,9.65.64,11.68c.36,3.19-.04,6.04-1.15,8.98l-5.83-1.77-1.33-4.59-.92-16.09c-.29-6.8,0-13.66,2.18-19.68l3.81-2.5,2.34,2.8Z"/>
    <path d="M325.05,285.3c3.51-2.91,6.98-5.89,10.37-8.92,1.76,3.06,1.07,4.67-.39,8.25-4.47,5.2-8.99,10.35-13.56,15.48-1.1,2.28-2.89,3.91-5.03,4.57-2.13.67-4.51.26-6.74-1.24,2.98-5.44,6.65-9.5,11.01-13.09l4.34-5.05Z"/>
    <path d="M406.93,307.5l.92,12.58-1.3,10.1c.91,3.61.08,6.95-2.28,10.32-3.78-.32-5.76-1.76-6.25-4.3-1.62-10.68-.37-20.28,2.82-30.36l6.08,1.66Z"/>
  </g>
  <g>
    <path d="M526.09,77.1l-.22,6.67-.09,10c-.12,6.01-.18,11.89-3.94,17.72-7.1-5.85-6.3-13.87-5.37-20.91l-.44-8.64-.13-62.87,2.2-5.34,6.86.14,1.31,10.94-.18,11.16.16,16.41-.19,8.57.04,16.13Z"/>
    <path d="M417.35,108.8l-2.98,4.75-5.29-.81-.62-5.13c.66-6.87.49-13.16-.89-20.03l-.27-9.07c-.32-4.68-.44-9.21.47-13.89l-.24-30.87.35-14.78,1.99-3.89h4.97s2.28,8.64,2.28,8.64v58.75s.69,5.94.69,5.94l-.16,8.26c.39,3.93.25,7.73-.3,12.13Z"/>
    <path d="M341.34,125.85c.52,1.39,1.04,2.76,1.6,4.14l-2.3,2.6c-2.38-2.39-4.81-4.78-7.25-7.07-1.11-2.64-2.71-4.93-5.16-6.61l-31.34-41.7c-2.39-4.09-4.74-8.19-7.03-12.3-1.24-2.72-1.16-6.04,1.5-9.76,8.29,1,11.6,6.23,13.4,12.2l14.37,22.69,10.29,16.61c3.94,6.43,7.92,12.83,11.93,19.21Z"/>
    <path d="M307.16,191.29c-6.48-.83-12.98-1.58-19.49-2.25-2.82-.72-5.62-1.22-8.64-1.44l-20.61-3.75-16.71-2.32c-6.85,1.22-13.35.99-19.53-.94-.78-1.77-1.56-3.56-2.32-5.38,1.19-1.17,2.32-2.33,3.55-3.45,3.77-.39,7.52-.71,11.26-.96,6.72.54,13.42,1.2,20.1,1.98l34.76,8.42c2.87,1.27,5.56,1.85,8.62,2.3,2.42-.08,4.89.6,6.65,1.92.88.66,1.57,1.48,1.99,2.45.21.49.34,1.01.39,1.58.06.57.09,1.19,0,1.85Z"/>
    <path d="M484.96,114.75l-1.11-15.29.28-14.4,1.21-18.24.61-15.57,2.24-4.37,5.91-.18c1.55,7.15,2.19,13.56,2.21,20.92l-1.49,34.96c1.4,5.78-2.27,11.24-9.86,12.18Z"/>
    <path d="M327.01,136.4c1.29,1.57,2.44,2.96,3,4.39.29.72.42,1.42.38,2.19-.03.78-.24,1.59-.69,2.47-5.32-3.62-10.8-7.11-16.34-10.35l-26.29-23.31c-2.63-3.34-5.25-6.75-7.77-10.16.45-2.06.93-4.15,1.44-6.26,1.81.11,3.63.29,5.45.51l31.09,31.61c2.71,3.49,6.03,5.99,9.73,8.92Z"/>
    <path d="M543.79,115.68c-3.21-4.95-3.54-9.11-2.84-13.86-1.28-1.86-1.85-4.25-.64-6.44l-.14-36.56c-.81-4.86-.05-9.57.76-14.44l3.47-2.09,3.64,1.19,1.58,8.26v57.26s-5.83,6.67-5.83,6.67Z"/>
    <path d="M306.77,166.71c1.96.7,3.45,1.55,4.39,2.7.47.58.8,1.23.98,1.97.17.74.2,1.59.15,2.59-2.73-.73-5.46-1.43-8.22-2.1-8.07-2.99-16.16-5.93-24.26-8.83-4.9-2.12-9.78-4.27-14.66-6.45l-14.86-5.44c-.63-1.74-1.24-3.51-1.83-5.3,1.76-1.34,3.53-2.64,5.27-3.91l10.11,4.5,6.71,2.25,8.16,4.33c9.59,3.46,18.56,8.14,28.07,13.68Z"/>
    <path d="M358.55,128.68c-2.36-3.72-4.79-7.4-7.27-10.98l-6.68-12.75-15.83-32.7c-.78-2.77-1.54-5.57-2.26-8.36,1.25-1.12,4.08-2.52,7.23-3.19,1.56,1.11,2.9,2.49,3.1,4.95l18.53,45.5c1.7,4.89,3.44,9.74,5.24,14.62l-2.06,2.91Z"/>
    <path d="M445.72,107.34c-1.26,4.82-2.24,8.2-4.44,12.6-4.27-3.82-4.98-8.29-4.27-13.37l-.78-9.82.16-6.34-.42-7.91v-9.85s.22-19.24.22-19.24l2.87-5.19,5.7-.36.94,10.73c-.88,6.21-.9,12.62-.01,18.81l-.55,19.1c.79,3.5.87,6.87.6,10.85Z"/>
    <path d="M600.47,77.32c-1.57,10.23-3.22,20.44-4.95,30.64-1.2,1.17-2.35,2.34-3.47,3.52-.76-1.38-1.57-2.65-2.42-3.95,1.12-12.67,2.02-25.37,2.71-38.09-.08-8.12.33-16.2,2.03-24.01l2.54-3.23c2.32.17,4.65.29,6.96.61-.56,6.4-1.17,12.79-1.85,19.16-.48,5.13-1,10.25-1.56,15.36Z"/>
    <path d="M390.54,99.17c.41,2.72.45,5.29-.09,7.57-.54,2.3-1.63,4.39-3.5,6.02-1.61-2.56-2.79-5.24-3.52-8.1-.72-2.85-.98-5.83-.7-8.79-1.53-15.08-2.99-30.16-4.39-45.25,1.59-2.21,5.86-2.79,8.84-2.04,1.15,9.81,2.18,19.65,3.1,29.49.93,6.8.96,13.53.26,21.1Z"/>
    <path d="M573.84,108.43l-2.76,3.27-4.23-.6-2.16-7.61.09-31.49c1.25-3.5,2.33-5.81,5.04-7.56,3.71,3.15,4.35,5.27,4.7,9l.37,13.33.59,10.89-1.67,10.77Z"/>
    <path d="M316.39,155.6l-9.89-5.92-7.88-5.6-10.06-5.94c-2.84-1.47-5.05-3.32-6.92-5.86,1.5-1.27,3.14-2.42,4.68-3.6l4.43,1.69c4.48,2.96,8.92,5.94,13.37,8.97,5.59,3.89,10.85,8.26,14.89,13.01l.58,3.5c-1.08-.12-2.13-.2-3.19-.27Z"/>
    <path d="M472.41,103.15l-2.56,13.53c-5.12-1.12-5.84-2.88-7.41-6.59l1.25-20.55c-1.36-4.95,1.93-9.54,7.76-10.15,1.56,6.07,1.74,11.49.7,17.1l.25,6.65Z"/>
    <path d="M368.62,111.93c-1.34-3.98-2.7-7.95-4.1-11.91-.6-3.33-1.16-6.67-1.7-10.02-1.73-3.26-1.98-6.66-.69-10.53,3.56-.52,5.67.49,6.62,2.87,3.64,10.12,4.25,19.83,4.4,30.15l-2.27-.34-2.27-.21Z"/>
  </g>
  <g>
    <path d="M644.05,319.55l-3.31-5.8-5.16-8.57c-3.09-5.15-6.01-10.28-7-16.57.91.29,1.79.64,2.62,1.05.82.39,1.6.84,2.34,1.34,1.49,1,2.84,2.22,4.06,3.56,2.45,2.69,4.38,5.94,6.1,9.03l5.31,6.82,36.63,51.09c.23,2.02.45,4.05.63,6.09-1.29.91-2.62,1.75-3.96,2.58l-4.02,2.49c-2.43-2.77-4.83-5.57-7.21-8.38l-5.62-9.65-8.7-13.92-4.29-7.43-8.44-13.74Z"/>
    <path d="M672.02,232.51c-1.38-1.07-2.77-2.11-4.17-3.12.5-1.09,1.12-2.17,1.54-3.3l5.11.54c6.67,1.73,12.85,2.89,19.82,2.97l8.97,1.38c4.66.54,9.14,1.19,13.58,2.94l30.41,5.29,14.46,3.12c1.12,1.11,2.23,2.25,3.33,3.4-.43,2.23-.98,4.44-1.48,6.66-3.04.35-6.07.66-9.09.92l-56.94-14.46-5.9-.9-7.96-2.19c-3.9-.69-7.53-1.77-11.69-3.24Z"/>
    <path d="M662.88,161.78c-1.43.39-2.84.77-4.28,1.19l-2.36-2.53c2.61-2.14,5.22-4.33,7.74-6.54,2.73-.85,5.16-2.22,7.07-4.51l44.51-27.2c4.29-1.99,8.6-3.93,12.92-5.82,2.83-.97,6.12-.57,9.58,2.43-1.79,8.16-7.31,10.96-13.42,12.17l-23.96,12.13-17.52,8.65c-6.78,3.31-13.53,6.65-20.27,10.03Z"/>
    <path d="M600.98,121.48c1.45-6.37,2.83-12.77,4.13-19.19.99-2.73,1.75-5.47,2.27-8.46l5.72-20.15,3.92-16.41c-.55-6.96.29-13.35,2.82-19.35,1.83-.61,3.69-1.2,5.58-1.78,1.05,1.29,2.09,2.56,3.09,3.86.02,3.79-.02,7.56-.13,11.31-1.19,6.64-2.5,13.25-3.92,19.82l-11.74,33.79c-1.55,2.73-2.38,5.35-3.12,8.35-.15,2.42-1.07,4.81-2.55,6.43-.74.81-1.62,1.42-2.63,1.73-.5.16-1.04.23-1.61.23-.58.03-1.19-.02-1.84-.18Z"/>
    <path d="M645.33,270.03c3.95,3.22,7.93,6.41,11.93,9.57l10.63,9.72c4.32,4.3,8.6,8.65,12.85,13.03l11.1,10.94c.51,1.58,1,3.18,1.47,4.8-1.53,1.65-2.97,3.39-4.59,4.96-6.28-3.89-11.14-8.11-16.22-13.43-7.66-8.8-15.41-17.51-23.25-26.14-2.39-1.72-4.01-4.05-4.71-6.42-.33-1.17-.51-2.43-.39-3.61.1-1.2.53-2.31,1.17-3.42Z"/>
    <path d="M653.76,146.53c-1.69,1.14-3.18,2.14-4.66,2.57-.74.22-1.46.28-2.21.17-.77-.1-1.56-.39-2.39-.93,4.11-4.94,8.11-10.08,11.86-15.28l25.72-23.95c3.57-2.3,7.22-4.58,10.85-6.76,2.01.65,4.04,1.32,6.1,2.03-.29,1.79-.64,3.59-1.02,5.38l-34.43,27.94c-3.73,2.37-6.54,5.43-9.81,8.83Z"/>
    <path d="M613.71,291.98c3.95,3.65,6.09,7.26,7.62,11.77,1.68,1.3,3.14,3.21,3.23,5.61l15.92,32.91c2.89,4,4.24,8.6,5.45,13.38l-2.83,3.57c-1.46.22-2.9.47-4.38.6-1.62-2.32-3.21-4.65-4.78-6.99l-21.25-53.18c.22-1.28.42-2.54.59-3.81.16-1.3.3-2.59.42-3.86Z"/>
    <path d="M625.5,123.47c-.89,1.88-1.88,3.28-3.11,4.11-.62.41-1.3.68-2.06.78-.38.05-.78.07-1.21.04-.44,0-.9-.05-1.39-.14.99-2.64,1.95-5.3,2.89-7.98,3.75-7.74,7.46-15.51,11.13-23.3,2.59-4.67,5.2-9.33,7.83-13.97l6.85-14.27c1.79-.45,3.61-.89,5.45-1.31,1.17,1.87,2.29,3.77,3.38,5.62l-5.46,9.63-2.88,6.46-5.1,7.71c-4.36,9.22-9.88,17.69-16.32,26.62Z"/>
    <path d="M658.4,178.62c1.96-.99,3.92-2.01,5.87-3.04,1.93-1.03,3.85-2.07,5.76-3.14l13.33-5.42,34.08-12.6c2.84-.51,5.68-.99,8.54-1.45,1,1.35,2.1,4.32,2.48,7.51-1.26,1.45-2.76,2.65-5.23,2.61l-47.08,14.05c-5.02,1.22-10.05,2.49-15.07,3.8l-2.69-2.33Z"/>
    <path d="M666.47,251.81c-3.92-2.89-6.75-4.98-10.18-8.04,4.63-.85,8.89.23,13.43,2.66l9.3,3.17,5.83,2.51,7.47,2.64,9.14,3.67,17.75,7.44c1.21,1.62,2.45,3.3,3.57,4.96l-2.34,6.05c-3.37-1.22-6.75-2.47-10.12-3.74-5.16-3.55-10.96-6.27-16.9-8.25l-16.97-8.75c-3.44-.97-6.48-2.42-9.97-4.33Z"/>
    <path d="M577.01,340.66c-.4-10.34-.72-20.68-.97-31.01.96-1.39,1.88-2.78,2.77-4.16,1.01,1.14,2.07,2.38,3.14,3.46,1.3,12.64,2.81,25.27,4.54,37.89,1.61,7.95,2.73,15.95,2.54,23.96l-1.89,3.67c-2.3.35-4.62.51-6.94.71-.66-6.38-1.27-12.77-1.82-19.15-.5-5.12-.96-10.24-1.38-15.36Z"/>
    <path d="M684.72,213.38c-5.45.31-10.3-.84-13.19-4.87,5.27-2.73,11.35-3.73,17.19-2.61,15.15-.09,30.3-.11,45.46-.07,2.1,1.79,2.23,6.1,1.19,8.99-9.87.22-19.72.32-29.61.3-6.87.28-13.56-.33-21.03-1.74Z"/>
    <path d="M596.6,305.15c.41-1.22.79-2.43,1.15-3.63.98-.04,1.98,0,2.96-.08,1.12,2.31,2.27,4.62,3.46,6.92l8.38,30.35c-.23,3.69-.66,6.28-2.95,8.58-4.4-2.21-5.38-4.17-6.48-7.74l-2.99-13-2.61-10.6c-.27-3.59-.57-7.18-.93-10.79Z"/>
    <path d="M635.65,134.12l6.84-9.28,6.33-7.31,6.87-9.45c1.73-2.69,3.79-4.71,6.49-6.33,1.12,1.62,2.11,3.36,3.14,5l-2.11,4.24c-3.38,4.17-6.77,8.31-10.21,12.45-4.41,5.2-9.25,10.01-14.38,13.57l-3.55.24c.22-1.06.41-2.1.57-3.15Z"/>
    <path d="M659.91,270.57c-3.23-3.22-6.53-6.38-9.87-9.47,2.87-2.04,4.54-1.51,8.24-.4,5.6,3.95,11.17,7.96,16.7,12.02,2.38.87,4.16,2.5,5.03,4.57.87,2.05.69,4.46-.59,6.83-5.7-2.45-10.09-5.72-14.08-9.71l-5.44-3.83Z"/>
    <path d="M674.1,190.26c4.09-.95,8.18-1.92,12.26-2.93,3.37-.27,6.75-.51,10.14-.72,3.42-1.41,6.82-1.33,10.54.33.21,3.59-1.04,5.6-3.49,6.32-10.43,2.65-20.15,2.32-30.42,1.47.18-.74.39-1.48.55-2.23l.43-2.24Z"/>
  </g>
</svg>