<?xml version="1.0" encoding="UTF-8"?>
<svg id="Layer_1" data-name="Layer 1" xmlns="http://www.w3.org/2000/svg" viewBox="0 0 985.32 415.72" preserveAspectRatio="none">
  <g>
    <path d="M500.29,327.04l.19-6.67.08-10c.1-6.01.15-11.89,3.26-17.72,5.88,5.85,5.21,13.87,4.45,20.91l.36,8.64.1,62.87-1.82,5.34-5.68-.14-1.08-10.94.15-11.16-.13-16.41.16-8.57-.03-16.13Z"/>
    <path d="M590.33,295.35l2.47-4.75,4.38.81.52,5.13c-.54,6.87-.4,13.16.74,20.03l.23,9.07c.27,4.68.36,9.21-.39,13.89l.2,30.87-.29,14.78-1.65,3.89h-4.11s-1.89-8.64-1.89-8.64v-58.75s-.57-5.94-.57-5.94l.13-8.26c-.32-3.93-.21-7.73.25-12.13Z"/>
    <path d="M676.49,294.58l1.19-4.35,4.2-.78,1.9,9.99c-.8,2.75-.85,5.54.14,8.39l-.15,52.16-1.19,14.06c-.41,2.94-1.72,5.58-4.42,7.09-3.97-5.42-4.14-11.54-2.92-17.56l.21-26.86.41-19.54.64-22.61Z"/>
    <path d="M769.93,286.2l1.43,19.58c-.24,2.9-.24,5.75.05,8.76l-.16,20.95.43,16.86c1.75,6.53,2.19,12.98,1.56,19.4l-3.23,3.23-2.67-2.85-2.29-10.76-2.06-20.03-.23-35.77c.58-3.08.52-5.83.16-8.91-1.55-4.7.06-10.24,7.01-10.45Z"/>
    <path d="M534.35,289.39l.92,15.29-.23,14.4-1,18.24-.51,15.57-1.85,4.37-4.89.18c-1.28-7.15-1.81-13.56-1.83-20.92l1.24-34.96c-1.16-5.78,1.88-11.24,8.16-12.18Z"/>
    <path d="M697.48,295.32c.36-4.06.66-7.18,5.53-8.29l3.97,19.03v35.14s-1.82,12.55-1.82,12.55l-4.06,3.28-2.57-4.2-.17-44.34c.52-4.4-.12-8.5-.88-13.17Z"/>
    <path d="M485.64,288.46c2.66,4.95,2.93,9.11,2.35,13.86,1.06,1.86,1.53,4.25.53,6.44l.11,36.56c.67,4.86.04,9.57-.63,14.44l-2.88,2.09-3.01-1.19-1.31-8.26v-57.26s4.82-6.67,4.82-6.67Z"/>
    <path d="M740.82,294.11c-.45-4.15.62-6.81,5.56-7.97l1.37,8.42.63,25.81-.6,16.01.29,15.82-3.12,3.66-4.21-3.21-.15-11.07-.68-7.04.38-9.22c-.86-10.17-.69-20.27.52-31.21Z"/>
    <path d="M659.36,283.66l2.24,13.05.37,14.39-.27,36.33-1.22,8.48c-1.17.51-3.46.59-5.77-.05-.73-1.61-1.28-3.38-.71-5.75l.27-49.14,1.02-15.52,4.06-1.79Z"/>
    <path d="M566.84,296.81c1.04-4.82,1.85-8.2,3.68-12.6,3.54,3.82,4.12,8.29,3.54,13.37l.64,9.82-.14,6.34.35,7.91v9.85s-.18,19.24-.18,19.24l-2.37,5.19-4.72.36-.78-10.73c.73-6.21.75-12.62.01-18.81l.46-19.1c-.65-3.5-.72-6.87-.49-10.85Z"/>
    <path d="M437.39,329.11l-.85-31.04,3.28-4.07,3.49,3.57,1.98,38.13c.85,8.05,1.13,16.11.54,24.08l-1.51,3.52-4.86.4-1.06-19.19-1-15.39Z"/>
    <path d="M613.71,305.1c-.62-5.45.23-10.3,5.1-13.31,3.35,5.27,4.06,11.44,2.8,17.22l-.52,45.45c-1.35,1.98-4.44,2.3-6.59,1.31l-1.41-29.57c-.59-6.82-.48-13.55.62-21.1Z"/>
    <path d="M460.76,295.71l2.28-3.27,3.5.6,1.78,7.61-.08,31.49c-1.04,3.5-1.93,5.81-4.18,7.56-3.07-3.15-3.6-5.27-3.89-9l-.31-13.33-.49-10.89,1.38-10.77Z"/>
    <path d="M723.39,291.12l.58,11.53-.37,9.65.53,11.68c.3,3.19-.03,6.04-.95,8.98l-4.83-1.77-1.1-4.59-.76-16.09c-.24-6.8,0-13.66,1.81-19.68l3.15-2.5,1.94,2.8Z"/>
    <path d="M544.74,300.99l2.12-13.53c4.24,1.12,4.84,2.88,6.13,6.59l-1.04,20.55c1.13,4.95-1.6,9.54-6.43,10.15-1.29-6.07-1.44-11.49-.58-17.1l-.2-6.65Z"/>
    <path d="M640.24,295.92l.77,12.58-1.08,10.1c.76,3.61.07,6.95-1.88,10.32-3.13-.32-4.77-1.76-5.17-4.3-1.34-10.68-.31-20.28,2.33-30.36l5.04,1.66Z"/>
  </g>
  <g>
    <path d="M159.37,323.09l1.78-6.43,2.48-9.69c1.5-5.81,3.08-11.5,6.45-16.7,1.3,3.35,1.61,6.87,1.29,10.49-.32,3.61-1.27,7.27-2.25,10.67l-1.3,8.54-11.52,61.8c-1.13,1.6-2.28,3.2-3.45,4.79-2.55-.57-5.08-1.23-7.62-1.86.38-3.66.79-7.31,1.22-10.95l2.91-10.78,3.85-15.95,2.26-8.27,3.89-15.65Z"/>
    <path d="M246.62,295.35l2.47-4.75,4.38.81.52,5.13c-.54,6.87-.4,13.16.74,20.03l.23,9.07c.27,4.68.36,9.21-.39,13.89l.2,30.87-.29,14.78-1.65,3.89h-4.11s-1.89-8.64-1.89-8.64v-58.75s-.57-5.94-.57-5.94l.13-8.26c-.32-3.93-.21-7.73.25-12.13Z"/>
    <path d="M332.78,294.58l1.19-4.35,4.2-.78,1.9,9.99c-.8,2.75-.85,5.54.14,8.39l-.15,52.16-1.19,14.06c-.41,2.94-1.72,5.58-4.42,7.09-3.97-5.42-4.14-11.54-2.92-17.56l.21-26.86.41-19.54.64-22.61Z"/>
    <path d="M426.22,286.2l1.43,19.58c-.24,2.9-.24,5.75.05,8.76l-.16,20.95.43,16.86c1.75,6.53,2.19,12.98,1.56,19.4l-3.23,3.23-2.67-2.85-2.29-10.76-2.06-20.03-.23-35.77c.58-3.08.52-5.83.16-8.91-1.55-4.7.06-10.24,7.01-10.45Z"/>
    <path d="M190.87,289.37c.2,5.1.35,10.21.69,15.3l-.23,14.4c-.3,6.07-.63,12.15-1,18.22l-.67,15.56c-.7,1.44-1.42,2.88-2.16,4.32-1.86,0-3.73.08-5.59-.02-1.05-7.24-1.11-13.68-.61-21.02,1.23-11.59,2.36-23.19,3.39-34.8-.25-2.92.3-5.69,1.38-7.81,1.09-2.16,2.72-3.76,4.8-4.15Z"/>
    <path d="M353.77,295.32c.36-4.06.66-7.18,5.53-8.29l3.97,19.03v35.14s-1.82,12.55-1.82,12.55l-4.06,3.28-2.57-4.2-.17-44.34c.52-4.4-.12-8.5-.88-13.17Z"/>
    <path d="M159.63,282.88c-.04,5.19-1.1,9.23-3.09,13.57.14,2.01-.24,4.4-1.71,6.22l-11.74,34.62c-.89,4.83-3.02,9.09-5.36,13.43-1.28.29-2.59.61-3.88.85l-2.86-2.4c.54-2.75,1.1-5.49,1.69-8.21l21.53-53.06c1.88-1.65,3.69-3.33,5.43-5.02Z"/>
    <path d="M397.11,294.11c-.45-4.15.62-6.81,5.56-7.97l1.37,8.42.63,25.81-.6,16.01.29,15.82-3.12,3.66-4.21-3.21-.15-11.07-.68-7.04.38-9.22c-.86-10.17-.69-20.27.52-31.21Z"/>
    <path d="M315.65,283.66l2.24,13.05.37,14.39-.27,36.33-1.22,8.48c-1.17.51-3.46.59-5.77-.05-.73-1.61-1.28-3.38-.71-5.75l.27-49.14,1.02-15.52,4.06-1.79Z"/>
    <path d="M223.13,296.81c1.04-4.82,1.85-8.2,3.68-12.6,3.54,3.82,4.12,8.29,3.54,13.37l.64,9.82-.14,6.34.35,7.91v9.85s-.18,19.24-.18,19.24l-2.37,5.19-4.72.36-.78-10.73c.73-6.21.75-12.62.01-18.81l.46-19.1c-.65-3.5-.72-6.87-.49-10.85Z"/>
    <path d="M106.41,298.41c6.42-8.13,12.88-16.21,19.4-24.26,1.46-.5,2.93-1.07,4.39-1.67-.11,1.42-.19,2.87-.26,4.33-7.34,10.39-14.56,20.92-21.59,31.49-4.11,6.95-8.56,13.68-13.84,19.7-1.17.6-2.36,1.21-3.53,1.77l-4.79-3.25c3.69-5.24,7.42-10.44,11.19-15.62,2.98-4.18,5.99-8.35,9.04-12.5Z"/>
    <path d="M270,305.1c-.62-5.45.23-10.3,5.1-13.31,3.35,5.27,4.06,11.44,2.8,17.22l-.52,45.45c-1.35,1.98-4.44,2.3-6.59,1.31l-1.41-29.57c-.59-6.82-.48-13.55.62-21.1Z"/>
    <path d="M141.3,282.2c1.02-.68,2.02-1.36,3-2.05.59.58,1.18,1.17,1.81,1.68-.82,2.43-1.62,4.87-2.39,7.32l-14.46,27.97c-2.49,2.63-4.39,4.33-7.22,4.74-1.18-4.31-.51-6.37,1.13-9.73l6.54-11.61,5.22-9.56c2.15-2.9,4.28-5.83,6.37-8.76Z"/>
    <path d="M379.68,291.12l.58,11.53-.37,9.65.53,11.68c.3,3.19-.03,6.04-.95,8.98l-4.83-1.77-1.1-4.59-.76-16.09c-.24-6.8,0-13.66,1.81-19.68l3.15-2.5,1.94,2.8Z"/>
    <path d="M201.04,300.99l2.12-13.53c4.24,1.12,4.84,2.88,6.13,6.59l-1.04,20.55c1.13,4.95-1.6,9.54-6.43,10.15-1.29-6.07-1.44-11.49-.58-17.1l-.2-6.65Z"/>
    <path d="M296.53,295.92l.77,12.58-1.08,10.1c.76,3.61.07,6.95-1.88,10.32-3.13-.32-4.77-1.76-5.17-4.3-1.34-10.68-.31-20.28,2.33-30.36l5.04,1.66Z"/>
  </g>
  <g>
    <path d="M134.1,78.69l2.78,6.07,4.34,9.01c2.6,5.41,5.05,10.78,5.82,16.93-3.16-1.72-5.66-4.22-7.74-7.2-2.09-2.97-3.71-6.38-5.15-9.61l-4.5-7.38-30.98-54.71c-.17-1.95-.32-3.92-.44-5.89,2.32-1.21,4.68-2.33,7.02-3.48,2.06,3.04,4.1,6.1,6.12,9.16l4.72,10.12,7.32,14.69,3.6,7.78,7.1,14.48Z"/>
    <path d="M103.36,150.73c1.14,1.24,2.3,2.46,3.46,3.66-.72.74-1.34,1.52-1.99,2.31l-4.81-1.8c-6.1-3.19-11.83-5.79-18.5-7.71l-8.37-3.52c-4.38-1.69-8.57-3.41-12.52-6.02l-28.26-12.43-13.33-6.4-2.61-3.66,1.18-2.56,1.27-2.52c2.97.52,5.92,1.08,8.85,1.67l52.17,27,5.49,2.3,7.27,3.92c3.6,1.59,6.92,3.45,10.67,5.77Z"/>
    <path d="M93.93,209.46l4.41.21c.34.9.8,1.76,1.21,2.63-3.21.98-6.41,2-9.6,3.07-2.81-.07-5.57.36-8.23,1.65l-51.3,9.45c-4.69.41-9.38.77-14.08,1.1-2.96,0-5.93-1.19-7.93-4.49,4.7-5.94,10.78-6.65,16.93-5.97l26.68-3.1,19.43-2.09c7.5-.78,14.99-1.59,22.49-2.44Z"/>
    <path d="M128.55,260.63c-4.34,4.88-8.63,9.81-12.87,14.78-2.14,1.97-4.12,4.01-6.02,6.36l-14.58,15.04-11.31,12.51c-3.1,6.08-7.02,11.23-11.97,15.38-1.71-.14-3.43-.29-5.17-.47-.15-1.47-.31-2.9-.39-4.38,1.89-3.21,3.83-6.38,5.8-9.5,4.27-5.2,8.6-10.32,13-15.38l26.08-24.47c2.57-1.77,4.54-3.7,6.62-5.97,1.34-2,3.25-3.7,5.21-4.55.98-.42,1.97-.63,2.91-.54.94.08,1.81.49,2.68,1.2Z"/>
    <path d="M131.73,124.76c-3.42-3.78-6.86-7.54-10.33-11.27l-9.15-11.13c-3.7-4.84-7.36-9.71-11-14.61l-9.52-12.34c-.39-1.55-.76-3.11-1.12-4.68l4.29-3.6c5.47,4.87,9.66,9.75,14.01,15.7,6.52,9.66,13.12,19.26,19.81,28.8,2.08,2.08,3.42,4.52,3.99,6.89.58,2.38.32,4.57-.99,6.25Z"/>
    <path d="M96.23,223.96c1.98-.44,3.74-.84,5.24-.78.75.03,1.43.17,2.04.47.64.29,1.23.73,1.74,1.39-5.74,2.81-11.44,5.8-17.07,8.95l-33,12.07c-4.13.85-8.28,1.64-12.44,2.39-1.52-1.07-3.04-2.18-4.58-3.31,1.01-1.35,2.09-2.7,3.17-4.01l42.45-12.81c4.32-.86,8.12-2.54,12.45-4.34Z"/>
    <path d="M159.8,109.63c-3.32-4.02-5.1-7.77-6.38-12.38-1.4-1.45-2.64-3.52-2.7-5.86l-13.31-34.04c-2.43-4.27-3.54-8.9-4.55-13.73.79-1.05,1.58-2.15,2.42-3.14h3.74c1.36,2.44,2.69,4.89,4,7.35l17.7,54.46c-.37,2.48-.68,4.93-.91,7.34Z"/>
    <path d="M110.05,250.76c1.65-1.3,3.1-2.13,4.52-2.44,1.42-.3,2.78-.06,4.15.89-2.1,1.9-4.18,3.81-6.25,5.75-6.81,5.27-13.59,10.55-20.35,15.88l-13.15,9.16-12.49,9.72c-1.66-.2-3.31-.43-4.98-.68-.05-1.92-.1-3.8-.08-5.69l9.11-6.3,5.49-4.48,7.87-4.81c8.03-6.31,16.63-11.63,26.16-17.01Z"/>
    <path d="M103.97,197.36c-4.33.52-8.67,1.11-13,1.77l-14.38.7-36.32.81c-2.84-.35-5.68-.73-8.51-1.14-.27-.66-.44-1.64-.47-2.78-.02-1.14.18-2.45.53-3.75,1.63-.8,3.42-1.34,5.76-.66l49.12,1.45c5.16.38,10.33.72,15.5,1.02.56.88,1.13,1.73,1.78,2.58Z"/>
    <path d="M110.98,135.87c3.39,3.47,5.82,5.96,8.72,9.45-4.4-.42-8.41-2.5-12.37-5.69l-8.41-5.07-5.21-3.62-6.74-4.15-8.2-5.46-15.89-10.86c-.98-1.7-1.87-3.37-2.78-5.1l2.81-4.58,9.11,5.76c4.48,4.34,9.65,8.14,15.01,11.32l15.03,11.78c3.12,1.7,5.83,3.7,8.91,6.22Z"/>
    <path d="M190.52,63.48c.33,10.34.59,20.68.8,31.02-.79,1.39-1.56,2.77-2.29,4.14-.84-1.17-1.71-2.34-2.61-3.51-1.08-12.7-2.33-25.32-3.75-37.96-1.33-7.97-2.26-15.99-2.1-23.99l1.56-3.64c1.91-.24,3.83-.39,5.75-.58.55,6.39,1.05,12.77,1.5,19.16.42,5.12.8,10.24,1.14,15.37Z"/>
    <path d="M87.74,162.86c5.37,1.23,9.63,3.39,11.69,7.39-5.7.74-11.87-.1-17.19-2.53-14.62-3.96-29.23-7.97-43.82-12.04-1.49-1.95-.87-5.49.81-7.52,9.57,2.47,19.11,5.03,28.61,7.68,6.66,1.61,12.99,3.89,19.9,7.02Z"/>
    <path d="M174.25,98.35c-.34,1.17-.67,2.34-.98,3.5-.82-.07-1.65-.13-2.47-.12-.93-2.39-1.89-4.77-2.89-7.14l-6.95-30.71c.21-3.61.57-6.14,2.48-8.28,3.68,2.54,4.49,4.55,5.4,8.18l2.47,13.09,2.16,10.68c.22,3.61.48,7.21.77,10.81Z"/>
    <path d="M106.63,238.96l-10.09,5.59-8.74,4.12-10.19,5.71c-2.71,1.69-5.39,2.74-8.42,3.27l-.27-2.47-.15-2.49,3.75-2.85c4.79-2.42,9.59-4.81,14.41-7.18,6.13-2.95,12.51-5.48,18.48-6.9,1.06.29,2.05.59,3.14.82l-1.91,2.38Z"/>
    <path d="M118.55,121.04c2.75,3.6,5.55,7.16,8.4,10.66-2.69,1.21-4.25.3-7.6-1.58-4.87-4.81-9.71-9.66-14.52-14.54-2.14-1.34-3.66-3.2-4.3-5.2-.32-1-.42-2.04-.27-3.05.14-1.02.54-2.01,1.24-2.87,5.1,3.53,8.88,7.42,12.29,11.91l4.74,4.67Z"/>
    <path d="M92.47,183.95l-12.56-.93c-3.31-.68-6.61-1.38-9.92-2.11-3.66.21-6.91-.75-10.02-3.04.17-.72.39-1.35.69-1.87.32-.52.69-.95,1.11-1.28.85-.66,1.91-.96,3.2-.91,10.73.67,19.98,3.49,29.61,6.88-.77,1.06-1.39,2.16-2.11,3.27Z"/>
  </g>
  <g>
    <path d="M471.27,65.53l-.19,6.67-.08,10c-.1,6.01-.15,11.89-3.26,17.72-5.88-5.85-5.21-13.87-4.45-20.91l-.36-8.64-.1-62.87,1.82-5.34,5.68.14,1.08,10.94-.15,11.16.13,16.41-.16,8.57.03,16.13Z"/>
    <path d="M381.24,97.22l-2.47,4.75-4.38-.81-.52-5.13c.54-6.87.4-13.16-.74-20.03l-.23-9.07c-.27-4.68-.36-9.21.39-13.89l-.2-30.87.29-14.78,1.65-3.89h4.11s1.89,8.64,1.89,8.64v58.75s.57,5.94.57,5.94l-.13,8.26c.32,3.93.21,7.73-.25,12.13Z"/>
    <path d="M295.08,97.99l-1.19,4.35-4.2.78-1.9-9.99c.8-2.75.85-5.54-.14-8.39l.15-52.16,1.19-14.06c.41-2.94,1.72-5.58,4.42-7.09,3.97,5.42,4.14,11.54,2.92,17.56l-.21,26.86-.41,19.54-.64,22.61Z"/>
    <path d="M201.64,106.37l-1.43-19.58c.24-2.9.24-5.75-.05-8.76l.16-20.95-.43-16.86c-1.75-6.53-2.19-12.98-1.56-19.4l3.23-3.23,2.67,2.85,2.29,10.76,2.06,20.03.23,35.77c-.58,3.08-.52,5.83-.16,8.91,1.55,4.7-.06,10.24-7.01,10.45Z"/>
    <path d="M437.21,103.18l-.92-15.29.23-14.4,1-18.24.51-15.57,1.85-4.37,4.89-.18c1.28,7.15,1.81,13.56,1.83,20.92l-1.24,34.96c1.16,5.78-1.88,11.24-8.16,12.18Z"/>
    <path d="M274.09,97.25c-.36,4.06-.66,7.18-5.53,8.29l-3.97-19.03v-35.14s1.82-12.55,1.82-12.55l4.06-3.28,2.57,4.2.17,44.34c-.52,4.4.12,8.5.88,13.17Z"/>
    <path d="M485.92,104.1c-2.66-4.95-2.93-9.11-2.35-13.86-1.06-1.86-1.53-4.25-.53-6.44l-.11-36.56c-.67-4.86-.04-9.57.63-14.44l2.88-2.09,3.01,1.19,1.31,8.26v57.26s-4.82,6.67-4.82,6.67Z"/>
    <path d="M230.75,98.45c.45,4.15-.62,6.81-5.56,7.97l-1.37-8.42-.63-25.81.6-16.01-.29-15.82,3.12-3.66,4.21,3.21.15,11.07.68,7.04-.38,9.22c.86,10.17.69,20.27-.52,31.21Z"/>
    <path d="M312.21,108.9l-2.24-13.05-.37-14.39.27-36.33,1.22-8.48c1.17-.51,3.46-.59,5.77.05.73,1.61,1.28,3.38.71,5.75l-.27,49.14-1.02,15.52-4.06,1.79Z"/>
    <path d="M404.73,95.76c-1.04,4.82-1.85,8.2-3.68,12.6-3.54-3.82-4.12-8.29-3.54-13.37l-.64-9.82.14-6.34-.35-7.91v-9.85s.18-19.24.18-19.24l2.37-5.19,4.72-.36.78,10.73c-.73,6.21-.75,12.62-.01,18.81l-.46,19.1c.65,3.5.72,6.87.49,10.85Z"/>
    <path d="M534.17,63.46l.85,31.04-3.28,4.07-3.49-3.57-1.98-38.13c-.85-8.05-1.13-16.11-.54-24.08l1.51-3.52,4.86-.4,1.06,19.19,1,15.39Z"/>
    <path d="M357.86,87.46c.62,5.45-.23,10.3-5.1,13.31-3.35-5.27-4.06-11.44-2.8-17.22l.52-45.45c1.35-1.98,4.44-2.3,6.59-1.31l1.41,29.57c.59,6.82.48,13.55-.62,21.1Z"/>
    <path d="M510.8,96.85l-2.28,3.27-3.5-.6-1.78-7.61.08-31.49c1.04-3.5,1.93-5.81,4.18-7.56,3.07,3.15,3.6,5.27,3.89,9l.31,13.33.49,10.89-1.38,10.77Z"/>
    <path d="M248.18,101.44l-.58-11.53.37-9.65-.53-11.68c-.3-3.19.03-6.04.95-8.98l4.83,1.77,1.1,4.59.76,16.09c.24,6.8,0,13.66-1.81,19.68l-3.15,2.5-1.94-2.8Z"/>
    <path d="M426.82,91.57l-2.12,13.53c-4.24-1.12-4.84-2.88-6.13-6.59l1.04-20.55c-1.13-4.95,1.6-9.54,6.43-10.15,1.29,6.07,1.44,11.49.58,17.1l.2,6.65Z"/>
    <path d="M331.33,96.64l-.77-12.58,1.08-10.1c-.76-3.61-.07-6.95,1.88-10.32,3.13.32,4.77,1.76,5.17,4.3,1.34,10.68.31,20.28-2.33,30.36l-5.04-1.66Z"/>
  </g>
  <g>
    <path d="M812.2,69.48l-1.78,6.43-2.48,9.69c-1.5,5.81-3.08,11.5-6.45,16.7-1.3-3.35-1.61-6.87-1.29-10.49.32-3.61,1.27-7.27,2.25-10.67l1.3-8.54,11.52-61.8c1.13-1.6,2.28-3.2,3.45-4.79,2.55.57,5.08,1.23,7.62,1.86-.38,3.66-.79,7.31-1.22,10.95l-2.91,10.78-3.85,15.95-2.26,8.27-3.89,15.65Z"/>
    <path d="M724.95,97.22l-2.47,4.75-4.38-.81-.52-5.13c.54-6.87.4-13.16-.74-20.03l-.23-9.07c-.27-4.68-.36-9.21.39-13.89l-.2-30.87.29-14.78,1.65-3.89h4.11s1.89,8.64,1.89,8.64v58.75s.57,5.94.57,5.94l-.13,8.26c.32,3.93.21,7.73-.25,12.13Z"/>
    <path d="M638.78,97.99l-1.19,4.35-4.2.78-1.9-9.99c.8-2.75.85-5.54-.14-8.39l.15-52.16,1.19-14.06c.41-2.94,1.72-5.58,4.42-7.09,3.97,5.42,4.14,11.54,2.92,17.56l-.21,26.86-.41,19.54-.64,22.61Z"/>
    <path d="M545.35,106.37l-1.43-19.58c.24-2.9.24-5.75-.05-8.76l.16-20.95-.43-16.86c-1.75-6.53-2.19-12.98-1.56-19.4l3.23-3.23,2.67,2.85,2.29,10.76,2.06,20.03.23,35.77c-.58,3.08-.52,5.83-.16,8.91,1.55,4.7-.06,10.24-7.01,10.45Z"/>
    <path d="M780.7,103.19c-.2-5.1-.35-10.21-.69-15.3l.23-14.4c.3-6.07.63-12.15,1-18.22l.67-15.56c.7-1.44,1.42-2.88,2.16-4.32,1.86,0,3.73-.08,5.59.02,1.05,7.24,1.11,13.68.61,21.02-1.23,11.59-2.36,23.19-3.39,34.8.25,2.92-.3,5.69-1.38,7.81-1.09,2.16-2.72,3.76-4.8,4.15Z"/>
    <path d="M617.79,97.25c-.36,4.06-.66,7.18-5.53,8.29l-3.97-19.03v-35.14s1.82-12.55,1.82-12.55l4.06-3.28,2.57,4.2.17,44.34c-.52,4.4.12,8.5.88,13.17Z"/>
    <path d="M811.94,109.68c.04-5.19,1.1-9.23,3.09-13.57-.14-2.01.24-4.4,1.71-6.22l11.74-34.62c.89-4.83,3.02-9.09,5.36-13.43,1.28-.29,2.59-.61,3.88-.85l2.86,2.4c-.54,2.75-1.1,5.49-1.69,8.21l-21.53,53.06c-1.88,1.65-3.69,3.33-5.43,5.02Z"/>
    <path d="M574.45,98.45c.45,4.15-.62,6.81-5.56,7.97l-1.37-8.42-.63-25.81.6-16.01-.29-15.82,3.12-3.66,4.21,3.21.15,11.07.68,7.04-.38,9.22c.86,10.17.69,20.27-.52,31.21Z"/>
    <path d="M655.91,108.9l-2.24-13.05-.37-14.39.27-36.33,1.22-8.48c1.17-.51,3.46-.59,5.77.05.73,1.61,1.28,3.38.71,5.75l-.27,49.14-1.02,15.52-4.06,1.79Z"/>
    <path d="M748.43,95.76c-1.04,4.82-1.85,8.2-3.68,12.6-3.54-3.82-4.12-8.29-3.54-13.37l-.64-9.82.14-6.34-.35-7.91v-9.85s.18-19.24.18-19.24l2.37-5.19,4.72-.36.78,10.73c-.73,6.21-.75,12.62-.01,18.81l-.46,19.1c.65,3.5.72,6.87.49,10.85Z"/>
    <path d="M865.16,94.15c-6.42,8.13-12.88,16.21-19.4,24.26-1.46.5-2.93,1.07-4.39,1.67.11-1.42.19-2.87.26-4.33,7.34-10.39,14.56-20.92,21.59-31.49,4.11-6.95,8.56-13.68,13.84-19.7,1.17-.6,2.36-1.21,3.53-1.77l4.79,3.25c-3.69,5.24-7.42,10.44-11.19,15.62-2.98,4.18-5.99,8.35-9.04,12.5Z"/>
    <path d="M701.57,87.46c.62,5.45-.23,10.3-5.1,13.31-3.35-5.27-4.06-11.44-2.8-17.22l.52-45.45c1.35-1.98,4.44-2.3,6.59-1.31l1.41,29.57c.59,6.82.48,13.55-.62,21.1Z"/>
    <path d="M830.27,110.37c-1.02.68-2.02,1.36-3,2.05-.59-.58-1.18-1.17-1.81-1.68.82-2.43,1.62-4.87,2.39-7.32l14.46-27.97c2.49-2.63,4.39-4.33,7.22-4.74,1.18,4.31.51,6.37-1.13,9.73l-6.54,11.61-5.22,9.56c-2.15,2.9-4.28,5.83-6.37,8.76Z"/>
    <path d="M591.89,101.44l-.58-11.53.37-9.65-.53-11.68c-.3-3.19.03-6.04.95-8.98l4.83,1.77,1.1,4.59.76,16.09c.24,6.8,0,13.66-1.81,19.68l-3.15,2.5-1.94-2.8Z"/>
    <path d="M770.53,91.57l-2.12,13.53c-4.24-1.12-4.84-2.88-6.13-6.59l1.04-20.55c-1.13-4.95,1.6-9.54,6.43-10.15,1.29,6.07,1.44,11.49.58,17.1l.2,6.65Z"/>
    <path d="M675.04,96.64l-.77-12.58,1.08-10.1c-.76-3.61-.07-6.95,1.88-10.32,3.13.32,4.77,1.76,5.17,4.3,1.34,10.68.31,20.28-2.33,30.36l-5.04-1.66Z"/>
  </g>
  <g>
    <path d="M837.47,313.87l-2.78-6.07-4.34-9.01c-2.6-5.41-5.05-10.78-5.82-16.93,3.16,1.72,5.66,4.22,7.74,7.2,2.09,2.97,3.71,6.38,5.15,9.61l4.5,7.38,30.98,54.71c.17,1.95.32,3.92.44,5.89-2.32,1.21-4.68,2.33-7.02,3.48-2.06-3.04-4.1-6.1-6.12-9.16l-4.72-10.12-7.32-14.69-3.6-7.78-7.1-14.48Z"/>
    <path d="M868.21,241.83c-1.14-1.24-2.3-2.46-3.46-3.66.72-.74,1.34-1.52,1.99-2.31l4.81,1.8c6.1,3.19,11.83,5.79,18.5,7.71l8.37,3.52c4.38,1.69,8.57,3.41,12.52,6.02l28.26,12.43,13.33,6.4,2.61,3.66-1.18,2.56-1.27,2.52c-2.97-.52-5.92-1.08-8.85-1.67l-52.17-27-5.5-2.3-7.27-3.92c-3.6-1.59-6.92-3.45-10.67-5.77Z"/>
    <path d="M877.63,183.11l-4.41-.21c-.34-.9-.8-1.76-1.21-2.63,3.21-.98,6.41-2,9.6-3.07,2.81.07,5.57-.36,8.23-1.65l51.3-9.45c4.69-.41,9.38-.77,14.08-1.1,2.96,0,5.93,1.19,7.93,4.49-4.7,5.94-10.78,6.65-16.93,5.97l-26.68,3.1-19.43,2.09c-7.5.78-14.99,1.59-22.49,2.44Z"/>
    <path d="M843.01,131.94c4.34-4.88,8.63-9.81,12.87-14.78,2.14-1.97,4.12-4.01,6.02-6.36l14.58-15.04,11.31-12.51c3.1-6.08,7.02-11.23,11.97-15.38,1.71.14,3.43.29,5.17.47.15,1.47.31,2.9.39,4.38-1.89,3.21-3.83,6.38-5.8,9.5-4.27,5.2-8.6,10.32-13,15.38l-26.08,24.47c-2.57,1.77-4.54,3.7-6.62,5.97-1.34,2-3.25,3.7-5.21,4.55-.98.42-1.97.63-2.91.54-.94-.08-1.81-.49-2.68-1.2Z"/>
    <path d="M839.84,267.81c3.42,3.78,6.86,7.54,10.33,11.27l9.15,11.13c3.7,4.84,7.36,9.71,11,14.61l9.52,12.34c.39,1.55.76,3.11,1.12,4.68l-4.29,3.6c-5.47-4.87-9.66-9.75-14.01-15.7-6.52-9.66-13.12-19.26-19.81-28.8-2.08-2.08-3.42-4.52-3.99-6.89-.58-2.38-.32-4.57.99-6.25Z"/>
    <path d="M875.34,168.6c-1.98.44-3.74.84-5.24.78-.75-.03-1.43-.17-2.04-.47-.64-.29-1.23-.73-1.74-1.39,5.74-2.81,11.44-5.8,17.07-8.95l33-12.07c4.13-.85,8.28-1.64,12.44-2.39,1.52,1.07,3.04,2.18,4.58,3.31-1.01,1.35-2.09,2.7-3.17,4.01l-42.45,12.81c-4.32.86-8.12,2.54-12.45,4.34Z"/>
    <path d="M811.76,282.94c3.32,4.02,5.1,7.77,6.38,12.38,1.4,1.45,2.64,3.52,2.7,5.86l13.31,34.04c2.43,4.27,3.54,8.9,4.55,13.73-.79,1.05-1.58,2.15-2.42,3.14h-3.74c-1.36-2.43-2.69-4.89-4-7.35l-17.7-54.46c.37-2.48.68-4.93.91-7.34Z"/>
    <path d="M861.52,141.8c-1.65,1.3-3.1,2.13-4.52,2.44-1.42.3-2.78.06-4.15-.89,2.1-1.9,4.18-3.81,6.25-5.75,6.81-5.27,13.59-10.55,20.35-15.88l13.15-9.16,12.49-9.72c1.66.2,3.31.43,4.98.68.05,1.92.1,3.8.08,5.69l-9.11,6.3-5.49,4.48-7.87,4.81c-8.03,6.31-16.63,11.63-26.16,17.01Z"/>
    <path d="M867.59,195.2c4.33-.52,8.67-1.11,13-1.77l14.38-.7,36.32-.81c2.84.35,5.68.73,8.51,1.14.27.66.44,1.64.47,2.78.02,1.14-.18,2.45-.53,3.75-1.63.8-3.42,1.34-5.76.66l-49.12-1.45c-5.16-.38-10.33-.72-15.5-1.02-.56-.88-1.13-1.73-1.78-2.58Z"/>
    <path d="M860.59,256.7c-3.39-3.47-5.82-5.96-8.72-9.45,4.4.42,8.41,2.5,12.37,5.69l8.41,5.07,5.21,3.62,6.74,4.15,8.2,5.46,15.89,10.86c.98,1.7,1.87,3.37,2.78,5.1l-2.81,4.58-9.11-5.76c-4.48-4.34-9.65-8.14-15.01-11.32l-15.03-11.78c-3.13-1.7-5.83-3.7-8.91-6.22Z"/>
    <path d="M781.05,329.09c-.33-10.34-.59-20.68-.8-31.02.79-1.39,1.56-2.77,2.29-4.14.84,1.17,1.71,2.34,2.61,3.51,1.08,12.7,2.33,25.32,3.75,37.96,1.33,7.97,2.26,15.99,2.1,23.99l-1.56,3.64c-1.91.24-3.83.39-5.75.58-.55-6.39-1.05-12.77-1.5-19.16-.42-5.12-.8-10.24-1.14-15.37Z"/>
    <path d="M883.82,229.71c-5.37-1.23-9.63-3.39-11.69-7.39,5.7-.74,11.87.1,17.19,2.53,14.62,3.96,29.23,7.97,43.82,12.04,1.49,1.95.87,5.49-.81,7.52-9.57-2.47-19.11-5.03-28.61-7.68-6.66-1.61-12.99-3.89-19.9-7.02Z"/>
    <path d="M797.32,294.22c.34-1.17.67-2.34.98-3.5.82.07,1.65.13,2.47.12.93,2.39,1.89,4.77,2.89,7.14l6.95,30.71c-.21,3.61-.57,6.14-2.48,8.28-3.68-2.54-4.49-4.55-5.4-8.18l-2.47-13.09-2.16-10.68c-.22-3.61-.48-7.21-.77-10.81Z"/>
    <path d="M864.94,153.61l10.09-5.59,8.74-4.12,10.19-5.71c2.71-1.69,5.39-2.74,8.42-3.27l.27,2.47.15,2.49-3.75,2.85c-4.79,2.42-9.59,4.81-14.41,7.18-6.13,2.95-12.51,5.48-18.48,6.9-1.06-.29-2.05-.59-3.14-.82l1.91-2.38Z"/>
    <path d="M853.02,271.53c-2.75-3.6-5.55-7.16-8.4-10.66,2.69-1.21,4.25-.3,7.6,1.58,4.87,4.81,9.71,9.66,14.52,14.54,2.14,1.34,3.66,3.2,4.3,5.2.32,1,.42,2.04.27,3.05-.14,1.02-.54,2.01-1.24,2.87-5.1-3.53-8.88-7.42-12.29-11.91l-4.74-4.67Z"/>
    <path d="M879.1,208.62l12.56.93c3.31.68,6.61,1.38,9.92,2.11,3.66-.21,6.91.75,10.02,3.04-.17.72-.39,1.35-.69,1.87-.32.52-.69.95-1.11,1.28-.85.66-1.91.96-3.2.91-10.73-.67-19.98-3.49-29.61-6.88.77-1.06,1.39-2.16,2.11-3.27Z"/>
  </g>
</svg>