<?xml version="1.0" encoding="UTF-8"?>
<svg id="Layer_1" data-name="Layer 1" xmlns="http://www.w3.org/2000/svg" viewBox="0 0 122.82 123.74">
  <defs>
    <style>
      .cls-1 {
        fill: gray;
      }
    </style>
  </defs>
  <g id="_3ODbRx.tif" data-name="3ODbRx.tif">
    <g>
      <path class="cls-1" d="M5.56,65.91c.88-5.71.87-11.85,1.84-17.67,1.92-11.46,7.6-23.94,16.62-31.41l2.48,1.36,2.01,19.44c7.49,2.23,15.46,2.42,23.22,1.69,10.73-1.01,20.34-2.65,31.34-3.02,3.76-.12,7.58.36,11.31-.27l.52-.46c1.31-3.19,4.1-15.76,6.88-17.05,1.4-.65,2.1-.21,2.93.92,3.79,5.18,7.45,16.94,8.88,23.3,3.85,17.18,4.76,35.07,2.35,52.53l-2.8,2.35c-14.29-.3-28.66.48-42.95.04-6.27-.19-13.06-1.28-19.29-1.32-11.69-.09-23.46,1.98-35.12-.1-5.32-.95-6.26-2.2-7.85-7.18-.99-3.11-2.11-8.37-2.36-11.58v-11.58ZM38.48,74.76c1.66-1.66,4.12-7.22,4.41-9.53.54-4.27-4.42-9.73-8.76-9.65-7.7.15-12.37,6.71-12.28,13.97.11,8.59,11.24,10.6,16.63,5.21ZM88.36,57.45c-7.26.91-8.39,7.05-5.99,13.04,1.62,4.05,3.04,7.46,7.98,6.96,4.3-.44,8.91-1.94,10.35-6.39,2.84-8.8-3.82-14.66-12.33-13.6ZM53.37,69.91c-.25.23-.85,1.19-.91,1.48-.47,2.48,5.43,8.34,5.89,11.5.24,1.64-.29,3.43.55,5.03l.92.68c2.57-.81,1.7-2.91,2.1-4.79.92-4.3,10.69-8.41,8.86-13.77-2.82-3.1-6.79.42-9.21.58-2.1.14-5.53-3.16-8.21-.72ZM32.19,82.64c-.27,2.66-3.89,6.43-1.09,8.58l2.1.75,3.25-2.65c.28-1.31-3.08-7.54-4.26-6.68Z"/>
      <path class="cls-1" d="M32.09,62.17c1.49-.17,3.09-.43,4.38.53,2.57,1.85.49,4.84-1.49,6.21-7.27,5.05-13.24-5.57-2.89-6.74Z"/>
      <path class="cls-1" d="M89.63,62.57c3.41-.69,6.77,1.62,7.2,5.07-2.96,3.99-8.87,4.35-11.29-.33-.41-1.95,2.34-4.38,4.1-4.73Z"/>
    </g>
  </g>
</svg>