<?xml version="1.0" encoding="UTF-8"?>
<svg id="Layer_1" data-name="Layer 1" xmlns="http://www.w3.org/2000/svg" viewBox="0 0 491.98 486.46">
  <g id="_2kKffG.tif" data-name="2kKffG.tif">
    <g>
      <path d="M216.91,157.67c1.87,1.56,3.67-3.08,4.18-4.29,3.55-8.45,7.08-22.38,4.18-31.23-.89-2.72-5.08-9.3.81-9.07,6.33,2.05,13.93,2.71,20.13,4.87,1.2.42,2.39,1.12,2.99,2.29,1.89,3.71-2.4,3.97-2.76,7.12-.31,2.71,1.7,9.71,2.41,12.73,1.69,7.24,3.77,18.42,6.43,24.99,2.23,5.49,3.33.19,3.94-2.48,1.89-8.32,3.46-19.6,4.2-28.14.1-1.12.31-2.78.17-3.84-.33-2.42-3.18-4.08-2.92-6.46.3-2.7,3.8-1.76,5.5-1.4,3.77.79,10.31,2,13.71,3.26,3.57,1.33,3.42,4.65.84,6.94-4.3,3.83-4.75,2.74-6.65,8.95-2.75,9.01-5.41,24.65-5.85,34.06-.2,4.26,1.86,6.43,2.07,9.87.16,2.6-1.91,2.54-3.96,2.34l-26.38-6.43c-2.39-1.09-3.51-2.02-3.1-4.81.14-.97.75-1.7.86-2.58.39-3.03-2.99-17.8-4.36-20.88-.11-.24-.42-.98-.62-1.03l-.78.16c-1.48,2.71-2.41,5.72-3.17,8.7-.48,1.89-1.46,5.42-1.34,7.25.15,2.33,2.26,5.65,2.25,7.88-.02,2.15-2.68,2.08-4.19,1.88-8.22-1.06-17.28-4.73-25.69-5.74-1.37-.24-3.42-1.51-3.75-2.9-.4-1.65.66-3.12.82-4.72.44-4.38-1.14-11.9-1.91-16.44-1.55-9.13-3.6-20.55-6.87-29.14-1.63-4.29-3.78-5.82-5.77-9.36-1.33-2.35-2.16-5.74,1.55-5.93,7.9,1.92,16.66,2.72,24.43,4.95,1.88.54,4.15,1.96,3.61,4.22-.39,1.63-2.83,2.28-3.11,4.69-.38,3.26,1.78,10.45,2.45,14.06,1.24,6.62,2.12,13.73,3.63,20.23.43,1.88.93,3.82,2.02,5.43Z"/>
      <path d="M108.06,175.46c4.6-.15,11.34-.54,15.76-.07,2.2.24,3.12,1.97,3.67,3.9.82,2.86.96,6.2,1.6,9.18,1.39,6.41,5.02,17.23,7.81,23.15.94,2,1.76,3.25,3.09.58,2.3-4.61,5.61-17.09,6.36-22.31.49-3.41-.21-11.8,4.33-12.42,2.91-.39,7.89.54,10.96.93,5.18.65,12.76,1.43,17.63,2.79,5.65,1.58,2.21,6.03,1.09,9.44-3.59,10.91-2.92,35.32.07,46.5.55,2.07,2.48,5.84,2.24,7.65-.23,1.68-2.21,1.79-3.57,1.7-6.27-.39-13.43-2.74-19.86-3.08-5.12-1.51-2.07-6.04-1.25-9.52,1.9-8.1,2.33-22.56,1.23-30.82-1.82-13.68-8.06,4.73-9.08,8.29-1.6,5.59-4.17,16.09-2.65,21.55.9,3.21,5.28,8.15-.74,9.18-4.35-.41-8.72-.82-13.08-1.1-2.44-.15-8.39.19-10.22-.79-3.65-1.97.15-5.42,1.04-7.93,1.43-4.01-1.29-10.76-2.63-14.79-1.31-3.95-6.01-17.55-9.06-19.61-2.65-1.78-3.25,4.79-3.34,6.3-.48,7.89.11,20.42,2,28.06.55,2.22,1.87,4.34,1.35,6.7-.29.94-2.06,1.72-2.99,1.82-2.22.24-4.85.12-7.11.23-1.92.09-7.48,1.39-8.1-1.31-.43-1.87,1.94-6.63,2.5-8.87,2.8-11.13,2.69-34.32-.66-45.27-.67-2.19-2.55-5.13-2.08-7.23.22-.97,1.94-2.01,2.87-2.17,3.1-.52,7.57-.57,10.8-.68Z"/>
      <path d="M296.05,223.96c.57.58,1.64.02,2.22-.3,3.31-1.82,6.52-5.48,10.33-7.56,8.11-4.43,20.81-5.66,26.03,3.58,5.73,10.13-4.27,18.02-13.18,9.96-1.77-1.6-4.36-5.57-6.76-5.86-1.94-.23-3.89.7-5.55,1.57-1.33.7-6.71,4.02-6.71,5.43,0,2.26,3.52,1.08,4.69,1.03,6.1-.24,14.16,1.09,17.5,6.81,3.06,5.23,1.99,11.41,2.57,17.15.72,7.15,3.74,13.81,5.45,20.71.15,1.43-.9,2.26-2.18,2.51-6.47-.84-13.72-1.65-20.07-3.22-7.02-1.74-3.67-5.81-2.54-10.66,1.03-4.42.94-7.85.98-12.33.04-4.41.74-7.66-2.85-11.12-3.03-2.92-10.94-6.15-11.59.36-.55,5.44.53,14.85,1.76,20.25.5,2.19,1.82,5.19,2.08,7.1.37,2.74-.83,3.37-3.44,3.21-6.2-1.79-13.37-2.44-19.45-4.41-1.74-.56-3.88-1.98-3.62-4.07.17-1.38,2.28-4.71,2.87-6.55,3.33-10.41,3.02-33.46.13-44.03-.69-2.52-2.23-5.22-2.8-7.52-.59-2.39.53-3.09,2.82-3.3,6.28,2.01,14.1,2.5,20.21,4.58.99.34,2.92,1.47,3.24,2.5.96,3.13-2.11,8.89-2.4,12.31-.04.51-.11,1.49.26,1.86Z"/>
      <g>
        <path d="M427.87,136.48c30.34-1.79,31.08,32.74,17.21,51.61-15.28,20.78-47.76,21.15-53.94-7.22-5.4-24.78,12.82-42.97,36.73-44.38ZM421.66,146.55c-2.21.41-4.04,3.06-4.87,5-3.32,7.81-3.43,30.23-.23,38.06,2.82,6.9,7.81,5.63,10.47-.53,3.5-8.09,3.94-30.97.39-38.99-1.17-2.64-2.64-4.11-5.76-3.53Z"/>
        <g>
          <path d="M77.54,133.71c-.29-.21-.63-.24-.98-.28-2.16-.24-7.65,1.14-9.99,1.72-1.64.41-3.35.7-4.8,1.62l-.37.55c-.1,7.29-.18,15.72,2.42,22.61.54,1.43,2.28,4.08,2.48,5.1.27,1.36-.68,2.49-1.71,3.23-1.93,1.39-10.6,3.21-13.56,4.11-2.16.65-8.78,3.37-10.46,3.26-4.08-.27-.4-6.31.31-8.58,3.45-10.94,4.44-37.97-.27-48.36-1.01-2.24-3.11-3.92-1.35-6.46,1.57-2.25,6.39-3.45,9-4.3,3.16-1.04,13.14-4.35,15.89-4.07,4.31.44.64,6.18-.12,8.59-1.57,4.94-2.4,10.55-2.19,15.73.16.23.45.2.69.23,1.4.17,10.64-1.89,12.52-2.42.95-.27,2-.45,2.42-1.48.21-4.85.09-10.78-1.99-15.24-1.21-2.59-4.45-4.93-.96-7.44,1.73-1.25,6.84-1.73,9.17-2.07,3.71-.54,8.44-1.29,12.12-1.42,2.6-.09,5.23.19,4.66,3.51-.33,1.92-2.22,5.14-2.86,7.46-3.28,11.8-3.17,34.76,1.08,46.27.94,2.55,3.7,5.72-.02,7.54-2.03.99-9.23,1.19-11.99,1.55-2.74.35-9.68,1.98-11.91,1.52-3.72-.76-.69-4.79.1-6.67,2.36-5.67,3.02-12.71,3.18-18.83.03-1.26.19-6.22-.52-6.95Z"/>
          <path d="M137.19,98.64c21.09-1.86,36.93,13.56,38.14,34.21,1.47,25.18-19.56,36.72-42.05,28.97-30.86-10.63-27.37-60.42,3.91-63.17ZM142.93,107.79c-5.86.59-6.86,11.85-7.07,16.34-.35,7.32-.46,23.53,4.18,29.33,2.38,2.98,5.66,2.73,7.77-.41,4.48-6.7,4-27.34,2.45-35.26-.69-3.56-2.5-10.48-7.32-9.99Z"/>
        </g>
      </g>
      <path d="M346.18,294.25c2.5-.51,8.33.65,11.19.86,6.88.52,13.78.46,20.64.92,27.8,1.85,28.76,41.61,14.23,58.48-6.34,7.35-10.94,6.93-19.96,6.65-7.55-.23-16.67-.4-24.06-1.63-6.82-1.14-3.25-5.49-1.8-9.32,3.95-10.49,3.72-33.91.86-44.78-.76-2.9-2.12-5.56-3.11-8.37-.26-1.29.77-2.56,2.01-2.82ZM368.66,304.33c-1.22.73-1.66,2.16-1.78,3.5.64,12.93-.82,26.62,0,39.46.09,1.35.42,4.52,1.63,5.25,4.43,1.33,7.7-3.17,9.27-6.75,4.1-9.37,4.44-26.86-.53-35.92-1.74-3.18-4.6-6.24-8.6-5.53Z"/>
      <path d="M212.66,188.29c.64-.13,1.31-.08,1.95,0,8.16,1.06,17.17,4.67,25.41,6.02,2.53.95,3.48,2.06,3.21,4.82-.09.9-.57,1.6-.67,2.31-.73,4.9,4.24,22.25,5.79,27.9,1.89,6.91,4.08,15.39,7.08,21.82,1.45,3.11,4.95,7.31,4.66,10.73s-4.57,1.5-6.76,1c-5.39-1.22-12.42-2.57-17.53-4.26-2.05-.68-3.78-2.08-3.33-4.45.23-1.2,2.27-2.31,2.64-3.55.63-2.13-.85-7.73-1.38-10.1-.36-1.58-1.51-7.04-2.31-8.02-.94-1.15-4.58-1.76-6.11-2.15-1.89-.47-5.41-1.5-7.2-1.54-.91-.02-1.56.44-1.98,1.22-.93,1.71-2.27,6.58-2.82,8.65-.48,1.82-1.25,4.19-1.01,6.06.35,2.71,4.02,4.95,1.9,7.67-.87.61-1.91.56-2.92.46-2.69-.25-10.47-1.92-13.04-2.79-1.14-.39-2.48-1.34-2.69-2.58-.65-3.82,3.45-5.75,5.22-8.51,2.65-4.14,5.24-12.31,6.93-17.16,2.12-6.07,5.04-14.02,6.12-20.25.83-4.77-1.08-5.43-2.4-9.39-.53-1.6-.99-3.44,1.26-3.9ZM224.87,205.45c-.92-.63-1.98,2.3-2.23,2.91-.74,1.8-3.53,9.72-3.26,11.17.09.49.46.75.84,1,1.13.74,7.24,2.24,8.41,1.84.93-.57.45-1.63.27-2.49-.77-3.62-2.07-8.41-3.16-11.97-.26-.84-.56-1.65-.86-2.46Z"/>
      <g>
        <path d="M350.31,216.73c2.16-.4,6.08.47,8.44.63,5.78.39,11.66.79,17.42.93,4.44.11,10.51-.56,14.67.01,5.55.76,8.45,14.18,5.64,18.21-1.17,1.68-2.98,1.97-4.91,1.7-3.4-.49-4.61-7.81-7.18-9.1-1.43-.72-5.38-.62-7.07-.52-1.15.07-3.24.2-4.01,1.04-.33.36-.52.93-.67,1.39-.7,2.15-1.78,9.35-1.86,11.67-.04,1.11.02,2.24.8,3.11,1.07.98,7.18,1.19,8.57.76s1.86-2.43,3.15-2.59c2.01-.26,2.7,2.69,2.84,4.24.19,2.09.2,8.66-3.28,7.63-1.95-2.41-3.11-2.84-6.24-2.7-2.38.11-5.53.46-5.85,3.32-.31,2.72,1,11.25,1.71,14.11.27,1.08.4,1.71,1.54,2.13,1.44.54,8.26.62,9.78.23,2.25-.58,3.83-5.55,5.13-7.49.69-1.03,1.25-1.72,2.48-2.11,9.51-3.02,6.1,14.38,1.97,18.48-1.91,1.89-3.39,1.44-5.74,1.6-6.88.46-14.4.15-21.34-.23-3.18-.17-14.11-.63-16.38-1.74-.67-.33-1.24-.93-1.74-1.47-.76-1.8,1.45-4.79,2.12-6.59,3.94-10.56,3.71-35.28.63-46.16-.59-2.07-2.71-5.89-2.87-7.45-.05-.44-.01-.9.06-1.33.2-.88,1.35-1.56,2.18-1.71Z"/>
        <path d="M327.83,136.01c3.23-.52,12.39,1.53,16.26,1.98,7.83.92,15.72,1.61,23.59,2.1,7.15.45,12.39-1.26,14.51,7.51.82,3.4,1.09,10.34-3.95,10.36-6.29.03-3.97-10.65-11.68-9.61-3.39.46-4.52,5.81-4.92,8.61-1.46,10.07-.54,29.04,2.43,38.79.5,1.63,2.23,5.1,2.3,6.42.15,2.68-2.98,2.87-4.89,2.82-5.35-.15-13.53-.92-18.78-1.87-1.7-.31-4-1.3-4.06-3.3-.05-1.64,1.17-3.02,1.74-4.48,3.9-10.05,4.37-31.19,2.34-41.78-.8-4.2-2.25-9.03-7.6-8.2-3.2.5-3.23,7.69-7.37,7.79-8.14.19-6.44-16.11.07-17.15Z"/>
      </g>
      <g>
        <g>
          <path d="M468.06,291.67v3.21c-1.05,5.21-5.39,11.1-10.96,11.87-7.39,1.01-8.86-8.78-13.72-9.56-3-.48-9.62,1.97-9.69,5.6-.1,5.02,6.27,7.46,10.16,8.84,4.37,1.55,8.97,2.51,13.31,4.12,4.86,1.8,9.81,4.29,10.89,9.87-.1,1.33.14,2.83,0,4.13-.63,5.9-5.51,12.19-9.99,15.82-8.72,7.07-28.49,14.46-38.95,8.45-9.92-5.71-3.25-20.4,7.51-18.97,5.62.75,8.47,10.83,13.33,11,2.36.08,7.44-2.35,8.32-4.76,2.5-6.88-10.04-9.8-14.46-11.59-9.74-3.95-22.33-9.03-19.06-22.15,3.07-12.34,23.72-18.55,34.68-20.84,6.13-1.28,16.4-2.82,18.63,4.97Z"/>
          <path d="M262.92,277.96c.76-.07,1.39.16,2.11.29,6.72,1.27,13.32,3.45,20.06,4.72,4.27,1.31,4.39,6.54,5.47,10.13,2.66,8.87,6.37,18.91,10.83,27.02.71,1.29,3.63,6.67,4.87,6.85l.52-.07c.43-.26.65-2.37.7-2.98.57-8.05-.25-20.11-2.75-27.77-.61-1.88-3.11-6.1-2.05-7.77l2.81-1.04c6.62,1.8,13.99,2.15,20.57,3.76,3.04.74,4.87,2.38,3.55,5.62-.98,2.4-2.09,4.15-2.8,6.83-2.96,11.27-2.59,32.4.79,43.57.5,1.64,2.69,6.18,2.49,7.4-.26,1.65-1.98,2.01-3.43,2.04-6.65-1.49-14.03-2-20.57-3.76-5.12-1.38-4.95-6.87-6.26-11.17-2.78-9.18-7.51-21.74-12.69-29.75-1.91-2.96-3.64-5.56-4.01.09-.55,8.44.52,20.66,3.22,28.68.98,2.91,4.39,7.77-1.43,7.62-6.55-2.02-14.38-2.68-20.77-4.92-1.45-.51-3-1.4-3.48-2.94-.04-.51-.07-1.03.04-1.54.27-1.29,2.02-4.01,2.58-5.68,3.64-10.93,3.1-33.06.24-44.25-.58-2.27-2.74-6.62-2.88-8.37-.12-1.63.65-2.43,2.25-2.59Z"/>
        </g>
        <g>
          <g>
            <path d="M112.64,253.21c2.4-.05,5.13-.24,7.5-.06,13.52,1,22.95,17.56,13.43,28.56-.96,1.11-3.63,3-4.15,3.88-.92,1.57,1.98,3.59,2.88,4.71,4.9,6.09,7.43,16.27,9.64,23.85.6,2.08,1.1,4.35-1.71,4.95-2.48.52-6.64-.25-9.29-.37-2.44-.11-8.19.24-10.14-.64-3.55-1.6-.46-5.98.45-8.58,1.99-5.68,3.62-13.74-1.92-17.93-3.72-2.81-11.39-3.62-11.92,2.49-.36,4.22.5,11.3,1.9,15.32.6,1.73,2.63,4.58,2.88,5.84.39,1.96-1.83,3.27-3.53,3.47-3.26.4-7.15.22-10.53.49s-7.24,1.12-10.34,1.15c-1.58.02-3.39-.82-3.33-2.64.78-2.72,2.11-5.19,2.88-7.92,3.18-11.2,3.48-36.02-.92-46.78-.87-2.13-3.1-4.54-1.15-6.67,1.01-1.1,2.54-1.36,3.94-1.57,7.34-1.1,15.99-1.41,23.44-1.57ZM111.02,259.84c-.76.17-1.62,1.24-1.97,1.93-1.55,3.04-1.45,12.19-1.15,15.77.34,3.97,1.72,4.07,4.94,2.25,4.65-2.64,5.77-7.92,4.79-12.89-.59-2.99-2.8-7.93-6.62-7.05Z"/>
            <path d="M65.38,258.93c2.39-.3,3.57.07,5.06,1.93,3.47,4.33,5.55,17.46-2.6,17.75-4.43.15-4.47-7.41-8.26-7.6-1.43-.07-7.22,1.7-8.62,2.42-1.54.78-2.04,1.63-2.45,3.29-.54,2.21-2.14,11.79-1.8,13.59.08.4.16.84.45,1.16,1.06.84,7.01-.95,8.33-1.59,2.39-1.16,2.56-4.46,5.25-3.5,2.22,1.82,1.66,10.22-.5,11.46s-2.45-1.23-4.13-1.34c-2.35-.16-8.9,2.54-9.44,5.2-.66,3.25,1.18,11.14,2.08,14.56.83,3.18,2.31,6.06,2.91,9.22-.06.56-.76,1.65-1.17,2.06-1.78,1.83-8.93,3.7-11.73,4.78-2.56.99-10.92,4.97-12.9,5-.87.02-1.49.02-1.91-.86-.47-1.61,1.27-4.52,1.79-6.14,3.29-10.18,3.63-22.6,3.21-33.27-.19-4.77-.81-11.73-2.72-16.08-1.54-3.51-4.42-5-.04-8.45,2.29-1.81,9.09-4.18,12.1-5.33,7.26-2.76,19.61-7.32,27.07-8.25Z"/>
          </g>
          <g>
            <path d="M199.13,263.06c.4-.04.62-.03,1.01,0,4.17.33,10.77,2.3,15.1,3.27,7.26,1.62,16.22,3.24,23.17,5.51,4.11,1.34,6.01,5.5,7.05,9.47.72,2.75,2.22,11.17-1.91,11.72-6.73.9-6.74-8.64-10.25-11.5-1.44-1.18-9.02-2.89-10.74-2.36l-.68.46c-.16.17-.25.37-.34.58-.64,1.5-1.86,9.47-1.96,11.34-.07,1.47-.1,3.33,1.3,4.22,1.02.64,6.58,2.14,7.76,2.11,2.06-.07,2.19-2.7,4.34-1.58,2.42,1.26,2.41,8.83,1.16,10.96-1.78,3.03-3.69-1.58-4.92-2.38-1.51-.98-6.62-1.86-8.25-1.16-1.17.51-1.64,2.23-1.61,3.43.06,3.1,1.09,8.45,1.64,11.68.4,2.36.48,3.33,2.84,4.27,1.24.5,7.6,2.13,8.7,2.05,3.34-.24,4-7.8,7.99-7.73,8.06.14,6.39,13.36,2.93,17.71-1.01,1.26-2.51,2.35-4.21,2.16-6.94-1.6-13.85-3.31-20.79-4.91-5.71-1.32-12.19-2.27-17.72-3.85-1.4-.4-2.82-1.06-3.68-2.28-.88-2.18,1.51-5.04,2.29-7.22,1.99-5.55,2.12-11.54,2.35-17.37.37-9.25.47-19.63-2.13-28.6-.66-2.28-3.07-6.51-2.68-8.55.23-.91,1.38-1.35,2.24-1.44Z"/>
            <path d="M157.6,255.95c1.19-.19,3.41.28,4.73.44,4.92.59,12.22,1.38,16.86,2.64,1.81.49,3.63,2.12,3.68,4.12.04,1.43-2.22,5.26-2.79,7.03-3.51,10.74-3.1,33.06-.05,43.98.64,2.3,1.91,4.53,2.52,6.66.23.81.51,1.72-.01,2.5-.5.81-1.83,1.08-2.72,1.17-4.59-.82-9.21-1.54-13.82-2.26-2.55-.4-7.83-.52-9.69-2.01-2.69-2.15.19-5.43,1.13-8,3.89-10.66,3.66-34.62.62-45.58-.57-2.04-2.81-6.36-2.92-7.87-.05-.67-.01-1.33.46-1.84.34-.39,1.5-.89,2.01-.97Z"/>
          </g>
        </g>
      </g>
    </g>
  </g>
</svg>