<?xml version="1.0" encoding="UTF-8"?>
<svg id="Layer_1" data-name="Layer 1" xmlns="http://www.w3.org/2000/svg" viewBox="0 0 491.98 486.46">
  <g id="Sj1OHt">
    <g>
      <path d="M420.99,67.92v355.32H65.67V67.92h355.32ZM332.84,311.02v-18.8c0-1.07-1.33-5.12-1.8-6.33-5.69-14.55-22.09-18.08-36.17-15.4-12.09,2.3-20.54,11.37-21.31,23.82-1.44,23.02,1.11,47.54.02,70.71,1.73,29.45,49.98,32.52,58.14,5.8.29-.94,1.12-3.82,1.12-4.59v-18.8h-20.76v17.9c0,.25-.75,2.27-.94,2.67-1.66,3.51-6.13,4.75-9.72,3.78-4.03-1.08-5.36-5.07-5.6-8.84,1.11-21.97-1.42-45.31,0-67.12.41-6.25,3.32-10.06,10.01-9.08,3.04.44,6.25,3.56,6.25,6.69v17.6h20.76ZM117.72,271h-20.76l20.29,116.15,17.6.27,11.89-61.66,11.76,61.7,17.58-.02,20.16-116.44h-20.76l-9.77,64.4-1.06-.02-10.36-64.4-15.8.03-9.95,64.36-1.47-.03-9.36-64.35ZM202.56,387.44c12.17-.38,24.76.99,36.76-1.3,24.69-4.71,24.27-24.37,24.9-45.2.38-12.4.74-25.85-.59-38.2-2.77-25.62-14.33-30.85-38.65-31.76h-22.43v116.45ZM360.82,369.99h-21.66v17.45h21.66v-17.45Z"/>
      <path d="M225.13,370.29v-82.14c3.38.51,6.81,0,9.95,1.64,6.26,3.26,5.74,15.61,5.99,21.69.47,11.78.47,23.7,0,35.48-.34,8.5.65,23.33-11.57,23.33h-4.36Z"/>
    </g>
  </g>
</svg>