<?xml version="1.0" encoding="UTF-8"?>
<svg id="Layer_1" data-name="Layer 1" xmlns="http://www.w3.org/2000/svg" viewBox="0 0 491.98 486.46">
  <path d="M371.02,264.58c10.84,0,18.12-8.46,18.12-21.03s-7.27-21.03-18.12-21.03-18.12,8.46-18.12,21.03,7.27,21.03,18.12,21.03Z"/>
  <path d="M277.91,118.05h-7.8v14.02h7.8c4.5,0,7.54-2.78,7.54-7.01s-3.04-7.01-7.54-7.01Z"/>
  <path d="M252.91,222.53c-10.84,0-18.12,8.46-18.12,21.03s7.27,21.03,18.12,21.03,18.12-8.46,18.12-21.03-7.27-21.03-18.12-21.03Z"/>
  <path d="M118.14,332.44c0-4.63-3.17-7.8-7.8-7.8h-6.88v15.61h6.88c4.63,0,7.8-3.17,7.8-7.8Z"/>
  <path d="M368.11,392.21c-1.06,0-1.98-.93-1.98-1.85v-34.65l-29.23-52.63c-.66-1.19.27-2.12,1.45-2.12h27.51c1.32,0,2.51.93,3.04,2.12l10.84,23.8,10.84-23.8c.53-1.19,1.72-2.12,3.04-2.12h27.51c1.19,0,2.12.93,1.45,2.12l-29.23,52.63v16.41c30.15-34.45,48.46-79.52,48.46-128.89s-16.53-90-44.06-123.74l-11.41,18.26,28.17,46.15c.66.93.13,1.59-.93,1.59h-30.68c-.93,0-2.25-.66-2.78-1.59l-16.4-33.06v32.8c0,.93-.79,1.85-1.98,1.85h-23.41c-.93,0-1.85-.93-1.85-1.85v-87.41c0-1.06.93-1.98,1.85-1.98h23.41c1.19,0,1.98.93,1.98,1.98v29.62l14.36-27.17c-34.83-31.85-81.2-51.3-132.12-51.3-56.19,0-106.82,23.7-142.53,61.61v52.7h24.6c.93,0,1.72.79,1.72,1.85l-1.85,20.1c-.13.93-1.06,1.85-2.12,1.85h-47.74c-1.06,0-1.98-.93-1.98-1.85v-37.76c-16.47,28.68-25.94,61.9-25.94,97.35s9.47,68.66,25.94,97.35v-37.63c0-1.06.93-1.98,1.85-1.98h31.21c23.14,0,37.03,12.56,37.03,31.47s-13.89,31.47-37.03,31.47h-5.42v13.83c35.7,37.74,86.21,61.33,142.27,61.33,48.49,0,92.84-17.66,127.04-46.86h-4.92ZM180.56,287.33c0,.93-.79,1.85-1.85,1.85h-24.47c-1.06,0-1.98-.93-1.98-1.85v-38.88l-13.36,38.75c-.4,1.06-2.12,1.98-3.31,1.98h-14.55c-1.19,0-2.91-.93-3.31-1.98l-13.36-38.75v38.88c0,.93-.93,1.85-1.98,1.85h-24.47c-1.06,0-1.85-.93-1.85-1.85v-87.41c0-1.06.79-1.98,1.85-1.98h27.64c1.72,0,3.7,1.19,4.5,2.64l18.25,50.52,18.25-50.52c.79-1.45,2.78-2.64,4.5-2.64h27.64c1.06,0,1.85.93,1.85,1.98v87.41ZM147.77,151.64v-55.15c0-1.19,1.06-2.25,2.25-2.25h22.74c1.32,0,2.25,1.06,2.25,2.25v57.53c0,6.08,3.44,9.65,9.26,9.65s9.26-3.57,9.26-9.52v-57.66c0-1.19,1.06-2.25,2.25-2.25h22.75c1.32,0,2.25,1.06,2.25,2.25v55.15c0,23.41-12.56,35.71-36.5,35.71s-36.23-12.3-36.5-35.71ZM280.29,390.36c0,.93-.79,1.85-1.98,1.85h-24.73c-1.06,0-1.85-.93-1.85-1.85v-29.62h-18.51v29.62c0,.93-.79,1.85-1.98,1.85h-24.73c-.93,0-1.85-.93-1.85-1.85v-87.41c0-1.06.93-1.98,1.85-1.98h24.73c1.19,0,1.98.93,1.98,1.98v34.51h18.51v-34.51c0-1.06.79-1.98,1.85-1.98h24.73c1.19,0,1.98.93,1.98,1.98v87.41ZM252.91,291.03c-28.17,0-46.95-19.04-46.95-47.48s18.78-47.74,46.95-47.74,46.95,19.04,46.95,47.74-18.78,47.48-46.95,47.48ZM316.79,185.5h-28.3c-1.32,0-2.51-.93-3.04-2.12l-13.75-28.83h-1.59v29.09c0,.93-.93,1.85-2.12,1.85h-23.27c-1.06,0-1.98-.93-1.98-1.85v-87.41c0-1.06.93-1.98,1.98-1.98h34.91c20.37,0,33.85,11.9,33.85,29.89,0,10.45-6.35,21.03-16.27,25.26l21.03,33.99c.66,1.19-.26,2.12-1.45,2.12ZM371.02,195.82c28.17,0,46.95,19.04,46.95,47.74s-18.78,47.48-46.95,47.48-46.95-19.04-46.95-47.48,18.78-47.74,46.95-47.74Z"/>
</svg>