<?xml version="1.0" encoding="UTF-8"?>
<svg id="Layer_1" data-name="Layer 1" xmlns="http://www.w3.org/2000/svg" viewBox="0 0 491.98 486.46">
  <path d="M155.07,406.32l3.57-3.55,2.7-6.32-.23-1.54,3.16-8.04h1.16s1.86-4.33,1.86-4.33l1.64-.47.3-.7,1.83-1.07,1.22.52,4.4-1.96.47-1.1.98.28.96-.96,4.1-1.41.54-.94,4.44-.3,1.97.84,2.14,1.74.49,1.58,3.24,3.17,1.35,3.25,4.58,1.96.17.89.82-.47,3.94,1.68.34.97.19,1.8-.25,1.88-.8.27-2.43,5.68-2.77,2.79-1.92,4.66-.88.45-3.02,7.55-.73,2.84-.93,2.82-1.85,3.53-.97.34-1.64,5.13-1.01,3.82-2.34,5.65-2.12,2.25-.61,2.07-.08,6.13-.43,3.25-1.38,2.91-.6.29,1.03,2.56-1.23.64.38.71-.86,2.65-3.14-.04-.56-1.41-2.19-.32.02-1.5-3.32-1.21-4.71.12-3.66-1.22-1.74-.74-1.09-1.63.73-1.4,2.44-4.43,3.16-5.97,2.28-1.49,3.43-7.57,1.64-1.42.08-.99.74-.3.92-2.96-.23-3.11-2.39-.61-5.18,3.55-4.83,1.78-.99-.08-2.8,1.48-2.56-1.23-.76-1.83-3.19-3.69-2.06-3.55.79-3.3,1.49-2.04.93-3.79,1.68-2.98.19-2.53ZM170.88,402.37l.17.55-1.05,3.25-.89.31.34.97-2.54,7.07-.43,1.81-.83,1.77,1.8,1.25.64,3.15.67-1.08,5.49,2.07,2.29-.39,2.05-1.59.33-2.05,1.81-3.75,1.04-1-.27-1.29,2.75-6.76-.07-1.13.55-1.28,2.68-3.06.42-.99-.91-2.73.36-1.16-1.33-1.26-.45-1.23.13-.63-1.37-.04-1.79-1.31-1.53-.31-2.34-.52-.78.7-1.49.73-2.1,4.93-1.39,1.33-1.09,2.55-.89,1.13Z"/>
  <path d="M84.25,362.22c.34-.31.7-.62,1.08-.92.37-.31.78-.53,1.22-.67.44-.14.84-.17,1.19-.09,1.18.25,1.92.35,2.22.31.3-.04.88-.26,1.74-.66.86-.4,1.43-.59,1.73-.57,2.34.28,3.98.94,4.91,1.98.88.98,1.61,1.89,2.21,2.74.6.85.97,1.59,1.11,2.2s.25,1.65.34,3.1c.05.86.25,1.48.59,1.86.56.63,1.18,1.08,1.86,1.36.67.28,1.29.4,1.86.37.57-.03.96-.05,1.17-.07.48-.03.86-.18,1.14-.43.22-.2.47-.62.74-1.26.27-.64.52-1.06.74-1.26.34-.31,1.01-.68,1.98-1.1.98-.42,1.67-.82,2.08-1.19.78-.7,1.82-1.75,3.12-3.14,3.86-4.14,6.26-6.64,7.2-7.48.29-.43.58-.86.88-1.29.06-.06.24-.08.54-.06.3.02.48,0,.54-.06.44-.39.86-.77,1.27-1.14.17-.44.43-1.01.76-1.7.6-1.16.85-2.33.75-3.51-.1-1.18-.53-2.2-1.29-3.04-.22-.25-.56-.34-1.01-.28-.99.16-2,.19-3.04.1-.39,0-.87-.06-1.46-.21-1.85-.55-2.92-.83-3.21-.84l-1.13-1.44.13-1.56,3.28-2.95c1.3-.32,2.35-.56,3.16-.72,1.5-.28,3.06-.43,4.67-.46.39,0,1.48.42,3.28,1.29.84.43,1.51.68,2.01.73.5.06,1.02-.12,1.55-.54.53-.42.93-.61,1.21-.58.28.03.64.2,1.09.51.45.31.74.48.89.52.15.04.39-.04.73-.23.34-.19.55-.27.64-.23.68.07,1.34.21,1.99.42.94.29,1.5.54,1.7.76.87.97,1.67,2.43,2.4,4.37.54,1.49,1.09,3.29,1.63,5.4.02.15.22.85.6,2.09.26.79.32,1.52.19,2.2-.11.44-.46,1.16-1.03,2.15-.57,1-1.12,1.9-1.64,2.7-.25.79-.44,1.33-.58,1.62-.13.29-.36.58-.67.86-.75.05-1.67.25-2.76.61-1.09.36-2.25.99-3.47,1.89-1.22.9-2.95,2.35-5.17,4.34-2.22,1.99-3.69,3.31-4.41,3.96-.12.11-.37.18-.75.21-.37.02-.62.09-.75.21-.16.14-.4.33-.75.58-.34.25-.57.43-.7.54-.28.25-.45.47-.5.67-.05.19,0,.38.17.57s.18.35.02.49c-.88.79-1.65,1.53-2.33,2.22-2.03,2.08-3.08,3.15-3.14,3.2-.06.06-.26.09-.59.1-.33.01-.54.06-.63.14-.43.33-.82.75-1.17,1.25-.34.5-.67.95-.99,1.35-.32.4-.55.67-.71.81-.38.34-.64.58-.8.72-.22.2-.37.44-.46.72-.09.28.12.96.63,2.03.25.54.38.89.37,1.08.03.79-.03,1.46-.18,2.01-.16.55-.53,1.09-1.13,1.63-.19.17-.73.29-1.63.36-.54.03-.94.11-1.22.25-.56.39-1.13.76-1.71,1.11-.57.06-1.17.12-1.82.19-.64.07-1.26.09-1.86.06l-2.16-.52c-.15.02-.48.12-1,.3-.52.18-.85.25-.99.21-.68-.12-1.4-.42-2.16-.9-.76-.47-1.34-.93-1.73-1.37-.14-.16-.23-.38-.26-.66-.03-.28-.01-.74.05-1.36-.34-.94-.6-1.72-.79-2.34-.19-.62-.26-1.06-.22-1.33.06-.62.57-1.78,1.52-3.48.46-.81.78-1.47.95-2,.18-.52.22-1.03.15-1.53-.08-.49-.4-1.05-.96-1.68-.42-.47-1-.8-1.74-.98-.97-.26-2.42-.29-4.34-.08-.7.29-1.41.59-2.11.88-.42.04-.81.08-1.17.12-.36.04-.9.04-1.62,0-.17-.13-1.3-.75-3.39-1.87-.9-.49-1.74-1.18-2.53-2.05-.16-.81-.29-1.49-.38-2.03-.24-1.65-.27-3.23-.1-4.74.2-.47.41-.93.61-1.4,0-.06-.08-.28-.25-.66-.17-.38-.26-.6-.25-.66.42-1.11,1.17-2.15,2.27-3.14Z"/>
  <path d="M89.22,260.44c.9.11,1.77.17,2.62.18.85.01,1.68-.09,2.5-.3.37-.1.98-.33,1.84-.68.86-.36,1.5-.59,1.9-.7.45-.12.81-.15,1.08-.09.28.06.58.46.9,1.19.33.74.62,1.14.87,1.2.25.06.68.08,1.29.05.6-.03,1,.02,1.21.14.52.34.97.82,1.33,1.44.36.62.64,1.32.85,2.09.45,1.71.48,3.11.08,4.22-.31.78-1,1.72-2.05,2.83-.62.77-1.08,1.33-1.38,1.67-.6.68-1.14,1.13-1.6,1.34-.47.21-.82.35-1.06.41-.61.16-1.17.28-1.67.35-.5.07-1.14.14-1.9.21-.28.08-.48.15-.59.22-.91.5-1.55,1.02-1.93,1.56-.38.54-.45,1.25-.21,2.14.31,1.18,1.3,2.2,2.97,3.06.25.11,3.44,1.15,9.57,3.13.86.29,1.71.59,2.55.89.84.3,1.56.69,2.17,1.18,1.58,1.36,2.66,3.14,3.24,5.33.13.49.05,1.27-.23,2.34-.28,1.08-.68,2.42-1.21,4.04-.06.93-.12,1.84-.19,2.73-.06.1-.4.2-1.04.28-.63.08-.98.17-1.04.28-.85,1.53-1.71,2.8-2.57,3.81-1.03,1.19-2.08,1.92-3.13,2.2-.56.02-1.01.05-1.34.1-2.62.13-4.52.27-5.7.41-1.18.14-2.47.37-3.86.7-1.39.33-2.32.51-2.79.55-.32.09-.59-.03-.81-.34-.21-.31-.38-.45-.5-.42-.53.61-1.11,1.12-1.74,1.55-1.06.75-2.37,1.46-3.94,2.13-.33.22-.62.38-.85.48-.69.35-1.4.63-2.13.82-.45.12-.79.21-1.04.28-.28.08-.66-.07-1.13-.45-.47-.37-.85-.54-1.15-.51l-3.11.83c-.16.04-.32.17-.48.39-.38.54-.63.82-.75.85l-4.75,1.26c-.2.05-.36-.12-.47-.53-.1-.37-.25-.52-.45-.47-.41.11-1.27.71-2.59,1.8-1.32,1.09-2.28,1.72-2.89,1.88-.48.17-.86.29-1.14.37-.57.15-.99.23-1.27.24-.28,0-.73-.06-1.36-.19-.62-.14-1.56-.59-2.8-1.34-1.66-1-2.62-1.56-2.9-1.71-.28-.14-.8-.3-1.56-.47-.76-.17-1.26-.4-1.49-.71-.23-.31-.43-.75-.58-1.31-.14-.53-.25-1.01-.32-1.45-.07-.44-.14-.86-.21-1.28-.39-1.46-.25-3.24.41-5.33-.31-1.18-.24-1.87.23-2.08.47-.21.73-.43.8-.67.68-1.7,1.38-2.91,2.1-3.62.55-.54,1.28-.93,2.17-1.16.51-.22,1.35-.23,2.54-.02,1.19.21,2.04.46,2.55.76,1.59.92,4.12,1.33,7.56,1.22,3.45-.11,7.35-.75,11.69-1.9.37-.1.58-.15.64-.17.06-.02.11-.03.15-.04,1.67-.44,3.3-1.04,4.9-1.79,1.6-.75,3.16-1.65,4.66-2.71.14-.12.52-.08,1.14.12.62.21,1,.25,1.14.12,1.04-.84,1.79-2.03,2.25-3.57.46-1.54.54-2.89.22-4.07-.28-1.06-.83-1.93-1.64-2.63-.82-.7-1.87-1.26-3.16-1.7-.38-.12-.81-.58-1.28-1.39-.48-.81-3.41-.5-8.82.94-1.59.07-3.43.24-5.51.49-2.09.25-3.58.49-4.47.73-2.11.56-4.34,1.39-6.68,2.49-2.34,1.1-3.89,2.01-4.65,2.74-.7,1.14-1.72,2.35-3.08,3.62-.42.37-1.03.88-1.81,1.53-.51.05-.89.08-1.15.11-1.7-.03-2.56-.54-2.56-1.54-.15-.09-.52-.39-1.08-.89-.57-.5-1.02-.8-1.34-.88-.92-.19-1.87-.4-2.84-.62-.75-.37-1.47-.98-2.15-1.84-.69-.86-1.15-1.74-1.38-2.63-.14-.53-.16-1.07-.07-1.61.09-.55.19-1.14.28-1.77-.08-.28-.38-.46-.93-.54-.07-.76-.06-1.53.04-2.29,0-.13.05-.3.13-.49.61-1.64,1.57-3.23,2.87-4.78,1.31-1.54,3.08-2.61,5.31-3.21,1.06-.28,2.35-.31,3.89-.09,1.54.22,3.06.13,4.56-.27.46.27,1.02.36,1.67.27.65-.09,1.27-.18,1.85-.29.71.38,1.47.51,2.29.4.82-.11,1.5-.2,2.04-.28.54-.08,1.09-.1,1.65-.05.56.05.94.04,1.14,0,.21-.01.45-.17.72-.48.27-.31.46-.48.58-.51l3.34-.69c.16-.04.3.07.42.35.12.27.28.38.48.33.16-.04.39-.26.68-.64.29-.38.54-.6.74-.65.23-.1.57-.22,1.02-.34.37-.1.87-.21,1.51-.34.64-.13,1.08-.22,1.33-.29.57-.15,1.06-.37,1.46-.65.84-1.27,1.64-2.17,2.41-2.73.4-.28,1.19-.68,2.35-1.21.95-.69,1.86-1.28,2.73-1.77.87-.49,1.83-.88,2.89-1.16Z"/>
  <path d="M52.12,191.3c.7.12,1.41.4,2.14.83.73.43,1.4.83,2.01,1.19.16.07.65.24,1.46.52.82.27,1.33.58,1.52.91.44.63.69,1.35.76,2.15.07.8.03,1.62-.12,2.44-.13.7-.35,1.64-.66,2.8-.31,1.16-.49,1.82-.52,1.99-.16.91-.1,1.69.19,2.34.29.65,1.32,1.32,3.1,2.03,1.77.7,4.92,1.45,9.43,2.26,1.78.32,5.23.7,10.36,1.14,1.68.17,4.08.37,7.2.58.65-.27,1.13-.55,1.47-.86.33-.3.53-.64.6-1.01.01-.08.01-.49,0-1.22-.02-.73.01-1.32.09-1.78-.33-.78-.68-1.59-1.04-2.43-.2-.55-.28-.97-.22-1.26.04-.21.14-.4.3-.59.28-.59.83-1.15,1.65-1.69.63-.4,1.15-.6,1.58-.61l3.3.52c1.53.27,2.97.91,4.33,1.93.86.71,1.64,1.47,2.35,2.28.53.61,1.13,1.42,1.81,2.44.64.71,1.08,1.22,1.33,1.52.46.51.77,1.08.91,1.7.08.27.06.83-.05,1.69-.11.86-.2,1.73-.27,2.61.21.51.42,1.01.62,1.52l-1.52,3.51c-.27.81-.52,1.61-.75,2.43-.32.84-.72,1.66-1.21,2.47-.26.51-.63,1.02-1.11,1.53-.22.26-.95,1.01-2.19,2.23-.25.21-.65.44-1.21.68-.56.24-.87.4-.95.47-.08.07-.29.27-.65.59-.36.32-.78.44-1.28.35-.65-.41-1.21-.75-1.68-1-1.48-.82-2.92-1.48-4.32-1.99-.56-.44-1.12-.9-1.67-1.39-.12-.02-.35.04-.68.2-.33.16-.57.22-.74.19-.16-.07-.42-.14-.8-.21-.83-.11-1.48-.2-1.94-.28l-.62-.11c-.24-.08-.51-.03-.8.18-.29.2-.56.26-.8.18l-1.46-.45c-.12-.02-.28-.35-.47-.98-.07-.31-.19-.48-.36-.51l-9.87-1.76c-.21-.04-.29-.27-.26-.69.03-.42-.05-.65-.26-.69-.08-.01-.34.13-.78.44-1.03.76-1.79,1.15-2.26,1.2-.44.05-.97-.06-1.61-.32-.64-.26-1.02-.41-1.14-.43-.41-.07-.82-.06-1.22.04-2.08.65-4.16,1.29-6.23,1.9-.54.16-.98.36-1.32.6-.63.44-1.1.64-1.39.59l-1.3-.23c-.58-.1-1.24-.24-1.98-.42-.74-.17-1.27-.33-1.61-.48-.34-.15-.74-.6-1.2-1.37-.22-.42-.43-.67-.63-.75-.57-.4-1.23-.85-1.97-1.34-.74-.5-1.58-1.04-2.5-1.63-.4-.16-.72-.26-.97-.3-.67-.08-1.17-.14-1.5-.2-.41-.07-.77-.2-1.08-.39-.12-.02-.21-.36-.27-1.01-.05-.65-.14-.99-.27-1.01-1.22-.81-2.44-1.63-3.66-2.45-.32-.1-.65-.17-.99-.21-.33-.04-.67-.09-1-.15-.54-.1-.99-.3-1.36-.63.02-.85-.35-1.77-1.11-2.76-1.02-1.25-1.58-2.03-1.69-2.35-.09-.19.02-.69.33-1.51.32-.82.46-1.27.44-1.36-.33-1.04-.39-2.14-.18-3.3.1-.54.51-1.04,1.23-1.51.72-.47,1.38-.65,1.96-.55.79.14,1.72.76,2.81,1.85.75.82,1.33,1.42,1.73,1.81.4.39.87.81,1.41,1.24.54.44.92.68,1.12.71.25.04.6-.03,1.07-.23.46-.19.76-.3.89-.32.95-.04,1.65-.24,2.12-.58.47-.34.84-.8,1.11-1.37.27-.57.43-.98.48-1.23.07-.37,0-.93-.21-1.67-.21-.74-.39-1.62-.56-2.63-.16-1.01-.21-1.68-.15-2.01.07-.37.12-.67.16-.9.04-.23.08-.42.11-.59.07-.41.39-.78.96-1.11.68-.48,1.72-.95,3.11-1.43,1.4-.48,2.43-.66,3.08-.54Z"/>
  <path d="M129.31,136.58c.52.36,1.16,1.05,1.93,2.09.77,1.04,1.49,2.14,2.16,3.32.12.19.37.38.74.59.37.2.7.38,1,.54.24.17.39.32.45.46.36.96.58,1.83.66,2.59-.07.41-.15.78-.22,1.11-.07.33.01.81.27,1.44.25.63.33,1.09.23,1.38-.04.28-.33.63-.86,1.05-.54.42-.83.67-.88.74l-1.64,2.39c-.52.76-.95,1.35-1.28,1.76-.33.41-.73.76-1.19,1.06-.46.3-.88.5-1.25.6-.48.03-.86.07-1.16.12-.53.1-1.49.2-2.89.31-1.88.14-3.2.76-3.96,1.87-.52.76-.73,3.08-.61,6.96.12,3.88-.27,6.48-1.18,7.79-1.33,1.94-3.8,2.9-7.4,2.88-4.75-.05-10.11-2.12-16.08-6.21-3.99-2.73-6.61-5.12-7.86-7.15-.99-1.6-1.3-3.34-.93-5.22.07-.26.27-.84.6-1.77.33-.92.47-1.58.43-1.96-.03-1.14-.65-2.13-1.87-2.96-.45-.31-1.18-.5-2.2-.59-.19-.02-.41.05-.66.24-.25.18-.46.27-.61.27-1.03.01-2.37-.06-4.03-.2-1.66-.14-2.56-.22-2.72-.22-1.63-.15-2.69-.27-3.2-.36-1.16-.24-2.12-.62-2.89-1.14-2.6-1.78-3.32-3.52-2.15-5.22.26-.38.65-.79,1.18-1.22.52-.43.88-.74,1.05-.92.22-.25.37-.43.44-.54.64-.94.97-1.74.98-2.43,0-.68-.12-1.29-.39-1.83-.27-.54-.53-1.07-.77-1.6-.29-.91-.57-1.84-.84-2.79-.47-.73-.85-1.29-1.13-1.69-.51-.81-.74-1.45-.67-1.92.1-.9.51-1.86,1.23-2.9,1.35-1.98,2.91-3.38,4.65-4.22.49.03.96.05,1.42.05.59-.26,1.29-.61,2.09-1.05.81-.44,1.57-.87,2.27-1.31.19-.13.58-.42,1.17-.88.59-.46,1.13-1.03,1.6-1.73,1.19-1.73,1.68-3,1.47-3.81.01-.09-.14-.29-.47-.59-.33-.3-.52-.52-.58-.66-.22-.87-.08-1.66.42-2.39.69-1,1.58-1.56,2.68-1.68,1.1-.11,2.08.13,2.95.72.9.62,1.57,1.19,1.99,1.72.43.53,1.11,1.53,2.03,3,.08.11.41.5.98,1.18.58.68.93,1.13,1.06,1.35.13.22.32.67.56,1.36.24.69.47,1.16.68,1.4.21.25.41.57.6.96.4.9.85,1.6,1.35,2.1.5.5,1.2,1.09,2.12,1.76s2.04,1.48,3.4,2.41c.38.26.97.55,1.78.87,1.77.69,2.9,1.2,3.39,1.53.55.38,1.42,1.23,2.61,2.55.61.67,1.12,1.15,1.54,1.44,1.14.78,2.24,1.53,3.29,2.22,1.05.7,2,1.21,2.85,1.53.85.33,1.68.49,2.49.49.92-.08,1.56-.12,1.93-.13,1.06.01,2.23-.28,3.51-.88.92-.44,1.68-.45,2.31-.02ZM93.81,134.18c-.9-.62-1.97-.84-3.21-.67-.18.03-.4.17-.67.42-.27.25-.57.49-.88.73-1.38.38-2.75.74-4.11,1.08-.94.48-1.75.99-2.43,1.54-1,.79-1.8,1.62-2.39,2.49-.05.22-.04.43.03.63.21.66.32,1.08.31,1.28,0,.2-.1.58-.26,1.16-.17.57-.25.95-.24,1.13,0,.18.14.49.4.92.26.44.43.75.49.95.07.2.13.47.2.82s.2.6.41.74c.28.19.59.33.94.41.35.09.85.02,1.51-.19.12-.02.46-.02,1.02.01.56.03,1.03-.02,1.4-.15.37-.13.74-.26,1.11-.39.37-.13.74-.35,1.1-.66.37-.31.74-.67,1.12-1.07.16-.09.7-.05,1.61.11.47.06.81.05,1.03-.06.22-.1.49-.27.81-.51.32-.24.57-.45.74-.64.18-.18.4-.2.67-.04.27.16.48.21.62.16.27-.32.5-.58.67-.76.18-.18.35-.29.53-.33l1.57-2.06c-.32-.42-.66-.86-1.01-1.31-.06-.14-.04-.31.04-.51.08-.2.09-.41.02-.64-.07-.23-.34-.62-.81-1.17-.46-.55-.77-.95-.9-1.19-.03-.02-.23-.44-.6-1.25-.2-.45-.48-.79-.83-1.03ZM108.3,145.95c-.2-.08-.45-.07-.76.05-.31.12-.69.07-1.16-.14-.46-.21-1.2-.45-2.21-.71-1.01-.26-1.88-.41-2.61-.46-.13-.04-.34.1-.65.39-.31.3-.51.44-.6.43-1,.13-1.92.39-2.75.79-.25.14-.56.33-.93.58-.02.03.05.1.23.19.17.09.24.23.19.4-.05.17-.23.48-.54.93-.62.9-.98,1.42-1.07,1.56l.36,1.16c-.01.09-.1.3-.27.62-.17.32-.23.52-.18.6.57.59.95,1.05,1.15,1.36.2.31.59.7,1.17,1.15.59.45.92.73,1,.84.03.33.06.66.1.98.21.14.56.23,1.05.26.49.03.8.06.93.1.31.22.63.43.94.65.31.21.63.43.94.65.56.38,1.1.7,1.62.95.52.25,1.09.41,1.71.48.22.05.44.07.65.06.45-.05.88-.12,1.29-.2.56.08,1.13.15,1.69.23.87.08,1.69.08,2.47,0,.3.16.6.28.89.38.26-.08.5-.28.71-.59.34-.49.55-.81.65-.94.12-.17.34-.49.65-.94.31-.45.55-.8.72-1.05.31-.46.49-.77.53-.94s-.11-.46-.47-.86c-.36-.4-.52-.66-.48-.79.16-1.33,0-2.42-.49-3.27-.2-.45-.61-.88-1.23-1.31-.34-.24-.73-.46-1.17-.67-.44-.21-.88-.43-1.33-.66-.92-.73-1.82-1.48-2.72-2.25Z"/>
  <path d="M177.63,110.47c.36.57.58,1.4.66,2.49.09,1.33-.07,2.75-.47,4.24-.15.79-.36,1.72-.62,2.81-.27,1.08-.51,1.99-.75,2.73-.39.64-.75,1.29-1.09,1.95-.54,0-1.01.13-1.4.37-.18.11-.43.39-.75.83-.14.18-.29.33-.47.44-.32.2-.77.28-1.34.24-1.56-.27-3.08-.53-4.58-.78-.45-.01-.94.04-1.46.17-1.19.4-2.01.66-2.47.8-.38.04-.89.02-1.55-.04-.66-.06-1.07-.06-1.23-.01-.95.3-1.71.52-2.26.67-1.07.27-1.94.35-2.61.22-.19.02-.94-.43-2.25-1.34-.42-.28-1.09-.76-2-1.42-.07-.11-.04-.48.08-1.13.12-.64.22-1.28.3-1.9.08-.62.15-1.09.19-1.42.1-.71.13-1.42.08-2.13-.06-.26-.05-.92.05-2,.1-1.07.05-1.95-.12-2.64-.08-.29-.39-1.02-.92-2.18-.53-1.16-.92-2.08-1.17-2.76-.25-.68-.66-1.67-1.22-2.96-.21-.41-1.16-2.45-2.85-6.1-.07-.11-.21-.19-.43-.25-.59-.13-.92-.24-.98-.35-.29-.31-.5-.56-.61-.73-.16-.25-.35-.65-.59-1.19-.24-.54-.42-.9-.53-1.08-.21-.41-.34-.93-.39-1.54-.15-1.29-.38-2.19-.69-2.69-.8-1.28-1.47-2.23-2-2.84-1-1.06-2-2.14-2.99-3.26-.98-.38-2.22-.37-3.74.03-2.62.69-4.36.34-5.23-1.05-.49-.78-.4-2.01.28-3.67.46-1.08.75-2.03.87-2.85.21-.92.14-2.08-.22-3.47-.35-1.39-.97-2.8-1.87-4.22l-1.24-1.98c-.4-.64-.87-1.37-1.4-2.18-.53-.81-1.19-1.49-1.98-2.04-.32-.2-.9-.32-1.72-.37-.83-.05-1.35-.14-1.57-.25-1.84-.64-3.03-1.13-3.6-1.47-.94-.55-1.73-1.35-2.38-2.38-.18-.28-.05-.91.39-1.88.35-.71.83-1.56,1.46-2.55.08-.35.18-.71.29-1.08.24-.1,1.69-.15,4.36-.15,2.67,0,4.04-.03,4.12-.07,1.64-.48,2.85-.96,3.63-1.45.43-.27.69-.49.77-.67.09-.18.05-.54-.12-1.08-.16-.54-.03-.95.39-1.21.44-.17,1.22-.21,2.34-.12,1.12.09,2.12.36,2.99.81,1.59,1.04,2.99,2.52,4.19,4.45.13.21.08.52-.17.92-.42.76-.67,1.24-.74,1.43-.03.27.1.63.39,1.1.42.68.67,1.13.74,1.36.07.23.13.7.18,1.41.05.71.18,1.28.39,1.69.58.53,1.03.97,1.34,1.32,1.09,1.11,1.85,2.02,2.3,2.73.3.8.6,1.6.91,2.41.3.8.73,1.65,1.29,2.54l2.11,2.55c.49.79,2.03,3.45,4.63,8.01,2.6,4.55,4.53,7.84,5.8,9.88.56.89,1.39,1.98,2.49,3.28,1.11,1.29,1.8,2.17,2.09,2.64.13.21.03.5-.31.87-.34.36-.5.61-.47.74.13.21.47.4,1.02.56.54.16.85.33.93.54.94,1.1,1.87,2.2,2.81,3.3.2.32.4.74.6,1.26.2.52.36.87.47,1.05.13.21.38.41.73.58,1.55.91,2.51,1.42,2.87,1.52.36.1,1.2.08,2.54-.06,1.29-.06,2.38.06,3.29.36.9.3,1.62.88,2.16,1.74Z"/>
  <path d="M228.22,94.98c.13.66.05,1.51-.25,2.56-.38,1.28-1.03,2.55-1.93,3.8-.42.69-.94,1.49-1.57,2.41-.63.92-1.18,1.69-1.66,2.3-.59.46-1.16.94-1.7,1.44-.51-.19-.99-.23-1.44-.14-.21.04-.54.21-.99.51-.19.12-.39.2-.59.24-.37.08-.82,0-1.34-.24-1.36-.8-2.7-1.57-4.01-2.34-.42-.17-.9-.29-1.42-.35-1.25-.05-2.12-.08-2.6-.12-.36-.1-.84-.29-1.44-.58-.6-.29-.98-.43-1.15-.44-1-.05-1.78-.11-2.35-.17-1.1-.12-1.94-.36-2.52-.71-.18-.05-.73-.73-1.64-2.05-.3-.41-.76-1.09-1.38-2.04-.03-.12.13-.47.47-1.03.34-.56.65-1.12.95-1.67.29-.55.52-.97.68-1.26.34-.63.62-1.28.82-1.97.03-.26.28-.88.75-1.86.47-.97.74-1.81.81-2.51.02-.3,0-1.09-.09-2.36-.09-1.27-.13-2.27-.13-3,0-.73-.03-1.79-.1-3.2-.05-.46-.23-2.7-.53-6.71-.02-.12-.13-.25-.32-.39-.51-.33-.77-.55-.8-.67-.17-.39-.27-.69-.31-.9-.06-.29-.1-.73-.14-1.32-.03-.59-.07-.99-.11-1.2-.05-.46,0-.99.17-1.58.32-1.26.42-2.19.3-2.76-.3-1.48-.59-2.6-.87-3.36-.57-1.34-1.12-2.71-1.66-4.1-.78-.7-1.95-1.13-3.52-1.28-2.69-.27-4.2-1.21-4.53-2.81-.18-.91.33-2.02,1.55-3.34.8-.85,1.41-1.64,1.81-2.36.52-.79.86-1.9,1.01-3.33.16-1.43.07-2.96-.27-4.61l-.46-2.29c-.15-.74-.33-1.58-.54-2.53-.21-.94-.59-1.81-1.14-2.6-.23-.3-.73-.61-1.48-.95-.76-.34-1.22-.6-1.38-.78-1.5-1.24-2.45-2.12-2.85-2.64-.69-.85-1.15-1.87-1.39-3.06-.07-.33.27-.87,1.02-1.62.58-.54,1.33-1.17,2.26-1.87.2-.3.41-.6.65-.9.26,0,1.64.45,4.14,1.39,2.51.93,3.8,1.39,3.88,1.37,1.7.13,3,.1,3.91-.08.49-.1.81-.22.96-.35.14-.14.23-.49.27-1.05.04-.56.3-.9.79-1,.47,0,1.21.23,2.23.71,1.02.48,1.86,1.08,2.52,1.81,1.12,1.53,1.91,3.41,2.37,5.63.05.25-.11.52-.48.8-.66.56-1.06.92-1.2,1.08-.12.24-.13.63-.02,1.16.16.78.23,1.29.21,1.53s-.13.7-.33,1.39c-.2.69-.28,1.26-.23,1.72.36.7.62,1.27.8,1.71.63,1.42,1.03,2.54,1.2,3.36,0,.86,0,1.71,0,2.57,0,.86.11,1.8.32,2.83l1.08,3.13c.18.91.69,3.95,1.53,9.12.83,5.17,1.49,8.93,1.97,11.28.21,1.03.6,2.35,1.19,3.94.58,1.6.93,2.67,1.04,3.2.05.25-.15.48-.6.7-.45.22-.68.4-.7.53.05.25.3.54.76.88.45.34.68.61.68.83.49,1.36.98,2.72,1.47,4.08.08.37.12.83.12,1.39,0,.56.03.94.07,1.14.05.25.21.52.48.8,1.13,1.4,1.85,2.21,2.15,2.43.3.22,1.1.5,2.4.83,1.23.39,2.21.89,2.95,1.49.74.6,1.21,1.4,1.41,2.38Z"/>
  <path d="M279.09,93.55c-.05.33-.41.96-1.09,1.89-.47.61-.76,1.02-.87,1.22-.11.2-.48.42-1.11.67-.36.12-.61.27-.77.47l-1.8,1.91c-.42.24-.81.46-1.18.66-1,.75-1.75,1.26-2.25,1.53-.78.4-1.46.56-2.04.48l-1.62-.23c-.71-.1-1.23-.23-1.57-.38-.34-.15-.59-.35-.75-.58-.16-.24-.31-.41-.47-.51-1.53-1.19-2.31-1.81-2.35-1.86-.95-.81-1.57-1.54-1.86-2.17-.47-.87-.95-1.76-1.44-2.66-.49-.9-.96-1.83-1.42-2.78-.22-.84-.29-1.57-.2-2.19.09-.62.47-1.21,1.14-1.75.67-.54,1.04-1.06,1.11-1.56.06-.42.24-.96.55-1.64.31-.68.48-1.16.52-1.46.09-.33.25-.56.48-.7.51-.31.77-.53.79-.65.05-.33-.07-.79-.35-1.39-.28-.59-.4-.97-.38-1.14.52-3.67.95-6.62,1.31-8.86.36-2.24.7-4.36,1.02-6.36.22-1.58.35-2.94.39-4.09.04-.25.26-.49.68-.73.42-.24.62-.47.61-.68.04-.29-.04-.6-.25-.93-.63-.94-.94-1.45-.93-1.53-.08-.35-.09-1.01-.04-1.98.05-.97-.02-1.63-.2-1.97-.19-.34-.52-.7-1-1.06-.48-.37-.78-.75-.89-1.15-.78-1.09-1.38-1.96-1.8-2.61-.42-.65-.6-1.13-.56-1.42.07-.5.47-1.21,1.19-2.13.15-.19.53-.62,1.14-1.3.42-.58.71-.98.87-1.22.36-.46.8-.86,1.32-1.22l1.95-1.64c1.72-1.03,3.03-1.78,3.95-2.25.91-.47,1.5-.68,1.75-.65.4.44.74.78,1,1.03,1.64,1.63,2.97,2.86,4,3.69.56.55,1.12,1.09,1.68,1.64.35.22.81.61,1.39,1.18.58.57.94.93,1.09,1.08.82.8,1.41,1.71,1.78,2.74.27.76.38,1.39.31,1.89-.72.58-1.25,1.06-1.6,1.43-1.13,1.11-1.95,2.14-2.44,3.06-.49.93-.9,2.52-1.21,4.77-.09.63-.27,1.9-.54,3.81-.27,1.92-.5,3.54-.69,4.87-.08.54-.28,1.04-.62,1.51-.77,1.04-1.2,1.93-1.31,2.68-.02.17.04.47.19.92.15.45.21.77.18.98-.17,1.21-.32,2.36-.45,3.44-.13,1.09-.16,2.23-.07,3.43.02.13.01.5-.03,1.11-.04.61-.02,1.03.08,1.25.1.23.12.53.06.9-.13.92-.18,1.49-.15,1.73.03.24.18.52.45.86.27.34.47.74.59,1.2s.37.93.72,1.41c.54.67,1.09,1.32,1.63,1.95.1.23.38.56.84,1.01.47.45.72.7.75.74.35.52.59,1.1.71,1.76.02.13.04.3.05.52ZM286.48,22.66c-.16,1.17-.59,2.19-1.26,3.07-.05.04-.17.28-.36.75-.19.46-.38.74-.56.84-.43.36-.89.74-1.37,1.14-.48.4-.97.69-1.46.88-.6.04-1.2.09-1.8.13-.44.45-.87.9-1.27,1.35-.67.25-1.34.47-2,.67-.68.33-1.22.81-1.6,1.43l-3.43-.48c-.24-.12-.4-.31-.49-.58-.09-.27-.1-.67-.02-1.21.05-.37.53-1.18,1.42-2.41.11-.15.18-.4.23-.73.05-.33.14-.6.27-.79.13-.19.41-.45.84-.77,1.15-.9,1.75-1.38,1.83-1.43.07-.05.23-.11.47-.16.24-.05.42-.12.54-.21.12-.09.37-.45.76-1.07.17-.27.32-.46.46-.57.46-.53.82-.94,1.1-1.25.27-.3.58-.58.91-.83,1.65-1.17,3.2-1.65,4.66-1.44.33.05.62.25.87.6.25.35.42.62.52.81.28.42.49.79.64,1.11.15.32.19.71.12,1.16Z"/>
  <path d="M344.58,129.63c-.19.32-.55.63-1.06.91-1.83,1.01-2.8,1.57-2.91,1.67-.11.1-.21.22-.28.35-.08.13-.12.21-.15.24-.29.56-.52.99-.69,1.28-.24.4-.45.65-.64.76-.19.11-.36.11-.52.02s-.31-.11-.45-.05c-.14.06-.36.27-.67.63-.31.35-.59.61-.84.78-.25.17-.63.32-1.15.45-1.36.31-2.15.54-2.36.68-.21.14-.45.4-.72.78-.27.37-.46.61-.56.69-.68.72-1.21,1.29-1.62,1.72-.4.42-.85.73-1.36.92-.12.03-.31-.03-.59-.17-.28-.14-.53-.21-.74-.18-.21.02-.6.19-1.18.5-.58.31-.96.49-1.13.54l-2.18.46c-.38.06-.72.12-1.02.16-.3.04-.68.09-1.16.15-.51-.3-.84-.43-1.02-.39-.6.03-1.08.04-1.42.03-.86-.12-1.59-.21-2.18-.28-.09,0-.29-.1-.6-.29-.31-.18-.57-.29-.79-.33-.07-.38-.14-.75-.23-1.09-.19-.01-.5-.15-.93-.41-.83-.5-1.32-.77-1.47-.8-.15-.04-.38.05-.71.27-.33.22-.6.29-.84.23-.23-.07-.57-.21-1.03-.43-.45-.22-.84-.4-1.15-.54-.31-.14-.57-.2-.78-.17-.21.02-.39-.01-.53-.1-.18-.11-.85-.89-2.02-2.34-1.16-1.45-2.08-2.68-2.76-3.67-.22-.28-.38-.59-.47-.94-.03-.12-.07-.29-.13-.52-.39-.33-.71-.57-.96-.72-.22-.13-.56-.31-1.03-.54-.47-.23-.82-.42-1.03-.54-.07-.04-.14-.13-.21-.27-.06-.14-.14-.3-.22-.5-.68-.5-1.35-.98-2.01-1.43-.45.02-.79.01-1.02-.02-.61-.37-1.22-.73-1.81-1.08-.6-.36-1.17-.68-1.74-.97-1.62-.97-2.67-1.84-3.14-2.61-.63-1.07-.56-2.25.21-3.55.65-1.08,1.55-1.81,2.71-2.2,1.69-.36,3.18-.73,4.48-1.1,1.3-.37,2.65-.7,4.05-.99.06-.02.35.09.88.31.53.22.85.31.97.29.17-.53.35-1.04.54-1.51.17-.04.49,0,.95.13.46.13.76.16.9.1.58-.15,1.21-.38,1.89-.7.75-.43,1.23-.7,1.43-.8s.61-.24,1.21-.42c.31-.11.55-.31.72-.6.17-.29.15-.7-.06-1.25-.21-.54-.32-.89-.33-1.04.18-.63.3-1.12.37-1.47.06-.35-.08-.76-.44-1.22-1-.94-1.79-1.68-2.35-2.21-1.04-.96-1.71-1.85-2-2.67-.38-1.16-.48-2.47-.3-3.92,0-.34.12-.74.34-1.19.22-.45.53-1.01.92-1.66l.62-1.03c.13-.22.29-.56.47-1.04.19-.48.36-.84.51-1.09,1.2-1.78,2.44-3.66,3.73-5.63,1.28-1.97,2.19-3.39,2.7-4.26.09-.14.32-.33.69-.54.37-.22.6-.4.69-.54.08-.05.08-.22.01-.51-.02-.06-.06-.23-.13-.52.35-.48.75-.91,1.19-1.31.45-.39.71-.64.77-.75.23-.31.43-.46.61-.48.18-.01.44.08.76.27.17-.29.24-.67.22-1.16-.03-.48,0-.8.09-.94.99-1.66,1.85-3.05,2.56-4.16.72-1.11,1.4-2.18,2.07-3.21.22-.36.44-.74.68-1.14.12-.37.22-.61.28-.71.45-.76.92-1.51,1.39-2.26.47-.75.94-1.25,1.42-1.5.47-.26,1.38-.32,2.73-.2.97.09,1.94.18,2.89.26.95.08,1.6.13,1.94.13,2.43.03,3.8.07,4.12.11.15,0,.37.14.66.43.29.3.51.44.66.43.13.03.31-.08.54-.34.23-.26.5-.41.83-.46.44.17.79.3,1.04.4.26.1.47.15.65.13.18-.01.82-.25,1.93-.72.47-.21.9-.32,1.3-.33,1.39.05,2.93.58,4.63,1.6.25.15.66.32,1.24.51.57.19,1,.37,1.29.54.54.32.91.58,1.11.78.2.19.44.43.73.69.97.68,1.73,1.21,2.28,1.59.55.38.92.7,1.09.94.17.25.3.61.39,1.08.09.47.2.82.33,1.04.13.23.48.59,1.03,1.1.55.5.89.97,1,1.4.11.43.14,1.05.1,1.86-.04,1.2-.05,1.92-.04,2.15.01.23.1.73.27,1.52.09.5.13.93.1,1.31-.2.66-.49,1.3-.85,1.91-.24.4-.66.98-1.26,1.74-.6.77-1.06,1.4-1.36,1.9l-1.17,5.03c-.06.26-.07.63-.04,1.11.03.48-.03.9-.17,1.26s-.33.73-.57,1.13c-.17.29-.76,1.09-1.77,2.4-1,1.31-1.74,2.36-2.22,3.15-.09.14-.43.43-1.03.86-.6.43-.89.79-.88,1.09-.02.28.02.62.12,1.03.1.4.11.68.02.82-.58.97-1.47,2.42-2.66,4.32-1.19,1.91-2.04,3.28-2.53,4.11-.09.14-.1.35-.03.61.06.26.07.48,0,.67-.06.18-.21.47-.45.87-.22.36-.51.79-.87,1.28-.37.49-.75,1.03-1.16,1.62-.24.4-.4.79-.49,1.18-.09.39-.07.8.03,1.23.11.43.24.84.4,1.23.4,1.12.81,2.25,1.21,3.37.02.46.04.91.07,1.36.04.17.15.36.32.56.17.2.27.36.3.48.12.86.18,1.53.16,2.01-.02.48-.09.83-.22,1.04ZM328.03,130.9c.03-.13-.02-.28-.14-.45-.12-.17-.16-.29-.11-.36.04-.22.2-.66.5-1.32.29-.66.44-1.11.44-1.35s-.08-.55-.23-.91c-.15-.36-.23-.66-.23-.91,0-.25-.02-.94-.07-2.1-.05-.81-.11-1.54-.17-2.16.18-.38.36-.76.54-1.15,0-.4-.09-.87-.24-1.43-.16-.56-.26-.94-.31-1.14-.05-.2-.03-.42.06-.66.09-.24.13-.44.1-.6-.03-.16-.15-.4-.38-.71-.23-.31-.38-.56-.44-.74-.06-.18-.09-.38-.1-.57,0-.2,0-.34,0-.44-.15,0-.41-.1-.77-.31-.83-.5-1.32-.74-1.47-.73-.86-.03-1.73-.06-2.59-.08-.17.04-.35.26-.55.67-.19.4-.35.63-.49.7-.62.22-1.38.45-2.29.69-.9.24-1.82.48-2.74.71-.24.15-.38.29-.43.41-.05.12-.06.21-.05.26-.32.54-.63,1.23-.91,2.07-.28.84-.4,1.54-.34,2.11.03.36.24.72.64,1.08.4.36.67.71.81,1.04.19.26.35.85.49,1.76.14.92.3,1.52.5,1.81.19.29.43.55.7.79.27.24.68.52,1.22.84.11.06.19.17.26.3.06.14.14.3.22.5.16.14.42.2.78.17.36-.03.58-.02.65.02l2.22,1.33c.18.11.26.29.23.54-.03.25.01.41.12.48l1.3.78c.14.09.62.27,1.43.56.3-.02.61-.03.91-.04,0-.09.16-.32.45-.69.29-.36.45-.61.48-.74ZM333.83,104.39l.36-2.94,1.17-1.95.79-.34,4.67-6.46,4.08-6.82c.91-1.51,1.15-2.91.74-4.19-.04-.17-.04-.41.03-.72.06-.31-.02-.65-.23-1.02l-1.82-2.85c-.05-.08-.05-.29,0-.62.05-.33.01-.59-.13-.77-.14-.18-.47-.49-.99-.92-.52-.44-.8-.66-.84-.69.06-.35.15-.7.25-1.03-.29-.17-.56-.33-.81-.49-.26.19-.61.35-1.05.47-.44.13-.75.21-.92.26-.06.01-.15-.12-.28-.39-.13-.27-.25-.4-.37-.37-.17.04-.38.14-.62.29-.24.15-.46.29-.68.4-.73.4-1.62,1.06-2.67,2-.12.12-.44.26-.95.42-.51.16-.91.41-1.19.76s-.55.74-.81,1.17c-.3.51-.87,1.53-1.69,3.07-.82,1.54-1.41,2.6-1.75,3.18-.54.9-1.08,1.77-1.62,2.59-.54.83-1.07,1.62-1.58,2.4-.32.54-.56.98-.72,1.33-.16.35-.37.87-.64,1.56-.27.7-.52,1.32-.75,1.87-.23.55-.43,1.15-.6,1.81-.17.66-.35,1.42-.53,2.29.02.45.14.99.36,1.61.12.37.33.88.62,1.55.29.66.6,1.34.92,2.02.33.69.66,1.3,1.02,1.86,1.02,1.64,1.59,2.54,1.69,2.7.63.92,1.27,1.57,1.92,1.96.29.17,1.3-.56,3.04-2.19,1.73-1.63,2.6-2.57,2.6-2.81Z"/>
  <path d="M390.12,178.21c-.53.34-1.43.65-2.68.95-1.26.3-2.55.52-3.9.68-.22.04-.5.19-.83.45-.33.26-.63.5-.89.71-.25.16-.45.23-.6.23-1.02-.05-1.91-.19-2.65-.41-.34-.23-.65-.44-.93-.64-.28-.2-.75-.31-1.43-.32-.68-.02-1.13-.13-1.36-.33-.24-.15-.45-.55-.63-1.21-.18-.66-.29-1.03-.33-1.1l-1.55-2.45c-.5-.78-.86-1.41-1.11-1.87-.25-.47-.41-.97-.51-1.51-.09-.54-.11-1-.06-1.38.16-.45.27-.82.34-1.11.12-.52.4-1.45.85-2.78.61-1.78.56-3.24-.16-4.38-.5-.78-2.55-1.88-6.16-3.3-3.61-1.42-5.84-2.8-6.7-4.15-1.26-1.99-1.17-4.63.27-7.93,1.92-4.35,5.93-8.46,12.04-12.33,4.08-2.59,7.31-4.06,9.67-4.41,1.86-.28,3.58.12,5.17,1.21.21.17.67.58,1.39,1.25s1.26,1.05,1.63,1.17c1.06.42,2.21.24,3.46-.55.46-.29.93-.89,1.41-1.79.1-.16.11-.39.04-.7-.07-.3-.07-.53-.01-.67.39-.95.99-2.15,1.77-3.62.79-1.47,1.21-2.27,1.27-2.41.78-1.44,1.31-2.37,1.59-2.8.68-.98,1.4-1.71,2.19-2.21,2.66-1.69,4.55-1.66,5.65.08.25.39.47.91.65,1.56.19.65.33,1.1.43,1.33.14.31.25.51.32.62.61.96,1.22,1.58,1.85,1.85s1.23.4,1.84.37c.6-.03,1.19-.06,1.78-.08.95.09,1.92.2,2.9.33.85-.14,1.52-.27,2-.37.95-.15,1.62-.11,2.03.13.78.45,1.51,1.21,2.19,2.27,1.28,2.02,1.96,4,2.05,5.94-.22.44-.42.86-.61,1.28,0,.64.05,1.42.14,2.34.08.92.19,1.79.31,2.6.04.22.15.7.34,1.42.19.73.5,1.45.96,2.16,1.12,1.77,2.1,2.72,2.92,2.85.08.05.32-.02.73-.2.41-.18.69-.27.84-.27.88.14,1.56.58,2.03,1.32.65,1.03.81,2.07.49,3.12-.33,1.05-.94,1.86-1.82,2.42-.92.58-1.71.97-2.37,1.15-.65.19-1.84.42-3.56.69-.13.03-.62.18-1.48.44-.85.26-1.41.41-1.66.44-.25.03-.74.03-1.47-.02s-1.25-.02-1.56.07c-.31.1-.69.15-1.12.18-.99.01-1.81.15-2.46.42-.66.26-1.47.68-2.46,1.25s-2.16,1.3-3.55,2.17c-.39.25-.89.68-1.5,1.29-1.33,1.36-2.24,2.2-2.74,2.51-.57.36-1.69.82-3.37,1.39-.86.29-1.5.58-1.93.85-1.17.74-2.28,1.46-3.34,2.15-1.05.69-1.9,1.36-2.53,2.01-.63.65-1.11,1.35-1.43,2.1-.29.88-.5,1.49-.64,1.82-.43.97-.62,2.16-.57,3.57.05,1.02-.25,1.73-.89,2.13ZM389.79,155.21c.15-.15.24-.39.25-.72.01-.33.21-.67.59-1.01.38-.34.89-.92,1.53-1.75.64-.83,1.12-1.57,1.45-2.22.08-.1.05-.35-.11-.75-.16-.4-.21-.64-.16-.72.27-.97.39-1.92.35-2.84-.03-.28-.09-.64-.17-1.09-.02-.04-.11,0-.27.13-.16.12-.3.13-.44.02-.14-.11-.35-.4-.64-.86-.59-.92-.92-1.46-1.01-1.6l-1.21-.13c-.08-.05-.23-.21-.46-.49-.23-.28-.39-.41-.48-.4-.77.29-1.34.46-1.7.52-.37.06-.87.26-1.52.63-.65.36-1.04.56-1.17.59-.31-.1-.63-.2-.94-.3-.21.14-.43.42-.65.86-.22.44-.38.71-.46.81-.32.2-.64.41-.97.61-.32.2-.64.41-.96.61-.57.36-1.08.73-1.51,1.11-.44.38-.81.84-1.11,1.38-.13.19-.24.38-.31.57-.13.43-.24.85-.33,1.26-.29.49-.59.97-.88,1.46-.42.77-.74,1.52-.96,2.27-.26.22-.5.44-.7.67-.03.27.06.57.26.89.32.5.52.82.61.97.11.18.32.5.61.97.29.47.52.82.68,1.08.3.47.51.75.66.86.14.11.47.08.98-.09s.81-.22.92-.13c1.17.67,2.23.95,3.2.84.49,0,1.05-.21,1.69-.62.35-.22.71-.49,1.08-.81s.75-.64,1.13-.97c1.03-.55,2.08-1.09,3.13-1.61ZM406.32,146.53c.92-.58,1.55-1.48,1.88-2.68.04-.17,0-.43-.12-.78-.12-.35-.23-.71-.32-1.1.2-1.42.4-2.82.62-4.2-.07-1.05-.22-2-.46-2.84-.33-1.23-.78-2.29-1.34-3.18-.18-.13-.38-.21-.59-.22-.69-.06-1.12-.14-1.3-.22-.18-.09-.5-.32-.96-.7s-.78-.6-.95-.67c-.17-.07-.5-.07-1.01,0-.5.07-.86.1-1.07.08-.21-.02-.49-.06-.84-.14-.35-.08-.63-.05-.84.09-.28.18-.53.41-.75.7-.22.29-.36.77-.42,1.46-.03.12-.17.43-.42.93-.25.51-.39.96-.42,1.35-.03.39-.05.78-.08,1.17-.03.39.03.81.17,1.27.14.46.32.94.54,1.45.02.19-.23.67-.73,1.43-.24.4-.36.73-.35.97,0,.24.06.56.15.95.1.39.19.7.29.93.1.24.02.45-.23.63-.26.19-.38.36-.39.51.19.38.33.68.43.92s.13.44.09.61l1.28,2.25c.52-.13,1.05-.27,1.6-.42.15,0,.3.08.45.24.15.16.34.24.58.27.24.02.7-.07,1.39-.28.69-.21,1.17-.33,1.45-.36.03-.02.5-.04,1.38-.05.49-.01.91-.13,1.27-.36Z"/>
  <path d="M446.34,231.96c-.7.1-1.47.06-2.29-.12-.83-.18-1.59-.35-2.28-.51-.17-.02-.69-.03-1.55-.04-.86,0-1.44-.14-1.73-.39-.61-.47-1.08-1.07-1.39-1.81-.31-.74-.53-1.53-.65-2.36-.1-.71-.18-1.66-.24-2.86-.06-1.2-.1-1.89-.13-2.05-.13-.92-.43-1.64-.91-2.16-.48-.53-1.67-.85-3.57-.96-1.9-.11-5.13.15-9.66.78-1.79.25-5.19.96-10.21,2.13-1.65.36-3.99.92-7.02,1.69-.53.46-.91.88-1.13,1.27-.22.39-.3.77-.25,1.15.01.08.14.47.39,1.16.24.69.4,1.26.46,1.72.56.64,1.14,1.3,1.74,1.98.36.46.56.83.6,1.12.03.21,0,.42-.1.65-.08.65-.43,1.35-1.04,2.12-.47.58-.91.93-1.31,1.08l-3.3.53c-1.54.22-3.11.05-4.72-.48-1.03-.41-2.01-.89-2.94-1.43-.69-.41-1.52-1-2.47-1.75-.83-.48-1.41-.82-1.74-1.03-.6-.34-1.06-.78-1.4-1.33-.16-.23-.32-.77-.48-1.62-.16-.85-.34-1.7-.55-2.56-.35-.42-.71-.83-1.07-1.25l.36-3.81c0-.85,0-1.7-.04-2.54.04-.9.17-1.81.38-2.73.09-.56.28-1.16.57-1.8.13-.31.59-1.25,1.39-2.81.17-.28.49-.62.94-1.02.45-.4.7-.65.76-.74.05-.09.2-.35.43-.76.24-.42.61-.66,1.11-.73.75.19,1.38.34,1.91.43,1.66.32,3.23.5,4.72.55.67.25,1.34.51,2.02.8.12-.02.32-.15.58-.4.26-.25.48-.38.64-.41.17.02.45,0,.82-.05.83-.16,1.47-.27,1.93-.33l.62-.09c.26,0,.49-.13.71-.42.21-.28.45-.42.71-.42l1.52-.02c.12-.02.37.24.75.79.17.27.33.4.5.38l9.93-1.39c.21-.03.36.16.46.57.1.41.25.6.46.57.08-.01.29-.23.61-.66.75-1.04,1.34-1.65,1.78-1.84.4-.18.94-.25,1.63-.2.69.05,1.09.07,1.22.05.42-.06.8-.2,1.15-.42,1.77-1.27,3.55-2.51,5.33-3.74.46-.32.82-.65,1.07-.98.46-.62.84-.95,1.13-.99l1.31-.18c.58-.08,1.25-.15,2.01-.22.75-.06,1.31-.08,1.68-.04.36.03.89.34,1.56.93.34.33.62.51.84.52.67.2,1.43.43,2.29.67.86.24,1.82.5,2.88.77.43.02.77.02,1.02-.02.66-.14,1.16-.23,1.49-.27.42-.06.8-.05,1.15.03.12-.02.31.27.57.88.25.6.44.89.57.88,1.41.4,2.83.79,4.24,1.19.34,0,.67-.04,1-.11.33-.07.66-.12.99-.17.54-.08,1.04-.02,1.49.17.24.81.88,1.57,1.91,2.28,1.35.87,2.13,1.44,2.34,1.71.15.15.2.66.15,1.54-.05.88-.04,1.35,0,1.43.63.89,1.03,1.91,1.2,3.08.08.54-.16,1.15-.7,1.82-.54.67-1.11,1.05-1.69,1.13-.79.11-1.87-.18-3.24-.88-.97-.54-1.7-.94-2.2-1.19-.5-.25-1.08-.5-1.73-.74-.65-.25-1.08-.36-1.29-.33-.25.03-.56.22-.94.55-.38.33-.63.52-.75.58-.89.34-1.5.74-1.84,1.21-.34.47-.55,1.02-.63,1.65-.08.63-.11,1.06-.07,1.31.05.37.29.88.72,1.52.43.64.88,1.41,1.34,2.33.47.91.72,1.53.77,1.87.05.37.09.68.13.91.03.23.06.43.08.59.06.42-.13.87-.57,1.35-.5.66-1.33,1.44-2.52,2.33-1.18.89-2.1,1.38-2.76,1.47Z"/>
  <path d="M399.13,305.34c-.12-.03-.4-.39-.82-1.07-.21-.36-.54-.64-.98-.82-.45-.19-1.63-.57-3.54-1.16-1.91-.58-3.28-1.03-4.11-1.34-.73-.2-1.39-.59-1.96-1.19-.07-.06-.16-.2-.28-.4-.53-.93-1.29-2.62-2.28-5.06-.86-2.11-1.56-4.04-2.08-5.79-.05-.14-.35-.62-.92-1.43-.25-.37-.4-.68-.47-.91-.1-.77,0-1.66.27-2.67.12-.45.28-.93.46-1.44.19-.52.37-1.03.54-1.55.11-.41.2-.73.26-.97.14-.53.3-1.01.46-1.44.16-.44.46-.96.89-1.59.83-.82,1.65-1.64,2.44-2.47,1.71-3.11,3.44-6.19,5.19-9.24.01-.69.04-1.36.09-2,.35-.47.72-.89,1.12-1.26.63-.57,1.26-1.12,1.88-1.65.29-.27.68-.43,1.17-.47.49-.04.8-.07.93-.07.25-.11.62-.29,1.12-.54.5-.26.81-.37.94-.33.01.27.03.46.03.6.08.5.28.93.6,1.27.32.35,1.11.78,2.38,1.3,1.27.52,2.21.91,2.84,1.16.12.03.32.19.59.49.27.29.51.46.71.52.35.14.87.09,1.54-.14.67-.23,1.19-.3,1.56-.2l17.18,4.67c1.1.3,2.01.57,2.76.81.74.25,1.47.49,2.19.73.28.08.68.14,1.19.19.22-.03.53-.14.91-.34.38-.2.64-.3.77-.31.82.05,1.52.13,2.12.25.6.12,1.41.32,2.42.59.41.11.78.22,1.12.34.34.11.67.32.98.62.14.13.35.55.63,1.28.16.39.28.64.38.76.58.77,1.17,1.54,1.79,2.32.11.25.13.49.06.74-.17.61-.19,1.05-.06,1.32.12.27.39,1.18.79,2.73.24.89.4,1.45.49,1.67.09.22.32.46.69.71.37.25.57.45.62.59.17.48.56,1.31,1.16,2.47.34.66.57,1.11.68,1.36.1.29.44.41,1.04.38.6-.03.94.03,1.03.18.18.44.31,1.02.38,1.74.07.71.05,1.25-.05,1.62-.62,1.01-1.13,1.85-1.53,2.52-.98,1.52-2.19,3.35-3.64,5.48-1.15.86-2.14,1.88-2.98,3.04-.89,1.37-1.57,2.42-2.04,3.17-.78,1.1-1.56,2.45-2.35,4.07-.38.77-.77,1.53-1.15,2.3-.88.2-1.76.39-2.64.59-1.91.31-3.58.35-5,.14-.29-.04-.74-.11-1.34-.23-.6-.12-1.08-.23-1.45-.33-.28-.08-.55-.15-.79-.21-.38-.19-.68-.31-.88-.37-.28-.08-.66-.29-1.13-.63-.47-.35-.95-.58-1.44-.72l-11.18-2.84c-.16-.04-.44.03-.85.23-.4.19-.68.27-.85.23-2.23-.61-4.01-1.13-5.35-1.58-1.34-.45-2.52-.88-3.54-1.29-.2.25-.36.43-.47.53-.45.36-.85.49-1.22.39ZM405.77,292.44c.1-.06.21-.12.31-.18.32-.7.5-1.04.54-1.03,1.18.32,2.54.76,4.09,1.31,3.61,1.29,5.79,2.03,6.52,2.23,1.14.31,2.06.5,2.78.59.72.09,1.54.1,2.47.05.21.01.54-.17.97-.55.43-.38.74-.61.94-.69,1.17-.47,2.01-.83,2.51-1.08.87-.46,1.5-.93,1.89-1.41s.7-1,.91-1.55c.22-.55.46-1.31.72-2.29.32-1.18.46-2.1.42-2.76-1.04-1.29-1.75-2.15-2.1-2.6-.66-.79-1.29-1.26-1.9-1.43-.77-.21-1.75-.3-2.93-.27-1.18.03-2.06-.04-2.63-.19-.36-.1-.74-.31-1.13-.63-.39-.32-.71-.52-.95-.58-1.3-.35-4.24-1.08-8.82-2.17-4.58-1.09-7.15-1.65-7.71-1.67-.38,1.41-.81,2.62-1.27,3.64-.47,1.02-.94,2.08-1.44,3.2-.2.72-.35,1.29-.46,1.69-.16.6-.2,1.17-.11,1.72.09.54.32,1.22.69,2.03.37.81.72,1.46,1.07,1.94.1.11.33.05.71-.2.37-.25.61-.31.71-.2.22.32.52.61.91.87.39.26.76.52,1.12.79.4.46.79.93,1.18,1.43Z"/>
  <path d="M385.52,387.62c-.35-.3-.71-.62-1.06-.94-.35-.33-.63-.7-.83-1.12-.2-.42-.28-.81-.25-1.17.09-1.2.09-1.95,0-2.24-.08-.29-.38-.84-.89-1.63-.51-.8-.78-1.34-.8-1.64-.03-2.36.4-4.07,1.31-5.13.85-1,1.66-1.85,2.42-2.56.77-.71,1.44-1.17,2.03-1.39.59-.22,1.6-.47,3.03-.75.85-.17,1.43-.45,1.76-.83.55-.64.91-1.32,1.1-2.02.18-.7.22-1.33.12-1.89-.1-.56-.18-.94-.22-1.15-.1-.47-.29-.83-.58-1.07-.22-.19-.67-.38-1.34-.57-.67-.19-1.12-.37-1.34-.57-.35-.3-.8-.91-1.35-1.82-.55-.91-1.03-1.54-1.45-1.9-.8-.68-1.98-1.58-3.53-2.68-4.62-3.28-7.41-5.32-8.37-6.14-.47-.23-.93-.46-1.4-.7-.06-.06-.11-.23-.13-.53-.02-.3-.07-.47-.13-.53-.45-.38-.88-.75-1.3-1.11-.46-.11-1.05-.29-1.79-.53-1.23-.44-2.42-.53-3.58-.28-1.16.25-2.11.81-2.84,1.68-.22.26-.27.6-.14,1.04.29.96.45,1.96.51,3,.06.38.05.88-.02,1.48-.3,1.9-.43,3-.41,3.3l-1.28,1.31-1.56.08-3.36-2.86c-.49-1.24-.87-2.26-1.14-3.04-.47-1.45-.83-2.98-1.08-4.56-.06-.38.22-1.52.85-3.42.32-.89.47-1.59.46-2.09-.01-.51-.26-.99-.74-1.46-.48-.47-.73-.84-.74-1.13,0-.28.11-.67.36-1.15.25-.48.38-.8.39-.95.02-.15-.09-.38-.32-.69-.23-.31-.34-.51-.32-.6-.02-.68.03-1.36.15-2.02.16-.97.34-1.56.53-1.79.85-.99,2.18-1.98,4.01-2.96,1.4-.74,3.11-1.52,5.14-2.33.15-.04.81-.33,1.99-.87.75-.36,1.46-.52,2.15-.48.45.05,1.21.3,2.27.74,1.06.44,2.03.86,2.9,1.27.82.14,1.38.26,1.68.36.31.09.62.28.94.55.15.73.47,1.62.97,2.65.5,1.03,1.28,2.1,2.33,3.19,1.06,1.09,2.72,2.61,4.99,4.54,2.27,1.94,3.77,3.22,4.51,3.84.13.11.23.35.3.71.07.37.17.6.3.71.16.14.39.36.68.66.29.3.5.51.63.62.29.25.53.38.73.41.2.03.38-.05.54-.24s.32-.22.49-.08c.9.76,1.73,1.44,2.51,2.02,2.33,1.74,3.53,2.63,3.59,2.69.06.05.12.24.18.57.06.32.13.53.23.61.39.39.85.72,1.39.99.54.27,1.03.54,1.47.8.44.26.74.46.9.6.38.33.66.56.82.7.22.19.48.31.77.36s.93-.25,1.93-.9c.5-.32.84-.49,1.02-.51.78-.14,1.46-.17,2.02-.09.56.08,1.15.38,1.76.9.19.16.38.69.57,1.56.1.53.24.92.41,1.18.46.5.9,1.02,1.33,1.55.13.56.28,1.15.43,1.78.15.63.25,1.24.3,1.83l-.23,2.21c.04.15.19.46.43.95.25.49.36.81.35.96-.03.69-.23,1.44-.6,2.26-.37.82-.74,1.45-1.12,1.9-.14.16-.34.27-.62.34-.28.07-.73.11-1.35.13-.89.46-1.62.82-2.21,1.1-.59.27-1.02.4-1.28.4-.62.02-1.84-.33-3.65-1.04-.86-.35-1.56-.57-2.1-.68-.54-.1-1.05-.08-1.53.06-.48.14-.99.54-1.54,1.17-.41.48-.66,1.1-.74,1.85-.13,1,.04,2.44.5,4.32.38.66.77,1.32,1.15,1.98.09.41.19.79.28,1.15.09.35.16.89.22,1.6-.1.19-.57,1.39-1.41,3.61-.37.96-.94,1.88-1.7,2.78-.78.27-1.44.49-1.96.65-1.6.46-3.16.7-4.68.73-.49-.14-.98-.28-1.46-.42-.06,0-.27.12-.62.34-.35.22-.56.33-.62.34-1.15-.27-2.29-.88-3.41-1.83Z"/>
  <path d="M294.98,405.85c-1.22-2.77-1.88-5.19-1.97-7.26-.09-2.08.3-4.06,1.16-5.96.17-.44.62-1.1,1.34-1.97.5-.63.79-1.02.87-1.14.08-.13.42-1.01,1.03-2.66.26-.67.52-1.15.77-1.45.26-.3.64-.56,1.14-.78.42-.19.69-.29.79-.32.1-.02.19,0,.27.05.39-1.83,1.09-3.8,2.1-5.93,1.01-2.13,2.33-4.05,3.96-5.78.13.08.48.2,1.06.36.32.09.88.28,1.7.56.17.06.32.25.45.56.31.69.6,1.1.89,1.23.29.13.85.14,1.71.04s1.37-.12,1.56-.07c.19.06.52.23.99.53.48.29.87.38,1.17.24,1.42-.63,2.41-2.57,2.98-5.82s1.27-5.07,2.11-5.44c.46-.2,1.14-.31,2.03-.31.89,0,1.59.16,2.08.49.49.33.89.63,1.19.89.3.26.59.55.87.89.29.33.57.71.85,1.14.28.43.55.89.82,1.39.27.5.48.94.64,1.3.16.36.35.73.55,1.1.27.61.63,1.47,1.06,2.56.44,1.09.74,1.83.91,2.21-.12.88-.21,1.54-.29,1.99-.23,1.34-.47,2.07-.7,2.17.28.84.17,1.69-.32,2.55-.82,1.47-2.38,3.19-4.68,5.17-.35.57-.58,1.22-.71,1.97-.03.24-.07.56-.13.95.75,1.69,1.98,2.41,3.71,2.15,2.28-.36,3.89-.25,4.84.34.95.59,1.89,1.72,2.8,3.38.92,1.66,2.15,4.24,3.7,7.74,1.21,2.73,2.13,4.92,2.77,6.57.64,1.65.78,3.17.43,4.57-.15.48-.55,1.14-1.19,1.98-.92,1.14-1.39,1.74-1.41,1.8-.85,1.2-1.5,2.11-1.96,2.73-.78,1.04-1.48,1.8-2.08,2.3-.1.09-.1.45,0,1.07.09.62.07,1.01-.07,1.17-.14.15-.34.29-.61.41-.55.2-.95.35-1.18.45-.46.2-.68.54-.65,1.01.03.47.06.91.09,1.3s.16.83.36,1.29c-.27.63-.5,1.1-.69,1.41-.61,1-1.36,1.7-2.24,2.09-1.54-.15-2.71-.25-3.51-.31-2.42-.17-3.76-.2-4.03-.08-.27.12-.65.62-1.13,1.5-.48.88-1.17,2.25-2.04,4.11-.78,1.45-1.39,2.57-1.82,3.36-.78,1.45-1.3,2.62-1.55,3.51l-3.06,1.35c-.11-.78-.27-1.49-.46-2.14-.19-.65-.41-1.24-.65-1.78-.27-.62-.99-1.88-2.16-3.8-.66-1.08-1.13-1.94-1.4-2.55-1.77-4-1.04-8.13,2.17-12.4,1.53-2.05,1.84-4.1.94-6.14-.41-.92-1.2-1.56-2.36-1.92-1.17-.36-2.33-.28-3.48.23-1.58-.22-3.01-.65-4.28-1.28-1.7-.9-3.28-2.27-4.72-4.12-.44-.59-.9-1.42-1.37-2.5-.22-.5-.59-1.33-1.1-2.48s-.77-1.75-.79-1.79ZM307.2,401.07c.25.26.5.51.75.77,1.09,1.12,1.68,1.72,1.75,1.78.52-.6.95-.97,1.29-1.12.23-.1.75.13,1.55.69.8.56,1.99.5,3.57-.2.58-.25,1.12-.61,1.63-1.07.51-.46.9-1.02,1.15-1.68.29-1.32.57-2.62.83-3.88-.05-.53-.22-1.12-.51-1.77-.25-.58-.54-1.17-.85-1.76-.31-.6-.48-.98-.51-1.15-.5-.1-1.28-.39-2.34-.86-1.06-.47-1.91-.91-2.55-1.32-.54-.08-1.12-.04-1.74.12-.62.16-1.52.5-2.72,1.03-.19.08-.48.21-.86.38-.38.17-.67.3-.86.38-.27.12-.51.27-.73.46-.22.19-.34.4-.37.65-.03.24.02.52.16.83l.38.86c.17.38.25.67.24.86.12,1.42.23,2.86.33,4.33.08.7.21,1.26.4,1.68ZM318.67,420.46l1.96,4.44c.52-.6.95-1.07,1.3-1.43.35-.36.6-.57.75-.64.53.04,1.34-.05,2.46-.29,1.11-.24,2.51-.73,4.21-1.48.09-.64.31-1.2.66-1.71.35-.5.68-.93.98-1.29.19-.41.2-.89.04-1.47-.16-.57-.57-1.61-1.24-3.11-1.24-2.81-2.19-4.54-2.86-5.22-1.4-1.4-3.29-1.58-5.68-.52-.65.29-1.16.97-1.51,2.04-.16.58-.34,1.16-.53,1.75-.29.59-.52,1.01-.68,1.27-.27.53-.42,1.08-.44,1.64-.03.56.06,1.67.27,3.33.2,1.66.31,2.55.32,2.68Z"/>
</svg>