<?xml version="1.0" encoding="UTF-8"?>
<svg id="Layer_1" data-name="Layer 1" xmlns="http://www.w3.org/2000/svg" viewBox="0 0 491.98 486.46">
  <g id="QakynN.tif">
    <g>
      <path d="M404.26,99.37c.57,3.34-2.25,5.03-4.39,6.92-13.49,11.96-32.32,23.24-46.96,34.94-17.52,13.99-34.69,28.63-51.43,43.53-.4-3.19.02-5.17,1.63-7.94,2.45-4.2,21.9-20.56,27.15-25.13,16.36-14.25,39.64-33.73,57.78-45.04,4.97-3.1,9.97-7.57,16.22-7.28Z"/>
      <path d="M252.65,45.34c6.09,5.87-4.27,114.87-2.58,130.69-2.88-1.98-2.52-4.76-2.72-7.74-1.71-25.95-1-47.7.08-73.31.65-15.34-.1-31.78,1.75-47.07.3-2.45.97-4.98,3.47-2.57Z"/>
      <path d="M226.54,165.57c-4.35,1.16-4.8-4.1-6.02-7-4.14-9.83-7.81-21.86-11.44-32.16-9.31-26.47-18.71-53.55-24.34-81.07,7.38,4.97,9.98,16.23,12.98,24.47,11.37,31.22,17.43,64.53,28.82,95.77Z"/>
      <path d="M250.92,305l10.45,108.05c-2.61.49-3.96-.57-4.87-2.96-2.08-5.46-3.06-23.72-3.83-31.03-2.21-21.11-4.19-43.23-5.31-64.4-.18-3.46-1.76-11.28,3.55-9.67Z"/>
      <path d="M226.51,41.85l8.72,97.59c-4.16-1.82-4.25-9.23-4.96-13.32-3.55-20.19-5.98-50.43-7.2-71.22-.11-1.94-1.25-17.8,3.44-13.05Z"/>
      <path d="M193.4,393.89c-6.31,1.89-1.29-8.69-.43-11.78,6.09-21.73,15.63-50.82,24.37-71.48.91-2.16.94-5.14,3.95-5.62l-27.89,88.88Z"/>
      <path d="M270.08,181.26c-4.41-.8-.17-8.46.82-10.52,9.14-19.03,26.23-38.71,36.66-57.43,4.06,2.64,1.16,5.37-.23,8.47-8.97,20.04-27.3,39.52-37.25,59.48Z"/>
      <path d="M348.5,385.17c-3.75.88-3.87-2.08-5.59-3.98-7.55-8.33-16.04-20.1-23-29.28-10.17-13.42-21.78-28.27-28.88-43.42l57.48,76.67Z"/>
      <path d="M280.53,308.5l41.84,73.18c-3.64.8-3.95-1.88-5.6-3.96-15.15-19.08-28.92-46.53-39.72-68.33l3.49-.89Z"/>
      <path d="M179.47,165.59c-18.43-18.93-42.53-42.33-56.43-64.67-1.35-2.17-3.39-3.83-2.78-6.78l59.21,71.45Z"/>
      <path d="M383.36,362.5l-66.21-52.25c6.13.66,13.23,6.69,18.26,10.47,3.56,2.68,50.27,39.59,47.95,41.78Z"/>
      <path d="M320.62,139.45l-4.32,8.74-34,34.81c-.49-4.94,3.26-8.71,6.07-12.21,6.37-7.91,18.51-21.55,26.15-27.87,1.96-1.62,2.82-4.23,6.09-3.47Z"/>
      <path d="M242.2,385.18c-3.17-.66-3.24-3.43-3.53-6.04-1.31-11.62-1.37-33.2-1.33-45.38.03-8.74,2.83-19.41,1.41-28.75l3.54,19.96-.09,60.2Z"/>
      <path d="M304.94,47.09c-4.97,18.92-9.7,38.99-16.97,57.16-1.06,2.64,1.02,4.72-3.92,3.82,6.21-18.74,9.63-38.79,16.98-57.15,1.06-2.64-1.02-4.71,3.92-3.82Z"/>
      <path d="M365.94,153.4c-6.81,7.77-16.1,15.49-24.58,21.58-3.71,2.67-6.98,6.85-12,6.28-1.95-1.81,4.71-7.32,6.14-8.65,7.3-6.74,21.06-17.01,30.44-19.21Z"/>
      <path d="M182.96,109.81l-20.49-37.86-2.13-9.18c9.78,13.44,18.28,30.81,22.62,47.05Z"/>
      <path d="M167.27,169.07c-9.21-6.92-21.3-14.09-29.63-21.76-2.65-2.44-7.06-5.63-6.93-9.6,1.19-1.24,25.49,17.79,27.89,20.02,1.66,1.54,10.54,9.43,8.67,11.35Z"/>
      <path d="M224.81,360.78c.26-15.35,1.24-32.58,3.63-47.77.28-1.8.7-6.51,3.31-6.24-1.49,15.43-.57,32.88-3.49,47.9-.49,2.54.02,5.4-3.45,6.12Z"/>
      <path d="M169.02,118.53c-6.89-9.75-18.15-24.87-22.73-35.63-1.17-2.74-2.24-4.72-1.63-7.94,9.55,12.95,20.49,27.72,24.36,43.57Z"/>
      <path d="M191.66,127.25l20.92,41.82c-2.22-.49-3.71-2.87-4.92-4.64-2.83-4.16-19-31.81-19.5-34.55-.61-3.32.88-2.88,3.5-2.63Z"/>
      <path d="M325.86,127.23c6.6-10.77,13.18-22.81,22.63-31.35-2.13,8.03-9.55,19.53-14.94,25.99-2.01,2.41-3.98,5.88-7.69,5.36Z"/>
      <path d="M257.92,177.79c.8-10.06,1.01-22.58,3.48-32.23.62-2.42-.05-5.43,3.46-6.11-.8,10.06-1.01,22.58-3.48,32.23-.62,2.42.05,5.43-3.46,6.11Z"/>
      <path d="M202.14,165.57c-3.67.86-3.95-1.96-5.62-3.95-4.86-5.8-13.87-19.15-17.73-25.83-1.27-2.2-3.37-3.86-2.77-6.8,10.39,10.5,18.38,23.94,26.12,36.58Z"/>
      <path d="M270.08,111.55c-3.2-1.18-1.91-10.25-1.7-13.04.45-6.08,1.99-16.84,3.47-22.67.61-2.42-.05-5.43,3.46-6.11l-5.23,41.82Z"/>
      <path d="M184.73,364.26c2.86-12.4,5.51-28.71,13.91-38.34-1.23,7.91-4.18,16.04-6.92,23.56-1.67,4.6-3.18,11.89-6.99,14.78Z"/>
      <path d="M195.16,305.02c-3.9,9.88-8.49,21.87-15.66,29.62,1.43-6.94,5.19-15.83,8.4-22.09,1.33-2.59,3.4-8.55,7.25-7.53Z"/>
      <path d="M327.59,334.64c-7.43-5.91-15.65-13.6-19.13-22.65,7.18,6.12,16.36,13.26,19.13,22.65Z"/>
      <path d="M278.79,334.64c-5.88-6.18-10.13-17.67-12.16-26.14,6.72,6.19,10.3,17.4,12.16,26.14Z"/>
      <path d="M188.2,163.83c-4.55,1.11-3.05-1.45-4.49-3.28-4.15-5.25-9.41-12.82-11.17-19.36,3.42,1.04,16.66,21.67,15.66,22.64Z"/>
      <path d="M238.73,167.32c-5.37.85-2.77-1.39-3.41-4.36-1.16-5.35-1.99-11.04-1.79-16.55,6,3.82,2.65,14.61,5.2,20.9Z"/>
      <polygon points="289.25 364.25 282.21 349.54 280.57 341.62 287.88 356.06 289.25 364.25"/>
      <path d="M223.03,385.17c-3.03-.38-2.03-9.36-1.79-11.39.31-2.61.35-5.37,3.53-6.03l-1.74,17.42Z"/>
      <path d="M315.38,104.58c-4.52-2.06,2.19-12.77,5.23-13.93l-5.23,13.93Z"/>
      <path d="M261.37,341.6c-4.92-2.35-3.2-11.22-3.45-15.67l3.45,15.67Z"/>
      <path d="M167.28,134.21c-2.83,3.27-7.42-8.9-6.94-10.45l6.94,10.45Z"/>
      <path d="M207.37,308.51l-6.12,10.4c-.43-1.34,2.7-13.85,6.12-10.4Z"/>
      <polygon points="174.28 318.95 174.28 314.61 177.73 311.98 177.73 316.32 174.28 318.95"/>
      <path d="M175.98,350.31c-.25.24-1.14-.09-1.7,0l.12-4.21,3.33-2.76c.19,1.37-1.35,6.56-1.75,6.96Z"/>
      <rect x="256.18" y="308.5" width="1.71" height="6.95"/>
      <rect x="264.89" y="120.28" width="1.71" height="5.21"/>
      <g>
        <path d="M142.9,339.86c-.3-1.97,1.7-1.63,1.74-1.74l-1.74,1.74Z"/>
        <path d="M108.06,189.99c32.09-12.1,65.66-13.58,99.01-5.8,69.68,16.25,127.76,44.35,203.18,24.83,8.52-2.21,18.64-10.71,25.36-4.24-7.43,12.9-10.54,27.73-19.41,39.81-18.13,24.69-68.27,50.04-98.35,53.25-55.21,5.91-113.7-19.24-165.96,9.16-4.01,6.45,9.81,25.7,10.19,32.11.25,4.25-3.35,6.93-3.11,10.02.37,4.74,8.11,18.77,10.12,24.66,5.36,15.74,20.89,43.62-6.2,43.67l-4.84-3.13-15.26-56.93c-6.38.34-12.67-2.09-17.88-5.64-25.4-17.29-47.22-99.71-46.62-129.53.19-9.41,4.25-16.16,12.11-20.88-3.87-4.45-2.98-12.25-5.98-16.48-1.5-2.12-5.6-3.62-7.83-6.11-8.72-9.7-6.71-27.44,5.24-33.31,11.49-4.35,22.86,5.29,26.1,15.99,2.74,9.06-4.05,18.31.15,28.54ZM135.06,188.24v1.74c1.13-.58,1.13-1.16,0-1.74ZM142.03,188.24v1.74c1.13-.58,1.13-1.16,0-1.74ZM128.95,190h-3.47v1.71h3.47v-1.71ZM150.74,191.73v1.74c1.13-.58,1.13-1.16,0-1.74ZM204.76,191.73v1.74c1.13-.58,1.13-1.16,0-1.74ZM112.4,193.47v1.74c1.13-.58,1.13-1.16,0-1.74ZM120.24,198.72h-3.46s-1.76,5.19-1.76,5.19h3.46s1.76-5.19,1.76-5.19ZM102.81,200.45h-3.47s.82,5.19.82,5.19c1.91-2.95,2.6.46,4.37-.82l-1.72-4.37ZM107.18,200.44v1.74c1.13-.58,1.13-1.16,0-1.74ZM110.64,200.48c-1.72,1.21.94,2.39,1.78,3.42,1.73-1.14-.81-2.31-1.78-3.42ZM131.57,202.18v1.74c1.13-.58,1.13-1.16,0-1.74ZM172.51,202.19l-15.67,1.76c-1.67,5.85,3.2,4.37,4.46,8.52,1.28,4.22,3.51,19.61,2.57,23.39-3.13,2.41-15.79,8.9-18.42,4.73l-5.29-23.66,7.96-9.52-20.89,7.86c-1.04,5.89,7.18-.79,8.69.86.01,3.69-.26,7.4.23,11.1,1.77,13.31,8.95,41.51,8.34,52.63-.18,3.31-4.04,4.2-3.33,7.71l19.15-3.49c-2.16-3.93-5.86-6.18-10.41-5.23l-3.23-26.84,18.03-9.72c-.14,9.83,7.07,24.55.88,32.23l3.9,2.24,10-4.01-5.25-5.56-8.66-59.71c3.03-1.08,8.18-.35,6.94-5.27ZM210.87,210.89l15.63,6.14,4.39,9.51c8.95-11.54-3.2-15.47-12.58-18.75-12.13-4.24-37.93-13.22-33.58,8.32,6.04,1.87,3.56-8.12,6.26-8.84l13,2.95c-2.05,19.08,3.98,41.57-3.63,59.02l12.24.89c-4.91-7.46-4.57-56.69-1.73-59.24ZM121.99,318.95l5.2-2.59c-3.12-6.38-8.75-14.17-10.44-20.93-1.34-5.36,4.59,2.03,3.49-3.47l-6.04-2.56-4.38-15.76,5.17,2.63c-7.93-8.13-11.01-12.19-10.45-24.42.23-5.01,1.17,0,3.48-1.72l-4.89-1.27-9-44.92,3.46,38.31c-3.51,2.57-8.64-10.29-8.73-12.17-6.72,3.84,2.66,8.58,2.9,9.09.62,1.32,1.89,9.6,2.37,10.09l5.2-1.76-1.18,5.34-4.04,3.36,6.99.02-.02,5.2-8.69-1.72,4.28,8.66,6.15-1.7,3.45,11.36-8.66,1.7,10.43,2.67.06,11.36,3.14-.55,1.68,5.83-4.87,4.22,6.9-1.72,3.53,7.89-3.51,4.29-4.34-3.44.89,5.19,8.69-3.48,1.76,6.97-5.21-1.74,5.13,5.13.08-3.39ZM257.92,209.16l3.45-2.64v-2.59l-3.45,2.64v2.59ZM120.24,205.69h-2.58s-2.61,2.61-2.61,2.61l5.18-.91v-1.71ZM264.02,210.93l-2.6,2.58,2.6,2.58v-5.16ZM284.04,216.11l4.36-1.72.85-3.49-5.21,5.21ZM297.13,214.42l-4.34,4.34.82.82,4.34-4.34-.82-.82ZM111.51,221.35v-2.58s-2.61-2.61-2.61-2.61l.91,5.18h1.71ZM322.37,216.14h-8.7s0,1.71,0,1.71l6.16,1.2,2.54-2.9ZM301.46,228.34c-11.21-1.86-17.14,10.54-26.96,13.94-5.67-8.86-4.63-23.21-18.34-23.57-5.41,5.19,2.14,3.97,3.26,7.2,2.33,6.69-6.65,39.44-9.46,47.73,3.4,7.58,15.6.29,6.27-2.49l6.92-37.6,6.98,15.67,20.86-12.19c-3.13,10.84-4.55,24.52-7.72,35.02-.85,2.81-2.29,3-4.49,4.18l1.07,4.37,11.17.92,1.71-4.36c-5.3-.62-5.44-2.85-5.11-7.66.22-3.31,7.4-32.3,8.64-34.62,1.45-2.7,6.17-2.1,5.2-6.55ZM287.52,217.89h-3.47v1.71h3.47v-1.71ZM324.99,217.87v1.74c1.13-.58,1.13-1.16,0-1.74ZM367.66,224.83v-6.95h-1.71v6.95h1.71ZM399.04,219.63h-5.21s0,3.47,0,3.47l5.2-1.76v-1.7ZM332.83,221.37c-1.01.79,5.11,5.44,6.93,4.36l-4.35-4.36h-2.59ZM379.87,223.12h-5.21s2.62,6.92,2.62,6.92l-.65-4.93,3.24-1.99ZM357.21,238.77l-1.65-7.77-33.19-.91,5.36,4.6-5.36,44.16,12.15-5.25-1.27-3.42-4.03-.98.13-13h13.94s-.02-5.21-.02-5.21l-13.93,1.72,1.75-19.15,21.55,1.8,4.56,3.41ZM404.26,230.09h-5.21v1.71h5.21v-1.71ZM358.11,240.56l-4.34,4.34.82.82,4.34-4.34-.82-.82ZM92.35,250.97v-3.47h-1.71v3.47h1.71ZM371.16,264.94h-3.48s0,3.47,0,3.47l3.47-3.47ZM183.85,266.67v1.74c1.13-.58,1.13-1.16,0-1.74ZM115.89,268.41v1.74c1.13-.58,1.13-1.16,0-1.74ZM126.34,278.87v1.74c1.13-.58,1.13-1.16,0-1.74ZM184.7,284.09v-5.23l-6.94,1.76v1.71l6.94,1.76ZM251.8,280.61v1.74c1.13-.58,1.13-1.16,0-1.74ZM175.99,285.83v-3.47h-1.71v3.47h1.71ZM102.8,289.32v-2.59l-3.45-2.64v2.59l3.45,2.64ZM156.82,289.31v-3.47h-1.71v3.47h1.71ZM171.65,287.58v1.74c1.13-.58,1.13-1.16,0-1.74ZM169.03,294.53h2.59s2.67-2.57,2.67-2.57l1.7-4.38h-1.71s-5.25,6.95-5.25,6.95ZM188.2,287.6h-4.34s-2.63,3.45-2.63,3.45h4.34s2.63-3.45,2.63-3.45ZM234.38,287.58v1.74c1.13-.58,1.13-1.16,0-1.74ZM131.57,291.07v1.74c1.13-.58,1.13-1.16,0-1.74ZM147.54,295.24c-.47-.23-.73-1.21-1.6-1.29l-6.53.62c1.3,5.25,4.44,6.82,9.68,7.11,3.66.02,1.1-5.84,7.73-1.91,1.37-7.27-6.88-1.43-8.43-2.07-.28-.11-.29-2.19-.85-2.47ZM109.78,296.31l-6.93-.91,1.73,4.37,5.2-1.76v-1.7ZM127.21,304.99l-2.6-8.69-2.06,2.54,1.19,6.17,3.47-.02ZM130.7,308.48l5.18-4.24-1.72-6.19c-3.49,1.76,1.37,7.39-3.46,10.43ZM125.47,308.51l4.36,6.92,2.58-2.58-4.35-4.34h-2.59ZM142.9,322.45l6.09.04-3.51-8.75c-7.4.8,2.66,5.54,2.63,7.84l-5.22.88ZM137.65,331.15l-.85-5.22-2.59,2.61,3.43,2.61ZM142.9,339.86l5.23,2.63c3.26-1.94-.16-4.86-3.49-4.37.29-.79-.35-2.4.05-3.49l5.17,1.76,1.75-8.72-9.55,3.38.84,8.81ZM137.65,338.11v-3.47h-1.71v3.47h1.71ZM139.43,350.32l5.17-4.36-2.6-2.6h-4.34s1.76,6.95,1.76,6.95Z"/>
      </g>
    </g>
  </g>
</svg>