<?xml version="1.0" encoding="UTF-8"?>
<svg id="Layer_1" data-name="Layer 1" xmlns="http://www.w3.org/2000/svg" viewBox="0 0 122.82 123.74">
  <defs>
    <style>
      .cls-1 {
        fill: gray;
      }
    </style>
  </defs>
  <g id="_9Kvb1w.tif" data-name="9Kvb1w.tif">
    <g>
      <path class="cls-1" d="M120.56,13.46v96.83c0,5.93-4.81,10.74-10.74,10.74H13c-5.93,0-10.74-4.81-10.74-10.74V13.46C2.26,7.52,7.06,2.72,13,2.72h96.83c5.93,0,10.74,4.81,10.74,10.74ZM34.37,60.14v-13.06c1.55,1.07,2.09,4.2,4.25,3.92,1.53-.2,3.17-4.18,4.52-5.08-.2,2.67.27,5.33.24,7.98,0,1.01-.36,1.9-.25,3,.33,3.04,3.36,1.42,5.43,1.72.71-.14.97-.82,1.05-1.49.84-7.25-.77-15.94.15-23.31.04-2.21-4-2.42-5.33-1.73s-5.13,9-6.04,8.98c-1.74-2.26-2.66-5.14-4-7.55s-3.36-1.31-5.81-1.34c-1.33.6-.96,5.08-.94,6.48.07,4.29.24,8.64.25,12.92,0,2.67-.05,5.33-.14,7.99.37,2.62,3.62,1.72,5.51,1.79.32-.09,1.03-.94,1.09-1.22ZM88.45,47.08v13.29c.67,1.69,6.03,1.49,6.42-.28.11-3.53.03-7.06.04-10.59.02-4.7.04-9.55,0-14.33,0-.94.46-1.67-.34-2.65-.72-.89-4.46-1.02-5.44-.13l-4.61,8.68-.48-.14c-1.46-1.47-4.23-7.94-5.54-8.73-1.5-.9-5.92-.55-5.55,2.06,1.07,7.17-.58,15.58.25,22.65.28,2.38,3.79,1.41,5.49,1.32l.64-.52.35-11.79,4.28,5.08,1.39-.22,3.11-3.71ZM67.3,42.23h-5.78c-.11,0-1.6-.23-1.8-.28-.28-.07-.55-.19-.75-.41-.14-.79-.31-2.25.1-2.91,1.14-1.79,8.02.16,10.12-.74,1.25-.53,1.12-2.93.99-4.1-.15-1.3-.77-1.41-1.96-1.51-3.54-.29-10.37-.33-13.88,0-.81.08-1.62.17-2.01.99-.37,3.13-.11,6.37-.16,9.54-.07,3.87-.27,7.66-.01,11.55.1,1.43-.49,3.31,1.04,4.04h17.33c1.11-.68.55-5.01-.26-5.52-3.07-.76-6.82.16-9.9-.27-.42-.06-.85-.31-1.23-.51l-.29-3.05.69-.92c2.15-.44,4.71.16,6.82-.11s1.5-3.85,1.37-5.32l-.46-.47ZM73.83,61.69c-7.17-2.36-15.89-.26-14.21,9.01.47,2.61,1.66,4.18,3.52,5.96s6.78,4.23,4.74,7.27c-1.81,2.71-6.62-.68-7.97.82-.56.62-.08.97-.13,1.49-.37,3.86-1.24,5.34,3.35,5.67,4.93.35,9.5-.6,11.49-5.63s-.09-8.62-3.62-11.95c-1.54-1.45-5.78-3.69-4.16-6.22,1.44-2.24,5.72.24,6.8-.82.99-.96-.22-3.71.39-5.06l-.21-.54ZM52.8,62.62c-4.23.87-2.41,9.19,2.46,7.08s2.62-8.13-2.46-7.08ZM29.46,63.31c-.39.07-.82.22-1.11.51-.88,1-.19,5.58-.21,7.18-.07,6.33-.5,12.85-.47,19.17,0,2.53,2.39,1.48,3.81,1.48,1.02,0,1.93.45,2.9.13,1.6-.81-1.34-5.83,1.92-6.3,3.32.67,7.11,7.95,10.78,6.29,1.56-.7.76-4.93.88-6.42-.28-.93-3.83-1.64-4.12-3.06-.08-.82,2.45-3.27,3.05-4.34,2.08-3.72,1.62-10.23-2.14-12.73-3.58-2.38-7.35-2.04-11.41-1.99-1.19.01-2.77-.13-3.88.07ZM77.93,91.91h16.87c.83-.57.62-1.75.57-2.66-.04-.97-.19-2.83-1.06-3.33-3.08-.69-6.59.75-9.65-.52-1.22-.68-1.18-4.02-.13-4.7,1.47-.95,6.57.04,8.6-.41.28-.06.55-.18.73-.42.38-1.02.9-4.97-.03-5.55l-9.41-.47-.43-.49-.17-2.83c.39-2.06,4.05-1.07,5.41-1.04,1.08.02,3.94.16,4.69-.53.99-.92,0-3.61.29-4.91l-.36-.56c-.64-.45-5.72-.26-6.93-.26-2.3,0-4.61.14-6.92.26-.87.05-1.55-.61-2.55.2s-.55,2.32-.56,3.35c-.05,6.44-.15,12.79,0,19.18.04,1.89-.59,4.45,1.03,5.67ZM51.07,91.62c1.81.3,5.87,1.16,6.36-1.27.65-3.21-.25-9.25-.19-12.9.02-1.29.67-4.01.03-5.09-.82-1.13-1.48-.47-2.44-.54-1.15-.08-2.41-.63-3.52.04-.93,1.08-.23,2.05-.27,3.06-.16,4.59.07,8.86,0,13.41-.02,1.11-.6,2.22.04,3.28Z"/>
      <path class="cls-1" d="M35.93,69.78c1-.23,3.21.13,4.07.68,3.5,2.26.17,8.62-3.47,8.66-1.15.01-1.8-.48-1.93-1.64-.14-1.26-.16-4.99.06-6.19.13-.73.5-1.33,1.26-1.51Z"/>
    </g>
  </g>
</svg>