<?xml version="1.0" encoding="UTF-8"?>
<svg id="Layer_1" data-name="Layer 1" xmlns="http://www.w3.org/2000/svg" viewBox="0 0 122.82 123.74">
  <defs>
    <style>
      .cls-1 {
        fill: gray;
      }
    </style>
  </defs>
  <g id="KRN7x4">
    <g>
      <g>
        <path class="cls-1" d="M67.39,43.57l3.97.06,6.09,15.05,5.07-14.57c.76-1.05,3.11-.34,4.33-.53v17.11h-2.35v-14.77l-6.26,14.71-2.77-.48-5.73-14.23v14.77h-2.35v-17.11Z"/>
        <polygon class="cls-1" points="3.97 43.57 7.94 43.63 13.53 58.67 19.1 43.6 23.43 43.57 23.43 60.68 21.08 60.68 21.08 45.58 14.55 60.71 12.06 60.65 6.32 45.92 6.32 60.68 3.97 60.68 3.97 43.57"/>
        <path class="cls-1" d="M55.31,54.31c2.06-5.09,10.54-5.86,9.74,1.18-.89,7.83-15.02,11.23-19.63,4.84-.4-.56-.42-1.46-.86-1.83-.62-.53-2.53-.68-2.94-2.09-1.86-6.32,7.39-10.83,11.67-5.8l1.68-2.52c-2.77-1.05-6.2-3.01-5.2-6.54l2.04-.36c1.42,1.82.91,5.04,3.4,6.02.77.07,2.35-2.47,3.13-3.14,1.67-1.45,5.23-3.12,6.03.02-.43,3.69-3.89,4.31-7.03,4.34l-2.94,4.08.92,1.79ZM63.66,43.61c-.39-.63-1.93-.07-2.48.29-.48.32-3.57,3.69-3.18,4.03,1.96.52,7.12-1.96,5.66-4.31ZM45.58,55.65c.37-.48.61-1.05,1.26-1.25l3.43-.24,1.87-2.88c-4.27-4.08-13.67.72-8.91,6.21l1.14.2c.38-.96.63-1.3,1.21-2.04-.15.17-.79,2.29.16,2.01,1.3-.38,3.12-1.84,3.87-3.01-.91-.27-3.48.37-4.03,1ZM45.25,58.33c1.51,5.81,10.08,5.7,14.2,2.63,2.72-2.03,5.17-6.93,1.59-9.19-3.12-.88-5.17,1.67-6.23,4.21l-1.01-2.69-1.51,2.01c1.27.45,3.95,2.95,3.55,4.38-.35,1.25-1.8,1.54-2.7.65l-2.02-4.35c-1.52,1.45-3.76,2.78-5.87,2.34Z"/>
        <path class="cls-1" d="M35.35,43.57c.97.16,3.16,1.48,3.66,2.38,1.14,2.52.76,5.91-2.15,6.85,3.48,1.71,1.6,5.09,3.02,7.88l-2.29-.05-.88-5.33c-.09-.51-1.32-1.66-1.7-1.66h-6.54v6.54c0,.07.5.38.34.5h-2.68s0-17.11,0-17.11c2.8.33,6.56-.44,9.23,0ZM28.47,51.62h6.54c.92,0,2.6-2.31,2.45-3.45-.19-1.42-2.11-2.93-3.46-2.93h-5.03l-.5.5v5.87Z"/>
        <path class="cls-1" d="M98.43,43.57c4.91.77,6.21,6.81,1.85,9.23,2.99,1.64,1.51,4.98,2.69,7.72l-2.32.14c-.8-2.64.5-5.23-2.22-7.01h-6.54v7.05h-2.35v-17.11c2.73.3,6.28-.41,8.89,0ZM91.89,51.62h6.21c2.15,0,3.6-3.66,1.35-5.38-.38-.29-2.01-1-2.36-1h-5.2v6.38Z"/>
        <path class="cls-1" d="M108.1,46.01c-.59.72-.64,2.86-.01,3.51,2.69,2.8,12.25.05,10.57,8.23-1.02,4.99-14.27,4.58-14.02-1.77l2.33-.33c.15,4.75,9.86,5,9.65.55-.24-5.06-12.62-.98-11.29-9.43.81-5.19,12.97-4.87,13.34,1-2.42,1.8-2.42-.81-3.79-1.86-1.58-1.2-5.5-1.46-6.78.1Z"/>
      </g>
      <g>
        <path class="cls-1" d="M41.22,65.21c.23-.74,3.73-.74,4.2-.17l5.17,14.3.7.47,5.42-15.05,3.98-.05v17.45h-2.35v-15.1l-6.26,15.05-1.97.08-6.53-15.13v15.1h-2.35v-16.95Z"/>
        <path class="cls-1" d="M85.85,64.71v7.05h10.4v-6.21c0-.08-.39-.26-.19-.51l1.99-.28.56.45v16.44l-.56.45-1.99-.28c-.19-.25.19-.43.19-.51v-7.55h-10.4v8.39h-2.35v-17.45h2.35Z"/>
        <path class="cls-1" d="M37.42,66.49c.3.35,1.28,2.77,1.11,2.91l-2.65-.04c-.36-3.79-6.53-4.21-8.35-1.4-1.51,5.08,7.21,3.7,9.83,6.13,6.47,9.39-12.23,11.75-12.93,3.03l2.3.05c.11,4.08,8.56,4.41,9.38,1.73,2.08-6.78-11.18-2.42-11.22-9.73-.03-5.62,9.72-6.06,12.52-2.69Z"/>
        <polygon class="cls-1" points="81.82 64.71 81.82 66.72 76.12 66.72 76.12 82.16 73.77 82.16 73.77 66.72 67.73 66.72 67.73 64.71 81.82 64.71"/>
        <rect class="cls-1" x="63.7" y="64.71" width="2.35" height="17.45"/>
      </g>
    </g>
  </g>
</svg>