<?xml version="1.0" encoding="UTF-8"?>
<svg id="Layer_1" data-name="Layer 1" xmlns="http://www.w3.org/2000/svg" viewBox="0 0 491.98 486.46">
  <path d="M260.65,391.81l-12.41,3.33-1.02-3.8-9.79,2.62-2.09-7.8-7.14,1.91-2.77-10.33-2.62.7-2.87-10.73-1.23.33-2.71-10.12-3.4.91-.88-3.28-5.97,1.6,1.3,4.86-9.64,2.58,1.3,4.86-9.64,2.58,1.3,4.86-9.65,2.59,1.3,4.86-7,1.88,3.3,12.33-3.84,1.03,2.54,9.49-10.12,2.71.92,3.42-12.41,3.33-.43-1.6-10.57,2.83-.97-3.61-7.88,2.11-1.59-5.92-9.04,2.42-1.83-6.82-7.71,2.06-2.84-10.59-2.13.57-2.86-10.66-1.52.41-3.33-12.41.88-.24-2.84-10.61,5.15-1.38-2.47-9.2,9.13-2.45-1.28-4.79,12.41-3.33,1.49,5.55,2.68-.72-.83-3.1,8.1-2.17-1.92-7.15,8.1-2.17-1.91-7.14,8.1-2.17-1.92-7.15,8.1-2.17-1.92-7.15,8.1-2.17-.29-1.07-6.44,1.73-1.59-5.95-8.88,2.38-1.4-5.21-9.46,2.53-1.99-7.42-7.58,2.03-2.73-10.2-3,.8-3.33-12.41,1.99-.53-2.79-10.41,6.54-1.75-2.24-8.36,9.72-2.6-1.17-4.35,12.41-3.33.33,1.22,10.58-2.84,1.55,5.77,8.9-2.38,2.27,8.47,6.62-1.77,2.4,8.95,6.05-1.62,2.4,8.95,6.05-1.62,2.01,7.52,1.15-.31-1.8-6.7,8.47-2.27-1.8-6.7,8.47-2.27-1.8-6.7,8.46-2.27-1.8-6.7,8.47-2.27-1.8-6.7,8.47-2.27-1.8-6.7,8.47-2.27-1.8-6.7,8.46-2.27-1.8-6.7,8.47-2.27-1.8-6.7,8.47-2.27-1.8-6.7,8.46-2.27-1.8-6.7,8.47-2.27-1.8-6.7,8.47-2.27-1.8-6.7,8.47-2.27-1.8-6.7,8.46-2.27-1.8-6.7,8.47-2.27-1.8-6.7,8.47-2.27-1.8-6.7,8.46-2.27-1.8-6.7,9.02-2.42-1.59-5.92,9.17-2.46-1.53-5.72,9.73-2.61-1.21-4.52,10.2-2.73-.95-3.54,10.37-2.78-.75-2.8,10.73-2.88-.32-1.21,10.74-2.88-.3-1.12,55.61-14.9,3.33,12.41-.38.1,1.53,5.72-6.32,1.69,2.35,8.75-6.32,1.69,2.35,8.75-6.32,1.69,2.35,8.75-6.33,1.7,2.35,8.75-6.32,1.69,2.35,8.75-6.32,1.69,2.34,8.75-6.32,1.69,2.35,8.75-6.91,1.85,2.22,8.29-7.16,1.92,2.17,8.09-8.2,2.2,1.86,6.96-8.6,2.3,1.75,6.54-9.05,2.42,1.57,5.88-9.2,2.46,1.52,5.66-9.19,2.46,1.52,5.66-9.2,2.47,1.52,5.66-9.2,2.46,1.52,5.66-9.2,2.46,1.52,5.66-9.2,2.46,1.52,5.66-9.2,2.46,1.52,5.66-9.2,2.47,1.52,5.66-9.2,2.46,1.52,5.66-9.19,2.46,1.52,5.66-9.2,2.46,1.52,5.66-9.2,2.47,1.52,5.66-9.2,2.46,1.52,5.66-9.2,2.46,1.52,5.66-9.2,2.46,1.52,5.66-9.2,2.46.14.52,3.43-.92,2.4,8.95,6.05-1.62,2.4,8.94,6.05-1.62,2.4,8.95,6.05-1.62,1.81,6.76,2.79-.75,2.85,10.64.41-.11,3.33,12.41-5.06,1.36,2.51,9.37-8.77,2.35,1.56,5.84-10.41,2.79.35,1.31ZM247.54,382.01l7.79-2.09-.35-1.31,8.77-2.35-1.56-5.84,5.07-1.36-2.03-7.59-.41.11-1.81-6.76-2.79.75-2.4-8.94-6.05,1.62-2.4-8.95-6.05,1.62-2.4-8.94-6.05,1.62-1.95-7.28-3.43.92-.45-1.66-2.62.7-2.4-8.95-6.05,1.62-2.4-8.94-6.05,1.62-2.4-8.95-6.05,1.62-2.4-8.94-6.05,1.62-2.4-8.95-6.05,1.62-.38-1.42-.96.26-2.02-7.52-5.09,1.36-2.4-8.94-6.05,1.62-2.4-8.95-6.05,1.62-2.27-8.47-6.63,1.78-1.55-5.77-8.89,2.38-.33-1.22-7.89,2.11,1.17,4.35-6.54,1.75,2.24,8.36-1.99.53,2.2,8.19,3-.8,1.99,7.42,7.58-2.03,1.4,5.22,9.46-2.53,1.59,5.94,8.89-2.38,1.7,6.34,6.44-1.73.4,1.51.98-.26,2.38,8.88,6.14-1.64,2.4,8.94,6.05-1.62,2.4,8.95,6.05-1.62,2.4,8.95,6.05-1.62,2.4,8.94,6.05-1.62,2.55,9.51,5.05-1.35,2.71,10.12,3.4-.91,2.87,10.73,1.24-.33,2.77,10.33,2.62-.7,2.09,7.8,7.14-1.91,1.02,3.8ZM153.94,405.62l8.27-2.21-.92-3.43,3.84-1.03-1.22-4.55-2.64.71-.62-2.3-1.56.42-2.4-8.95-6.05,1.62-2.4-8.94-6.05,1.62-2.4-8.95-6.05,1.62-2.34-8.73-6.31,1.69-1.49-5.55-5.68,1.52,1.28,4.79-5.15,1.38,2.47,9.21-.87.23,2.37,8.86,1.51-.41,2.84,10.59,2.14-.57,1.83,6.82,7.71-2.06,1.59,5.92,9.03-2.42.96,3.6,7.89-2.11.43,1.61ZM162.12,379.11l4.84-1.3-.68-2.56,9.64-2.58-1.3-4.86,9.64-2.58-1.3-4.86,9.65-2.59-1.3-4.86,9.64-2.58-1.3-4.86,3.69-.99-.74-2.76-6.05,1.62-2.4-8.94-6.05,1.62-2.4-8.95-6.05,1.62-2.4-8.94-6.05,1.62-2.38-8.88-2.8.75,1.51,5.63-8.1,2.17,1.92,7.15-8.1,2.17,1.91,7.14-8.1,2.17,1.92,7.15-8.1,2.17,1.76,6.56.19-.05,2.4,8.95,6.05-1.62,2.4,8.95,6.05-1.62,2.4,8.94ZM229.45,312.17l5.45-1.46-1.07-3.99,9.2-2.47-1.52-5.66,9.2-2.47-1.52-5.66,9.2-2.46-1.52-5.66,9.2-2.46-1.52-5.66,9.2-2.46-1.52-5.66,9.2-2.46-1.52-5.66,9.2-2.47-1.52-5.66,9.19-2.46-1.52-5.66,9.2-2.46-1.52-5.66,9.2-2.46-1.52-5.66,9.2-2.47-1.52-5.66,9.2-2.46-1.52-5.66,9.2-2.46-1.52-5.66,9.2-2.47-1.52-5.66,9.2-2.46-1.52-5.66,9.05-2.42-1.57-5.88,8.6-2.3-1.75-6.53,8.21-2.2-1.86-6.96,7.15-1.92-2.17-8.09,6.91-1.85-2.22-8.28,6.32-1.69-2.35-8.75,6.32-1.69-2.35-8.75,6.33-1.7-2.35-8.75,6.32-1.69-2.35-8.75,6.32-1.69-2.35-8.75,6.33-1.7-2.35-8.75,6.32-1.69-.55-2.06-41.14,11.02.3,1.12-10.73,2.88.32,1.2-10.37,2.78.75,2.8-10.2,2.73.95,3.55-9.74,2.61,1.21,4.52-9.16,2.45,1.53,5.72-9.02,2.42,1.59,5.92-8.47,2.27,1.8,6.7-8.46,2.27,1.8,6.7-8.47,2.27,1.8,6.7-8.47,2.27,1.8,6.7-8.46,2.27,1.8,6.7-8.47,2.27,1.8,6.7-8.47,2.27,1.8,6.7-8.47,2.27,1.8,6.7-8.46,2.27,1.8,6.7-8.47,2.27,1.8,6.7-8.47,2.27,1.8,6.7-8.46,2.27,1.8,6.7-8.47,2.27,1.79,6.7-8.47,2.27,1.8,6.7-8.47,2.27,1.8,6.7-8.46,2.27,1.8,6.7-8.47,2.27,1.8,6.7-7.5,2.01,1.25,4.66,6.05-1.62,2.4,8.94,6.05-1.62,2.4,8.95,6.05-1.62,2.4,8.95,6.05-1.62,2.4,8.94Z"/>
  <path d="M234.05,285.47l-12.41,3.33-3.33-12.41,8.73-2.34-1.7-6.36,8.73-2.34-1.71-6.36,8.73-2.34-1.7-6.36,8.73-2.34-1.7-6.36,8.73-2.34-1.71-6.36,8.73-2.34-1.7-6.36,8.73-2.34-1.7-6.36,8.73-2.34-1.71-6.36,8.73-2.34-1.7-6.36,8.73-2.34-1.7-6.36,8.73-2.34-1.71-6.36,8.73-2.34-1.7-6.36,8.73-2.34-1.7-6.36,8.73-2.34-1.7-6.36,8.73-2.34-1.71-6.36,12.41-3.33,3.33,12.41-8.73,2.34,1.7,6.36-8.73,2.34,1.71,6.36-8.73,2.34,1.7,6.36-8.73,2.34,1.7,6.36-8.73,2.34,1.7,6.36-8.73,2.34,1.71,6.36-8.73,2.34,1.7,6.36-8.73,2.34,1.7,6.36-8.73,2.34,1.71,6.36-8.73,2.34,1.7,6.36-8.73,2.34,1.7,6.36-8.73,2.34,1.71,6.36-8.73,2.34,1.7,6.36-8.73,2.34,1.7,6.36-8.73,2.34,1.71,6.36Z"/>
</svg>