<?xml version="1.0" encoding="UTF-8"?>
<svg id="Layer_1" data-name="Layer 1" xmlns="http://www.w3.org/2000/svg" viewBox="0 0 491.98 486.46">
  <circle cx="73.98" cy="185.34" r="8.27"/>
  <circle cx="99.94" cy="181.17" r="8.27" transform="translate(-98.83 123.73) rotate(-45)"/>
  <circle cx="125.91" cy="177" r="8.27" transform="translate(-78.61 103.84) rotate(-34.89)"/>
  <circle cx="151.87" cy="172.83" r="8.27" transform="translate(-78.16 168.44) rotate(-47.6)"/>
  <circle cx="89.28" cy="210.17" r="8.27" transform="translate(-134.15 163.05) rotate(-55.07)"/>
  <circle cx="115.25" cy="206" r="8.27" transform="translate(-120.53 217.33) rotate(-63.53)"/>
  <circle cx="141.22" cy="201.84" r="8.27"/>
  <circle cx="167.18" cy="197.67" r="8.27" transform="translate(-53.06 333.73) rotate(-81.48)"/>
  <circle cx="82.42" cy="237.91" r="8.27" transform="translate(-167.27 270.29) rotate(-78.28)"/>
  <circle cx="108.39" cy="233.74" r="8.27" transform="translate(-96.04 76.92) rotate(-27.63)"/>
  <circle cx="134.35" cy="229.57" r="8.27" transform="translate(-117.96 313.78) rotate(-78.12)"/>
  <circle cx="160.32" cy="225.4" r="8.27" transform="translate(-72.9 76.68) rotate(-22.05)"/>
  <circle cx="97.73" cy="262.74" r="8.27"/>
  <circle cx="123.69" cy="258.58" r="8.27" transform="translate(-128.02 121.46) rotate(-35.86)"/>
  <circle cx="149.66" cy="254.41" r="8.27" transform="translate(-145.48 257.7) rotate(-60.17)"/>
  <circle cx="175.62" cy="250.24" r="8.27" transform="translate(-128.33 282.98) rotate(-61.09)"/>
  <circle cx="90.86" cy="290.48" r="8.27" transform="translate(-135.41 86.93) rotate(-30.66)"/>
  <circle cx="116.83" cy="286.31" r="8.27" transform="translate(-158.94 146.4) rotate(-40.9)"/>
  <circle cx="142.79" cy="282.14" r="8.27" transform="translate(-138.21 137.11) rotate(-35.86)"/>
  <circle cx="168.76" cy="277.97" r="8.27" transform="translate(-104.25 101.29) rotate(-25.83)"/>
  <path d="M300.65,197.28v105.9h19.21l-8.16-104.5c-4.09-.33-7.81-.84-11.06-1.4Z"/>
  <circle cx="290.71" cy="109.22" r="8.17"/>
  <circle cx="328.83" cy="101.33" r="8.17"/>
  <circle cx="304.51" cy="78.98" r="8.17"/>
  <path d="M189.54,110.27c.15,1.76,2.63,1.99,3.1.29l12.72-45.8c.26-.94-.38-1.88-1.34-1.99l-16.66-1.89c-.99-.11-1.84.71-1.75,1.7l3.94,47.7Z"/>
  <path d="M204.58,114.4l37.46-29.27c.77-.6.82-1.74.1-2.4l-12.27-11.43c-.73-.68-1.9-.52-2.42.32l-25.19,40.7c-.93,1.5.93,3.16,2.32,2.08Z"/>
  <path d="M208.73,128.96l47.52-1.32c.97-.03,1.69-.92,1.51-1.87l-3.09-16.48c-.18-.98-1.22-1.55-2.14-1.18l-44.43,17.8c-1.64.66-1.13,3.1.63,3.05Z"/>
  <path d="M464.37,202.21c0-9.22-1.81-18.16-5.37-26.6-3.44-8.14-8.37-15.44-14.63-21.71-6.27-6.27-13.57-11.19-21.71-14.64-8.43-3.57-17.38-5.37-26.6-5.37h-112.79c-11.75,0-21.7,7.85-24.88,18.58h-21.22c-.17,0-.35,0-.52.01-.04,0-.08,0-.13,0-.17,0-.34.02-.52.03,0,0-.01,0-.02,0-.17.01-.33.03-.49.05-.04,0-.08,0-.12.01-.17.02-.34.04-.5.07-.01,0-.02,0-.03,0-.16.02-.32.05-.47.08-.04,0-.08.01-.12.02-.17.03-.33.07-.49.11-.01,0-.03,0-.04.01-.15.04-.3.07-.45.12-.04,0-.07.02-.11.03-.16.04-.32.09-.48.14-.02,0-.03.01-.05.02-.15.05-.29.1-.44.15-.03.01-.06.02-.09.03-.16.06-.32.12-.47.18-.02,0-.03.01-.05.02-.14.06-.29.12-.43.18-.03.01-.05.02-.08.03-.15.07-.31.14-.46.21-.01,0-.03.01-.04.02-.14.07-.28.14-.42.22-.02.01-.04.02-.06.03-.15.08-.3.16-.45.25-.01,0-.02.01-.04.02-.14.08-.28.17-.42.25-.01,0-.03.02-.04.03-.15.09-.29.19-.43.29,0,0-.02.01-.03.02-.14.1-.28.19-.41.29,0,0-.02.01-.03.02-.14.1-.28.21-.42.32,0,0-.01.01-.02.02-.14.11-.27.22-.4.33,0,0,0,0,0,0-.14.12-.27.24-.4.36,0,0,0,0-.01.01-.26.24-.52.5-.77.76,0,0,0,0,0,0-.25.26-.49.54-.71.82,0,0,0,0,0,0-.23.28-.45.57-.66.87,0,0,0,0,0,0-.63.9-1.16,1.87-1.58,2.9-1.65-4.68-3.82-9.16-6.47-13.41-4.69-7.49-10.71-13.92-17.89-19.12-7.18-5.2-15.18-8.9-23.76-11.01-8.89-2.18-18.01-2.55-27.11-1.09l-111.37,17.88c-14.13,2.27-23.77,15.61-21.51,29.73l25.48,158.69c1.1,6.84,4.8,12.85,10.41,16.91,3.15,2.27,6.68,3.79,10.39,4.48l168.98,65.17c9.25,3.57,19.19-3.3,19.12-13.21l-3.93-104.44-.3.08c-.05-.6-.13-1.21-.23-1.82l-6.21-38.65h18.49v68.52c0,.93.05,1.85.15,2.76l-.46,71.86c-.07,10.35,10.69,17.22,20.05,12.81l134.23-63.19c3.88-.88,7.67-2.11,11.37-3.67,8.14-3.44,15.44-8.37,21.71-14.63,6.27-6.27,11.19-13.57,14.63-21.71,3.57-8.43,5.37-17.38,5.37-26.6v-.94c0-13.3-3.81-26.09-10.9-37.05,7.09-10.96,10.9-23.75,10.9-37.05v-.94ZM68.89,315.7l-24.46-152.3,108.17-17.37c10.32-1.66,20.67.8,29.14,6.93,8.47,6.13,14.05,15.18,15.71,25.5l.15.93c1.6,9.97-.66,20.04-6.38,28.36l-7.87,11.46,11.06,8.42c8.03,6.11,13.33,14.97,14.94,24.93l6.35,39.57-146.81,23.58ZM237.85,236.29v-23.17h-23.17v-21.71h23.17v-23.17h21.71v23.17h23.17v21.71h-23.17v23.17h-21.71ZM435.19,203.15c0,10.1-3.83,19.68-10.79,26.99l-9.59,10.06,9.59,10.06c6.96,7.31,10.79,16.89,10.79,26.99v.94c0,10.45-4.07,20.28-11.46,27.67-7.39,7.39-17.22,11.46-27.67,11.46h-109.56v-88.77s0,0,0,0c.21-.04.42-.09.63-.15,0,0,0,0,0,0,.2-.05.4-.11.59-.16.02,0,.04-.01.05-.02.19-.06.38-.12.57-.18.02,0,.03-.01.05-.02.39-.14.78-.29,1.16-.46,0,0,0,0,.01,0,.18-.08.36-.17.54-.26.02,0,.04-.02.05-.03.18-.09.35-.18.52-.27.02,0,.03-.02.05-.03.36-.2.7-.41,1.04-.64,0,0,.01,0,.02-.01.16-.11.32-.22.48-.34.02-.01.04-.03.05-.04.16-.11.31-.23.46-.35.02-.01.03-.03.05-.04.31-.25.61-.51.91-.79,0,0,.02-.02.03-.03.14-.13.28-.27.41-.41.02-.02.04-.04.05-.05.13-.14.26-.28.39-.42.02-.02.03-.03.05-.05.13-.15.26-.3.38-.45,0,0,0,0,0,0,.13-.15.25-.31.37-.47.01-.01.02-.03.03-.04.11-.15.23-.31.33-.46.02-.02.03-.05.05-.07.11-.15.21-.31.31-.47.01-.02.03-.04.04-.07.1-.17.2-.33.3-.5,0,0,0,0,0,0,.1-.17.19-.34.28-.51.01-.02.02-.04.03-.06.09-.17.17-.34.25-.51.01-.03.03-.06.04-.09.08-.17.15-.34.23-.51.01-.03.02-.05.03-.08.07-.18.15-.36.21-.55,0,0,0,0,0,0,.07-.18.13-.37.19-.55,0-.02.02-.05.02-.07.06-.18.11-.36.16-.55,0-.03.02-.07.03-.1.05-.18.09-.37.14-.55,0-.03.01-.06.02-.09.04-.19.08-.39.12-.59,0,0,0,0,0,0,.03-.2.06-.39.09-.59,0-.03,0-.06.01-.09.03-.19.05-.38.06-.58,0-.04,0-.07,0-.11.02-.19.03-.39.04-.58,0-.03,0-.06,0-.09,0-.21.01-.41.01-.62v-23.09c0-.21,0-.41-.01-.62,0-.03,0-.06,0-.09,0-.2-.02-.39-.04-.58,0-.04,0-.07,0-.11-.02-.19-.04-.39-.06-.58,0-.03,0-.06-.01-.09-.03-.2-.06-.4-.09-.59,0,0,0,0,0,0-.04-.2-.08-.39-.12-.59,0-.03-.01-.06-.02-.09-.04-.19-.09-.37-.14-.55,0-.03-.02-.07-.03-.1-.05-.18-.1-.36-.16-.55,0-.02-.02-.05-.02-.07-.06-.19-.12-.37-.19-.55,0,0,0,0,0,0-.07-.18-.14-.37-.21-.55-.01-.03-.02-.05-.03-.08-.07-.17-.15-.34-.23-.51-.01-.03-.03-.06-.04-.09-.08-.17-.16-.34-.25-.51-.01-.02-.02-.04-.03-.06-.09-.17-.18-.34-.28-.51,0,0,0,0,0,0-.1-.17-.2-.34-.3-.5-.01-.02-.03-.04-.04-.07-.1-.16-.2-.32-.31-.47-.02-.02-.03-.05-.05-.07-.11-.16-.22-.31-.33-.46-.01-.01-.02-.03-.03-.04-.12-.16-.24-.31-.37-.47,0,0,0,0,0,0-.12-.15-.25-.3-.38-.45-.02-.02-.03-.03-.05-.05-.13-.14-.26-.28-.39-.42-.02-.02-.04-.04-.05-.05-.13-.14-.27-.27-.41-.41,0,0-.02-.02-.03-.03-.29-.27-.59-.54-.91-.79-.02-.01-.03-.03-.05-.04-.15-.12-.3-.24-.46-.35-.02-.01-.04-.03-.05-.04-.16-.12-.32-.23-.48-.34,0,0-.01,0-.02-.01-.34-.23-.69-.44-1.04-.64-.02,0-.03-.02-.05-.03-.17-.09-.34-.19-.52-.27-.02,0-.04-.02-.05-.03-.18-.09-.36-.18-.54-.26,0,0,0,0-.01,0-.38-.17-.76-.32-1.16-.46-.02,0-.03-.01-.05-.02-.19-.07-.38-.13-.57-.18-.02,0-.04-.01-.05-.02-.2-.06-.39-.11-.59-.16,0,0,0,0,0,0-.21-.05-.42-.1-.63-.15,0,0,0,0,0,0v-12.89h109.56c10.45,0,20.28,4.07,27.67,11.46,7.39,7.39,11.46,17.22,11.46,27.67v.94Z"/>
  <path d="M357.75,193.69c-9.25,2.9-18.16,4.42-26.37,5.04l-.47,104.44h65.14c13.77,0,24.98-11.21,24.98-24.98v-.94c0-6.44-2.45-12.56-6.89-17.22l-18.89-19.83,18.89-19.83c4.44-4.66,6.89-10.78,6.89-17.22v-.94c0-4.62-1.26-8.95-3.46-12.66-16.23-1.89-38.78-2.45-59.82,4.14ZM345.95,241.75c-2.54,0-4.6-2.06-4.6-4.6s2.06-4.6,4.6-4.6,4.6,2.06,4.6,4.6-2.06,4.6-4.6,4.6ZM346.58,220.31c-2.54,0-4.6-2.06-4.6-4.6s2.06-4.6,4.6-4.6,4.6,2.06,4.6,4.6-2.06,4.6-4.6,4.6ZM355.95,228.06c0-2.54,2.06-4.6,4.6-4.6s4.6,2.06,4.6,4.6-2.06,4.6-4.6,4.6-4.6-2.06-4.6-4.6ZM363.01,288.02c-2.54,0-4.6-2.06-4.6-4.6s2.06-4.6,4.6-4.6,4.6,2.06,4.6,4.6-2.06,4.6-4.6,4.6Z"/>
</svg>