<?xml version="1.0" standalone="no"?>
<!DOCTYPE svg PUBLIC "-//W3C//DTD SVG 20010904//EN"
 "http://www.w3.org/TR/2001/REC-SVG-20010904/DTD/svg10.dtd">
<svg version="1.0" xmlns="http://www.w3.org/2000/svg"
 width="300.000000pt" height="300.000000pt" viewBox="0 0 300.000000 300.000000"
 preserveAspectRatio="xMidYMid meet">

<g transform="translate(0.000000,300.000000) scale(0.100000,-0.100000)"
fill="#000000" stroke="none">
<path d="M1140 2930 l0 -70 -140 0 -140 0 0 -70 0 -69 -142 -3 -143 -3 -3 -72
-3 -73 -69 0 -70 0 0 -70 0 -70 -75 0 -75 0 0 -145 0 -145 -70 0 -70 0 0 -140
0 -140 -70 0 -70 0 0 -360 0 -360 70 0 70 0 0 -140 0 -140 70 0 69 0 3 -142 3
-143 73 -3 72 -3 0 -69 0 -70 70 0 69 0 3 -72 3 -73 143 -3 142 -3 0 -69 0
-70 140 0 140 0 0 -70 0 -70 360 0 360 0 0 70 0 70 140 0 140 0 0 70 0 69 143
3 142 3 3 73 3 72 69 0 70 0 0 70 0 70 70 0 69 0 3 143 3 142 73 3 72 3 0 139
0 140 70 0 70 0 0 360 0 360 -70 0 -70 0 0 140 0 139 -72 3 -73 3 -3 143 -3
142 -69 0 -70 0 0 70 0 70 -70 0 -69 0 -3 73 -3 72 -142 3 -143 3 0 69 0 70
-140 0 -140 0 0 70 0 70 -360 0 -360 0 0 -70z m720 -430 l0 -70 70 0 70 0 0
-75 0 -75 145 0 145 0 0 -70 0 -70 70 0 70 0 0 -70 0 -70 140 0 140 0 0 -140
0 -140 -140 0 -140 0 0 70 0 70 -145 0 -145 0 0 70 0 70 -215 0 -215 0 0 70 0
70 -355 0 -355 0 0 -70 0 -70 -215 0 -215 0 0 70 0 70 -70 0 -70 0 0 70 0 70
140 0 140 0 0 75 0 75 145 0 145 0 0 70 0 70 430 0 430 0 0 -70z m-150 -860
l0 -70 215 0 215 0 0 -70 0 -69 73 -3 72 -3 3 -72 3 -73 139 0 140 0 0 -70 0
-70 -70 0 -70 0 0 -70 0 -70 -145 0 -145 0 0 70 0 70 -140 0 -139 0 -3 73 -3
72 -142 3 -143 3 0 69 0 70 -285 0 -285 0 0 -70 0 -69 -142 -3 -143 -3 -3 -72
-3 -73 -139 0 -139 0 -3 73 -3 72 -67 3 -68 3 0 69 0 70 140 0 140 0 0 70 0
70 145 0 145 0 0 70 0 70 425 0 425 0 0 -70z m-280 -710 l0 -70 285 0 285 0 0
-75 0 -75 70 0 70 0 0 -70 0 -70 75 0 74 0 -1 -70 -1 -70 -144 0 -143 0 0 70
0 69 -142 3 -143 3 -3 73 -3 72 -354 0 -355 0 0 -75 0 -76 -142 3 -143 3 -3
67 -3 67 73 3 73 3 3 73 3 72 139 0 140 0 0 70 0 70 145 0 145 0 0 -70z"/>
</g>
</svg>
