<svg width="42" height="40" viewBox="0 0 42 40" fill="none" xmlns="http://www.w3.org/2000/svg">
<path d="M10.43 8.61002C10.43 8.28002 10.67 7.63 11.16 6.66L10.43 6.09C9.93999 5.66 9.39999 5.44 8.79999 5.44C8.19999 5.44 7.84999 5.39 7.73999 5.28C7.62999 5.12 7.47 5.04001 7.25 5.04001C6.98 5.04001 6.55999 4.74001 5.98999 4.14001C5.41999 3.54001 5.13 3.11 5.13 2.84C5.13 1.86 5.64999 1.21001 6.67999 0.890015C7.16999 0.780015 7.41 0.669998 7.41 0.559998C7.41 0.449998 8.44 0.400024 10.5 0.400024C12.56 0.400024 13.62 0.320004 13.68 0.160004C13.79 0.0500037 14.06 0 14.49 0C14.71 0 15.1 0.0100085 15.67 0.0400085C16.24 0.0700085 17.09 0.110004 18.24 0.160004C19.38 0.220004 20.57 0.270007 21.82 0.320007C23.56 0.370007 24.62 0.560015 25 0.890015C25.33 1.16001 25.49 2.08 25.49 3.66V4.64001C25.49 5.73001 25.65 6.59 25.98 7.25C26.03 7.36 26.05 7.48003 26.02 7.62003C25.99 7.76003 25.99 7.88002 26.02 7.99002C26.05 8.10002 26.09 8.15002 26.14 8.15002C26.25 8.26002 26.3 8.42001 26.3 8.64001C26.3 8.80001 26.38 9.08001 26.54 9.45001C26.7 9.83001 26.88 10.22 27.07 10.63C27.26 11.04 27.38 11.27 27.44 11.32C27.98 12.68 28.25 13.44 28.25 13.6C28.25 13.71 28.32 13.84 28.45 14.01C28.58 14.17 28.63 14.34 28.57 14.5C28.46 14.72 28.49 14.83 28.65 14.83C28.76 14.83 29.22 15.62 30.03 17.19C30.52 18.28 30.76 18.9 30.76 19.06C30.76 19.22 30.87 19.47 31.09 19.79C31.25 20.01 31.55 20.71 31.99 21.91C32.42 23.1 32.75 23.78 32.97 23.95L33.46 24.93C34.38 26.88 35.12 28.3 35.66 29.17C36.47 30.36 36.94 31.1 37.04 31.37C37.09 31.59 37.62 32.18 38.63 33.16C39.63 34.14 40.22 34.63 40.38 34.63C40.49 34.63 40.65 34.74 40.87 34.96C41.09 35.18 41.2 35.34 41.2 35.45C41.2 35.61 41.28 35.69 41.44 35.69C41.82 35.69 41.79 36.07 41.36 36.83C41.25 36.99 41.14 37.13 41.03 37.24C40.65 37.62 40.08 38.01 39.32 38.42C38.56 38.83 38.02 39.03 37.69 39.03C37.42 39.03 37.2 39.11 37.04 39.27C36.93 39.38 36.47 39.43 35.66 39.43C34.68 39.43 33.22 39.35 31.26 39.19C30.28 39.14 29.5 38.84 28.9 38.29C28.36 37.85 28.03 37.18 27.92 36.25C27.81 35.44 27.7 34.84 27.59 34.46C26.99 32.94 26.56 31.99 26.29 31.61C25.96 30.9 25.75 30.55 25.64 30.55C25.53 30.55 25.48 30.44 25.48 30.22C25.48 30 25.4 29.89 25.24 29.89C25.13 29.89 25.08 29.81 25.08 29.65C25.08 29.43 24.93 29.03 24.63 28.43C24.33 27.83 24.15 27.48 24.1 27.37C24.1 27.32 24.02 27.14 23.86 26.84C23.7 26.54 23.55 26.27 23.41 26.03C23.27 25.79 23.23 25.64 23.29 25.58C23.35 25.52 23.32 25.5 23.21 25.5C23.05 25.5 22.97 25.39 22.97 25.17C22.97 24.9 22.73 24.57 22.24 24.19L21.59 23.54L17.52 23.62H13.53L13.12 24.35C13.01 24.51 12.89 24.89 12.75 25.49C12.61 26.09 12.46 26.47 12.3 26.63C12.19 26.74 12.14 26.98 12.14 27.36C12.14 27.8 12.06 28.01 11.9 28.01C11.85 28.01 11.78 28.17 11.7 28.5C11.62 28.83 11.55 29.15 11.5 29.48C11.45 29.81 11.39 30 11.34 30.05C11.23 30.16 11.12 30.54 11.01 31.19V31.84C11.01 32.71 11.47 33.22 12.39 33.39C13.04 33.5 13.53 33.55 13.86 33.55C14.51 33.6 15.09 33.84 15.61 34.24C16.13 34.65 16.38 35.07 16.38 35.5C16.38 35.72 16.22 36.15 15.89 36.8C15.46 37.78 14.53 38.35 13.12 38.51C12.47 38.62 12.09 38.73 11.98 38.84C11.93 38.95 10.79 39 8.56 39C6.33 39 5.13998 38.95 4.97998 38.84C4.86998 38.79 4.37998 38.69 3.50998 38.56C2.63998 38.42 2.14998 38.3 2.03998 38.19C1.87998 38.03 1.69 37.95 1.47 37.95C1.25 37.95 0.950007 37.72 0.570007 37.26C0.190007 36.8 0 36.43 0 36.16C0 35.89 0.190007 35.55 0.570007 35.14C0.950007 34.73 1.32999 34.5 1.70999 34.45C2.13999 34.34 2.35999 34.23 2.35999 34.12C2.35999 34.01 2.44001 33.96 2.60001 33.96C3.03001 33.96 3.62998 33.69 4.38998 33.15C5.14998 32.61 5.53 32.17 5.53 31.85C5.53 31.63 5.59998 31.38 5.72998 31.08C5.85998 30.78 5.95999 30.52 6.01999 30.31C6.01999 29.98 6.06999 29.7 6.17999 29.45C6.28999 29.21 6.34 28.98 6.34 28.76C6.34 28.38 6.41999 28.16 6.57999 28.11C6.62999 28.06 6.74 27.59 6.91 26.73C7.07 25.86 7.17999 25.4 7.23999 25.35C7.34999 25.24 7.39999 24.97 7.39999 24.54C7.39999 24.16 7.47999 23.89 7.64999 23.73L7.81 22.83C7.92 22.29 8.01001 21.74 8.10001 21.2C8.18001 20.66 8.24999 20.39 8.29999 20.39C8.34999 20.39 8.42998 20.04 8.53998 19.33C8.64998 18.62 8.76 17.89 8.87 17.13L9.12 16.07C9.12 16.02 9.20999 15.19 9.39999 13.59C9.58999 11.99 9.70999 11.16 9.76999 11.11C9.92999 10.95 10.01 10.68 10.01 10.3C10.01 9.97002 10.08 9.69001 10.21 9.45001C10.34 9.21001 10.41 8.95002 10.41 8.68002L10.43 8.61002ZM15.97 12.11C15.97 12.27 15.89 12.6 15.73 13.09C15.57 13.58 15.48 13.88 15.48 13.99C15.48 14.04 15.34 14.26 15.07 14.64C14.85 14.91 14.74 15.45 14.74 16.27C14.74 16.98 14.85 17.41 15.07 17.57C15.78 17.95 16.7 18.19 17.84 18.3C18.92 18.41 19.52 18.54 19.63 18.71C19.68 18.82 19.82 18.79 20.04 18.63C20.26 18.47 20.38 18.11 20.41 17.57C20.44 17.03 20.37 16.7 20.21 16.59C20.05 16.43 19.97 16.13 19.97 15.69C19.97 15.09 19.89 14.77 19.73 14.71C19.62 14.6 19.59 14.47 19.65 14.3C19.7 14.19 19.57 13.81 19.24 13.16C18.91 12.45 18.7 11.75 18.59 11.04C18.48 10.28 18.37 9.90002 18.26 9.90002C18.15 9.90002 18.1 9.79001 18.1 9.57001C18.1 9.35001 17.99 9.24002 17.77 9.24002C17.61 9.24002 17.47 9.19002 17.36 9.08002L16.87 9.16C16.54 9.38 16.38 9.81002 16.38 10.46C16.38 10.79 16.31 11.08 16.18 11.36C16.04 11.63 15.98 11.88 15.98 12.09L15.97 12.11Z" fill="black"/>
</svg>
