<svg width="54" height="74" viewBox="0 0 54 74" fill="none" xmlns="http://www.w3.org/2000/svg">
<path d="M40.3156 35.9945C41.5356 43.0545 42.8156 51.3945 44.3056 58.6145C44.7856 60.9445 45.6155 63.2244 45.7655 65.6444C46.2255 66.6644 50.6256 66.5545 51.9056 67.7945C53.6256 69.4745 53.3156 71.7244 51.6156 73.2644C49.6156 75.0744 47.0256 73.0244 44.8356 72.9744C43.3556 72.9444 42.8656 73.5845 41.8356 73.7345C40.3256 73.9445 32.9355 73.3645 31.4855 72.9345C31.3655 72.8945 29.5556 71.5044 29.4756 71.4044C26.9956 68.3144 31.7556 64.3545 34.9556 66.2945C35.1656 61.3545 34.8056 56.4945 34.1656 51.6145C33.9456 50.9545 32.4156 50.7845 31.7456 50.6845C28.4856 50.1545 21.9855 49.9244 18.7355 50.0844C18.2555 50.1044 17.5456 50.2344 17.2556 50.6444C16.8956 51.1544 15.8356 55.6044 15.6856 56.5244C15.3456 58.5244 15.4156 60.5645 15.2056 62.5645C17.1356 62.4445 19.6556 65.6845 18.4456 67.3145C18.3656 67.4245 16.3656 68.9544 16.2156 69.0244C15.6556 69.2644 11.8456 68.9845 10.9256 68.9145C9.55555 68.8145 7.70555 68.1745 6.42555 68.1645C4.59555 68.1445 3.05557 69.3744 1.25557 67.7744C-0.12443 66.5444 -0.284435 65.6244 0.375565 63.9644C1.64557 60.7444 4.07555 62.1644 4.39555 61.8344C4.46555 61.7644 4.35555 60.4045 4.48555 59.8745C8.90555 41.0645 17.4156 22.2744 25.4656 4.77444C26.3256 2.91444 26.0256 0.724438 28.8156 0.0844383C33.1656 -0.905562 33.9856 7.08448 34.6956 9.68447C37.2456 19.0745 38.7056 26.5445 40.3356 36.0045L40.3156 35.9945ZM33.0856 44.2945C32.7256 36.3545 30.1356 28.8145 29.1456 20.9945L28.6156 20.0545L20.7856 43.1645C23.5456 43.1645 26.8556 42.6745 29.5656 43.1645C30.4856 43.3245 30.3356 44.2045 30.7456 44.3045C31.3956 44.4645 32.3756 44.2045 33.0956 44.3045L33.0856 44.2945Z" fill="#1E161F"/>
</svg>
