<svg width="46" height="72" viewBox="0 0 46 72" fill="none" xmlns="http://www.w3.org/2000/svg">
<path d="M10.4129 20.903C10.4329 20.303 10.1829 19.353 10.7829 19.043C10.6429 19.653 10.5429 20.323 10.4129 20.903Z" fill="#EF5268"/>
<path d="M10.793 18.673C11.293 15.583 12.353 12.583 13.013 9.51301C13.433 7.58301 12.633 5.44301 14.503 3.54301C15.193 2.84301 17.943 1.52301 18.903 1.23301C19.593 1.02301 20.473 1.18301 21.263 0.983013C22.003 0.803013 22.763 0.0430021 23.313 0.00300214C24.043 -0.0469979 24.383 0.542997 24.853 0.622997C27.483 1.073 27.663 0.523014 29.303 2.95301C29.513 3.27301 30.103 3.31299 30.193 3.64299C30.483 4.71299 29.993 6.71301 30.213 8.01301C30.633 10.553 32.143 14.253 32.713 16.703C34.763 25.473 36.293 32.953 39.033 42.083C39.273 42.883 39.593 46.563 39.883 47.013C39.013 46.643 39.263 48.313 38.403 47.753C38.333 47.713 37.893 46.523 37.563 46.383C36.123 45.813 36.363 46.743 35.853 46.983C35.603 47.103 35.103 46.943 34.793 47.143C33.903 47.723 34.093 48.393 33.793 49.133C33.743 49.263 33.243 49.273 33.183 49.523C33.063 50.033 33.063 52.223 33.183 52.733C33.243 52.983 33.743 52.993 33.793 53.123C33.963 53.563 33.863 54.093 34.043 54.373C34.123 54.503 35.773 55.983 35.963 56.003C36.533 56.073 40.483 56.153 40.643 55.983C40.773 55.843 40.513 54.613 40.643 54.483C41.173 53.953 42.123 55.753 42.133 52.993C43.473 53.843 42.743 54.953 42.873 55.723C42.903 55.903 44.333 58.363 44.433 58.723C44.823 60.163 45.793 64.333 45.863 65.673C45.083 65.813 40.813 65.483 40.643 65.673C40.533 65.793 40.763 66.533 40.633 66.873C40.503 67.213 39.963 67.153 39.903 67.413C39.773 67.973 40.033 68.643 39.903 69.153C39.823 69.503 39.203 69.363 39.163 69.403C38.733 69.913 40.593 70.583 39.893 71.633C38.783 71.733 36.893 71.783 35.883 71.353C35.393 71.143 32.493 68.573 32.103 68.053C31.053 66.633 31.273 65.353 30.853 64.073C29.863 61.043 28.813 57.793 27.983 54.953C27.573 53.553 28.343 50.263 25.723 51.503C25.753 51.483 25.613 51.003 25.813 50.853C26.253 50.523 27.443 51.173 27.223 50.013L27.963 50.753C28.533 49.223 27.503 48.743 27.343 48.403C27.153 47.963 27.313 47.523 27.113 47.133C27.023 46.943 26.543 47.163 26.473 46.843C26.273 45.993 27.123 46.463 27.233 46.043C27.823 43.783 27.053 44.293 26.003 44.053C25.553 43.953 26.003 42.963 24.993 43.303C25.053 43.933 24.863 44.683 24.993 45.283C25.023 45.433 27.183 47.263 24.783 47.053C23.683 46.953 23.633 45.473 23.363 44.923C23.303 44.793 22.883 44.813 22.763 44.503C22.623 44.133 22.843 43.483 22.743 43.303C22.283 42.433 19.073 45.583 19.033 45.813C18.893 46.493 18.893 48.753 18.993 49.483C19.073 50.113 19.553 49.913 19.733 50.323C20.213 51.423 20.023 52.023 21.633 52.623C20.603 52.813 19.733 52.393 18.533 52.993C17.093 53.713 14.873 54.153 13.053 54.483C14.163 54.143 14.233 55.893 13.053 55.603C13.093 55.243 13.023 54.853 13.053 54.483C11.373 54.793 11.593 53.813 11.303 53.743C10.763 53.613 8.983 53.633 8.373 53.713C7.623 53.813 7.28298 54.983 6.98298 55.113C6.50298 55.323 5.68298 55.153 5.60298 55.223C5.41298 55.383 5.50298 59.743 5.60298 60.183C5.63298 60.313 6.98298 62.003 7.07298 62.233C7.21298 62.583 6.993 63.313 7.093 63.433C7.193 63.553 9.81298 63.523 10.293 63.473C11.123 63.383 10.713 62.123 11.193 63.063C11.063 63.483 11.293 64.313 10.903 64.813L7.57298 70.913C5.91298 71.933 2.203 72.253 1.313 70.143C0.992999 69.403 1.25299 68.773 1.11299 68.163C1.03299 67.823 0.312988 68.033 0.332988 67.353C0.362988 66.453 1.22299 65.893 1.14299 65.133C1.12299 64.923 -0.0670291 63.723 0.00297093 61.383C0.0429709 59.833 0.892979 57.543 1.29298 55.943C1.94298 53.333 3.47299 49.443 3.74299 47.013C5.53299 46.663 6.96297 45.643 7.94297 44.143C8.28297 43.873 9.20298 44.143 9.32298 44.033C9.51298 43.873 9.42298 39.513 9.32298 39.073C9.28298 38.913 8.22299 36.683 7.96299 36.463L7.093 33.973C8.163 29.963 9.05298 25.763 10.073 21.663C11.403 21.433 10.633 22.873 10.823 23.643C10.893 23.923 11.493 23.873 11.553 24.153C11.673 24.663 11.443 26.033 11.553 26.133C11.663 26.233 12.413 26.013 12.753 26.143C13.093 26.273 13.033 26.793 13.293 26.863C15.253 27.373 15.313 26.183 15.523 26.133C16.053 26.013 16.683 26.233 17.233 26.113C17.533 26.053 18.043 24.973 18.373 24.753C18.643 24.573 20.313 24.433 20.473 23.613C20.593 23.003 20.623 20.983 20.483 20.413C20.413 20.133 19.813 20.183 19.753 19.903C19.533 18.903 20.133 18.103 18.883 17.303C18.593 17.113 18.073 17.223 17.643 17.053C17.513 17.003 17.503 16.503 17.253 16.443C16.673 16.303 13.933 16.323 13.313 16.443C12.913 16.523 11.693 18.803 10.803 18.663L10.793 18.673ZM24.953 2.26301C22.213 1.55301 23.583 5.13301 25.323 4.13301C25.643 5.38301 24.413 4.68301 24.203 4.88301C23.413 5.63301 25.153 5.49299 24.943 5.99299C23.853 5.91299 22.813 6.49299 22.523 5.24299L21.963 5.99299C22.633 3.57299 20.643 4.74301 20.483 5.51301C20.373 6.05301 20.353 7.453 20.483 7.973C20.553 8.253 21.153 8.19301 21.213 8.48301C21.333 9.01301 21.113 9.643 21.233 10.193C21.263 10.313 22.853 11.913 22.973 11.943C24.373 12.283 24.143 11.283 24.453 11.213C24.983 11.093 25.623 11.313 26.163 11.193C26.283 11.163 27.883 9.563 27.903 9.443C28.013 8.903 28.033 7.50299 27.903 6.99299C27.843 6.74299 27.343 6.74299 27.293 6.61299C27.113 6.17299 27.253 5.743 27.063 5.343C26.973 5.163 26.493 5.36299 26.423 5.05299C26.243 4.23299 26.953 4.59301 27.063 4.41301C27.733 3.36301 26.933 2.48299 25.763 3.11299C25.593 3.20299 25.893 4.103 24.943 3.753V2.253L24.953 2.26301ZM22.803 38.703C23.403 39.033 23.843 38.753 24.203 38.253L21.043 26.133C19.763 27.393 20.143 29.403 19.693 31.123C19.193 33.033 17.963 35.673 17.513 37.213C17.323 37.883 17.653 38.813 17.123 39.553C18.343 39.183 19.733 39.153 20.933 38.783C21.233 38.693 21.223 38.143 21.473 38.073C22.823 37.693 22.693 38.653 22.793 38.703H22.803ZM30.173 26.873C28.923 26.413 28.713 27.433 28.563 27.493C28.133 27.673 27.593 27.553 27.313 27.743C27.123 27.863 24.273 30.663 24.233 30.873C24.103 31.533 24.083 34.953 24.233 35.563C24.293 35.813 24.793 35.823 24.843 35.953C25.023 36.393 24.913 36.923 25.093 37.203C25.153 37.303 26.623 38.763 26.733 38.793C28.753 39.263 28.713 38.123 28.953 38.073C29.553 37.943 30.163 38.203 30.843 37.963C30.963 37.923 32.393 35.993 32.513 35.943C33.163 35.693 34.563 35.933 34.653 35.833C34.753 35.723 34.533 34.973 34.663 34.623C34.793 34.273 35.323 34.343 35.393 34.093C35.783 32.763 34.723 32.873 34.663 32.593C34.413 31.543 34.953 30.253 34.543 29.213C34.503 29.103 33.013 27.663 32.903 27.633C31.473 27.283 31.783 28.833 30.183 28.373V26.873H30.173Z" fill="#EF5268"/>
<path d="M10.793 18.673C11.683 18.803 12.903 16.533 13.303 16.453C13.933 16.323 16.663 16.303 17.243 16.453C17.493 16.513 17.503 17.013 17.633 17.063C18.063 17.233 18.583 17.133 18.873 17.313C20.133 18.113 19.523 18.913 19.743 19.913C19.803 20.193 20.413 20.143 20.473 20.423C20.603 20.993 20.583 23.013 20.463 23.623C20.303 24.443 18.633 24.583 18.363 24.763C18.043 24.973 17.533 26.053 17.223 26.123C16.673 26.243 16.043 26.0229 15.513 26.1429C15.293 26.1929 15.233 27.383 13.283 26.873C13.013 26.803 13.083 26.283 12.743 26.153C12.403 26.023 11.653 26.2429 11.543 26.1429C11.423 26.0329 11.653 24.673 11.543 24.163C11.483 23.883 10.883 23.933 10.813 23.653C10.623 22.883 11.383 21.443 10.063 21.673C10.163 21.263 10.423 20.983 10.433 20.923C10.573 20.333 10.673 19.663 10.803 19.063C10.833 18.943 10.783 18.813 10.803 18.693L10.793 18.673Z" fill="#F9B027"/>
<path d="M42.1128 52.983C42.1028 55.743 41.1428 53.943 40.6228 54.473C40.4928 54.603 40.7528 55.833 40.6228 55.973C40.4628 56.143 36.5128 56.063 35.9428 55.993C35.7528 55.973 34.1128 54.493 34.0228 54.363C33.8428 54.083 33.9528 53.543 33.7728 53.113C33.7228 52.983 33.2228 52.973 33.1628 52.723C33.0428 52.213 33.0428 50.023 33.1628 49.513C33.2228 49.263 33.7228 49.253 33.7728 49.123C34.0628 48.393 33.8828 47.713 34.7728 47.133C35.0828 46.933 35.5828 47.093 35.8328 46.973C36.3428 46.743 36.1028 45.803 37.5428 46.373C37.8828 46.503 38.3228 47.693 38.3828 47.743C39.2428 48.303 38.9928 46.643 39.8628 47.003C40.9728 48.673 41.4328 49.5129 42.0928 51.7529C42.2028 52.1229 42.1028 52.583 42.0928 52.973L42.1128 52.983Z" fill="#F9B027"/>
<path d="M11.1629 63.043C10.6829 62.103 11.0929 63.3629 10.2629 63.4529C9.78293 63.5029 7.17295 63.533 7.06295 63.413C6.95295 63.293 7.18293 62.563 7.04293 62.213C6.95293 61.983 5.61293 60.303 5.57293 60.163C5.46293 59.733 5.38293 55.3729 5.57293 55.2029C5.65293 55.1329 6.47293 55.303 6.95293 55.093C7.26293 54.963 7.59295 53.7929 8.34295 53.6929C8.94295 53.6129 10.7329 53.593 11.2729 53.723C11.5629 53.793 11.3429 54.773 13.0229 54.463C12.9929 54.833 13.0629 55.2129 13.0229 55.5829C12.7329 58.1229 11.9329 60.593 11.1629 63.043Z" fill="#F9B027"/>
<path d="M21.6028 52.603C20.0028 52.003 20.1828 51.403 19.7028 50.303C19.5228 49.893 19.0428 50.093 18.9628 49.463C18.8628 48.733 18.8728 46.473 19.0028 45.793C19.0528 45.563 22.2628 42.413 22.7128 43.283C22.8128 43.463 22.5828 44.123 22.7328 44.483C22.8528 44.793 23.2728 44.773 23.3328 44.903C23.6028 45.453 23.6528 46.933 24.7528 47.033C27.1528 47.243 25.0028 45.413 24.9628 45.263C24.8228 44.663 25.0128 43.923 24.9628 43.283C25.9728 42.943 25.5228 43.933 25.9728 44.033C27.0228 44.273 27.7928 43.763 27.2028 46.023C27.0928 46.443 26.2528 45.973 26.4428 46.823C26.5128 47.143 26.9928 46.923 27.0828 47.113C27.2828 47.503 27.1228 47.953 27.3128 48.383C27.4728 48.733 28.5028 49.203 27.9328 50.733L27.1928 49.993C27.4128 51.153 26.2328 50.503 25.7828 50.833C25.5828 50.983 25.7228 51.463 25.6928 51.483C25.2628 51.703 22.3328 52.463 21.5928 52.603H21.6028Z" fill="#F9B027"/>
<path d="M7.0629 33.963L7.93289 36.453C8.19289 36.673 9.25288 38.903 9.29288 39.063C9.40288 39.503 9.48288 43.863 9.29288 44.023C9.17288 44.133 8.24287 43.873 7.91287 44.133C6.92287 45.633 5.50289 46.653 3.71289 47.003C4.18289 42.703 5.82288 38.613 7.07288 33.953L7.0629 33.963Z" fill="#F9B027"/>
<path d="M45.833 65.653C45.933 67.443 45.343 66.893 45.133 67.453C43.903 70.643 43.783 71.283 39.873 71.623C40.573 70.583 38.713 69.913 39.143 69.393C39.183 69.343 39.803 69.493 39.883 69.143C40.003 68.623 39.753 67.963 39.883 67.403C39.943 67.133 40.473 67.213 40.613 66.863C40.753 66.513 40.523 65.783 40.623 65.663C40.793 65.463 45.063 65.793 45.843 65.663L45.833 65.653Z" fill="#F9B027"/>
<path d="M30.1728 26.8729V28.3729C31.7728 28.8329 31.4728 27.2829 32.8928 27.6329C33.0028 27.6629 34.4928 29.1029 34.5328 29.2129C34.9428 30.2529 34.4028 31.5429 34.6528 32.5929C34.7228 32.8729 35.7828 32.7629 35.3828 34.0929C35.3128 34.3429 34.7928 34.2629 34.6528 34.6229C34.5128 34.9829 34.7428 35.7229 34.6428 35.8329C34.5528 35.9329 33.1528 35.6929 32.5028 35.9429C32.3828 35.9929 30.9528 37.9129 30.8328 37.9629C30.1528 38.2029 29.5428 37.9429 28.9428 38.0729C28.7028 38.1229 28.7428 39.2729 26.7228 38.7929C26.6128 38.7629 25.1428 37.3029 25.0828 37.2029C24.9028 36.9229 25.0128 36.3829 24.8328 35.9529C24.7828 35.8229 24.2828 35.8229 24.2228 35.5629C24.0728 34.9529 24.0928 31.5329 24.2228 30.8729C24.2628 30.6529 27.1228 27.8529 27.3028 27.7429C27.5928 27.5629 28.1228 27.6829 28.5528 27.4929C28.7028 27.4229 28.9128 26.4129 30.1628 26.8729H30.1728Z" fill="#F9B027"/>
<path d="M24.9528 2.26298V3.76298C25.9128 4.11298 25.6128 3.21296 25.7828 3.12296C26.9528 2.49296 27.7528 3.37298 27.0828 4.42298C26.9628 4.60298 26.2528 4.25296 26.4428 5.06296C26.5128 5.37296 26.9928 5.16297 27.0828 5.35297C27.2728 5.75297 27.1328 6.18296 27.3128 6.62296C27.3628 6.75296 27.8628 6.75297 27.9228 7.00297C28.0528 7.52297 28.0328 8.91298 27.9228 9.45298C27.8928 9.57298 26.3028 11.173 26.1828 11.203C25.6328 11.323 25.0028 11.103 24.4728 11.223C24.1628 11.293 24.3928 12.293 22.9928 11.953C22.8728 11.923 21.2728 10.323 21.2528 10.203C21.1328 9.65298 21.3528 9.02296 21.2328 8.49296C21.1728 8.21296 20.5728 8.26298 20.5028 7.98298C20.3828 7.46298 20.3928 6.06296 20.5028 5.52296C20.6628 4.75296 22.6528 3.57297 21.9828 6.00297L22.5428 5.25297C22.8428 6.50297 23.8728 5.92297 24.9628 6.00297C25.1728 5.50297 23.4228 5.64295 24.2228 4.89295C24.4328 4.69295 25.6628 5.39295 25.3428 4.14295C23.6028 5.14295 22.2228 1.56296 24.9728 2.27296L24.9528 2.26298Z" fill="#F9B027"/>
</svg>
