<svg width="49" height="65" viewBox="0 0 49 65" fill="none" xmlns="http://www.w3.org/2000/svg">
<path d="M44.6676 54.0995C42.8676 57.7795 37.7576 63.6595 33.4076 64.2695C32.0176 64.4695 29.9676 64.4195 28.6776 63.8395C28.3776 63.6995 25.8076 61.9795 25.7676 61.7995C25.5976 61.0495 26.1476 59.8195 26.1776 58.9095C26.2976 54.6895 24.8676 48.3395 27.5076 44.9495C27.9976 44.3195 29.2076 44.3095 28.7376 42.9195C28.0476 40.8795 25.8776 43.1595 25.1376 43.3595C23.1076 43.8895 23.0876 40.7195 21.5176 41.1895C19.8076 41.6995 22.0176 44.8695 22.2476 45.6595C23.5476 49.9995 23.2276 52.0095 23.1676 56.2895C23.1576 57.2895 23.4376 58.4495 23.3976 59.4695C23.1276 59.8595 18.6576 60.4595 17.7776 60.5595C15.8176 60.7895 12.1976 61.1695 10.3576 60.8995C8.02762 60.5695 7.32762 59.0895 5.85762 57.5695C2.93762 43.4995 -6.04238 17.5295 6.45762 6.34949C21.6176 -7.20051 39.5376 2.69949 46.1776 19.4795C50.2176 29.6595 49.4676 44.2495 44.6676 54.0895V54.0995ZM7.54762 17.2895C7.93762 17.6195 9.90762 17.1595 10.2976 16.5595C10.8276 15.7495 11.2676 13.6095 12.0476 12.3495C12.9376 10.9195 18.4576 6.13953 12.9476 6.89953C10.4276 7.24953 8.00761 11.0995 7.47761 13.3995C7.33761 14.0195 7.18761 16.9795 7.53761 17.2895H7.54762ZM22.8376 23.6295C24.6876 24.8795 27.0276 19.6995 24.8376 17.3395C23.6976 16.1095 21.4576 15.8895 21.3476 17.8495C21.3276 18.1495 22.5976 23.4595 22.8376 23.6195V23.6295ZM7.03761 21.0995C4.48761 21.7995 7.1676 25.9295 9.0276 23.1195C9.9776 21.6795 8.25761 20.7695 7.03761 21.0995Z" fill="#E9549D"/>
<path d="M7.54753 17.2895C7.19753 16.9795 7.33753 14.0196 7.48753 13.3996C8.02753 11.0896 10.4375 7.24959 12.9575 6.89959C18.4675 6.13959 12.9575 10.9095 12.0575 12.3495C11.2775 13.6095 10.8275 15.7596 10.3075 16.5596C9.91751 17.1596 7.93751 17.6295 7.55751 17.2895H7.54753Z" fill="white"/>
<path d="M22.8376 23.6295C22.5876 23.4595 21.3276 18.1495 21.3476 17.8595C21.4676 15.8995 23.6976 16.1095 24.8376 17.3495C27.0176 19.6995 24.6876 24.8895 22.8376 23.6395V23.6295Z" fill="white"/>
<path d="M7.03763 21.0995C8.25763 20.7695 9.97762 21.6795 9.02762 23.1195C7.16762 25.9395 4.48763 21.7995 7.03763 21.0995Z" fill="white"/>
</svg>
