<svg width="62" height="62" viewBox="0 0 62 62" fill="none" xmlns="http://www.w3.org/2000/svg">
<path d="M47.9075 60.19C47.5475 60.19 47.1475 60.11 46.8875 59.18L43.8675 49.24C43.7375 48.82 43.3475 48.53 42.9075 48.53H23.3975C22.9575 48.53 22.5675 48.82 22.4375 49.24L19.4275 59.15C19.0975 60.19 18.6275 60.19 18.3975 60.19H7.68752C7.13752 60.19 6.93753 59.98 6.79753 59.76C6.59753 59.43 6.62752 58.94 6.87752 58.3L23.9475 7.96999C24.3575 6.81999 24.9475 6.66998 25.4575 6.66998H41.5575C42.0675 6.66998 42.6575 6.82999 43.0775 7.98999L60.1275 58.26C60.2775 58.73 60.4175 59.41 60.1775 59.81C60.1075 59.92 59.9475 60.19 59.2575 60.19H47.9175H47.9075ZM33.1575 16.97C32.7175 16.97 32.3275 17.26 32.1975 17.68L26.1675 37.35C26.0775 37.65 26.1275 37.98 26.3175 38.24C26.5075 38.49 26.8075 38.65 27.1175 38.65H39.1775C39.4975 38.65 39.7975 38.5 39.9775 38.24C40.1675 37.98 40.2275 37.66 40.1275 37.35L34.0975 17.68C33.9675 17.26 33.5775 16.97 33.1375 16.97H33.1575Z" fill="#FC0B50"/>
<path d="M41.5574 7.66998C41.7174 7.66998 41.8974 7.66999 42.1174 8.29999L59.1574 58.55C59.2574 58.87 59.2874 59.08 59.2974 59.2C59.2774 59.2 59.2574 59.2 59.2374 59.2H47.9374C47.9074 59.14 47.8774 59.06 47.8374 58.93C47.8374 58.91 47.8274 58.89 47.8174 58.87L44.8074 48.96C44.5474 48.12 43.7774 47.54 42.8974 47.54H23.3874C22.5074 47.54 21.7274 48.12 21.4774 48.96L18.4674 58.85C18.4074 59.03 18.3574 59.14 18.3174 59.2H7.67743C7.67743 59.2 7.66741 59.2 7.65741 59.2C7.65741 59.11 7.69743 58.94 7.79743 58.67C7.80743 58.64 7.81743 58.62 7.82743 58.59L24.8674 8.33998C25.1074 7.67998 25.2874 7.67999 25.4474 7.67999H41.5474M27.1274 39.64H39.1874C39.8174 39.64 40.4174 39.34 40.7974 38.83C41.1774 38.32 41.2874 37.66 41.0974 37.05L35.0674 17.38C34.8074 16.54 34.0374 15.97 33.1574 15.97C32.2774 15.97 31.5074 16.54 31.2474 17.38L25.2174 37.05C25.0274 37.66 25.1474 38.32 25.5174 38.83C25.8974 39.34 26.4874 39.64 27.1274 39.64ZM41.5574 5.66998H25.4574C24.2974 5.66998 23.4774 6.32999 22.9974 7.64999L5.94742 57.94C5.57742 58.89 5.57742 59.67 5.94742 60.28C6.31742 60.89 6.89742 61.19 7.69742 61.19H18.4074C19.3574 61.19 20.0174 60.61 20.3874 59.44L23.3974 49.53H42.9074L45.9174 59.44C46.2374 60.6 46.8974 61.19 47.8974 61.19H59.2374C60.0774 61.19 60.6774 60.9 61.0174 60.32C61.3574 59.74 61.3774 58.95 61.0574 57.94L44.0074 7.64999C43.5274 6.32999 42.7074 5.66998 41.5474 5.66998H41.5574ZM27.1274 37.64L33.1574 17.97L39.1874 37.64H27.1274Z" fill="#231F20"/>
<path d="M47.6175 59.91C47.2575 59.91 46.8575 59.83 46.5975 58.9L43.5775 48.96C43.4475 48.54 43.0575 48.25 42.6175 48.25H23.1075C22.6675 48.25 22.2775 48.54 22.1475 48.96L19.1375 58.87C18.8075 59.91 18.3375 59.91 18.1075 59.91H7.3975C6.8475 59.91 6.64748 59.7 6.50748 59.48C6.30748 59.15 6.3375 58.66 6.5875 58.02L23.6575 7.69002C24.0675 6.54002 24.6575 6.39001 25.1675 6.39001H41.2675C41.7775 6.39001 42.3675 6.55002 42.7875 7.71002L59.8375 57.98C59.9875 58.45 60.1275 59.13 59.8875 59.53C59.8175 59.64 59.6575 59.91 58.9675 59.91H47.6275H47.6175ZM32.8675 16.68C32.4275 16.68 32.0375 16.97 31.9075 17.39L25.8775 37.06C25.7875 37.36 25.8375 37.69 26.0275 37.95C26.2175 38.2 26.5175 38.36 26.8275 38.36H38.8875C39.2075 38.36 39.5075 38.21 39.6875 37.95C39.8775 37.69 39.9375 37.37 39.8375 37.06L33.8075 17.39C33.6775 16.97 33.2875 16.68 32.8475 16.68H32.8675Z" fill="#FC0B50"/>
<path d="M41.2774 7.39001C41.4374 7.39001 41.6174 7.39002 41.8374 8.02002L58.8774 58.27C58.9774 58.59 59.0074 58.8 59.0174 58.92C58.9974 58.92 58.9774 58.92 58.9574 58.92H47.6574C47.6274 58.86 47.5974 58.78 47.5574 58.65C47.5574 58.63 47.5474 58.61 47.5374 58.59L44.5274 48.68C44.2674 47.84 43.4974 47.26 42.6174 47.26H23.1074C22.2274 47.26 21.4474 47.84 21.1974 48.68L18.1874 58.57C18.1274 58.75 18.0774 58.86 18.0374 58.92H7.3974C7.3974 58.92 7.38738 58.92 7.37738 58.92C7.37738 58.83 7.4174 58.66 7.5174 58.39C7.5274 58.36 7.5374 58.34 7.5474 58.31L24.5874 8.06001C24.8274 7.40001 25.0074 7.40002 25.1674 7.40002H41.2674M26.8374 39.35H38.8974C39.5274 39.35 40.1274 39.05 40.5074 38.54C40.8874 38.03 40.9974 37.37 40.8074 36.76L34.7774 17.09C34.5174 16.25 33.7474 15.68 32.8674 15.68C31.9874 15.68 31.2174 16.25 30.9574 17.09L24.9274 36.76C24.7374 37.37 24.8574 38.03 25.2274 38.54C25.6074 39.05 26.1974 39.35 26.8374 39.35ZM41.2774 5.39001H25.1774C24.0174 5.39001 23.1974 6.05003 22.7174 7.37003L5.66739 57.66C5.29739 58.61 5.29739 59.39 5.66739 60C6.03739 60.61 6.61739 60.91 7.41739 60.91H18.1274C19.0774 60.91 19.7374 60.33 20.1074 59.16L23.1174 49.25H42.6274L45.6374 59.16C45.9574 60.32 46.6174 60.91 47.6174 60.91H58.9574C59.7974 60.91 60.3974 60.62 60.7374 60.04C61.0774 59.46 61.0974 58.67 60.7774 57.66L43.7274 7.37003C43.2474 6.05003 42.4274 5.39001 41.2674 5.39001H41.2774ZM26.8374 37.35L32.8674 17.68L38.8974 37.35H26.8374Z" fill="#231F20"/>
<path d="M47.3375 59.63C46.9775 59.63 46.5775 59.55 46.3175 58.62L43.2975 48.68C43.1675 48.26 42.7775 47.97 42.3375 47.97H22.8275C22.3875 47.97 21.9975 48.26 21.8675 48.68L18.8575 58.59C18.5275 59.63 18.0575 59.63 17.8275 59.63H7.11748C6.56748 59.63 6.36747 59.42 6.22747 59.2C6.02747 58.87 6.05745 58.38 6.30745 57.74L23.3775 7.40999C23.7875 6.25999 24.3775 6.10999 24.8875 6.10999H40.9875C41.4975 6.10999 42.0875 6.26999 42.5075 7.42999L59.5575 57.7C59.7075 58.17 59.8475 58.85 59.6075 59.25C59.5375 59.36 59.3775 59.63 58.6875 59.63H47.3475H47.3375ZM32.5875 16.4C32.1475 16.4 31.7575 16.69 31.6275 17.11L25.5975 36.78C25.5075 37.08 25.5575 37.41 25.7475 37.67C25.9375 37.92 26.2375 38.08 26.5475 38.08H38.6075C38.9275 38.08 39.2275 37.93 39.4075 37.67C39.5975 37.41 39.6575 37.09 39.5575 36.78L33.5275 17.11C33.3975 16.69 33.0075 16.4 32.5675 16.4H32.5875Z" fill="#FC0B50"/>
<path d="M40.9976 7.10999C41.1576 7.10999 41.3376 7.10999 41.5576 7.73999L58.5976 57.99C58.6976 58.31 58.7276 58.52 58.7376 58.64C58.7176 58.64 58.6976 58.64 58.6776 58.64H47.3776C47.3476 58.58 47.3176 58.5 47.2776 58.37C47.2776 58.35 47.2676 58.33 47.2576 58.31L44.2476 48.4C43.9876 47.56 43.2176 46.98 42.3376 46.98H22.8276C21.9476 46.98 21.1676 47.56 20.9176 48.4L17.9076 58.29C17.8476 58.47 17.7976 58.58 17.7576 58.64H7.11762C7.11762 58.64 7.1076 58.64 7.0976 58.64C7.0976 58.55 7.13761 58.38 7.23761 58.11C7.24761 58.08 7.25761 58.06 7.26761 58.03L24.3076 7.77998C24.5476 7.11998 24.7276 7.12 24.8876 7.12H40.9876M26.5576 39.07H38.6176C39.2476 39.07 39.8476 38.77 40.2276 38.26C40.6076 37.75 40.7176 37.09 40.5276 36.48L34.4976 16.81C34.2376 15.97 33.4676 15.4 32.5876 15.4C31.7076 15.4 30.9376 15.97 30.6776 16.81L24.6476 36.48C24.4576 37.09 24.5776 37.75 24.9476 38.26C25.3276 38.77 25.9176 39.07 26.5576 39.07ZM40.9976 5.10999H24.8976C23.7376 5.10999 22.9176 5.76998 22.4376 7.08998L5.38761 57.38C5.01761 58.33 5.01761 59.11 5.38761 59.72C5.75761 60.33 6.33761 60.63 7.13761 60.63H17.8476C18.7976 60.63 19.4576 60.05 19.8276 58.88L22.8376 48.97H42.3476L45.3576 58.88C45.6776 60.04 46.3376 60.63 47.3376 60.63H58.6776C59.5176 60.63 60.1176 60.34 60.4576 59.76C60.7976 59.18 60.8176 58.39 60.4976 57.38L43.4476 7.08998C42.9676 5.76998 42.1476 5.10999 40.9876 5.10999H40.9976ZM26.5576 37.07L32.5876 17.4L38.6176 37.07H26.5576Z" fill="#231F20"/>
<path d="M47.0574 59.34C46.6974 59.34 46.2974 59.26 46.0374 58.33L43.0174 48.39C42.8874 47.97 42.4974 47.68 42.0574 47.68H22.5474C22.1074 47.68 21.7175 47.97 21.5875 48.39L18.5774 58.3C18.2474 59.34 17.7774 59.34 17.5474 59.34H6.83745C6.28745 59.34 6.08744 59.13 5.94744 58.91C5.74744 58.58 5.77742 58.09 6.02742 57.45L23.0974 7.12001C23.5074 5.97001 24.0974 5.82001 24.6074 5.82001H40.7074C41.2174 5.82001 41.8074 5.98 42.2274 7.14L59.2774 57.41C59.4274 57.88 59.5674 58.56 59.3274 58.96C59.2574 59.07 59.0974 59.34 58.4074 59.34H47.0674H47.0574ZM32.3074 16.12C31.8674 16.12 31.4774 16.41 31.3474 16.83L25.3174 36.5C25.2274 36.8 25.2774 37.13 25.4674 37.39C25.6574 37.64 25.9574 37.8 26.2674 37.8H38.3274C38.6474 37.8 38.9474 37.65 39.1274 37.39C39.3174 37.13 39.3774 36.81 39.2774 36.5L33.2474 16.83C33.1174 16.41 32.7274 16.12 32.2874 16.12H32.3074Z" fill="#FC0B50"/>
<path d="M40.7076 6.82001C40.8676 6.82001 41.0476 6.82 41.2676 7.45L58.3076 57.7C58.4076 58.02 58.4376 58.23 58.4476 58.35C58.4276 58.35 58.4076 58.35 58.3876 58.35H47.0876C47.0576 58.29 47.0276 58.21 46.9876 58.08C46.9876 58.06 46.9776 58.04 46.9676 58.02L43.9576 48.11C43.6976 47.27 42.9276 46.69 42.0476 46.69H22.5376C21.6576 46.69 20.8776 47.27 20.6276 48.11L17.6176 58C17.5576 58.18 17.5076 58.29 17.4676 58.35H6.82758C6.82758 58.35 6.81756 58.35 6.80756 58.35C6.80756 58.26 6.84757 58.09 6.94757 57.82C6.95757 57.79 6.96757 57.77 6.97757 57.74L24.0176 7.49001C24.2576 6.83001 24.4376 6.83 24.5976 6.83H40.6976M26.2776 38.79H38.3376C38.9676 38.79 39.5676 38.49 39.9476 37.98C40.3276 37.47 40.4376 36.81 40.2476 36.2L34.2176 16.53C33.9576 15.69 33.1876 15.12 32.3076 15.12C31.4276 15.12 30.6576 15.69 30.3976 16.53L24.3676 36.2C24.1776 36.81 24.2976 37.47 24.6676 37.98C25.0476 38.49 25.6376 38.79 26.2776 38.79ZM40.7076 4.82001H24.6076C23.4476 4.82001 22.6276 5.48 22.1476 6.8L5.09757 57.09C4.72757 58.04 4.72757 58.82 5.09757 59.43C5.46757 60.04 6.04757 60.34 6.84757 60.34H17.5576C18.5076 60.34 19.1676 59.76 19.5376 58.59L22.5476 48.68H42.0576L45.0676 58.59C45.3876 59.75 46.0476 60.34 47.0476 60.34H58.3876C59.2276 60.34 59.8276 60.05 60.1676 59.47C60.5076 58.89 60.5276 58.1 60.2076 57.09L43.1576 6.8C42.6776 5.48 41.8576 4.82001 40.6976 4.82001H40.7076ZM26.2776 36.79L32.3076 17.12L38.3376 36.79H26.2776Z" fill="#231F20"/>
<path d="M46.7674 59.06C46.4074 59.06 46.0074 58.98 45.7474 58.05L42.7274 48.11C42.5974 47.69 42.2074 47.4 41.7674 47.4H22.2574C21.8174 47.4 21.4274 47.69 21.2974 48.11L18.2874 58.02C17.9574 59.06 17.4874 59.06 17.2574 59.06H6.5474C5.9974 59.06 5.79738 58.85 5.65738 58.63C5.45738 58.3 5.4874 57.81 5.7374 57.17L22.8074 6.83997C23.2174 5.68997 23.8074 5.53998 24.3174 5.53998H40.4174C40.9274 5.53998 41.5174 5.69997 41.9374 6.85997L58.9874 57.13C59.1374 57.6 59.2774 58.28 59.0374 58.68C58.9674 58.79 58.8074 59.06 58.1174 59.06H46.7774H46.7674ZM32.0174 15.83C31.5774 15.83 31.1874 16.12 31.0574 16.54L25.0274 36.21C24.9374 36.51 24.9874 36.84 25.1774 37.1C25.3674 37.35 25.6674 37.51 25.9774 37.51H38.0374C38.3574 37.51 38.6574 37.36 38.8374 37.1C39.0274 36.84 39.0874 36.52 38.9874 36.21L32.9574 16.54C32.8274 16.12 32.4374 15.83 31.9974 15.83H32.0174Z" fill="#FC0B50"/>
<path d="M40.4276 6.53998C40.5876 6.53998 40.7676 6.53997 40.9876 7.16997L58.0275 57.42C58.1275 57.74 58.1575 57.95 58.1675 58.07C58.1475 58.07 58.1275 58.07 58.1075 58.07H46.8075C46.7775 58.01 46.7476 57.93 46.7076 57.8C46.7076 57.78 46.6975 57.76 46.6875 57.74L43.6776 47.83C43.4176 46.99 42.6476 46.41 41.7676 46.41H22.2575C21.3775 46.41 20.5975 46.99 20.3475 47.83L17.3376 57.72C17.2776 57.9 17.2275 58.01 17.1875 58.07H6.54755C6.54755 58.07 6.53753 58.07 6.52753 58.07C6.52753 57.98 6.56755 57.81 6.66755 57.54C6.67755 57.51 6.68754 57.49 6.69754 57.46L23.7376 7.20998C23.9776 6.54998 24.1575 6.54997 24.3175 6.54997H40.4175M25.9876 38.5H38.0476C38.6776 38.5 39.2775 38.2 39.6575 37.69C40.0375 37.18 40.1476 36.52 39.9576 35.91L33.9276 16.24C33.6676 15.4 32.8976 14.83 32.0176 14.83C31.1376 14.83 30.3675 15.4 30.1075 16.24L24.0775 35.91C23.8875 36.52 24.0075 37.18 24.3775 37.69C24.7575 38.2 25.3476 38.5 25.9876 38.5ZM40.4276 4.53998H24.3275C23.1675 4.53998 22.3476 5.19997 21.8676 6.51997L4.81754 56.81C4.44754 57.76 4.44754 58.54 4.81754 59.15C5.18754 59.76 5.76754 60.06 6.56754 60.06H17.2775C18.2275 60.06 18.8875 59.48 19.2575 58.31L22.2676 48.4H41.7775L44.7875 58.31C45.1075 59.47 45.7676 60.06 46.7676 60.06H58.1075C58.9475 60.06 59.5475 59.77 59.8875 59.19C60.2275 58.61 60.2476 57.82 59.9276 56.81L42.8775 6.51997C42.3975 5.19997 41.5775 4.53998 40.4175 4.53998H40.4276ZM25.9876 36.5L32.0176 16.83L38.0476 36.5H25.9876Z" fill="#231F20"/>
<path d="M46.4876 58.78C46.1276 58.78 45.7276 58.7 45.4676 57.77L42.4476 47.83C42.3176 47.41 41.9276 47.12 41.4876 47.12H21.9776C21.5376 47.12 21.1476 47.41 21.0176 47.83L18.0076 57.74C17.6776 58.78 17.2076 58.78 16.9776 58.78H6.26761C5.71761 58.78 5.5176 58.57 5.3776 58.35C5.1776 58.02 5.20762 57.53 5.45762 56.89L22.5276 6.56C22.9376 5.41 23.5276 5.26001 24.0376 5.26001H40.1376C40.6476 5.26001 41.2376 5.42 41.6576 6.58L58.7076 56.85C58.8576 57.32 58.9976 58 58.7576 58.4C58.6876 58.51 58.5276 58.78 57.8376 58.78H46.4976H46.4876ZM31.7376 15.55C31.2976 15.55 30.9076 15.84 30.7776 16.26L24.7476 35.93C24.6576 36.23 24.7076 36.56 24.8976 36.82C25.0876 37.07 25.3876 37.23 25.6976 37.23H37.7576C38.0776 37.23 38.3776 37.08 38.5576 36.82C38.7476 36.56 38.8076 36.24 38.7076 35.93L32.6776 16.26C32.5476 15.84 32.1576 15.55 31.7176 15.55H31.7376Z" fill="#FC0B50"/>
<path d="M40.1475 6.26001C40.3075 6.26001 40.4875 6.26 40.7075 6.89L57.7475 57.14C57.8475 57.46 57.8775 57.67 57.8875 57.79C57.8675 57.79 57.8475 57.79 57.8275 57.79H46.5275C46.4975 57.73 46.4675 57.65 46.4275 57.52C46.4275 57.5 46.4175 57.48 46.4075 57.46L43.3975 47.55C43.1375 46.71 42.3675 46.13 41.4875 46.13H21.9775C21.0975 46.13 20.3175 46.71 20.0675 47.55L17.0575 57.44C16.9975 57.62 16.9475 57.73 16.9075 57.79H6.26752C6.26752 57.79 6.2575 57.79 6.2475 57.79C6.2475 57.7 6.28752 57.53 6.38752 57.26C6.39752 57.23 6.40751 57.21 6.41751 57.18L23.4575 6.93001C23.6975 6.27001 23.8775 6.27 24.0375 6.27H40.1375M25.7075 38.22H37.7675C38.3975 38.22 38.9975 37.92 39.3775 37.41C39.7575 36.9 39.8675 36.24 39.6775 35.63L33.6475 15.96C33.3875 15.12 32.6175 14.55 31.7375 14.55C30.8575 14.55 30.0875 15.12 29.8275 15.96L23.7975 35.63C23.6075 36.24 23.7275 36.9 24.0975 37.41C24.4775 37.92 25.0675 38.22 25.7075 38.22ZM40.1475 4.26001H24.0475C22.8875 4.26001 22.0675 4.92001 21.5875 6.24001L4.53751 56.53C4.16751 57.48 4.16751 58.26 4.53751 58.87C4.90751 59.48 5.48751 59.78 6.28751 59.78H16.9975C17.9475 59.78 18.6075 59.2 18.9775 58.03L21.9875 48.12H41.4975L44.5075 58.03C44.8275 59.19 45.4875 59.78 46.4875 59.78H57.8275C58.6675 59.78 59.2675 59.49 59.6075 58.91C59.9475 58.33 59.9675 57.54 59.6475 56.53L42.5975 6.24001C42.1175 4.92001 41.2975 4.26001 40.1375 4.26001H40.1475ZM25.7075 36.22L31.7375 16.55L37.7675 36.22H25.7075Z" fill="#231F20"/>
<path d="M46.2076 58.49C45.8476 58.49 45.4476 58.41 45.1876 57.48L42.1676 47.54C42.0376 47.12 41.6476 46.83 41.2076 46.83H21.6976C21.2576 46.83 20.8676 47.12 20.7376 47.54L17.7276 57.45C17.3976 58.49 16.9276 58.49 16.6976 58.49H5.98758C5.43758 58.49 5.23757 58.28 5.09757 58.06C4.89757 57.73 4.92759 57.24 5.17759 56.6L22.2476 6.27003C22.6576 5.12003 23.2476 4.97003 23.7576 4.97003H39.8576C40.3676 4.97003 40.9576 5.13004 41.3776 6.29004L58.4276 56.56C58.5776 57.03 58.7176 57.71 58.4776 58.11C58.4076 58.22 58.2476 58.49 57.5576 58.49H46.2176H46.2076ZM31.4576 15.27C31.0176 15.27 30.6276 15.56 30.4976 15.98L24.4676 35.65C24.3776 35.95 24.4276 36.28 24.6176 36.54C24.8076 36.79 25.1076 36.95 25.4176 36.95H37.4776C37.7976 36.95 38.0976 36.8 38.2776 36.54C38.4676 36.28 38.5276 35.96 38.4276 35.65L32.3976 15.98C32.2676 15.56 31.8776 15.27 31.4376 15.27H31.4576Z" fill="#FC0B50"/>
<path d="M39.8575 5.97003C40.0175 5.97003 40.1975 5.97004 40.4175 6.60004L57.4575 56.85C57.5575 57.17 57.5875 57.38 57.5975 57.5C57.5775 57.5 57.5575 57.5 57.5375 57.5H46.2375C46.2075 57.44 46.1775 57.36 46.1375 57.23C46.1375 57.21 46.1275 57.19 46.1175 57.17L43.1075 47.26C42.8475 46.42 42.0775 45.84 41.1975 45.84H21.6875C20.8075 45.84 20.0275 46.42 19.7775 47.26L16.7675 57.15C16.7075 57.33 16.6575 57.44 16.6175 57.5H5.97748C5.97748 57.5 5.96749 57.5 5.95749 57.5C5.95749 57.41 5.99748 57.24 6.09748 56.97C6.10748 56.94 6.11748 56.92 6.12748 56.89L23.1675 6.64003C23.4075 5.98003 23.5875 5.98003 23.7475 5.98003H39.8475M25.4275 37.94H37.4875C38.1175 37.94 38.7175 37.64 39.0975 37.13C39.4775 36.62 39.5875 35.96 39.3975 35.35L33.3675 15.68C33.1075 14.84 32.3375 14.27 31.4575 14.27C30.5775 14.27 29.8075 14.84 29.5475 15.68L23.5175 35.35C23.3275 35.96 23.4475 36.62 23.8175 37.13C24.1975 37.64 24.7875 37.94 25.4275 37.94ZM39.8575 3.97003H23.7575C22.5975 3.97003 21.7775 4.63003 21.2975 5.95003L4.24747 56.24C3.87747 57.19 3.87747 57.97 4.24747 58.58C4.61747 59.19 5.19747 59.49 5.99747 59.49H16.7075C17.6575 59.49 18.3175 58.91 18.6875 57.74L21.6975 47.83H41.2075L44.2175 57.74C44.5375 58.9 45.1975 59.49 46.1975 59.49H57.5375C58.3775 59.49 58.9775 59.2 59.3175 58.62C59.6575 58.04 59.6775 57.25 59.3575 56.24L42.3075 5.95003C41.8275 4.63003 41.0075 3.97003 39.8475 3.97003H39.8575ZM25.4275 35.94L31.4575 16.27L37.4875 35.94H25.4275Z" fill="#231F20"/>
<path d="M45.9175 58.21C45.5575 58.21 45.1576 58.13 44.8976 57.2L41.8775 47.26C41.7475 46.84 41.3575 46.55 40.9175 46.55H21.4075C20.9675 46.55 20.5775 46.84 20.4475 47.26L17.4375 57.17C17.1075 58.21 16.6375 58.21 16.4075 58.21H5.69755C5.14755 58.21 4.94753 58 4.80753 57.78C4.60753 57.45 4.63755 56.96 4.88755 56.32L21.9576 5.99001C22.3676 4.84001 22.9575 4.69 23.4675 4.69H39.5675C40.0775 4.69 40.6676 4.85001 41.0876 6.01001L58.1375 56.28C58.2875 56.75 58.4275 57.43 58.1875 57.83C58.1175 57.94 57.9576 58.21 57.2676 58.21H45.9276H45.9175ZM31.1675 14.98C30.7275 14.98 30.3376 15.27 30.2076 15.69L24.1776 35.36C24.0876 35.66 24.1376 35.99 24.3276 36.25C24.5176 36.5 24.8175 36.66 25.1275 36.66H37.1875C37.5075 36.66 37.8076 36.51 37.9876 36.25C38.1776 35.99 38.2375 35.67 38.1375 35.36L32.1075 15.69C31.9775 15.27 31.5876 14.98 31.1476 14.98H31.1675Z" fill="#FC0B50"/>
<path d="M39.5775 5.69C39.7375 5.69 39.9175 5.69001 40.1375 6.32001L57.1775 56.57C57.2775 56.89 57.3074 57.1 57.3174 57.22C57.2974 57.22 57.2775 57.22 57.2575 57.22H45.9575C45.9275 57.16 45.8975 57.08 45.8575 56.95C45.8575 56.93 45.8475 56.91 45.8375 56.89L42.8275 46.98C42.5675 46.14 41.7975 45.56 40.9175 45.56H21.4074C20.5274 45.56 19.7474 46.14 19.4974 46.98L16.4875 56.87C16.4275 57.05 16.3775 57.16 16.3375 57.22H5.69745C5.69745 57.22 5.68746 57.22 5.67746 57.22C5.67746 57.13 5.71745 56.96 5.81745 56.69C5.82745 56.66 5.83745 56.64 5.84745 56.61L22.8875 6.36C23.1275 5.7 23.3074 5.7 23.4674 5.7H39.5674M25.1375 37.65H37.1975C37.8275 37.65 38.4274 37.35 38.8074 36.84C39.1874 36.33 39.2975 35.67 39.1075 35.06L33.0775 15.39C32.8175 14.55 32.0475 13.98 31.1675 13.98C30.2875 13.98 29.5175 14.55 29.2575 15.39L23.2275 35.06C23.0375 35.67 23.1574 36.33 23.5274 36.84C23.9074 37.35 24.4975 37.65 25.1375 37.65ZM39.5775 3.69H23.4775C22.3175 3.69 21.4975 4.35 21.0175 5.67L3.96744 55.96C3.59744 56.91 3.59744 57.69 3.96744 58.3C4.33744 58.91 4.91744 59.21 5.71744 59.21H16.4275C17.3775 59.21 18.0374 58.63 18.4074 57.46L21.4175 47.55H40.9275L43.9374 57.46C44.2574 58.62 44.9175 59.21 45.9175 59.21H57.2575C58.0975 59.21 58.6974 58.92 59.0374 58.34C59.3774 57.76 59.3975 56.97 59.0775 55.96L42.0274 5.67C41.5474 4.35 40.7274 3.69 39.5674 3.69H39.5775ZM25.1375 35.65L31.1675 15.98L37.1975 35.65H25.1375Z" fill="#231F20"/>
<path d="M45.6375 57.93C45.2775 57.93 44.8775 57.85 44.6175 56.92L41.5975 46.98C41.4675 46.56 41.0775 46.27 40.6375 46.27H21.1275C20.6875 46.27 20.2975 46.56 20.1675 46.98L17.1575 56.89C16.8275 57.93 16.3575 57.93 16.1275 57.93H5.41752C4.86752 57.93 4.6675 57.72 4.5275 57.5C4.3275 57.17 4.35752 56.68 4.60752 56.04L21.6775 5.70998C22.0875 4.55998 22.6775 4.40997 23.1875 4.40997H39.2875C39.7975 4.40997 40.3875 4.56997 40.8075 5.72997L57.8575 56C58.0075 56.47 58.1475 57.15 57.9075 57.55C57.8375 57.66 57.6775 57.93 56.9875 57.93H45.6475H45.6375ZM30.8875 14.7C30.4475 14.7 30.0575 14.99 29.9275 15.41L23.8975 35.08C23.8075 35.38 23.8575 35.71 24.0475 35.97C24.2375 36.22 24.5375 36.38 24.8475 36.38H36.9075C37.2275 36.38 37.5275 36.23 37.7075 35.97C37.8975 35.71 37.9575 35.39 37.8575 35.08L31.8275 15.41C31.6975 14.99 31.3075 14.7 30.8675 14.7H30.8875Z" fill="#FC0B50"/>
<path d="M39.2974 5.40997C39.4574 5.40997 39.6374 5.40998 39.8574 6.03998L56.8974 56.29C56.9974 56.61 57.0274 56.82 57.0374 56.94C57.0174 56.94 56.9974 56.94 56.9774 56.94H45.6774C45.6474 56.88 45.6174 56.8 45.5774 56.67C45.5774 56.65 45.5674 56.63 45.5574 56.61L42.5474 46.7C42.2874 45.86 41.5174 45.28 40.6374 45.28H21.1274C20.2474 45.28 19.4674 45.86 19.2174 46.7L16.2074 56.59C16.1474 56.77 16.0974 56.88 16.0574 56.94H5.41742C5.41742 56.94 5.40743 56.94 5.39743 56.94C5.39743 56.85 5.43742 56.68 5.53742 56.41C5.54742 56.38 5.55742 56.36 5.56742 56.33L22.6074 6.07997C22.8474 5.41997 23.0274 5.41997 23.1874 5.41997H39.2874M24.8574 37.37H36.9174C37.5474 37.37 38.1474 37.07 38.5274 36.56C38.9074 36.05 39.0174 35.39 38.8274 34.78L32.7974 15.11C32.5374 14.27 31.7674 13.7 30.8874 13.7C30.0074 13.7 29.2374 14.27 28.9774 15.11L22.9474 34.78C22.7574 35.39 22.8774 36.05 23.2474 36.56C23.6274 37.07 24.2174 37.37 24.8574 37.37ZM39.2974 3.40997H23.1974C22.0374 3.40997 21.2174 4.06997 20.7374 5.38997L3.68741 55.68C3.31741 56.63 3.31741 57.41 3.68741 58.02C4.05741 58.63 4.63741 58.93 5.43741 58.93H16.1474C17.0974 58.93 17.7574 58.35 18.1274 57.18L21.1374 47.27H40.6474L43.6574 57.18C43.9774 58.34 44.6374 58.93 45.6374 58.93H56.9774C57.8174 58.93 58.4174 58.64 58.7574 58.06C59.0974 57.48 59.1174 56.69 58.7974 55.68L41.7474 5.38997C41.2674 4.06997 40.4474 3.40997 39.2874 3.40997H39.2974ZM24.8574 35.37L30.8874 15.7L36.9174 35.37H24.8574Z" fill="#231F20"/>
<path d="M45.3575 57.64C44.9975 57.64 44.5975 57.56 44.3375 56.63L41.3175 46.69C41.1875 46.27 40.7975 45.98 40.3575 45.98H20.8475C20.4075 45.98 20.0175 46.27 19.8875 46.69L16.8775 56.6C16.5475 57.64 16.0775 57.64 15.8475 57.64H5.13749C4.58749 57.64 4.38747 57.43 4.24747 57.21C4.04747 56.88 4.07749 56.39 4.32749 55.75L21.3975 5.41998C21.8075 4.26998 22.3975 4.12 22.9075 4.12H39.0075C39.5175 4.12 40.1075 4.27999 40.5275 5.43999L57.5775 55.71C57.7275 56.18 57.8675 56.86 57.6275 57.26C57.5575 57.37 57.3975 57.64 56.7075 57.64H45.3675H45.3575ZM30.6075 14.42C30.1675 14.42 29.7775 14.71 29.6475 15.13L23.6175 34.8C23.5275 35.1 23.5775 35.43 23.7675 35.69C23.9575 35.94 24.2575 36.1 24.5675 36.1H36.6275C36.9475 36.1 37.2475 35.95 37.4275 35.69C37.6175 35.43 37.6775 35.11 37.5775 34.8L31.5475 15.13C31.4175 14.71 31.0275 14.42 30.5875 14.42H30.6075Z" fill="#FC0B50"/>
<path d="M39.0076 5.12C39.1676 5.12 39.3476 5.11998 39.5676 5.74998L56.6076 56C56.7076 56.32 56.7376 56.53 56.7476 56.65C56.7276 56.65 56.7076 56.65 56.6876 56.65H45.3876C45.3576 56.59 45.3276 56.51 45.2876 56.38C45.2876 56.36 45.2776 56.34 45.2676 56.32L42.2576 46.41C41.9976 45.57 41.2276 44.99 40.3476 44.99H20.8376C19.9576 44.99 19.1776 45.57 18.9276 46.41L15.9176 56.3C15.8576 56.48 15.8076 56.59 15.7676 56.65H5.1276C5.1276 56.65 5.11761 56.65 5.10761 56.65C5.10761 56.56 5.14759 56.39 5.24759 56.12C5.25759 56.09 5.26759 56.07 5.27759 56.04L22.3176 5.78999C22.5576 5.12999 22.7376 5.12999 22.8976 5.12999H38.9976M24.5776 37.09H36.6376C37.2676 37.09 37.8676 36.79 38.2476 36.28C38.6276 35.77 38.7376 35.11 38.5476 34.5L32.5176 14.83C32.2576 13.99 31.4876 13.42 30.6076 13.42C29.7276 13.42 28.9576 13.99 28.6976 14.83L22.6676 34.5C22.4776 35.11 22.5976 35.77 22.9676 36.28C23.3476 36.79 23.9376 37.09 24.5776 37.09ZM39.0076 3.12H22.9076C21.7476 3.12 20.9276 3.77999 20.4476 5.09999L3.39762 55.39C3.02762 56.34 3.02762 57.12 3.39762 57.73C3.76762 58.34 4.34762 58.64 5.14762 58.64H15.8576C16.8076 58.64 17.4676 58.06 17.8376 56.89L20.8476 46.98H40.3576L43.3676 56.89C43.6876 58.05 44.3476 58.64 45.3476 58.64H56.6876C57.5276 58.64 58.1276 58.35 58.4676 57.77C58.8076 57.19 58.8276 56.4 58.5076 55.39L41.4576 5.09999C40.9776 3.77999 40.1576 3.12 38.9976 3.12H39.0076ZM24.5776 35.09L30.6076 15.42L36.6376 35.09H24.5776Z" fill="#231F20"/>
<path d="M45.0674 57.36C44.7074 57.36 44.3074 57.28 44.0474 56.35L41.0274 46.41C40.8974 45.99 40.5074 45.7 40.0674 45.7H20.5574C20.1174 45.7 19.7274 45.99 19.5974 46.41L16.5875 56.32C16.2575 57.36 15.7874 57.36 15.5574 57.36H4.84743C4.29743 57.36 4.09745 57.15 3.95745 56.93C3.75745 56.6 3.78743 56.11 4.03743 55.47L21.1074 5.14003C21.5174 3.99003 22.1074 3.84003 22.6174 3.84003H38.7174C39.2274 3.84003 39.8174 4.00003 40.2374 5.16003L57.2874 55.43C57.4374 55.9 57.5775 56.58 57.3375 56.98C57.2675 57.09 57.1074 57.36 56.4174 57.36H45.0774H45.0674ZM30.3174 14.13C29.8774 14.13 29.4874 14.42 29.3574 14.84L23.3274 34.51C23.2374 34.81 23.2874 35.14 23.4774 35.4C23.6674 35.65 23.9674 35.81 24.2774 35.81H36.3375C36.6575 35.81 36.9574 35.66 37.1374 35.4C37.3274 35.14 37.3874 34.82 37.2874 34.51L31.2574 14.84C31.1274 14.42 30.7374 14.13 30.2974 14.13H30.3174Z" fill="#FC0B50"/>
<path d="M38.7276 4.84003C38.8876 4.84003 39.0676 4.84003 39.2876 5.47003L56.3276 55.72C56.4276 56.04 56.4576 56.25 56.4676 56.37C56.4476 56.37 56.4276 56.37 56.4076 56.37H45.1076C45.0776 56.31 45.0476 56.23 45.0076 56.1C45.0076 56.08 44.9976 56.06 44.9876 56.04L41.9776 46.13C41.7176 45.29 40.9476 44.71 40.0676 44.71H20.5576C19.6776 44.71 18.8976 45.29 18.6476 46.13L15.6376 56.02C15.5776 56.2 15.5276 56.31 15.4876 56.37H4.84757C4.84757 56.37 4.83758 56.37 4.82758 56.37C4.82758 56.28 4.86756 56.11 4.96756 55.84C4.97756 55.81 4.98756 55.79 4.99756 55.76L22.0376 5.51004C22.2776 4.85004 22.4576 4.85004 22.6176 4.85004H38.7176M24.2876 36.8H36.3476C36.9776 36.8 37.5776 36.5 37.9576 35.99C38.3376 35.48 38.4476 34.82 38.2576 34.21L32.2276 14.54C31.9676 13.7 31.1976 13.13 30.3176 13.13C29.4376 13.13 28.6676 13.7 28.4076 14.54L22.3776 34.21C22.1876 34.82 22.3076 35.48 22.6776 35.99C23.0576 36.5 23.6476 36.8 24.2876 36.8ZM38.7276 2.84003H22.6276C21.4676 2.84003 20.6476 3.50004 20.1676 4.82004L3.11759 55.11C2.74759 56.06 2.74759 56.84 3.11759 57.45C3.48759 58.06 4.06759 58.36 4.86759 58.36H15.5776C16.5276 58.36 17.1876 57.78 17.5576 56.61L20.5676 46.7H40.0776L43.0876 56.61C43.4076 57.77 44.0676 58.36 45.0676 58.36H56.4076C57.2476 58.36 57.8476 58.07 58.1876 57.49C58.5276 56.91 58.5476 56.12 58.2276 55.11L41.1776 4.82004C40.6976 3.50004 39.8776 2.84003 38.7176 2.84003H38.7276ZM24.2876 34.8L30.3176 15.13L36.3476 34.8H24.2876Z" fill="#231F20"/>
<path d="M44.7874 57.08C44.4274 57.08 44.0274 57 43.7674 56.07L40.7474 46.13C40.6174 45.71 40.2274 45.42 39.7874 45.42H20.2774C19.8374 45.42 19.4474 45.71 19.3174 46.13L16.3074 56.04C15.9774 57.08 15.5074 57.08 15.2774 57.08H4.5674C4.0174 57.08 3.81742 56.87 3.67742 56.65C3.47742 56.32 3.5074 55.83 3.7574 55.19L20.8274 4.86C21.2374 3.71 21.8274 3.56 22.3374 3.56H38.4374C38.9474 3.56 39.5374 3.72 39.9574 4.88L57.0074 55.15C57.1574 55.62 57.2974 56.3 57.0574 56.7C56.9874 56.81 56.8274 57.08 56.1374 57.08H44.7974H44.7874ZM30.0374 13.85C29.5974 13.85 29.2074 14.14 29.0774 14.56L23.0474 34.23C22.9574 34.53 23.0074 34.86 23.1974 35.12C23.3874 35.37 23.6874 35.53 23.9974 35.53H36.0574C36.3774 35.53 36.6774 35.38 36.8574 35.12C37.0474 34.86 37.1074 34.54 37.0074 34.23L30.9774 14.56C30.8474 14.14 30.4574 13.85 30.0174 13.85H30.0374Z" fill="#FC0B50"/>
<path d="M38.4475 4.56C38.6075 4.56 38.7875 4.56 39.0075 5.19L56.0476 55.44C56.1476 55.76 56.1775 55.97 56.1875 56.09C56.1675 56.09 56.1475 56.09 56.1275 56.09H44.8275C44.7975 56.03 44.7675 55.95 44.7275 55.82C44.7275 55.8 44.7176 55.78 44.7076 55.76L41.6975 45.85C41.4375 45.01 40.6675 44.43 39.7875 44.43H20.2775C19.3975 44.43 18.6176 45.01 18.3676 45.85L15.3575 55.74C15.2975 55.92 15.2476 56.03 15.2076 56.09H4.56754C4.56754 56.09 4.55755 56.09 4.54755 56.09C4.54755 56 4.58753 55.83 4.68753 55.56C4.69753 55.53 4.70753 55.51 4.71753 55.48L21.7575 5.23C21.9975 4.57 22.1776 4.57001 22.3376 4.57001H38.4375M24.0075 36.52H36.0675C36.6975 36.52 37.2976 36.22 37.6776 35.71C38.0576 35.2 38.1675 34.54 37.9775 33.93L31.9475 14.26C31.6875 13.42 30.9175 12.85 30.0375 12.85C29.1575 12.85 28.3875 13.42 28.1275 14.26L22.0975 33.93C21.9075 34.54 22.0276 35.2 22.3976 35.71C22.7776 36.22 23.3675 36.52 24.0075 36.52ZM38.4475 2.56H22.3475C21.1875 2.56 20.3675 3.22001 19.8875 4.54001L2.83756 54.83C2.46756 55.78 2.46756 56.56 2.83756 57.17C3.20756 57.78 3.78756 58.08 4.58756 58.08H15.2976C16.2476 58.08 16.9075 57.5 17.2775 56.33L20.2875 46.42H39.7976L42.8075 56.33C43.1275 57.49 43.7875 58.08 44.7875 58.08H56.1275C56.9675 58.08 57.5675 57.79 57.9075 57.21C58.2475 56.63 58.2675 55.84 57.9475 54.83L40.8976 4.54001C40.4176 3.22001 39.5975 2.56 38.4375 2.56H38.4475ZM24.0075 34.52L30.0375 14.85L36.0675 34.52H24.0075Z" fill="#231F20"/>
<path d="M44.5076 56.79C44.1476 56.79 43.7476 56.71 43.4876 55.78L40.4676 45.84C40.3376 45.42 39.9476 45.13 39.5076 45.13H19.9976C19.5576 45.13 19.1676 45.42 19.0376 45.84L16.0276 55.75C15.6976 56.79 15.2276 56.79 14.9976 56.79H4.28762C3.73762 56.79 3.53763 56.58 3.39763 56.36C3.19763 56.03 3.22762 55.54 3.47762 54.9L20.5476 4.57002C20.9576 3.42002 21.5476 3.27002 22.0576 3.27002H38.1576C38.6676 3.27002 39.2576 3.43001 39.6776 4.59001L56.7276 54.86C56.8776 55.33 57.0176 56.01 56.7776 56.41C56.7076 56.52 56.5476 56.79 55.8576 56.79H44.5176H44.5076ZM29.7476 13.57C29.3076 13.57 28.9176 13.86 28.7876 14.28L22.7576 33.95C22.6676 34.25 22.7176 34.58 22.9076 34.84C23.0976 35.09 23.3976 35.25 23.7076 35.25H35.7676C36.0876 35.25 36.3876 35.1 36.5676 34.84C36.7576 34.58 36.8176 34.26 36.7176 33.95L30.6876 14.28C30.5576 13.86 30.1676 13.57 29.7276 13.57H29.7476Z" fill="#FC0B50"/>
<path d="M38.1575 4.27002C38.3175 4.27002 38.4975 4.27002 38.7175 4.90002L55.7575 55.15C55.8575 55.47 55.8875 55.68 55.8975 55.8C55.8775 55.8 55.8575 55.8 55.8375 55.8H44.5375C44.5075 55.74 44.4775 55.66 44.4375 55.53C44.4375 55.51 44.4275 55.49 44.4175 55.47L41.4075 45.56C41.1475 44.72 40.3775 44.14 39.4975 44.14H19.9875C19.1075 44.14 18.3275 44.72 18.0775 45.56L15.0675 55.45C15.0075 55.63 14.9575 55.74 14.9175 55.8H4.2775C4.2775 55.8 4.26751 55.8 4.25751 55.8C4.25751 55.71 4.29753 55.54 4.39753 55.27C4.40753 55.24 4.41752 55.22 4.42752 55.19L21.4675 4.94002C21.7075 4.28002 21.8875 4.28001 22.0475 4.28001H38.1475M23.7275 36.24H35.7875C36.4175 36.24 37.0175 35.94 37.3975 35.43C37.7775 34.92 37.8875 34.26 37.6975 33.65L31.6675 13.98C31.4075 13.14 30.6375 12.57 29.7575 12.57C28.8775 12.57 28.1075 13.14 27.8475 13.98L21.8175 33.65C21.6275 34.26 21.7475 34.92 22.1175 35.43C22.4975 35.94 23.0875 36.24 23.7275 36.24ZM38.1575 2.27002H22.0575C20.8975 2.27002 20.0775 2.93002 19.5975 4.25002L2.54752 54.54C2.17752 55.49 2.17752 56.27 2.54752 56.88C2.91752 57.49 3.49752 57.79 4.29752 57.79H15.0075C15.9575 57.79 16.6175 57.21 16.9875 56.04L19.9975 46.13H39.5075L42.5175 56.04C42.8375 57.2 43.4975 57.79 44.4975 57.79H55.8375C56.6775 57.79 57.2775 57.5 57.6175 56.92C57.9575 56.34 57.9775 55.55 57.6575 54.54L40.6075 4.25002C40.1275 2.93002 39.3075 2.27002 38.1475 2.27002H38.1575ZM23.7275 34.24L29.7575 14.57L35.7875 34.24H23.7275Z" fill="#231F20"/>
<path d="M44.2176 56.51C43.8576 56.51 43.4576 56.43 43.1976 55.5L40.1776 45.56C40.0476 45.14 39.6576 44.85 39.2176 44.85H19.7076C19.2676 44.85 18.8776 45.14 18.7476 45.56L15.7376 55.47C15.4076 56.51 14.9376 56.51 14.7076 56.51H3.99758C3.44758 56.51 3.24759 56.3 3.10759 56.08C2.90759 55.75 2.93758 55.26 3.18758 54.62L20.2576 4.28999C20.6676 3.13999 21.2576 2.98999 21.7676 2.98999H37.8676C38.3776 2.98999 38.9676 3.14998 39.3876 4.30998L56.4376 54.58C56.5876 55.05 56.7276 55.73 56.4876 56.13C56.4176 56.24 56.2576 56.51 55.5676 56.51H44.2276H44.2176ZM29.4676 13.28C29.0276 13.28 28.6376 13.57 28.5076 13.99L22.4776 33.66C22.3876 33.96 22.4376 34.29 22.6276 34.55C22.8176 34.8 23.1176 34.96 23.4276 34.96H35.4876C35.8076 34.96 36.1076 34.81 36.2876 34.55C36.4776 34.29 36.5376 33.97 36.4376 33.66L30.4076 13.99C30.2776 13.57 29.8876 13.28 29.4476 13.28H29.4676Z" fill="#FC0B50"/>
<path d="M37.8775 3.98999C38.0375 3.98999 38.2175 3.99 38.4375 4.62L55.4775 54.87C55.5775 55.19 55.6075 55.4 55.6175 55.52C55.5975 55.52 55.5775 55.52 55.5575 55.52H44.2575C44.2275 55.46 44.1975 55.38 44.1575 55.25C44.1575 55.23 44.1475 55.21 44.1375 55.19L41.1275 45.28C40.8675 44.44 40.0975 43.86 39.2175 43.86H19.7075C18.8275 43.86 18.0475 44.44 17.7975 45.28L14.7875 55.17C14.7275 55.35 14.6775 55.46 14.6375 55.52H3.99747C3.99747 55.52 3.98748 55.52 3.97748 55.52C3.97748 55.43 4.0175 55.26 4.1175 54.99C4.1275 54.96 4.1375 54.94 4.1475 54.91L21.1875 4.65999C21.4275 3.99999 21.6075 3.99998 21.7675 3.99998H37.8675M23.4375 35.95H35.4975C36.1275 35.95 36.7275 35.65 37.1075 35.14C37.4875 34.63 37.5975 33.97 37.4075 33.36L31.3775 13.69C31.1175 12.85 30.3475 12.28 29.4675 12.28C28.5875 12.28 27.8175 12.85 27.5575 13.69L21.5275 33.36C21.3375 33.97 21.4575 34.63 21.8275 35.14C22.2075 35.65 22.7975 35.95 23.4375 35.95ZM37.8775 1.98999H21.7775C20.6175 1.98999 19.7975 2.64999 19.3175 3.96999L2.26749 54.26C1.89749 55.21 1.89749 55.99 2.26749 56.6C2.63749 57.21 3.21749 57.51 4.01749 57.51H14.7275C15.6775 57.51 16.3375 56.93 16.7075 55.76L19.7175 45.85H39.2275L42.2375 55.76C42.5575 56.92 43.2175 57.51 44.2175 57.51H55.5575C56.3975 57.51 56.9975 57.22 57.3375 56.64C57.6775 56.06 57.6975 55.27 57.3775 54.26L40.3275 3.96999C39.8475 2.64999 39.0275 1.98999 37.8675 1.98999H37.8775ZM23.4375 33.95L29.4675 14.28L35.4975 33.95H23.4375Z" fill="#231F20"/>
<path d="M43.9375 56.23C43.5775 56.23 43.1776 56.15 42.9176 55.22L39.8976 45.28C39.7676 44.86 39.3775 44.57 38.9375 44.57H19.4276C18.9876 44.57 18.5975 44.86 18.4675 45.28L15.4576 55.19C15.1276 56.23 14.6576 56.23 14.4276 56.23H3.71755C3.16755 56.23 2.96756 56.02 2.82756 55.8C2.62756 55.47 2.65755 54.98 2.90755 54.34L19.9776 4.01003C20.3876 2.86003 20.9776 2.71002 21.4876 2.71002H37.5876C38.0976 2.71002 38.6876 2.87001 39.1076 4.03001L56.1576 54.3C56.3076 54.77 56.4476 55.45 56.2076 55.85C56.1376 55.96 55.9776 56.23 55.2876 56.23H43.9476H43.9375ZM29.1875 13C28.7475 13 28.3576 13.29 28.2276 13.71L22.1976 33.38C22.1076 33.68 22.1576 34.01 22.3476 34.27C22.5376 34.52 22.8376 34.68 23.1476 34.68H35.2076C35.5276 34.68 35.8276 34.53 36.0076 34.27C36.1976 34.01 36.2576 33.69 36.1576 33.38L30.1276 13.71C29.9976 13.29 29.6076 13 29.1676 13H29.1875Z" fill="#FC0B50"/>
<path d="M37.5875 3.70001C37.7475 3.70001 37.9275 3.70002 38.1475 4.33002L55.1874 54.58C55.2874 54.9 55.3175 55.11 55.3275 55.23C55.3075 55.23 55.2875 55.23 55.2675 55.23H43.9674C43.9374 55.17 43.9075 55.09 43.8675 54.96C43.8675 54.94 43.8574 54.92 43.8474 54.9L40.8375 44.99C40.5775 44.15 39.8075 43.57 38.9275 43.57H19.4175C18.5375 43.57 17.7575 44.15 17.5075 44.99L14.4974 54.88C14.4374 55.06 14.3874 55.17 14.3474 55.23H3.70746C3.70746 55.23 3.69744 55.23 3.68744 55.23C3.68744 55.14 3.72746 54.97 3.82746 54.7C3.83746 54.67 3.84746 54.65 3.85746 54.62L20.8975 4.37003C21.1375 3.71003 21.3175 3.71002 21.4775 3.71002H37.5775M23.1574 35.67H35.2174C35.8474 35.67 36.4475 35.37 36.8275 34.86C37.2075 34.35 37.3174 33.69 37.1274 33.08L31.0974 13.41C30.8374 12.57 30.0674 12 29.1874 12C28.3074 12 27.5374 12.57 27.2774 13.41L21.2474 33.08C21.0574 33.69 21.1775 34.35 21.5475 34.86C21.9275 35.37 22.5174 35.67 23.1574 35.67ZM37.5875 1.70001H21.4875C20.3275 1.70001 19.5074 2.36002 19.0274 3.68002L1.97745 53.97C1.60745 54.92 1.60745 55.7 1.97745 56.31C2.34745 56.92 2.92745 57.22 3.72745 57.22H14.4374C15.3874 57.22 16.0475 56.64 16.4175 55.47L19.4275 45.56H38.9374L41.9475 55.47C42.2675 56.63 42.9275 57.22 43.9275 57.22H55.2675C56.1075 57.22 56.7075 56.93 57.0475 56.35C57.3875 55.77 57.4075 54.98 57.0875 53.97L40.0374 3.68002C39.5574 2.36002 38.7375 1.70001 37.5775 1.70001H37.5875ZM23.1574 33.67L29.1874 14L35.2174 33.67H23.1574Z" fill="#231F20"/>
<path d="M43.6575 55.94C43.2975 55.94 42.8975 55.86 42.6375 54.93L39.6175 44.99C39.4875 44.57 39.0975 44.28 38.6575 44.28H19.1475C18.7075 44.28 18.3175 44.57 18.1875 44.99L15.1775 54.9C14.8475 55.94 14.3775 55.94 14.1475 55.94H3.43752C2.88752 55.94 2.68753 55.73 2.54753 55.51C2.34753 55.18 2.37752 54.69 2.62752 54.05L19.6975 3.71999C20.1075 2.56999 20.6975 2.41998 21.2075 2.41998H37.3075C37.8175 2.41998 38.4075 2.57999 38.8275 3.73999L55.8775 54.01C56.0275 54.48 56.1675 55.16 55.9275 55.56C55.8575 55.67 55.6975 55.94 55.0075 55.94H43.6675H43.6575ZM28.8975 12.72C28.4575 12.72 28.0675 13.01 27.9375 13.43L21.9075 33.1C21.8175 33.4 21.8675 33.73 22.0575 33.99C22.2475 34.24 22.5475 34.4 22.8575 34.4H34.9175C35.2375 34.4 35.5375 34.25 35.7175 33.99C35.9075 33.73 35.9675 33.41 35.8675 33.1L29.8375 13.43C29.7075 13.01 29.3175 12.72 28.8775 12.72H28.8975Z" fill="#FC0B50"/>
<path d="M37.3074 3.41998C37.4674 3.41998 37.6474 3.41999 37.8674 4.04999L54.9074 54.3C55.0074 54.62 55.0374 54.83 55.0474 54.95C55.0274 54.95 55.0074 54.95 54.9874 54.95H43.6874C43.6574 54.89 43.6274 54.81 43.5874 54.68C43.5874 54.66 43.5774 54.64 43.5674 54.62L40.5574 44.71C40.2974 43.87 39.5274 43.29 38.6474 43.29H19.1374C18.2574 43.29 17.4774 43.87 17.2274 44.71L14.2174 54.6C14.1574 54.78 14.1074 54.89 14.0674 54.95H3.42743C3.42743 54.95 3.41741 54.95 3.40741 54.95C3.40741 54.86 3.44743 54.69 3.54743 54.42C3.55743 54.39 3.56743 54.37 3.57743 54.34L20.6174 4.08998C20.8574 3.42998 21.0374 3.42999 21.1974 3.42999H37.2974M22.8774 35.39H34.9374C35.5674 35.39 36.1674 35.09 36.5474 34.58C36.9274 34.07 37.0374 33.41 36.8474 32.8L30.8174 13.13C30.5574 12.29 29.7874 11.72 28.9074 11.72C28.0274 11.72 27.2574 12.29 26.9974 13.13L20.9674 32.8C20.7774 33.41 20.8974 34.07 21.2674 34.58C21.6474 35.09 22.2374 35.39 22.8774 35.39ZM37.3074 1.41998H21.2074C20.0474 1.41998 19.2274 2.07999 18.7474 3.39999L1.69742 53.69C1.32742 54.64 1.32742 55.42 1.69742 56.03C2.06742 56.64 2.64742 56.94 3.44742 56.94H14.1574C15.1074 56.94 15.7674 56.36 16.1374 55.19L19.1474 45.28H38.6574L41.6674 55.19C41.9874 56.35 42.6474 56.94 43.6474 56.94H54.9874C55.8274 56.94 56.4274 56.65 56.7674 56.07C57.1074 55.49 57.1274 54.7 56.8074 53.69L39.7574 3.39999C39.2774 2.07999 38.4574 1.41998 37.2974 1.41998H37.3074ZM22.8774 33.39L28.9074 13.72L34.9374 33.39H22.8774Z" fill="#231F20"/>
<path d="M43.3675 55.66C43.0075 55.66 42.6075 55.58 42.3475 54.65L39.3275 44.71C39.1975 44.29 38.8075 44 38.3675 44H18.8575C18.4175 44 18.0275 44.29 17.8975 44.71L14.8875 54.62C14.5575 55.66 14.0875 55.66 13.8575 55.66H3.1475C2.5975 55.66 2.39748 55.45 2.25748 55.23C2.05748 54.9 2.0875 54.41 2.3375 53.77L19.4075 3.44002C19.8175 2.29002 20.4075 2.14001 20.9175 2.14001H37.0175C37.5275 2.14001 38.1175 2.30002 38.5375 3.46002L55.5875 53.73C55.7375 54.2 55.8775 54.88 55.6375 55.28C55.5675 55.39 55.4075 55.66 54.7175 55.66H43.3775H43.3675ZM28.6175 12.43C28.1775 12.43 27.7875 12.72 27.6575 13.14L21.6275 32.81C21.5375 33.11 21.5875 33.44 21.7775 33.7C21.9675 33.95 22.2675 34.11 22.5775 34.11H34.6375C34.9575 34.11 35.2575 33.96 35.4375 33.7C35.6275 33.44 35.6875 33.12 35.5875 32.81L29.5575 13.14C29.4275 12.72 29.0375 12.43 28.5975 12.43H28.6175Z" fill="#FC0B50"/>
<path d="M37.0274 3.14001C37.1874 3.14001 37.3674 3.14002 37.5874 3.77002L54.6274 54.02C54.7274 54.34 54.7574 54.55 54.7674 54.67C54.7474 54.67 54.7274 54.67 54.7074 54.67H43.4074C43.3774 54.61 43.3474 54.53 43.3074 54.4C43.3074 54.38 43.2974 54.36 43.2874 54.34L40.2774 44.43C40.0174 43.59 39.2474 43.01 38.3674 43.01H18.8574C17.9774 43.01 17.1974 43.59 16.9474 44.43L13.9374 54.32C13.8774 54.5 13.8274 54.61 13.7874 54.67H3.1474C3.1474 54.67 3.13738 54.67 3.12738 54.67C3.12738 54.58 3.1674 54.41 3.2674 54.14C3.2774 54.11 3.2874 54.09 3.2974 54.06L20.3374 3.81001C20.5774 3.15001 20.7574 3.15002 20.9174 3.15002H37.0174M22.5874 35.1H34.6474C35.2774 35.1 35.8774 34.8 36.2574 34.29C36.6374 33.78 36.7474 33.12 36.5574 32.51L30.5274 12.84C30.2674 12 29.4974 11.43 28.6174 11.43C27.7374 11.43 26.9674 12 26.7074 12.84L20.6774 32.51C20.4874 33.12 20.6074 33.78 20.9774 34.29C21.3574 34.8 21.9474 35.1 22.5874 35.1ZM37.0274 1.14001H20.9274C19.7674 1.14001 18.9474 1.80003 18.4674 3.12003L1.41739 53.41C1.04739 54.36 1.04739 55.14 1.41739 55.75C1.78739 56.36 2.36739 56.66 3.16739 56.66H13.8774C14.8274 56.66 15.4874 56.08 15.8574 54.91L18.8674 45H38.3774L41.3874 54.91C41.7074 56.07 42.3674 56.66 43.3674 56.66H54.7074C55.5474 56.66 56.1474 56.37 56.4874 55.79C56.8274 55.21 56.8474 54.42 56.5274 53.41L39.4774 3.12003C38.9974 1.80003 38.1774 1.14001 37.0174 1.14001H37.0274ZM22.5874 33.1L28.6174 13.43L34.6474 33.1H22.5874Z" fill="#231F20"/>
<path d="M43.0875 55.38C42.7275 55.38 42.3275 55.3 42.0675 54.37L39.0475 44.43C38.9175 44.01 38.5275 43.72 38.0875 43.72H18.5775C18.1375 43.72 17.7475 44.01 17.6175 44.43L14.6075 54.34C14.2775 55.38 13.8075 55.38 13.5775 55.38H2.86748C2.31748 55.38 2.11747 55.17 1.97747 54.95C1.77747 54.62 1.80745 54.13 2.05745 53.49L19.1275 3.15999C19.5375 2.00999 20.1275 1.85999 20.6375 1.85999H36.7375C37.2475 1.85999 37.8375 2.01999 38.2575 3.17999L55.3075 53.45C55.4575 53.92 55.5975 54.6 55.3575 55C55.2875 55.11 55.1275 55.38 54.4375 55.38H43.0975H43.0875ZM28.3375 12.15C27.8975 12.15 27.5075 12.44 27.3775 12.86L21.3475 32.53C21.2575 32.83 21.3075 33.16 21.4975 33.42C21.6875 33.67 21.9875 33.83 22.2975 33.83H34.3575C34.6775 33.83 34.9775 33.68 35.1575 33.42C35.3475 33.16 35.4075 32.84 35.3075 32.53L29.2775 12.86C29.1475 12.44 28.7575 12.15 28.3175 12.15H28.3375Z" fill="#FC0B50"/>
<path d="M36.7376 2.85004C36.8976 2.85004 37.0776 2.85003 37.2976 3.48003L54.3376 53.73C54.4376 54.05 54.4676 54.26 54.4776 54.38C54.4576 54.38 54.4376 54.38 54.4176 54.38H43.1176C43.0876 54.32 43.0576 54.24 43.0176 54.11C43.0176 54.09 43.0076 54.07 42.9976 54.05L39.9876 44.14C39.7276 43.3 38.9576 42.72 38.0776 42.72H18.5676C17.6876 42.72 16.9076 43.3 16.6576 44.14L13.6476 54.03C13.5876 54.21 13.5376 54.32 13.4976 54.38H2.85761C2.85761 54.38 2.84762 54.38 2.83762 54.38C2.83762 54.29 2.8776 54.12 2.9776 53.85C2.9876 53.82 2.9976 53.8 3.0076 53.77L20.0476 3.52003C20.2876 2.86003 20.4676 2.86003 20.6276 2.86003H36.7276M22.3076 34.82H34.3676C34.9976 34.82 35.5976 34.52 35.9776 34.01C36.3576 33.5 36.4676 32.84 36.2776 32.23L30.2476 12.56C29.9876 11.72 29.2176 11.15 28.3376 11.15C27.4576 11.15 26.6876 11.72 26.4276 12.56L20.3976 32.23C20.2076 32.84 20.3276 33.5 20.6976 34.01C21.0776 34.52 21.6676 34.82 22.3076 34.82ZM36.7376 0.850037H20.6376C19.4776 0.850037 18.6576 1.51003 18.1776 2.83003L1.1276 53.12C0.757598 54.07 0.757598 54.85 1.1276 55.46C1.4976 56.07 2.0776 56.37 2.8776 56.37H13.5876C14.5376 56.37 15.1976 55.79 15.5676 54.62L18.5776 44.71H38.0876L41.0976 54.62C41.4176 55.78 42.0776 56.37 43.0776 56.37H54.4176C55.2576 56.37 55.8576 56.08 56.1976 55.5C56.5376 54.92 56.5576 54.13 56.2376 53.12L39.1876 2.83003C38.7076 1.51003 37.8876 0.850037 36.7276 0.850037H36.7376ZM22.3076 32.82L28.3376 13.15L34.3676 32.82H22.3076Z" fill="#231F20"/>
<path d="M42.8074 55.09C42.4474 55.09 42.0474 55.01 41.7874 54.08L38.7674 44.14C38.6374 43.72 38.2474 43.43 37.8074 43.43H18.2974C17.8574 43.43 17.4675 43.72 17.3375 44.14L14.3274 54.05C13.9974 55.09 13.5274 55.09 13.2974 55.09H2.58745C2.03745 55.09 1.83744 54.88 1.69744 54.66C1.49744 54.33 1.52742 53.84 1.77742 53.2L18.8474 2.87001C19.2574 1.72001 19.8474 1.57001 20.3574 1.57001H36.4574C36.9674 1.57001 37.5574 1.73 37.9774 2.89L55.0274 53.16C55.1774 53.63 55.3174 54.31 55.0774 54.71C55.0074 54.82 54.8474 55.09 54.1574 55.09H42.8174H42.8074ZM28.0474 11.86C27.6074 11.86 27.2175 12.15 27.0875 12.57L21.0574 32.24C20.9674 32.54 21.0174 32.87 21.2074 33.13C21.3974 33.38 21.6974 33.54 22.0074 33.54H34.0674C34.3874 33.54 34.6875 33.39 34.8675 33.13C35.0575 32.87 35.1174 32.55 35.0174 32.24L28.9874 12.57C28.8574 12.15 28.4674 11.86 28.0274 11.86H28.0474Z" fill="#FC0B50"/>
<path d="M36.4576 2.57001C36.6176 2.57001 36.7976 2.57 37.0176 3.2L54.0576 53.45C54.1576 53.77 54.1876 53.98 54.1976 54.1C54.1776 54.1 54.1576 54.1 54.1376 54.1H42.8376C42.8076 54.04 42.7776 53.96 42.7376 53.83C42.7376 53.81 42.7276 53.79 42.7176 53.77L39.7076 43.86C39.4476 43.02 38.6776 42.44 37.7976 42.44H18.2876C17.4076 42.44 16.6276 43.02 16.3776 43.86L13.3676 53.75C13.3076 53.93 13.2576 54.04 13.2176 54.1H2.57758C2.57758 54.1 2.56756 54.1 2.55756 54.1C2.55756 54.01 2.59757 53.84 2.69757 53.57C2.70757 53.54 2.71757 53.52 2.72757 53.49L19.7676 3.24001C20.0076 2.58001 20.1876 2.58 20.3476 2.58H36.4476M22.0276 34.54H34.0876C34.7176 34.54 35.3176 34.24 35.6976 33.73C36.0776 33.22 36.1876 32.56 35.9976 31.95L29.9676 12.28C29.7076 11.44 28.9376 10.87 28.0576 10.87C27.1776 10.87 26.4076 11.44 26.1476 12.28L20.1176 31.95C19.9276 32.56 20.0476 33.22 20.4176 33.73C20.7976 34.24 21.3876 34.54 22.0276 34.54ZM36.4576 0.570007H20.3576C19.1976 0.570007 18.3776 1.23 17.8976 2.55L0.847568 52.84C0.477568 53.79 0.477568 54.57 0.847568 55.18C1.21757 55.79 1.79757 56.09 2.59757 56.09H13.3076C14.2576 56.09 14.9176 55.51 15.2876 54.34L18.2976 44.43H37.8076L40.8176 54.34C41.1376 55.5 41.7976 56.09 42.7976 56.09H54.1376C54.9776 56.09 55.5776 55.8 55.9176 55.22C56.2576 54.64 56.2776 53.85 55.9576 52.84L38.9076 2.55C38.4276 1.23 37.6076 0.570007 36.4476 0.570007H36.4576ZM22.0276 32.54L28.0576 12.87L34.0876 32.54H22.0276Z" fill="#231F20"/>
<path d="M42.5174 54.81C42.1574 54.81 41.7574 54.73 41.4974 53.8L38.4774 43.86C38.3474 43.44 37.9574 43.15 37.5174 43.15H18.0074C17.5674 43.15 17.1774 43.44 17.0474 43.86L14.0374 53.77C13.7074 54.81 13.2374 54.81 13.0074 54.81H2.2974C1.7474 54.81 1.54738 54.6 1.40738 54.38C1.20738 54.05 1.2374 53.56 1.4874 52.92L18.5574 2.58997C18.9674 1.43997 19.5574 1.28998 20.0674 1.28998H36.1674C36.6774 1.28998 37.2674 1.44997 37.6874 2.60997L54.7374 52.88C54.8874 53.35 55.0274 54.03 54.7874 54.43C54.7174 54.54 54.5574 54.81 53.8674 54.81H42.5274H42.5174ZM27.7674 11.58C27.3274 11.58 26.9374 11.87 26.8074 12.29L20.7774 31.96C20.6874 32.26 20.7374 32.59 20.9274 32.85C21.1174 33.1 21.4174 33.26 21.7274 33.26H33.7874C34.1074 33.26 34.4074 33.11 34.5874 32.85C34.7774 32.59 34.8374 32.27 34.7374 31.96L28.7074 12.29C28.5774 11.87 28.1874 11.58 27.7474 11.58H27.7674Z" fill="#FC0B50"/>
<path d="M36.1776 2.28998C36.3376 2.28998 36.5176 2.28997 36.7376 2.91997L53.7775 53.17C53.8775 53.49 53.9075 53.7 53.9175 53.82C53.8975 53.82 53.8775 53.82 53.8575 53.82H42.5575C42.5275 53.76 42.4976 53.68 42.4576 53.55C42.4576 53.53 42.4475 53.51 42.4375 53.49L39.4276 43.58C39.1676 42.74 38.3976 42.16 37.5176 42.16H18.0075C17.1275 42.16 16.3475 42.74 16.0975 43.58L13.0876 53.47C13.0276 53.65 12.9775 53.76 12.9375 53.82H2.29755C2.29755 53.82 2.28753 53.82 2.27753 53.82C2.27753 53.73 2.31755 53.56 2.41755 53.29C2.42755 53.26 2.43754 53.24 2.44754 53.21L19.4876 2.95998C19.7276 2.29998 19.9075 2.29997 20.0675 2.29997H36.1675M21.7376 34.25H33.7976C34.4276 34.25 35.0275 33.95 35.4075 33.44C35.7875 32.93 35.8976 32.27 35.7076 31.66L29.6776 11.99C29.4176 11.15 28.6476 10.58 27.7676 10.58C26.8876 10.58 26.1175 11.15 25.8575 11.99L19.8275 31.66C19.6375 32.27 19.7575 32.93 20.1275 33.44C20.5075 33.95 21.0976 34.25 21.7376 34.25ZM36.1776 0.289978H20.0775C18.9175 0.289978 18.0976 0.949974 17.6176 2.26997L0.567539 52.56C0.197539 53.51 0.197539 54.29 0.567539 54.9C0.937539 55.51 1.51754 55.81 2.31754 55.81H13.0275C13.9775 55.81 14.6375 55.23 15.0075 54.06L18.0176 44.15H37.5275L40.5375 54.06C40.8575 55.22 41.5176 55.81 42.5176 55.81H53.8575C54.6975 55.81 55.2975 55.52 55.6375 54.94C55.9775 54.36 55.9976 53.57 55.6776 52.56L38.6275 2.26997C38.1475 0.949974 37.3275 0.289978 36.1675 0.289978H36.1776ZM21.7376 32.25L27.7676 12.58L33.7976 32.25H21.7376Z" fill="#231F20"/>
<path d="M42.2376 54.53C41.8776 54.53 41.4776 54.45 41.2176 53.52L38.1976 43.58C38.0676 43.16 37.6776 42.87 37.2376 42.87H17.7276C17.2876 42.87 16.8976 43.16 16.7676 43.58L13.7576 53.49C13.4276 54.53 12.9576 54.53 12.7276 54.53H2.01761C1.46761 54.53 1.2676 54.32 1.1276 54.1C0.927599 53.77 0.957617 53.28 1.20762 52.64L18.2776 2.31C18.6876 1.16 19.2776 1.01001 19.7876 1.01001H35.8876C36.3976 1.01001 36.9876 1.17 37.4076 2.33L54.4576 52.6C54.6076 53.07 54.7476 53.75 54.5076 54.15C54.4376 54.26 54.2776 54.53 53.5876 54.53H42.2476H42.2376ZM27.4876 11.3C27.0476 11.3 26.6576 11.59 26.5276 12.01L20.4976 31.68C20.4076 31.98 20.4576 32.31 20.6476 32.57C20.8376 32.82 21.1376 32.98 21.4476 32.98H33.5076C33.8276 32.98 34.1276 32.83 34.3076 32.57C34.4976 32.31 34.5576 31.99 34.4576 31.68L28.4276 12.01C28.2976 11.59 27.9076 11.3 27.4676 11.3H27.4876Z" fill="#FC0B50"/>
<path d="M35.8875 2C36.0475 2 36.2275 2 36.4475 2.63L53.4875 52.88C53.5875 53.2 53.6175 53.41 53.6275 53.53C53.6075 53.53 53.5875 53.53 53.5675 53.53H42.2675C42.2375 53.47 42.2075 53.39 42.1675 53.26C42.1675 53.24 42.1575 53.22 42.1475 53.2L39.1375 43.29C38.8775 42.45 38.1075 41.87 37.2275 41.87H17.7175C16.8375 41.87 16.0575 42.45 15.8075 43.29L12.7975 53.18C12.7375 53.36 12.6875 53.47 12.6475 53.53H2.00751C2.00751 53.53 1.99752 53.53 1.98752 53.53C1.98752 53.44 2.02751 53.27 2.12751 53C2.13751 52.97 2.1475 52.95 2.1575 52.92L19.1975 2.67C19.4375 2.01 19.6175 2.01001 19.7775 2.01001H35.8775M21.4575 33.97H33.5175C34.1475 33.97 34.7475 33.67 35.1275 33.16C35.5075 32.65 35.6175 31.99 35.4275 31.38L29.3975 11.71C29.1375 10.87 28.3675 10.3 27.4875 10.3C26.6075 10.3 25.8375 10.87 25.5775 11.71L19.5475 31.38C19.3575 31.99 19.4775 32.65 19.8475 33.16C20.2275 33.67 20.8175 33.97 21.4575 33.97ZM35.8875 0H19.7875C18.6275 0 17.8075 0.659996 17.3275 1.98L0.2775 52.27C-0.0925 53.22 -0.0925 54 0.2775 54.61C0.6475 55.22 1.2275 55.52 2.0275 55.52H12.7375C13.6875 55.52 14.3475 54.94 14.7175 53.77L17.7275 43.86H37.2375L40.2475 53.77C40.5675 54.93 41.2275 55.52 42.2275 55.52H53.5675C54.4075 55.52 55.0075 55.23 55.3475 54.65C55.6875 54.07 55.7075 53.28 55.3875 52.27L38.3375 1.98C37.8575 0.659996 37.0375 0 35.8775 0H35.8875ZM21.4575 31.97L27.4875 12.3L33.5175 31.97H21.4575Z" fill="#231F20"/>
</svg>
