<svg width="53" height="63" viewBox="0 0 53 63" fill="none" xmlns="http://www.w3.org/2000/svg">
<path d="M48.3148 54.915C48.4848 55.305 48.5648 55.685 48.5648 56.065C48.5648 56.425 48.4848 56.795 48.3148 57.175C48.0148 57.885 47.4848 58.405 46.7148 58.735C46.3348 58.875 45.9448 58.935 45.5648 58.935C45.1848 58.935 44.8148 58.875 44.4548 58.735C43.7148 58.435 43.1848 57.895 42.8548 57.135L36.0848 40.345H15.5648L9.12482 57.055C8.82482 57.845 8.39484 58.365 7.83484 58.615C7.27484 58.855 6.78482 58.975 6.37482 58.975C6.04482 58.975 5.70482 58.915 5.34482 58.775C4.55482 58.445 4.04482 58.005 3.81482 57.465C3.57482 56.915 3.46484 56.445 3.46484 56.065C3.46484 55.685 3.52483 55.315 3.66483 54.955C9.98483 38.485 16.3248 22.035 22.6648 5.585C23.1848 4.245 23.7848 3.565 24.4548 3.535C25.1248 3.515 25.4948 3.495 25.5848 3.495C26.7248 3.495 27.6148 4.095 28.2448 5.305L48.3148 54.915ZM33.6648 34.435L25.5848 14.455L17.8648 34.435H33.6648Z" fill="white"/>
<path d="M29.315 31.485L25.625 22.455L22.135 31.485H29.315ZM25.585 14.455L33.665 34.435H17.865L25.585 14.455Z" fill="#DD07D8"/>
<path d="M8.79489 61.405C8.03489 61.725 7.2549 61.895 6.4549 61.895C5.7449 61.895 5.02488 61.755 4.28488 61.485C2.72488 60.855 1.6249 59.825 0.994904 58.405C0.674904 57.635 0.504883 56.865 0.504883 56.065C0.504883 55.355 0.644886 54.625 0.914886 53.895L9.28488 32.145C12.7949 23.005 16.3049 13.865 19.8349 4.72501C20.3549 3.00501 21.5049 1.745 23.2849 0.955005C24.0449 0.655005 24.8049 0.505005 25.5349 0.505005C26.3049 0.505005 27.2349 0.735005 28.3349 1.195C29.4249 1.665 30.3049 2.665 30.9549 4.195L51.0649 53.805C51.3649 54.575 51.5149 55.325 51.5149 56.065C51.5149 56.805 51.2849 57.765 50.8149 58.855C50.3549 59.955 49.3549 60.825 47.8249 61.485C47.0549 61.755 46.3049 61.895 45.5649 61.895C44.8249 61.895 43.8649 61.665 42.7749 61.215C41.6849 60.765 40.7949 59.775 40.1049 58.245L34.0749 43.305H17.5749L11.8749 58.115C11.2449 59.675 10.2149 60.775 8.79489 61.405ZM6.37488 58.975C6.78488 58.975 7.2749 58.855 7.8349 58.615C8.3949 58.365 8.82488 57.845 9.12488 57.055L15.5649 40.345H36.0849L42.8549 57.135C43.1849 57.895 43.7149 58.435 44.4549 58.735C44.8149 58.875 45.1849 58.935 45.5649 58.935C45.9449 58.935 46.3349 58.875 46.7149 58.735C47.4849 58.405 48.0149 57.885 48.3149 57.175C48.4849 56.795 48.5649 56.425 48.5649 56.065C48.5649 55.685 48.4849 55.305 48.3149 54.915L28.2449 5.30501C27.6149 4.09501 26.7249 3.495 25.5849 3.495C25.4949 3.495 25.1249 3.515 24.4549 3.535C23.7849 3.565 23.1849 4.245 22.6649 5.585C16.3249 22.035 9.98489 38.485 3.66489 54.955C3.52489 55.315 3.4649 55.685 3.4649 56.065C3.4649 56.445 3.57488 56.915 3.81488 57.465C4.04488 58.005 4.55488 58.445 5.34488 58.775C5.70488 58.915 6.04488 58.975 6.37488 58.975Z" fill="#DD07D8"/>
<path d="M40.1049 58.245L34.0749 43.305H17.5749L11.8749 58.115C11.2449 59.675 10.2149 60.775 8.79489 61.405C8.03489 61.725 7.2549 61.895 6.4549 61.895C5.7449 61.895 5.02488 61.755 4.28488 61.485C2.72488 60.855 1.6249 59.825 0.994904 58.405C0.674904 57.635 0.504883 56.865 0.504883 56.065C0.504883 55.355 0.644886 54.625 0.914886 53.895L9.28488 32.145C12.7949 23.005 16.3049 13.865 19.8349 4.72501C20.3549 3.00501 21.5049 1.745 23.2849 0.955005C24.0449 0.655005 24.8049 0.505005 25.5349 0.505005C26.3049 0.505005 27.2349 0.735005 28.3349 1.195C29.4249 1.665 30.3049 2.665 30.9549 4.195L51.0649 53.805C51.3649 54.575 51.5149 55.325 51.5149 56.065C51.5149 56.805 51.2849 57.765 50.8149 58.855C50.3549 59.955 49.3549 60.825 47.8249 61.485C47.0549 61.755 46.3049 61.895 45.5649 61.895C44.8249 61.895 43.8649 61.665 42.7749 61.215C41.6849 60.765 40.7949 59.775 40.1049 58.245Z" stroke="#DD07D8" stroke-width="1.01" stroke-linecap="round" stroke-linejoin="round"/>
<path d="M28.2448 5.305C27.6148 4.095 26.7248 3.495 25.5848 3.495C25.4948 3.495 25.1248 3.515 24.4548 3.535C23.7848 3.565 23.1848 4.245 22.6648 5.585C16.3248 22.035 9.98483 38.485 3.66483 54.955C3.52483 55.315 3.46484 55.685 3.46484 56.065C3.46484 56.445 3.57482 56.915 3.81482 57.465C4.04482 58.005 4.55482 58.445 5.34482 58.775C5.70482 58.915 6.04482 58.975 6.37482 58.975C6.78482 58.975 7.27484 58.855 7.83484 58.615C8.39484 58.365 8.82482 57.845 9.12482 57.055L15.5648 40.345H36.0848L42.8548 57.135C43.1848 57.895 43.7148 58.435 44.4548 58.735C44.8148 58.875 45.1848 58.935 45.5648 58.935C45.9448 58.935 46.3348 58.875 46.7148 58.735C47.4848 58.405 48.0148 57.885 48.3148 57.175C48.4848 56.795 48.5648 56.425 48.5648 56.065C48.5648 55.685 48.4848 55.305 48.3148 54.915L28.2448 5.305Z" stroke="#DD07D8" stroke-width="1.01" stroke-linecap="round" stroke-linejoin="round"/>
<path d="M33.665 34.435H17.865L25.585 14.455L33.665 34.435Z" stroke="#DD07D8" stroke-width="1.01" stroke-linecap="round" stroke-linejoin="round"/>
<path d="M22.1348 31.485H29.3148L25.6248 22.455L22.1348 31.485Z" stroke="#DD07D8" stroke-width="1.01" stroke-linecap="round" stroke-linejoin="round"/>
</svg>
