<svg width="13" height="63" viewBox="0 0 13 63" fill="none" xmlns="http://www.w3.org/2000/svg">
<path d="M9.37482 6.41502V56.475C9.37482 57.295 9.08483 57.995 8.51483 58.565C7.94483 59.135 7.23483 59.435 6.41483 59.435C5.59483 59.435 4.89483 59.145 4.32483 58.565C3.75483 57.995 3.46484 57.295 3.46484 56.475V6.41502C3.46484 5.58502 3.75483 4.89502 4.32483 4.31502C4.89483 3.74502 5.59483 3.45502 6.41483 3.45502C7.23483 3.45502 7.93483 3.74502 8.51483 4.31502C9.08483 4.89502 9.37482 5.58502 9.37482 6.41502Z" fill="white"/>
<path d="M6.41489 0.505005C8.05489 0.505005 9.45489 1.085 10.6049 2.245C11.7549 3.405 12.3249 4.795 12.3249 6.415V56.475C12.3249 58.115 11.7549 59.515 10.6049 60.665C9.45489 61.815 8.05489 62.385 6.41489 62.385C4.77489 62.385 3.38489 61.815 2.23489 60.665C1.08489 59.515 0.504883 58.115 0.504883 56.475V6.415C0.504883 4.795 1.08489 3.405 2.23489 2.245C3.38489 1.085 4.77489 0.505005 6.41489 0.505005ZM9.37488 6.415C9.37488 5.585 9.08489 4.89501 8.51489 4.31501C7.93489 3.74501 7.23489 3.455 6.41489 3.455C5.59489 3.455 4.89489 3.74501 4.32489 4.31501C3.75489 4.89501 3.4649 5.585 3.4649 6.415V56.475C3.4649 57.295 3.75489 57.995 4.32489 58.565C4.89489 59.145 5.59489 59.435 6.41489 59.435C7.23489 59.435 7.93489 59.145 8.51489 58.565C9.09489 57.985 9.37488 57.295 9.37488 56.475V6.415Z" fill="#DD07D8"/>
<path d="M12.3249 6.415V56.475C12.3249 58.115 11.7549 59.515 10.6049 60.665C9.45489 61.815 8.05489 62.385 6.41489 62.385C4.77489 62.385 3.38489 61.815 2.23489 60.665C1.08489 59.515 0.504883 58.115 0.504883 56.475V6.415C0.504883 4.795 1.08489 3.405 2.23489 2.245C3.38489 1.085 4.77489 0.505005 6.41489 0.505005C8.05489 0.505005 9.45489 1.085 10.6049 2.245C11.7549 3.405 12.3249 4.795 12.3249 6.415Z" stroke="#DD07D8" stroke-width="1.01" stroke-linecap="round" stroke-linejoin="round"/>
<path d="M9.37482 6.41502C9.37482 5.58502 9.08483 4.89502 8.51483 4.31502C7.93483 3.74502 7.23483 3.45502 6.41483 3.45502C5.59483 3.45502 4.89483 3.74502 4.32483 4.31502C3.75483 4.89502 3.46484 5.58502 3.46484 6.41502V56.475C3.46484 57.295 3.75483 57.995 4.32483 58.565C4.89483 59.145 5.59483 59.435 6.41483 59.435C7.23483 59.435 7.93483 59.145 8.51483 58.565C9.09483 57.985 9.37482 57.295 9.37482 56.475V6.41502Z" stroke="#DD07D8" stroke-width="1.01" stroke-linecap="round" stroke-linejoin="round"/>
</svg>
