<svg width="13" height="63" viewBox="0 0 13 63" fill="none" xmlns="http://www.w3.org/2000/svg">
<path d="M9.36483 6.41502V56.475C9.36483 57.295 9.08483 57.995 8.50483 58.565C7.93483 59.145 7.23483 59.435 6.41483 59.435C5.59483 59.435 4.89483 59.145 4.31483 58.565C3.73483 57.985 3.45483 57.295 3.45483 56.475V6.41502C3.45483 5.58502 3.74483 4.89502 4.31483 4.31502C4.89483 3.74502 5.59483 3.45502 6.41483 3.45502C7.23483 3.45502 7.93483 3.74502 8.50483 4.31502C9.07483 4.88502 9.36483 5.58502 9.36483 6.41502Z" fill="white"/>
<path d="M9.36488 56.475V6.415C9.36488 5.585 9.08488 4.89501 8.50488 4.31501C7.92488 3.73501 7.23488 3.455 6.41488 3.455C5.59488 3.455 4.89488 3.74501 4.31488 4.31501C3.74488 4.89501 3.45488 5.585 3.45488 6.415V56.475C3.45488 57.295 3.74488 57.995 4.31488 58.565C4.88488 59.135 5.59488 59.435 6.41488 59.435C7.23488 59.435 7.93488 59.145 8.50488 58.565C9.08488 57.995 9.36488 57.295 9.36488 56.475ZM10.5949 2.245C11.7449 3.405 12.3249 4.795 12.3249 6.415V56.475C12.3249 58.115 11.7449 59.515 10.5949 60.665C9.44488 61.815 8.05488 62.385 6.41488 62.385C4.77488 62.385 3.37488 61.815 2.22488 60.665C1.07488 59.515 0.504883 58.115 0.504883 56.475V6.415C0.504883 4.795 1.07488 3.405 2.22488 2.245C3.37488 1.085 4.77488 0.505005 6.41488 0.505005C8.05488 0.505005 9.44488 1.085 10.5949 2.245Z" fill="#DD07D8"/>
<path d="M12.3249 6.415V56.475C12.3249 58.115 11.7449 59.515 10.5949 60.665C9.44488 61.815 8.05488 62.385 6.41488 62.385C4.77488 62.385 3.37488 61.815 2.22488 60.665C1.07488 59.515 0.504883 58.115 0.504883 56.475V6.415C0.504883 4.795 1.07488 3.405 2.22488 2.245C3.37488 1.085 4.77488 0.505005 6.41488 0.505005C8.05488 0.505005 9.44488 1.085 10.5949 2.245C11.7449 3.405 12.3249 4.795 12.3249 6.415Z" stroke="#DD07D8" stroke-width="1.01" stroke-linecap="round" stroke-linejoin="round"/>
<path d="M9.36483 6.41502C9.36483 5.58502 9.08483 4.89502 8.50483 4.31502C7.92483 3.73502 7.23483 3.45502 6.41483 3.45502C5.59483 3.45502 4.89483 3.74502 4.31483 4.31502C3.74483 4.89502 3.45483 5.58502 3.45483 6.41502V56.475C3.45483 57.295 3.74483 57.995 4.31483 58.565C4.88483 59.135 5.59483 59.435 6.41483 59.435C7.23483 59.435 7.93483 59.145 8.50483 58.565C9.08483 57.995 9.36483 57.295 9.36483 56.475V6.41502Z" stroke="#DD07D8" stroke-width="1.01" stroke-linecap="round" stroke-linejoin="round"/>
</svg>
