<svg width="19" height="41" viewBox="0 0 19 41" fill="none" xmlns="http://www.w3.org/2000/svg">
<path d="M17.5 10.33C17.5 11.14 17.42 11.78 17.26 12.24C17.1 12.7 17.02 13.42 17.02 14.4C17.02 15.81 16.97 16.55 16.86 16.6C16.7 16.76 16.62 16.95 16.62 17.17C16.62 17.44 16.7 17.58 16.86 17.58C17.02 17.58 17.1 19.75 17.1 24.1C17.1 28.45 17.02 30.59 16.86 30.7C16.7 30.86 16.62 31.35 16.62 32.17C16.62 32.99 16.7 33.47 16.86 33.64C16.97 33.69 17.02 33.86 17.02 34.13C17.02 34.35 17.26 34.7 17.75 35.19C18.18 35.63 18.43 36.36 18.48 37.39V38.04C18.48 39.02 18.02 39.7 17.1 40.08C15.8 40.57 14.49 40.84 13.19 40.89H11.07C8.3 40.89 6.7 40.73 6.27 40.4C5.89 40.13 5.59 39.99 5.37 39.99C5.21 39.99 4.99 39.69 4.72 39.09C4.39 38.49 4.23 37.9 4.23 37.3C4.23 36.32 4.72 35.24 5.7 34.04C5.86 33.88 6.03 33.5 6.19 32.9C6.35 32.3 6.49 31.92 6.6 31.76C6.71 31.71 6.76 31.35 6.76 30.7C6.76 30.05 6.71 29.7 6.6 29.64C6.49 29.59 6.44 29.34 6.44 28.91C6.44 28.48 6.49 28.26 6.6 28.26L6.76 27.04C6.87 26.23 6.98 25.41 7.09 24.6L7.25 23.38C7.36 23.33 7.41 22.84 7.41 21.91C7.41 20.93 7.36 20.36 7.25 20.2C7.14 19.98 7.03 17.57 6.92 12.95C6.81 8.38998 6.62 6.02999 6.35 5.85999C5.64 5.52999 4.72 5.29 3.58 5.13C1.19 4.86 0 3.93999 0 2.35999C0 1.81999 0.24 1.3 0.73 0.809998L1.46 0L3.41 0.160004C5.53 0.320004 7.67 0.399994 9.84 0.399994C12.88 0.509994 14.43 0.589984 14.48 0.639984C14.64 0.799984 15.16 0.939988 16.03 1.04999C17.39 1.20999 18.26 1.64998 18.64 2.34998C18.8 2.67998 18.9 2.98998 18.92 3.28998C18.95 3.58998 18.88 3.73999 18.72 3.73999C18.61 3.73999 18.56 3.84998 18.56 4.06998C18.56 4.28998 18.45 4.51 18.23 4.72C18.07 4.88 17.99 5.20998 17.99 5.69998C17.88 6.94998 17.72 7.84998 17.5 8.38998V10.34V10.33Z" fill="black"/>
</svg>
