<svg width="25" height="78" viewBox="0 0 25 78" fill="none" xmlns="http://www.w3.org/2000/svg">
<path d="M23.3855 5.55771C22.3655 6.40771 19.2455 6.91769 17.8955 6.78769C17.8755 7.44769 17.9855 8.1477 17.8555 8.7977C16.3255 16.9577 16.1355 26.3777 15.8755 34.7477C15.6155 43.1177 14.4755 61.7577 18.2555 68.8877C20.0355 72.2577 24.2155 73.9977 18.8055 77.2677C16.5755 76.9277 14.3655 76.3077 12.0955 76.1677C9.61549 76.0077 5.3955 77.1377 3.2655 76.4177C1.7555 75.9077 -0.114507 74.4277 0.0054933 72.6477C0.245493 69.2077 3.7155 70.2377 4.6355 68.6677C4.9855 68.0677 6.51549 60.3377 6.65549 59.1277C7.30549 53.6477 6.78548 47.3177 7.05548 41.6277C7.28548 36.9177 7.9355 32.1477 8.1055 27.4477C8.3555 20.7977 7.82549 13.9877 8.56549 7.33774C5.86549 7.46774 2.99549 6.15772 3.53549 3.00772C4.24549 -1.10228 10.5455 0.357689 13.3155 0.347689C16.0855 0.337689 22.3255 -1.06227 23.7555 1.82773C24.3355 2.99773 24.4555 4.6377 23.3655 5.5477L23.3855 5.55771Z" fill="#1E161F"/>
</svg>
