<svg width="27" height="75" viewBox="0 0 27 75" fill="none" xmlns="http://www.w3.org/2000/svg">
<path d="M23.4636 7.23601C21.7036 9.03601 16.4236 9.34602 16.1536 9.62602C15.7236 10.066 16.8936 12.656 15.3936 12.776C17.1136 13.716 15.3136 15.426 15.4036 15.556C15.4636 15.646 16.4336 15.326 16.1436 16.506C16.1036 16.666 15.3736 16.526 15.3536 17.236C15.3036 18.796 16.2136 20.696 16.1836 21.736C16.1736 22.176 15.0436 22.456 15.3636 24.736C15.4636 25.486 16.2136 25.116 16.1736 25.816C16.1136 26.906 15.0036 27.556 15.3936 29.116C15.4636 29.396 16.0536 29.346 16.1236 29.626C16.2636 30.196 16.2436 32.286 16.1636 32.946C16.0736 33.756 15.2436 33.356 15.3836 33.656C16.7436 36.496 16.0236 40.136 16.1136 43.366C16.2536 48.286 16.6336 53.326 16.8936 58.256C16.9936 60.226 16.7336 62.216 16.9336 64.186C18.7636 65.656 21.7636 64.606 23.7836 65.906C24.2936 66.236 25.9036 67.966 26.0536 68.506C26.5336 70.246 23.5036 74.186 21.8936 74.456C20.8136 74.636 17.1636 74.766 16.0136 74.706C14.6136 74.636 13.7236 73.866 12.6136 73.706C9.94361 73.336 4.84362 74.476 2.73362 73.146C-0.756384 70.956 -0.726384 67.416 1.81362 64.436C2.33362 63.836 4.42362 62.496 4.51362 62.286C5.01362 61.186 4.77362 59.076 4.96362 57.896C5.51362 54.486 6.04362 49.546 5.67362 45.966C5.61362 45.376 4.95362 44.966 5.01362 44.526C5.43362 41.716 5.81362 40.226 5.56362 37.056C5.28362 33.326 5.94362 28.526 5.70362 24.306C5.65362 23.496 5.11362 22.926 5.08362 22.386C4.90362 19.706 5.17362 15.266 4.49362 12.836C4.16362 11.666 2.06362 9.60602 1.97362 9.30602C1.74362 8.58601 1.47362 5.35602 1.68362 4.62602C2.72362 1.02602 7.36362 1.96601 9.91362 1.36601C11.0636 1.09601 11.4736 0.856023 13.3436 0.626023C15.5536 0.356023 19.4336 -0.443965 21.4736 0.326035C21.5936 0.376035 23.3336 2.00602 23.4036 2.12602C23.7536 2.70602 23.5236 3.68603 23.6836 4.44603C23.9036 5.48603 25.0136 5.62604 23.4536 7.20604L23.4636 7.23601Z" fill="#221A22"/>
</svg>
