<svg width="19" height="73" viewBox="0 0 19 73" fill="none" xmlns="http://www.w3.org/2000/svg">
<path d="M10.0719 72.2001C9.42188 72.2001 3.34187 70.4301 2.99187 70.1301L0.0118864 65.6701C-0.0781136 49.4601 0.371861 33.3701 0.391861 17.1801C0.391861 14.8901 0.241872 13.3201 0.371872 10.8501C0.501872 8.21009 0.311871 2.9301 2.90187 1.3601C5.04187 0.0600969 5.41189 0.980074 7.23189 0.930074C8.24189 0.910074 9.98188 -0.00991907 10.2519 8.09325e-05C10.5219 0.0100809 15.5219 1.20008 15.7719 1.34008C16.2019 1.58008 15.9919 2.06008 16.0319 2.09008C16.1819 3.59008 13.9119 3.49009 13.8119 3.60009C13.7119 3.70009 13.8919 4.51008 13.6919 4.97008C13.6119 5.14008 12.6119 5.66008 12.4319 5.94008C12.2319 6.24008 12.4019 6.75009 12.2819 7.01009C12.0519 7.50009 11.4519 7.1501 11.5319 8.2401C11.6019 9.1601 13.6119 9.5401 13.0219 10.2701C12.9119 10.4001 12.3919 10.1101 12.3119 10.4801C12.1119 11.3301 12.9619 10.8601 13.0719 11.2801C13.1919 11.7501 12.9319 13.1601 13.0719 13.2801C13.1819 13.3801 13.9319 13.1601 14.2719 13.2901C14.6119 13.4201 14.5519 13.9501 14.8119 14.0101C15.1519 14.0901 17.3219 14.1101 17.5419 14.0101C17.8119 16.6101 17.0519 19.1501 16.9319 21.7201C16.7519 25.5701 17.2719 29.7301 16.8219 33.6201C16.7319 34.4301 15.9019 34.0401 16.0419 34.3301C17.2019 36.7301 16.7519 38.2001 16.7819 40.8601C15.4419 41.1801 16.2819 39.5901 16.0419 39.3701C15.9519 39.2801 13.9619 39.2901 13.5919 39.3401C12.9019 39.4301 13.1019 40.0401 12.8019 40.1101C12.0519 40.2701 11.1519 39.9901 10.3419 40.1301C9.19187 40.3401 8.30187 43.9401 8.59187 45.0801C8.66187 45.3701 9.26188 45.3001 9.32188 45.5901C9.68188 47.2201 9.64187 46.8201 10.0619 47.8601C10.1919 48.1901 9.95187 48.9201 10.0919 49.0501C10.2319 49.1801 10.9519 48.9401 11.2819 49.0801C11.6419 49.2301 11.5619 49.7301 11.8119 49.8101C13.0619 50.1801 13.0319 49.2601 13.1819 49.1901C13.6119 49.0001 14.1519 49.1301 14.4419 48.9401C15.0719 48.5401 16.2819 45.8101 16.7919 47.5701C16.8419 52.1201 16.8019 56.7001 16.7919 61.0001C15.6119 60.0001 12.8719 60.0401 11.3719 60.2301C11.1819 60.2501 9.54189 61.7301 9.45189 61.8601C9.26189 62.1701 9.42186 62.6601 9.30186 62.9301C9.12186 63.3401 8.64187 63.1401 8.56187 63.7701C8.38187 65.1001 8.23186 68.7601 9.30186 69.5101L10.0819 72.1801L10.0719 72.2001ZM8.49187 17.8701C7.33187 17.4801 3.85186 17.4301 3.39186 18.8101C3.27186 19.1701 3.46187 19.8901 3.37187 19.9901C3.23187 20.1401 2.02188 19.8601 1.88188 19.9901C1.67188 20.1801 1.78186 25.2401 1.89186 25.7001C1.95186 25.9501 2.45188 25.9601 2.50188 26.0901C2.69188 26.5701 2.90187 28.0401 3.65187 28.1901C4.30187 28.3201 7.00187 28.3401 7.59187 28.1901C7.84187 28.1301 7.85189 27.6301 7.98189 27.5801C8.42189 27.4001 8.95189 27.5101 9.23189 27.3301C9.32189 27.2701 10.6619 25.9301 10.7219 25.8401C10.9219 25.5301 10.7319 24.9801 10.9519 24.5601C11.0019 24.4701 12.1019 24.4501 11.5719 23.7201C11.5419 23.6801 10.9319 23.8201 10.8319 23.4701C10.6319 22.7301 11.0519 19.4301 10.8319 19.2401C10.7519 19.1701 9.93189 19.3401 9.45189 19.1301C9.29189 19.0601 8.62188 17.9001 8.50188 17.8601L8.49187 17.8701ZM5.51189 52.1701C4.48189 51.7201 2.64188 51.9201 2.00188 52.9401C1.82188 53.2301 1.91188 53.7501 1.75188 54.1801C1.40188 55.1001 1.42188 54.9601 1.13188 56.2901C1.07188 56.5801 0.471871 56.5101 0.401871 56.8001C-0.338129 59.9001 1.40187 59.5401 1.77187 60.3801C2.38187 61.7701 1.08187 61.9701 4.12187 61.7701L3.38188 62.5101C4.20188 63.0301 6.64187 60.7101 6.99187 60.1601C7.17187 59.8701 7.05187 59.3401 7.24187 58.9001C7.30187 58.7501 8.22186 58.8001 7.86186 57.5301C7.78186 57.2501 7.18187 57.4601 7.09187 56.7501C6.98187 55.9001 7.34187 53.2201 7.12187 52.8101C7.10187 52.7701 6.51188 53.0901 6.10188 52.9301C5.66188 52.7601 5.65189 52.2101 5.54189 52.1701H5.51189Z" fill="#EF5268"/>
<path d="M16.7918 61.0201C16.7918 61.7901 17.2418 62.7301 17.1918 63.8201C17.1518 64.6501 16.9718 66.7501 16.7618 67.4401C16.7018 67.6301 14.5918 70.4801 14.4318 70.5801C14.0918 70.7901 13.5718 70.6301 13.1918 70.8301C12.0218 71.4801 11.9918 72.1901 10.0818 72.1901L9.30181 69.5201C8.23181 68.7701 8.38182 65.1101 8.56182 63.7801C8.64182 63.1501 9.12181 63.3501 9.30181 62.9401C9.42181 62.6701 9.26183 62.1801 9.45183 61.8701C9.53183 61.7401 11.1818 60.2601 11.3718 60.2401C12.8718 60.0501 15.6118 60.0101 16.7918 61.0101V61.0201Z" fill="#F9B027"/>
<path d="M16.7919 47.5901C16.2819 45.8301 15.0719 48.5601 14.4419 48.9601C14.1519 49.1401 13.6219 49.0201 13.1819 49.2101C13.0419 49.2701 13.0619 50.2001 11.8119 49.8301C11.5619 49.7601 11.6419 49.2501 11.2819 49.1001C10.9519 48.9701 10.2219 49.2101 10.0919 49.0701C9.96193 48.9301 10.2019 48.2101 10.0619 47.8801C9.64193 46.8301 9.68194 47.2401 9.32194 45.6101C9.26194 45.3301 8.66192 45.3901 8.59192 45.1001C8.31192 43.9601 9.19193 40.3601 10.3419 40.1501C11.1519 40.0001 12.0519 40.2901 12.8019 40.1301C13.0919 40.0701 12.9019 39.4501 13.5919 39.3601C13.9619 39.3101 15.9519 39.3001 16.0419 39.3901C16.2819 39.6201 15.4419 41.2101 16.7819 40.8801C16.8119 43.1101 16.7619 45.3601 16.7819 47.5901H16.7919Z" fill="#F9B027"/>
<path d="M16.042 2.1001C16.992 2.8101 18.0219 3.1101 18.2519 4.5401C18.4819 5.9701 18.4919 11.2501 18.3019 12.7401C18.3019 12.8101 17.6019 14.0001 17.5319 14.0301C17.3219 14.1201 15.1519 14.1001 14.8019 14.0301C14.5419 13.9701 14.612 13.4401 14.262 13.3101C13.912 13.1801 13.1719 13.4001 13.0619 13.3001C12.9319 13.1801 13.1919 11.7801 13.0619 11.3001C12.9519 10.8801 12.1019 11.3501 12.3019 10.5001C12.3919 10.1301 12.912 10.4101 13.012 10.2901C13.602 9.5601 11.5919 9.1801 11.5219 8.2601C11.4419 7.1601 12.0419 7.51009 12.2719 7.03009C12.3919 6.78009 12.222 6.26008 12.422 5.96008C12.602 5.69008 13.6019 5.17011 13.6819 4.99011C13.8919 4.52011 13.7019 3.72009 13.8019 3.62009C13.9119 3.51009 16.1719 3.62011 16.0219 2.11011L16.042 2.1001Z" fill="#F9B027"/>
<path d="M8.49191 17.8701C8.60191 17.9101 9.28192 19.0701 9.44192 19.1401C9.92192 19.3501 10.7419 19.1801 10.8219 19.2501C11.0419 19.4401 10.6219 22.7401 10.8219 23.4801C10.9219 23.8401 11.5319 23.6901 11.5619 23.7301C12.0919 24.4501 10.9819 24.4801 10.9419 24.5701C10.7319 24.9901 10.9219 25.5401 10.7119 25.8501C10.6519 25.9401 9.31192 27.2801 9.22192 27.3401C8.94192 27.5201 8.40192 27.4101 7.97192 27.5901C7.84192 27.6401 7.8319 28.1401 7.5819 28.2001C6.9919 28.3501 4.2919 28.3201 3.6419 28.2001C2.8919 28.0501 2.69191 26.5901 2.49191 26.1001C2.44191 25.9701 1.94192 25.9601 1.88192 25.7101C1.77192 25.2501 1.66191 20.2001 1.87191 20.0001C2.01191 19.8701 3.2219 20.1501 3.3619 20.0001C3.4519 19.9001 3.27192 19.1701 3.38192 18.8201C3.84192 17.4401 7.32193 17.5001 8.48193 17.8801L8.49191 17.8701Z" fill="#F9B027"/>
<path d="M5.51177 52.1701C5.62177 52.2201 5.63177 52.7601 6.07177 52.9301C6.48177 53.0901 7.06176 52.7601 7.09176 52.8101C7.32176 53.2201 6.95176 55.9001 7.06176 56.7501C7.15176 57.4501 7.75175 57.2401 7.83175 57.5301C8.19175 58.8001 7.28175 58.7501 7.21175 58.9001C7.02175 59.3301 7.15175 59.8701 6.96175 60.1601C6.61175 60.7101 4.18177 63.0301 3.35177 62.5101L4.09176 61.7701C1.05176 61.9701 2.35175 61.7701 1.74175 60.3801C1.37175 59.5401 -0.368244 59.9001 0.371756 56.8001C0.441756 56.5201 1.04177 56.5801 1.10177 56.2901C1.39177 54.9601 1.37176 55.1101 1.72176 54.1801C1.89176 53.7501 1.79176 53.2201 1.97176 52.9401C2.61176 51.9301 4.45177 51.7301 5.48177 52.1701H5.51177Z" fill="#F9B027"/>
</svg>
