<svg width="24" height="78" viewBox="0 0 24 78" fill="none" xmlns="http://www.w3.org/2000/svg">
<path d="M10.2308 0C9.76082 0.75 9.67082 1.36 9.36082 2.12C9.31082 2.25 8.81082 2.25 8.75082 2.5C8.06082 5.31 9.10082 6.58999 10.1908 8.51999C10.3108 8.72999 10.1508 9.25998 10.3608 9.56998C10.9308 10.44 12.7808 10.83 13.6508 11.22C14.0708 11.41 13.8608 11.87 14.4908 11.96C14.9908 12.03 16.2108 12.03 16.6808 11.92C16.9308 11.86 16.9308 11.36 17.0608 11.31C17.8208 11 18.4208 10.91 19.1808 10.44C20.2708 27.68 22.4008 44.49 22.6708 61.65C22.7408 65.86 24.2608 72.66 20.3608 75.28C17.4608 77.23 10.9408 77.22 7.43082 76.82C4.79082 76.52 4.20082 74.66 2.97082 72.69C2.52082 60.65 2.21082 48.58 1.66082 36.54C1.90082 35.71 2.76082 35.92 3.39082 35.65C3.50082 35.6 3.50082 35.18 3.81082 35.06C4.16082 34.93 4.90082 35.14 5.01082 35.04C5.13082 34.93 4.90082 33.57 5.01082 33.06C5.08082 32.78 5.68082 32.83 5.74082 32.55C6.03082 31.27 5.68082 30.03 6.50082 28.7C8.85082 29.49 5.94082 27.67 5.86082 27.49C5.66082 27.03 5.74082 26.57 5.74082 26.1L5.00082 26.84C5.34082 22.28 4.37082 23.69 1.52082 23.11C1.21082 23.05 1.27082 22.1 0.520824 22.37C0.360824 17.41 -0.269177 10.09 0.130823 5.38998C0.330823 3.07998 0.970824 1.07 3.47082 0.529999C4.90082 0.219999 8.62082 0 10.2108 0H10.2308ZM13.1208 47.11C11.8308 46.45 11.7408 47.55 11.6008 47.61C10.6508 48.02 9.50082 48.31 8.86082 49.34C8.28082 50.26 8.19082 51.69 7.98082 52.68C7.87082 53.19 6.21082 53.63 6.49082 54.26C6.56082 54.53 7.05082 54.39 7.13082 54.55C7.63082 55.58 8.30082 57.91 8.86082 58.81C8.92082 58.9 10.2208 60.27 10.3208 60.31C11.0008 60.55 11.6108 60.29 12.2108 60.42C12.3508 60.45 13.1908 61.85 14.7008 61.16L13.9608 60.42C15.0508 60.57 16.4008 60.5 16.9208 59.37C17.0708 59.05 16.8408 58.3 16.9408 58.19C17.0808 58.03 19.0308 58.34 19.1708 58.19C19.2708 58.07 19.0508 57.33 19.1808 56.99C19.3108 56.65 19.8408 56.71 19.9008 56.45C20.0308 55.93 20.0208 54.1 19.9408 53.51C19.8508 52.82 19.2408 53.03 19.1708 52.72C19.0408 52.12 19.3008 51.51 19.0508 50.83C19.0108 50.73 17.9608 50.13 17.7908 49.87C17.5808 49.56 17.7608 48.97 17.5408 48.62C16.9408 47.66 16.1908 47.94 15.5308 47.64C15.3508 47.55 15.5508 47.07 15.2408 47C14.4008 46.81 14.8308 47.65 14.4508 47.76C13.1708 48.14 13.1908 47.17 13.0908 47.12L13.1208 47.11Z" fill="#EF5268"/>
<path d="M10.2308 0C10.6408 0 12.9008 0.119993 13.2108 0.179993C14.2908 0.379993 16.9108 1.43999 17.5608 2.35999C17.7408 2.60999 17.6408 3.17999 17.8108 3.60999C17.8608 3.73999 18.3608 3.74999 18.4208 3.98999C18.7008 5.13999 19.0908 9.07 19.1808 10.44C18.4308 10.91 17.8308 11 17.0608 11.31C16.9308 11.36 16.9308 11.86 16.6808 11.92C16.2108 12.03 14.9908 12.03 14.4908 11.96C13.8608 11.87 14.0708 11.41 13.6508 11.22C12.7808 10.83 10.9308 10.44 10.3608 9.56998C10.1608 9.25998 10.3208 8.72999 10.1908 8.51999C9.09081 6.58999 8.05081 5.31 8.75081 2.5C8.81081 2.25 9.31081 2.25 9.36081 2.12C9.67081 1.36 9.76081 0.75 10.2308 0Z" fill="#F9B027"/>
<path d="M0.530762 22.37C1.28076 22.11 1.22076 23.05 1.53076 23.11C4.38076 23.69 5.35076 22.28 5.01076 26.84L5.75076 26.1C5.75076 26.58 5.66076 27.03 5.87076 27.49C5.95076 27.67 8.85076 29.49 6.51076 28.7C5.70076 30.03 6.04076 31.27 5.75076 32.55C5.69076 32.83 5.08076 32.78 5.02076 33.06C4.90076 33.58 5.13076 34.94 5.02076 35.04C4.91076 35.14 4.18076 34.92 3.82076 35.06C3.50076 35.18 3.51076 35.6 3.40076 35.65C2.77076 35.92 1.91076 35.7 1.67076 36.54C1.45076 31.86 0.710762 27.15 0.550762 22.37H0.530762Z" fill="#F9B027"/>
<path d="M13.1208 47.11C13.2108 47.16 13.1908 48.13 14.4808 47.75C14.8608 47.64 14.4308 46.8 15.2708 46.99C15.5808 47.06 15.3808 47.54 15.5608 47.63C16.2208 47.94 16.9708 47.66 17.5708 48.61C17.7908 48.96 17.6108 49.55 17.8208 49.86C17.9908 50.12 19.0408 50.72 19.0808 50.82C19.3208 51.5 19.0608 52.11 19.2008 52.71C19.2708 53.02 19.8808 52.81 19.9708 53.5C20.0508 54.09 20.0608 55.92 19.9308 56.44C19.8708 56.7 19.3408 56.64 19.2108 56.98C19.0808 57.32 19.3008 58.06 19.2008 58.18C19.0608 58.34 17.1108 58.03 16.9708 58.18C16.8708 58.3 17.0908 59.04 16.9508 59.36C16.4308 60.49 15.0808 60.57 13.9908 60.41L14.7308 61.15C13.2208 61.85 12.3808 60.44 12.2408 60.41C11.6408 60.27 11.0308 60.54 10.3508 60.3C10.2508 60.26 8.94083 58.89 8.89083 58.8C8.34083 57.91 7.66083 55.58 7.16083 54.54C7.08083 54.38 6.59083 54.52 6.52083 54.25C6.23083 53.63 7.90083 53.18 8.01083 52.67C8.22083 51.68 8.31083 50.25 8.89083 49.33C9.54083 48.3 10.6908 48.01 11.6308 47.6C11.7608 47.54 11.8608 46.44 13.1508 47.1L13.1208 47.11Z" fill="#F9B027"/>
</svg>
