<svg width="26" height="67" viewBox="0 0 26 67" fill="none" xmlns="http://www.w3.org/2000/svg">
<path d="M21.2284 62.5729C14.9584 71.1329 5.79844 65.2429 3.21844 56.8329C-0.461556 44.8429 -2.55156 13.0529 5.83844 3.17289C9.59844 -1.24711 17.4684 -1.05712 20.8384 3.79288C22.0984 5.60288 23.8684 13.1929 24.3284 15.5929C26.3184 26.0329 27.4484 54.1029 21.2384 62.5829L21.2284 62.5729ZM7.85844 18.2529C8.30844 17.7829 8.86844 13.1329 9.16844 11.9229C9.53844 10.4429 11.8184 7.06293 9.17844 6.84293C6.53844 6.62293 4.04844 16.1629 5.79844 18.2529C6.19844 18.7329 7.42844 18.7029 7.85844 18.2529ZM5.96844 21.7529C1.99844 22.9229 8.62844 29.3429 7.22844 21.8529C6.87844 21.6029 6.37844 21.6329 5.96844 21.7529Z" fill="#E9549D"/>
<path d="M7.85839 18.253C7.42839 18.703 6.19839 18.723 5.79839 18.253C4.05839 16.163 6.51839 6.62298 9.17839 6.84298C11.8384 7.06298 9.53839 10.4429 9.16839 11.9229C8.86839 13.1329 8.29839 17.783 7.85839 18.253Z" fill="white"/>
<path d="M5.96834 21.7528C6.37834 21.6328 6.87835 21.6029 7.22835 21.8529C8.62835 29.3329 1.99834 22.9128 5.96834 21.7528Z" fill="white"/>
</svg>
