<svg width="20" height="62" viewBox="0 0 20 62" fill="none" xmlns="http://www.w3.org/2000/svg">
<path d="M7.65991 60.19C6.88991 60.19 6.67993 59.98 6.67993 59.21V7.57999C6.67993 7.31999 6.75994 7.11999 6.93994 6.93999C7.05994 6.81999 7.24991 6.67999 7.65991 6.67999H17.9699C18.3799 6.67999 18.5699 6.81999 18.6899 6.93999C18.8699 7.11999 18.9499 7.31999 18.9499 7.57999V59.21C18.9499 59.98 18.7399 60.19 17.9699 60.19H7.65991Z" fill="#FC0B50"/>
<path d="M17.9499 7.66998V59.19H7.66992V7.66998H17.9499ZM17.9699 5.66998H7.65991C7.07991 5.66998 6.59992 5.85998 6.22992 6.22998C5.85992 6.59998 5.66992 7.04999 5.66992 7.57999V59.21C5.66992 60.53 6.32993 61.19 7.64993 61.19H17.9599C19.2799 61.19 19.9399 60.53 19.9399 59.21V7.57999C19.9399 7.04999 19.7499 6.59998 19.3799 6.22998C19.0099 5.85998 18.5299 5.66998 17.9499 5.66998H17.9699Z" fill="#231F20"/>
<path d="M7.37988 59.91C6.60988 59.91 6.3999 59.7 6.3999 58.93V7.30002C6.3999 7.04002 6.47988 6.84002 6.65988 6.66002C6.77988 6.54002 6.96988 6.40002 7.37988 6.40002H17.6899C18.0999 6.40002 18.2899 6.54002 18.4099 6.66002C18.5899 6.84002 18.6699 7.04002 18.6699 7.30002V58.93C18.6699 59.7 18.4599 59.91 17.6899 59.91H7.37988Z" fill="#FC0B50"/>
<path d="M17.6699 7.39001V58.91H7.38989V7.39001H17.6699ZM17.6899 5.39001H7.37988C6.79988 5.39001 6.31989 5.58001 5.94989 5.95001C5.57989 6.32001 5.38989 6.77002 5.38989 7.30002V58.93C5.38989 60.25 6.0499 60.91 7.3699 60.91H17.6799C18.9999 60.91 19.6599 60.25 19.6599 58.93V7.30002C19.6599 6.77002 19.4699 6.32001 19.0999 5.95001C18.7299 5.58001 18.2499 5.39001 17.6699 5.39001H17.6899Z" fill="#231F20"/>
<path d="M7.09012 59.63C6.32012 59.63 6.11011 59.42 6.11011 58.65V7.01999C6.11011 6.75999 6.19012 6.55999 6.37012 6.37999C6.49012 6.25999 6.68012 6.12 7.09012 6.12H17.4001C17.8101 6.12 18.0001 6.25999 18.1201 6.37999C18.3001 6.55999 18.3801 6.75999 18.3801 7.01999V58.65C18.3801 59.42 18.1701 59.63 17.4001 59.63H7.09012Z" fill="#FC0B50"/>
<path d="M17.3899 7.10999V58.63H7.10986V7.10999H17.3899ZM17.3999 5.10999H7.08987C6.50987 5.10999 6.02985 5.29998 5.65985 5.66998C5.28985 6.03998 5.09985 6.48999 5.09985 7.01999V58.65C5.09985 59.97 5.75986 60.63 7.07986 60.63H17.3899C18.7099 60.63 19.3699 59.97 19.3699 58.65V7.01999C19.3699 6.48999 19.1799 6.03998 18.8099 5.66998C18.4399 5.29998 17.9599 5.10999 17.3799 5.10999H17.3999Z" fill="#231F20"/>
<path d="M6.81009 59.34C6.04009 59.34 5.83008 59.13 5.83008 58.36V6.73001C5.83008 6.47001 5.91009 6.27001 6.09009 6.09001C6.21009 5.97001 6.40009 5.83002 6.81009 5.83002H17.1201C17.5301 5.83002 17.7201 5.97001 17.8401 6.09001C18.0201 6.27001 18.1001 6.47001 18.1001 6.73001V58.36C18.1001 59.13 17.8901 59.34 17.1201 59.34H6.81009Z" fill="#FC0B50"/>
<path d="M17.1001 6.82001V58.34H6.82007V6.82001H17.1001ZM17.1201 4.82001H6.81009C6.23009 4.82001 5.75007 5.01 5.38007 5.38C5.01007 5.75 4.82007 6.2 4.82007 6.73V58.36C4.82007 59.68 5.48008 60.34 6.80008 60.34H17.1101C18.4301 60.34 19.0901 59.68 19.0901 58.36V6.73C19.0901 6.2 18.9001 5.75 18.5301 5.38C18.1601 5.01 17.6801 4.82001 17.1001 4.82001H17.1201Z" fill="#231F20"/>
<path d="M6.53006 59.06C5.76006 59.06 5.55005 58.85 5.55005 58.08V6.44998C5.55005 6.18998 5.63006 5.98998 5.81006 5.80998C5.93006 5.68998 6.12006 5.54999 6.53006 5.54999H16.8401C17.2501 5.54999 17.4401 5.68998 17.5601 5.80998C17.7401 5.98998 17.82 6.18998 17.82 6.44998V58.08C17.82 58.85 17.6101 59.06 16.8401 59.06H6.53006Z" fill="#FC0B50"/>
<path d="M16.82 6.53998V58.06H6.54004V6.53998H16.82ZM16.8401 4.53998H6.53006C5.95006 4.53998 5.47004 4.72998 5.10004 5.09998C4.73004 5.46998 4.54004 5.91997 4.54004 6.44997V58.08C4.54004 59.4 5.20005 60.06 6.52005 60.06H16.83C18.15 60.06 18.8101 59.4 18.8101 58.08V6.44997C18.8101 5.91997 18.6201 5.46998 18.2501 5.09998C17.8801 4.72998 17.4 4.53998 16.82 4.53998H16.8401Z" fill="#231F20"/>
<path d="M6.24002 58.78C5.47002 58.78 5.26001 58.57 5.26001 57.8V6.17001C5.26001 5.91001 5.34002 5.71001 5.52002 5.53001C5.64002 5.41001 5.83002 5.27002 6.24002 5.27002H16.55C16.96 5.27002 17.15 5.41001 17.27 5.53001C17.45 5.71001 17.53 5.91001 17.53 6.17001V57.8C17.53 58.57 17.32 58.78 16.55 58.78H6.24002Z" fill="#FC0B50"/>
<path d="M16.54 6.26001V57.78H6.25998V6.26001H16.54ZM16.55 4.26001H6.23999C5.65999 4.26001 5.18 4.45001 4.81 4.82001C4.44 5.19001 4.25 5.64 4.25 6.17V57.8C4.25 59.12 4.90998 59.78 6.22998 59.78H16.54C17.86 59.78 18.52 59.12 18.52 57.8V6.17C18.52 5.64 18.33 5.19001 17.96 4.82001C17.59 4.45001 17.11 4.26001 16.53 4.26001H16.55Z" fill="#231F20"/>
<path d="M5.95999 58.49C5.18999 58.49 4.97998 58.28 4.97998 57.51V5.87999C4.97998 5.61999 5.05999 5.41999 5.23999 5.23999C5.35999 5.11999 5.54999 4.97998 5.95999 4.97998H16.27C16.68 4.97998 16.87 5.11999 16.99 5.23999C17.17 5.41999 17.25 5.61999 17.25 5.87999V57.51C17.25 58.28 17.04 58.49 16.27 58.49H5.95999Z" fill="#FC0B50"/>
<path d="M16.25 5.97003V57.49H5.96997V5.97003H16.25ZM16.27 3.97003H5.95996C5.37996 3.97003 4.89997 4.16003 4.52997 4.53003C4.15997 4.90003 3.96997 5.35004 3.96997 5.88004V57.51C3.96997 58.83 4.62995 59.49 5.94995 59.49H16.2599C17.5799 59.49 18.24 58.83 18.24 57.51V5.88004C18.24 5.35004 18.05 4.90003 17.68 4.53003C17.31 4.16003 16.83 3.97003 16.25 3.97003H16.27Z" fill="#231F20"/>
<path d="M5.67996 58.21C4.90996 58.21 4.69995 58 4.69995 57.23V5.60002C4.69995 5.34002 4.77996 5.14002 4.95996 4.96002C5.07996 4.84002 5.26996 4.70001 5.67996 4.70001H15.99C16.4 4.70001 16.59 4.84002 16.71 4.96002C16.89 5.14002 16.97 5.34002 16.97 5.60002V57.23C16.97 58 16.76 58.21 15.99 58.21H5.67996Z" fill="#FC0B50"/>
<path d="M15.9699 5.69V57.21H5.68994V5.69H15.9699ZM15.9899 3.69H5.67993C5.09993 3.69 4.61994 3.88 4.24994 4.25C3.87994 4.62 3.68994 5.07001 3.68994 5.60001V57.23C3.68994 58.55 4.34992 59.21 5.66992 59.21H15.9799C17.2999 59.21 17.9599 58.55 17.9599 57.23V5.60001C17.9599 5.07001 17.7699 4.62 17.3999 4.25C17.0299 3.88 16.5499 3.69 15.9699 3.69H15.9899Z" fill="#231F20"/>
<path d="M5.38992 57.93C4.61992 57.93 4.40991 57.72 4.40991 56.95V5.31999C4.40991 5.05999 4.48992 4.85999 4.66992 4.67999C4.78992 4.55999 4.97992 4.41998 5.38992 4.41998H15.6999C16.1099 4.41998 16.2999 4.55999 16.4199 4.67999C16.5999 4.85999 16.6799 5.05999 16.6799 5.31999V56.95C16.6799 57.72 16.4699 57.93 15.6999 57.93H5.38992Z" fill="#FC0B50"/>
<path d="M15.6899 5.40997V56.93H5.40988V5.40997H15.6899ZM15.6999 3.40997H5.38989C4.80989 3.40997 4.3299 3.59997 3.9599 3.96997C3.5899 4.33997 3.3999 4.78998 3.3999 5.31998V56.95C3.3999 58.27 4.05988 58.93 5.37988 58.93H15.6899C17.0099 58.93 17.6699 58.27 17.6699 56.95V5.31998C17.6699 4.78998 17.4799 4.33997 17.1099 3.96997C16.7399 3.59997 16.2599 3.40997 15.6799 3.40997H15.6999Z" fill="#231F20"/>
<path d="M5.10989 57.64C4.33989 57.64 4.12988 57.43 4.12988 56.66V5.03C4.12988 4.77 4.20989 4.57 4.38989 4.39C4.50989 4.27 4.69989 4.13 5.10989 4.13H15.4199C15.8299 4.13 16.0199 4.27 16.1399 4.39C16.3199 4.57 16.3999 4.77 16.3999 5.03V56.66C16.3999 57.43 16.1899 57.64 15.4199 57.64H5.10989Z" fill="#FC0B50"/>
<path d="M15.3999 5.12V56.64H5.11987V5.12H15.3999ZM15.4199 3.12H5.10986C4.52986 3.12 4.04987 3.30999 3.67987 3.67999C3.30987 4.04999 3.11987 4.49998 3.11987 5.02998V56.66C3.11987 57.98 3.77985 58.64 5.09985 58.64H15.4099C16.7299 58.64 17.3899 57.98 17.3899 56.66V5.02998C17.3899 4.49998 17.1999 4.04999 16.8299 3.67999C16.4599 3.30999 15.9799 3.12 15.3999 3.12H15.4199Z" fill="#231F20"/>
<path d="M4.82986 57.36C4.05986 57.36 3.84985 57.15 3.84985 56.38V4.75003C3.84985 4.49003 3.92986 4.29003 4.10986 4.11003C4.22986 3.99003 4.41986 3.85004 4.82986 3.85004H15.1399C15.5499 3.85004 15.7399 3.99003 15.8599 4.11003C16.0399 4.29003 16.1199 4.49003 16.1199 4.75003V56.38C16.1199 57.15 15.9099 57.36 15.1399 57.36H4.82986Z" fill="#FC0B50"/>
<path d="M15.1201 4.84003V56.36H4.84009V4.84003H15.1201ZM15.1401 2.84003H4.83008C4.25008 2.84003 3.77009 3.03004 3.40009 3.40004C3.03009 3.77004 2.84009 4.22003 2.84009 4.75003V56.38C2.84009 57.7 3.50007 58.36 4.82007 58.36H15.1301C16.4501 58.36 17.1101 57.7 17.1101 56.38V4.75003C17.1101 4.22003 16.9201 3.77004 16.5501 3.40004C16.1801 3.03004 15.7001 2.84003 15.1201 2.84003H15.1401Z" fill="#231F20"/>
<path d="M4.54004 57.08C3.77004 57.08 3.56006 56.87 3.56006 56.1V4.47C3.56006 4.21 3.64004 4.01 3.82004 3.83C3.94004 3.71 4.13004 3.57001 4.54004 3.57001H14.85C15.26 3.57001 15.45 3.71 15.57 3.83C15.75 4.01 15.83 4.21 15.83 4.47V56.1C15.83 56.87 15.62 57.08 14.85 57.08H4.54004Z" fill="#FC0B50"/>
<path d="M14.8401 4.56V56.08H4.56006V4.56H14.8401ZM14.85 2.56H4.54004C3.96004 2.56 3.48005 2.75001 3.11005 3.12001C2.74005 3.49001 2.55005 3.94 2.55005 4.47V56.1C2.55005 57.42 3.21006 58.08 4.53006 58.08H14.8401C16.1601 58.08 16.82 57.42 16.82 56.1V4.47C16.82 3.94 16.63 3.49001 16.26 3.12001C15.89 2.75001 15.41 2.56 14.83 2.56H14.85Z" fill="#231F20"/>
<path d="M4.26001 56.79C3.49001 56.79 3.28003 56.58 3.28003 55.81V4.17998C3.28003 3.91998 3.36001 3.71998 3.54001 3.53998C3.66001 3.41998 3.85001 3.27997 4.26001 3.27997H14.57C14.98 3.27997 15.17 3.41998 15.29 3.53998C15.47 3.71998 15.55 3.91998 15.55 4.17998V55.81C15.55 56.58 15.34 56.79 14.57 56.79H4.26001Z" fill="#FC0B50"/>
<path d="M14.55 4.27002V55.79H4.27002V4.27002H14.55ZM14.57 2.27002H4.26001C3.68001 2.27002 3.20002 2.46002 2.83002 2.83002C2.46002 3.20002 2.27002 3.65002 2.27002 4.18002V55.81C2.27002 57.13 2.93003 57.79 4.25003 57.79H14.56C15.88 57.79 16.54 57.13 16.54 55.81V4.18002C16.54 3.65002 16.35 3.20002 15.98 2.83002C15.61 2.46002 15.13 2.27002 14.55 2.27002H14.57Z" fill="#231F20"/>
<path d="M3.97998 56.51C3.20998 56.51 3 56.3 3 55.53V3.90001C3 3.64001 3.07998 3.44001 3.25998 3.26001C3.37998 3.14001 3.56998 3 3.97998 3H14.29C14.7 3 14.89 3.14001 15.01 3.26001C15.19 3.44001 15.27 3.64001 15.27 3.90001V55.53C15.27 56.3 15.06 56.51 14.29 56.51H3.97998Z" fill="#FC0B50"/>
<path d="M14.27 3.98999V55.51H3.98999V3.98999H14.27ZM14.29 1.98999H3.97998C3.39998 1.98999 2.91999 2.17999 2.54999 2.54999C2.17999 2.91999 1.98999 3.36999 1.98999 3.89999V55.53C1.98999 56.85 2.65 57.51 3.97 57.51H14.28C15.6 57.51 16.26 56.85 16.26 55.53V3.89999C16.26 3.36999 16.07 2.91999 15.7 2.54999C15.33 2.17999 14.85 1.98999 14.27 1.98999H14.29Z" fill="#231F20"/>
<path d="M3.68997 56.23C2.91997 56.23 2.70996 56.02 2.70996 55.25V3.62004C2.70996 3.36004 2.78997 3.16003 2.96997 2.98003C3.08997 2.86003 3.27997 2.72003 3.68997 2.72003H14C14.41 2.72003 14.6 2.86003 14.72 2.98003C14.9 3.16003 14.9799 3.36004 14.9799 3.62004V55.25C14.9799 56.02 14.77 56.23 14 56.23H3.68997Z" fill="#FC0B50"/>
<path d="M13.99 3.70001V55.22H3.70996V3.70001H13.99ZM14 1.70001H3.68997C3.10997 1.70001 2.62995 1.89003 2.25995 2.26003C1.88995 2.63003 1.69995 3.08002 1.69995 3.61002V55.24C1.69995 56.56 2.35996 57.22 3.67996 57.22H13.99C15.31 57.22 15.97 56.56 15.97 55.24V3.61002C15.97 3.08002 15.7799 2.63003 15.4099 2.26003C15.0399 1.89003 14.5599 1.70001 13.9799 1.70001H14Z" fill="#231F20"/>
<path d="M3.40991 55.94C2.63991 55.94 2.42993 55.73 2.42993 54.96V3.32999C2.42993 3.06999 2.50994 2.86999 2.68994 2.68999C2.80994 2.56999 2.99991 2.42999 3.40991 2.42999H13.7199C14.1299 2.42999 14.3199 2.56999 14.4399 2.68999C14.6199 2.86999 14.6999 3.06999 14.6999 3.32999V54.96C14.6999 55.73 14.4899 55.94 13.7199 55.94H3.40991Z" fill="#FC0B50"/>
<path d="M13.6999 3.41998V54.94H3.41992V3.41998H13.6999ZM13.7199 1.41998H3.40991C2.82991 1.41998 2.34992 1.60998 1.97992 1.97998C1.60992 2.34998 1.41992 2.79999 1.41992 3.32999V54.96C1.41992 56.28 2.07993 56.94 3.39993 56.94H13.7099C15.0299 56.94 15.6899 56.28 15.6899 54.96V3.32999C15.6899 2.79999 15.4999 2.34998 15.1299 1.97998C14.7599 1.60998 14.2799 1.41998 13.6999 1.41998H13.7199Z" fill="#231F20"/>
<path d="M3.12988 55.66C2.35988 55.66 2.1499 55.45 2.1499 54.68V3.05002C2.1499 2.79002 2.22988 2.59002 2.40988 2.41002C2.52988 2.29002 2.71988 2.15002 3.12988 2.15002H13.4399C13.8499 2.15002 14.0399 2.29002 14.1599 2.41002C14.3399 2.59002 14.4199 2.79002 14.4199 3.05002V54.68C14.4199 55.45 14.2099 55.66 13.4399 55.66H3.12988Z" fill="#FC0B50"/>
<path d="M13.4199 3.14001V54.66H3.13989V3.14001H13.4199ZM13.4399 1.14001H3.12988C2.54988 1.14001 2.06989 1.33001 1.69989 1.70001C1.32989 2.07001 1.13989 2.52002 1.13989 3.05002V54.68C1.13989 56 1.7999 56.66 3.1199 56.66H13.4299C14.7499 56.66 15.4099 56 15.4099 54.68V3.05002C15.4099 2.52002 15.2199 2.07001 14.8499 1.70001C14.4799 1.33001 13.9999 1.14001 13.4199 1.14001H13.4399Z" fill="#231F20"/>
<path d="M2.84012 55.38C2.07012 55.38 1.86011 55.17 1.86011 54.4V2.76999C1.86011 2.50999 1.94012 2.30999 2.12012 2.12999C2.24012 2.00999 2.43012 1.87 2.84012 1.87H13.1501C13.5601 1.87 13.7501 2.00999 13.8701 2.12999C14.0501 2.30999 14.1301 2.50999 14.1301 2.76999V54.4C14.1301 55.17 13.9201 55.38 13.1501 55.38H2.84012Z" fill="#FC0B50"/>
<path d="M13.1399 2.85004V54.37H2.85986V2.85004H13.1399ZM13.1499 0.850037H2.83987C2.25987 0.850037 1.77985 1.04003 1.40985 1.41003C1.03985 1.78003 0.849854 2.23004 0.849854 2.76004V54.39C0.849854 55.71 1.50986 56.37 2.82986 56.37H13.1399C14.4599 56.37 15.1199 55.71 15.1199 54.39V2.76004C15.1199 2.23004 14.9299 1.78003 14.5599 1.41003C14.1899 1.04003 13.7099 0.850037 13.1299 0.850037H13.1499Z" fill="#231F20"/>
<path d="M2.56009 55.09C1.79009 55.09 1.58008 54.88 1.58008 54.11V2.48001C1.58008 2.22001 1.66009 2.02001 1.84009 1.84001C1.96009 1.72001 2.15009 1.58002 2.56009 1.58002H12.8701C13.2801 1.58002 13.4701 1.72001 13.5901 1.84001C13.7701 2.02001 13.8501 2.22001 13.8501 2.48001V54.11C13.8501 54.88 13.6401 55.09 12.8701 55.09H2.56009Z" fill="#FC0B50"/>
<path d="M12.8501 2.57001V54.09H2.57007V2.57001H12.8501ZM12.8701 0.570007H2.56009C1.98009 0.570007 1.50007 0.760005 1.13007 1.13C0.760066 1.5 0.570068 1.95 0.570068 2.48V54.11C0.570068 55.43 1.23008 56.09 2.55008 56.09H12.8601C14.1801 56.09 14.8401 55.43 14.8401 54.11V2.48C14.8401 1.95 14.6501 1.5 14.2801 1.13C13.9101 0.760005 13.4301 0.570007 12.8501 0.570007H12.8701Z" fill="#231F20"/>
<path d="M2.27005 54.81C1.50005 54.81 1.29004 54.6 1.29004 53.83V2.19998C1.29004 1.93998 1.37005 1.73998 1.55005 1.55998C1.67005 1.43998 1.86005 1.29999 2.27005 1.29999H12.58C12.99 1.29999 13.18 1.43998 13.3 1.55998C13.48 1.73998 13.5601 1.93998 13.5601 2.19998V53.83C13.5601 54.6 13.35 54.81 12.58 54.81H2.27005Z" fill="#FC0B50"/>
<path d="M12.57 2.28998V53.81H2.29004V2.28998H12.57ZM12.5901 0.289978H2.28006C1.70006 0.289978 1.22004 0.479976 0.850037 0.849976C0.480037 1.21998 0.290039 1.66997 0.290039 2.19997V53.83C0.290039 55.15 0.95005 55.81 2.27005 55.81H12.58C13.9 55.81 14.5601 55.15 14.5601 53.83V2.19997C14.5601 1.66997 14.3701 1.21998 14.0001 0.849976C13.6301 0.479976 13.15 0.289978 12.57 0.289978H12.5901Z" fill="#231F20"/>
<path d="M1.99002 54.53C1.22002 54.53 1.01001 54.32 1.01001 53.55V1.92001C1.01001 1.66001 1.09002 1.46001 1.27002 1.28001C1.39002 1.16001 1.58002 1.02002 1.99002 1.02002H12.3C12.71 1.02002 12.9 1.16001 13.02 1.28001C13.2 1.46001 13.28 1.66001 13.28 1.92001V53.55C13.28 54.32 13.07 54.53 12.3 54.53H1.99002Z" fill="#FC0B50"/>
<path d="M12.29 2V53.52H2.00998V2H12.29ZM12.3 0H1.98999C1.40999 0 0.929998 0.189998 0.559998 0.559998C0.189998 0.929998 0 1.38 0 1.91V53.54C0 54.86 0.65998 55.52 1.97998 55.52H12.29C13.61 55.52 14.27 54.86 14.27 53.54V1.91C14.27 1.38 14.08 0.929998 13.71 0.559998C13.34 0.189998 12.86 0 12.28 0H12.3Z" fill="#231F20"/>
</svg>
