<svg width="44" height="42" viewBox="0 0 44 42" fill="none" xmlns="http://www.w3.org/2000/svg">
<path d="M6.39409 23.29C6.39409 22.37 6.3241 21.66 6.1941 21.17C6.0541 20.68 5.9941 19.89 5.9941 18.81C5.9941 17.24 5.9441 16.39 5.8341 16.29C5.7241 16.18 5.61409 14.28 5.50409 10.59C5.45409 7.82003 5.3941 6.17003 5.3441 5.62003C5.2941 5.08003 5.15409 4.70001 4.93409 4.48001C4.71409 4.21001 4.35409 4.05002 3.83409 3.99002C3.31409 3.94002 3.00409 4.02001 2.89409 4.23001C2.78409 4.34001 2.5441 4.39001 2.1641 4.39001C1.7241 4.39001 1.5141 4.34001 1.5141 4.23001C1.5141 4.07001 1.3541 3.99002 1.0241 3.99002C0.644097 3.99002 0.454098 3.88 0.454098 3.66C0.454098 3.44 0.374092 3.33002 0.214092 3.33002C0.104092 3.33002 0.0340952 3.22 0.0140952 3C-0.0159048 2.78 0.00409609 2.52001 0.0540961 2.23001C0.104096 1.93001 0.184094 1.70001 0.294094 1.54001C0.724094 0.780009 1.2141 0.400024 1.7641 0.400024C2.0941 0.400024 2.3341 0.320004 2.4941 0.160004C2.5441 0.0500037 5.6141 0 11.6941 0C17.7741 0 20.7641 0.0500037 20.8141 0.160004C20.8641 0.210004 21.1941 0.300024 21.7941 0.400024C23.0441 0.560024 23.6641 1.08001 23.6641 1.95001C23.6641 2.49001 23.3941 3.04002 22.8541 3.58002C22.4741 3.96002 22.1741 4.19002 21.9541 4.27002C21.7341 4.35002 21.2241 4.39001 20.4041 4.39001C19.3141 4.39001 18.6441 4.58002 18.3641 4.96002C18.0341 5.40002 17.9241 5.69002 18.0341 5.86002C18.0341 5.91002 18.1141 8.02001 18.2741 12.17C18.4341 16.32 18.5441 18.4 18.6041 18.4C18.7141 18.51 18.7641 20.49 18.7641 24.34C18.7641 28.19 18.8141 30.29 18.9241 30.61C18.9241 30.66 19.0541 31.18 19.3341 32.16C19.6041 33.14 19.7941 33.68 19.9041 33.79C20.0641 33.95 21.8841 34.12 25.3641 34.28C26.6641 34.33 27.9941 34.36 29.3541 34.36C30.1641 34.36 30.7341 34.28 31.0641 34.12C31.3341 33.96 31.5541 33.74 31.7141 33.47C31.8241 33.2 32.3641 32.17 33.3441 30.38C33.3441 30.33 33.6541 29.91 34.2841 29.12C34.9041 28.33 35.2241 27.86 35.2241 27.69C35.2241 27.64 35.3141 27.47 35.5141 27.2C35.7041 26.93 35.9041 26.66 36.1241 26.39L36.3641 25.9C36.3141 25.85 36.3241 25.79 36.4041 25.74C36.4841 25.69 36.5841 25.63 36.6941 25.58C36.9141 25.42 37.0741 25.12 37.1841 24.68C37.2941 24.14 37.8941 23.59 38.9741 23.05C39.6241 22.72 40.2741 22.56 40.9241 22.56C42.0141 22.56 42.7141 23.05 43.0441 24.03C43.1541 24.57 43.2041 25.12 43.2041 25.66C43.2041 27.13 43.0441 28.05 42.7141 28.43C42.4441 28.7 42.1941 29.05 41.9841 29.49C41.9341 29.54 41.6541 29.93 41.1741 30.63C40.6841 31.34 40.4441 31.77 40.4441 31.93C40.2841 32.64 40.0941 32.99 39.8741 32.99C39.7641 32.99 39.6341 33.17 39.4641 33.52C39.3041 33.87 39.1641 34.05 39.0541 34.05C38.8941 34.05 38.8141 34.19 38.8141 34.46C38.8141 34.73 38.6341 35.26 38.2841 36.05C37.9341 36.84 37.7241 37.31 37.6741 37.47C37.6141 37.85 37.1841 38.47 36.3741 39.34C35.5641 40.21 35.0141 40.64 34.7441 40.64C34.5841 40.64 34.4141 40.72 34.2541 40.88C34.2041 40.99 33.7641 41.04 32.9541 41.04C32.1441 41.04 31.7041 40.99 31.6541 40.88C31.6041 40.72 31.3541 40.64 30.9241 40.64C30.5941 40.64 30.3841 40.56 30.2741 40.4C30.2741 40.24 29.2141 40.16 27.0941 40.16C24.9741 40.16 23.8341 40.24 23.6741 40.4C23.5141 40.56 23.1041 40.64 22.4541 40.64C21.8041 40.64 21.3941 40.72 21.2341 40.88C21.0741 41.04 18.9841 41.12 14.9641 41.12C10.9441 41.12 8.9341 41.04 8.7741 40.88C8.6141 40.72 8.3141 40.64 7.8741 40.64C7.5441 40.64 7.33409 40.59 7.22409 40.48C7.17409 40.43 6.4241 40.3 4.9841 40.11C3.5441 39.92 2.7941 39.8 2.7441 39.74C2.6341 39.63 2.47409 39.58 2.25409 39.58C1.92409 39.58 1.6541 39.44 1.4441 39.17C1.2241 38.9 1.11409 38.6 1.11409 38.27C1.11409 37.83 1.27409 37.48 1.60409 37.21C1.87409 36.94 2.9841 36.34 4.9441 35.42C5.2141 35.26 5.4341 35.09 5.5941 34.93C5.7541 34.77 5.90409 34.59 6.04409 34.4C6.17409 34.21 6.3041 34.06 6.4141 33.95C6.5741 33.9 6.65409 33.57 6.65409 32.97L6.8141 31.99C6.9741 31.34 7.0541 30.88 7.0541 30.61C7.0541 30.34 7.00409 30.2 6.89409 30.2C6.73409 30.2 6.65409 29.39 6.65409 27.76C6.65409 26.73 6.61409 25.94 6.53409 25.4C6.45409 24.86 6.4141 24.15 6.4141 23.28L6.39409 23.29Z" fill="black"/>
</svg>
