<svg width="47" height="62" viewBox="0 0 47 62" fill="none" xmlns="http://www.w3.org/2000/svg">
<path d="M7.63991 60.19C7.22991 60.19 7.03991 60.05 6.91991 59.93C6.73991 59.75 6.65991 59.55 6.65991 59.29V7.65999C6.65991 6.88999 6.86991 6.67999 7.63991 6.67999H17.9499C18.7199 6.67999 18.9299 6.88999 18.9299 7.65999V48.11C18.9299 48.66 19.3799 49.11 19.9299 49.11H44.9899C45.7599 49.11 45.9699 49.32 45.9699 50.09V59.21C45.9699 59.98 45.7599 60.19 44.9899 60.19H7.63991Z" fill="#FC0B50"/>
<path d="M17.9399 7.66998V48.1C17.9399 49.2 18.8399 50.1 19.9399 50.1H44.9899V59.19H7.65992V7.66998H17.9399ZM17.9599 5.66998H7.64992C6.32992 5.66998 5.66992 6.32999 5.66992 7.64999V59.28C5.66992 59.81 5.84992 60.26 6.22992 60.63C6.59992 61 7.07992 61.19 7.65992 61.19H45.0199C46.3399 61.19 46.9999 60.53 46.9999 59.21V50.09C46.9999 48.77 46.3399 48.11 45.0199 48.11H19.9599V7.65999C19.9599 6.33999 19.2999 5.67999 17.9799 5.67999L17.9599 5.66998Z" fill="#231F20"/>
<path d="M7.35988 59.91C6.94988 59.91 6.75988 59.77 6.63988 59.65C6.45988 59.47 6.37988 59.27 6.37988 59.01V7.38002C6.37988 6.61002 6.58988 6.40002 7.35988 6.40002H17.6699C18.4399 6.40002 18.6499 6.61002 18.6499 7.38002V47.83C18.6499 48.38 19.0999 48.83 19.6499 48.83H44.7099C45.4799 48.83 45.6899 49.04 45.6899 49.81V58.93C45.6899 59.7 45.4799 59.91 44.7099 59.91H7.35988Z" fill="#FC0B50"/>
<path d="M17.6599 7.39001V47.82C17.6599 48.92 18.5599 49.82 19.6599 49.82H44.7099V58.91H7.37988V7.39001H17.6599ZM17.6699 5.39001H7.35988C6.03988 5.39001 5.37988 6.05003 5.37988 7.37003V59C5.37988 59.53 5.55988 59.98 5.93988 60.35C6.30988 60.72 6.78988 60.91 7.36988 60.91H44.7299C46.0499 60.91 46.7099 60.25 46.7099 58.93V49.81C46.7099 48.49 46.0499 47.83 44.7299 47.83H19.6699V7.38002C19.6699 6.06002 19.0099 5.40002 17.6899 5.40002L17.6699 5.39001Z" fill="#231F20"/>
<path d="M7.0801 59.63C6.6701 59.63 6.4801 59.49 6.3601 59.37C6.1801 59.19 6.1001 58.99 6.1001 58.73V7.09999C6.1001 6.32999 6.3101 6.12 7.0801 6.12H17.3901C18.1601 6.12 18.3701 6.32999 18.3701 7.09999V47.55C18.3701 48.1 18.8201 48.55 19.3701 48.55H44.4301C45.2001 48.55 45.4101 48.76 45.4101 49.53V58.65C45.4101 59.42 45.2001 59.63 44.4301 59.63H7.0801Z" fill="#FC0B50"/>
<path d="M17.3701 7.10999V47.54C17.3701 48.64 18.2701 49.54 19.3701 49.54H44.4201V58.63H7.0901V7.10999H17.3701ZM17.3901 5.10999H7.0801C5.7601 5.10999 5.1001 5.76998 5.1001 7.08998V58.72C5.1001 59.25 5.2801 59.7 5.6601 60.07C6.0301 60.44 6.5101 60.63 7.0901 60.63H44.4501C45.7701 60.63 46.4301 59.97 46.4301 58.65V49.53C46.4301 48.21 45.7701 47.55 44.4501 47.55H19.3901V7.09999C19.3901 5.77999 18.7301 5.12 17.4101 5.12L17.3901 5.10999Z" fill="#231F20"/>
<path d="M6.79006 59.34C6.38006 59.34 6.19006 59.2 6.07006 59.08C5.89006 58.9 5.81006 58.7 5.81006 58.44V6.81001C5.81006 6.04001 6.02006 5.83002 6.79006 5.83002H17.1001C17.8701 5.83002 18.0801 6.04001 18.0801 6.81001V47.26C18.0801 47.81 18.5301 48.26 19.0801 48.26H44.1401C44.9101 48.26 45.1201 48.47 45.1201 49.24V58.36C45.1201 59.13 44.9101 59.34 44.1401 59.34H6.79006Z" fill="#FC0B50"/>
<path d="M17.0901 6.82001V47.25C17.0901 48.35 17.9901 49.25 19.0901 49.25H44.1401V58.34H6.81007V6.82001H17.0901ZM17.1101 4.82001H6.80007C5.48007 4.82001 4.82007 5.48 4.82007 6.8V58.43C4.82007 58.96 5.00007 59.41 5.38007 59.78C5.75007 60.15 6.23007 60.34 6.81007 60.34H44.1701C45.4901 60.34 46.1501 59.68 46.1501 58.36V49.24C46.1501 47.92 45.4901 47.26 44.1701 47.26H19.1101V6.81C19.1101 5.49 18.4501 4.83 17.1301 4.83L17.1101 4.82001Z" fill="#231F20"/>
<path d="M6.51003 59.06C6.10003 59.06 5.91003 58.92 5.79003 58.8C5.61003 58.62 5.53003 58.42 5.53003 58.16V6.52998C5.53003 5.75998 5.74003 5.54999 6.51003 5.54999H16.82C17.59 5.54999 17.8 5.75998 17.8 6.52998V46.98C17.8 47.53 18.25 47.98 18.8 47.98H43.86C44.63 47.98 44.84 48.19 44.84 48.96V58.08C44.84 58.85 44.63 59.06 43.86 59.06H6.51003Z" fill="#FC0B50"/>
<path d="M16.8 6.53998V46.97C16.8 48.07 17.7 48.97 18.8 48.97H43.85V58.06H6.53003V6.53998H16.81M16.82 4.53998H6.51003C5.19003 4.53998 4.53003 5.19997 4.53003 6.51997V58.15C4.53003 58.68 4.71003 59.13 5.09003 59.5C5.46003 59.87 5.94003 60.06 6.52003 60.06H43.88C45.2 60.06 45.86 59.4 45.86 58.08V48.96C45.86 47.64 45.2 46.98 43.88 46.98H18.82V6.52997C18.82 5.20997 18.16 4.54997 16.84 4.54997L16.82 4.53998Z" fill="#231F20"/>
<path d="M6.23 58.78C5.82 58.78 5.63 58.64 5.51 58.52C5.33 58.34 5.25 58.14 5.25 57.88V6.25002C5.25 5.48002 5.46 5.27002 6.23 5.27002H16.54C17.31 5.27002 17.52 5.48002 17.52 6.25002V46.7C17.52 47.25 17.97 47.7 18.52 47.7H43.58C44.35 47.7 44.56 47.91 44.56 48.68V57.8C44.56 58.57 44.35 58.78 43.58 58.78H6.23Z" fill="#FC0B50"/>
<path d="M16.52 6.26001V46.69C16.52 47.79 17.42 48.69 18.52 48.69H43.57V57.78H6.24V6.26001H16.52ZM16.54 4.26001H6.23C4.91 4.26001 4.25 4.92001 4.25 6.24001V57.87C4.25 58.4 4.43 58.85 4.81 59.22C5.18 59.59 5.66 59.78 6.24 59.78H43.6C44.92 59.78 45.58 59.12 45.58 57.8V48.68C45.58 47.36 44.92 46.7 43.6 46.7H18.54V6.25C18.54 4.93 17.88 4.27 16.56 4.27L16.54 4.26001Z" fill="#231F20"/>
<path d="M5.93996 58.49C5.52996 58.49 5.33996 58.35 5.21996 58.23C5.03996 58.05 4.95996 57.85 4.95996 57.59V5.95999C4.95996 5.18999 5.16996 4.97998 5.93996 4.97998H16.25C17.02 4.97998 17.23 5.18999 17.23 5.95999V46.41C17.23 46.96 17.68 47.41 18.23 47.41H43.29C44.06 47.41 44.27 47.62 44.27 48.39V57.51C44.27 58.28 44.06 58.49 43.29 58.49H5.93996Z" fill="#FC0B50"/>
<path d="M16.24 5.97003V46.4C16.24 47.5 17.14 48.4 18.24 48.4H43.29V57.49H5.95997V5.97003H16.24ZM16.26 3.97003H5.94997C4.62997 3.97003 3.96997 4.63003 3.96997 5.95003V57.58C3.96997 58.11 4.14997 58.56 4.52997 58.93C4.89997 59.3 5.37997 59.49 5.95997 59.49H43.32C44.64 59.49 45.3 58.83 45.3 57.51V48.39C45.3 47.07 44.64 46.41 43.32 46.41H18.26V5.96004C18.26 4.64004 17.6 3.98003 16.28 3.98003L16.26 3.97003Z" fill="#231F20"/>
<path d="M5.65993 58.21C5.24993 58.21 5.05993 58.07 4.93993 57.95C4.75993 57.77 4.67993 57.57 4.67993 57.31V5.68002C4.67993 4.91002 4.88993 4.70001 5.65993 4.70001H15.9699C16.7399 4.70001 16.9499 4.91002 16.9499 5.68002V46.13C16.9499 46.68 17.3999 47.13 17.9499 47.13H43.0099C43.7799 47.13 43.9899 47.34 43.9899 48.11V57.23C43.9899 58 43.7799 58.21 43.0099 58.21H5.65993Z" fill="#FC0B50"/>
<path d="M15.9499 5.69V46.12C15.9499 47.22 16.8499 48.12 17.9499 48.12H42.9999V57.21H5.67993V5.69H15.9599M15.9699 3.69H5.65993C4.33993 3.69 3.67993 4.35 3.67993 5.67V57.3C3.67993 57.83 3.85993 58.28 4.23993 58.65C4.60993 59.02 5.08993 59.21 5.66993 59.21H43.0299C44.3499 59.21 45.0099 58.55 45.0099 57.23V48.11C45.0099 46.79 44.3499 46.13 43.0299 46.13H17.9699V5.68001C17.9699 4.36001 17.3099 3.7 15.9899 3.7L15.9699 3.69Z" fill="#231F20"/>
<path d="M5.3799 57.93C4.9699 57.93 4.7799 57.79 4.6599 57.67C4.4799 57.49 4.3999 57.29 4.3999 57.03V5.39999C4.3999 4.62999 4.6099 4.41998 5.3799 4.41998H15.6899C16.4599 4.41998 16.6699 4.62999 16.6699 5.39999V45.85C16.6699 46.4 17.1199 46.85 17.6699 46.85H42.7299C43.4999 46.85 43.7099 47.06 43.7099 47.83V56.95C43.7099 57.72 43.4999 57.93 42.7299 57.93H5.3799Z" fill="#FC0B50"/>
<path d="M15.6699 5.40997V45.84C15.6699 46.94 16.5699 47.84 17.6699 47.84H42.7199V56.93H5.3899V5.40997H15.6699ZM15.6899 3.40997H5.3799C4.0599 3.40997 3.3999 4.06997 3.3999 5.38997V57.02C3.3999 57.55 3.5799 58 3.9599 58.37C4.3299 58.74 4.8099 58.93 5.3899 58.93H42.7499C44.0699 58.93 44.7299 58.27 44.7299 56.95V47.83C44.7299 46.51 44.0699 45.85 42.7499 45.85H17.6899V5.39998C17.6899 4.07998 17.0299 3.41997 15.7099 3.41997L15.6899 3.40997Z" fill="#231F20"/>
<path d="M5.09011 57.64C4.68011 57.64 4.49011 57.5 4.37011 57.38C4.19011 57.2 4.11011 57 4.11011 56.74V5.11C4.11011 4.34 4.32011 4.13 5.09011 4.13H15.4001C16.1701 4.13 16.3801 4.34 16.3801 5.11V45.56C16.3801 46.11 16.8301 46.56 17.3801 46.56H42.4401C43.2101 46.56 43.4201 46.77 43.4201 47.54V56.66C43.4201 57.43 43.2101 57.64 42.4401 57.64H5.09011Z" fill="#FC0B50"/>
<path d="M15.3901 5.12V45.55C15.3901 46.65 16.2901 47.55 17.3901 47.55H42.4401V56.64H5.11011V5.12H15.3901ZM15.4001 3.12H5.09011C3.77011 3.12 3.11011 3.77999 3.11011 5.09999V56.73C3.11011 57.26 3.29011 57.71 3.67011 58.08C4.04011 58.45 4.52011 58.64 5.10011 58.64H42.4601C43.7801 58.64 44.4401 57.98 44.4401 56.66V47.54C44.4401 46.22 43.7801 45.56 42.4601 45.56H17.4001V5.10999C17.4001 3.78999 16.7401 3.12999 15.4201 3.12999L15.4001 3.12Z" fill="#231F20"/>
<path d="M4.81008 57.36C4.40008 57.36 4.21008 57.22 4.09008 57.1C3.91008 56.92 3.83008 56.72 3.83008 56.46V4.83003C3.83008 4.06003 4.04008 3.85004 4.81008 3.85004H15.1201C15.8901 3.85004 16.1001 4.06003 16.1001 4.83003V45.28C16.1001 45.83 16.5501 46.28 17.1001 46.28H42.1601C42.9301 46.28 43.1401 46.49 43.1401 47.26V56.38C43.1401 57.15 42.9301 57.36 42.1601 57.36H4.81008Z" fill="#FC0B50"/>
<path d="M15.1001 4.84003V45.27C15.1001 46.37 16.0001 47.27 17.1001 47.27H42.1501V56.36H4.83008V4.84003H15.1101M15.1201 2.84003H4.81008C3.49008 2.84003 2.83008 3.50004 2.83008 4.82004V56.45C2.83008 56.98 3.01008 57.43 3.39008 57.8C3.76008 58.17 4.24008 58.36 4.82008 58.36H42.1801C43.5001 58.36 44.1601 57.7 44.1601 56.38V47.26C44.1601 45.94 43.5001 45.28 42.1801 45.28H17.1201V4.83003C17.1201 3.51003 16.4601 2.85004 15.1401 2.85004L15.1201 2.84003Z" fill="#231F20"/>
<path d="M4.53005 57.08C4.12005 57.08 3.93005 56.94 3.81005 56.82C3.63005 56.64 3.55005 56.44 3.55005 56.18V4.55C3.55005 3.78 3.76005 3.57001 4.53005 3.57001H14.84C15.61 3.57001 15.8201 3.78 15.8201 4.55V45C15.8201 45.55 16.2701 46 16.8201 46H41.8801C42.6501 46 42.8601 46.21 42.8601 46.98V56.1C42.8601 56.87 42.6501 57.08 41.8801 57.08H4.53005Z" fill="#FC0B50"/>
<path d="M14.8201 4.56V44.99C14.8201 46.09 15.7201 46.99 16.8201 46.99H41.87V56.08H4.54005V4.56H14.8201ZM14.84 2.56H4.53005C3.21005 2.56 2.55005 3.22001 2.55005 4.54001V56.17C2.55005 56.7 2.73005 57.15 3.11005 57.52C3.48005 57.89 3.96005 58.08 4.54005 58.08H41.9001C43.2201 58.08 43.8801 57.42 43.8801 56.1V46.98C43.8801 45.66 43.2201 45 41.9001 45H16.84V4.55C16.84 3.23 16.18 2.57001 14.86 2.57001L14.84 2.56Z" fill="#231F20"/>
<path d="M4.24001 56.79C3.83001 56.79 3.64001 56.65 3.52001 56.53C3.34001 56.35 3.26001 56.15 3.26001 55.89V4.25998C3.26001 3.48998 3.47001 3.27997 4.24001 3.27997H14.55C15.32 3.27997 15.53 3.48998 15.53 4.25998V44.71C15.53 45.26 15.98 45.71 16.53 45.71H41.59C42.36 45.71 42.57 45.92 42.57 46.69V55.81C42.57 56.58 42.36 56.79 41.59 56.79H4.24001Z" fill="#FC0B50"/>
<path d="M14.54 4.27002V44.7C14.54 45.8 15.44 46.7 16.54 46.7H41.59V55.79H4.26001V4.27002H14.54ZM14.55 2.27002H4.24001C2.92001 2.27002 2.26001 2.93002 2.26001 4.25002V55.88C2.26001 56.41 2.44001 56.86 2.82001 57.23C3.19001 57.6 3.67001 57.79 4.25001 57.79H41.61C42.93 57.79 43.59 57.13 43.59 55.81V46.69C43.59 45.37 42.93 44.71 41.61 44.71H16.55V4.26003C16.55 2.94002 15.89 2.28001 14.57 2.28001L14.55 2.27002Z" fill="#231F20"/>
<path d="M3.95998 56.51C3.54998 56.51 3.35998 56.37 3.23998 56.25C3.05998 56.07 2.97998 55.87 2.97998 55.61V3.98C2.97998 3.21 3.18998 3 3.95998 3H14.27C15.04 3 15.25 3.21 15.25 3.98V44.43C15.25 44.98 15.7 45.43 16.25 45.43H41.31C42.08 45.43 42.29 45.64 42.29 46.41V55.53C42.29 56.3 42.08 56.51 41.31 56.51H3.95998Z" fill="#FC0B50"/>
<path d="M14.25 3.98999V44.42C14.25 45.52 15.15 46.42 16.25 46.42H41.3V55.51H3.97998V3.98999H14.26M14.27 1.98999H3.95998C2.63998 1.98999 1.97998 2.64999 1.97998 3.96999V55.6C1.97998 56.13 2.15998 56.58 2.53998 56.95C2.90998 57.32 3.38998 57.51 3.96998 57.51H41.33C42.65 57.51 43.31 56.85 43.31 55.53V46.41C43.31 45.09 42.65 44.43 41.33 44.43H16.27V3.97998C16.27 2.65998 15.61 1.99998 14.29 1.99998L14.27 1.98999Z" fill="#231F20"/>
<path d="M3.67995 56.23C3.26995 56.23 3.07995 56.09 2.95995 55.97C2.77995 55.79 2.69995 55.59 2.69995 55.33V3.70003C2.69995 2.93003 2.90995 2.72003 3.67995 2.72003H13.99C14.76 2.72003 14.97 2.93003 14.97 3.70003V44.15C14.97 44.7 15.42 45.15 15.97 45.15H41.03C41.8 45.15 42.0099 45.36 42.0099 46.13V55.25C42.0099 56.02 41.8 56.23 41.03 56.23H3.67995Z" fill="#FC0B50"/>
<path d="M13.97 3.70001V44.13C13.97 45.23 14.87 46.13 15.97 46.13H41.02V55.22H3.68995V3.70001H13.97ZM13.99 1.70001H3.67995C2.35995 1.70001 1.69995 2.36002 1.69995 3.68002V55.31C1.69995 55.84 1.87995 56.29 2.25995 56.66C2.62995 57.03 3.10995 57.22 3.68995 57.22H41.0499C42.3699 57.22 43.03 56.56 43.03 55.24V46.12C43.03 44.8 42.3699 44.14 41.0499 44.14H15.99V3.69002C15.99 2.37002 15.33 1.71002 14.01 1.71002L13.99 1.70001Z" fill="#231F20"/>
<path d="M3.38991 55.94C2.97991 55.94 2.78991 55.8 2.66991 55.68C2.48991 55.5 2.40991 55.3 2.40991 55.04V3.40999C2.40991 2.63999 2.61991 2.42999 3.38991 2.42999H13.6999C14.4699 2.42999 14.6799 2.63999 14.6799 3.40999V43.86C14.6799 44.41 15.1299 44.86 15.6799 44.86H40.7399C41.5099 44.86 41.7199 45.07 41.7199 45.84V54.96C41.7199 55.73 41.5099 55.94 40.7399 55.94H3.38991Z" fill="#FC0B50"/>
<path d="M13.6899 3.41998V43.85C13.6899 44.95 14.5899 45.85 15.6899 45.85H40.7399V54.94H3.40991V3.41998H13.6899ZM13.6999 1.41998H3.38991C2.06991 1.41998 1.40991 2.07999 1.40991 3.39999V55.03C1.40991 55.56 1.58991 56.01 1.96991 56.38C2.33991 56.75 2.81991 56.94 3.39991 56.94H40.7599C42.0799 56.94 42.7399 56.28 42.7399 54.96V45.84C42.7399 44.52 42.0799 43.86 40.7599 43.86H15.6999V3.40999C15.6999 2.08999 15.0399 1.42999 13.7199 1.42999L13.6999 1.41998Z" fill="#231F20"/>
<path d="M3.10988 55.66C2.69988 55.66 2.50988 55.52 2.38988 55.4C2.20988 55.22 2.12988 55.02 2.12988 54.76V3.13002C2.12988 2.36002 2.33988 2.15002 3.10988 2.15002H13.4199C14.1899 2.15002 14.3999 2.36002 14.3999 3.13002V43.58C14.3999 44.13 14.8499 44.58 15.3999 44.58H40.4599C41.2299 44.58 41.4399 44.79 41.4399 45.56V54.68C41.4399 55.45 41.2299 55.66 40.4599 55.66H3.10988Z" fill="#FC0B50"/>
<path d="M13.3999 3.14001V43.57C13.3999 44.67 14.2999 45.57 15.3999 45.57H40.4499V54.66H3.12988V3.14001H13.4099M13.4199 1.14001H3.10988C1.78988 1.14001 1.12988 1.80003 1.12988 3.12003V54.75C1.12988 55.28 1.30988 55.73 1.68988 56.1C2.05988 56.47 2.53988 56.66 3.11988 56.66H40.4799C41.7999 56.66 42.4599 56 42.4599 54.68V45.56C42.4599 44.24 41.7999 43.58 40.4799 43.58H15.4199V3.13002C15.4199 1.81002 14.7599 1.15002 13.4399 1.15002L13.4199 1.14001Z" fill="#231F20"/>
<path d="M2.8301 55.38C2.4201 55.38 2.2301 55.24 2.1101 55.12C1.9301 54.94 1.8501 54.74 1.8501 54.48V2.84999C1.8501 2.07999 2.0601 1.87 2.8301 1.87H13.1401C13.9101 1.87 14.1201 2.07999 14.1201 2.84999V43.3C14.1201 43.85 14.5701 44.3 15.1201 44.3H40.1801C40.9501 44.3 41.1601 44.51 41.1601 45.28V54.4C41.1601 55.17 40.9501 55.38 40.1801 55.38H2.8301Z" fill="#FC0B50"/>
<path d="M13.1201 2.85004V43.28C13.1201 44.38 14.0201 45.28 15.1201 45.28H40.1701V54.37H2.8401V2.85004H13.1201ZM13.1401 0.850037H2.8301C1.5101 0.850037 0.850098 1.51003 0.850098 2.83003V54.46C0.850098 54.99 1.0301 55.44 1.4101 55.81C1.7801 56.18 2.2601 56.37 2.8401 56.37H40.2001C41.5201 56.37 42.1801 55.71 42.1801 54.39V45.27C42.1801 43.95 41.5201 43.29 40.2001 43.29H15.1401V2.84003C15.1401 1.52003 14.4801 0.860031 13.1601 0.860031L13.1401 0.850037Z" fill="#231F20"/>
<path d="M2.54006 55.09C2.13006 55.09 1.94006 54.95 1.82006 54.83C1.64006 54.65 1.56006 54.45 1.56006 54.19V2.56001C1.56006 1.79001 1.77006 1.58002 2.54006 1.58002H12.8501C13.6201 1.58002 13.8301 1.79001 13.8301 2.56001V43.01C13.8301 43.56 14.2801 44.01 14.8301 44.01H39.8901C40.6601 44.01 40.8701 44.22 40.8701 44.99V54.11C40.8701 54.88 40.6601 55.09 39.8901 55.09H2.54006Z" fill="#FC0B50"/>
<path d="M12.8401 2.57001V43C12.8401 44.1 13.7401 45 14.8401 45H39.8901V54.09H2.56006V2.57001H12.8401ZM12.8501 0.570007H2.54006C1.22006 0.570007 0.560059 1.23 0.560059 2.55V54.18C0.560059 54.71 0.740058 55.16 1.12006 55.53C1.49006 55.9 1.97006 56.09 2.55006 56.09H39.9101C41.2301 56.09 41.8901 55.43 41.8901 54.11V44.99C41.8901 43.67 41.2301 43.01 39.9101 43.01H14.8501V2.56C14.8501 1.24 14.1901 0.580002 12.8701 0.580002L12.8501 0.570007Z" fill="#231F20"/>
<path d="M2.26003 54.81C1.85003 54.81 1.66003 54.67 1.54003 54.55C1.36003 54.37 1.28003 54.17 1.28003 53.91V2.27998C1.28003 1.50998 1.49003 1.29999 2.26003 1.29999H12.57C13.34 1.29999 13.55 1.50998 13.55 2.27998V42.73C13.55 43.28 14 43.73 14.55 43.73H39.61C40.38 43.73 40.59 43.94 40.59 44.71V53.83C40.59 54.6 40.38 54.81 39.61 54.81H2.26003Z" fill="#FC0B50"/>
<path d="M12.55 2.28998V42.72C12.55 43.82 13.45 44.72 14.55 44.72H39.6V53.81H2.28003V2.28998H12.56M12.57 0.289978H2.26003C0.940029 0.289978 0.280029 0.949974 0.280029 2.26997V53.9C0.280029 54.43 0.460029 54.88 0.840029 55.25C1.21003 55.62 1.69003 55.81 2.27003 55.81H39.63C40.95 55.81 41.61 55.15 41.61 53.83V44.71C41.61 43.39 40.95 42.73 39.63 42.73H14.57V2.27997C14.57 0.959968 13.91 0.299973 12.59 0.299973L12.57 0.289978Z" fill="#231F20"/>
<path d="M1.98 54.53C1.57 54.53 1.38 54.39 1.26 54.27C1.08 54.09 1 53.89 1 53.63V2.00002C1 1.23002 1.21 1.02002 1.98 1.02002H12.29C13.06 1.02002 13.27 1.23002 13.27 2.00002V42.45C13.27 43 13.72 43.45 14.27 43.45H39.33C40.1 43.45 40.31 43.66 40.31 44.43V53.55C40.31 54.32 40.1 54.53 39.33 54.53H1.98Z" fill="#FC0B50"/>
<path d="M12.27 2V42.43C12.27 43.53 13.17 44.43 14.27 44.43H39.32V53.52H1.99V2H12.27ZM12.29 0H1.98C0.659999 0 0 0.659996 0 1.98V53.61C0 54.14 0.179999 54.59 0.559999 54.96C0.929999 55.33 1.41 55.52 1.99 55.52H39.35C40.67 55.52 41.33 54.86 41.33 53.54V44.42C41.33 43.1 40.67 42.44 39.35 42.44H14.29V1.99001C14.29 0.670005 13.63 0.0100098 12.31 0.0100098L12.29 0Z" fill="#231F20"/>
</svg>
