<svg width="43" height="63" viewBox="0 0 43 63" fill="none" xmlns="http://www.w3.org/2000/svg">
<path d="M37.8048 53.935C38.3748 54.505 38.6648 55.205 38.6648 56.025C38.6648 56.845 38.3748 57.505 37.8048 58.095C37.2348 58.685 36.5348 58.975 35.7148 58.975H6.41483C5.59483 58.975 4.89483 58.685 4.31483 58.095C3.74483 57.505 3.45483 56.815 3.45483 56.025V6.41502C3.45483 5.58502 3.74483 4.89502 4.31483 4.31502C4.89483 3.74502 5.59483 3.45502 6.41483 3.45502C7.23483 3.45502 7.92484 3.74502 8.50484 4.31502C9.07484 4.89502 9.36484 5.58502 9.36484 6.41502V53.075H35.7148C36.5348 53.075 37.2348 53.355 37.8048 53.935Z" fill="white"/>
<path d="M6.41488 0.505005C8.05488 0.505005 9.44488 1.085 10.5949 2.245C11.7449 3.405 12.3249 4.795 12.3249 6.415V50.115H35.7149C37.3549 50.115 38.7449 50.695 39.8949 51.835C41.0449 52.985 41.6249 54.385 41.6249 56.025C41.6249 57.665 41.0449 59.025 39.8949 60.195C38.7449 61.355 37.3549 61.935 35.7149 61.935H6.41488C4.76488 61.935 3.37488 61.355 2.22488 60.195C1.07488 59.025 0.504883 57.635 0.504883 56.025V6.415C0.504883 4.795 1.07488 3.405 2.22488 2.245C3.37488 1.085 4.76488 0.505005 6.41488 0.505005ZM9.36488 6.415C9.36488 5.585 9.07488 4.89501 8.50488 4.31501C7.92488 3.74501 7.23488 3.455 6.41488 3.455C5.59488 3.455 4.89488 3.74501 4.31488 4.31501C3.74488 4.89501 3.45488 5.585 3.45488 6.415V56.025C3.45488 56.815 3.74488 57.505 4.31488 58.095C4.89488 58.685 5.59488 58.975 6.41488 58.975H35.7149C36.5349 58.975 37.2349 58.685 37.8049 58.095C38.3749 57.505 38.6649 56.815 38.6649 56.025C38.6649 55.235 38.3749 54.505 37.8049 53.935C37.2349 53.355 36.5349 53.075 35.7149 53.075H9.36488V6.415Z" fill="#DD07D8"/>
<path d="M12.3249 6.415V50.115H35.7149C37.3549 50.115 38.7449 50.695 39.8949 51.835C41.0449 52.985 41.6249 54.385 41.6249 56.025C41.6249 57.665 41.0449 59.025 39.8949 60.195C38.7449 61.355 37.3549 61.935 35.7149 61.935H6.41488C4.76488 61.935 3.37488 61.355 2.22488 60.195C1.07488 59.025 0.504883 57.635 0.504883 56.025V6.415C0.504883 4.795 1.07488 3.405 2.22488 2.245C3.37488 1.085 4.76488 0.505005 6.41488 0.505005C8.06488 0.505005 9.44488 1.085 10.5949 2.245C11.7449 3.405 12.3249 4.795 12.3249 6.415Z" stroke="#DD07D8" stroke-width="1.01" stroke-linecap="round" stroke-linejoin="round"/>
<path d="M9.36484 6.41502C9.36484 5.58502 9.07484 4.89502 8.50484 4.31502C7.92484 3.74502 7.23483 3.45502 6.41483 3.45502C5.59483 3.45502 4.89483 3.74502 4.31483 4.31502C3.74483 4.89502 3.45483 5.58502 3.45483 6.41502V56.025C3.45483 56.815 3.74483 57.505 4.31483 58.095C4.89483 58.685 5.59483 58.975 6.41483 58.975H35.7148C36.5348 58.975 37.2348 58.685 37.8048 58.095C38.3748 57.505 38.6648 56.815 38.6648 56.025C38.6648 55.235 38.3748 54.505 37.8048 53.935C37.2348 53.355 36.5348 53.075 35.7148 53.075H9.36484V6.41502Z" stroke="#DD07D8" stroke-width="1.01" stroke-linecap="round" stroke-linejoin="round"/>
</svg>
