<svg width="43" height="63" viewBox="0 0 43 63" fill="none" xmlns="http://www.w3.org/2000/svg">
<path d="M37.8148 53.935C38.3848 54.505 38.6748 55.205 38.6748 56.025C38.6748 56.845 38.3848 57.505 37.8148 58.095C37.2348 58.685 36.5348 58.975 35.7148 58.975H6.41484C5.59484 58.975 4.89484 58.685 4.32484 58.095C3.74484 57.505 3.46484 56.815 3.46484 56.025V6.41502C3.46484 5.58502 3.74484 4.89502 4.32484 4.31502C4.90484 3.73502 5.59484 3.45502 6.41484 3.45502C7.23484 3.45502 7.93484 3.74502 8.50484 4.31502C9.07484 4.88502 9.37484 5.58502 9.37484 6.41502V53.075H35.7148C36.5348 53.075 37.2348 53.355 37.8148 53.935Z" fill="white"/>
<path d="M38.6749 56.025C38.6749 55.205 38.3849 54.505 37.8149 53.935C37.2449 53.365 36.5349 53.075 35.7149 53.075H9.37488V6.415C9.37488 5.585 9.08488 4.89501 8.50488 4.31501C7.92488 3.73501 7.23488 3.455 6.41488 3.455C5.59488 3.455 4.89488 3.74501 4.32488 4.31501C3.75488 4.88501 3.46488 5.585 3.46488 6.415V56.025C3.46488 56.815 3.74488 57.505 4.32488 58.095C4.89488 58.685 5.59488 58.975 6.41488 58.975H35.7149C36.5349 58.975 37.2349 58.685 37.8149 58.095C38.3849 57.505 38.6749 56.815 38.6749 56.025ZM39.9049 51.835C41.0549 52.985 41.6249 54.385 41.6249 56.025C41.6249 57.665 41.0549 59.025 39.9049 60.195C38.7549 61.355 37.3549 61.935 35.7149 61.935H6.41488C4.77488 61.935 3.37488 61.355 2.23488 60.195C1.08488 59.025 0.504883 57.635 0.504883 56.025V6.415C0.504883 4.795 1.08488 3.405 2.23488 2.245C3.37488 1.085 4.77488 0.505005 6.41488 0.505005C8.05488 0.505005 9.45488 1.085 10.6049 2.245C11.7549 3.405 12.3249 4.795 12.3249 6.415V50.115H35.7149C37.3549 50.115 38.7549 50.695 39.9049 51.835Z" fill="#DD07D8"/>
<path d="M12.3249 6.415V50.115H35.7149C37.3549 50.115 38.7549 50.695 39.9049 51.835C41.0549 52.985 41.6249 54.385 41.6249 56.025C41.6249 57.665 41.0549 59.025 39.9049 60.195C38.7549 61.355 37.3549 61.935 35.7149 61.935H6.41488C4.77488 61.935 3.37488 61.355 2.23488 60.195C1.08488 59.025 0.504883 57.635 0.504883 56.025V6.415C0.504883 4.795 1.08488 3.405 2.23488 2.245C3.37488 1.085 4.77488 0.505005 6.41488 0.505005C8.05488 0.505005 9.45488 1.085 10.6049 2.245C11.7549 3.405 12.3249 4.795 12.3249 6.415Z" stroke="#DD07D8" stroke-width="1.01" stroke-linecap="round" stroke-linejoin="round"/>
<path d="M9.37484 6.41502C9.37484 5.58502 9.08484 4.89502 8.50484 4.31502C7.92484 3.73502 7.23484 3.45502 6.41484 3.45502C5.59484 3.45502 4.89484 3.74502 4.32484 4.31502C3.75484 4.88502 3.46484 5.58502 3.46484 6.41502V56.025C3.46484 56.815 3.74484 57.505 4.32484 58.095C4.89484 58.685 5.59484 58.975 6.41484 58.975H35.7148C36.5348 58.975 37.2348 58.685 37.8148 58.095C38.3848 57.505 38.6748 56.815 38.6748 56.025C38.6748 55.235 38.3848 54.505 37.8148 53.935C37.2448 53.365 36.5348 53.075 35.7148 53.075H9.37484V6.41502Z" stroke="#DD07D8" stroke-width="1.01" stroke-linecap="round" stroke-linejoin="round"/>
</svg>
