<svg width="39" height="76" viewBox="0 0 39 76" fill="none" xmlns="http://www.w3.org/2000/svg">
<path d="M11.531 0.166951C11.581 0.196951 11.591 0.646978 11.911 0.756978C14.091 1.56698 14.761 1.93697 17.011 2.30697C19.131 2.65697 19.491 5.45698 19.481 7.31698C19.481 8.19698 18.791 7.74695 18.141 8.22695C17.531 8.67695 17.111 9.39699 16.441 9.89699C14.701 11.177 14.551 9.56696 14.081 13.047C13.261 19.087 14.181 28.2469 14.271 34.5369C14.371 41.5869 13.651 51.507 14.591 58.427C14.701 59.247 15.361 59.857 15.361 60.267C15.361 60.707 14.781 61.127 14.671 61.757C14.451 63.037 15.781 64.627 15.361 66.057C17.251 65.947 19.271 66.207 21.131 66.057C21.761 65.997 24.941 65.347 25.401 65.107C28.021 63.747 26.681 59.777 27.811 57.617C28.611 56.097 31.921 55.517 33.391 56.417C33.531 56.497 35.131 58.707 35.301 58.997C36.541 61.197 36.061 62.8369 36.551 65.1569C36.791 66.2869 37.851 68.127 38.001 69.267C38.121 70.147 37.371 71.557 38.111 72.757C35.931 72.407 36.991 73.267 36.271 74.457C34.791 76.917 31.541 75.247 29.691 75.027C24.841 74.447 19.261 76.137 14.801 75.757C12.941 75.597 8.07098 75.597 6.70098 75.307C6.25098 75.217 2.69098 73.367 2.43098 73.027C2.07098 72.557 2.15098 72.027 1.92098 71.557C1.79098 71.277 1.27098 71.277 1.21098 71.007C0.68098 68.687 1.25098 62.147 1.43098 59.457C1.46098 58.967 1.12098 58.427 1.17098 58.077C1.22098 57.787 1.96098 57.8969 1.95098 57.6569C1.93098 57.0369 1.16098 56.767 1.25098 56.247C1.30098 55.917 1.87098 55.527 1.96098 54.697C2.60098 48.537 1.83098 41.237 2.66098 35.267C2.79098 34.367 3.43098 33.8369 3.47098 33.0369C3.50098 32.3469 2.75098 32.557 2.68098 32.247C2.41098 31.057 3.30098 30.4169 3.45098 29.3469C3.76098 27.1569 3.27098 24.187 3.42098 21.857C3.63098 18.527 4.36098 15.187 4.19098 11.827C0.77098 11.927 -0.389018 9.34695 0.110982 6.22695C0.270982 5.18695 1.31098 3.87696 2.23098 3.42696C2.63098 3.23696 3.47098 2.93695 4.07098 2.66695C6.49098 1.57695 7.85098 1.37695 10.261 0.786946C10.671 0.686946 10.401 -0.423039 11.541 0.176961L11.531 0.166951Z" fill="#221A22"/>
</svg>
