<svg width="45" height="75" viewBox="0 0 45 75" fill="none" xmlns="http://www.w3.org/2000/svg">
<path d="M15.9063 0.662759C16.2763 0.822759 18.5663 3.13279 18.6063 3.32279C18.6763 3.64279 18.3263 4.10275 18.3463 4.46275C18.3663 4.96275 18.6363 5.57278 18.5863 5.87278C18.4563 6.63278 14.3563 9.02275 13.4463 9.65275C14.4463 11.3527 14.6363 13.3228 14.9363 15.2428C15.6363 19.7228 15.5163 26.2327 16.4363 30.4627C16.5063 30.7927 17.5063 30.6027 17.1863 31.6427C17.0863 31.9827 16.2363 31.5828 16.4363 32.1928L17.1863 32.4328C17.4263 36.3328 17.1863 40.6428 18.3163 44.2928L19.0363 64.2627C19.3063 64.5327 25.5263 64.0728 26.7063 64.2328C27.4463 64.3328 27.1763 65.0327 27.4263 65.0227C27.9763 64.9927 28.3063 64.3727 28.9263 64.2727C29.8563 64.1227 32.3163 64.5027 32.7763 64.2127C33.1763 63.9627 35.2063 56.6127 36.0163 55.3327C36.9163 53.9027 39.0563 52.6828 40.7763 53.0928C41.0463 53.1528 41.0463 53.6528 41.3263 53.7928C41.8063 54.0328 42.3963 53.9827 42.8863 54.3927C43.0263 54.5027 44.7663 57.1728 44.7863 57.3528C45.0163 59.3228 45.0963 67.5428 44.7563 69.3028C44.7263 69.4828 43.2463 72.2127 43.0663 72.4627C42.7363 72.9227 41.2163 74.5028 40.7663 74.6328L9.96633 74.3428C8.75633 72.3428 6.86633 72.5927 6.43633 69.9527C6.24633 68.7427 6.39633 67.5428 6.32633 66.3228C6.06633 61.4928 6.43633 55.5628 6.43633 50.2828C6.43633 39.9728 7.46632 25.4228 6.37632 15.5628C6.25632 14.5028 5.52632 13.5628 5.58632 12.9928C5.58632 12.9028 7.03632 12.4228 6.34632 11.6828C6.12632 11.4528 1.92632 13.3428 0.586321 10.5428C0.326321 9.99276 -0.0536734 8.03277 0.00632661 7.42277C0.0463266 7.02277 1.71632 4.14278 2.01632 3.81278C2.11632 3.70278 4.25633 2.06279 4.39633 2.00279C5.21633 1.62279 6.87632 1.73274 7.84632 1.45274C10.7563 0.612737 12.4663 -0.857251 15.8763 0.652749L15.9063 0.662759Z" fill="#221A22"/>
</svg>
