<svg width="34" height="76" viewBox="0 0 34 76" fill="none" xmlns="http://www.w3.org/2000/svg">
<path d="M2.22292 19.6047C2.60292 14.8147 1.67292 9.14472 2.22292 4.49472C2.33292 3.58472 2.52292 3.10472 3.15292 2.43472C3.69292 1.86472 6.51292 0.574719 7.37292 0.304719C8.02292 0.104719 10.4129 -0.0652795 11.0029 0.0247205C12.2829 0.234721 15.7729 2.53473 16.5629 3.59473C17.4129 4.73473 17.5729 5.72473 17.5429 7.12473C17.3629 17.7847 16.4429 29.0747 16.0229 39.7447C14.7829 39.2347 11.9329 39.1347 10.7029 39.3847C10.5429 39.4147 8.40292 41.5847 8.31292 41.7247C8.12292 42.0247 8.28292 42.5247 8.16292 42.7947C7.98292 43.2047 7.50292 43.0047 7.42292 43.6347C7.34292 44.2147 7.33292 46.0547 7.46292 46.5747C7.52292 46.8347 8.05292 46.7647 8.18292 47.1247C8.31292 47.4847 8.09292 48.2047 8.19292 48.3247C8.32292 48.4747 9.56292 48.1947 9.68292 48.3247C9.80292 48.4547 9.53292 49.6847 9.68292 49.8147C9.80292 49.9247 10.5429 49.6947 10.8829 49.8247C11.2629 49.9747 11.0329 50.4947 11.7029 50.5847C12.3029 50.6647 14.0829 50.6747 14.6429 50.5447C14.9529 50.4747 14.8929 49.5447 15.6429 49.8047C15.5329 52.2947 15.1729 54.7547 15.2729 57.2647L24.7629 58.0247C26.9129 59.4847 29.4029 57.8947 31.3129 60.0547C31.9429 60.7647 33.8529 64.4347 33.8929 65.3147C33.9329 66.1947 33.1829 71.2347 32.8429 72.0447C32.4629 72.9347 29.5029 75.1247 28.5229 75.1347C27.2829 75.1547 24.3629 73.8347 22.9329 73.6647C17.6429 73.0547 11.5729 74.3047 6.33292 74.0447C6.30292 72.9547 7.20292 72.3347 7.41292 71.8647C7.52292 71.6347 7.37292 71.1947 7.47292 70.9847C7.67292 70.5947 8.21292 70.6847 8.21292 70.4947C8.19292 70.0147 7.68292 69.7247 7.54292 69.2747C7.02292 67.5947 7.22292 68.3247 6.57292 67.2547C6.29292 66.7947 5.95292 65.5947 5.88292 65.5347C5.76292 65.4447 3.54292 64.8247 3.10292 64.5947C2.66292 64.3647 1.73292 63.1847 0.74292 63.2247C1.10292 54.0147 1.40292 44.8547 1.49292 35.6247C2.37292 34.9547 1.56292 31.4347 1.86292 31.1447C2.00292 31.0047 3.58292 31.2947 3.72292 31.1447C3.78292 31.0847 3.64292 30.2547 3.84292 29.7647C4.21292 28.8847 6.56292 28.9247 6.73292 27.6147C6.81292 26.9947 6.83292 25.2347 6.70292 24.6847C6.63292 24.3847 6.02292 24.5847 5.93292 23.8947C5.77292 22.7047 6.10292 21.1947 5.96292 19.9547L5.40292 20.7047C5.10292 19.4547 4.07292 20.0347 2.98292 19.9547L4.47292 20.3247C4.05292 21.0647 1.63292 21.1147 2.23292 19.5747L2.22292 19.6047ZM23.8429 60.2547C23.6429 59.2547 24.4129 58.3347 22.6129 58.7747C22.4529 58.8147 20.3229 60.9747 20.2329 61.1147C20.0529 61.3947 20.1629 61.9347 19.9829 62.3647C19.9329 62.4947 19.4329 62.5047 19.3729 62.7547C19.2529 63.2547 19.2529 65.4647 19.3729 65.9647C19.4429 66.2447 20.0429 66.1947 20.1029 66.4747C20.3929 67.8047 20.3729 67.6547 20.7229 68.5847C21.4229 70.4247 21.6129 71.3447 24.3229 70.6847C24.5029 70.6447 24.8529 69.4047 26.0729 69.9447L25.3329 69.2047C26.8229 69.8647 27.1629 68.0447 27.6729 67.8247C28.1429 67.6147 28.9529 67.7947 29.0429 67.7047C29.1729 67.5647 28.9329 66.8447 29.0729 66.5147C29.2229 66.1547 29.7229 66.2347 29.8029 65.9847C30.2029 64.6547 29.1229 64.7547 29.0729 64.4847C28.7529 63.0547 29.0329 63.1147 28.4429 61.6347C27.8829 60.2347 27.8529 58.9447 25.5929 59.5347C25.2229 59.6347 25.7629 60.1947 23.8429 60.2647C23.9729 60.9047 24.7529 60.3647 24.5829 61.0047C23.6229 60.9747 22.8529 61.3747 23.0929 60.2647C23.3429 60.2547 23.5929 60.2647 23.8329 60.2647L23.8429 60.2547Z" fill="#EF5268"/>
<path d="M16.0129 39.7447C15.8829 43.0947 15.7929 46.4647 15.6429 49.8147C14.8929 49.5547 14.9529 50.4847 14.6429 50.5547C14.0829 50.6747 12.3029 50.6747 11.7029 50.5947C11.0329 50.5047 11.2629 49.9747 10.8829 49.8347C10.5329 49.7047 9.79293 49.9247 9.68293 49.8247C9.53293 49.6947 9.81293 48.4547 9.68293 48.3347C9.55293 48.2147 8.32292 48.4847 8.19292 48.3347C8.08292 48.2147 8.31293 47.4747 8.18293 47.1347C8.05293 46.7947 7.52293 46.8547 7.46293 46.5847C7.33293 46.0647 7.34292 44.2247 7.42292 43.6447C7.50292 43.0147 7.98293 43.2147 8.16293 42.8047C8.28293 42.5347 8.12293 42.0347 8.31293 41.7347C8.40293 41.5947 10.5329 39.4347 10.7029 39.3947C11.9329 39.1447 14.7829 39.2347 16.0229 39.7547L16.0129 39.7447Z" fill="#F9B027"/>
<path d="M0.732981 63.2347C1.72298 63.1847 2.65298 64.3747 3.09298 64.6047C3.53298 64.8347 5.75298 65.4447 5.87298 65.5447C5.94298 65.6047 6.28298 66.8047 6.56298 67.2647C7.21298 68.3347 7.01298 67.6047 7.53298 69.2847C7.67298 69.7347 8.18298 70.0247 8.20298 70.5047C8.20298 70.6947 7.66298 70.6047 7.46298 70.9947C7.35298 71.2047 7.50298 71.6347 7.40298 71.8747C7.19298 72.3447 6.29298 72.9647 6.32298 74.0547C5.69298 74.0247 2.43298 73.7547 2.27298 73.6247C2.20298 73.5647 2.01298 72.5448 1.73298 72.1148C1.11298 71.1648 -0.067019 70.1447 0.00298099 68.6447C0.032981 68.1147 0.64298 67.6947 0.71298 67.1447C0.85298 65.8947 0.682981 64.5247 0.732981 63.2447V63.2347Z" fill="#F9B027"/>
<path d="M2.22289 19.6047C1.61289 21.1447 4.04289 21.0947 4.46289 20.3547L2.97289 19.9847C4.06289 20.0647 5.10289 19.4847 5.39289 20.7347L5.95289 19.9847C6.10289 21.2247 5.77289 22.7347 5.92289 23.9247C6.01289 24.6147 6.62289 24.4148 6.69289 24.7148C6.82289 25.2648 6.80289 27.0247 6.72289 27.6447C6.55289 28.9547 4.20289 28.9147 3.83289 29.7947C3.63289 30.2747 3.77289 31.1047 3.71289 31.1747C3.57289 31.3247 1.99289 31.0347 1.85289 31.1747C1.55289 31.4647 2.36289 34.9848 1.48289 35.6548C1.51289 32.7348 1.08289 28.4448 1.46289 25.7548C1.58289 24.8648 2.23289 24.3947 2.24289 23.9147C2.24289 23.6947 1.55289 23.7648 1.47289 23.4948C1.06289 22.1248 2.25289 22.2047 2.24289 22.0447C2.21289 21.5347 1.67289 21.2547 1.63289 20.9247C1.55289 20.3647 2.22289 19.8048 2.23289 19.6248L2.22289 19.6047Z" fill="#F9B027"/>
<path d="M23.843 60.2547C25.763 60.1847 25.223 59.6147 25.593 59.5247C27.853 58.9447 27.893 60.2247 28.443 61.6247C29.033 63.1147 28.753 63.0547 29.073 64.4747C29.133 64.7447 30.203 64.6447 29.803 65.9747C29.733 66.2247 29.223 66.1447 29.073 66.5047C28.943 66.8347 29.183 67.5647 29.043 67.6947C28.943 67.7947 28.133 67.6147 27.673 67.8147C27.163 68.0447 26.823 69.8547 25.333 69.1947L26.073 69.9347C24.863 69.3947 24.513 70.6347 24.323 70.6747C21.613 71.3347 21.423 70.4147 20.723 68.5747C20.373 67.6547 20.393 67.7947 20.103 66.4647C20.043 66.1847 19.433 66.2347 19.373 65.9547C19.253 65.4447 19.253 63.2447 19.373 62.7447C19.433 62.4947 19.933 62.4847 19.983 62.3547C20.153 61.9147 20.053 61.3747 20.233 61.1047C20.323 60.9647 22.453 58.8047 22.613 58.7647C24.413 58.3147 23.633 59.2347 23.843 60.2447C23.593 60.2447 23.343 60.2347 23.103 60.2447C22.853 61.3547 23.633 60.9547 24.593 60.9847C24.753 60.3447 23.973 60.8847 23.853 60.2447L23.843 60.2547Z" fill="#F9B027"/>
</svg>
