<svg width="37" height="77" viewBox="0 0 37 77" fill="none" xmlns="http://www.w3.org/2000/svg">
<path d="M0.0265569 26.9395C0.0165569 20.3895 -0.133446 13.4795 0.406554 6.9895C0.506554 5.8395 0.826561 3.26952 1.36656 2.34952C2.19656 0.929517 3.59656 1.30952 4.39656 0.0995166C7.71656 0.239517 10.3866 -1.03051 11.7666 2.69949C12.3466 4.26949 12.1666 5.2995 12.3366 6.7995C11.5866 6.5395 11.6466 7.47952 11.3366 7.53952C9.61655 7.87952 10.0566 7.88951 9.06656 8.27951C8.71656 8.41951 7.97656 8.18952 7.85656 8.28952C7.73656 8.39952 7.96656 9.7595 7.85656 10.2695C7.78656 10.5495 7.19656 10.4995 7.12656 10.7795C7.00656 11.3095 7.01655 13.1295 7.08655 13.7195C7.17655 14.4095 7.78656 14.1995 7.85656 14.5095C7.98656 15.1095 7.72656 15.7195 7.96656 16.3995C8.01656 16.5495 10.0366 18.5595 10.1866 18.6095C11.1466 18.9795 12.4266 18.5995 13.4466 18.7195C14.1366 28.3695 13.9766 38.1295 14.1966 47.8095C13.2466 47.9395 11.9766 47.6095 11.0966 47.8195C10.8466 47.8795 10.8466 48.3795 10.7166 48.4295C10.2266 48.6195 9.86656 48.4895 9.34656 48.8095C8.67656 49.2195 8.41656 50.4795 7.98656 51.0695C7.69656 51.4695 6.42656 52.3795 6.38656 52.5495C6.24656 53.2495 6.25656 55.4495 6.34656 56.2095C6.43656 56.9695 7.52656 57.2195 7.74656 57.6095C7.99656 58.0595 7.61656 58.6595 8.11656 59.0095C9.78656 60.1595 12.6066 59.6395 14.5666 59.7395C16.9466 59.8695 18.0966 59.9495 20.5366 59.7395C21.1566 61.3595 19.6866 62.0595 19.7566 62.9195C19.8166 63.5695 20.2866 63.3395 20.4966 63.7795C20.7466 64.2895 21.1866 66.3295 21.2866 66.4395C21.3866 66.5395 22.1966 66.3495 22.6566 66.5595C22.8266 66.6395 24.8866 68.9395 25.0066 69.4295C25.8766 69.7795 25.6766 68.8895 25.8466 68.8095C26.9866 68.2695 29.7966 67.0095 30.8466 66.3395C30.9766 66.2495 33.0266 64.2695 33.0866 64.1295C33.2966 63.5695 33.3266 61.3395 33.1966 60.7495C33.1766 60.6795 32.6866 60.1095 32.4566 59.7495C33.5966 59.5495 33.3566 59.7995 33.7766 60.4695C34.7566 62.0295 36.1166 68.8695 36.1566 70.8095C36.2266 73.5995 32.9666 76.0195 30.4166 76.1795C28.2166 76.3195 25.8866 75.4895 23.7066 75.3995C19.1766 75.1995 14.6066 75.4795 10.0866 75.4195C10.1766 75.1795 9.93656 74.5695 10.0966 74.2095C10.2866 73.7895 11.3066 73.7795 10.8266 72.4295L10.0866 73.1695C9.99655 72.5695 7.67656 70.1895 7.28656 70.1495C7.08656 70.1295 4.90656 70.0695 4.86656 70.1795C4.76656 70.4295 4.99656 71.0295 4.85656 71.3995C4.71656 71.7695 4.18656 71.6795 4.12656 71.9395C3.93656 72.7695 4.52656 74.0295 3.74656 74.6695C2.86656 73.6595 2.06656 72.6495 1.86656 71.1495C0.676561 62.2395 0.71656 51.6695 0.39656 42.5995L3.26655 41.7295C4.04655 40.6095 5.57655 39.2995 6.65655 38.8795C6.99655 38.7495 7.71656 38.9795 7.84656 38.8495C7.97656 38.7195 7.75656 37.9895 7.84656 37.6395C7.97656 37.1695 8.78656 37.6495 8.59656 36.8095C8.51656 36.4595 7.94655 36.7595 7.83655 36.3795C7.60655 35.4995 8.06655 34.0995 7.83655 33.1495C7.60655 32.1995 5.54656 29.8695 4.98656 29.0395C4.77656 28.7295 4.95656 28.1495 4.73656 27.7895C3.82656 26.2895 1.57655 27.0995 0.0165547 26.9195L0.0265569 26.9395Z" fill="#EF5268"/>
<path d="M32.4664 59.7595C32.6964 60.1195 33.1863 60.6995 33.2063 60.7595C33.3463 61.3495 33.3163 63.5795 33.0963 64.1395C33.0363 64.2895 30.9864 66.2695 30.8564 66.3495C29.8064 67.0195 27.0064 68.2895 25.8564 68.8195C25.6864 68.8995 25.8763 69.7895 25.0163 69.4395C24.8963 68.9595 22.8363 66.6495 22.6663 66.5695C22.2063 66.3595 21.3864 66.5495 21.2964 66.4495C21.1964 66.3395 20.7464 64.2995 20.5064 63.7895C20.2964 63.3495 19.8163 63.5795 19.7663 62.9295C19.6963 62.0695 21.1664 61.3695 20.5464 59.7495C21.5764 59.6595 22.6663 59.8895 23.6963 59.7295C25.7663 59.4195 30.0663 57.2195 31.9563 58.5995C32.4463 58.9595 32.3263 59.5095 32.4763 59.7495L32.4664 59.7595Z" fill="#F9B027"/>
<path d="M0.0263672 26.9395C1.58637 27.1195 3.83637 26.3095 4.74637 27.8095C4.96637 28.1695 4.78637 28.7495 4.99637 29.0595C5.55637 29.8895 7.60637 32.2095 7.84637 33.1695C8.08637 34.1295 7.61637 35.5095 7.84637 36.3995C7.94637 36.7795 8.52637 36.4795 8.60637 36.8295C8.79637 37.6695 7.98637 37.1895 7.85637 37.6595C7.75637 38.0095 7.97637 38.7495 7.85637 38.8695C7.73637 38.9895 7.00637 38.7595 6.66637 38.8995C5.58637 39.3195 4.04637 40.6295 3.27637 41.7495L0.406364 42.6195C0.216364 37.2395 0.0463693 32.2295 0.0363693 26.9595L0.0263672 26.9395Z" fill="#F9B027"/>
<path d="M14.1964 47.8195C14.1964 47.8795 14.5264 48.1095 14.5264 48.4195C14.6164 52.1695 14.5264 55.9794 14.5664 59.7494C12.5964 59.6394 9.78641 60.1695 8.11641 59.0195C7.61641 58.6795 7.99641 58.0695 7.74641 57.6195C7.52641 57.2295 6.4364 56.9795 6.3464 56.2195C6.2564 55.4595 6.2464 53.2694 6.3864 52.5594C6.4164 52.3894 7.6964 51.4795 7.9864 51.0795C8.4264 50.4895 8.6764 49.2295 9.3464 48.8195C9.8664 48.4995 10.2364 48.6295 10.7164 48.4395C10.8464 48.3895 10.8564 47.8895 11.0964 47.8295C11.9764 47.6195 13.2364 47.9395 14.1964 47.8195Z" fill="#F9B027"/>
<path d="M12.3265 6.79947C12.7665 10.7695 13.1665 14.7495 13.4465 18.7295C12.4265 18.5995 11.1465 18.9795 10.1865 18.6195C10.0365 18.5595 8.0165 16.5495 7.9665 16.4095C7.7265 15.7295 7.9865 15.1195 7.8565 14.5195C7.7865 14.2095 7.1765 14.4295 7.0865 13.7295C7.0065 13.1395 6.9965 11.3195 7.1265 10.7895C7.1965 10.5095 7.7865 10.5595 7.8565 10.2795C7.9765 9.76948 7.7465 8.39947 7.8565 8.29947C7.9665 8.19947 8.7165 8.41949 9.0665 8.28949C10.0565 7.89949 9.6065 7.89947 11.3365 7.54947C11.6465 7.48947 11.5865 6.53948 12.3365 6.80948L12.3265 6.79947Z" fill="#F9B027"/>
<path d="M3.75659 74.6695C4.53659 74.0395 3.94659 72.7694 4.13659 71.9394C4.19659 71.6794 4.72659 71.7495 4.86659 71.3995C5.00659 71.0495 4.77659 70.4295 4.87659 70.1795C4.92659 70.0695 7.09659 70.1295 7.29659 70.1495C7.68659 70.1795 10.0066 72.5595 10.0966 73.1695L10.8366 72.4295C11.3166 73.7695 10.2966 73.7895 10.1066 74.2095C9.94659 74.5695 10.1866 75.1795 10.0966 75.4195C10.0766 75.4795 9.14659 76.1395 9.08659 76.1495C6.66659 76.6595 5.25659 76.3795 3.75659 74.6695Z" fill="#F9B027"/>
</svg>
