<svg width="41" height="71" viewBox="0 0 41 71" fill="none" xmlns="http://www.w3.org/2000/svg">
<path d="M18.756 46.7506C19.056 46.5606 20.386 42.1406 21.636 41.2506C23.116 40.2006 29.416 39.9106 31.246 40.1306C35.646 40.6506 37.566 42.7205 39.366 46.5505C43.786 55.9105 34.986 66.4406 26.456 69.5706C19.956 71.9606 12.426 70.8106 6.73596 66.8806C-1.91404 60.9106 0.115958 52.3806 0.425958 43.2506C0.855958 30.5706 1.79596 17.9705 2.52596 5.30055C3.12596 3.33055 4.31596 3.73059 5.34596 2.97059C5.82596 2.61059 5.98596 1.89056 6.72596 1.37056C12.186 -2.45944 21.006 2.31055 22.496 8.61055C24.066 15.2705 23.176 26.2905 22.136 33.1705C21.916 34.6605 21.676 36.8205 21.136 38.1605C20.596 39.5005 15.296 45.2606 17.266 46.6506C17.566 46.8606 18.436 46.9406 18.736 46.7606L18.756 46.7506ZM32.106 54.6806C31.706 54.8006 29.936 57.1705 29.246 57.8005C28.346 58.6205 25.586 59.7506 25.926 61.0706C26.916 64.9306 34.276 58.9805 33.986 55.9805C33.896 55.0005 33.086 54.3705 32.106 54.6705V54.6806ZM22.016 62.4805C20.716 62.7005 20.666 65.3406 22.346 65.4506C24.576 65.2206 23.086 62.2905 22.016 62.4805Z" fill="#E9549D"/>
<path d="M32.1061 54.6806C33.0961 54.3806 33.8961 55.0106 33.9861 55.9906C34.2761 58.9906 26.9161 64.9406 25.9261 61.0806C25.5861 59.7606 28.3461 58.6206 29.2461 57.8106C29.9361 57.1806 31.7061 54.8106 32.1061 54.6906V54.6806Z" fill="white"/>
<path d="M22.016 62.4805C23.086 62.3005 24.576 65.2305 22.346 65.4505C20.666 65.3305 20.716 62.7005 22.016 62.4805Z" fill="white"/>
</svg>
