<svg width="41" height="71" viewBox="0 0 41 71" fill="none" xmlns="http://www.w3.org/2000/svg">
<path d="M19.2581 2.01463C19.3681 2.07463 21.0481 3.44459 21.1981 3.60459C24.8681 7.65459 24.8081 18.8546 24.4781 24.1146C24.3581 26.0946 23.6481 34.9246 23.0281 36.2846C22.6881 37.0346 21.1881 37.6246 20.5381 38.2746C19.5381 39.2746 15.8181 45.0946 18.8181 44.7846C19.9781 44.6646 20.3681 41.9746 21.2481 40.8546C23.6781 37.7446 27.9281 38.6246 31.3181 39.3546C46.0081 42.5546 41.2881 58.1046 32.8081 65.4646C22.6481 74.2746 5.90814 70.9546 1.80814 57.6846C-2.40186 44.0746 2.02814 32.6446 2.25814 19.6046C2.29814 17.1446 1.68814 14.7946 1.86814 12.1446C2.27814 6.13463 4.75814 -0.195381 11.7581 0.00461907C13.4481 0.0546191 17.7281 1.25464 19.2581 2.02464V2.01463Z" fill="#E9549D"/>
</svg>
