<svg width="47" height="62" viewBox="0 0 47 62" fill="none" xmlns="http://www.w3.org/2000/svg">
<path d="M7.64992 60.19C7.23992 60.19 7.04992 60.05 6.92992 59.93C6.74992 59.75 6.66992 59.55 6.66992 59.29V7.65999C6.66992 6.88999 6.87992 6.67999 7.64992 6.67999H17.9599C18.7299 6.67999 18.9399 6.88999 18.9399 7.65999V48.11C18.9399 48.66 19.3899 49.11 19.9399 49.11H44.9999C45.7699 49.11 45.9799 49.32 45.9799 50.09V59.21C45.9799 59.98 45.7699 60.19 44.9999 60.19H7.63992H7.64992Z" fill="#FC0B50"/>
<path d="M17.9399 7.66998V48.1C17.9399 49.2 18.8399 50.1 19.9399 50.1H44.9899V59.19H7.66992V7.66998H17.9499M17.9599 5.66998H7.64992C6.32992 5.66998 5.66992 6.32999 5.66992 7.64999V59.28C5.66992 59.81 5.84992 60.26 6.22992 60.63C6.59992 61 7.07992 61.19 7.65992 61.19H45.0199C46.3399 61.19 46.9999 60.53 46.9999 59.21V50.09C46.9999 48.77 46.3399 48.11 45.0199 48.11H19.9599V7.65999C19.9599 6.33999 19.2999 5.67999 17.9799 5.67999L17.9599 5.66998Z" fill="#231F20"/>
<path d="M7.36989 59.91C6.95989 59.91 6.76989 59.77 6.64989 59.65C6.46989 59.47 6.38989 59.27 6.38989 59.01V7.38002C6.38989 6.61002 6.59989 6.40002 7.36989 6.40002H17.6799C18.4499 6.40002 18.6599 6.61002 18.6599 7.38002V47.83C18.6599 48.38 19.1099 48.83 19.6599 48.83H44.7199C45.4899 48.83 45.6999 49.04 45.6999 49.81V58.93C45.6999 59.7 45.4899 59.91 44.7199 59.91H7.35989H7.36989Z" fill="#FC0B50"/>
<path d="M17.6599 7.39001V47.82C17.6599 48.92 18.5599 49.82 19.6599 49.82H44.7099V58.91H7.38989V7.39001H17.6699M17.6799 5.39001H7.36989C6.04989 5.39001 5.38989 6.05003 5.38989 7.37003V59C5.38989 59.53 5.56989 59.98 5.94989 60.35C6.31989 60.72 6.79989 60.91 7.37989 60.91H44.7399C46.0599 60.91 46.7199 60.25 46.7199 58.93V49.81C46.7199 48.49 46.0599 47.83 44.7399 47.83H19.6799V7.38002C19.6799 6.06002 19.0199 5.40002 17.6999 5.40002L17.6799 5.39001Z" fill="#231F20"/>
<path d="M7.08009 59.63C6.67009 59.63 6.48009 59.49 6.36009 59.37C6.18009 59.19 6.1001 58.99 6.1001 58.73V7.09999C6.1001 6.32999 6.31009 6.12 7.08009 6.12H17.3901C18.1601 6.12 18.3701 6.32999 18.3701 7.09999V47.55C18.3701 48.1 18.8201 48.55 19.3701 48.55H44.4301C45.2001 48.55 45.4101 48.76 45.4101 49.53V58.65C45.4101 59.42 45.2001 59.63 44.4301 59.63H7.07009H7.08009Z" fill="#FC0B50"/>
<path d="M17.3801 7.10999V47.54C17.3801 48.64 18.2801 49.54 19.3801 49.54H44.4301V58.63H7.11009V7.10999H17.3901M17.3901 5.10999H7.08009C5.76009 5.10999 5.1001 5.76998 5.1001 7.08998V58.72C5.1001 59.25 5.2801 59.7 5.6601 60.07C6.0301 60.44 6.5101 60.63 7.0901 60.63H44.4501C45.7701 60.63 46.4301 59.97 46.4301 58.65V49.53C46.4301 48.21 45.7701 47.55 44.4501 47.55H19.3901V7.09999C19.3901 5.77999 18.7301 5.12 17.4101 5.12L17.3901 5.10999Z" fill="#231F20"/>
<path d="M6.80007 59.34C6.39007 59.34 6.20007 59.2 6.08007 59.08C5.90007 58.9 5.82007 58.7 5.82007 58.44V6.81001C5.82007 6.04001 6.03007 5.83002 6.80007 5.83002H17.1101C17.8801 5.83002 18.0901 6.04001 18.0901 6.81001V47.26C18.0901 47.81 18.5401 48.26 19.0901 48.26H44.1501C44.9201 48.26 45.1301 48.47 45.1301 49.24V58.36C45.1301 59.13 44.9201 59.34 44.1501 59.34H6.79007H6.80007Z" fill="#FC0B50"/>
<path d="M17.0901 6.82001V47.25C17.0901 48.35 17.9901 49.25 19.0901 49.25H44.1401V58.34H6.82007V6.82001H17.1001M17.1101 4.82001H6.80007C5.48007 4.82001 4.82007 5.48 4.82007 6.8V58.43C4.82007 58.96 5.00007 59.41 5.38007 59.78C5.75007 60.15 6.23007 60.34 6.81007 60.34H44.1701C45.4901 60.34 46.1501 59.68 46.1501 58.36V49.24C46.1501 47.92 45.4901 47.26 44.1701 47.26H19.1101V6.81C19.1101 5.49 18.4501 4.83 17.1301 4.83L17.1101 4.82001Z" fill="#231F20"/>
<path d="M6.52004 59.06C6.11004 59.06 5.92004 58.92 5.80004 58.8C5.62004 58.62 5.54004 58.42 5.54004 58.16V6.52998C5.54004 5.75998 5.75004 5.54999 6.52004 5.54999H16.83C17.6 5.54999 17.81 5.75998 17.81 6.52998V46.98C17.81 47.53 18.26 47.98 18.81 47.98H43.87C44.64 47.98 44.85 48.19 44.85 48.96V58.08C44.85 58.85 44.64 59.06 43.87 59.06H6.51004H6.52004Z" fill="#FC0B50"/>
<path d="M16.81 6.53998V46.97C16.81 48.07 17.71 48.97 18.81 48.97H43.86V58.06H6.54004V6.53998H16.82M16.83 4.53998H6.52004C5.20004 4.53998 4.54004 5.19997 4.54004 6.51997V58.15C4.54004 58.68 4.72004 59.13 5.10004 59.5C5.47004 59.87 5.95004 60.06 6.53004 60.06H43.89C45.21 60.06 45.87 59.4 45.87 58.08V48.96C45.87 47.64 45.21 46.98 43.89 46.98H18.83V6.52997C18.83 5.20997 18.17 4.54997 16.85 4.54997L16.83 4.53998Z" fill="#231F20"/>
<path d="M6.23 58.78C5.82 58.78 5.63 58.64 5.51 58.52C5.33 58.34 5.25 58.14 5.25 57.88V6.25002C5.25 5.48002 5.46 5.27002 6.23 5.27002H16.54C17.31 5.27002 17.52 5.48002 17.52 6.25002V46.7C17.52 47.25 17.97 47.7 18.52 47.7H43.58C44.35 47.7 44.56 47.91 44.56 48.68V57.8C44.56 58.57 44.35 58.78 43.58 58.78H6.22H6.23Z" fill="#FC0B50"/>
<path d="M16.53 6.26001V46.69C16.53 47.79 17.43 48.69 18.53 48.69H43.58V57.78H6.26V6.26001H16.54M16.54 4.26001H6.23C4.91 4.26001 4.25 4.92001 4.25 6.24001V57.87C4.25 58.4 4.43001 58.85 4.81001 59.22C5.18001 59.59 5.66001 59.78 6.24001 59.78H43.6C44.92 59.78 45.58 59.12 45.58 57.8V48.68C45.58 47.36 44.92 46.7 43.6 46.7H18.54V6.25C18.54 4.93 17.88 4.27 16.56 4.27L16.54 4.26001Z" fill="#231F20"/>
<path d="M5.94997 58.49C5.53997 58.49 5.34997 58.35 5.22997 58.23C5.04997 58.05 4.96997 57.85 4.96997 57.59V5.95999C4.96997 5.18999 5.17997 4.97998 5.94997 4.97998H16.26C17.03 4.97998 17.24 5.18999 17.24 5.95999V46.41C17.24 46.96 17.69 47.41 18.24 47.41H43.3C44.07 47.41 44.28 47.62 44.28 48.39V57.51C44.28 58.28 44.07 58.49 43.3 58.49H5.93997H5.94997Z" fill="#FC0B50"/>
<path d="M16.24 5.97003V46.4C16.24 47.5 17.14 48.4 18.24 48.4H43.29V57.49H5.96997V5.97003H16.25M16.26 3.97003H5.94997C4.62997 3.97003 3.96997 4.63003 3.96997 5.95003V57.58C3.96997 58.11 4.14998 58.56 4.52998 58.93C4.89998 59.3 5.37998 59.49 5.95998 59.49H43.32C44.64 59.49 45.3 58.83 45.3 57.51V48.39C45.3 47.07 44.64 46.41 43.32 46.41H18.26V5.96004C18.26 4.64004 17.6 3.98003 16.28 3.98003L16.26 3.97003Z" fill="#231F20"/>
<path d="M5.66994 58.21C5.25994 58.21 5.06994 58.07 4.94994 57.95C4.76994 57.77 4.68994 57.57 4.68994 57.31V5.68002C4.68994 4.91002 4.89994 4.70001 5.66994 4.70001H15.9799C16.7499 4.70001 16.9599 4.91002 16.9599 5.68002V46.13C16.9599 46.68 17.4099 47.13 17.9599 47.13H43.0199C43.7899 47.13 43.9999 47.34 43.9999 48.11V57.23C43.9999 58 43.7899 58.21 43.0199 58.21H5.65994H5.66994Z" fill="#FC0B50"/>
<path d="M15.9599 5.69V46.12C15.9599 47.22 16.8599 48.12 17.9599 48.12H43.0099V57.21H5.68994V5.69H15.9699M15.9799 3.69H5.66994C4.34994 3.69 3.68994 4.35 3.68994 5.67V57.3C3.68994 57.83 3.86994 58.28 4.24994 58.65C4.61994 59.02 5.09994 59.21 5.67994 59.21H43.0399C44.3599 59.21 45.0199 58.55 45.0199 57.23V48.11C45.0199 46.79 44.3599 46.13 43.0399 46.13H17.9799V5.68001C17.9799 4.36001 17.3199 3.7 15.9999 3.7L15.9799 3.69Z" fill="#231F20"/>
<path d="M5.37991 57.93C4.96991 57.93 4.7799 57.79 4.6599 57.67C4.4799 57.49 4.3999 57.29 4.3999 57.03V5.39999C4.3999 4.62999 4.60991 4.41998 5.37991 4.41998H15.6899C16.4599 4.41998 16.6699 4.62999 16.6699 5.39999V45.85C16.6699 46.4 17.1199 46.85 17.6699 46.85H42.7299C43.4999 46.85 43.7099 47.06 43.7099 47.83V56.95C43.7099 57.72 43.4999 57.93 42.7299 57.93H5.3699H5.37991Z" fill="#FC0B50"/>
<path d="M15.6799 5.40997V45.84C15.6799 46.94 16.5799 47.84 17.6799 47.84H42.7299V56.93H5.4099V5.40997H15.6899M15.6899 3.40997H5.37991C4.05991 3.40997 3.3999 4.06997 3.3999 5.38997V57.02C3.3999 57.55 3.57991 58 3.95991 58.37C4.32991 58.74 4.80991 58.93 5.38991 58.93H42.7499C44.0699 58.93 44.7299 58.27 44.7299 56.95V47.83C44.7299 46.51 44.0699 45.85 42.7499 45.85H17.6899V5.39998C17.6899 4.07998 17.0299 3.41997 15.7099 3.41997L15.6899 3.40997Z" fill="#231F20"/>
<path d="M5.10012 57.64C4.69012 57.64 4.50012 57.5 4.38012 57.38C4.20012 57.2 4.12012 57 4.12012 56.74V5.11C4.12012 4.34 4.33012 4.13 5.10012 4.13H15.4101C16.1801 4.13 16.3901 4.34 16.3901 5.11V45.56C16.3901 46.11 16.8401 46.56 17.3901 46.56H42.4501C43.2201 46.56 43.4301 46.77 43.4301 47.54V56.66C43.4301 57.43 43.2201 57.64 42.4501 57.64H5.09012H5.10012Z" fill="#FC0B50"/>
<path d="M15.3901 5.12V45.55C15.3901 46.65 16.2901 47.55 17.3901 47.55H42.4401V56.64H5.12012V5.12H15.4001M15.4101 3.12H5.10012C3.78012 3.12 3.12012 3.77999 3.12012 5.09999V56.73C3.12012 57.26 3.30011 57.71 3.68011 58.08C4.05011 58.45 4.53012 58.64 5.11012 58.64H42.4701C43.7901 58.64 44.4501 57.98 44.4501 56.66V47.54C44.4501 46.22 43.7901 45.56 42.4701 45.56H17.4101V5.10999C17.4101 3.78999 16.7501 3.12999 15.4301 3.12999L15.4101 3.12Z" fill="#231F20"/>
<path d="M4.82008 57.36C4.41008 57.36 4.22009 57.22 4.10009 57.1C3.92009 56.92 3.84009 56.72 3.84009 56.46V4.83003C3.84009 4.06003 4.05008 3.85004 4.82008 3.85004H15.1301C15.9001 3.85004 16.1101 4.06003 16.1101 4.83003V45.28C16.1101 45.83 16.5601 46.28 17.1101 46.28H42.1701C42.9401 46.28 43.1501 46.49 43.1501 47.26V56.38C43.1501 57.15 42.9401 57.36 42.1701 57.36H4.81009H4.82008Z" fill="#FC0B50"/>
<path d="M15.1101 4.84003V45.27C15.1101 46.37 16.0101 47.27 17.1101 47.27H42.1601V56.36H4.84009V4.84003H15.1201M15.1301 2.84003H4.82008C3.50008 2.84003 2.84009 3.50004 2.84009 4.82004V56.45C2.84009 56.98 3.02009 57.43 3.40009 57.8C3.77009 58.17 4.25009 58.36 4.83009 58.36H42.1901C43.5101 58.36 44.1701 57.7 44.1701 56.38V47.26C44.1701 45.94 43.5101 45.28 42.1901 45.28H17.1301V4.83003C17.1301 3.51003 16.4701 2.85004 15.1501 2.85004L15.1301 2.84003Z" fill="#231F20"/>
<path d="M4.53005 57.08C4.12005 57.08 3.93005 56.94 3.81005 56.82C3.63005 56.64 3.55005 56.44 3.55005 56.18V4.55C3.55005 3.78 3.76005 3.57001 4.53005 3.57001H14.84C15.61 3.57001 15.82 3.78 15.82 4.55V45C15.82 45.55 16.27 46 16.82 46H41.8801C42.6501 46 42.86 46.21 42.86 46.98V56.1C42.86 56.87 42.6501 57.08 41.8801 57.08H4.52005H4.53005Z" fill="#FC0B50"/>
<path d="M14.83 4.56V44.99C14.83 46.09 15.73 46.99 16.83 46.99H41.8801V56.08H4.56005V4.56H14.84M14.84 2.56H4.53005C3.21005 2.56 2.55005 3.22001 2.55005 4.54001V56.17C2.55005 56.7 2.73005 57.15 3.11005 57.52C3.48005 57.89 3.96005 58.08 4.54005 58.08H41.9C43.22 58.08 43.8801 57.42 43.8801 56.1V46.98C43.8801 45.66 43.22 45 41.9 45H16.84V4.55C16.84 3.23 16.18 2.57001 14.86 2.57001L14.84 2.56Z" fill="#231F20"/>
<path d="M4.25002 56.79C3.84002 56.79 3.65002 56.65 3.53002 56.53C3.35002 56.35 3.27002 56.15 3.27002 55.89V4.25998C3.27002 3.48998 3.48002 3.27997 4.25002 3.27997H14.56C15.33 3.27997 15.54 3.48998 15.54 4.25998V44.71C15.54 45.26 15.99 45.71 16.54 45.71H41.6C42.37 45.71 42.58 45.92 42.58 46.69V55.81C42.58 56.58 42.37 56.79 41.6 56.79H4.24002H4.25002Z" fill="#FC0B50"/>
<path d="M14.54 4.27002V44.7C14.54 45.8 15.44 46.7 16.54 46.7H41.59V55.79H4.27002V4.27002H14.55M14.56 2.27002H4.25002C2.93002 2.27002 2.27002 2.93002 2.27002 4.25002V55.88C2.27002 56.41 2.45002 56.86 2.83002 57.23C3.20002 57.6 3.68002 57.79 4.26002 57.79H41.62C42.94 57.79 43.6 57.13 43.6 55.81V46.69C43.6 45.37 42.94 44.71 41.62 44.71H16.56V4.26003C16.56 2.94002 15.9 2.28001 14.58 2.28001L14.56 2.27002Z" fill="#231F20"/>
<path d="M3.96999 56.51C3.55999 56.51 3.36998 56.37 3.24998 56.25C3.06998 56.07 2.98999 55.87 2.98999 55.61V3.98C2.98999 3.21 3.19999 3 3.96999 3H14.28C15.05 3 15.26 3.21 15.26 3.98V44.43C15.26 44.98 15.71 45.43 16.26 45.43H41.32C42.09 45.43 42.3 45.64 42.3 46.41V55.53C42.3 56.3 42.09 56.51 41.32 56.51H3.95999H3.96999Z" fill="#FC0B50"/>
<path d="M14.26 3.98999V44.42C14.26 45.52 15.16 46.42 16.26 46.42H41.31V55.51H3.98999V3.98999H14.27M14.28 1.98999H3.96999C2.64999 1.98999 1.98999 2.64999 1.98999 3.96999V55.6C1.98999 56.13 2.16999 56.58 2.54999 56.95C2.91999 57.32 3.39999 57.51 3.97999 57.51H41.34C42.66 57.51 43.32 56.85 43.32 55.53V46.41C43.32 45.09 42.66 44.43 41.34 44.43H16.28V3.97998C16.28 2.65998 15.62 1.99998 14.3 1.99998L14.28 1.98999Z" fill="#231F20"/>
<path d="M3.67995 56.23C3.26995 56.23 3.07995 56.09 2.95995 55.97C2.77995 55.79 2.69995 55.59 2.69995 55.33V3.70003C2.69995 2.93003 2.90995 2.72003 3.67995 2.72003H13.99C14.76 2.72003 14.9699 2.93003 14.9699 3.70003V44.15C14.9699 44.7 15.4199 45.15 15.9699 45.15H41.03C41.8 45.15 42.0099 45.36 42.0099 46.13V55.25C42.0099 56.02 41.8 56.23 41.03 56.23H3.66995H3.67995Z" fill="#FC0B50"/>
<path d="M13.9799 3.70001V44.13C13.9799 45.23 14.8799 46.13 15.9799 46.13H41.03V55.22H3.70995V3.70001H13.99M13.99 1.70001H3.67995C2.35995 1.70001 1.69995 2.36002 1.69995 3.68002V55.31C1.69995 55.84 1.87995 56.29 2.25995 56.66C2.62995 57.03 3.10995 57.22 3.68995 57.22H41.0499C42.3699 57.22 43.03 56.56 43.03 55.24V46.12C43.03 44.8 42.3699 44.14 41.0499 44.14H15.99V3.69002C15.99 2.37002 15.3299 1.71002 14.0099 1.71002L13.99 1.70001Z" fill="#231F20"/>
<path d="M3.39992 55.94C2.98992 55.94 2.79992 55.8 2.67992 55.68C2.49992 55.5 2.41992 55.3 2.41992 55.04V3.40999C2.41992 2.63999 2.62992 2.42999 3.39992 2.42999H13.7099C14.4799 2.42999 14.6899 2.63999 14.6899 3.40999V43.86C14.6899 44.41 15.1399 44.86 15.6899 44.86H40.7499C41.5199 44.86 41.7299 45.07 41.7299 45.84V54.96C41.7299 55.73 41.5199 55.94 40.7499 55.94H3.38992H3.39992Z" fill="#FC0B50"/>
<path d="M13.6899 3.41998V43.85C13.6899 44.95 14.5899 45.85 15.6899 45.85H40.7399V54.94H3.41992V3.41998H13.6999M13.7099 1.41998H3.39992C2.07992 1.41998 1.41992 2.07999 1.41992 3.39999V55.03C1.41992 55.56 1.59992 56.01 1.97992 56.38C2.34992 56.75 2.82992 56.94 3.40992 56.94H40.7699C42.0899 56.94 42.7499 56.28 42.7499 54.96V45.84C42.7499 44.52 42.0899 43.86 40.7699 43.86H15.7099V3.40999C15.7099 2.08999 15.0499 1.42999 13.7299 1.42999L13.7099 1.41998Z" fill="#231F20"/>
<path d="M3.10988 55.66C2.69988 55.66 2.50988 55.52 2.38988 55.4C2.20988 55.22 2.12988 55.02 2.12988 54.76V3.13002C2.12988 2.36002 2.33988 2.15002 3.10988 2.15002H13.4199C14.1899 2.15002 14.3999 2.36002 14.3999 3.13002V43.58C14.3999 44.13 14.8499 44.58 15.3999 44.58H40.4599C41.2299 44.58 41.4399 44.79 41.4399 45.56V54.68C41.4399 55.45 41.2299 55.66 40.4599 55.66H3.09988H3.10988Z" fill="#FC0B50"/>
<path d="M13.4099 3.14001V43.57C13.4099 44.67 14.3099 45.57 15.4099 45.57H40.4599V54.66H3.13989V3.14001H13.4199M13.4299 1.14001H3.11989C1.79989 1.14001 1.13989 1.80003 1.13989 3.12003V54.75C1.13989 55.28 1.31989 55.73 1.69989 56.1C2.06989 56.47 2.54989 56.66 3.12989 56.66H40.4899C41.8099 56.66 42.4699 56 42.4699 54.68V45.56C42.4699 44.24 41.8099 43.58 40.4899 43.58H15.4299V3.13002C15.4299 1.81002 14.7699 1.15002 13.4499 1.15002L13.4299 1.14001Z" fill="#231F20"/>
<path d="M2.83009 55.38C2.42009 55.38 2.23009 55.24 2.11009 55.12C1.93009 54.94 1.8501 54.74 1.8501 54.48V2.84999C1.8501 2.07999 2.06009 1.87 2.83009 1.87H13.1401C13.9101 1.87 14.1201 2.07999 14.1201 2.84999V43.3C14.1201 43.85 14.5701 44.3 15.1201 44.3H40.1801C40.9501 44.3 41.1601 44.51 41.1601 45.28V54.4C41.1601 55.17 40.9501 55.38 40.1801 55.38H2.82009H2.83009Z" fill="#FC0B50"/>
<path d="M13.1301 2.85004V43.28C13.1301 44.38 14.0301 45.28 15.1301 45.28H40.1801V54.37H2.86009V2.85004H13.1401M13.1401 0.850037H2.83009C1.51009 0.850037 0.850098 1.51003 0.850098 2.83003V54.46C0.850098 54.99 1.0301 55.44 1.4101 55.81C1.7801 56.18 2.2601 56.37 2.8401 56.37H40.2001C41.5201 56.37 42.1801 55.71 42.1801 54.39V45.27C42.1801 43.95 41.5201 43.29 40.2001 43.29H15.1401V2.84003C15.1401 1.52003 14.4801 0.860031 13.1601 0.860031L13.1401 0.850037Z" fill="#231F20"/>
<path d="M2.55007 55.09C2.14007 55.09 1.95007 54.95 1.83007 54.83C1.65007 54.65 1.57007 54.45 1.57007 54.19V2.56001C1.57007 1.79001 1.78007 1.58002 2.55007 1.58002H12.8601C13.6301 1.58002 13.8401 1.79001 13.8401 2.56001V43.01C13.8401 43.56 14.2901 44.01 14.8401 44.01H39.9001C40.6701 44.01 40.8801 44.22 40.8801 44.99V54.11C40.8801 54.88 40.6701 55.09 39.9001 55.09H2.54007H2.55007Z" fill="#FC0B50"/>
<path d="M12.8401 2.57001V43C12.8401 44.1 13.7401 45 14.8401 45H39.8901V54.09H2.57007V2.57001H12.8501M12.8601 0.570007H2.55007C1.23007 0.570007 0.570068 1.23 0.570068 2.55V54.18C0.570068 54.71 0.750074 55.16 1.13007 55.53C1.50007 55.9 1.98007 56.09 2.56007 56.09H39.9201C41.2401 56.09 41.9001 55.43 41.9001 54.11V44.99C41.9001 43.67 41.2401 43.01 39.9201 43.01H14.8601V2.56C14.8601 1.24 14.2001 0.580002 12.8801 0.580002L12.8601 0.570007Z" fill="#231F20"/>
<path d="M2.26003 54.81C1.85003 54.81 1.66002 54.67 1.54002 54.55C1.36002 54.37 1.28003 54.17 1.28003 53.91V2.27998C1.28003 1.50998 1.49003 1.29999 2.26003 1.29999H12.57C13.34 1.29999 13.55 1.50998 13.55 2.27998V42.73C13.55 43.28 14 43.73 14.55 43.73H39.61C40.38 43.73 40.59 43.94 40.59 44.71V53.83C40.59 54.6 40.38 54.81 39.61 54.81H2.25002H2.26003Z" fill="#FC0B50"/>
<path d="M12.56 2.28998V42.72C12.56 43.82 13.46 44.72 14.56 44.72H39.61V53.81H2.29004V2.28998H12.57M12.58 0.289978H2.27004C0.950042 0.289978 0.290039 0.949974 0.290039 2.26997V53.9C0.290039 54.43 0.470044 54.88 0.850044 55.25C1.22004 55.62 1.70004 55.81 2.28004 55.81H39.64C40.96 55.81 41.62 55.15 41.62 53.83V44.71C41.62 43.39 40.96 42.73 39.64 42.73H14.58V2.27997C14.58 0.959968 13.92 0.299973 12.6 0.299973L12.58 0.289978Z" fill="#231F20"/>
<path d="M1.98 54.53C1.57 54.53 1.38 54.39 1.26 54.27C1.08 54.09 1 53.89 1 53.63V2.00002C1 1.23002 1.21 1.02002 1.98 1.02002H12.29C13.06 1.02002 13.27 1.23002 13.27 2.00002V42.45C13.27 43 13.72 43.45 14.27 43.45H39.33C40.1 43.45 40.31 43.66 40.31 44.43V53.55C40.31 54.32 40.1 54.53 39.33 54.53H1.97H1.98Z" fill="#FC0B50"/>
<path d="M12.27 2V42.43C12.27 43.53 13.17 44.43 14.27 44.43H39.32V53.52H2V2H12.28M12.29 0H1.98C0.660003 0 0 0.659996 0 1.98V53.61C0 54.14 0.180005 54.59 0.560005 54.96C0.930005 55.33 1.41001 55.52 1.99001 55.52H39.35C40.67 55.52 41.33 54.86 41.33 53.54V44.42C41.33 43.1 40.67 42.44 39.35 42.44H14.29V1.99001C14.29 0.670005 13.63 0.0100098 12.31 0.0100098L12.29 0Z" fill="#231F20"/>
</svg>
