<svg width="46" height="41" viewBox="0 0 46 41" fill="none" xmlns="http://www.w3.org/2000/svg">
<path d="M21.1 28.71C21.1 28.49 21.05 28.29 20.94 28.1C20.83 27.91 20.78 27.76 20.78 27.65C20.78 27.11 20.62 26.75 20.29 26.59C20.18 26.54 19.94 26.16 19.56 25.45C19.18 24.75 18.94 24.34 18.83 24.23C18.61 23.96 18.19 23.2 17.57 21.95C16.95 20.7 16.63 20 16.63 19.83C16.63 19.61 16.55 19.5 16.39 19.5C16.28 19.5 16.23 19.39 16.23 19.17C16.23 18.95 16.12 18.63 15.9 18.19C15.52 17.38 15.33 16.81 15.33 16.48C15.33 16.37 15.19 16.32 14.92 16.32C14.7 16.32 14.58 16.44 14.55 16.69C14.52 16.93 14.51 17.71 14.51 19.01C14.51 20.86 14.46 21.81 14.35 21.86C14.19 21.91 14.11 22.43 14.11 23.41C14.11 24.39 14.03 24.9 13.87 24.96C13.76 25.01 13.71 26.02 13.71 27.97C13.71 29.92 13.76 30.85 13.87 30.9C14.03 31.01 14.11 31.44 14.11 32.2C14.11 32.85 14.24 33.5 14.52 34.15C14.79 34.8 15.12 35.21 15.5 35.37C16.69 36.02 17.29 36.7 17.29 37.41C17.29 37.95 16.99 38.52 16.39 39.12C15.79 39.72 15.36 40.02 15.09 40.02C14.82 40.02 14.66 40.07 14.6 40.18C14.44 40.34 13.89 40.42 12.97 40.42C11.99 40.42 11.29 40.26 10.85 39.93C10.36 39.6 9.86997 39.44 9.37997 39.44C8.88997 39.44 8.4 39.6 7.91 39.93C7.26 40.42 6.52999 40.66 5.70999 40.66C4.78999 40.66 4.19001 40.39 3.92001 39.85C3.49001 38.87 3.46 38.3 3.84 38.14C3.95 38.09 4.00003 37.98 4.00003 37.81C3.89003 37.27 4.10999 36.78 4.64999 36.34C4.91999 36.07 5.59997 35.69 6.68997 35.2C7.76997 34.71 8.42998 34.22 8.63998 33.73C8.79998 33.35 8.90002 32.89 8.93002 32.35C8.96002 31.81 8.89001 31.48 8.73001 31.37C8.57001 31.26 8.48001 28.93 8.48001 24.37C8.48001 19.81 8.56001 17.34 8.73001 17.28C8.89001 17.23 8.97 16.79 8.97 15.98C8.97 15.27 8.89001 14.87 8.73001 14.76C8.62001 14.71 8.56998 13.97 8.56998 12.56C8.56998 11.15 8.48999 10.5 8.32999 10.44C8.16999 10.39 8.16999 10.28 8.32999 10.11C8.48999 9.95002 8.56998 9.54001 8.56998 8.89001C8.56998 7.97001 8.46002 7.39999 8.24002 7.17999C7.48002 6.57999 6.52998 6.28 5.38998 6.28C5.05998 6.28 4.77002 6.21002 4.49002 6.08002C4.22002 5.95002 3.88998 5.85001 3.50998 5.79001C2.79998 5.68001 2.42 5.57002 2.37 5.46002C2.26 5.30002 2.15001 5.22 2.04001 5.22C1.93001 5.22 1.54999 4.95 0.899994 4.41C0.299994 3.81 0 3.24001 0 2.70001C0 1.83001 0.410001 1.21002 1.22 0.830017C1.65 0.610017 2.95997 0.5 5.12997 0.5C6.64997 0.5 7.45998 0.580021 7.56998 0.740021C7.72998 0.900021 7.95 0.980011 8.22 0.980011C8.6 0.980011 9.21002 0.829999 10.05 0.529999C10.89 0.229999 11.34 0.0800171 11.39 0.0800171C11.61 0.0300171 12.04 0 12.69 0C14.81 0 16.25 0.190007 17.01 0.570007C18.15 1.11001 18.83 1.95 19.05 3.09C19.16 3.53 19.27 3.74002 19.38 3.74002C19.54 3.74002 19.63 3.87999 19.63 4.14999C19.63 4.47999 19.98 5.21001 20.69 6.35001C21.4 7.49001 21.77 8.2 21.83 8.47C21.83 8.52 21.95 8.69002 22.2 8.96002C22.45 9.23002 22.57 9.42 22.57 9.53C22.57 9.64 22.75 9.88001 23.1 10.26C23.45 10.64 23.63 10.88 23.63 10.99C23.63 11.15 23.81 11.6 24.16 12.33C24.51 13.06 24.82 13.59 25.1 13.92C25.37 14.36 25.48 14.57 25.43 14.57C26.24 16.04 26.65 16.88 26.65 17.09C26.65 17.25 26.7 17.33 26.81 17.33C26.92 17.33 27.14 17.68 27.46 18.39C27.89 19.69 28.27 20.34 28.6 20.34C28.71 20.34 28.76 20.42 28.76 20.58C28.76 20.74 28.88 21.06 29.13 21.52C29.37 21.98 29.55 22.27 29.66 22.37C29.93 22.64 30.35 23.33 30.92 24.45C31.49 25.56 31.8 26.15 31.86 26.2L32.35 26.69C32.57 21.15 32.68 16.32 32.68 12.19C32.68 8.06 32.54 5.73001 32.27 5.51001C31.94 5.29001 31.56 5.17999 31.13 5.17999C30.15 5.17999 29.66 4.77002 29.66 3.96002V3.47C29.71 2.55 29.96 1.94001 30.39 1.64001C30.82 1.34001 31.66 1.14 32.91 1.03C34.1 0.919999 34.75 0.810012 34.86 0.700012C34.97 0.590012 36.49 0.540009 39.42 0.540009H43.82C44.47 1.03001 45.09 1.57001 45.69 2.17001L45.28 2.89999C45.01 3.33999 44.17 3.91002 42.76 4.61002C42.43 4.72002 41.56 4.77002 40.15 4.77002H37.95C37.46 5.96002 37.22 6.72002 37.22 7.05002C37.22 7.38002 37.3 7.57 37.46 7.62C37.62 7.67 37.7 7.89002 37.7 8.27002C37.7 8.65002 37.62 8.84 37.46 8.84C37.35 8.84 37.3 9.57001 37.3 11.04C37.3 12.51 37.35 13.35 37.46 13.4C37.62 13.51 37.7 16.25 37.7 21.63C37.7 27.01 37.75 29.69 37.86 29.69C37.91 29.69 37.98 30.02 38.06 30.67C38.14 31.32 38.24 31.97 38.35 32.62C38.46 33.27 38.51 33.62 38.51 33.68C39.05 34.77 39.32 35.85 39.32 36.94C39.32 37.75 39.29 38.26 39.24 38.45C39.19 38.64 38.97 38.9 38.59 39.22C37.99 39.71 37.64 39.95 37.53 39.95C37.37 39.95 37.29 40 37.29 40.11C37.29 40.16 37.15 40.23 36.88 40.31C36.61 40.39 36.34 40.49 36.07 40.6L35.66 40.76C35.61 40.87 34.71 40.92 32.97 40.92C31.23 40.92 30.42 40.87 30.36 40.76C30.25 40.65 29.95 40.54 29.46 40.43C28.97 40.38 28.13 39.72 26.94 38.48C25.8 37.34 25.23 36.69 25.23 36.53C25.23 36.48 25.04 36.12 24.66 35.47C24.28 34.82 24.09 34.47 24.09 34.41C24.09 34.35 23.98 34.22 23.76 34C23.65 33.89 23.53 33.71 23.39 33.47C23.25 33.23 23.11 32.95 22.94 32.66C22.78 32.36 22.67 32.16 22.61 32.05L22.2 31.32C21.98 30.89 21.77 30.45 21.55 30.02L21.22 29.29C21.11 29.18 21.06 28.96 21.06 28.64L21.1 28.71Z" fill="black"/>
</svg>
