<svg width="54" height="83" viewBox="0 0 54 83" fill="none" xmlns="http://www.w3.org/2000/svg">
<path d="M17.0161 1.37872C18.3761 3.04872 17.7561 4.31872 18.1961 5.93872C21.7961 19.0687 25.4761 32.5187 29.8761 45.3787C31.2461 49.3887 33.2361 53.5087 34.5461 57.4887C34.7461 58.1087 34.7661 58.7187 34.7261 59.3587L35.2361 56.4187C34.7661 45.6587 37.4461 33.4387 37.2461 22.9087C37.2461 22.6787 35.9761 20.0987 35.8461 18.5187C35.7161 16.9387 36.6861 8.63872 35.8561 8.06872C35.1461 7.57872 32.7861 7.7487 31.3461 6.6087C29.5061 5.1487 28.9661 1.39869 31.2861 0.468688C34.2361 -0.711312 41.9561 1.07872 45.3961 1.49872C47.3761 1.74872 49.5361 1.0987 51.5961 2.2887C51.6861 2.3387 52.9261 3.62869 52.9661 3.71869C54.8261 7.72869 48.4561 8.28873 46.8461 10.1387C46.4161 10.6287 45.6561 12.9887 45.5661 13.6987C44.7661 19.8487 45.7361 28.7187 45.5461 35.3087C45.3461 42.3987 44.8161 49.5587 44.7261 56.6087C44.6461 62.7287 44.9561 68.8887 44.4261 74.9987C47.7061 75.1687 54.5261 76.3287 51.5261 81.1087C50.7461 82.3587 41.6461 82.2787 39.8561 81.6387C38.0661 80.9987 35.4761 78.2387 34.4061 76.6387C28.6661 68.0187 23.4861 52.3487 20.6561 42.2887C19.6261 38.6187 18.8661 34.7287 17.9361 31.0187L14.3361 71.8587C14.9161 73.4387 16.3361 72.8787 17.2761 73.2587C18.4061 73.7087 21.1561 75.9387 20.7661 77.2687C20.7061 77.4587 19.5361 79.5987 19.4161 79.6787C18.0661 80.6687 12.8461 79.7487 11.0361 79.7087C7.92607 79.6387 1.44608 80.9387 0.196076 76.9087C-1.13392 72.6387 4.6761 72.1687 6.3761 70.3687C6.7961 69.9287 7.00608 68.7187 7.07608 68.0887C8.55608 55.9087 7.03607 43.8087 7.47607 31.5687C7.70607 25.1187 8.70609 18.6487 8.99609 12.2087C9.02609 11.6187 9.07609 8.85873 8.92609 8.69873C8.78609 8.54873 7.85608 8.63872 7.44608 8.12872C7.01608 7.58872 7.2361 6.62874 7.0661 6.45874C6.1861 5.51874 0.766095 7.34873 1.9661 1.82873C2.6161 -1.16127 6.08609 0.4187 8.05609 0.4187C11.0061 0.4187 15.0461 -1.00127 16.9861 1.38873L17.0161 1.37872Z" fill="#1E161F"/>
</svg>
