<svg width="49" height="78" viewBox="0 0 49 78" fill="none" xmlns="http://www.w3.org/2000/svg">
<path d="M1.02905 14.2317C1.04905 12.4517 0.689048 6.41166 1.21905 5.29166C1.27905 5.17166 2.66905 3.12167 2.77905 3.02167C3.38905 2.48167 4.63907 2.54166 5.20907 2.26166C6.79907 1.50166 6.86905 1.35167 8.93905 0.771668C9.24905 0.681668 9.10906 0.111678 9.75906 0.0316782C11.6791 -0.218322 17.4091 1.05166 18.7891 2.42166C20.3691 5.11166 21.119 8.28166 22.189 11.1417C22.579 12.1817 23.5291 13.0617 23.7691 14.2217C22.6091 14.3817 20.979 13.9717 19.929 14.2317C19.679 14.2917 19.669 14.7917 19.549 14.8417C19.109 15.0117 18.579 14.9117 18.299 15.0917C18.209 15.1517 16.839 16.4517 16.799 16.5517C16.559 17.2317 16.819 17.8417 16.689 18.4417C16.619 18.7717 15.9791 18.3817 15.9091 19.6117C15.8191 21.2617 16.599 20.8617 16.679 21.1917C16.839 21.8517 16.519 24.5117 16.689 24.6617C16.799 24.7517 17.519 24.5617 17.869 24.6817C18.619 24.9317 18.6491 26.5617 20.1591 26.1517C20.4291 26.0817 20.3691 25.4817 20.6591 25.4117C21.2591 25.2817 21.869 25.5417 22.549 25.2917C22.979 25.1417 23.609 22.9817 25.619 23.9017L24.1291 23.1617L26.369 22.7817C27.849 27.5217 29.1491 32.2817 30.5791 37.0317C30.6991 37.4217 30.6791 38.1617 31.2091 38.0717C31.9791 34.5117 31.4491 30.7117 31.5691 27.0617C31.6891 23.6217 32.119 20.0617 32.189 16.5717C32.249 13.6217 31.3691 9.90167 32.3391 7.02167C32.4891 6.58167 33.0491 6.78168 33.0691 6.75168C33.9191 6.64168 35.009 6.93168 35.799 6.75168C36.079 6.68168 36.029 6.09167 36.309 6.02167C36.819 5.90167 38.1891 6.13167 38.2891 6.02167C38.3891 5.91167 38.169 5.16166 38.299 4.82166C38.429 4.48166 38.9591 4.54168 39.0191 4.28168C39.2291 3.40168 38.8991 2.14167 39.0191 1.18167C41.5691 0.691672 46.0991 0.101657 47.2191 3.04166V9.75168C47.0291 9.94168 43.7891 9.57168 43.0091 9.75168C42.8791 9.78168 41.2091 11.1217 40.9591 11.2117C40.6291 11.3417 39.9091 11.1117 39.7791 11.2417C39.6491 11.3717 39.879 12.1017 39.749 12.4317C39.599 12.8217 39.079 12.5917 38.989 13.2517C38.859 14.1917 38.859 17.2017 38.989 18.1517C39.069 18.7817 39.5491 18.5817 39.7291 18.9917C39.8491 19.2617 39.6891 19.7517 39.8791 20.0617C39.9391 20.1617 41.4091 21.6317 41.5191 21.6617C43.0391 22.0417 43.1991 20.3117 43.7591 20.1917C44.8891 19.9617 46.3991 20.3117 47.5891 20.1717C47.5091 21.3917 46.8691 24.8817 46.9091 25.1317C46.9791 25.5917 47.6991 25.9317 47.6291 27.0717C47.4291 30.5317 46.7091 34.2617 46.4691 38.0717C44.7491 38.2917 42.3791 37.7617 40.7691 38.0917C40.6091 38.1217 38.4691 40.2917 38.3791 40.4317C38.1891 40.7317 38.3491 41.2317 38.2291 41.5017C38.0491 41.9117 37.589 41.7017 37.489 42.3517C37.209 44.0817 38.0291 43.9217 38.1391 44.1717C38.3791 44.7317 38.8791 46.5017 39.1291 46.9117C39.1891 47.0117 40.6591 48.4817 40.7691 48.5017C43.9791 49.1717 43.4391 47.3617 45.7191 46.2817C45.2791 51.0517 45.2991 56.9116 45.3291 61.7716C45.3491 64.2816 46.2991 67.5617 45.1491 70.1317C45.0491 70.3417 42.6491 73.0717 42.4591 73.1217C42.0691 73.2317 41.4991 73.0216 41.0991 73.1516C40.5091 73.3316 40.0891 73.7316 39.5391 73.8416C36.9991 74.3516 32.609 75.3017 30.809 73.3117C28.839 71.1217 27.449 66.4116 26.299 63.7216C23.499 57.1416 20.3691 49.9817 17.3791 43.2917C18.0991 43.4717 17.979 42.8317 18.429 42.5817C19.229 42.1317 21.2091 41.4317 22.1291 41.0717C23.3991 40.5717 23.5091 41.8217 23.3391 38.8217L23.8991 39.9417C24.2691 39.9417 23.7791 38.5117 24.8291 38.8117C24.9191 38.0717 23.9091 38.7917 24.0891 38.0817C25.1091 38.2417 24.8691 37.4317 24.8391 36.5817L25.5791 37.3217C25.4991 36.5417 25.709 35.6217 25.609 34.8717C25.519 34.1817 24.9091 34.3917 24.8391 34.0817C24.7091 33.4917 24.9291 32.9217 24.7191 32.1917C24.3291 30.8817 21.579 31.5617 20.619 31.3417C20.319 31.2717 20.5291 30.6917 19.8191 30.5717C18.0791 30.3017 18.219 31.1317 17.999 31.2217C17.569 31.3917 17.0391 31.2917 16.7591 31.4817C15.8791 32.0517 16.0491 32.7217 15.7591 33.4717C15.4091 34.3917 15.4291 34.2517 15.1391 35.5817C15.0391 36.0417 14.0091 36.4817 14.3991 38.8217C15.0491 42.7117 14.5091 43.8217 14.3891 47.5717C14.2691 51.3217 14.4391 55.1816 14.3991 58.9616C13.5291 58.7616 13.8691 59.6917 13.0991 59.7417C11.8991 59.8217 12.239 59.0616 11.919 58.9616C10.659 58.6016 10.689 59.5117 10.549 59.5817C9.83903 59.8917 9.15904 59.6717 8.55904 60.5817C8.35904 60.8917 8.50907 61.3717 8.39907 61.6417C8.21907 62.0517 7.73908 61.8517 7.65908 62.4817C7.57908 63.0617 7.56906 64.8917 7.69906 65.4117C7.75906 65.6617 8.25904 65.6717 8.30904 65.8017C9.03904 67.6317 9.05906 67.4517 10.5091 68.8317C10.6991 69.0117 10.6891 69.8717 11.3891 69.3717C11.4491 69.3317 11.3291 68.7417 11.6591 68.6617C12.3991 68.4717 13.5691 68.7917 14.3991 68.6617C14.3691 69.5617 14.5891 70.7517 14.2891 71.5517C14.2591 71.6217 13.2891 72.2317 13.0691 72.5417C12.8291 72.8617 12.7991 73.4017 12.5391 73.6917C10.9991 75.4317 10.399 75.2917 8.43905 76.1317L6.20907 76.5017C6.77907 74.9717 5.61908 74.7217 5.46908 74.3517C5.33908 74.0117 5.55906 73.2716 5.44906 73.1516C5.39906 73.1016 4.01905 73.0916 3.96905 73.1516C3.82905 73.2816 4.06905 75.5917 3.96905 76.1317C3.74905 75.9117 2.65905 74.6416 2.59905 74.5316C2.02905 73.4316 3.31907 72.8616 0.619072 73.1516C-0.430928 65.8516 -0.0409436 56.3717 1.00906 49.1217C1.30906 47.0517 0.509044 46.4617 0.309044 45.2917C0.249044 44.9117 0.939056 44.3117 1.00906 43.5217C1.55906 37.3317 0.959067 29.5717 0.989067 23.1817C1.73907 22.9217 1.67907 23.8517 1.98907 23.9217C2.49907 24.0317 3.95907 24.0417 4.45907 23.9217C4.70907 23.8617 4.70907 23.3717 4.83907 23.3117C6.71907 22.5417 9.85904 21.6317 9.17904 18.9717C9.10904 18.6917 8.51906 18.7317 8.44906 18.4617C8.10906 17.0517 9.13905 15.3617 7.56905 14.3717C7.25905 14.1717 6.74906 14.3217 6.32906 14.1117C6.13906 14.0217 5.94907 13.0217 4.70907 13.4917L5.44906 12.7517C4.27906 12.1717 3.86907 13.4617 3.70907 13.4917C3.14907 13.6017 2.52906 13.3917 1.97906 13.4917C1.66906 13.5517 1.72906 14.5017 0.979058 14.2317H1.02905ZM7.63906 44.1817C5.83906 43.3617 3.11906 46.0917 3.25906 47.7917L2.51907 47.0517C2.72907 48.4917 2.20907 50.7017 2.51907 52.0117C2.57907 52.2617 3.07905 52.2717 3.12905 52.4017C3.29905 52.8317 3.19905 53.3817 3.37905 53.6517C3.55905 53.9217 4.56906 54.4517 4.63906 54.6217C4.84906 55.1017 4.67905 55.9217 4.74905 56.0017C4.87905 56.1517 7.84908 55.9117 8.46908 56.0017L7.72909 55.2617C9.91909 56.0217 9.80908 53.2017 9.96908 53.0217C10.1091 52.8617 12.0691 53.1617 12.2091 53.0217C12.3191 52.9117 12.0891 51.5517 12.2091 51.0317C12.2791 50.7417 12.8691 50.8017 12.9491 50.5417C13.3391 49.2017 12.2691 49.3117 12.2091 49.0417C12.0191 48.1917 12.4191 47.2717 12.0891 46.4017C12.0491 46.2917 10.549 44.8517 10.439 44.8317C9.63905 44.6817 8.72909 44.9817 7.97909 44.8117C7.71909 44.7517 7.72905 44.2417 7.62905 44.1917L7.63906 44.1817ZM29.359 45.5617C28.809 44.8217 28.5891 46.2517 28.3491 46.3117C27.9791 46.3917 27.2291 46.2117 27.1291 46.3117C26.9891 46.4417 27.2791 47.6617 27.1291 47.8017C27.0291 47.8917 25.1191 47.7617 24.9091 48.8217C24.7791 49.4717 24.7591 52.1717 24.9091 52.7617C24.9691 53.0117 25.4691 53.0217 25.5191 53.1517C26.2491 54.9717 26.359 55.9217 29.119 55.2517C29.299 55.2117 29.649 53.9717 30.869 54.5117L30.1291 53.7717C31.0291 54.2917 33.6991 53.1317 33.0791 52.3017C33.0291 52.2417 32.5691 52.3317 32.4791 52.1917C32.2691 51.8817 32.2691 49.3317 32.3791 48.8017C32.4191 48.6317 33.689 48.2317 33.109 47.0517L32.369 47.7917C32.299 47.4317 32.469 46.4017 32.369 46.3017C32.289 46.2217 30.2091 46.2217 30.1291 46.3017C29.3791 47.1017 30.839 47.9417 30.869 48.0517C31.689 51.5617 29.3691 49.6817 27.8991 48.5317L28.6391 47.6117L27.5191 47.4217L29.3791 47.0517C29.3091 46.6717 29.4891 45.7117 29.3791 45.5617H29.359ZM38.2091 60.6017C37.5991 60.3817 36.2091 60.3417 35.5991 60.4917C35.3491 60.5517 35.3391 61.0517 35.2191 61.1017C34.7791 61.2717 34.2391 61.1717 33.9691 61.3517C33.6491 61.5517 32.4391 63.2817 32.2591 63.3617C31.7991 63.5717 30.9791 63.3817 30.8791 63.4817C30.7491 63.6117 30.9791 64.3417 30.8491 64.6717C30.7091 65.0317 30.1991 64.9516 30.1291 65.2216C29.6191 67.1816 30.809 67.2517 30.859 67.4517C31.079 68.4517 31.1291 69.8617 31.7291 70.8117C31.7891 70.9117 33.249 72.3817 33.359 72.4117C34.759 72.7517 34.5391 71.7517 34.8391 71.6817C35.5891 71.5117 36.499 71.8117 37.299 71.6617C37.579 71.6117 38.2691 70.3417 38.4091 70.2917C39.0791 70.0517 39.6791 70.3017 40.2891 70.1717C40.4091 70.1417 42.0091 68.5417 42.0291 68.4217C42.4991 66.4017 41.359 66.4317 41.309 66.2017C40.989 64.7817 41.269 64.8317 40.679 63.3517C40.509 62.9217 40.609 62.3917 40.429 62.1117C39.859 61.2417 39.199 61.3917 38.439 61.1117C38.309 61.0617 38.2891 60.6517 38.2091 60.6217V60.6017Z" fill="#EF5268"/>
<path d="M14.4491 38.8417C14.0591 36.5117 15.0891 36.0717 15.1891 35.6017C15.4791 34.2717 15.4591 34.4117 15.8091 33.4917C16.0891 32.7517 15.9291 32.0817 16.8091 31.5017C17.0891 31.3217 17.6191 31.4217 18.0491 31.2417C18.2691 31.1517 18.1291 30.3217 19.8691 30.5917C20.5791 30.7017 20.3691 31.2917 20.6691 31.3617C21.6291 31.5817 24.3791 30.9017 24.7691 32.2117C24.9891 32.9317 24.7691 33.5117 24.8891 34.1017C24.9591 34.4117 25.5691 34.1917 25.6591 34.8917C25.7591 35.6417 25.5391 36.5517 25.6291 37.3417L24.8891 36.6017C24.9291 37.4417 25.1691 38.2617 24.1391 38.1017C23.9591 38.8217 24.9591 38.1017 24.8791 38.8317C23.8291 38.5317 24.3291 39.9517 23.9491 39.9617L23.3891 38.8417C23.5591 41.8417 23.4491 40.5917 22.1791 41.0917C21.2591 41.4517 19.2791 42.1517 18.4791 42.6017C18.0191 42.8617 18.1391 43.4917 17.4291 43.3117C17.0291 42.4217 16.4491 41.2117 16.1091 40.3417C15.5591 38.9217 16.7391 37.9017 14.4491 38.8417Z" fill="#F9B027"/>
<path d="M23.7691 14.2317C23.8891 14.8317 23.629 15.6917 23.739 16.2617C23.819 16.6917 24.6891 16.3317 24.8391 16.4917C24.9891 16.6517 24.8191 17.8617 24.9691 18.4317C25.3391 19.8517 25.939 21.4217 26.369 22.8117L24.129 23.1917L25.619 23.9317C23.609 23.0117 22.979 25.1617 22.549 25.3217C21.859 25.5617 21.2591 25.3017 20.6591 25.4417C20.3691 25.5017 20.4291 26.1117 20.1591 26.1817C18.6491 26.5917 18.619 24.9617 17.869 24.7117C17.519 24.5917 16.789 24.7817 16.689 24.6917C16.519 24.5417 16.839 21.8817 16.679 21.2217C16.599 20.8917 15.8191 21.2917 15.9091 19.6417C15.9791 18.4117 16.609 18.8017 16.689 18.4717C16.819 17.8717 16.559 17.2617 16.799 16.5817C16.839 16.4817 18.209 15.1717 18.299 15.1217C18.579 14.9417 19.119 15.0517 19.549 14.8717C19.679 14.8217 19.689 14.3217 19.929 14.2617C20.979 14.0017 22.6091 14.4117 23.7691 14.2517V14.2317Z" fill="#F9B027"/>
<path d="M47.2591 3.04163C47.9991 4.98163 47.6191 8.44163 47.6191 10.7016C47.6191 12.6216 47.6591 12.6016 47.4091 14.4916C47.1291 16.5816 48.0091 16.4616 48.0491 17.0116C48.1291 17.9416 47.6991 19.1416 47.6291 20.2016C46.4391 20.3416 44.9291 19.9916 43.7991 20.2216C43.2391 20.3316 43.0791 22.0617 41.5591 21.6917C41.4491 21.6617 39.9791 20.1916 39.9191 20.0916C39.7291 19.7816 39.8891 19.2916 39.7691 19.0216C39.5891 18.6116 39.1091 18.8116 39.0291 18.1816C38.8991 17.2316 38.8991 14.2316 39.0291 13.2816C39.1191 12.6116 39.6392 12.8416 39.7892 12.4616C39.9192 12.1316 39.6891 11.4016 39.8191 11.2716C39.9491 11.1416 40.6691 11.3716 40.9991 11.2416C41.2491 11.1416 42.9191 9.81165 43.0491 9.78165C43.8291 9.59165 47.0791 9.96165 47.2591 9.78165V3.07162V3.04163ZM46.5191 10.5016C45.3091 10.2916 43.6291 10.5016 43.5591 11.9716C45.1891 13.4516 46.6491 12.5516 46.5191 10.5016Z" fill="#F9B027"/>
<path d="M46.5191 38.1016C46.3391 40.9816 46.0391 43.5017 45.7691 46.3017C43.4891 47.3817 44.0291 49.1917 40.8191 48.5217C40.7091 48.5017 39.2391 47.0317 39.1791 46.9317C38.9291 46.5217 38.4191 44.7517 38.1891 44.1917C38.0891 43.9417 37.2591 44.1117 37.5391 42.3717C37.6391 41.7217 38.0991 41.9317 38.2791 41.5217C38.3991 41.2617 38.2391 40.7616 38.4291 40.4516C38.5191 40.3116 40.6491 38.1516 40.8191 38.1116C42.4291 37.7816 44.7991 38.3117 46.5191 38.0917V38.1016Z" fill="#F9B027"/>
<path d="M1.02895 14.2316C1.77895 14.4916 1.71895 13.5517 2.02895 13.4917C2.57895 13.3817 3.19896 13.5917 3.75896 13.4917C3.91896 13.4617 4.33895 12.1817 5.49895 12.7517L4.75896 13.4917C5.98896 13.0217 6.18896 14.0216 6.37896 14.1116C6.79896 14.3116 7.30895 14.1717 7.61895 14.3717C9.18895 15.3617 8.15895 17.0517 8.49895 18.4617C8.56895 18.7417 9.14899 18.6917 9.22899 18.9717C9.90899 21.6317 6.75897 22.5517 4.88897 23.3117C4.75897 23.3617 4.75896 23.8616 4.50896 23.9216C4.01896 24.0416 2.54896 24.0416 2.03896 23.9216C1.72896 23.8516 1.78896 22.9217 1.03896 23.1817C1.04896 20.2017 1.00896 17.2116 1.03896 14.2316H1.02895Z" fill="#F9B027"/>
<path d="M14.4491 68.6716C13.6191 68.8016 12.4491 68.4716 11.7091 68.6716C11.3791 68.7616 11.499 69.3416 11.439 69.3816C10.739 69.8816 10.749 69.0216 10.559 68.8416C9.10904 67.4616 9.08903 67.6416 8.35903 65.8116C8.30903 65.6816 7.80905 65.6716 7.74905 65.4216C7.61905 64.9016 7.62907 63.0716 7.70907 62.4916C7.78907 61.8616 8.27906 62.0616 8.44906 61.6516C8.55906 61.3816 8.40903 60.9016 8.60903 60.5916C9.19903 59.6816 9.88908 59.9016 10.5991 59.5916C10.7491 59.5316 10.7091 58.6116 11.9691 58.9716C12.2891 59.0616 11.9391 59.8316 13.1491 59.7516C13.9191 59.7016 13.5791 58.7716 14.4491 58.9716C14.4191 62.1916 14.5591 65.4516 14.4491 68.6716Z" fill="#F9B027"/>
<path d="M39.0591 1.18164C38.9291 2.13164 39.2591 3.40165 39.0591 4.28165C38.9991 4.54165 38.4692 4.47162 38.3392 4.82162C38.2092 5.17162 38.4292 5.91164 38.3292 6.02164C38.2192 6.14164 36.8592 5.91164 36.3492 6.02164C36.0692 6.09164 36.1192 6.68165 35.8392 6.75165C35.0492 6.94165 33.9591 6.65165 33.1091 6.75165C33.1591 6.66165 33.0692 5.84165 33.3392 5.31165C34.6692 2.60165 36.1592 1.72162 39.0792 1.16162L39.0591 1.18164Z" fill="#F9B027"/>
<path d="M0.659149 73.1517C3.35915 72.8617 2.06916 73.4317 2.63916 74.5317C2.69916 74.6417 3.79916 75.9217 4.00916 76.1317C4.10916 75.5817 3.87916 73.2717 4.00916 73.1517C4.05916 73.1017 5.43914 73.1017 5.48914 73.1517C5.59914 73.2717 5.37916 74.0117 5.50916 74.3517C5.64916 74.7217 6.81915 74.9717 6.24915 76.5017L8.47919 76.1317C7.25919 76.6517 6.76917 76.5917 5.76917 76.9017C5.41917 77.0117 5.43916 78.1117 3.51917 77.6117C3.26917 77.5417 3.25915 77.0617 3.12915 77.0117C2.69915 76.8417 2.16916 76.9417 1.88916 76.7617C0.72916 76.0317 0.81917 74.3717 0.64917 73.1617L0.659149 73.1517Z" fill="#F9B027"/>
<path d="M38.209 60.6016C38.299 60.6316 38.319 61.0516 38.439 61.0916C39.189 61.3716 39.859 61.2216 40.429 62.0916C40.619 62.3716 40.509 62.9017 40.679 63.3317C41.269 64.8217 40.989 64.7616 41.309 66.1816C41.359 66.4116 42.499 66.3816 42.029 68.4016C41.999 68.5216 40.409 70.1216 40.289 70.1516C39.689 70.2816 39.089 70.0316 38.409 70.2716C38.279 70.3216 37.589 71.5817 37.299 71.6417C36.499 71.7917 35.589 71.4916 34.839 71.6616C34.539 71.7316 34.759 72.7317 33.359 72.3917C33.249 72.3617 31.789 70.8916 31.729 70.7916C31.129 69.8416 31.079 68.4316 30.859 67.4316C30.809 67.2216 29.619 67.1517 30.129 65.2017C30.199 64.9317 30.709 65.0116 30.849 64.6516C30.979 64.3216 30.749 63.6016 30.879 63.4616C30.979 63.3616 31.789 63.5516 32.259 63.3416C32.439 63.2616 33.649 61.5317 33.969 61.3317C34.249 61.1517 34.789 61.2617 35.219 61.0817C35.349 61.0317 35.349 60.5316 35.599 60.4716C36.219 60.3216 37.599 60.3617 38.209 60.5817V60.6016Z" fill="#F9B027"/>
<path d="M7.63902 44.1817C7.73902 44.2217 7.729 44.7417 7.989 44.8017C8.749 44.9717 9.64902 44.6717 10.449 44.8217C10.559 44.8417 12.059 46.2817 12.099 46.3917C12.429 47.2617 12.029 48.1817 12.219 49.0317C12.279 49.3017 13.349 49.1917 12.959 50.5317C12.879 50.7917 12.289 50.7417 12.219 51.0217C12.099 51.5417 12.329 52.8917 12.219 53.0117C12.079 53.1517 10.119 52.8517 9.97905 53.0117C9.81905 53.1917 9.929 56.0117 7.739 55.2517L8.47905 55.9917C7.85905 55.9017 4.88902 56.1417 4.75902 55.9917C4.68902 55.9117 4.85903 55.0917 4.64903 54.6117C4.57903 54.4417 3.56902 53.9117 3.38902 53.6417C3.20902 53.3717 3.31902 52.8217 3.13902 52.3917C3.08902 52.2617 2.589 52.2517 2.529 52.0017C2.209 50.6917 2.729 48.4917 2.529 47.0417L3.26903 47.7817C3.12903 46.0917 5.84903 43.3517 7.64903 44.1717L7.63902 44.1817Z" fill="#F9B027"/>
<path d="M29.3591 45.5617C29.4691 45.7117 29.2891 46.6717 29.3591 47.0517L27.4991 47.4217L28.6191 47.6117L27.8791 48.5317C29.3491 49.6717 31.6792 51.5617 30.8492 48.0517C30.8292 47.9517 29.3591 47.1017 30.1091 46.3017C30.1891 46.2217 32.2692 46.2117 32.3492 46.3017C32.4492 46.4117 32.2792 47.4417 32.3492 47.7917L33.0892 47.0517C33.6592 48.2317 32.3891 48.6217 32.3591 48.8017C32.2491 49.3317 32.2492 51.8817 32.4592 52.1917C32.5492 52.3317 33.0191 52.2417 33.0591 52.3017C33.6791 53.1317 31.0091 54.2917 30.1091 53.7717L30.8492 54.5117C29.6392 53.9717 29.2892 55.2117 29.0992 55.2517C26.3392 55.9217 26.2291 54.9617 25.4991 53.1517C25.4491 53.0217 24.9492 53.0117 24.8892 52.7617C24.7392 52.1717 24.7692 49.4717 24.8892 48.8217C25.0992 47.7617 27.0091 47.8917 27.1091 47.8017C27.2591 47.6617 26.9691 46.4317 27.1091 46.3117C27.2091 46.2217 27.9592 46.4017 28.3292 46.3117C28.5692 46.2517 28.7892 44.8217 29.3392 45.5617H29.3591Z" fill="#F9B027"/>
<path d="M46.5191 10.5017C46.6491 12.5517 45.1891 13.4517 43.5591 11.9717C43.6391 10.5117 45.3091 10.2917 46.5191 10.5017Z" fill="#EF5268"/>
</svg>
