<svg width="57" height="63" viewBox="0 0 57 63" fill="none" xmlns="http://www.w3.org/2000/svg">
<path d="M31.8642 19.475C33.3242 20.475 34.3842 17.955 34.4642 16.725C34.7442 12.365 32.2742 11.855 31.8542 9.60501C30.7242 3.62501 38.6742 -0.994978 43.8742 0.185022C44.1142 0.235022 47.7842 2.46504 48.0642 2.70504C50.8842 5.16504 54.0242 13.525 54.8542 17.175C57.4542 28.625 58.3442 51.455 49.1742 60.145C45.8242 63.315 40.5042 63.785 36.7142 61.055C35.5742 60.235 35.1142 59.065 34.2642 58.285C31.4442 55.685 29.3242 53.955 27.1242 50.505C25.3842 47.775 24.5042 45.645 25.2142 42.145C25.3742 41.355 28.6142 36.905 26.4342 36.675C25.6142 36.585 23.2542 40.585 23.0442 41.475C22.2442 44.895 23.6142 47.955 22.2142 51.835C21.4242 54.035 18.9742 57.285 16.6942 58.245C12.0142 60.205 7.60421 57.595 4.61421 54.005C1.95421 50.825 1.43421 47.935 0.934213 43.885C0.144213 37.525 -0.225796 29.785 0.144204 23.395C0.724204 13.205 8.72421 -5.64501 21.6542 1.90499C25.7242 4.28499 31.4142 10.865 31.7642 15.695C31.8242 16.565 31.1042 18.945 31.8742 19.465L31.8642 19.475ZM9.08421 19.135C9.16421 19.215 10.3642 19.155 10.6842 19.055C11.4842 18.815 13.6442 13.505 14.8442 12.025C15.3342 11.425 18.2542 9.75502 16.5442 8.49502C13.4742 6.24502 9.44422 11.935 8.84422 14.525C8.73422 15.005 8.9142 18.965 9.0742 19.135H9.08421ZM10.5442 25.435C10.7542 25.145 10.1842 23.265 9.84422 23.035C7.05422 21.195 5.58421 26.645 8.80421 26.145C8.98421 26.115 10.4842 25.505 10.5442 25.425V25.435Z" fill="#E9549D"/>
<path d="M9.08414 19.1349C8.92414 18.9749 8.74413 15.0049 8.85413 14.5249C9.44413 11.9349 13.4741 6.24493 16.5541 8.49493C18.2741 9.75493 15.3542 11.4249 14.8542 12.0249C13.6542 13.4949 11.4941 18.8049 10.6941 19.0549C10.3741 19.1549 9.17415 19.2149 9.09415 19.1349H9.08414Z" fill="white"/>
<path d="M10.5442 25.435C10.4842 25.515 8.9942 26.125 8.8042 26.155C5.5742 26.655 7.04421 21.205 9.84421 23.045C10.1842 23.275 10.7542 25.145 10.5442 25.445V25.435Z" fill="white"/>
</svg>
