<svg width="56" height="62" viewBox="0 0 56 62" fill="none" xmlns="http://www.w3.org/2000/svg">
<path d="M42.81 60.2C41.22 60.2 40.1499 59.71 39.5399 58.7L20.82 27.68C20.64 27.37 20.3099 27.2 19.9599 27.2C19.8699 27.2 19.78 27.21 19.69 27.24C19.26 27.36 18.9599 27.75 18.9599 28.2V59.29C18.9599 60.01 18.77 60.19 18.06 60.19H7.66995C6.81995 60.19 6.68994 59.92 6.68994 59.29V7.58C6.68994 7.32 6.76995 7.12 6.94995 6.94C7.06995 6.82 7.25995 6.67999 7.66995 6.67999H21.1499C21.9999 6.67999 22.5599 7.01 22.9699 7.75L40.8299 37.84C41.0099 38.15 41.34 38.33 41.69 38.33C41.78 38.33 41.87 38.32 41.95 38.29C42.38 38.17 42.69 37.78 42.69 37.33V7.59C42.69 7.33 42.77 7.13 42.95 6.95C43.13 6.77 43.3299 6.69 43.5899 6.69H53.9799C54.2599 6.69 54.47 6.78 54.69 6.98C54.88 7.16 54.9699 7.33999 54.9699 7.59999V59.31C54.9699 59.68 54.8399 59.84 54.7199 59.94C54.5099 60.13 54.27 60.21 53.99 60.21H42.81V60.2Z" fill="#FC0B50"/>
<path d="M53.9699 7.67998V59.2H42.7999C41.1999 59.2 40.6699 58.66 40.3899 58.18L21.6699 27.17C21.2999 26.56 20.6499 26.2 19.9599 26.2C19.7799 26.2 19.5999 26.22 19.4199 26.27C18.5499 26.51 17.9599 27.3 17.9599 28.2V59.2H7.67993V7.67998H21.1499C21.6399 7.67998 21.8699 7.80998 22.0999 8.22998C22.1099 8.24998 22.1199 8.26998 22.1299 8.28998L39.9799 38.35C40.3499 38.97 41.01 39.33 41.7 39.33C41.88 39.33 42.0499 39.31 42.2299 39.26C43.0999 39.02 43.7 38.23 43.7 37.33V7.67998H53.9799M53.9899 5.67998H43.5999C43.0699 5.67998 42.6199 5.86997 42.2499 6.23997C41.8799 6.60997 41.6899 7.05998 41.6899 7.58998V37.33L23.8399 7.26999C23.2599 6.20999 22.3599 5.67998 21.1399 5.67998H7.65991C7.07991 5.67998 6.59992 5.86997 6.22992 6.23997C5.85992 6.60997 5.66992 7.05998 5.66992 7.58998V59.3C5.66992 60.57 6.32993 61.2 7.64993 61.2H18.0399C19.3099 61.2 19.9399 60.57 19.9399 59.3V28.21L38.6599 59.22C39.4499 60.54 40.8299 61.2 42.7799 61.2H53.9599C54.4899 61.2 54.9499 61.03 55.3499 60.68C55.7499 60.34 55.9399 59.87 55.9399 59.29V7.57999C55.9399 7.04999 55.7399 6.59998 55.3499 6.22998C54.9499 5.85998 54.4899 5.66998 53.9599 5.66998L53.9899 5.67998Z" fill="#231F20"/>
<path d="M42.5199 59.92C40.9299 59.92 39.8599 59.43 39.2499 58.42L20.5299 27.4C20.3499 27.09 20.0199 26.92 19.6699 26.92C19.5799 26.92 19.4899 26.93 19.3999 26.96C18.9699 27.08 18.6699 27.47 18.6699 27.92V59.01C18.6699 59.73 18.4799 59.91 17.7699 59.91H7.37988C6.52988 59.91 6.3999 59.64 6.3999 59.01V7.29997C6.3999 7.03997 6.47988 6.83997 6.65988 6.65997C6.77988 6.53997 6.96988 6.39996 7.37988 6.39996H20.8599C21.7099 6.39996 22.2699 6.72997 22.6799 7.46997L40.5399 37.56C40.7199 37.87 41.0499 38.05 41.3999 38.05C41.4899 38.05 41.5799 38.04 41.6599 38.01C42.0899 37.89 42.3999 37.5 42.3999 37.05V7.30997C42.3999 7.04997 42.4799 6.84997 42.6599 6.66997C42.8399 6.48997 43.0399 6.40997 43.2999 6.40997H53.6899C53.9699 6.40997 54.1799 6.49997 54.3999 6.69997C54.5899 6.87997 54.6799 7.05996 54.6799 7.31996V59.03C54.6799 59.4 54.5499 59.56 54.4299 59.66C54.2199 59.85 53.9799 59.93 53.6999 59.93H42.5199V59.92Z" fill="#FC0B50"/>
<path d="M53.6902 7.40001V58.92H42.5201C40.9201 58.92 40.3901 58.38 40.1101 57.9L21.3901 26.89C21.0201 26.28 20.3701 25.92 19.6801 25.92C19.5001 25.92 19.3201 25.94 19.1401 25.99C18.2701 26.23 17.6801 27.02 17.6801 27.92V58.92H7.40015V7.40001H20.8701C21.3601 7.40001 21.5902 7.53001 21.8202 7.95001C21.8302 7.97001 21.8401 7.99001 21.8501 8.01001L39.7002 38.07C40.0702 38.69 40.7301 39.05 41.4201 39.05C41.6001 39.05 41.7702 39.03 41.9502 38.98C42.8202 38.74 43.4201 37.95 43.4201 37.05V7.40001H53.7002M53.7101 5.40001H43.3202C42.7902 5.40001 42.3401 5.59001 41.9701 5.96001C41.6001 6.33001 41.4101 6.78001 41.4101 7.31001V37.05L23.5602 6.99001C22.9802 5.93001 22.0801 5.40001 20.8601 5.40001H7.38013C6.80013 5.40001 6.32013 5.59001 5.95013 5.96001C5.58013 6.33001 5.39014 6.78001 5.39014 7.31001V59.02C5.39014 60.29 6.05015 60.92 7.37015 60.92H17.7602C19.0302 60.92 19.6601 60.29 19.6601 59.02V27.93L38.3802 58.94C39.1702 60.26 40.5502 60.92 42.5002 60.92H53.6801C54.2101 60.92 54.6702 60.75 55.0702 60.4C55.4702 60.06 55.6601 59.59 55.6601 59.01V7.30002C55.6601 6.77002 55.4602 6.32001 55.0702 5.95001C54.6702 5.58001 54.2101 5.39001 53.6801 5.39001L53.7101 5.40001Z" fill="#231F20"/>
<path d="M42.2401 59.64C40.6501 59.64 39.5801 59.15 38.9701 58.14L20.2501 27.12C20.0701 26.81 19.7401 26.64 19.3901 26.64C19.3001 26.64 19.2101 26.65 19.1201 26.68C18.6901 26.8 18.3901 27.19 18.3901 27.64V58.73C18.3901 59.45 18.2001 59.63 17.4901 59.63H7.1001C6.2501 59.63 6.12012 59.36 6.12012 58.73V7.02C6.12012 6.76 6.2001 6.56 6.3801 6.38C6.5001 6.26 6.6901 6.12 7.1001 6.12H20.5801C21.4301 6.12 21.9901 6.45 22.4001 7.19L40.2601 37.28C40.4401 37.59 40.7701 37.77 41.1201 37.77C41.2101 37.77 41.3001 37.76 41.3801 37.73C41.8101 37.61 42.1201 37.22 42.1201 36.77V7.03C42.1201 6.77 42.2001 6.57 42.3801 6.39C42.5601 6.21 42.7601 6.13 43.0201 6.13H53.4101C53.6901 6.13 53.9001 6.22 54.1201 6.42C54.3101 6.6 54.4001 6.77999 54.4001 7.03999V58.75C54.4001 59.12 54.2701 59.28 54.1501 59.38C53.9401 59.57 53.7001 59.65 53.4201 59.65H42.2401V59.64Z" fill="#FC0B50"/>
<path d="M53.4101 7.11998V58.64H42.2401C40.6401 58.64 40.1101 58.1 39.8301 57.62L21.1101 26.61C20.7401 26 20.0901 25.64 19.4001 25.64C19.2201 25.64 19.0401 25.66 18.8601 25.71C17.9901 25.95 17.4001 26.74 17.4001 27.64V58.64H7.12012V7.11998H20.5901C21.0801 7.11998 21.3101 7.24998 21.5401 7.66998C21.5501 7.68998 21.5601 7.70998 21.5701 7.72998L39.4201 37.79C39.7901 38.41 40.4501 38.77 41.1401 38.77C41.3201 38.77 41.4901 38.75 41.6701 38.7C42.5401 38.46 43.1401 37.67 43.1401 36.77V7.11998H53.4201M53.4201 5.11998H43.0301C42.5001 5.11998 42.0501 5.30998 41.6801 5.67998C41.3101 6.04998 41.1201 6.49998 41.1201 7.02998V36.77L23.2701 6.70998C22.6901 5.64998 21.7901 5.11998 20.5701 5.11998H7.09012C6.51012 5.11998 6.0301 5.30998 5.6601 5.67998C5.2901 6.04998 5.1001 6.49998 5.1001 7.02998V58.74C5.1001 60.01 5.76011 60.64 7.08011 60.64H17.4701C18.7401 60.64 19.3701 60.01 19.3701 58.74V27.65L38.0901 58.66C38.8801 59.98 40.2601 60.64 42.2101 60.64H53.3901C53.9201 60.64 54.3801 60.47 54.7801 60.12C55.1801 59.78 55.3701 59.31 55.3701 58.73V7.01999C55.3701 6.48999 55.1701 6.03998 54.7801 5.66998C54.3801 5.29998 53.9201 5.10999 53.3901 5.10999L53.4201 5.11998Z" fill="#231F20"/>
<path d="M41.9601 59.35C40.3701 59.35 39.3001 58.86 38.6901 57.85L19.9701 26.83C19.7901 26.52 19.4601 26.35 19.1101 26.35C19.0201 26.35 18.9301 26.36 18.8401 26.39C18.4101 26.51 18.1101 26.9 18.1101 27.35V58.44C18.1101 59.16 17.9201 59.34 17.2101 59.34H6.82007C5.97007 59.34 5.84009 59.07 5.84009 58.44V6.73001C5.84009 6.47001 5.92007 6.27001 6.10007 6.09001C6.22007 5.97001 6.41007 5.83002 6.82007 5.83002H20.3001C21.1501 5.83002 21.7101 6.16001 22.1201 6.90001L39.9801 36.99C40.1601 37.3 40.4901 37.48 40.8401 37.48C40.9301 37.48 41.0201 37.47 41.1001 37.44C41.5301 37.32 41.8401 36.93 41.8401 36.48V6.74001C41.8401 6.48001 41.9201 6.28001 42.1001 6.10001C42.2801 5.92001 42.4801 5.84001 42.7401 5.84001H53.1301C53.4101 5.84001 53.6201 5.93002 53.8401 6.13002C54.0301 6.31002 54.1201 6.49002 54.1201 6.75002V58.46C54.1201 58.83 53.9901 58.99 53.8701 59.09C53.6601 59.28 53.42 59.36 53.14 59.36H41.9601V59.35Z" fill="#FC0B50"/>
<path d="M53.1201 6.83002V58.35H41.9501C40.3501 58.35 39.8201 57.81 39.5401 57.33L20.8201 26.32C20.4501 25.71 19.8001 25.35 19.1101 25.35C18.9301 25.35 18.7501 25.37 18.5701 25.42C17.7001 25.66 17.1101 26.45 17.1101 27.35V58.35H6.83008V6.83002H20.3001C20.7901 6.83002 21.0201 6.96002 21.2501 7.38002C21.2601 7.40002 21.2701 7.42002 21.2801 7.44002L39.1301 37.5C39.5001 38.12 40.1601 38.48 40.8501 38.48C41.0301 38.48 41.2001 38.46 41.3801 38.41C42.2501 38.17 42.8501 37.38 42.8501 36.48V6.83002H53.1301M53.14 4.83002H42.7501C42.2201 4.83002 41.7701 5.02001 41.4001 5.39001C41.0301 5.76001 40.8401 6.21001 40.8401 6.74001V36.48L22.9901 6.42001C22.4101 5.36001 21.5101 4.83002 20.2901 4.83002H6.81009C6.23009 4.83002 5.75007 5.02001 5.38007 5.39001C5.01007 5.76001 4.82007 6.21001 4.82007 6.74001V58.45C4.82007 59.72 5.48008 60.35 6.80008 60.35H17.1901C18.4601 60.35 19.0901 59.72 19.0901 58.45V27.36L37.8101 58.37C38.6001 59.69 39.9801 60.35 41.9301 60.35H53.1101C53.6401 60.35 54.1001 60.18 54.5001 59.83C54.9001 59.49 55.0901 59.02 55.0901 58.44V6.73001C55.0901 6.20001 54.8901 5.75002 54.5001 5.38002C54.1001 5.01002 53.6401 4.82001 53.1101 4.82001L53.14 4.83002Z" fill="#231F20"/>
<path d="M41.67 59.07C40.08 59.07 39.01 58.58 38.4 57.57L19.6801 26.55C19.5001 26.24 19.1701 26.07 18.8201 26.07C18.7301 26.07 18.64 26.08 18.55 26.11C18.12 26.23 17.8201 26.62 17.8201 27.07V58.16C17.8201 58.88 17.63 59.06 16.92 59.06H6.53003C5.68003 59.06 5.55005 58.79 5.55005 58.16V6.44998C5.55005 6.18998 5.63006 5.98998 5.81006 5.80998C5.93006 5.68998 6.12003 5.54999 6.53003 5.54999H20.0101C20.8601 5.54999 21.42 5.87998 21.83 6.61998L39.6901 36.71C39.8701 37.02 40.2 37.2 40.55 37.2C40.64 37.2 40.7301 37.19 40.8101 37.16C41.2401 37.04 41.55 36.65 41.55 36.2V6.45998C41.55 6.19998 41.6301 5.99998 41.8101 5.81998C41.9901 5.63998 42.1901 5.55998 42.4501 5.55998H52.84C53.12 5.55998 53.33 5.64998 53.55 5.84998C53.74 6.02998 53.83 6.20999 53.83 6.46999V58.18C53.83 58.55 53.7 58.71 53.58 58.81C53.37 59 53.13 59.08 52.85 59.08H41.67V59.07Z" fill="#FC0B50"/>
<path d="M52.84 6.54999V58.07H41.67C40.07 58.07 39.5401 57.53 39.2601 57.05L20.54 26.04C20.17 25.43 19.52 25.07 18.83 25.07C18.65 25.07 18.47 25.09 18.29 25.14C17.42 25.38 16.83 26.17 16.83 27.07V58.07H6.55005V6.54999H20.02C20.51 6.54999 20.74 6.67998 20.97 7.09998C20.98 7.11998 20.9901 7.13999 21.0001 7.15999L38.85 37.22C39.22 37.84 39.8801 38.2 40.5701 38.2C40.7501 38.2 40.92 38.18 41.1 38.13C41.97 37.89 42.5701 37.1 42.5701 36.2V6.54999H52.85M52.86 4.54999H42.47C41.94 4.54999 41.4901 4.73999 41.1201 5.10999C40.7501 5.47999 40.5601 5.92998 40.5601 6.45998V36.2L22.71 6.13998C22.13 5.07998 21.2301 4.54999 20.0101 4.54999H6.53003C5.95003 4.54999 5.47004 4.73999 5.10004 5.10999C4.73004 5.47999 4.54004 5.92998 4.54004 6.45998V58.17C4.54004 59.44 5.20005 60.07 6.52005 60.07H16.91C18.18 60.07 18.8101 59.44 18.8101 58.17V27.08L37.53 58.09C38.32 59.41 39.7 60.07 41.65 60.07H52.83C53.36 60.07 53.82 59.9 54.22 59.55C54.62 59.21 54.8101 58.74 54.8101 58.16V6.44998C54.8101 5.91998 54.61 5.46998 54.22 5.09998C53.82 4.72998 53.36 4.53998 52.83 4.53998L52.86 4.54999Z" fill="#231F20"/>
<path d="M41.39 58.79C39.8 58.79 38.73 58.3 38.12 57.29L19.4 26.27C19.22 25.96 18.89 25.79 18.54 25.79C18.45 25.79 18.36 25.8 18.27 25.83C17.84 25.95 17.54 26.34 17.54 26.79V57.88C17.54 58.6 17.35 58.78 16.64 58.78H6.25C5.4 58.78 5.27002 58.51 5.27002 57.88V6.17001C5.27002 5.91001 5.35 5.71001 5.53 5.53001C5.65 5.41001 5.84 5.27002 6.25 5.27002H19.73C20.58 5.27002 21.14 5.60001 21.55 6.34001L39.41 36.43C39.59 36.74 39.92 36.92 40.27 36.92C40.36 36.92 40.45 36.91 40.53 36.88C40.96 36.76 41.27 36.37 41.27 35.92V6.18001C41.27 5.92001 41.35 5.72001 41.53 5.54001C41.71 5.36001 41.91 5.28001 42.17 5.28001H52.56C52.84 5.28001 53.05 5.37001 53.27 5.57001C53.46 5.75001 53.55 5.93002 53.55 6.19002V57.9C53.55 58.27 53.42 58.43 53.3 58.53C53.09 58.72 52.85 58.8 52.57 58.8H41.39V58.79Z" fill="#FC0B50"/>
<path d="M52.56 6.27002V57.79H41.39C39.79 57.79 39.26 57.25 38.98 56.77L20.26 25.76C19.89 25.15 19.24 24.79 18.55 24.79C18.37 24.79 18.19 24.81 18.01 24.86C17.14 25.1 16.55 25.89 16.55 26.79V57.79H6.27002V6.27002H19.74C20.23 6.27002 20.46 6.40001 20.69 6.82001C20.7 6.84001 20.71 6.86002 20.72 6.88002L38.57 36.94C38.94 37.56 39.6 37.92 40.29 37.92C40.47 37.92 40.64 37.9 40.82 37.85C41.69 37.61 42.29 36.82 42.29 35.92V6.27002H52.57M52.57 4.27002H42.18C41.65 4.27002 41.2 4.46002 40.83 4.83002C40.46 5.20002 40.27 5.65001 40.27 6.18001V35.92L22.42 5.86002C21.84 4.80002 20.94 4.27002 19.72 4.27002H6.24002C5.66002 4.27002 5.18003 4.46002 4.81003 4.83002C4.44003 5.20002 4.25 5.65001 4.25 6.18001V57.89C4.25 59.16 4.91001 59.79 6.23001 59.79H16.62C17.89 59.79 18.52 59.16 18.52 57.89V26.8L37.24 57.81C38.03 59.13 39.41 59.79 41.36 59.79H52.54C53.07 59.79 53.53 59.62 53.93 59.27C54.33 58.93 54.52 58.46 54.52 57.88V6.17001C54.52 5.64001 54.32 5.19001 53.93 4.82001C53.53 4.45001 53.07 4.26001 52.54 4.26001L52.57 4.27002Z" fill="#231F20"/>
<path d="M41.11 58.5C39.52 58.5 38.45 58.01 37.84 57L19.12 25.98C18.94 25.67 18.61 25.5 18.26 25.5C18.17 25.5 18.08 25.51 17.99 25.54C17.56 25.66 17.26 26.05 17.26 26.5V57.59C17.26 58.31 17.07 58.49 16.36 58.49H5.96997C5.11997 58.49 4.98999 58.22 4.98999 57.59V5.87999C4.98999 5.61999 5.06997 5.41997 5.24997 5.23997C5.36997 5.11997 5.55997 4.97998 5.96997 4.97998H19.45C20.3 4.97998 20.86 5.30999 21.27 6.04999L39.13 36.14C39.31 36.45 39.64 36.63 39.99 36.63C40.08 36.63 40.17 36.62 40.25 36.59C40.68 36.47 40.99 36.08 40.99 35.63V5.88998C40.99 5.62998 41.07 5.42998 41.25 5.24998C41.43 5.06998 41.63 4.98997 41.89 4.98997H52.28C52.56 4.98997 52.77 5.07998 52.99 5.27998C53.18 5.45998 53.27 5.63998 53.27 5.89998V57.61C53.27 57.98 53.14 58.14 53.02 58.24C52.81 58.43 52.57 58.51 52.29 58.51H41.11V58.5Z" fill="#FC0B50"/>
<path d="M52.27 5.98003V57.5H41.1C39.5 57.5 38.97 56.96 38.69 56.48L19.97 25.47C19.6 24.86 18.95 24.5 18.26 24.5C18.08 24.5 17.9 24.52 17.72 24.57C16.85 24.81 16.26 25.6 16.26 26.5V57.5H5.97998V5.98003H19.45C19.94 5.98003 20.17 6.11003 20.4 6.53003C20.41 6.55003 20.42 6.57003 20.43 6.59003L38.28 36.65C38.65 37.27 39.31 37.63 40 37.63C40.18 37.63 40.35 37.61 40.53 37.56C41.4 37.32 42 36.53 42 35.63V5.98003H52.28M52.29 3.98003H41.9C41.37 3.98003 40.92 4.17002 40.55 4.54002C40.18 4.91002 39.99 5.36003 39.99 5.89003V35.63L22.14 5.57002C21.56 4.51002 20.66 3.98003 19.44 3.98003H5.95999C5.37999 3.98003 4.89997 4.17002 4.52997 4.54002C4.15997 4.91002 3.96997 5.36003 3.96997 5.89003V57.6C3.96997 58.87 4.62998 59.5 5.94998 59.5H16.34C17.61 59.5 18.24 58.87 18.24 57.6V26.51L36.96 57.52C37.75 58.84 39.13 59.5 41.08 59.5H52.26C52.79 59.5 53.25 59.33 53.65 58.98C54.05 58.64 54.24 58.17 54.24 57.59V5.88004C54.24 5.35004 54.04 4.90003 53.65 4.53003C53.25 4.16003 52.79 3.97003 52.26 3.97003L52.29 3.98003Z" fill="#231F20"/>
<path d="M40.82 58.22C39.23 58.22 38.16 57.73 37.55 56.72L18.8299 25.7C18.6499 25.39 18.3199 25.22 17.9699 25.22C17.8799 25.22 17.79 25.23 17.7 25.26C17.27 25.38 16.9699 25.77 16.9699 26.22V57.31C16.9699 58.03 16.78 58.21 16.07 58.21H5.67996C4.82996 58.21 4.69995 57.94 4.69995 57.31V5.60001C4.69995 5.34001 4.77996 5.14001 4.95996 4.96001C5.07996 4.84001 5.26996 4.70001 5.67996 4.70001H19.1599C20.0099 4.70001 20.5699 5.03002 20.9799 5.77002L38.8399 35.86C39.0199 36.17 39.35 36.35 39.7 36.35C39.79 36.35 39.8799 36.34 39.9599 36.31C40.3899 36.19 40.7 35.8 40.7 35.35V5.61002C40.7 5.35002 40.7799 5.15002 40.9599 4.97002C41.1399 4.79002 41.3399 4.71001 41.5999 4.71001H51.99C52.27 4.71001 52.48 4.80002 52.7 5.00002C52.89 5.18002 52.9799 5.36001 52.9799 5.62001V57.33C52.9799 57.7 52.8499 57.86 52.7299 57.96C52.5199 58.15 52.28 58.23 52 58.23H40.82V58.22Z" fill="#FC0B50"/>
<path d="M51.99 5.7V57.22H40.82C39.22 57.22 38.6899 56.68 38.4099 56.2L19.69 25.19C19.32 24.58 18.6699 24.22 17.9799 24.22C17.7999 24.22 17.62 24.24 17.44 24.29C16.57 24.53 15.9799 25.32 15.9799 26.22V57.22H5.69995V5.7H19.17C19.66 5.7 19.89 5.83 20.12 6.25C20.13 6.27 20.1399 6.29 20.1499 6.31L38 36.37C38.37 36.99 39.0299 37.35 39.7199 37.35C39.8999 37.35 40.07 37.33 40.25 37.28C41.12 37.04 41.7199 36.25 41.7199 35.35V5.7H52M52.01 3.7H41.62C41.09 3.7 40.6399 3.88999 40.2699 4.25999C39.8999 4.62999 39.7099 5.08 39.7099 5.61V35.35L21.86 5.28999C21.28 4.22999 20.3799 3.7 19.1599 3.7H5.67996C5.09996 3.7 4.61994 3.88999 4.24994 4.25999C3.87994 4.62999 3.68994 5.08 3.68994 5.61V57.32C3.68994 58.59 4.34995 59.22 5.66995 59.22H16.06C17.33 59.22 17.9599 58.59 17.9599 57.32V26.23L36.68 57.24C37.47 58.56 38.85 59.22 40.8 59.22H51.9799C52.5099 59.22 52.97 59.05 53.37 58.7C53.77 58.36 53.9599 57.89 53.9599 57.31V5.59999C53.9599 5.06999 53.76 4.62 53.37 4.25C52.97 3.88 52.5099 3.69 51.9799 3.69L52.01 3.7Z" fill="#231F20"/>
<path d="M40.5399 57.94C38.9499 57.94 37.8799 57.45 37.2699 56.44L18.5499 25.42C18.3699 25.11 18.0399 24.94 17.6899 24.94C17.5999 24.94 17.5099 24.95 17.4199 24.98C16.9899 25.1 16.6899 25.49 16.6899 25.94V57.03C16.6899 57.75 16.4999 57.93 15.7899 57.93H5.39993C4.54993 57.93 4.41992 57.66 4.41992 57.03V5.31998C4.41992 5.05998 4.49993 4.85998 4.67993 4.67998C4.79993 4.55998 4.98993 4.41998 5.39993 4.41998H18.8799C19.7299 4.41998 20.29 4.74997 20.7 5.48997L38.5599 35.58C38.7399 35.89 39.0699 36.07 39.4199 36.07C39.5099 36.07 39.5999 36.06 39.6799 36.03C40.1099 35.91 40.4199 35.52 40.4199 35.07V5.32999C40.4199 5.06999 40.4999 4.86999 40.6799 4.68999C40.8599 4.50999 41.0599 4.42998 41.3199 4.42998H51.7099C51.9899 4.42998 52.1999 4.51999 52.4199 4.71999C52.6099 4.89999 52.7 5.07998 52.7 5.33998V57.05C52.7 57.42 52.57 57.58 52.45 57.68C52.24 57.87 51.9999 57.95 51.7199 57.95H40.5399V57.94Z" fill="#FC0B50"/>
<path d="M51.7099 5.41997V56.94H40.5399C38.9399 56.94 38.4099 56.4 38.1299 55.92L19.4099 24.91C19.0399 24.3 18.3899 23.94 17.6999 23.94C17.5199 23.94 17.3399 23.96 17.1599 24.01C16.2899 24.25 15.6999 25.04 15.6999 25.94V56.94H5.41989V5.41997H18.8899C19.3799 5.41997 19.6099 5.54997 19.8399 5.96997C19.8499 5.98997 19.8599 6.00997 19.8699 6.02997L37.7199 36.09C38.0899 36.71 38.7499 37.07 39.4399 37.07C39.6199 37.07 39.7899 37.05 39.9699 37C40.8399 36.76 41.4399 35.97 41.4399 35.07V5.41997H51.7199M51.7199 3.41997H41.3299C40.7999 3.41997 40.3499 3.60997 39.9799 3.97997C39.6099 4.34997 39.4199 4.79997 39.4199 5.32997V35.07L21.5699 5.00996C20.9899 3.94996 20.0899 3.41997 18.8699 3.41997H5.38989C4.80989 3.41997 4.3299 3.60997 3.9599 3.97997C3.5899 4.34997 3.3999 4.79997 3.3999 5.32997V57.04C3.3999 58.31 4.05988 58.94 5.37988 58.94H15.7699C17.0399 58.94 17.6699 58.31 17.6699 57.04V25.95L36.3899 56.96C37.1799 58.28 38.5599 58.94 40.5099 58.94H51.6899C52.2199 58.94 52.6799 58.77 53.0799 58.42C53.4799 58.08 53.6699 57.61 53.6699 57.03V5.31996C53.6699 4.78996 53.4699 4.33997 53.0799 3.96997C52.6799 3.59997 52.2199 3.40997 51.6899 3.40997L51.7199 3.41997Z" fill="#231F20"/>
<path d="M40.2602 57.65C38.6702 57.65 37.6001 57.16 36.9901 56.15L18.2701 25.13C18.0901 24.82 17.7601 24.65 17.4101 24.65C17.3201 24.65 17.2301 24.66 17.1401 24.69C16.7101 24.81 16.4101 25.2 16.4101 25.65V56.74C16.4101 57.46 16.2202 57.64 15.5102 57.64H5.12015C4.27015 57.64 4.14014 57.37 4.14014 56.74V5.03C4.14014 4.77 4.22015 4.57 4.40015 4.39C4.52015 4.27 4.71015 4.13 5.12015 4.13H18.6001C19.4501 4.13 20.0101 4.46 20.4201 5.2L38.2801 35.29C38.4601 35.6 38.7901 35.78 39.1401 35.78C39.2301 35.78 39.3201 35.77 39.4001 35.74C39.8301 35.62 40.1401 35.23 40.1401 34.78V5.03999C40.1401 4.77999 40.2201 4.57999 40.4001 4.39999C40.5801 4.21999 40.7801 4.14 41.0401 4.14H51.4301C51.7101 4.14 51.9201 4.22999 52.1401 4.42999C52.3301 4.60999 52.4201 4.79 52.4201 5.05V56.76C52.4201 57.13 52.2901 57.29 52.1701 57.39C51.9601 57.58 51.7202 57.66 51.4402 57.66H40.2602V57.65Z" fill="#FC0B50"/>
<path d="M51.4201 5.13V56.65H40.2501C38.6501 56.65 38.1201 56.11 37.8401 55.63L19.1201 24.62C18.7501 24.01 18.1001 23.65 17.4101 23.65C17.2301 23.65 17.0501 23.67 16.8701 23.72C16.0001 23.96 15.4101 24.75 15.4101 25.65V56.65H5.1301V5.13H18.6001C19.0901 5.13 19.3201 5.25999 19.5501 5.67999C19.5601 5.69999 19.5701 5.71999 19.5801 5.73999L37.4301 35.8C37.8001 36.42 38.4601 36.78 39.1501 36.78C39.3301 36.78 39.5001 36.76 39.6801 36.71C40.5501 36.47 41.1501 35.68 41.1501 34.78V5.13H51.4301M51.4401 3.13H41.0501C40.5201 3.13 40.0701 3.32 39.7001 3.69C39.3301 4.06 39.1401 4.50999 39.1401 5.03999V34.78L21.2901 4.72C20.7101 3.66 19.8101 3.13 18.5901 3.13H5.11011C4.53011 3.13 4.05011 3.32 3.68011 3.69C3.31011 4.06 3.12012 4.50999 3.12012 5.03999V56.75C3.12012 58.02 3.7801 58.65 5.1001 58.65H15.4901C16.7601 58.65 17.3901 58.02 17.3901 56.75V25.66L36.1101 56.67C36.9001 57.99 38.2801 58.65 40.2301 58.65H51.4101C51.9401 58.65 52.4001 58.48 52.8001 58.13C53.2001 57.79 53.3901 57.32 53.3901 56.74V5.03C53.3901 4.5 53.1901 4.04999 52.8001 3.67999C52.4001 3.30999 51.9401 3.12 51.4101 3.12L51.4401 3.13Z" fill="#231F20"/>
<path d="M39.9701 57.37C38.3801 57.37 37.3101 56.88 36.7001 55.87L17.9801 24.85C17.8001 24.54 17.4701 24.37 17.1201 24.37C17.0301 24.37 16.9401 24.38 16.8501 24.41C16.4201 24.53 16.1201 24.92 16.1201 25.37V56.46C16.1201 57.18 15.9301 57.36 15.2201 57.36H4.83011C3.98011 57.36 3.8501 57.09 3.8501 56.46V4.74998C3.8501 4.48998 3.93011 4.28999 4.11011 4.10999C4.23011 3.98999 4.42011 3.84998 4.83011 3.84998H18.3101C19.1601 3.84998 19.7201 4.17998 20.1301 4.91998L37.9901 35.01C38.1701 35.32 38.5001 35.5 38.8501 35.5C38.9401 35.5 39.0301 35.49 39.1101 35.46C39.5401 35.34 39.8501 34.95 39.8501 34.5V4.75998C39.8501 4.49998 39.9301 4.29998 40.1101 4.11998C40.2901 3.93998 40.4901 3.85999 40.7501 3.85999H51.1401C51.4201 3.85999 51.6301 3.94998 51.8501 4.14998C52.0401 4.32998 52.1301 4.50999 52.1301 4.76999V56.48C52.1301 56.85 52.0001 57.01 51.8801 57.11C51.6701 57.3 51.4301 57.38 51.1501 57.38H39.9701V57.37Z" fill="#FC0B50"/>
<path d="M51.14 4.85002V56.37H39.9701C38.3701 56.37 37.8401 55.83 37.5601 55.35L18.8401 24.34C18.4701 23.73 17.8201 23.37 17.1301 23.37C16.9501 23.37 16.7701 23.39 16.5901 23.44C15.7201 23.68 15.1301 24.47 15.1301 25.37V56.37H4.85007V4.85002H18.3201C18.8101 4.85002 19.0401 4.98002 19.2701 5.40002C19.2801 5.42002 19.2901 5.44002 19.3001 5.46002L37.1501 35.52C37.5201 36.14 38.1801 36.5 38.8701 36.5C39.0501 36.5 39.2201 36.48 39.4001 36.43C40.2701 36.19 40.8701 35.4 40.8701 34.5V4.85002H51.1501M51.1601 2.85002H40.7701C40.2401 2.85002 39.7901 3.04003 39.4201 3.41003C39.0501 3.78003 38.8601 4.23003 38.8601 4.76003V34.5L21.0101 4.44003C20.4301 3.38003 19.5301 2.85002 18.3101 2.85002H4.83008C4.25008 2.85002 3.77009 3.04003 3.40009 3.41003C3.03009 3.78003 2.84009 4.23003 2.84009 4.76003V56.47C2.84009 57.74 3.50007 58.37 4.82007 58.37H15.2101C16.4801 58.37 17.1101 57.74 17.1101 56.47V25.38L35.83 56.39C36.62 57.71 38.0001 58.37 39.9501 58.37H51.1301C51.6601 58.37 52.1201 58.2 52.5201 57.85C52.9201 57.51 53.1101 57.04 53.1101 56.46V4.75003C53.1101 4.22003 52.9101 3.77002 52.5201 3.40002C52.1201 3.03002 51.6601 2.84003 51.1301 2.84003L51.1601 2.85002Z" fill="#231F20"/>
<path d="M39.6901 57.09C38.1001 57.09 37.0301 56.6 36.4201 55.59L17.7001 24.57C17.5201 24.26 17.1901 24.09 16.8401 24.09C16.7501 24.09 16.6601 24.1 16.5701 24.13C16.1401 24.25 15.8401 24.64 15.8401 25.09V56.18C15.8401 56.9 15.6501 57.08 14.9401 57.08H4.55008C3.70008 57.08 3.57007 56.81 3.57007 56.18V4.47002C3.57007 4.21002 3.65008 4.01002 3.83008 3.83002C3.95008 3.71002 4.14008 3.57001 4.55008 3.57001H18.0301C18.8801 3.57001 19.4401 3.90001 19.8501 4.64001L37.7101 34.73C37.8901 35.04 38.2201 35.22 38.5701 35.22C38.6601 35.22 38.75 35.21 38.83 35.18C39.26 35.06 39.5701 34.67 39.5701 34.22V4.48001C39.5701 4.22001 39.65 4.02001 39.83 3.84001C40.01 3.66001 40.2101 3.58002 40.4701 3.58002H50.8601C51.1401 3.58002 51.3501 3.67001 51.5701 3.87001C51.7601 4.05001 51.8501 4.23001 51.8501 4.49001V56.2C51.8501 56.57 51.7201 56.73 51.6001 56.83C51.3901 57.02 51.1501 57.1 50.8701 57.1H39.6901V57.09Z" fill="#FC0B50"/>
<path d="M50.86 4.56999V56.09H39.6901C38.0901 56.09 37.56 55.55 37.28 55.07L18.5601 24.06C18.1901 23.45 17.54 23.09 16.85 23.09C16.67 23.09 16.4901 23.11 16.3101 23.16C15.4401 23.4 14.85 24.19 14.85 25.09V56.09H4.57004V4.56999H18.04C18.53 4.56999 18.7601 4.7 18.9901 5.12C19.0001 5.14 19.01 5.15999 19.02 5.17999L36.8701 35.24C37.2401 35.86 37.9 36.22 38.59 36.22C38.77 36.22 38.9401 36.2 39.1201 36.15C39.9901 35.91 40.59 35.12 40.59 34.22V4.56999H50.8701M50.8701 2.56999H40.48C39.95 2.56999 39.5001 2.76 39.1301 3.13C38.7601 3.5 38.5701 3.95 38.5701 4.48V34.22L20.72 4.16C20.14 3.1 19.24 2.56999 18.02 2.56999H4.54004C3.96004 2.56999 3.48005 2.76 3.11005 3.13C2.74005 3.5 2.55005 3.95 2.55005 4.48V56.19C2.55005 57.46 3.21003 58.09 4.53003 58.09H14.92C16.19 58.09 16.8201 57.46 16.8201 56.19V25.1L35.54 56.11C36.33 57.43 37.71 58.09 39.66 58.09H50.84C51.37 58.09 51.83 57.92 52.23 57.57C52.63 57.23 52.8201 56.76 52.8201 56.18V4.47C52.8201 3.94 52.62 3.49 52.23 3.12C51.83 2.75 51.37 2.56 50.84 2.56L50.8701 2.56999Z" fill="#231F20"/>
<path d="M39.41 56.8C37.82 56.8 36.75 56.31 36.14 55.3L17.42 24.28C17.24 23.97 16.9101 23.8 16.5601 23.8C16.4701 23.8 16.38 23.81 16.29 23.84C15.86 23.96 15.5601 24.35 15.5601 24.8V55.89C15.5601 56.61 15.37 56.79 14.66 56.79H4.27005C3.42005 56.79 3.29004 56.52 3.29004 55.89V4.17996C3.29004 3.91996 3.37005 3.71996 3.55005 3.53996C3.67005 3.41996 3.86005 3.27997 4.27005 3.27997H17.7501C18.6001 3.27997 19.1601 3.60996 19.5701 4.34996L37.4301 34.44C37.6101 34.75 37.94 34.93 38.29 34.93C38.38 34.93 38.47 34.92 38.55 34.89C38.98 34.77 39.29 34.38 39.29 33.93V4.18997C39.29 3.92997 39.37 3.72997 39.55 3.54997C39.73 3.36997 39.9301 3.28996 40.1901 3.28996H50.58C50.86 3.28996 51.07 3.37997 51.29 3.57997C51.48 3.75997 51.5701 3.93997 51.5701 4.19997V55.91C51.5701 56.28 51.4401 56.44 51.3201 56.54C51.1101 56.73 50.87 56.81 50.59 56.81H39.41V56.8Z" fill="#FC0B50"/>
<path d="M50.57 4.28001V55.8H39.4C37.8 55.8 37.27 55.26 36.99 54.78L18.27 23.77C17.9 23.16 17.25 22.8 16.56 22.8C16.38 22.8 16.2 22.82 16.02 22.87C15.15 23.11 14.56 23.9 14.56 24.8V55.8H4.28V4.28001H17.75C18.24 4.28001 18.47 4.41002 18.7 4.83002C18.71 4.85002 18.72 4.87001 18.73 4.89001L36.58 34.95C36.95 35.57 37.61 35.93 38.3 35.93C38.48 35.93 38.65 35.91 38.83 35.86C39.7 35.62 40.3 34.83 40.3 33.93V4.28001H50.58M50.59 2.28001H40.2C39.67 2.28001 39.22 2.47001 38.85 2.84001C38.48 3.21001 38.29 3.66002 38.29 4.19002V33.93L20.44 3.87001C19.86 2.81001 18.96 2.28001 17.74 2.28001H4.26001C3.68001 2.28001 3.20002 2.47001 2.83002 2.84001C2.46002 3.21001 2.27002 3.66002 2.27002 4.19002V55.9C2.27002 57.17 2.93 57.8 4.25 57.8H14.64C15.91 57.8 16.54 57.17 16.54 55.9V24.81L35.26 55.82C36.05 57.14 37.43 57.8 39.38 57.8H50.56C51.09 57.8 51.55 57.63 51.95 57.28C52.35 56.94 52.54 56.47 52.54 55.89V4.18001C52.54 3.65001 52.34 3.20002 51.95 2.83002C51.55 2.46002 51.09 2.27002 50.56 2.27002L50.59 2.28001Z" fill="#231F20"/>
<path d="M39.12 56.52C37.53 56.52 36.46 56.03 35.85 55.02L17.13 24C16.95 23.69 16.62 23.52 16.27 23.52C16.18 23.52 16.09 23.53 16 23.56C15.57 23.68 15.27 24.07 15.27 24.52V55.61C15.27 56.33 15.08 56.51 14.37 56.51H3.98001C3.13001 56.51 3 56.24 3 55.61V3.89999C3 3.63999 3.08001 3.43999 3.26001 3.25999C3.38001 3.13999 3.57001 3 3.98001 3H17.46C18.31 3 18.87 3.32999 19.28 4.06999L37.14 34.16C37.32 34.47 37.65 34.65 38 34.65C38.09 34.65 38.18 34.64 38.26 34.61C38.69 34.49 39 34.1 39 33.65V3.91C39 3.65 39.08 3.45 39.26 3.27C39.44 3.09 39.64 3.00999 39.9 3.00999H50.29C50.57 3.00999 50.78 3.1 51 3.3C51.19 3.48 51.28 3.66 51.28 3.92V55.63C51.28 56 51.15 56.16 51.03 56.26C50.82 56.45 50.58 56.53 50.3 56.53H39.12V56.52Z" fill="#FC0B50"/>
<path d="M50.29 4V55.52H39.12C37.52 55.52 36.99 54.98 36.71 54.5L17.99 23.49C17.62 22.88 16.97 22.52 16.28 22.52C16.1 22.52 15.92 22.54 15.74 22.59C14.87 22.83 14.28 23.62 14.28 24.52V55.52H3.99997V4H17.47C17.96 4 18.19 4.13 18.42 4.55C18.43 4.57 18.44 4.59 18.45 4.61L36.3 34.67C36.67 35.29 37.33 35.65 38.02 35.65C38.2 35.65 38.37 35.63 38.55 35.58C39.42 35.34 40.02 34.55 40.02 33.65V4H50.3M50.31 2H39.92C39.39 2 38.94 2.19 38.57 2.56C38.2 2.93 38.01 3.38 38.01 3.91V33.65L20.16 3.59C19.58 2.53 18.68 2 17.46 2H3.97998C3.39998 2 2.91999 2.19 2.54999 2.56C2.17999 2.93 1.98999 3.38 1.98999 3.91V55.62C1.98999 56.89 2.64997 57.52 3.96997 57.52H14.36C15.63 57.52 16.26 56.89 16.26 55.62V24.53L34.98 55.54C35.77 56.86 37.15 57.52 39.1 57.52H50.28C50.81 57.52 51.27 57.35 51.67 57C52.07 56.66 52.26 56.19 52.26 55.61V3.89999C52.26 3.36999 52.06 2.92 51.67 2.55C51.27 2.18 50.81 1.98999 50.28 1.98999L50.31 2Z" fill="#231F20"/>
<path d="M38.84 56.24C37.25 56.24 36.18 55.75 35.57 54.74L16.85 23.72C16.67 23.41 16.34 23.24 15.99 23.24C15.9 23.24 15.81 23.25 15.72 23.28C15.29 23.4 14.99 23.79 14.99 24.24V55.33C14.99 56.05 14.8 56.23 14.09 56.23H3.69998C2.84998 56.23 2.71997 55.96 2.71997 55.33V3.62003C2.71997 3.36003 2.79998 3.16003 2.97998 2.98003C3.09998 2.86003 3.28998 2.72003 3.69998 2.72003H17.18C18.03 2.72003 18.59 3.05002 19 3.79002L36.86 33.88C37.04 34.19 37.37 34.37 37.72 34.37C37.81 34.37 37.9 34.36 37.98 34.33C38.41 34.21 38.72 33.82 38.72 33.37V3.63004C38.72 3.37004 38.8 3.17002 38.98 2.99002C39.16 2.81002 39.36 2.73003 39.62 2.73003H50.01C50.29 2.73003 50.5 2.82003 50.72 3.02003C50.91 3.20003 51 3.38003 51 3.64003V55.35C51 55.72 50.87 55.88 50.75 55.98C50.54 56.17 50.3 56.25 50.02 56.25H38.84V56.24Z" fill="#FC0B50"/>
<path d="M50.01 3.71001V55.23H38.8399C37.2399 55.23 36.71 54.69 36.43 54.21L17.7099 23.2C17.3399 22.59 16.69 22.23 16 22.23C15.82 22.23 15.6399 22.25 15.4599 22.3C14.5899 22.54 14 23.33 14 24.23V55.23H3.71994V3.71001H17.19C17.68 3.71001 17.9099 3.84001 18.1399 4.26001C18.1499 4.28001 18.16 4.30001 18.17 4.32001L36.0199 34.38C36.3899 35 37.05 35.36 37.74 35.36C37.92 35.36 38.0899 35.34 38.2699 35.29C39.1399 35.05 39.74 34.26 39.74 33.36V3.71001H50.0199M50.0199 1.71001H39.63C39.1 1.71001 38.6499 1.90002 38.2799 2.27002C37.9099 2.64002 37.7199 3.09001 37.7199 3.62001V33.36L19.87 3.30002C19.29 2.24002 18.39 1.71001 17.17 1.71001H3.68994C3.10994 1.71001 2.62995 1.90002 2.25995 2.27002C1.88995 2.64002 1.69995 3.09001 1.69995 3.62001V55.33C1.69995 56.6 2.35996 57.23 3.67996 57.23H14.07C15.34 57.23 15.9699 56.6 15.9699 55.33V24.24L34.69 55.25C35.48 56.57 36.86 57.23 38.81 57.23H49.99C50.52 57.23 50.98 57.06 51.38 56.71C51.78 56.37 51.9699 55.9 51.9699 55.32V3.61002C51.9699 3.08002 51.77 2.63001 51.38 2.26001C50.98 1.89001 50.52 1.70001 49.99 1.70001L50.0199 1.71001Z" fill="#231F20"/>
<path d="M38.56 55.95C36.97 55.95 35.8999 55.46 35.2899 54.45L16.57 23.43C16.39 23.12 16.0599 22.95 15.7099 22.95C15.6199 22.95 15.53 22.96 15.44 22.99C15.01 23.11 14.7099 23.5 14.7099 23.95V55.04C14.7099 55.76 14.52 55.94 13.81 55.94H3.41995C2.56995 55.94 2.43994 55.67 2.43994 55.04V3.33C2.43994 3.07 2.51995 2.87 2.69995 2.69C2.81995 2.57 3.00995 2.42999 3.41995 2.42999H16.8999C17.7499 2.42999 18.3099 2.76 18.7199 3.5L36.5799 33.59C36.7599 33.9 37.09 34.08 37.44 34.08C37.53 34.08 37.62 34.07 37.7 34.04C38.13 33.92 38.44 33.53 38.44 33.08V3.34C38.44 3.08 38.52 2.88 38.7 2.7C38.88 2.52 39.0799 2.44 39.3399 2.44H49.7299C50.0099 2.44 50.22 2.53 50.44 2.73C50.63 2.91 50.7199 3.08999 50.7199 3.34999V55.06C50.7199 55.43 50.5899 55.59 50.4699 55.69C50.2599 55.88 50.02 55.96 49.74 55.96H38.56V55.95Z" fill="#FC0B50"/>
<path d="M49.7199 3.42998V54.95H38.5499C36.9499 54.95 36.4199 54.41 36.1399 53.93L17.4199 22.92C17.0499 22.31 16.3999 21.95 15.7099 21.95C15.5299 21.95 15.3499 21.97 15.1699 22.02C14.2999 22.26 13.7099 23.05 13.7099 23.95V54.95H3.42993V3.42998H16.8999C17.3899 3.42998 17.6199 3.55998 17.8499 3.97998C17.8599 3.99998 17.8699 4.01998 17.8799 4.03998L35.7299 34.1C36.0999 34.72 36.76 35.08 37.45 35.08C37.63 35.08 37.7999 35.06 37.9799 35.01C38.8499 34.77 39.45 33.98 39.45 33.08V3.42998H49.7299M49.7399 1.42998H39.3499C38.8199 1.42998 38.3699 1.61997 37.9999 1.98997C37.6299 2.35997 37.4399 2.80998 37.4399 3.33998V33.08L19.5899 3.01999C19.0099 1.95999 18.1099 1.42998 16.8899 1.42998H3.40991C2.82991 1.42998 2.34992 1.61997 1.97992 1.98997C1.60992 2.35997 1.41992 2.80998 1.41992 3.33998V55.05C1.41992 56.32 2.07993 56.95 3.39993 56.95H13.7899C15.0599 56.95 15.6899 56.32 15.6899 55.05V23.96L34.4099 54.97C35.1999 56.29 36.5799 56.95 38.5299 56.95H49.7099C50.2399 56.95 50.6999 56.78 51.0999 56.43C51.4999 56.09 51.6899 55.62 51.6899 55.04V3.32999C51.6899 2.79999 51.4899 2.34998 51.0999 1.97998C50.6999 1.60998 50.2399 1.41998 49.7099 1.41998L49.7399 1.42998Z" fill="#231F20"/>
<path d="M38.2699 55.67C36.6799 55.67 35.6099 55.18 34.9999 54.17L16.2799 23.15C16.0999 22.84 15.7699 22.67 15.4199 22.67C15.3299 22.67 15.2399 22.68 15.1499 22.71C14.7199 22.83 14.4199 23.22 14.4199 23.67V54.76C14.4199 55.48 14.2299 55.66 13.5199 55.66H3.12988C2.27988 55.66 2.1499 55.39 2.1499 54.76V3.04997C2.1499 2.78997 2.22988 2.58997 2.40988 2.40997C2.52988 2.28997 2.71988 2.14996 3.12988 2.14996H16.6099C17.4599 2.14996 18.0199 2.47997 18.4299 3.21997L36.2899 33.31C36.4699 33.62 36.7999 33.8 37.1499 33.8C37.2399 33.8 37.3299 33.79 37.4099 33.76C37.8399 33.64 38.1499 33.25 38.1499 32.8V3.05997C38.1499 2.79997 38.2299 2.59997 38.4099 2.41997C38.5899 2.23997 38.7899 2.15997 39.0499 2.15997H49.4399C49.7199 2.15997 49.9299 2.24997 50.1499 2.44997C50.3399 2.62997 50.4299 2.80996 50.4299 3.06996V54.78C50.4299 55.15 50.2999 55.31 50.1799 55.41C49.9699 55.6 49.7299 55.68 49.4499 55.68H38.2699V55.67Z" fill="#FC0B50"/>
<path d="M49.4402 3.15001V54.67H38.2701C36.6701 54.67 36.1401 54.13 35.8601 53.65L17.1401 22.64C16.7701 22.03 16.1201 21.67 15.4301 21.67C15.2501 21.67 15.0701 21.69 14.8901 21.74C14.0201 21.98 13.4301 22.77 13.4301 23.67V54.67H3.15015V3.15001H16.6201C17.1101 3.15001 17.3402 3.28001 17.5702 3.70001C17.5802 3.72001 17.5901 3.74001 17.6001 3.76001L35.4502 33.82C35.8202 34.44 36.4801 34.8 37.1701 34.8C37.3501 34.8 37.5202 34.78 37.7002 34.73C38.5702 34.49 39.1701 33.7 39.1701 32.8V3.15001H49.4502M49.4601 1.15001H39.0702C38.5402 1.15001 38.0901 1.34001 37.7201 1.71001C37.3501 2.08001 37.1601 2.53001 37.1601 3.06001V32.8L19.3102 2.74001C18.7302 1.68001 17.8301 1.15001 16.6101 1.15001H3.13013C2.55013 1.15001 2.07013 1.34001 1.70013 1.71001C1.33013 2.08001 1.14014 2.53001 1.14014 3.06001V54.77C1.14014 56.04 1.80015 56.67 3.12015 56.67H13.5102C14.7802 56.67 15.4101 56.04 15.4101 54.77V23.68L34.1302 54.69C34.9202 56.01 36.3002 56.67 38.2502 56.67H49.4301C49.9601 56.67 50.4202 56.5 50.8202 56.15C51.2202 55.81 51.4101 55.34 51.4101 54.76V3.05002C51.4101 2.52002 51.2102 2.07001 50.8202 1.70001C50.4202 1.33001 49.9601 1.14001 49.4301 1.14001L49.4601 1.15001Z" fill="#231F20"/>
<path d="M37.9901 55.39C36.4001 55.39 35.3301 54.9 34.7201 53.89L16.0001 22.87C15.8201 22.56 15.4901 22.39 15.1401 22.39C15.0501 22.39 14.9601 22.4 14.8701 22.43C14.4401 22.55 14.1401 22.94 14.1401 23.39V54.48C14.1401 55.2 13.9501 55.38 13.2401 55.38H2.8501C2.0001 55.38 1.87012 55.11 1.87012 54.48V2.77C1.87012 2.51 1.9501 2.31 2.1301 2.13C2.2501 2.01 2.4401 1.87 2.8501 1.87H16.3301C17.1801 1.87 17.7401 2.2 18.1501 2.94L36.0101 33.03C36.1901 33.34 36.5201 33.52 36.8701 33.52C36.9601 33.52 37.0501 33.51 37.1301 33.48C37.5601 33.36 37.8701 32.97 37.8701 32.52V2.78C37.8701 2.52 37.9501 2.32 38.1301 2.14C38.3101 1.96 38.5101 1.88 38.7701 1.88H49.1601C49.4401 1.88 49.6501 1.97 49.8701 2.17C50.0601 2.35 50.1501 2.52999 50.1501 2.78999V54.5C50.1501 54.87 50.0201 55.03 49.9001 55.13C49.6901 55.32 49.4501 55.4 49.1701 55.4H37.9901V55.39Z" fill="#FC0B50"/>
<path d="M49.1601 2.85999V54.38H37.9901C36.3901 54.38 35.8601 53.84 35.5801 53.36L16.8601 22.35C16.4901 21.74 15.8401 21.38 15.1501 21.38C14.9701 21.38 14.7901 21.4 14.6101 21.45C13.7401 21.69 13.1501 22.48 13.1501 23.38V54.38H2.87012V2.85999H16.3401C16.8301 2.85999 17.0601 2.98999 17.2901 3.40999C17.3001 3.42999 17.3101 3.44999 17.3201 3.46999L35.1701 33.53C35.5401 34.15 36.2001 34.51 36.8901 34.51C37.0701 34.51 37.2401 34.49 37.4201 34.44C38.2901 34.2 38.8901 33.41 38.8901 32.51V2.85999H49.1701M49.1701 0.859985H38.7801C38.2501 0.859985 37.8001 1.04998 37.4301 1.41998C37.0601 1.78998 36.8701 2.23999 36.8701 2.76999V32.51L19.0201 2.44998C18.4401 1.38998 17.5401 0.859985 16.3201 0.859985H2.84012C2.26012 0.859985 1.7801 1.04998 1.4101 1.41998C1.0401 1.78998 0.850098 2.23999 0.850098 2.76999V54.48C0.850098 55.75 1.51011 56.38 2.83011 56.38H13.2201C14.4901 56.38 15.1201 55.75 15.1201 54.48V23.39L33.8401 54.4C34.6301 55.72 36.0101 56.38 37.9601 56.38H49.1401C49.6701 56.38 50.1301 56.21 50.5301 55.86C50.9301 55.52 51.1201 55.05 51.1201 54.47V2.75998C51.1201 2.22998 50.9201 1.77999 50.5301 1.40999C50.1301 1.03999 49.6701 0.849976 49.1401 0.849976L49.1701 0.859985Z" fill="#231F20"/>
<path d="M37.7101 55.1C36.1201 55.1 35.0501 54.61 34.4401 53.6L15.7201 22.58C15.5401 22.27 15.2101 22.1 14.8601 22.1C14.7701 22.1 14.6801 22.11 14.5901 22.14C14.1601 22.26 13.8601 22.65 13.8601 23.1V54.19C13.8601 54.91 13.6701 55.09 12.9601 55.09H2.57007C1.72007 55.09 1.59009 54.82 1.59009 54.19V2.48001C1.59009 2.22001 1.67007 2.02001 1.85007 1.84001C1.97007 1.72001 2.16007 1.58002 2.57007 1.58002H16.0501C16.9001 1.58002 17.4601 1.91001 17.8701 2.65001L35.7301 32.74C35.9101 33.05 36.2401 33.23 36.5901 33.23C36.6801 33.23 36.7701 33.22 36.8501 33.19C37.2801 33.07 37.5901 32.68 37.5901 32.23V2.49001C37.5901 2.23001 37.6701 2.03001 37.8501 1.85001C38.0301 1.67001 38.2301 1.59001 38.4901 1.59001H48.8801C49.1601 1.59001 49.3701 1.68002 49.5901 1.88002C49.7801 2.06002 49.8701 2.24002 49.8701 2.50002V54.21C49.8701 54.58 49.7401 54.74 49.6201 54.84C49.4101 55.03 49.17 55.11 48.89 55.11H37.7101V55.1Z" fill="#FC0B50"/>
<path d="M48.8701 2.58002V54.1H37.7001C36.1001 54.1 35.5701 53.56 35.2901 53.08L16.5701 22.07C16.2001 21.46 15.5501 21.1 14.8601 21.1C14.6801 21.1 14.5001 21.12 14.3201 21.17C13.4501 21.41 12.8601 22.2 12.8601 23.1V54.1H2.58008V2.58002H16.0501C16.5401 2.58002 16.7701 2.71002 17.0001 3.13002C17.0101 3.15002 17.0201 3.17002 17.0301 3.19002L34.8801 33.25C35.2501 33.87 35.9101 34.23 36.6001 34.23C36.7801 34.23 36.9501 34.21 37.1301 34.16C38.0001 33.92 38.6001 33.13 38.6001 32.23V2.58002H48.8801M48.89 0.580017H38.5001C37.9701 0.580017 37.5201 0.770015 37.1501 1.14001C36.7801 1.51001 36.5901 1.96001 36.5901 2.49001V32.23L18.7401 2.17001C18.1601 1.11001 17.2601 0.580017 16.0401 0.580017H2.56009C1.98009 0.580017 1.50007 0.770015 1.13007 1.14001C0.760066 1.51001 0.570068 1.96001 0.570068 2.49001V54.2C0.570068 55.47 1.23008 56.1 2.55008 56.1H12.9401C14.2101 56.1 14.8401 55.47 14.8401 54.2V23.11L33.5601 54.12C34.3501 55.44 35.7301 56.1 37.6801 56.1H48.8601C49.3901 56.1 49.8501 55.93 50.2501 55.58C50.6501 55.24 50.8401 54.77 50.8401 54.19V2.48001C50.8401 1.95001 50.6401 1.50002 50.2501 1.13002C49.8501 0.76002 49.3901 0.570007 48.8601 0.570007L48.89 0.580017Z" fill="#231F20"/>
<path d="M37.42 54.82C35.83 54.82 34.76 54.33 34.15 53.32L15.4301 22.3C15.2501 21.99 14.9201 21.82 14.5701 21.82C14.4801 21.82 14.39 21.83 14.3 21.86C13.87 21.98 13.5701 22.37 13.5701 22.82V53.91C13.5701 54.63 13.38 54.81 12.67 54.81H2.28003C1.43003 54.81 1.30005 54.54 1.30005 53.91V2.19998C1.30005 1.93998 1.38006 1.73998 1.56006 1.55998C1.68006 1.43998 1.87003 1.29999 2.28003 1.29999H15.7601C16.6101 1.29999 17.17 1.62998 17.58 2.36998L35.4401 32.46C35.6201 32.77 35.95 32.95 36.3 32.95C36.39 32.95 36.4801 32.94 36.5601 32.91C36.9901 32.79 37.3 32.4 37.3 31.95V2.20998C37.3 1.94998 37.3801 1.74998 37.5601 1.56998C37.7401 1.38998 37.9401 1.30998 38.2001 1.30998H48.59C48.87 1.30998 49.08 1.39998 49.3 1.59998C49.49 1.77998 49.58 1.95999 49.58 2.21999V53.93C49.58 54.3 49.45 54.46 49.33 54.56C49.12 54.75 48.88 54.83 48.6 54.83H37.42V54.82Z" fill="#FC0B50"/>
<path d="M48.59 2.29999V53.82H37.42C35.82 53.82 35.2901 53.28 35.0101 52.8L16.29 21.79C15.92 21.18 15.27 20.82 14.58 20.82C14.4 20.82 14.22 20.84 14.04 20.89C13.17 21.13 12.58 21.92 12.58 22.82V53.82H2.30005V2.29999H15.77C16.26 2.29999 16.49 2.42998 16.72 2.84998C16.73 2.86998 16.7401 2.88999 16.7501 2.90999L34.6 32.97C34.97 33.59 35.6301 33.95 36.3201 33.95C36.5001 33.95 36.67 33.93 36.85 33.88C37.72 33.64 38.3201 32.85 38.3201 31.95V2.29999H48.6M48.61 0.299988H38.22C37.69 0.299988 37.2401 0.489985 36.8701 0.859985C36.5001 1.22999 36.3101 1.67998 36.3101 2.20998V31.95L18.46 1.88998C17.88 0.829984 16.9801 0.299988 15.7601 0.299988H2.28003C1.70003 0.299988 1.22004 0.489985 0.850037 0.859985C0.480037 1.22999 0.290039 1.67998 0.290039 2.20998V53.92C0.290039 55.19 0.95005 55.82 2.27005 55.82H12.66C13.93 55.82 14.5601 55.19 14.5601 53.92V22.83L33.28 53.84C34.07 55.16 35.45 55.82 37.4 55.82H48.58C49.11 55.82 49.57 55.65 49.97 55.3C50.37 54.96 50.5601 54.49 50.5601 53.91V2.19998C50.5601 1.66998 50.36 1.21998 49.97 0.849976C49.57 0.479976 49.11 0.289978 48.58 0.289978L48.61 0.299988Z" fill="#231F20"/>
<path d="M37.14 54.54C35.55 54.54 34.48 54.05 33.87 53.04L15.15 22.02C14.97 21.71 14.64 21.54 14.29 21.54C14.2 21.54 14.11 21.55 14.02 21.58C13.59 21.7 13.29 22.09 13.29 22.54V53.63C13.29 54.35 13.1 54.53 12.39 54.53H2C1.15 54.53 1.02002 54.26 1.02002 53.63V1.92001C1.02002 1.66001 1.1 1.46001 1.28 1.28001C1.4 1.16001 1.59 1.02002 2 1.02002H15.48C16.33 1.02002 16.89 1.35001 17.3 2.09001L35.16 32.18C35.34 32.49 35.67 32.67 36.02 32.67C36.11 32.67 36.2 32.66 36.28 32.63C36.71 32.51 37.02 32.12 37.02 31.67V1.93001C37.02 1.67001 37.1 1.47001 37.28 1.29001C37.46 1.11001 37.66 1.03001 37.92 1.03001H48.31C48.59 1.03001 48.8 1.12001 49.02 1.32001C49.21 1.50001 49.3 1.68002 49.3 1.94002V53.65C49.3 54.02 49.17 54.18 49.05 54.28C48.84 54.47 48.6 54.55 48.32 54.55H37.14V54.54Z" fill="#FC0B50"/>
<path d="M48.31 2.00999V53.53H37.14C35.54 53.53 35.01 52.99 34.73 52.51L16.01 21.5C15.64 20.89 14.99 20.53 14.3 20.53C14.12 20.53 13.94 20.55 13.76 20.6C12.89 20.84 12.3 21.63 12.3 22.53V53.53H2.02002V2.00999H15.49C15.98 2.00999 16.21 2.14 16.44 2.56C16.45 2.58 16.46 2.6 16.47 2.62L34.32 32.68C34.69 33.3 35.35 33.66 36.04 33.66C36.22 33.66 36.39 33.64 36.57 33.59C37.44 33.35 38.04 32.56 38.04 31.66V2.00999H48.32M48.32 0.00999451H37.93C37.4 0.00999451 36.95 0.199992 36.58 0.569992C36.21 0.939992 36.02 1.39 36.02 1.92V31.66L18.17 1.59999C17.59 0.539991 16.69 0.00999451 15.47 0.00999451H1.99002C1.41002 0.00999451 0.930028 0.199992 0.560028 0.569992C0.190028 0.939992 0 1.39 0 1.92V53.63C0 54.9 0.660011 55.53 1.98001 55.53H12.37C13.64 55.53 14.27 54.9 14.27 53.63V22.54L32.99 53.55C33.78 54.87 35.16 55.53 37.11 55.53H48.29C48.82 55.53 49.28 55.36 49.68 55.01C50.08 54.67 50.27 54.2 50.27 53.62V1.91C50.27 1.38 50.07 0.929998 49.68 0.559998C49.28 0.189998 48.82 0 48.29 0L48.32 0.00999451Z" fill="#231F20"/>
</svg>
