<svg width="52" height="63" viewBox="0 0 52 63" fill="none" xmlns="http://www.w3.org/2000/svg">
<path d="M48.4348 6.41502V55.985C48.4348 56.915 48.0649 57.695 47.3249 58.325C46.7549 58.735 46.1249 58.935 45.4449 58.935H45.1148C44.3448 58.855 43.6849 58.485 43.1449 57.835L9.36484 14.945V56.025C9.36484 56.815 9.08485 57.505 8.50485 58.095C7.93485 58.685 7.23486 58.975 6.41486 58.975C5.59486 58.975 4.89486 58.685 4.32486 58.095C3.74486 57.505 3.45483 56.815 3.45483 56.025V6.41502C3.45483 5.58502 3.74486 4.89502 4.32486 4.31502C4.90486 3.73502 5.59486 3.45502 6.41486 3.45502C7.39486 3.45502 8.20484 3.88502 8.83484 4.72502L42.5249 47.485V6.41502C42.5249 5.58502 42.8149 4.89502 43.3849 4.31502C43.9649 3.74502 44.6648 3.45502 45.4848 3.45502C46.3048 3.45502 46.9949 3.74502 47.5749 4.31502C48.1449 4.89502 48.4348 5.58502 48.4348 6.41502Z" fill="white"/>
<path d="M2.22488 2.245C3.37488 1.085 4.77489 0.505005 6.41489 0.505005C8.41489 0.505005 10.0249 1.335 11.2549 3.005L39.5749 38.955V6.415C39.5749 4.795 40.1449 3.405 41.2949 2.245C42.4449 1.085 43.8449 0.505005 45.4849 0.505005C47.1249 0.505005 48.5149 1.085 49.6649 2.245C50.8149 3.405 51.3949 4.795 51.3949 6.415V55.985C51.3949 57.815 50.6349 59.375 49.1349 60.665C47.9849 61.515 46.7549 61.935 45.4449 61.935C45.2249 61.935 44.6649 61.885 43.7749 61.775C42.8849 61.665 41.9148 60.965 40.8448 59.675L12.3249 23.445V56.025C12.3249 57.635 11.7448 59.025 10.5948 60.195C9.45485 61.355 8.05489 61.935 6.41489 61.935C4.77489 61.935 3.37488 61.355 2.22488 60.195C1.07488 59.025 0.504883 57.635 0.504883 56.025V6.415C0.504883 4.795 1.07488 3.405 2.22488 2.245ZM4.32489 4.31501C3.74489 4.89501 3.45486 5.585 3.45486 6.415V56.025C3.45486 56.815 3.74489 57.505 4.32489 58.095C4.89489 58.685 5.59489 58.975 6.41489 58.975C7.23489 58.975 7.93488 58.685 8.50488 58.095C9.08488 57.505 9.36487 56.815 9.36487 56.025V14.945L43.1449 57.835C43.6849 58.485 44.3449 58.855 45.1149 58.935H45.4449C46.1249 58.935 46.7549 58.735 47.3249 58.325C48.0649 57.695 48.4349 56.915 48.4349 55.985V6.415C48.4349 5.585 48.1449 4.89501 47.5749 4.31501C46.9949 3.74501 46.3049 3.455 45.4849 3.455C44.6649 3.455 43.9649 3.74501 43.3849 4.31501C42.8149 4.89501 42.5249 5.585 42.5249 6.415V47.485L8.83487 4.72501C8.20487 3.88501 7.39489 3.455 6.41489 3.455C5.59489 3.455 4.89489 3.74501 4.32489 4.31501Z" fill="#DD07D8"/>
<path d="M0.504883 56.025V6.415C0.504883 4.795 1.07488 3.405 2.22488 2.245C3.37488 1.085 4.77489 0.505005 6.41489 0.505005C8.41489 0.505005 10.0249 1.335 11.2549 3.005L39.5749 38.955V6.415C39.5749 4.795 40.1449 3.405 41.2949 2.245C42.4449 1.085 43.8449 0.505005 45.4849 0.505005C47.1249 0.505005 48.5149 1.085 49.6649 2.245C50.8149 3.405 51.3949 4.795 51.3949 6.415V55.985C51.3949 57.815 50.6349 59.375 49.1349 60.665C47.9849 61.515 46.7549 61.935 45.4449 61.935C45.2249 61.935 44.6649 61.885 43.7749 61.775C42.8849 61.665 41.9148 60.965 40.8448 59.675L12.3249 23.445V56.025C12.3249 57.635 11.7448 59.025 10.5948 60.195C9.45485 61.355 8.05489 61.935 6.41489 61.935C4.77489 61.935 3.37488 61.355 2.22488 60.195C1.07488 59.025 0.504883 57.635 0.504883 56.025Z" stroke="#DD07D8" stroke-width="1.01" stroke-linecap="round" stroke-linejoin="round"/>
<path d="M3.45483 56.025C3.45483 56.815 3.74486 57.505 4.32486 58.095C4.89486 58.685 5.59486 58.975 6.41486 58.975C7.23486 58.975 7.93485 58.685 8.50485 58.095C9.08485 57.505 9.36484 56.815 9.36484 56.025V14.945L43.1449 57.835C43.6849 58.485 44.3448 58.855 45.1148 58.935H45.4449C46.1249 58.935 46.7549 58.735 47.3249 58.325C48.0649 57.695 48.4348 56.915 48.4348 55.985V6.41502C48.4348 5.58502 48.1449 4.89502 47.5749 4.31502C46.9949 3.74502 46.3048 3.45502 45.4848 3.45502C44.6648 3.45502 43.9649 3.74502 43.3849 4.31502C42.8149 4.89502 42.5249 5.58502 42.5249 6.41502V47.485L8.83484 4.72502C8.20484 3.88502 7.39486 3.45502 6.41486 3.45502C5.59486 3.45502 4.89486 3.74502 4.32486 4.31502C3.75486 4.88502 3.45483 5.58502 3.45483 6.41502V56.025Z" stroke="#DD07D8" stroke-width="1.01" stroke-linecap="round" stroke-linejoin="round"/>
</svg>
