<svg width="50" height="41" viewBox="0 0 50 41" fill="none" xmlns="http://www.w3.org/2000/svg">
<path d="M6.54001 7.48999C6.59001 7.48999 7.06001 7.13999 7.92001 6.42999C8.79001 5.72999 9.25002 5.37 9.30002 5.37C9.46002 5.37 9.79 5.17999 10.28 4.79999C10.77 4.41999 11.23 4.18001 11.66 4.07001C12.09 3.96001 12.31 3.83 12.31 3.66C12.31 3.55 13.03 3.12999 14.47 2.39999C15.91 1.66999 16.87 1.27 17.36 1.22C17.85 1.11 18.31 0.890007 18.74 0.570007C19.34 0.190007 20.78 0 23.06 0C25.56 0 27.16 0.140004 27.86 0.410004C28.13 0.520004 29.62 0.759984 32.34 1.13998C33.81 1.35998 34.59 1.52 34.7 1.63C34.92 1.74 35.11 1.78998 35.27 1.78998C35.49 1.78998 36.02 2.01 36.86 2.44C37.7 2.88 38.12 3.15 38.12 3.25C38.12 3.41 38.2 3.48999 38.36 3.48999C38.47 3.48999 38.9 3.75999 39.66 4.29999C40.42 4.83999 40.83 5.10999 40.88 5.10999C41.1 5.10999 41.29 5.24999 41.45 5.51999C41.56 5.73999 41.83 5.94 42.26 6.13C42.69 6.32 42.97 6.55001 43.07 6.82001C43.07 6.98001 43.36 7.34998 43.93 7.91998C44.5 8.48998 44.79 8.85999 44.79 9.01999C44.79 9.12999 44.98 9.42998 45.36 9.91998C45.74 10.41 45.93 10.68 45.93 10.73L46.58 11.95L47.23 13.17C47.88 15.07 48.21 16.08 48.21 16.18C48.32 16.99 48.43 17.46 48.54 17.56C48.7 17.72 48.78 18.02 48.78 18.46C48.78 18.95 48.86 19.27 49.02 19.44C49.18 19.49 49.26 20.96 49.26 23.84C49.26 26.72 49.18 28.07 49.02 28.07C48.86 28.07 48.78 28.21 48.78 28.48C48.78 28.81 48.32 29.73 47.4 31.25C47.35 31.36 46.96 31.79 46.26 32.55C45.55 33.31 45.2 33.77 45.2 33.93C45.2 34.09 45.12 34.17 44.96 34.17C44.8 34.17 44.34 34.55 43.58 35.31C42.66 36.12 41.38 36.94 39.75 37.75C38.99 38.02 38.61 38.27 38.61 38.48C38.61 38.53 38.46 38.62 38.16 38.72C37.86 38.83 37.55 38.94 37.22 39.05L36.81 39.21C36.27 39.64 34.56 39.86 31.68 39.86C30.48 39.86 29.83 39.94 29.72 40.1C29.61 40.26 28.66 40.34 26.87 40.34C25.08 40.34 24.13 40.26 24.02 40.1C23.91 39.94 23.45 39.86 22.64 39.86C21.77 39.86 20.51 39.78 18.85 39.62C17.19 39.46 16.26 39.32 16.04 39.21C15.99 39.21 15.7 39.16 15.19 39.05C14.67 38.94 14.17 38.83 13.68 38.72C13.19 38.61 12.92 38.53 12.87 38.48C12.71 38.32 12.52 38.24 12.3 38.24C11.97 38.24 11.81 38.16 11.81 38C11.81 37.84 11.7 37.76 11.48 37.76C10.99 37.76 9.80002 37.24 7.90002 36.21C7.52002 35.99 6.79001 35.34 5.70001 34.26C4.61001 33.17 4.07001 32.52 4.07001 32.31C4.07001 32.26 3.78002 31.85 3.21002 31.09C2.64002 30.33 2.36002 29.9 2.36002 29.79C2.36002 29.68 2.17001 29.25 1.79001 28.49C0.870009 26.7 0.410004 25.59 0.410004 25.15C0.410004 24.88 0.36 24.72 0.25 24.66C0.09 24.5 0 23.47 0 21.57C0 19.67 0.08 18.64 0.25 18.64C0.42 18.64 0.490021 18.45 0.490021 18.07C0.380021 17.58 0.540011 16.96 0.980011 16.2C1.14001 15.71 1.22 15.44 1.22 15.39C1.22 15.17 1.37001 14.87 1.67001 14.49C1.97001 14.11 2.12003 13.84 2.12003 13.68C2.12003 13.52 2.36001 13.08 2.85001 12.38C3.34001 11.67 3.58002 11.27 3.58002 11.16C3.58002 11.05 3.81002 10.69 4.27002 10.06C4.73002 9.44 4.96002 9.09998 4.96002 9.03998C4.96002 8.87998 5.19002 8.57998 5.65002 8.13998C6.11002 7.70998 6.40001 7.48999 6.51001 7.48999H6.54001ZM13.95 13.93C14.06 14.2 14.02 14.49 13.83 14.78C13.64 15.08 13.54 15.36 13.54 15.64C13.54 16.13 13.46 16.45 13.3 16.62C13.08 16.84 12.97 18.28 12.97 20.94C12.97 23.6 13.13 25.2 13.46 25.75C13.62 26.13 13.73 26.44 13.79 26.69C13.84 26.93 13.98 27.19 14.2 27.46C14.53 27.79 14.74 28.14 14.85 28.52C14.96 28.96 15.65 29.82 16.93 31.13C18.2 32.43 19.11 33.19 19.66 33.41C19.77 33.46 19.97 33.57 20.27 33.74C20.57 33.9 20.77 34.01 20.88 34.07C21.75 34.51 23.62 34.72 26.5 34.72H27.48C29.16 34.67 30.33 34.37 30.98 33.82C31.58 33.33 31.96 33.09 32.12 33.09C32.23 33.09 32.57 32.78 33.14 32.15C33.71 31.53 34.02 31.11 34.08 30.89C34.19 30.62 34.3 30.48 34.41 30.48C34.57 30.48 34.65 30.37 34.65 30.15C34.65 29.88 34.7 29.74 34.81 29.74C35.03 29.74 35.23 29.47 35.42 28.93C35.61 28.39 35.79 27.76 35.95 27.06C36.11 26.35 36.25 25.92 36.36 25.76L36.61 24.7C36.72 23.99 36.84 23.36 36.98 22.79C37.11 22.22 37.21 21.93 37.27 21.93C37.38 21.93 37.43 20.95 37.43 19C37.43 17.05 37.38 15.96 37.27 15.91C37.16 15.8 37.01 15.39 36.82 14.69C36.63 13.98 36.51 13.58 36.45 13.47C36.29 13.25 36.12 12.95 35.96 12.57C35.8 12.19 35.62 11.85 35.43 11.55C35.24 11.25 34.98 10.94 34.66 10.61C33.9 9.62999 33.47 9.05999 33.36 8.89999C33.25 8.62999 32.92 8.33 32.38 8C31.84 7.67 31.54 7.47999 31.48 7.42999C31.1 7.15999 30.58 7.01999 29.93 7.01999C29.28 7.01999 28.9 6.96999 28.79 6.85999C28.57 6.63999 27.3 6.53 24.96 6.53C22.95 6.53 21.87 6.63999 21.7 6.85999C21.48 6.96999 21.16 7.01999 20.72 7.01999C20.34 7.01999 20.04 7.09998 19.82 7.25998C19.6 7.41998 19.3 7.5 18.92 7.5C18.48 7.5 17.97 7.77 17.37 8.31C16.83 8.85 16.42 9.12 16.15 9.12C15.99 9.12 15.9 9.22998 15.9 9.44998C15.9 9.66998 15.79 9.89001 15.57 10.1C15.41 10.26 15.19 10.68 14.92 11.36C14.65 12.04 14.43 12.49 14.27 12.7C14.05 13.14 13.94 13.54 13.94 13.92L13.95 13.93Z" fill="black"/>
</svg>
