<svg width="44" height="81" viewBox="0 0 44 81" fill="none" xmlns="http://www.w3.org/2000/svg">
<path d="M33.2204 5.9654C42.1904 14.0554 43.3004 25.0654 43.0904 36.5954C42.8304 51.0654 40.0104 74.9453 23.4004 79.5453C10.3904 83.1553 1.1804 75.7754 0.250401 62.6554C-0.999599 45.0754 2.39041 22.0254 11.3204 6.67536C17.1704 -3.39464 25.7704 -0.764604 33.2204 5.9654ZM30.3404 12.5954C28.9004 11.2454 23.1404 6.80539 21.3304 7.33539C20.9604 7.44539 20.3504 8.42538 20.1804 8.82538C16.1904 18.1054 13.7804 33.5254 12.2804 43.7154C11.2404 50.7354 11.3304 58.5654 12.1804 65.6354C12.5004 68.2654 12.8404 71.0454 14.2404 73.3154C17.3404 73.8854 26.7504 72.7854 27.6904 69.2854C32.2304 52.3754 31.1804 31.8954 30.0604 14.5254C30.0204 13.8854 30.5804 13.0254 30.3404 12.5854V12.5954Z" fill="#1E161F"/>
</svg>
