<svg width="49" height="70" viewBox="0 0 49 70" fill="none" xmlns="http://www.w3.org/2000/svg">
<path d="M20.91 0.792908C21.17 1.54291 20.24 1.48291 20.17 1.79291C20.03 2.42291 20.05 5.08292 20.17 5.74292C20.23 6.05292 21.44 6.65292 21.54 6.86292C21.75 7.33292 21.57 8.14291 21.66 8.23291C21.79 8.36291 22.52 8.13291 22.85 8.26291C23.25 8.42291 23.06 9.36292 24.39 8.99292C24.65 8.92292 24.6 8.3229 24.88 8.2529C25.63 8.0829 26.54 8.38291 27.34 8.23291C27.63 8.18291 28.16 7.08289 28.47 6.87289C28.8 6.65289 29.44 6.8429 29.73 6.6329C29.88 6.5229 31.91 4.57291 31.97 4.42291C32.48 3.22291 31 2.58289 30.96 1.15289C38.96 3.89289 41.25 7.97292 44.83 15.0829C45.08 15.5729 45.8 15.6129 45.88 15.9629C46.51 18.5629 47.27 22.1729 47.69 24.8829C47.82 25.7229 47.56 26.7529 47.73 27.3929C47.82 27.7429 48.45 27.6029 48.48 27.6429C48.62 27.8329 47.72 28.3429 47.73 28.9329C47.73 29.6429 48.99 30.7529 48.48 32.6129C48.38 32.9929 47.6 32.7329 47.73 33.0329C48.37 34.4529 48.37 33.9829 48.47 35.8329C46.48 35.9429 45.45 33.8429 43.51 34.3529C43.26 34.4229 43.25 34.9029 43.12 34.9529C42.2 35.3129 41.01 35.6929 40.38 36.6829C40.19 36.9929 40.35 37.4829 40.23 37.7529C40.05 38.1629 39.57 37.9629 39.49 38.5929C39.41 39.1729 39.4 41.0029 39.53 41.5229C39.59 41.7729 40.09 41.7829 40.14 41.9129C40.92 43.8629 40.9 43.0529 41.64 44.1429C41.81 44.4029 41.88 45.9029 42.61 46.1329C44.54 46.7729 44.49 45.7829 44.87 45.6329C45.31 45.4629 45.85 45.5629 46.12 45.3829C46.77 44.9529 46.47 44.4529 47.73 44.0129C47.49 46.0129 47.42 48.1729 46.94 50.1229C46.67 51.2229 43.04 59.6529 42.53 60.1529C42.1 60.5729 41.39 60.4629 40.99 60.9529C40.71 61.2829 40.78 61.9529 40.54 62.1829C34.46 67.9729 25.67 70.9429 17.04 68.5529C16.36 68.3629 16.19 67.5929 16.04 67.5129C17.97 67.0229 16.85 65.7829 17.17 64.4129C17.24 64.1329 18.2 64.3829 17.93 62.4729C17.82 61.7129 16.84 61.5129 16.54 61.0529C16.49 60.9729 15.72 59.4829 15.69 59.3829C15.56 59.0329 15.77 58.3029 15.67 58.1829C15.48 57.9629 10.83 58.3129 9.97998 58.1929L7.47 61.1629C4.02 56.3729 1.63999 52.9529 0.769989 46.4229C0.609989 45.2329 0.94 43.8729 0.75 42.7129C0.65 42.0929 0.02 41.7529 0 41.2129C0 40.9929 0.68001 41.0829 0.76001 40.7829C1.27001 38.8129 1.09001 33.3329 1.51001 30.5829C2.57001 30.4429 4.00998 30.8029 4.97998 30.5729C5.10998 30.5429 6.85999 29.1329 6.98999 29.1029C7.60999 28.9629 9.43 29.2329 9.69 28.0729C10.15 26.0329 9.02 26.0929 8.97 25.8529C8.85 25.2929 9.09 24.6329 8.97 24.1029C8.89 23.7229 8.28999 24.0129 8.20999 23.6729C8.01999 22.8329 8.86 23.2629 8.97 22.8829C9.44 21.1229 8.44999 21.8829 7.57999 21.5129C7.10999 21.3129 6.71001 19.6029 6.01001 20.1729C5.89001 20.2729 6.15999 20.7829 5.79999 20.8829C4.93999 21.1229 5.49 19.8429 4.5 20.1329C4.56 20.0429 4.46001 19.3429 4.60001 18.9429C6.76001 12.8529 8.06999 10.2729 12.58 5.83292C15.64 2.82292 16.11 1.23292 20.91 0.74292V0.792908ZM23.89 16.4529C23.74 14.9629 24.48 13.0229 23.02 12.1029C22.7 11.9029 22.21 12.0629 21.96 11.9429C21.53 11.7429 21.75 11.2529 21.11 11.2029C19.79 11.0929 20.34 11.9129 19.98 11.9829C19.07 12.1629 19.65 11.3229 19.23 11.2229C18.35 11.0229 18.79 11.8429 18.66 11.9529C17.87 12.6329 17.97 11.2929 17.91 11.2429C17.24 10.6429 17.15 11.8229 17.08 11.8629C16.67 12.0729 16.14 11.8929 15.81 12.1029C14.56 12.9129 15.16 13.7029 14.94 14.7029C14.87 14.9929 13.84 15.0929 14.17 17.4129C14.27 18.1129 14.87 17.8929 14.94 18.2029C15.2 19.3729 14.66 20.9829 16.81 20.9329C16.63 21.5429 16.82 22.5329 16.5 23.4129C14.53 28.7329 14.46 32.3129 14.2 38.0929L13.83 38.8329C13.24 38.9329 10.6 38.6929 10.47 38.8329C10.37 38.9529 10.59 39.6829 10.45 40.0329C10.27 40.5029 8.30999 43.2929 8.23999 43.5729C7.55999 46.2429 9.36998 45.2929 9.66998 46.1529C9.89998 46.7929 9.55 49.1329 9.72 49.2729C9.84 49.3729 10.58 49.1529 10.92 49.2829C11.26 49.4129 11.2 49.9429 11.46 50.0029C12.9 50.3529 15.45 50.2929 15.68 48.5229C18.29 49.8729 20.73 51.5929 23.88 51.5029C23.83 51.5329 23.97 51.9329 23.88 52.0029C22.56 52.9129 23.28 53.6729 23.15 55.2329L23.89 54.4929C23.46 55.8129 24.36 55.8029 24.61 56.2929C24.73 56.5329 24.57 57.0529 24.76 57.3629C25.6 58.6929 27.29 59.3429 28.85 58.9629C28.98 58.9329 30.73 57.5229 30.86 57.4929C31.4 57.3629 32.02 57.6029 32.56 57.4729C33.83 57.1629 33.75 53.8729 33.61 52.8029C33.52 52.1129 32.91 52.3129 32.84 52.0129C32.65 51.2129 32.94 50.1429 32.83 49.2829L32.09 50.0229C32.57 47.6829 30.88 48.7129 29.1 48.5329C29.54 47.8229 32.3 41.4129 32.4 40.7929C32.53 39.9529 32.05 39.3429 32.09 38.6629C32.13 37.9829 32.76 37.4329 32.81 36.7629C32.88 35.8529 32.97 31.0529 32.73 30.7029C32.59 30.5029 31.9 30.9129 32.08 30.0729C32.16 29.7229 32.59 29.9829 32.75 29.8129C33.1 29.4229 32.01 27.0029 31.83 26.2329C31.14 23.2529 31.15 21.7129 29.23 19.3029C29.05 19.0829 29.19 18.5229 29.05 18.4129C28.79 18.2029 28.08 18.3729 27.65 18.1229C26.3 17.3329 25.79 16.5929 23.89 16.4629V16.4529ZM41.68 15.0829C41.11 14.9029 35.29 14.7129 35.07 14.9629C34.97 15.0829 35.19 15.8029 35.05 16.1629C35.01 16.2529 34.25 17.7429 34.2 17.8329C34.03 18.0929 33 18.6629 32.94 18.7829C32.31 20.2429 33.51 20.1629 33.57 20.4329C33.73 21.1929 33.44 22.0929 33.59 22.8929C33.62 23.0529 35.75 25.2329 35.91 25.2829C37.77 25.9329 37.78 24.9429 38.18 24.7729C39.53 24.2029 40.84 23.6729 42.07 23.1729C42.4 23.0429 43.13 23.2829 43.26 23.1429C43.39 23.0029 43.15 22.2829 43.29 21.9529C43.44 21.5929 43.94 21.6729 44.02 21.4229C44.42 20.0929 43.34 20.1929 43.29 19.9229C42.97 18.4929 43.25 18.5529 42.66 17.0729C42.48 16.6129 42.33 15.2829 41.69 15.0829H41.68Z" fill="#EF5268"/>
<path d="M47.7501 44.0429C46.4901 44.4829 46.8001 44.9829 46.1401 45.4129C45.8701 45.5929 45.3301 45.4929 44.8901 45.6629C44.5101 45.8129 44.5601 46.7929 42.6301 46.1629C41.9101 45.9229 41.8401 44.4229 41.6601 44.1729C40.9301 43.0829 40.9401 43.8929 40.1601 41.9429C40.1101 41.8129 39.6101 41.8029 39.5501 41.5529C39.4201 41.0329 39.4301 39.2029 39.5101 38.6229C39.5901 37.9929 40.0701 38.1929 40.2501 37.7829C40.3701 37.5129 40.2101 37.0229 40.4001 36.7129C41.0301 35.7129 42.2201 35.3429 43.1401 34.9829C43.2701 34.9329 43.2701 34.4429 43.5301 34.3829C45.4601 33.8729 46.5001 35.9629 48.4901 35.8629C48.5701 37.3729 48.7101 40.2629 48.4901 41.6329C48.3801 42.2929 47.7401 42.5829 47.7401 43.1329C47.7401 43.3129 49.1101 43.3429 48.5001 44.0629C48.4401 44.1329 47.9601 43.9929 47.7601 44.0629L47.7501 44.0429Z" fill="#F9B027"/>
<path d="M20.9101 0.792873C21.9801 0.682873 23.4401 1.00287 24.3801 0.792873C24.7001 0.722873 24.4301 -0.387121 26.6001 0.142879C26.9901 0.232879 27.4201 0.922873 27.6001 0.792873C27.6601 0.742873 27.5601 0.262868 27.6801 0.162868C28.0001 -0.107132 30.3301 0.962888 30.9701 1.18289C31.0101 2.61289 32.4901 3.25288 31.9801 4.45288C31.9201 4.59288 29.8901 6.54287 29.7401 6.66287C29.4601 6.87287 28.8101 6.69286 28.4801 6.90286C28.1501 7.11286 27.6401 8.20287 27.3501 8.26287C26.5501 8.41287 25.6401 8.11286 24.8901 8.28286C24.6101 8.34286 24.6601 8.94288 24.4001 9.02288C23.0701 9.39288 23.2701 8.45287 22.8601 8.29287C22.5301 8.16287 21.8001 8.39287 21.6701 8.26287C21.5701 8.16287 21.7501 7.35288 21.5501 6.89288C21.4601 6.68288 20.2501 6.08288 20.1801 5.77288C20.0501 5.12288 20.0301 2.45287 20.1801 1.82287C20.2501 1.51287 21.1801 1.57287 20.9201 0.822872L20.9101 0.792873Z" fill="#F9B027"/>
<path d="M7.47998 61.2028L9.98999 58.2328C10.84 58.3528 15.5 58.0028 15.68 58.2228C15.78 58.3428 15.56 59.0628 15.7 59.4228C15.74 59.5128 16.5 61.0028 16.55 61.0928C16.85 61.5528 17.84 61.7428 17.94 62.5128C18.21 64.4228 17.24 64.1628 17.18 64.4528C16.86 65.8228 17.99 67.0628 16.05 67.5528C15.39 67.1928 14.22 67.3728 13.55 67.0628C13.19 66.9028 9.52001 63.5028 8.82001 62.8428C7.68001 61.7728 8.26998 62.3028 7.47998 61.2028Z" fill="#F9B027"/>
<path d="M4.5 20.1829C5.5 19.8929 4.93999 21.1729 5.79999 20.9329C6.16999 20.8329 5.89001 20.3229 6.01001 20.2229C6.71001 19.6529 7.11999 21.3629 7.57999 21.5629C8.44999 21.9329 9.44 21.1729 8.97 22.9329C8.87 23.3129 8.02999 22.8929 8.20999 23.7229C8.28999 24.0629 8.88 23.7729 8.97 24.1529C9.09 24.6729 8.84 25.3329 8.97 25.9029C9.02 26.1429 10.15 26.0729 9.69 28.1229C9.43 29.2829 7.60999 29.0029 6.98999 29.1529C6.85999 29.1829 5.10998 30.5929 4.97998 30.6229C4.00998 30.8629 2.57001 30.4929 1.51001 30.6329C1.98001 27.5629 2.88999 22.8129 4.48999 20.1929L4.5 20.1829Z" fill="#F9B027"/>
<path d="M41.6799 15.0829C42.3199 15.2829 42.4699 16.6229 42.6499 17.0729C43.2399 18.5629 42.9599 18.5029 43.2799 19.9229C43.3399 20.1929 44.4099 20.0929 44.0099 21.4229C43.9399 21.6729 43.4299 21.5929 43.2799 21.9529C43.1499 22.2829 43.3899 23.0129 43.2499 23.1429C43.1099 23.2729 42.3899 23.0329 42.0599 23.1729C40.8199 23.6729 39.5199 24.2029 38.1699 24.7729C37.7699 24.9429 37.7699 25.9329 35.8999 25.2829C35.7399 25.2229 33.6099 23.0529 33.5799 22.8929C33.4299 22.0929 33.7199 21.1929 33.5599 20.4329C33.4999 20.1629 32.2999 20.2429 32.9299 18.7829C32.9799 18.6629 34.0199 18.0829 34.1899 17.8329C34.2499 17.7529 35.0099 16.2629 35.0399 16.1629C35.1699 15.8129 34.9599 15.0829 35.0599 14.9629C35.2799 14.7129 41.0999 14.9029 41.6699 15.0829H41.6799Z" fill="#F9B027"/>
<path d="M29.1099 48.5229C30.8799 48.7029 32.5799 47.6729 32.0999 50.0129L32.8399 49.2729C32.9599 50.1229 32.6699 51.2029 32.8499 52.0029C32.9199 52.3029 33.5299 52.1029 33.6199 52.7929C33.7599 53.8629 33.8399 57.1529 32.5699 57.4629C32.0299 57.5929 31.3999 57.3629 30.8699 57.4829C30.7399 57.5129 28.9899 58.9229 28.8599 58.9529C27.2899 59.3429 25.6099 58.6929 24.7699 57.3529C24.5699 57.0429 24.7399 56.5229 24.6199 56.2829C24.3699 55.7929 23.4799 55.8029 23.8999 54.4829L23.1599 55.2229C23.2899 53.6629 22.5699 52.9029 23.8899 51.9929C23.9899 51.9229 23.8499 51.5229 23.8899 51.4929C24.0699 51.3929 24.7599 51.6429 25.1099 51.4829C25.4099 51.3429 25.3399 50.9029 25.6599 50.7729C27.2599 50.1329 27.8299 50.5729 29.1099 48.5129V48.5229Z" fill="#F9B027"/>
<path d="M14.1901 38.0829C14.1201 39.6029 13.4201 41.8529 13.4201 42.3529C13.4201 42.5829 14.0401 42.5429 14.2101 42.8129C14.6001 43.4429 14.7801 45.3029 14.9401 46.0329C15.0001 46.3229 15.9701 46.2429 15.6801 48.5229C15.4601 50.2929 12.9101 50.3529 11.4601 50.0029C11.2001 49.9429 11.2601 49.4129 10.9201 49.2829C10.5801 49.1529 9.84009 49.3729 9.72009 49.2729C9.55009 49.1229 9.90007 46.7929 9.67007 46.1529C9.36007 45.2929 7.55008 46.2429 8.24008 43.5729C8.31008 43.2929 10.2701 40.5029 10.4501 40.0329C10.5901 39.6829 10.3601 38.9529 10.4701 38.8329C10.5901 38.6929 13.2401 38.9329 13.8301 38.8329L14.2001 38.0929L14.1901 38.0829Z" fill="#F9B027"/>
<path d="M16.7999 20.9229C14.6499 20.9729 15.1899 19.3629 14.9299 18.1929C14.8599 17.8829 14.2599 18.1029 14.1599 17.4029C13.8199 15.0829 14.8599 14.9929 14.9299 14.6929C15.1499 13.6929 14.5499 12.8929 15.7999 12.0929C16.1299 11.8829 16.6599 12.0629 17.0699 11.8529C17.1499 11.8129 17.2399 10.6329 17.8999 11.2329C17.9499 11.2829 17.8499 12.6229 18.6499 11.9429C18.7799 11.8329 18.3299 11.0029 19.2199 11.2129C19.6299 11.3029 19.0499 12.1429 19.9699 11.9729C20.3399 11.9029 19.7899 11.0829 21.0999 11.1929C21.7399 11.2429 21.5299 11.7329 21.9499 11.9329C22.1999 12.0529 22.6899 11.8929 23.0099 12.0929C24.4699 13.0129 23.7299 14.9529 23.8799 16.4429C23.8299 16.4429 23.4399 16.8729 22.9599 16.8429C21.4399 16.7629 19.8099 15.6829 18.7899 17.3129C18.5899 17.6329 18.7499 18.1529 18.5299 18.5429C18.2899 18.9629 16.8399 20.7629 16.7999 20.9129V20.9229Z" fill="#F9B027"/>
</svg>
