<svg width="48" height="61" viewBox="0 0 48 61" fill="none" xmlns="http://www.w3.org/2000/svg">
<path d="M37.0711 6.84401C43.3411 12.484 48.231 26.104 47.971 34.454C47.521 49.144 33.071 61.194 18.371 60.034C8.20104 59.234 2.70106 50.244 0.761057 41.104C-3.86894 19.404 13.1711 -14.646 37.0711 6.84401ZM23.3611 25.034C22.5911 24.534 21.7411 25.724 21.6111 26.384C21.4511 27.194 22.061 27.774 22.091 28.514C22.191 30.584 20.751 31.734 20.751 33.014C20.761 36.334 24.181 32.454 24.431 29.914C24.511 29.034 23.8911 25.384 23.3511 25.034H23.3611ZM8.96104 45.774C9.72104 46.534 11.1111 46.294 11.4111 45.234C11.8011 43.874 10.0311 41.294 9.70106 39.634C9.34106 37.834 9.95106 36.194 8.51106 34.494C7.61106 33.434 6.27105 34.264 5.97105 35.324C5.26105 37.774 6.31106 41.164 7.48106 43.354C7.65106 43.674 8.87105 45.674 8.97105 45.774H8.96104ZM14.5111 50.984C14.5111 50.114 13.811 49.414 12.941 49.414C12.071 49.414 11.371 50.114 11.371 50.984C11.371 51.854 12.071 52.554 12.941 52.554C13.811 52.554 14.5111 51.854 14.5111 50.984Z" fill="#E9549D"/>
<path d="M8.9611 45.774C8.8611 45.674 7.64111 43.6739 7.47111 43.3539C6.30111 41.1639 5.2511 37.7739 5.9611 35.3239C6.2711 34.2639 7.61111 33.4339 8.50111 34.4939C9.94111 36.1939 9.34111 37.8439 9.69111 39.6339C10.0211 41.2939 11.8011 43.8739 11.4011 45.2339C11.0911 46.2939 9.71112 46.534 8.95112 45.774H8.9611Z" fill="white"/>
<path d="M23.361 25.034C23.901 25.384 24.521 29.034 24.441 29.914C24.191 32.454 20.771 36.3341 20.761 33.0141C20.761 31.7341 22.201 30.5841 22.101 28.5141C22.061 27.7741 21.461 27.1941 21.621 26.3841C21.751 25.7141 22.591 24.524 23.371 25.034H23.361Z" fill="white"/>
<path d="M12.9411 52.554C13.8082 52.554 14.5111 51.851 14.5111 50.9839C14.5111 50.1169 13.8082 49.4139 12.9411 49.4139C12.074 49.4139 11.3711 50.1169 11.3711 50.9839C11.3711 51.851 12.074 52.554 12.9411 52.554Z" fill="white"/>
</svg>
