<svg width="66" height="64" viewBox="0 0 66 64" fill="none" xmlns="http://www.w3.org/2000/svg">
<path d="M35.6499 62.57C27.5999 62.57 20.6899 59.82 15.0899 54.4C9.4999 48.99 6.66992 42.33 6.66992 34.61C6.66992 26.89 9.4999 20.23 15.0899 14.82C20.6899 9.40002 27.5999 6.65002 35.6499 6.65002C43.6999 6.65002 50.6799 9.38001 56.2499 14.78C61.8099 20.16 64.6299 26.83 64.6299 34.6C64.6299 42.37 61.8099 49.04 56.2499 54.42C50.6799 59.81 43.7499 62.55 35.6499 62.55V62.57ZM35.6499 17.92C31.0499 17.92 27.1699 19.56 24.1299 22.8C21.1099 26.02 19.5799 30 19.5799 34.63C19.5799 39.26 21.1099 43.24 24.1299 46.46C27.1699 49.7 31.0399 51.34 35.6499 51.34C40.2599 51.34 44.1299 49.7 47.1699 46.46C50.1899 43.24 51.7199 39.26 51.7199 34.63C51.7199 30 50.1899 26.02 47.1699 22.8C44.1299 19.56 40.2599 17.92 35.6499 17.92Z" fill="#FC0B50"/>
<path d="M35.6499 7.66998C43.5899 7.66998 50.0999 10.24 55.5499 15.51C60.9799 20.77 63.6299 27.02 63.6299 34.62C63.6299 42.22 60.9899 48.47 55.5499 53.73C50.0999 59.01 43.5899 61.57 35.6499 61.57C27.7099 61.57 21.2599 58.99 15.7799 53.69C10.3199 48.4 7.65991 42.17 7.65991 34.62C7.65991 27.07 10.3099 20.84 15.7799 15.55C21.2599 10.25 27.7599 7.66998 35.6499 7.66998ZM35.6499 52.33C40.5399 52.33 44.6599 50.58 47.8899 47.14C51.0899 43.73 52.7199 39.52 52.7199 34.63C52.7199 29.74 51.0999 25.53 47.8899 22.12C44.6499 18.68 40.5299 16.93 35.6499 16.93C30.7699 16.93 26.6399 18.68 23.3999 22.12C20.1999 25.53 18.5699 29.74 18.5699 34.63C18.5699 39.52 20.1899 43.73 23.3999 47.14C26.6299 50.58 30.7499 52.33 35.6499 52.33ZM35.6499 5.66998C27.2899 5.66998 20.2099 8.49 14.3899 14.12C8.56992 19.75 5.66992 26.59 5.66992 34.62C5.66992 42.65 8.57992 49.49 14.3899 55.12C20.2099 60.75 27.2899 63.57 35.6499 63.57C44.0099 63.57 51.1599 60.77 56.9499 55.16C62.7399 49.56 65.6399 42.71 65.6399 34.62C65.6399 26.53 62.7399 19.68 56.9499 14.08C51.1599 8.47999 44.0599 5.66998 35.6499 5.66998ZM35.6499 50.33C31.3099 50.33 27.7199 48.81 24.8599 45.77C21.9999 42.73 20.5799 39.02 20.5799 34.63C20.5799 30.24 22.0099 26.53 24.8599 23.49C27.7199 20.45 31.3099 18.93 35.6499 18.93C39.9899 18.93 43.5799 20.45 46.4399 23.49C49.2999 26.53 50.7199 30.25 50.7199 34.63C50.7199 39.01 49.2899 42.73 46.4399 45.77C43.5799 48.81 39.9899 50.33 35.6499 50.33Z" fill="#231F20"/>
<path d="M35.3701 62.29C27.3201 62.29 20.4101 59.54 14.8101 54.12C9.22012 48.71 6.39014 42.05 6.39014 34.33C6.39014 26.61 9.22012 19.95 14.8101 14.54C20.4101 9.11999 27.3201 6.37 35.3701 6.37C43.4201 6.37 50.4001 9.09998 55.9701 14.5C61.5301 19.88 64.3501 26.55 64.3501 34.32C64.3501 42.09 61.5301 48.76 55.9701 54.14C50.4001 59.53 43.4701 62.27 35.3701 62.27V62.29ZM35.3701 17.64C30.7701 17.64 26.8901 19.28 23.8501 22.52C20.8301 25.74 19.3001 29.72 19.3001 34.35C19.3001 38.98 20.8301 42.96 23.8501 46.18C26.8901 49.42 30.7601 51.06 35.3701 51.06C39.9801 51.06 43.8501 49.42 46.8901 46.18C49.9101 42.96 51.4401 38.98 51.4401 34.35C51.4401 29.72 49.9101 25.74 46.8901 22.52C43.8501 19.28 39.9801 17.64 35.3701 17.64Z" fill="#FC0B50"/>
<path d="M35.3701 7.39001C43.3101 7.39001 49.8201 9.96003 55.2701 15.23C60.7001 20.49 63.3501 26.74 63.3501 34.34C63.3501 41.94 60.7101 48.19 55.2701 53.45C49.8201 58.73 43.3101 61.29 35.3701 61.29C27.4301 61.29 20.9801 58.71 15.5001 53.41C10.0401 48.12 7.38013 41.89 7.38013 34.34C7.38013 26.79 10.0301 20.56 15.5001 15.27C20.9801 9.97002 27.4801 7.39001 35.3701 7.39001ZM35.3701 52.05C40.2601 52.05 44.3801 50.3 47.6101 46.86C50.8101 43.45 52.4401 39.24 52.4401 34.35C52.4401 29.46 50.8201 25.25 47.6101 21.84C44.3701 18.4 40.2501 16.65 35.3701 16.65C30.4901 16.65 26.3601 18.4 23.1201 21.84C19.9201 25.25 18.2901 29.46 18.2901 34.35C18.2901 39.24 19.9101 43.45 23.1201 46.86C26.3501 50.3 30.4701 52.05 35.3701 52.05ZM35.3701 5.39001C27.0101 5.39001 19.9301 8.21003 14.1101 13.84C8.29014 19.47 5.39014 26.31 5.39014 34.34C5.39014 42.37 8.30014 49.21 14.1101 54.84C19.9301 60.47 27.0101 63.29 35.3701 63.29C43.7301 63.29 50.8801 60.49 56.6701 54.88C62.4601 49.28 65.3601 42.43 65.3601 34.34C65.3601 26.25 62.4601 19.4 56.6701 13.8C50.8801 8.20002 43.7801 5.39001 35.3701 5.39001ZM35.3701 50.05C31.0301 50.05 27.4401 48.53 24.5801 45.49C21.7201 42.45 20.3001 38.74 20.3001 34.35C20.3001 29.96 21.7301 26.25 24.5801 23.21C27.4401 20.17 31.0301 18.65 35.3701 18.65C39.7101 18.65 43.3001 20.17 46.1601 23.21C49.0201 26.25 50.4401 29.97 50.4401 34.35C50.4401 38.73 49.0101 42.45 46.1601 45.49C43.3001 48.53 39.7101 50.05 35.3701 50.05Z" fill="#231F20"/>
<path d="M35.0801 62.01C27.0301 62.01 20.1201 59.26 14.5201 53.84C8.93008 48.43 6.1001 41.77 6.1001 34.05C6.1001 26.33 8.93008 19.67 14.5201 14.26C20.1201 8.84002 27.0301 6.09003 35.0801 6.09003C43.1301 6.09003 50.1101 8.82002 55.6801 14.22C61.2401 19.6 64.0601 26.27 64.0601 34.04C64.0601 41.81 61.2401 48.48 55.6801 53.86C50.1101 59.25 43.1801 61.99 35.0801 61.99V62.01ZM35.0801 17.35C30.4801 17.35 26.6001 18.99 23.5601 22.23C20.5401 25.45 19.0101 29.43 19.0101 34.06C19.0101 38.69 20.5401 42.67 23.5601 45.89C26.6001 49.13 30.4701 50.77 35.0801 50.77C39.6901 50.77 43.5601 49.13 46.6001 45.89C49.6201 42.67 51.1501 38.69 51.1501 34.06C51.1501 29.43 49.6201 25.45 46.6001 22.23C43.5601 18.99 39.6901 17.35 35.0801 17.35Z" fill="#FC0B50"/>
<path d="M35.0801 7.10999C43.0201 7.10999 49.5301 9.68 54.9801 14.95C60.4101 20.21 63.0601 26.46 63.0601 34.06C63.0601 41.66 60.4201 47.91 54.9801 53.17C49.5301 58.45 43.0201 61.01 35.0801 61.01C27.1401 61.01 20.6901 58.43 15.2101 53.13C9.75008 47.84 7.09009 41.61 7.09009 34.06C7.09009 26.51 9.74008 20.28 15.2101 14.99C20.6901 9.68999 27.1901 7.10999 35.0801 7.10999ZM35.0801 51.76C39.9701 51.76 44.0901 50.01 47.3201 46.57C50.5201 43.16 52.1501 38.95 52.1501 34.06C52.1501 29.17 50.5301 24.96 47.3201 21.55C44.0801 18.11 39.9601 16.36 35.0801 16.36C30.2001 16.36 26.0701 18.11 22.8301 21.55C19.6301 24.96 18.0001 29.17 18.0001 34.06C18.0001 38.95 19.6201 43.16 22.8301 46.57C26.0601 50.01 30.1801 51.76 35.0801 51.76ZM35.0801 5.10999C26.7201 5.10999 19.6401 7.93 13.8201 13.56C8.0001 19.19 5.1001 26.03 5.1001 34.06C5.1001 42.09 8.0101 48.93 13.8201 54.56C19.6401 60.19 26.7201 63.01 35.0801 63.01C43.4401 63.01 50.5901 60.21 56.3801 54.6C62.1701 49 65.0701 42.15 65.0701 34.06C65.0701 25.97 62.1701 19.12 56.3801 13.52C50.5901 7.91999 43.4901 5.10999 35.0801 5.10999ZM35.0801 49.76C30.7401 49.76 27.1501 48.24 24.2901 45.2C21.4301 42.16 20.0101 38.45 20.0101 34.06C20.0101 29.67 21.4401 25.96 24.2901 22.92C27.1501 19.88 30.7401 18.36 35.0801 18.36C39.4201 18.36 43.0101 19.88 45.8701 22.92C48.7301 25.96 50.1501 29.68 50.1501 34.06C50.1501 38.44 48.7201 42.16 45.8701 45.2C43.0101 48.24 39.4201 49.76 35.0801 49.76Z" fill="#231F20"/>
<path d="M34.8 61.72C26.75 61.72 19.8401 58.97 14.2401 53.55C8.65005 48.14 5.82007 41.48 5.82007 33.76C5.82007 26.04 8.65005 19.38 14.2401 13.97C19.8401 8.54999 26.75 5.79999 34.8 5.79999C42.85 5.79999 49.8301 8.52999 55.4001 13.93C60.9601 19.31 63.7801 25.98 63.7801 33.75C63.7801 41.52 60.9601 48.19 55.4001 53.57C49.8301 58.96 42.9 61.7 34.8 61.7V61.72ZM34.8 17.07C30.2 17.07 26.3201 18.71 23.2801 21.95C20.2601 25.17 18.7301 29.15 18.7301 33.78C18.7301 38.41 20.2601 42.39 23.2801 45.61C26.3201 48.85 30.19 50.49 34.8 50.49C39.41 50.49 43.2801 48.85 46.3201 45.61C49.3401 42.39 50.8701 38.41 50.8701 33.78C50.8701 29.15 49.3401 25.17 46.3201 21.95C43.2801 18.71 39.41 17.07 34.8 17.07Z" fill="#FC0B50"/>
<path d="M34.8 6.82001C42.74 6.82001 49.2501 9.39 54.7001 14.66C60.1301 19.92 62.7801 26.17 62.7801 33.77C62.7801 41.37 60.1401 47.62 54.7001 52.88C49.2501 58.16 42.74 60.72 34.8 60.72C26.86 60.72 20.4101 58.14 14.9301 52.84C9.47005 47.55 6.81006 41.32 6.81006 33.77C6.81006 26.22 9.46005 19.99 14.9301 14.7C20.4101 9.40001 26.91 6.82001 34.8 6.82001ZM34.8 51.48C39.69 51.48 43.8101 49.73 47.0401 46.29C50.2401 42.88 51.8701 38.67 51.8701 33.78C51.8701 28.89 50.2501 24.68 47.0401 21.27C43.8001 17.83 39.68 16.08 34.8 16.08C29.92 16.08 25.79 17.83 22.55 21.27C19.35 24.68 17.7201 28.89 17.7201 33.78C17.7201 38.67 19.34 42.88 22.55 46.29C25.78 49.73 29.9 51.48 34.8 51.48ZM34.8 4.82001C26.44 4.82001 19.3601 7.64 13.5401 13.27C7.72007 18.9 4.82007 25.74 4.82007 33.77C4.82007 41.8 7.73007 48.64 13.5401 54.27C19.3601 59.9 26.44 62.72 34.8 62.72C43.16 62.72 50.3101 59.92 56.1001 54.31C61.8901 48.71 64.7901 41.86 64.7901 33.77C64.7901 25.68 61.8901 18.83 56.1001 13.23C50.3101 7.63001 43.21 4.82001 34.8 4.82001ZM34.8 49.48C30.46 49.48 26.8701 47.96 24.0101 44.92C21.1501 41.88 19.7301 38.17 19.7301 33.78C19.7301 29.39 21.1601 25.68 24.0101 22.64C26.8701 19.6 30.46 18.08 34.8 18.08C39.14 18.08 42.7301 19.6 45.5901 22.64C48.4501 25.68 49.8701 29.4 49.8701 33.78C49.8701 38.16 48.4401 41.88 45.5901 44.92C42.7301 47.96 39.14 49.48 34.8 49.48Z" fill="#231F20"/>
<path d="M34.52 61.44C26.47 61.44 19.56 58.69 13.96 53.27C8.37002 47.86 5.54004 41.2 5.54004 33.48C5.54004 25.76 8.37002 19.1 13.96 13.69C19.56 8.27002 26.47 5.52002 34.52 5.52002C42.57 5.52002 49.55 8.25002 55.12 13.65C60.68 19.03 63.5 25.7 63.5 33.47C63.5 41.24 60.68 47.91 55.12 53.29C49.55 58.68 42.62 61.42 34.52 61.42V61.44ZM34.52 16.79C29.92 16.79 26.04 18.43 23 21.67C19.98 24.89 18.45 28.87 18.45 33.5C18.45 38.13 19.98 42.11 23 45.33C26.04 48.57 29.91 50.21 34.52 50.21C39.13 50.21 43 48.57 46.04 45.33C49.06 42.11 50.59 38.13 50.59 33.5C50.59 28.87 49.06 24.89 46.04 21.67C43 18.43 39.13 16.79 34.52 16.79Z" fill="#FC0B50"/>
<path d="M34.52 6.54004C42.46 6.54004 48.97 9.11004 54.42 14.38C59.85 19.64 62.5 25.89 62.5 33.49C62.5 41.09 59.86 47.34 54.42 52.6C48.97 57.88 42.46 60.44 34.52 60.44C26.58 60.44 20.13 57.86 14.65 52.56C9.19002 47.27 6.53003 41.04 6.53003 33.49C6.53003 25.94 9.18002 19.71 14.65 14.42C20.13 9.12003 26.63 6.54004 34.52 6.54004ZM34.52 51.19C39.41 51.19 43.53 49.44 46.76 46C49.96 42.59 51.59 38.38 51.59 33.49C51.59 28.6 49.97 24.39 46.76 20.98C43.52 17.54 39.4 15.79 34.52 15.79C29.64 15.79 25.51 17.54 22.27 20.98C19.07 24.39 17.44 28.6 17.44 33.49C17.44 38.38 19.06 42.59 22.27 46C25.5 49.44 29.62 51.19 34.52 51.19ZM34.52 4.54004C26.16 4.54004 19.08 7.36004 13.26 12.99C7.44004 18.62 4.54004 25.46 4.54004 33.49C4.54004 41.52 7.45004 48.36 13.26 53.99C19.08 59.62 26.16 62.44 34.52 62.44C42.88 62.44 50.03 59.64 55.82 54.03C61.61 48.43 64.51 41.58 64.51 33.49C64.51 25.4 61.61 18.55 55.82 12.95C50.03 7.35004 42.93 4.54004 34.52 4.54004ZM34.52 49.19C30.18 49.19 26.59 47.67 23.73 44.63C20.87 41.59 19.45 37.88 19.45 33.49C19.45 29.1 20.88 25.39 23.73 22.35C26.59 19.31 30.18 17.79 34.52 17.79C38.86 17.79 42.45 19.31 45.31 22.35C48.17 25.39 49.59 29.11 49.59 33.49C49.59 37.87 48.16 41.59 45.31 44.63C42.45 47.67 38.86 49.19 34.52 49.19Z" fill="#231F20"/>
<path d="M34.23 61.16C26.18 61.16 19.27 58.41 13.67 52.99C8.08001 47.58 5.25 40.92 5.25 33.2C5.25 25.48 8.08001 18.82 13.67 13.41C19.27 7.98999 26.18 5.23999 34.23 5.23999C42.28 5.23999 49.26 7.97 54.83 13.37C60.39 18.75 63.21 25.42 63.21 33.19C63.21 40.96 60.39 47.63 54.83 53.01C49.26 58.4 42.33 61.14 34.23 61.14V61.16ZM34.23 16.5C29.63 16.5 25.75 18.14 22.71 21.38C19.69 24.6 18.16 28.58 18.16 33.21C18.16 37.84 19.69 41.82 22.71 45.04C25.75 48.28 29.62 49.92 34.23 49.92C38.84 49.92 42.71 48.28 45.75 45.04C48.77 41.82 50.3 37.84 50.3 33.21C50.3 28.58 48.77 24.6 45.75 21.38C42.71 18.14 38.84 16.5 34.23 16.5Z" fill="#FC0B50"/>
<path d="M34.23 6.26001C42.17 6.26001 48.68 8.83001 54.13 14.1C59.56 19.36 62.21 25.61 62.21 33.21C62.21 40.81 59.57 47.06 54.13 52.32C48.68 57.6 42.17 60.16 34.23 60.16C26.29 60.16 19.84 57.58 14.36 52.28C8.90002 46.99 6.23999 40.76 6.23999 33.21C6.23999 25.66 8.89002 19.43 14.36 14.14C19.84 8.84 26.34 6.26001 34.23 6.26001ZM34.23 50.91C39.12 50.91 43.24 49.16 46.47 45.72C49.67 42.31 51.3 38.1 51.3 33.21C51.3 28.32 49.68 24.11 46.47 20.7C43.23 17.26 39.11 15.51 34.23 15.51C29.35 15.51 25.22 17.26 21.98 20.7C18.78 24.11 17.15 28.32 17.15 33.21C17.15 38.1 18.77 42.31 21.98 45.72C25.21 49.16 29.33 50.91 34.23 50.91ZM34.23 4.26001C25.87 4.26001 18.79 7.08001 12.97 12.71C7.15 18.34 4.25 25.18 4.25 33.21C4.25 41.24 7.16 48.08 12.97 53.71C18.79 59.34 25.87 62.16 34.23 62.16C42.59 62.16 49.74 59.36 55.53 53.75C61.32 48.15 64.22 41.3 64.22 33.21C64.22 25.12 61.32 18.27 55.53 12.67C49.74 7.07 42.64 4.26001 34.23 4.26001ZM34.23 48.91C29.89 48.91 26.3 47.39 23.44 44.35C20.58 41.31 19.16 37.6 19.16 33.21C19.16 28.82 20.59 25.11 23.44 22.07C26.3 19.03 29.89 17.51 34.23 17.51C38.57 17.51 42.16 19.03 45.02 22.07C47.88 25.11 49.3 28.83 49.3 33.21C49.3 37.59 47.87 41.31 45.02 44.35C42.16 47.39 38.57 48.91 34.23 48.91Z" fill="#231F20"/>
<path d="M33.95 60.87C25.9 60.87 18.99 58.12 13.39 52.7C7.79998 47.29 4.96997 40.63 4.96997 32.91C4.96997 25.19 7.79998 18.53 13.39 13.12C18.99 7.70001 25.9 4.95001 33.95 4.95001C42 4.95001 48.98 7.68 54.55 13.08C60.11 18.46 62.93 25.13 62.93 32.9C62.93 40.67 60.11 47.34 54.55 52.72C48.98 58.11 42.05 60.85 33.95 60.85V60.87ZM33.95 16.22C29.35 16.22 25.47 17.86 22.43 21.1C19.41 24.32 17.88 28.3 17.88 32.93C17.88 37.56 19.41 41.54 22.43 44.76C25.47 48 29.34 49.64 33.95 49.64C38.56 49.64 42.43 48 45.47 44.76C48.49 41.54 50.02 37.56 50.02 32.93C50.02 28.3 48.49 24.32 45.47 21.1C42.43 17.86 38.56 16.22 33.95 16.22Z" fill="#FC0B50"/>
<path d="M33.95 5.96997C41.89 5.96997 48.4 8.53998 53.85 13.81C59.28 19.07 61.93 25.32 61.93 32.92C61.93 40.52 59.29 46.77 53.85 52.03C48.4 57.31 41.89 59.87 33.95 59.87C26.01 59.87 19.56 57.29 14.08 51.99C8.61999 46.7 5.95996 40.47 5.95996 32.92C5.95996 25.37 8.60999 19.14 14.08 13.85C19.56 8.54998 26.06 5.96997 33.95 5.96997ZM33.95 50.63C38.84 50.63 42.96 48.88 46.19 45.44C49.39 42.03 51.02 37.82 51.02 32.93C51.02 28.04 49.4 23.83 46.19 20.42C42.95 16.98 38.83 15.23 33.95 15.23C29.07 15.23 24.94 16.98 21.7 20.42C18.5 23.83 16.87 28.04 16.87 32.93C16.87 37.82 18.49 42.03 21.7 45.44C24.93 48.88 29.05 50.63 33.95 50.63ZM33.95 3.96997C25.59 3.96997 18.51 6.78997 12.69 12.42C6.86997 18.05 3.96997 24.89 3.96997 32.92C3.96997 40.95 6.87997 47.79 12.69 53.42C18.51 59.05 25.59 61.87 33.95 61.87C42.31 61.87 49.46 59.07 55.25 53.46C61.04 47.86 63.94 41.01 63.94 32.92C63.94 24.83 61.04 17.98 55.25 12.38C49.46 6.77997 42.36 3.96997 33.95 3.96997ZM33.95 48.63C29.61 48.63 26.02 47.11 23.16 44.07C20.3 41.03 18.88 37.32 18.88 32.93C18.88 28.54 20.31 24.83 23.16 21.79C26.02 18.75 29.61 17.23 33.95 17.23C38.29 17.23 41.88 18.75 44.74 21.79C47.6 24.83 49.02 28.55 49.02 32.93C49.02 37.31 47.59 41.03 44.74 44.07C41.88 47.11 38.29 48.63 33.95 48.63Z" fill="#231F20"/>
<path d="M33.67 60.59C25.62 60.59 18.71 57.84 13.11 52.42C7.51995 47.01 4.68994 40.35 4.68994 32.63C4.68994 24.91 7.51995 18.25 13.11 12.84C18.71 7.42 25.62 4.66998 33.67 4.66998C41.72 4.66998 48.6999 7.39999 54.2699 12.8C59.8299 18.18 62.6499 24.85 62.6499 32.62C62.6499 40.39 59.8299 47.06 54.2699 52.44C48.6999 57.83 41.77 60.57 33.67 60.57V60.59ZM33.67 15.94C29.07 15.94 25.1899 17.58 22.1499 20.82C19.1299 24.04 17.5999 28.02 17.5999 32.65C17.5999 37.28 19.1299 41.26 22.1499 44.48C25.1899 47.72 29.06 49.36 33.67 49.36C38.28 49.36 42.1499 47.72 45.1899 44.48C48.2099 41.26 49.7399 37.28 49.7399 32.65C49.7399 28.02 48.2099 24.04 45.1899 20.82C42.1499 17.58 38.28 15.94 33.67 15.94Z" fill="#FC0B50"/>
<path d="M33.67 5.69C41.61 5.69 48.1199 8.26 53.5699 13.53C58.9999 18.79 61.6499 25.04 61.6499 32.64C61.6499 40.24 59.0099 46.49 53.5699 51.75C48.1199 57.03 41.61 59.59 33.67 59.59C25.73 59.59 19.2799 57.01 13.7999 51.71C8.33993 46.42 5.67993 40.19 5.67993 32.64C5.67993 25.09 8.32993 18.86 13.7999 13.57C19.2799 8.27001 25.78 5.69 33.67 5.69ZM33.67 50.34C38.56 50.34 42.6799 48.59 45.9099 45.15C49.1099 41.74 50.7399 37.53 50.7399 32.64C50.7399 27.75 49.1199 23.54 45.9099 20.13C42.6699 16.69 38.55 14.94 33.67 14.94C28.79 14.94 24.66 16.69 21.42 20.13C18.22 23.54 16.5899 27.75 16.5899 32.64C16.5899 37.53 18.21 41.74 21.42 45.15C24.65 48.59 28.77 50.34 33.67 50.34ZM33.67 3.69C25.31 3.69 18.2299 6.51 12.4099 12.14C6.58994 17.77 3.68994 24.61 3.68994 32.64C3.68994 40.67 6.59994 47.51 12.4099 53.14C18.2299 58.77 25.31 61.59 33.67 61.59C42.03 61.59 49.1799 58.79 54.9699 53.18C60.7599 47.58 63.6599 40.73 63.6599 32.64C63.6599 24.55 60.7599 17.7 54.9699 12.1C49.1799 6.50001 42.08 3.69 33.67 3.69ZM33.67 48.34C29.33 48.34 25.7399 46.82 22.8799 43.78C20.0199 40.74 18.5999 37.03 18.5999 32.64C18.5999 28.25 20.0299 24.54 22.8799 21.5C25.7399 18.46 29.33 16.94 33.67 16.94C38.01 16.94 41.5999 18.46 44.4599 21.5C47.3199 24.54 48.7399 28.26 48.7399 32.64C48.7399 37.02 47.3099 40.74 44.4599 43.78C41.5999 46.82 38.01 48.34 33.67 48.34Z" fill="#231F20"/>
<path d="M33.3799 60.31C25.3299 60.31 18.4199 57.56 12.8199 52.14C7.22992 46.73 4.3999 40.07 4.3999 32.35C4.3999 24.63 7.22992 17.97 12.8199 12.56C18.4199 7.14003 25.3299 4.39001 33.3799 4.39001C41.4299 4.39001 48.4099 7.12002 53.9799 12.52C59.5399 17.9 62.3599 24.57 62.3599 32.34C62.3599 40.11 59.5399 46.78 53.9799 52.16C48.4099 57.55 41.4799 60.29 33.3799 60.29V60.31ZM33.3799 15.65C28.7799 15.65 24.8999 17.29 21.8599 20.53C18.8399 23.75 17.3099 27.73 17.3099 32.36C17.3099 36.99 18.8399 40.97 21.8599 44.19C24.8999 47.43 28.7699 49.07 33.3799 49.07C37.9899 49.07 41.8599 47.43 44.8999 44.19C47.9199 40.97 49.4499 36.99 49.4499 32.36C49.4499 27.73 47.9199 23.75 44.8999 20.53C41.8599 17.29 37.9899 15.65 33.3799 15.65Z" fill="#FC0B50"/>
<path d="M33.3799 5.41003C41.3199 5.41003 47.8299 7.98003 53.2799 13.25C58.7099 18.51 61.3599 24.76 61.3599 32.36C61.3599 39.96 58.7199 46.21 53.2799 51.47C47.8299 56.75 41.3199 59.31 33.3799 59.31C25.4399 59.31 18.9899 56.73 13.5099 51.43C8.04992 46.14 5.38992 39.91 5.38992 32.36C5.38992 24.81 8.03992 18.58 13.5099 13.29C18.9899 7.99004 25.4899 5.41003 33.3799 5.41003ZM33.3799 50.06C38.2699 50.06 42.3899 48.31 45.6199 44.87C48.8199 41.46 50.4499 37.25 50.4499 32.36C50.4499 27.47 48.8299 23.26 45.6199 19.85C42.3799 16.41 38.2599 14.66 33.3799 14.66C28.4999 14.66 24.3699 16.41 21.1299 19.85C17.9299 23.26 16.2999 27.47 16.2999 32.36C16.2999 37.25 17.9199 41.46 21.1299 44.87C24.3599 48.31 28.4799 50.06 33.3799 50.06ZM33.3799 3.41003C25.0199 3.41003 17.9399 6.23003 12.1199 11.86C6.2999 17.49 3.3999 24.33 3.3999 32.36C3.3999 40.39 6.3099 47.23 12.1199 52.86C17.9399 58.49 25.0199 61.31 33.3799 61.31C41.7399 61.31 48.8899 58.51 54.6799 52.9C60.4699 47.3 63.3699 40.45 63.3699 32.36C63.3699 24.27 60.4699 17.42 54.6799 11.82C48.8899 6.22004 41.7899 3.41003 33.3799 3.41003ZM33.3799 48.06C29.0399 48.06 25.4499 46.54 22.5899 43.5C19.7299 40.46 18.3099 36.75 18.3099 32.36C18.3099 27.97 19.7399 24.26 22.5899 21.22C25.4499 18.18 29.0399 16.66 33.3799 16.66C37.7199 16.66 41.3099 18.18 44.1699 21.22C47.0299 24.26 48.4499 27.98 48.4499 32.36C48.4499 36.74 47.0199 40.46 44.1699 43.5C41.3099 46.54 37.7199 48.06 33.3799 48.06Z" fill="#231F20"/>
<path d="M33.1001 60.02C25.0501 60.02 18.1401 57.27 12.5401 51.85C6.95013 46.44 4.12012 39.78 4.12012 32.06C4.12012 24.34 6.95013 17.68 12.5401 12.27C18.1401 6.84997 25.0501 4.09998 33.1001 4.09998C41.1501 4.09998 48.1301 6.82998 53.7001 12.23C59.2601 17.61 62.0801 24.28 62.0801 32.05C62.0801 39.82 59.2601 46.49 53.7001 51.87C48.1301 57.26 41.2001 60 33.1001 60V60.02ZM33.1001 15.37C28.5001 15.37 24.6201 17.01 21.5801 20.25C18.5601 23.47 17.0301 27.45 17.0301 32.08C17.0301 36.71 18.5601 40.69 21.5801 43.91C24.6201 47.15 28.4901 48.79 33.1001 48.79C37.7101 48.79 41.5801 47.15 44.6201 43.91C47.6401 40.69 49.1701 36.71 49.1701 32.08C49.1701 27.45 47.6401 23.47 44.6201 20.25C41.5801 17.01 37.7101 15.37 33.1001 15.37Z" fill="#FC0B50"/>
<path d="M33.1001 5.12C41.0401 5.12 47.5501 7.68999 53.0001 12.96C58.4301 18.22 61.0801 24.47 61.0801 32.07C61.0801 39.67 58.4401 45.92 53.0001 51.18C47.5501 56.46 41.0401 59.02 33.1001 59.02C25.1601 59.02 18.7101 56.44 13.2301 51.14C7.77013 45.85 5.11014 39.62 5.11014 32.07C5.11014 24.52 7.76013 18.29 13.2301 13C18.7101 7.69998 25.2101 5.12 33.1001 5.12ZM33.1001 49.78C37.9901 49.78 42.1101 48.03 45.3401 44.59C48.5401 41.18 50.1701 36.97 50.1701 32.08C50.1701 27.19 48.5501 22.98 45.3401 19.57C42.1001 16.13 37.9801 14.38 33.1001 14.38C28.2201 14.38 24.0901 16.13 20.8501 19.57C17.6501 22.98 16.0201 27.19 16.0201 32.08C16.0201 36.97 17.6401 41.18 20.8501 44.59C24.0801 48.03 28.2001 49.78 33.1001 49.78ZM33.1001 3.12C24.7401 3.12 17.6601 5.93999 11.8401 11.57C6.02012 17.2 3.12012 24.04 3.12012 32.07C3.12012 40.1 6.03012 46.94 11.8401 52.57C17.6601 58.2 24.7401 61.02 33.1001 61.02C41.4601 61.02 48.6101 58.22 54.4001 52.61C60.1901 47.01 63.0901 40.16 63.0901 32.07C63.0901 23.98 60.1901 17.13 54.4001 11.53C48.6101 5.92998 41.5101 3.12 33.1001 3.12ZM33.1001 47.78C28.7601 47.78 25.1701 46.26 22.3101 43.22C19.4501 40.18 18.0301 36.47 18.0301 32.08C18.0301 27.69 19.4601 23.98 22.3101 20.94C25.1701 17.9 28.7601 16.38 33.1001 16.38C37.4401 16.38 41.0301 17.9 43.8901 20.94C46.7501 23.98 48.1701 27.7 48.1701 32.08C48.1701 36.46 46.7401 40.18 43.8901 43.22C41.0301 46.26 37.4401 47.78 33.1001 47.78Z" fill="#231F20"/>
<path d="M32.8201 59.74C24.7701 59.74 17.8601 56.99 12.2601 51.57C6.6701 46.16 3.84009 39.5 3.84009 31.78C3.84009 24.06 6.6701 17.4 12.2601 11.99C17.8601 6.57001 24.7701 3.82001 32.8201 3.82001C40.8701 3.82001 47.8501 6.55001 53.4201 11.95C58.9801 17.33 61.8001 24 61.8001 31.77C61.8001 39.54 58.9801 46.21 53.4201 51.59C47.8501 56.98 40.9201 59.72 32.8201 59.72V59.74ZM32.8201 15.08C28.2201 15.08 24.3401 16.72 21.3001 19.96C18.2801 23.18 16.7501 27.16 16.7501 31.79C16.7501 36.42 18.2801 40.4 21.3001 43.62C24.3401 46.86 28.2101 48.5 32.8201 48.5C37.4301 48.5 41.3001 46.86 44.3401 43.62C47.3601 40.4 48.8901 36.42 48.8901 31.79C48.8901 27.16 47.3601 23.18 44.3401 19.96C41.3001 16.72 37.4301 15.08 32.8201 15.08Z" fill="#FC0B50"/>
<path d="M32.8201 4.84003C40.7601 4.84003 47.2701 7.41002 52.7201 12.68C58.1501 17.94 60.8001 24.19 60.8001 31.79C60.8001 39.39 58.1601 45.64 52.7201 50.9C47.2701 56.18 40.7601 58.74 32.8201 58.74C24.8801 58.74 18.4301 56.16 12.9501 50.86C7.4901 45.57 4.83011 39.34 4.83011 31.79C4.83011 24.24 7.4801 18.01 12.9501 12.72C18.4301 7.42002 24.9301 4.84003 32.8201 4.84003ZM32.8201 49.49C37.7101 49.49 41.8301 47.74 45.0601 44.3C48.2601 40.89 49.8901 36.68 49.8901 31.79C49.8901 26.9 48.2701 22.69 45.0601 19.28C41.8201 15.84 37.7001 14.09 32.8201 14.09C27.9401 14.09 23.8101 15.84 20.5701 19.28C17.3701 22.69 15.7401 26.9 15.7401 31.79C15.7401 36.68 17.3601 40.89 20.5701 44.3C23.8001 47.74 27.9201 49.49 32.8201 49.49ZM32.8201 2.84003C24.4601 2.84003 17.3801 5.66002 11.5601 11.29C5.74009 16.92 2.84009 23.76 2.84009 31.79C2.84009 39.82 5.75009 46.66 11.5601 52.29C17.3801 57.92 24.4601 60.74 32.8201 60.74C41.1801 60.74 48.3301 57.94 54.1201 52.33C59.9101 46.73 62.8101 39.88 62.8101 31.79C62.8101 23.7 59.9101 16.85 54.1201 11.25C48.3301 5.65002 41.2301 2.84003 32.8201 2.84003ZM32.8201 47.49C28.4801 47.49 24.8901 45.97 22.0301 42.93C19.1701 39.89 17.7501 36.18 17.7501 31.79C17.7501 27.4 19.1801 23.69 22.0301 20.65C24.8901 17.61 28.4801 16.09 32.8201 16.09C37.1601 16.09 40.7501 17.61 43.6101 20.65C46.4701 23.69 47.8901 27.41 47.8901 31.79C47.8901 36.17 46.4601 39.89 43.6101 42.93C40.7501 45.97 37.1601 47.49 32.8201 47.49Z" fill="#231F20"/>
<path d="M32.5301 59.46C24.4801 59.46 17.5701 56.71 11.9701 51.29C6.38006 45.88 3.55005 39.22 3.55005 31.5C3.55005 23.78 6.38006 17.12 11.9701 11.71C17.5701 6.29004 24.4801 3.54004 32.5301 3.54004C40.5801 3.54004 47.5601 6.27003 53.1301 11.67C58.6901 17.05 61.5101 23.72 61.5101 31.49C61.5101 39.26 58.6901 45.93 53.1301 51.31C47.5601 56.7 40.6301 59.44 32.5301 59.44V59.46ZM32.5301 14.8C27.9301 14.8 24.0501 16.44 21.0101 19.68C17.9901 22.9 16.4601 26.88 16.4601 31.51C16.4601 36.14 17.9901 40.12 21.0101 43.34C24.0501 46.58 27.9201 48.22 32.5301 48.22C37.1401 48.22 41.01 46.58 44.05 43.34C47.07 40.12 48.6001 36.14 48.6001 31.51C48.6001 26.88 47.07 22.9 44.05 19.68C41.01 16.44 37.1401 14.8 32.5301 14.8Z" fill="#FC0B50"/>
<path d="M32.5301 4.56C40.4701 4.56 46.9801 7.12999 52.4301 12.4C57.8601 17.66 60.5101 23.91 60.5101 31.51C60.5101 39.11 57.8701 45.36 52.4301 50.62C46.9801 55.9 40.4701 58.46 32.5301 58.46C24.5901 58.46 18.1401 55.88 12.6601 50.58C7.20006 45.29 4.54007 39.06 4.54007 31.51C4.54007 23.96 7.19006 17.73 12.6601 12.44C18.1401 7.13999 24.6401 4.56 32.5301 4.56ZM32.5301 49.21C37.4201 49.21 41.5401 47.46 44.7701 44.02C47.9701 40.61 49.6001 36.4 49.6001 31.51C49.6001 26.62 47.9801 22.41 44.7701 19C41.5301 15.56 37.4101 13.81 32.5301 13.81C27.6501 13.81 23.5201 15.56 20.2801 19C17.0801 22.41 15.4501 26.62 15.4501 31.51C15.4501 36.4 17.0701 40.61 20.2801 44.02C23.5101 47.46 27.6301 49.21 32.5301 49.21ZM32.5301 2.56C24.1701 2.56 17.0901 5.37999 11.2701 11.01C5.45005 16.64 2.55005 23.48 2.55005 31.51C2.55005 39.54 5.46005 46.38 11.2701 52.01C17.0901 57.64 24.1701 60.46 32.5301 60.46C40.8901 60.46 48.0401 57.66 53.8301 52.05C59.6201 46.45 62.5201 39.6 62.5201 31.51C62.5201 23.42 59.6201 16.57 53.8301 10.97C48.0401 5.36999 40.9401 2.56 32.5301 2.56ZM32.5301 47.21C28.1901 47.21 24.6001 45.69 21.7401 42.65C18.8801 39.61 17.4601 35.9 17.4601 31.51C17.4601 27.12 18.8901 23.41 21.7401 20.37C24.6001 17.33 28.1901 15.81 32.5301 15.81C36.8701 15.81 40.4601 17.33 43.3201 20.37C46.1801 23.41 47.6001 27.13 47.6001 31.51C47.6001 35.89 46.1701 39.61 43.3201 42.65C40.4601 45.69 36.8701 47.21 32.5301 47.21Z" fill="#231F20"/>
<path d="M32.25 59.17C24.2 59.17 17.29 56.42 11.69 51C6.10003 45.59 3.27002 38.93 3.27002 31.21C3.27002 23.49 6.10003 16.83 11.69 11.42C17.29 6 24.2 3.25 32.25 3.25C40.3 3.25 47.28 5.98 52.85 11.38C58.41 16.76 61.23 23.43 61.23 31.2C61.23 38.97 58.41 45.64 52.85 51.02C47.28 56.41 40.35 59.15 32.25 59.15V59.17ZM32.25 14.52C27.65 14.52 23.77 16.16 20.73 19.4C17.71 22.62 16.18 26.6 16.18 31.23C16.18 35.86 17.71 39.84 20.73 43.06C23.77 46.3 27.64 47.94 32.25 47.94C36.86 47.94 40.73 46.3 43.77 43.06C46.79 39.84 48.32 35.86 48.32 31.23C48.32 26.6 46.79 22.62 43.77 19.4C40.73 16.16 36.86 14.52 32.25 14.52Z" fill="#FC0B50"/>
<path d="M32.25 4.27002C40.19 4.27002 46.7 6.84002 52.15 12.11C57.58 17.37 60.23 23.62 60.23 31.22C60.23 38.82 57.59 45.07 52.15 50.33C46.7 55.61 40.19 58.17 32.25 58.17C24.31 58.17 17.86 55.59 12.38 50.29C6.92004 45 4.26004 38.77 4.26004 31.22C4.26004 23.67 6.91004 17.44 12.38 12.15C17.86 6.85002 24.36 4.27002 32.25 4.27002ZM32.25 48.93C37.14 48.93 41.26 47.18 44.49 43.74C47.69 40.33 49.32 36.12 49.32 31.23C49.32 26.34 47.7 22.13 44.49 18.72C41.25 15.28 37.13 13.53 32.25 13.53C27.37 13.53 23.24 15.28 20 18.72C16.8 22.13 15.17 26.34 15.17 31.23C15.17 36.12 16.79 40.33 20 43.74C23.23 47.18 27.35 48.93 32.25 48.93ZM32.25 2.27002C23.89 2.27002 16.81 5.09002 10.99 10.72C5.17002 16.35 2.27002 23.19 2.27002 31.22C2.27002 39.25 5.18002 46.09 10.99 51.72C16.81 57.35 23.89 60.17 32.25 60.17C40.61 60.17 47.76 57.37 53.55 51.76C59.34 46.16 62.24 39.31 62.24 31.22C62.24 23.13 59.34 16.28 53.55 10.68C47.76 5.08002 40.66 2.27002 32.25 2.27002ZM32.25 46.93C27.91 46.93 24.32 45.41 21.46 42.37C18.6 39.33 17.18 35.62 17.18 31.23C17.18 26.84 18.61 23.13 21.46 20.09C24.32 17.05 27.91 15.53 32.25 15.53C36.59 15.53 40.18 17.05 43.04 20.09C45.9 23.13 47.32 26.85 47.32 31.23C47.32 35.61 45.89 39.33 43.04 42.37C40.18 45.41 36.59 46.93 32.25 46.93Z" fill="#231F20"/>
<path d="M31.97 58.89C23.92 58.89 17.01 56.14 11.41 50.72C5.82 45.31 2.98999 38.65 2.98999 30.93C2.98999 23.21 5.82 16.55 11.41 11.14C17.01 5.71997 23.92 2.96997 31.97 2.96997C40.02 2.96997 47 5.69998 52.57 11.1C58.13 16.48 60.95 23.15 60.95 30.92C60.95 38.69 58.13 45.36 52.57 50.74C47 56.13 40.07 58.87 31.97 58.87V58.89ZM31.97 14.23C27.37 14.23 23.49 15.87 20.45 19.11C17.43 22.33 15.9 26.31 15.9 30.94C15.9 35.57 17.43 39.55 20.45 42.77C23.49 46.01 27.36 47.65 31.97 47.65C36.58 47.65 40.45 46.01 43.49 42.77C46.51 39.55 48.04 35.57 48.04 30.94C48.04 26.31 46.51 22.33 43.49 19.11C40.45 15.87 36.58 14.23 31.97 14.23Z" fill="#FC0B50"/>
<path d="M31.97 3.98999C39.91 3.98999 46.42 6.55999 51.87 11.83C57.3 17.09 59.95 23.34 59.95 30.94C59.95 38.54 57.31 44.79 51.87 50.05C46.42 55.33 39.91 57.89 31.97 57.89C24.03 57.89 17.58 55.31 12.1 50.01C6.64001 44.72 3.98001 38.49 3.98001 30.94C3.98001 23.39 6.63001 17.16 12.1 11.87C17.58 6.56999 24.08 3.98999 31.97 3.98999ZM31.97 48.64C36.86 48.64 40.98 46.89 44.21 43.45C47.41 40.04 49.04 35.83 49.04 30.94C49.04 26.05 47.42 21.84 44.21 18.43C40.97 14.99 36.85 13.24 31.97 13.24C27.09 13.24 22.96 14.99 19.72 18.43C16.52 21.84 14.89 26.05 14.89 30.94C14.89 35.83 16.51 40.04 19.72 43.45C22.95 46.89 27.07 48.64 31.97 48.64ZM31.97 1.98999C23.61 1.98999 16.53 4.80999 10.71 10.44C4.88999 16.07 1.98999 22.91 1.98999 30.94C1.98999 38.97 4.89999 45.81 10.71 51.44C16.53 57.07 23.61 59.89 31.97 59.89C40.33 59.89 47.48 57.09 53.27 51.48C59.06 45.88 61.96 39.03 61.96 30.94C61.96 22.85 59.06 16 53.27 10.4C47.48 4.79999 40.38 1.98999 31.97 1.98999ZM31.97 46.64C27.63 46.64 24.04 45.12 21.18 42.08C18.32 39.04 16.9 35.33 16.9 30.94C16.9 26.55 18.33 22.84 21.18 19.8C24.04 16.76 27.63 15.24 31.97 15.24C36.31 15.24 39.9 16.76 42.76 19.8C45.62 22.84 47.04 26.56 47.04 30.94C47.04 35.32 45.61 39.04 42.76 42.08C39.9 45.12 36.31 46.64 31.97 46.64Z" fill="#231F20"/>
<path d="M31.6799 58.61C23.6299 58.61 16.7199 55.86 11.1199 50.44C5.52993 45.03 2.69995 38.37 2.69995 30.65C2.69995 22.93 5.52993 16.27 11.1199 10.86C16.7199 5.44 23.6299 2.69 31.6799 2.69C39.7299 2.69 46.7099 5.42001 52.2799 10.82C57.8399 16.2 60.6599 22.87 60.6599 30.64C60.6599 38.41 57.8399 45.08 52.2799 50.46C46.7099 55.85 39.7799 58.59 31.6799 58.59V58.61ZM31.6799 13.95C27.0799 13.95 23.1999 15.59 20.1599 18.83C17.1399 22.05 15.61 26.03 15.61 30.66C15.61 35.29 17.1399 39.27 20.1599 42.49C23.1999 45.73 27.0699 47.37 31.6799 47.37C36.2899 47.37 40.16 45.73 43.2 42.49C46.22 39.27 47.7499 35.29 47.7499 30.66C47.7499 26.03 46.22 22.05 43.2 18.83C40.16 15.59 36.2899 13.95 31.6799 13.95Z" fill="#FC0B50"/>
<path d="M31.6799 3.71002C39.6199 3.71002 46.13 6.28002 51.58 11.55C57.01 16.81 59.6599 23.06 59.6599 30.66C59.6599 38.26 57.02 44.51 51.58 49.77C46.13 55.05 39.6199 57.61 31.6799 57.61C23.7399 57.61 17.2899 55.03 11.8099 49.73C6.34994 44.44 3.68994 38.21 3.68994 30.66C3.68994 23.11 6.33994 16.88 11.8099 11.59C17.2899 6.29003 23.7899 3.71002 31.6799 3.71002ZM31.6799 48.36C36.5699 48.36 40.69 46.61 43.92 43.17C47.12 39.76 48.7499 35.55 48.7499 30.66C48.7499 25.77 47.13 21.56 43.92 18.15C40.68 14.71 36.5599 12.96 31.6799 12.96C26.7999 12.96 22.6699 14.71 19.4299 18.15C16.2299 21.56 14.5999 25.77 14.5999 30.66C14.5999 35.55 16.2199 39.76 19.4299 43.17C22.6599 46.61 26.7799 48.36 31.6799 48.36ZM31.6799 1.71002C23.3199 1.71002 16.24 4.53002 10.42 10.16C4.59995 15.79 1.69995 22.63 1.69995 30.66C1.69995 38.69 4.60995 45.53 10.42 51.16C16.24 56.79 23.3199 59.61 31.6799 59.61C40.0399 59.61 47.1899 56.81 52.9799 51.2C58.7699 45.6 61.67 38.75 61.67 30.66C61.67 22.57 58.7699 15.72 52.9799 10.12C47.1899 4.52003 40.0899 1.71002 31.6799 1.71002ZM31.6799 46.36C27.3399 46.36 23.75 44.84 20.89 41.8C18.03 38.76 16.61 35.05 16.61 30.66C16.61 26.27 18.04 22.56 20.89 19.52C23.75 16.48 27.3399 14.96 31.6799 14.96C36.0199 14.96 39.6099 16.48 42.4699 19.52C45.3299 22.56 46.7499 26.28 46.7499 30.66C46.7499 35.04 45.3199 38.76 42.4699 41.8C39.6099 44.84 36.0199 46.36 31.6799 46.36Z" fill="#231F20"/>
<path d="M31.3999 58.32C23.3499 58.32 16.4399 55.57 10.8399 50.15C5.2499 44.74 2.41992 38.08 2.41992 30.36C2.41992 22.64 5.2499 15.98 10.8399 10.57C16.4399 5.15002 23.3499 2.40002 31.3999 2.40002C39.4499 2.40002 46.4299 5.13001 51.9999 10.53C57.5599 15.91 60.3799 22.58 60.3799 30.35C60.3799 38.12 57.5599 44.79 51.9999 50.17C46.4299 55.56 39.4999 58.3 31.3999 58.3V58.32ZM31.3999 13.67C26.7999 13.67 22.9199 15.31 19.8799 18.55C16.8599 21.77 15.3299 25.75 15.3299 30.38C15.3299 35.01 16.8599 38.99 19.8799 42.21C22.9199 45.45 26.7899 47.09 31.3999 47.09C36.0099 47.09 39.8799 45.45 42.9199 42.21C45.9399 38.99 47.4699 35.01 47.4699 30.38C47.4699 25.75 45.9399 21.77 42.9199 18.55C39.8799 15.31 36.0099 13.67 31.3999 13.67Z" fill="#FC0B50"/>
<path d="M31.3999 3.41998C39.3399 3.41998 45.8499 5.98999 51.2999 11.26C56.7299 16.52 59.3799 22.77 59.3799 30.37C59.3799 37.97 56.7399 44.22 51.2999 49.48C45.8499 54.76 39.3399 57.32 31.3999 57.32C23.4599 57.32 17.0099 54.74 11.5299 49.44C6.06991 44.15 3.40991 37.92 3.40991 30.37C3.40991 22.82 6.05991 16.59 11.5299 11.3C17.0099 5.99999 23.5099 3.41998 31.3999 3.41998ZM31.3999 48.08C36.2899 48.08 40.4099 46.33 43.6399 42.89C46.8399 39.48 48.4699 35.27 48.4699 30.38C48.4699 25.49 46.8499 21.28 43.6399 17.87C40.3999 14.43 36.2799 12.68 31.3999 12.68C26.5199 12.68 22.3899 14.43 19.1499 17.87C15.9499 21.28 14.3199 25.49 14.3199 30.38C14.3199 35.27 15.9399 39.48 19.1499 42.89C22.3799 46.33 26.4999 48.08 31.3999 48.08ZM31.3999 1.41998C23.0399 1.41998 15.9599 4.24 10.1399 9.87C4.31992 15.5 1.41992 22.34 1.41992 30.37C1.41992 38.4 4.32992 45.24 10.1399 50.87C15.9599 56.5 23.0399 59.32 31.3999 59.32C39.7599 59.32 46.9099 56.52 52.6999 50.91C58.4899 45.31 61.3899 38.46 61.3899 30.37C61.3899 22.28 58.4899 15.43 52.6999 9.82999C46.9099 4.22999 39.8099 1.41998 31.3999 1.41998ZM31.3999 46.08C27.0599 46.08 23.4699 44.56 20.6099 41.52C17.7499 38.48 16.3299 34.77 16.3299 30.38C16.3299 25.99 17.7599 22.28 20.6099 19.24C23.4699 16.2 27.0599 14.68 31.3999 14.68C35.7399 14.68 39.3299 16.2 42.1899 19.24C45.0499 22.28 46.4699 26 46.4699 30.38C46.4699 34.76 45.0399 38.48 42.1899 41.52C39.3299 44.56 35.7399 46.08 31.3999 46.08Z" fill="#231F20"/>
<path d="M31.1201 58.04C23.0701 58.04 16.1601 55.29 10.5601 49.87C4.97012 44.46 2.14014 37.8 2.14014 30.08C2.14014 22.36 4.97012 15.7 10.5601 10.29C16.1601 4.86999 23.0701 2.12 31.1201 2.12C39.1701 2.12 46.1501 4.84998 51.7201 10.25C57.2801 15.63 60.1001 22.3 60.1001 30.07C60.1001 37.84 57.2801 44.51 51.7201 49.89C46.1501 55.28 39.2201 58.02 31.1201 58.02V58.04ZM31.1201 13.38C26.5201 13.38 22.6401 15.02 19.6001 18.26C16.5801 21.48 15.0501 25.46 15.0501 30.09C15.0501 34.72 16.5801 38.7 19.6001 41.92C22.6401 45.16 26.5101 46.8 31.1201 46.8C35.7301 46.8 39.6001 45.16 42.6401 41.92C45.6601 38.7 47.1901 34.72 47.1901 30.09C47.1901 25.46 45.6601 21.48 42.6401 18.26C39.6001 15.02 35.7301 13.38 31.1201 13.38Z" fill="#FC0B50"/>
<path d="M31.1201 3.14001C39.0601 3.14001 45.5701 5.71003 51.0201 10.98C56.4501 16.24 59.1001 22.49 59.1001 30.09C59.1001 37.69 56.4601 43.94 51.0201 49.2C45.5701 54.48 39.0601 57.04 31.1201 57.04C23.1801 57.04 16.7301 54.46 11.2501 49.16C5.79012 43.87 3.13013 37.64 3.13013 30.09C3.13013 22.54 5.78012 16.31 11.2501 11.02C16.7301 5.72002 23.2301 3.14001 31.1201 3.14001ZM31.1201 47.79C36.0101 47.79 40.1301 46.04 43.3601 42.6C46.5601 39.19 48.1901 34.98 48.1901 30.09C48.1901 25.2 46.5701 20.99 43.3601 17.58C40.1201 14.14 36.0001 12.39 31.1201 12.39C26.2401 12.39 22.1101 14.14 18.8701 17.58C15.6701 20.99 14.0401 25.2 14.0401 30.09C14.0401 34.98 15.6601 39.19 18.8701 42.6C22.1001 46.04 26.2201 47.79 31.1201 47.79ZM31.1201 1.14001C22.7601 1.14001 15.6801 3.96003 9.86014 9.59003C4.04014 15.22 1.14014 22.06 1.14014 30.09C1.14014 38.12 4.05014 44.96 9.86014 50.59C15.6801 56.22 22.7601 59.04 31.1201 59.04C39.4801 59.04 46.6301 56.24 52.4201 50.63C58.2101 45.03 61.1101 38.18 61.1101 30.09C61.1101 22 58.2101 15.15 52.4201 9.55002C46.6301 3.95002 39.5301 1.14001 31.1201 1.14001ZM31.1201 45.79C26.7801 45.79 23.1901 44.27 20.3301 41.23C17.4701 38.19 16.0501 34.48 16.0501 30.09C16.0501 25.7 17.4801 21.99 20.3301 18.95C23.1901 15.91 26.7801 14.39 31.1201 14.39C35.4601 14.39 39.0501 15.91 41.9101 18.95C44.7701 21.99 46.1901 25.71 46.1901 30.09C46.1901 34.47 44.7601 38.19 41.9101 41.23C39.0501 44.27 35.4601 45.79 31.1201 45.79Z" fill="#231F20"/>
<path d="M30.8301 57.76C22.7801 57.76 15.8701 55.01 10.2701 49.59C4.68008 44.18 1.8501 37.52 1.8501 29.8C1.8501 22.08 4.68008 15.42 10.2701 10.01C15.8701 4.59002 22.7801 1.84003 30.8301 1.84003C38.8801 1.84003 45.8601 4.57002 51.4301 9.97002C56.9901 15.35 59.8101 22.02 59.8101 29.79C59.8101 37.56 56.9901 44.23 51.4301 49.61C45.8601 55 38.9301 57.74 30.8301 57.74V57.76ZM30.8301 13.1C26.2301 13.1 22.3501 14.74 19.3101 17.98C16.2901 21.2 14.7601 25.18 14.7601 29.81C14.7601 34.44 16.2901 38.42 19.3101 41.64C22.3501 44.88 26.2201 46.52 30.8301 46.52C35.4401 46.52 39.3101 44.88 42.3501 41.64C45.3701 38.42 46.9001 34.44 46.9001 29.81C46.9001 25.18 45.3701 21.2 42.3501 17.98C39.3101 14.74 35.4401 13.1 30.8301 13.1Z" fill="#FC0B50"/>
<path d="M30.8301 2.84998C38.7701 2.84998 45.2801 5.41997 50.7301 10.69C56.1601 15.95 58.8101 22.2 58.8101 29.8C58.8101 37.4 56.1701 43.65 50.7301 48.91C45.2801 54.19 38.7701 56.75 30.8301 56.75C22.8901 56.75 16.4401 54.17 10.9601 48.87C5.50008 43.58 2.84009 37.35 2.84009 29.8C2.84009 22.25 5.49008 16.02 10.9601 10.73C16.4401 5.42998 22.9401 2.84998 30.8301 2.84998ZM30.8301 47.51C35.7201 47.51 39.8401 45.76 43.0701 42.32C46.2701 38.91 47.9001 34.7 47.9001 29.81C47.9001 24.92 46.2801 20.71 43.0701 17.3C39.8301 13.86 35.7101 12.11 30.8301 12.11C25.9501 12.11 21.8201 13.86 18.5801 17.3C15.3801 20.71 13.7501 24.92 13.7501 29.81C13.7501 34.7 15.3701 38.91 18.5801 42.32C21.8101 45.76 25.9301 47.51 30.8301 47.51ZM30.8301 0.849976C22.4701 0.849976 15.3901 3.66997 9.5701 9.29997C3.7501 14.93 0.850098 21.77 0.850098 29.8C0.850098 37.83 3.7601 44.67 9.5701 50.3C15.3901 55.93 22.4701 58.75 30.8301 58.75C39.1901 58.75 46.3401 55.95 52.1301 50.34C57.9201 44.74 60.8201 37.89 60.8201 29.8C60.8201 21.71 57.9201 14.86 52.1301 9.25998C46.3401 3.65998 39.2401 0.849976 30.8301 0.849976ZM30.8301 45.51C26.4901 45.51 22.9001 43.99 20.0401 40.95C17.1801 37.91 15.7601 34.2 15.7601 29.81C15.7601 25.42 17.1901 21.71 20.0401 18.67C22.9001 15.63 26.4901 14.11 30.8301 14.11C35.1701 14.11 38.7601 15.63 41.6201 18.67C44.4801 21.71 45.9001 25.43 45.9001 29.81C45.9001 34.19 44.4701 37.91 41.6201 40.95C38.7601 43.99 35.1701 45.51 30.8301 45.51Z" fill="#231F20"/>
<path d="M30.55 57.47C22.5 57.47 15.5901 54.72 9.99005 49.3C4.40005 43.89 1.57007 37.23 1.57007 29.51C1.57007 21.79 4.40005 15.13 9.99005 9.71999C15.5901 4.29999 22.5 1.54999 30.55 1.54999C38.6 1.54999 45.5801 4.27999 51.1501 9.67999C56.7101 15.06 59.5301 21.73 59.5301 29.5C59.5301 37.27 56.7101 43.94 51.1501 49.32C45.5801 54.71 38.65 57.45 30.55 57.45V57.47ZM30.55 12.82C25.95 12.82 22.0701 14.46 19.0301 17.7C16.0101 20.92 14.4801 24.9 14.4801 29.53C14.4801 34.16 16.0101 38.14 19.0301 41.36C22.0701 44.6 25.94 46.24 30.55 46.24C35.16 46.24 39.0301 44.6 42.0701 41.36C45.0901 38.14 46.6201 34.16 46.6201 29.53C46.6201 24.9 45.0901 20.92 42.0701 17.7C39.0301 14.46 35.16 12.82 30.55 12.82Z" fill="#FC0B50"/>
<path d="M30.55 2.57001C38.49 2.57001 45.0001 5.14 50.4501 10.41C55.8801 15.67 58.5301 21.92 58.5301 29.52C58.5301 37.12 55.8901 43.37 50.4501 48.63C45.0001 53.91 38.49 56.47 30.55 56.47C22.61 56.47 16.1601 53.89 10.6801 48.59C5.22005 43.3 2.56006 37.07 2.56006 29.52C2.56006 21.97 5.21005 15.74 10.6801 10.45C16.1601 5.15001 22.66 2.57001 30.55 2.57001ZM30.55 47.23C35.44 47.23 39.5601 45.48 42.7901 42.04C45.9901 38.63 47.6201 34.42 47.6201 29.53C47.6201 24.64 46.0001 20.43 42.7901 17.02C39.5501 13.58 35.43 11.83 30.55 11.83C25.67 11.83 21.54 13.58 18.3 17.02C15.1 20.43 13.4701 24.64 13.4701 29.53C13.4701 34.42 15.09 38.63 18.3 42.04C21.53 45.48 25.65 47.23 30.55 47.23ZM30.55 0.570007C22.19 0.570007 15.1101 3.39 9.29007 9.02C3.47007 14.65 0.570068 21.49 0.570068 29.52C0.570068 37.55 3.48007 44.39 9.29007 50.02C15.1101 55.65 22.19 58.47 30.55 58.47C38.91 58.47 46.0601 55.67 51.8501 50.06C57.6401 44.46 60.5401 37.61 60.5401 29.52C60.5401 21.43 57.6401 14.58 51.8501 8.98001C46.0601 3.38001 38.96 0.570007 30.55 0.570007ZM30.55 45.23C26.21 45.23 22.6201 43.71 19.7601 40.67C16.9001 37.63 15.4801 33.92 15.4801 29.53C15.4801 25.14 16.9101 21.43 19.7601 18.39C22.6201 15.35 26.21 13.83 30.55 13.83C34.89 13.83 38.4801 15.35 41.3401 18.39C44.2001 21.43 45.6201 25.15 45.6201 29.53C45.6201 33.91 44.1901 37.63 41.3401 40.67C38.4801 43.71 34.89 45.23 30.55 45.23Z" fill="#231F20"/>
<path d="M30.27 57.19C22.22 57.19 15.31 54.44 9.71002 49.02C4.12002 43.61 1.29004 36.95 1.29004 29.23C1.29004 21.51 4.12002 14.85 9.71002 9.44002C15.31 4.02002 22.22 1.27002 30.27 1.27002C38.32 1.27002 45.3 4.00002 50.87 9.40002C56.43 14.78 59.25 21.45 59.25 29.22C59.25 36.99 56.43 43.66 50.87 49.04C45.3 54.43 38.37 57.17 30.27 57.17V57.19ZM30.27 12.53C25.67 12.53 21.79 14.17 18.75 17.41C15.73 20.63 14.2 24.61 14.2 29.24C14.2 33.87 15.73 37.85 18.75 41.07C21.79 44.31 25.66 45.95 30.27 45.95C34.88 45.95 38.75 44.31 41.79 41.07C44.81 37.85 46.34 33.87 46.34 29.24C46.34 24.61 44.81 20.63 41.79 17.41C38.75 14.17 34.88 12.53 30.27 12.53Z" fill="#FC0B50"/>
<path d="M30.27 2.29004C38.21 2.29004 44.72 4.86004 50.17 10.13C55.6 15.39 58.25 21.64 58.25 29.24C58.25 36.84 55.61 43.09 50.17 48.35C44.72 53.63 38.21 56.19 30.27 56.19C22.33 56.19 15.88 53.61 10.4 48.31C4.94002 43.02 2.28003 36.79 2.28003 29.24C2.28003 21.69 4.93002 15.46 10.4 10.17C15.88 4.87003 22.38 2.29004 30.27 2.29004ZM30.27 46.94C35.16 46.94 39.28 45.19 42.51 41.75C45.71 38.34 47.34 34.13 47.34 29.24C47.34 24.35 45.72 20.14 42.51 16.73C39.27 13.29 35.15 11.54 30.27 11.54C25.39 11.54 21.26 13.29 18.02 16.73C14.82 20.14 13.19 24.35 13.19 29.24C13.19 34.13 14.81 38.34 18.02 41.75C21.25 45.19 25.37 46.94 30.27 46.94ZM30.27 0.290039C21.91 0.290039 14.83 3.11004 9.01004 8.74004C3.19004 14.37 0.290039 21.21 0.290039 29.24C0.290039 37.27 3.20004 44.11 9.01004 49.74C14.83 55.37 21.91 58.19 30.27 58.19C38.63 58.19 45.78 55.39 51.57 49.78C57.36 44.18 60.26 37.33 60.26 29.24C60.26 21.15 57.36 14.3 51.57 8.70004C45.78 3.10004 38.68 0.290039 30.27 0.290039ZM30.27 44.94C25.93 44.94 22.34 43.42 19.48 40.38C16.62 37.34 15.2 33.63 15.2 29.24C15.2 24.85 16.63 21.14 19.48 18.1C22.34 15.06 25.93 13.54 30.27 13.54C34.61 13.54 38.2 15.06 41.06 18.1C43.92 21.14 45.34 24.86 45.34 29.24C45.34 33.62 43.91 37.34 41.06 40.38C38.2 43.42 34.61 44.94 30.27 44.94Z" fill="#231F20"/>
<path d="M29.98 56.91C21.93 56.91 15.02 54.16 9.42001 48.74C3.83001 43.33 1 36.67 1 28.95C1 21.23 3.83001 14.57 9.42001 9.15999C15.02 3.73999 21.93 0.98999 29.98 0.98999C38.03 0.98999 45.01 3.72 50.58 9.12C56.14 14.5 58.96 21.17 58.96 28.94C58.96 36.71 56.14 43.38 50.58 48.76C45.01 54.15 38.08 56.89 29.98 56.89V56.91ZM29.98 12.25C25.38 12.25 21.5 13.89 18.46 17.13C15.44 20.35 13.91 24.33 13.91 28.96C13.91 33.59 15.44 37.57 18.46 40.79C21.5 44.03 25.37 45.67 29.98 45.67C34.59 45.67 38.46 44.03 41.5 40.79C44.52 37.57 46.05 33.59 46.05 28.96C46.05 24.33 44.52 20.35 41.5 17.13C38.46 13.89 34.59 12.25 29.98 12.25Z" fill="#FC0B50"/>
<path d="M29.98 2C37.92 2 44.43 4.57001 49.88 9.84001C55.31 15.1 57.96 21.35 57.96 28.95C57.96 36.55 55.32 42.8 49.88 48.06C44.43 53.34 37.92 55.9 29.98 55.9C22.04 55.9 15.59 53.32 10.11 48.02C4.65002 42.73 1.98999 36.5 1.98999 28.95C1.98999 21.4 4.64002 15.17 10.11 9.88C15.59 4.58 22.09 2 29.98 2ZM29.98 46.66C34.87 46.66 38.99 44.91 42.22 41.47C45.42 38.06 47.05 33.85 47.05 28.96C47.05 24.07 45.43 19.86 42.22 16.45C38.98 13.01 34.86 11.26 29.98 11.26C25.1 11.26 20.97 13.01 17.73 16.45C14.53 19.86 12.9 24.07 12.9 28.96C12.9 33.85 14.52 38.06 17.73 41.47C20.96 44.91 25.08 46.66 29.98 46.66ZM29.98 0C21.62 0 14.54 2.82001 8.72 8.45001C2.9 14.08 0 20.92 0 28.95C0 36.98 2.91 43.82 8.72 49.45C14.54 55.08 21.62 57.9 29.98 57.9C38.34 57.9 45.49 55.1 51.28 49.49C57.07 43.89 59.97 37.04 59.97 28.95C59.97 20.86 57.07 14.01 51.28 8.41C45.49 2.81 38.39 0 29.98 0ZM29.98 44.66C25.64 44.66 22.05 43.14 19.19 40.1C16.33 37.06 14.91 33.35 14.91 28.96C14.91 24.57 16.34 20.86 19.19 17.82C22.05 14.78 25.64 13.26 29.98 13.26C34.32 13.26 37.91 14.78 40.77 17.82C43.63 20.86 45.05 24.58 45.05 28.96C45.05 33.34 43.62 37.06 40.77 40.1C37.91 43.14 34.32 44.66 29.98 44.66Z" fill="#231F20"/>
</svg>
