<svg width="52" height="63" viewBox="0 0 52 63" fill="none" xmlns="http://www.w3.org/2000/svg">
<path d="M48.4348 25.945V36.495C48.4348 39.585 47.8448 42.485 46.6648 45.195C45.4948 47.895 43.8748 50.295 41.8248 52.375C39.7748 54.425 37.3848 56.035 34.6648 57.215C31.9448 58.395 29.0348 58.975 25.9448 58.975C19.9548 58.975 14.6648 56.775 10.0648 52.375C8.01482 50.295 6.39482 47.895 5.22482 45.195C4.04482 42.485 3.45483 39.585 3.45483 36.495V25.945C3.45483 22.855 4.04482 19.945 5.22482 17.225C6.39482 14.505 8.01482 12.115 10.0648 10.065C12.1148 8.01502 14.5048 6.39502 17.2248 5.22502C19.9448 4.04502 22.8548 3.45502 25.9448 3.45502C31.9348 3.45502 37.2348 5.65502 41.8248 10.065C43.8748 12.115 45.4948 14.505 46.6648 17.225C47.8448 19.945 48.4348 22.855 48.4348 25.945ZM42.5248 36.495V25.945C42.5248 23.675 42.0948 21.535 41.2348 19.525C40.3748 17.515 39.1748 15.755 37.6448 14.245C36.1348 12.715 34.3748 11.515 32.3648 10.655C30.3548 9.79502 28.2148 9.36502 25.9448 9.36502C21.5448 9.36502 17.6448 10.995 14.2448 14.245C12.7148 15.755 11.5248 17.515 10.6548 19.525C9.79482 21.535 9.36481 23.675 9.36481 25.945V36.495C9.36481 38.765 9.79482 40.895 10.6548 42.895C11.5248 44.895 12.7148 46.655 14.2448 48.185C15.7748 49.715 17.5148 50.885 19.5248 51.755C21.5348 52.635 23.6748 53.075 25.9448 53.075C30.3548 53.075 34.2448 51.445 37.6448 48.185C39.1748 46.655 40.3748 44.895 41.2348 42.895C42.0948 40.895 42.5248 38.765 42.5248 36.495Z" fill="white"/>
<path d="M25.9448 50.115C29.5548 50.115 32.7548 48.775 35.5448 46.095C38.2248 43.415 39.5748 40.215 39.5748 36.495V25.945C39.5748 22.225 38.2248 19.025 35.5448 16.345C32.8948 13.665 29.6948 12.315 25.9448 12.315C22.1948 12.315 19.1348 13.665 16.3448 16.345C13.6648 19.025 12.3248 22.225 12.3248 25.945V36.495C12.3248 40.215 13.6648 43.415 16.3448 46.095C18.9948 48.775 22.1948 50.115 25.9448 50.115ZM25.9448 9.36499C28.2148 9.36499 30.3547 9.79499 32.3647 10.655C34.3747 11.515 36.1348 12.715 37.6448 14.245C39.1748 15.755 40.3748 17.515 41.2348 19.525C42.0948 21.535 42.5247 23.675 42.5247 25.945V36.495C42.5247 38.765 42.0948 40.895 41.2348 42.895C40.3748 44.895 39.1748 46.655 37.6448 48.185C34.2448 51.445 30.3548 53.075 25.9448 53.075C23.6748 53.075 21.5347 52.635 19.5247 51.755C17.5147 50.885 15.7548 49.695 14.2448 48.185C12.7348 46.675 11.5248 44.895 10.6548 42.895C9.79475 40.895 9.36475 38.765 9.36475 36.495V25.945C9.36475 23.675 9.79475 21.535 10.6548 19.525C11.5248 17.515 12.7148 15.755 14.2448 14.245C17.6448 10.995 21.5448 9.36499 25.9448 9.36499Z" fill="#DD07D8"/>
<path d="M16.0749 2.495C19.1549 1.165 22.4449 0.505005 25.9449 0.505005C32.7049 0.505005 38.6949 2.99501 43.9249 7.97501C46.2449 10.295 48.0749 12.995 49.3949 16.075C50.7249 19.155 51.3849 22.445 51.3849 25.945V36.495C51.3849 39.995 50.7249 43.275 49.3949 46.345C48.0749 49.405 46.2449 52.115 43.9249 54.465C41.5949 56.795 38.8949 58.615 35.8149 59.945C32.7349 61.275 29.4449 61.935 25.9449 61.935C19.1849 61.935 13.1949 59.445 7.97488 54.465C5.64488 52.115 3.81487 49.405 2.49487 46.345C1.16487 43.275 0.504883 39.995 0.504883 36.495V25.945C0.504883 22.445 1.16487 19.155 2.49487 16.075C3.81487 12.995 5.64488 10.295 7.97488 7.97501C10.2949 5.64501 12.9949 3.815 16.0749 2.495ZM25.9449 58.975C29.0349 58.975 31.9449 58.395 34.6649 57.215C37.3849 56.035 39.7749 54.425 41.8249 52.375C43.8749 50.295 45.4949 47.895 46.6649 45.195C47.8449 42.485 48.4349 39.585 48.4349 36.495V25.945C48.4349 22.855 47.8449 19.945 46.6649 17.225C45.4949 14.505 43.8749 12.115 41.8249 10.065C37.2349 5.655 31.9349 3.455 25.9449 3.455C22.8549 3.455 19.9449 4.04501 17.2249 5.22501C14.5049 6.39501 12.1149 8.015 10.0649 10.065C8.01488 12.115 6.39488 14.505 5.22488 17.225C4.04488 19.945 3.4549 22.855 3.4549 25.945V36.495C3.4549 39.585 4.04488 42.485 5.22488 45.195C6.39488 47.895 8.01488 50.295 10.0649 52.375C14.6649 56.775 19.9549 58.975 25.9449 58.975Z" fill="#DD07D8"/>
<path d="M25.9449 61.935C19.1849 61.935 13.1949 59.445 7.97488 54.465C5.64488 52.115 3.81487 49.405 2.49487 46.345C1.16487 43.275 0.504883 39.995 0.504883 36.495V25.945C0.504883 22.445 1.16487 19.155 2.49487 16.075C3.81487 12.995 5.64488 10.295 7.97488 7.97501C10.2949 5.64501 12.9949 3.815 16.0749 2.495C19.1549 1.165 22.4449 0.505005 25.9449 0.505005C32.7049 0.505005 38.6949 2.99501 43.9249 7.97501C46.2449 10.295 48.0749 12.995 49.3949 16.075C50.7249 19.155 51.3849 22.445 51.3849 25.945V36.495C51.3849 39.995 50.7249 43.275 49.3949 46.345C48.0749 49.405 46.2449 52.115 43.9249 54.465C41.5949 56.795 38.8949 58.615 35.8149 59.945C32.7349 61.275 29.4449 61.935 25.9449 61.935Z" stroke="#DD07D8" stroke-width="1.01" stroke-linecap="round" stroke-linejoin="round"/>
<path d="M25.9448 58.975C29.0348 58.975 31.9448 58.395 34.6648 57.215C37.3848 56.035 39.7748 54.425 41.8248 52.375C43.8748 50.295 45.4948 47.895 46.6648 45.195C47.8448 42.485 48.4348 39.585 48.4348 36.495V25.945C48.4348 22.855 47.8448 19.945 46.6648 17.225C45.4948 14.505 43.8748 12.115 41.8248 10.065C37.2348 5.65502 31.9348 3.45502 25.9448 3.45502C22.8548 3.45502 19.9448 4.04502 17.2248 5.22502C14.5048 6.39502 12.1148 8.01502 10.0648 10.065C8.01482 12.115 6.39482 14.505 5.22482 17.225C4.04482 19.945 3.45483 22.855 3.45483 25.945V36.495C3.45483 39.585 4.04482 42.485 5.22482 45.195C6.39482 47.895 8.01482 50.295 10.0648 52.375C14.6648 56.775 19.9548 58.975 25.9448 58.975Z" stroke="#DD07D8" stroke-width="1.01" stroke-linecap="round" stroke-linejoin="round"/>
<path d="M25.9448 53.075C23.6748 53.075 21.5347 52.635 19.5247 51.755C17.5147 50.885 15.7548 49.695 14.2448 48.185C12.7348 46.675 11.5248 44.895 10.6548 42.895C9.79475 40.895 9.36475 38.765 9.36475 36.495V25.945C9.36475 23.675 9.79475 21.535 10.6548 19.525C11.5248 17.515 12.7148 15.755 14.2448 14.245C17.6448 10.995 21.5448 9.36499 25.9448 9.36499C28.2148 9.36499 30.3547 9.79499 32.3647 10.655C34.3747 11.515 36.1348 12.715 37.6448 14.245C39.1748 15.755 40.3748 17.515 41.2348 19.525C42.0948 21.535 42.5247 23.675 42.5247 25.945V36.495C42.5247 38.765 42.0948 40.895 41.2348 42.895C40.3748 44.895 39.1748 46.655 37.6448 48.185C34.2448 51.445 30.3548 53.075 25.9448 53.075Z" stroke="#DD07D8" stroke-width="1.01" stroke-linecap="round" stroke-linejoin="round"/>
<path d="M25.9449 50.115C29.5549 50.115 32.755 48.775 35.545 46.095C38.225 43.415 39.575 40.215 39.575 36.495V25.945C39.575 22.225 38.225 19.025 35.545 16.345C32.895 13.665 29.6949 12.315 25.9449 12.315C22.1949 12.315 19.1349 13.665 16.3449 16.345C13.6649 19.025 12.325 22.225 12.325 25.945V36.495C12.325 40.215 13.6649 43.415 16.3449 46.095C18.9949 48.775 22.1949 50.115 25.9449 50.115Z" stroke="#DD07D8" stroke-width="1.01" stroke-linecap="round" stroke-linejoin="round"/>
</svg>
