<svg width="39" height="41" viewBox="0 0 39 41" fill="none" xmlns="http://www.w3.org/2000/svg">
<path d="M25.1 33.12C25.1 33.07 24.91 32.79 24.53 32.31C24.15 31.82 23.96 31.55 23.96 31.5C23.96 31.28 23.83 31.04 23.55 30.77C23.28 30.44 22.8 29.62 22.12 28.29C21.44 26.96 21.1 26.19 21.1 25.97C21.1 25.7 21.02 25.48 20.86 25.32C20.7 24.94 20.53 24.51 20.37 24.02C19.93 22.55 19.15 21.74 18.01 21.58C17.68 21.53 17.33 21.43 16.95 21.29C16.57 21.16 16.33 21.09 16.22 21.09C15.89 21.09 15.51 21.47 15.08 22.23C14.81 22.88 14.67 24.73 14.67 27.77C14.67 30.97 14.75 32.58 14.91 32.58C15.07 32.58 15.15 33.04 15.15 33.96C15.15 34.83 15.23 35.34 15.39 35.51C15.55 35.62 15.63 36.3 15.63 37.55C15.63 38.47 15.6 39.04 15.55 39.26C15.5 39.48 15.28 39.75 14.9 40.07C14.46 40.45 14.03 40.64 13.6 40.64C13.17 40.64 12.79 40.61 12.46 40.56C11.37 40.45 10.75 40.32 10.59 40.15C10.43 39.99 8.80001 39.91 5.70001 39.91C2.44001 39.91 0.730007 39.88 0.570007 39.83C0.190007 39.78 0 39.42 0 38.77C0 38.23 0.299994 37.66 0.899994 37.06C1.49999 36.46 1.88001 36.16 2.04001 36.16C2.26001 36.16 2.66001 35.86 3.26001 35.26C3.80001 34.77 4.16001 33.99 4.32001 32.9C4.43001 31.98 4.56001 31.43 4.73001 31.27C4.90001 31.11 4.97 30.51 4.97 29.48C4.97 28.39 4.89001 27.82 4.73001 27.77C4.57001 27.72 4.48999 26.47 4.48999 24.02C4.48999 21.57 4.57001 20.27 4.73001 20.11C4.95001 19.89 5.06 17.67 5.06 13.43L5.13998 7L4.48999 6.50998C3.61999 5.79998 3.19 4.76998 3.19 3.41998C3.19 2.43998 3.38001 1.80998 3.76001 1.50998C4.14001 1.20998 4.95001 1.00999 6.20001 0.899994C7.18001 0.849994 8.02999 0.740007 8.76999 0.570007C9.49999 0.410007 10.6 0.270004 12.07 0.160004C14.46 0.0500037 16.44 0 18.02 0C21.49 0 23.5 0.109987 24.05 0.329987C24.1 0.379987 24.58 0.490004 25.48 0.660004C26.38 0.820004 26.85 0.989994 26.91 1.14999C27.02 1.25999 27.23 1.31 27.56 1.31C28.65 1.31 29.95 2.14999 31.47 3.82999C32.45 4.80999 32.99 5.54 33.1 6.03C33.21 6.52 33.4 6.89998 33.67 7.16998C33.94 7.43998 34.08 7.68999 34.08 7.89999C34.08 8.10999 34.16 8.38999 34.32 8.70999C34.54 9.35999 34.65 10.01 34.65 10.66C34.65 11.26 34.57 11.58 34.41 11.64C34.25 11.8 34.19 11.94 34.25 12.05C34.36 12.27 34.33 12.43 34.17 12.54C34.01 12.65 33.93 12.89 33.93 13.27C33.93 13.76 33.57 14.57 32.87 15.71C32.6 16.2 32.04 16.81 31.2 17.54C30.36 18.27 29.64 18.78 29.04 19.05C28.39 19.32 27.9 19.62 27.57 19.95C27.3 20.17 27.12 20.47 27.04 20.85C26.96 21.23 27.03 21.47 27.24 21.58C27.4 21.63 27.48 21.85 27.48 22.23C27.48 22.5 27.56 22.64 27.73 22.64C27.9 22.64 27.97 22.8 27.97 23.13C27.97 23.4 28.17 23.99 28.58 24.88C28.99 25.78 29.24 26.22 29.36 26.22C29.48 26.22 29.6 26.45 29.77 26.91C29.93 27.37 30.04 27.6 30.1 27.6C30.26 27.6 30.34 27.71 30.34 27.93C30.34 28.2 30.39 28.34 30.5 28.34C30.66 28.34 30.88 28.67 31.15 29.32C31.58 30.19 32.05 30.87 32.53 31.36C33.29 32.23 33.72 32.74 33.83 32.91C34.1 33.29 34.37 33.56 34.64 33.72C34.97 33.88 35.64 34.43 36.68 35.35C37.66 36.22 38.15 36.9 38.15 37.39C38.15 37.82 37.88 38.31 37.34 38.86L36.44 39.84H34.57C32.4 39.84 30.71 39.24 29.52 38.05C29.19 37.72 28.95 37.56 28.79 37.56C28.68 37.56 28.31 37.26 27.69 36.66C27.07 36.06 26.75 35.71 26.75 35.6C26.75 35.55 26.48 35.15 25.94 34.42C25.4 33.69 25.13 33.27 25.13 33.16L25.1 33.12ZM20.34 16.67C20.64 16.83 20.98 16.91 21.36 16.91C21.74 16.91 22.05 16.83 22.3 16.67C22.54 16.51 22.8 16.43 23.07 16.43C23.29 16.43 23.63 16.27 24.09 15.94C24.55 15.61 25.04 15.26 25.56 14.88C26.07 14.5 26.36 14.28 26.41 14.23C27.06 13.85 27.39 13.01 27.39 11.71V11.14C27.28 9.99998 27.06 9.09998 26.74 8.44998C26.36 7.73998 25.79 7.07 25.03 6.41C24.27 5.76 23.65 5.37999 23.16 5.26999C22.56 5.15999 21.5 5.05 19.98 4.94L17.62 4.78L16.97 5.42999C16.59 5.80999 16.4 6.15999 16.4 6.48999C16.4 6.75999 16.32 6.97998 16.16 7.13998C16.05 7.40998 15.94 8.65998 15.83 10.89L15.67 14.39L16.48 15.2C17.02 15.74 17.48 16.01 17.86 16.01C18.13 16.01 18.38 16.08 18.59 16.21C18.81 16.35 19.08 16.41 19.4 16.41C19.72 16.41 20.04 16.49 20.34 16.65V16.67Z" fill="black"/>
</svg>
