<svg width="44" height="77" viewBox="0 0 44 77" fill="none" xmlns="http://www.w3.org/2000/svg">
<path d="M29.5649 1.42854C31.0249 2.21854 33.0349 3.70852 33.7249 5.27852C35.8649 10.1085 36.4749 18.5285 34.7149 23.5985C34.4949 24.2285 31.0349 30.6985 30.7449 30.9985C30.5849 31.1685 29.8249 31.2486 29.3349 31.6286C27.4149 33.1086 29.0649 34.2186 29.5449 35.9386C31.9649 44.6086 34.8849 53.7885 39.3849 61.9085C40.4949 63.9085 42.0949 65.6985 43.3449 67.6485C43.5949 68.0285 43.1549 68.4786 43.2649 68.6886C43.3049 68.7686 43.8949 68.7485 43.9049 68.9685C43.9549 69.6185 43.1049 71.2585 43.5449 72.2785C42.0149 72.4185 42.5849 73.1985 42.0349 73.7885C40.9549 74.9285 36.1149 74.0885 34.3649 74.3385C33.5349 74.4585 33.0449 75.0285 32.5049 75.0885C30.9349 75.2685 27.1749 75.7685 25.8949 75.3985C24.6149 75.0285 24.8149 73.9185 24.4749 73.1685C24.3049 72.7885 23.8349 72.9686 23.7449 72.3286C23.5849 71.1586 23.8049 68.8785 24.5149 67.9285C24.9849 67.3085 27.9349 66.5685 28.7549 66.1085C30.7049 64.9985 29.2349 64.1186 29.0249 62.9486C28.0449 57.5486 26.2349 53.1985 24.4949 48.0885C23.0449 43.8385 21.2949 39.7286 20.7849 35.1986C19.0049 35.2886 17.2149 35.2186 15.5649 34.4486C15.4149 35.9686 15.3649 37.5285 15.3249 39.0485C15.3149 39.4985 15.6549 40.0185 15.5749 40.5385C15.5349 40.7985 14.4449 40.6385 14.8149 42.0385C14.8949 42.3185 15.4949 42.1086 15.5849 42.8186C15.6849 43.6186 15.7049 46.9386 15.5449 47.6286C15.4849 47.9086 14.4349 47.7686 14.8049 49.1386C14.8549 49.3286 16.6949 49.8785 14.8049 50.6685C16.3849 51.7385 14.4949 53.3385 14.8949 54.7785C15.4849 56.8985 15.5749 58.6185 15.9849 61.0585C16.7749 65.6885 17.8049 65.1986 19.5949 68.2586C19.9649 68.8886 21.2249 72.0885 21.0949 72.5985C21.0349 72.8285 18.2849 75.7085 17.9949 75.8685C17.0949 76.3885 14.6149 76.3786 13.5149 76.1986C12.8849 76.0986 12.4349 75.4785 11.6249 75.4285C10.5549 75.3585 10.0349 76.0985 9.03489 76.2385C6.76489 76.5585 3.42489 76.5385 1.75489 74.9085C0.0848936 73.2785 -0.505105 71.7285 0.474895 69.5385C1.67489 66.8285 4.3249 67.6085 4.9149 66.5185C5.5549 65.3285 5.5349 61.9286 5.6949 60.3886C7.0949 47.2486 5.83489 33.4486 7.72489 20.4386C6.88489 17.7986 6.60489 13.8485 6.93489 11.1185C7.04489 10.2285 7.99488 10.9585 7.71488 9.84853C1.79488 11.1785 2.40487 2.72852 6.79487 1.27852C10.4949 1.24852 14.2249 1.01856 17.8949 0.758559C18.2549 0.728559 18.7349 0.178564 19.4449 0.138564C21.2949 0.0185641 25.2249 -0.101436 26.9449 0.138564C27.8049 0.258564 28.7449 0.998552 29.5649 1.43855V1.42854ZM20.3449 8.41853C19.9149 8.11853 19.3049 8.98852 18.7149 9.08852C18.1249 9.18852 16.0249 8.99853 15.9249 9.09853C15.8349 9.19853 16.0249 9.97854 15.8949 10.3685C14.7849 13.8085 15.4649 16.2085 15.4149 19.6685C15.3849 21.3985 15.1849 23.6186 14.8049 25.3186C14.7849 25.6286 16.9549 25.4785 17.5149 25.5985C18.3249 25.7685 19.7549 26.5685 20.2349 26.6185C20.3949 26.6385 20.3349 25.9786 20.6649 25.8886C21.4649 25.6686 23.5849 25.9086 24.1649 25.2586C24.5149 24.8686 26.5249 20.7286 26.7249 20.0786C27.3149 18.1686 27.7749 10.9986 26.3849 9.63856C25.9849 9.23856 25.2549 9.30856 24.7849 9.06856C24.4649 8.89856 24.5349 8.31857 24.3149 8.32857C23.5149 8.36857 22.6049 9.57852 20.6549 9.08852C20.3649 9.01852 20.4249 8.45853 20.3549 8.41853H20.3449Z" fill="#221A22"/>
</svg>
