<svg width="37" height="70" viewBox="0 0 37 70" fill="none" xmlns="http://www.w3.org/2000/svg">
<path d="M0.0823257 33.7098C0.102326 25.1998 -0.307663 14.1898 0.812337 5.90978C0.852337 5.59978 1.68232 2.53978 1.76232 2.37978C1.80232 2.28978 3.07231 1.03977 3.16231 0.999773C3.41231 0.899773 6.88231 0.189767 7.35231 0.149767C16.9123 -0.740233 26.7923 2.26977 31.4023 10.9698L30.6623 12.0798C30.8523 10.4998 27.8523 11.4798 27.6923 12.3598C27.5423 13.1698 27.8323 14.0698 27.6723 14.8198C27.6123 15.0898 27.0123 15.0498 26.9423 15.3298C26.4123 17.4098 28.4023 17.9898 28.4423 19.3598C28.4423 19.4598 27.1223 19.7398 27.6823 21.0398C29.9723 21.3298 31.5823 19.5798 33.6523 18.7998C34.0123 24.3398 33.5723 29.1698 32.1623 34.4598C30.8223 34.7798 31.6523 33.1798 31.4223 32.9698C31.3023 32.8598 29.9623 33.0898 29.4423 32.9698C29.1423 32.8998 29.3423 32.2898 28.6523 32.1998C28.0623 32.1198 26.2423 32.1098 25.7123 32.2398C25.4323 32.3098 25.4823 32.9098 25.2023 32.9698C24.6223 33.0998 24.0423 32.8698 23.3123 33.0898C22.7223 33.2698 21.8723 35.9298 21.6023 36.5798C21.5523 36.7098 21.0523 36.7098 20.9923 36.9598C20.8523 37.5398 20.8723 40.2698 20.9923 40.8998C21.0523 41.1998 22.1423 41.7198 22.3423 42.0398C22.5423 42.3598 22.3723 43.0098 22.5823 43.2998C22.6923 43.4498 24.6423 45.4898 24.7923 45.5498C25.4723 45.7898 26.0823 45.5298 26.6823 45.6598C26.9923 45.7298 26.7823 46.3298 27.4723 46.4298C28.0923 46.5198 29.4823 46.5898 29.9223 46.0298C31.3523 49.6098 33.0323 53.1098 34.2723 56.7798C34.8123 58.3998 36.5623 63.0797 36.5523 64.3697C36.5223 66.9097 35.3623 66.6397 33.9323 68.1297L26.1923 69.5098C26.0623 68.5898 28.1423 67.5798 28.3223 67.1698C28.5323 66.6998 28.3423 65.8998 28.4423 65.7898C28.5423 65.6798 29.3523 65.8798 29.8223 65.6698C29.9223 65.6198 31.3723 64.1298 31.4023 64.0198C31.8723 61.9898 30.7323 62.0398 30.6823 61.7998C30.3923 60.4698 30.4123 60.6097 30.0623 59.6897C29.9023 59.2597 29.9923 58.7298 29.8123 58.4498C29.2423 57.5798 28.5823 57.7298 27.8223 57.4498C27.6923 57.3998 27.6823 56.8998 27.4423 56.8398C26.9523 56.7198 25.4623 56.7198 24.9723 56.8398C24.6923 56.9098 24.7423 57.4997 24.4623 57.5697C23.6323 57.7697 21.5023 56.9397 21.7323 58.3197C21.0923 54.8697 20.0123 51.2898 19.4923 47.6898C19.3023 46.3598 18.2523 47.6598 17.4223 47.8598C16.9123 47.9798 16.3023 47.8398 15.7623 47.8698C16.1323 51.3198 16.1423 55.0598 16.5323 58.4798C16.6723 59.7398 17.6323 62.0198 17.6523 63.7398C17.6723 67.7698 15.7523 68.9798 11.8323 69.4698C9.49233 69.7598 3.98231 69.9398 2.38231 68.1698C0.782313 66.3998 1.00232 62.7398 0.862324 60.5498C2.20232 60.2298 1.37231 61.8298 1.60231 62.0398C1.72231 62.1498 3.06233 61.9198 3.58233 62.0398C3.83233 62.0998 3.78233 63.2298 5.80233 62.7598C6.06233 62.6998 7.31233 60.9398 7.68233 60.6598C8.01233 60.4098 9.33232 59.5698 9.92232 59.1698C10.2323 58.9598 10.8223 59.1398 11.1723 58.9198C12.0523 58.3698 11.8923 57.6597 12.1723 56.9397C12.2523 56.7397 12.9123 57.0398 12.8223 55.4898C12.7623 54.3298 12.3023 54.7598 12.0723 54.2598C11.8423 53.7598 11.3223 52.8997 11.3023 52.8197C11.1723 52.2397 11.3923 51.6598 11.1823 50.9398C10.9523 50.1598 9.08232 49.8798 8.32232 50.0898L9.06234 49.3498C8.21234 49.2298 7.13233 49.5298 6.33233 49.3398C6.04233 49.2698 6.20233 48.2398 4.83233 48.5998C4.57233 48.6698 4.63234 49.2698 4.34234 49.3398C2.88234 49.6698 2.06232 49.5098 0.862324 50.8398C-0.307675 51.0398 0.152323 50.2598 0.142323 49.5398C0.112323 47.2498 0.132334 44.9298 0.122334 42.6398C0.992334 42.4898 1.26232 43.6998 1.73232 44.0098C2.20232 44.3198 3.05232 43.7498 3.29232 44.8798C3.91232 45.1698 4.26232 43.6798 4.70232 43.4898C5.17232 43.2898 5.97232 43.4598 6.07232 43.3598C6.19232 43.2398 5.99232 42.5398 6.11232 42.1898C6.62232 40.6898 8.95232 41.2598 9.07232 41.1398C9.24232 40.9798 9.17231 36.9998 9.10231 36.4498C9.02231 35.8198 8.54232 36.0198 8.36232 35.6098C8.24232 35.3398 8.40233 34.8498 8.21233 34.5398C8.15233 34.4398 6.68232 32.9698 6.57232 32.9498C5.70232 32.7698 2.38231 32.7898 1.41231 32.9098C0.662312 32.9998 0.982313 33.8798 0.132313 33.6798L0.0823257 33.7098ZM16.4923 12.0798C16.4023 11.5298 16.6223 9.20977 16.4923 9.08977C16.3523 8.95977 15.1323 9.23977 15.0023 9.08977C14.8923 8.96977 15.1223 8.23976 14.9923 7.88976C14.8623 7.53976 14.4023 7.63977 14.2723 7.30977C14.1423 6.97977 14.3623 6.22976 14.2523 6.10976C13.8723 5.67976 11.3423 7.15976 12.0123 4.60976C10.7623 4.08976 10.4623 5.30978 10.2723 5.34978C8.63233 5.70978 8.85231 5.44977 7.25231 6.08977C6.92231 6.21977 6.20234 5.98977 6.06234 6.11977C5.96234 6.21977 6.14231 7.02976 5.94231 7.48976C5.84231 7.70976 4.64232 8.29976 4.57232 8.60976C4.45232 9.15976 4.67233 9.78978 4.55233 10.3198C4.48233 10.6298 3.87234 10.4098 3.78234 11.1098C3.63234 12.2398 3.95234 13.6698 3.81234 14.8598L4.55233 14.2998C4.71233 15.3998 4.28232 16.9398 4.67232 17.9298C4.72232 18.0498 6.44234 19.5198 6.59234 19.5398C7.69234 19.6798 11.0123 19.8598 11.3923 18.8998L13.8823 18.0298C13.7123 20.3998 13.7823 23.6598 13.8623 26.0498C13.9023 27.3098 14.2523 33.6298 14.4423 34.0598C15.0723 35.4198 16.7323 34.0998 17.4323 33.3298C19.8223 30.6598 20.8423 27.5998 21.7323 24.2798C21.8123 23.9698 22.3823 24.0098 22.4423 23.7398C22.8723 21.9298 22.3923 17.9598 21.3423 16.3398C20.8823 15.6398 17.3023 12.3998 16.4823 12.0598L16.4923 12.0798Z" fill="#EF5268"/>
<path d="M0.83232 50.8598C2.03232 49.5398 2.84233 49.6898 4.31233 49.3598C4.60233 49.2998 4.55232 48.6898 4.80232 48.6198C6.17232 48.2498 6.02232 49.2898 6.30232 49.3598C7.09232 49.5498 8.18233 49.2498 9.03233 49.3698L8.29231 50.1098C9.05231 49.8998 10.9223 50.1798 11.1523 50.9598C11.3723 51.6798 11.1523 52.2598 11.2723 52.8398C11.2923 52.9298 11.8023 53.7598 12.0423 54.2798C12.2823 54.7998 12.7323 54.3397 12.7923 55.5097C12.8723 57.0497 12.2123 56.7498 12.1423 56.9598C11.8623 57.6798 12.0223 58.3897 11.1423 58.9397C10.7923 59.1597 10.2023 58.9797 9.89232 59.1897C9.30232 59.5897 7.98233 60.4298 7.65233 60.6798C7.28233 60.9598 6.03232 62.7198 5.77232 62.7798C3.75232 63.2498 3.80232 62.1197 3.55232 62.0597C3.03232 61.9397 1.69231 62.1697 1.57231 62.0597C1.33231 61.8397 2.17232 60.2397 0.83232 60.5697C0.77232 59.6497 0.89232 58.7098 0.83232 57.7798C0.67232 55.5898 -0.95768 52.8598 0.83232 50.8798V50.8598Z" fill="#F9B027"/>
<path d="M29.9123 46.0097C29.4723 46.5697 28.0823 46.4998 27.4623 46.4098C26.7723 46.3198 26.9823 45.7097 26.6723 45.6397C26.0723 45.5097 25.4623 45.7698 24.7823 45.5298C24.6323 45.4798 22.6923 43.4398 22.5723 43.2798C22.3623 42.9998 22.5423 42.3497 22.3323 42.0197C22.1223 41.6897 21.0423 41.1898 20.9823 40.8798C20.8523 40.2498 20.8323 37.5198 20.9823 36.9398C21.0423 36.6898 21.5323 36.6898 21.5923 36.5598C21.8623 35.9098 22.7223 33.2498 23.3023 33.0698C24.0323 32.8498 24.6023 33.0697 25.1923 32.9497C25.4723 32.8897 25.4223 32.2798 25.7023 32.2198C26.2323 32.0998 28.0523 32.1097 28.6423 32.1797C29.3323 32.2697 29.1323 32.8797 29.4323 32.9497C29.9523 33.0697 31.2923 32.8397 31.4123 32.9497C31.6523 33.1697 30.8123 34.7698 32.1523 34.4398C31.8823 35.4398 31.1623 37.8197 30.5423 38.7997C30.3223 39.1497 28.4923 40.4297 28.4323 40.6797C28.1623 41.9697 29.3723 44.6398 29.9123 45.9998V46.0097Z" fill="#F9B027"/>
<path d="M21.7124 58.3197C21.4824 56.9397 23.6024 57.7697 24.4424 57.5697C24.7224 57.4997 24.6724 56.9098 24.9524 56.8398C25.4424 56.7198 26.9324 56.7198 27.4224 56.8398C27.6724 56.8998 27.6824 57.3997 27.8024 57.4497C28.5524 57.7297 29.2224 57.5797 29.7924 58.4497C29.9724 58.7297 29.8824 59.2597 30.0424 59.6897C30.3924 60.6097 30.3724 60.4698 30.6624 61.7998C30.7124 62.0398 31.8624 61.9997 31.3824 64.0197C31.3524 64.1297 29.9124 65.6298 29.8024 65.6698C29.3324 65.8798 28.5324 65.6898 28.4224 65.7898C28.3124 65.8898 28.5124 66.6998 28.3024 67.1698C28.1224 67.5798 26.0424 68.5897 26.1724 69.5097C21.3924 69.0197 22.3324 61.7297 21.7024 58.3197H21.7124Z" fill="#F9B027"/>
<path d="M0.0823253 33.7097C0.932325 33.8997 0.612324 33.0198 1.36232 32.9398C2.33232 32.8298 5.65233 32.8097 6.52233 32.9797C6.63233 32.9997 8.10231 34.4798 8.16231 34.5698C8.35231 34.8798 8.19234 35.3697 8.31234 35.6397C8.49234 36.0497 8.97233 35.8497 9.05233 36.4797C9.12233 37.0297 9.19233 41.0097 9.02233 41.1697C8.90233 41.2897 6.57234 40.7198 6.06234 42.2198C5.94234 42.5698 6.14233 43.2697 6.02233 43.3897C5.92233 43.4897 5.12233 43.3097 4.65233 43.5197C4.21233 43.7097 3.86233 45.1998 3.24233 44.9098C2.99233 43.7798 2.16233 44.3698 1.68233 44.0398C1.20233 43.7098 0.952316 42.5197 0.0723155 42.6697C0.0623155 39.6897 0.0723155 36.6998 0.0723155 33.7198L0.0823253 33.7097ZM5.30233 35.1997C5.24233 35.1397 3.48232 34.8898 3.82232 35.7498C4.27232 36.8798 4.78233 37.8297 6.05233 37.4297C6.39233 36.4197 5.41233 36.8697 5.30233 36.4197C5.22233 36.0597 5.39233 35.2997 5.30233 35.1997Z" fill="#F9B027"/>
<path d="M31.4022 10.9598C31.7722 11.6598 32.8622 12.9498 32.8922 13.0798C33.0522 13.8498 32.7522 14.7798 32.9122 15.5998C33.1522 16.7998 33.5322 17.0598 33.6422 18.7898C31.5722 19.5598 29.9622 21.3098 27.6722 21.0298C27.1222 19.7298 28.4422 19.4498 28.4322 19.3498C28.3922 17.9798 26.4022 17.3998 26.9322 15.3198C27.0022 15.0398 27.6022 15.0798 27.6622 14.8098C27.8322 14.0598 27.5422 13.1598 27.6822 12.3498C27.8422 11.4698 30.8422 10.4898 30.6522 12.0698L31.3922 10.9598H31.4022ZM30.6522 12.8398C29.8722 12.3298 29.9822 13.4898 29.6522 13.5798C29.3222 13.6698 27.7722 13.3498 28.4322 14.3098C28.4822 14.3798 29.6422 14.7898 29.8022 15.1698C30.0122 15.6498 29.8522 16.4798 29.9122 16.5498C29.9822 16.6298 32.0722 16.6298 32.1522 16.5498C32.8622 15.7998 31.5722 15.0298 31.5322 14.9398C31.3722 14.5798 31.0522 13.0898 30.6522 12.8398Z" fill="#F9B027"/>
<path d="M13.8822 18.0497L11.3922 18.9197C11.0222 19.8797 7.69225 19.6998 6.59225 19.5598C6.43225 19.5398 4.71224 18.0697 4.67224 17.9497C4.28224 16.9497 4.71224 15.4098 4.55224 14.3198L3.81225 14.8798C3.95225 13.6898 3.63225 12.2598 3.78225 11.1298C3.87225 10.4398 4.48224 10.6498 4.55224 10.3398C4.67224 9.79976 4.45223 9.17976 4.57223 8.62976C4.64223 8.31976 5.84223 7.71974 5.94223 7.50974C6.15223 7.03974 5.97225 6.22974 6.06225 6.13974C6.20225 6.00974 6.92222 6.23974 7.25222 6.10974C8.85222 5.46974 8.63224 5.72975 10.2722 5.36975C10.4622 5.32975 10.7622 4.10976 12.0122 4.62976C11.3322 7.17976 13.8722 5.68976 14.2522 6.12976C14.3522 6.24976 14.1322 6.97975 14.2722 7.32975C14.4122 7.67975 14.8622 7.56976 14.9922 7.90976C15.1222 8.24976 14.9022 8.98975 15.0022 9.10975C15.1322 9.25975 16.3622 8.97975 16.4922 9.10975C16.6122 9.22975 16.4022 11.5498 16.4922 12.0998C16.3322 12.0298 15.7422 12.1398 15.3022 11.9998C14.7522 11.8398 13.9722 10.6998 13.5722 11.9698C13.2022 13.1398 13.7523 14.2097 13.8123 15.2697C13.8723 16.3297 13.9222 17.5698 13.8822 18.0698V18.0497Z" fill="#F9B027"/>
<path d="M5.30238 35.1998C5.39238 35.2998 5.22238 36.0598 5.30238 36.4198C5.40238 36.8698 6.39238 36.4198 6.05238 37.4298C4.78238 37.8298 4.27237 36.8698 3.82237 35.7498C3.48237 34.8898 5.24238 35.1398 5.30238 35.1998Z" fill="#EF5268"/>
<path d="M30.6524 12.8398C31.0524 13.0998 31.3724 14.5798 31.5324 14.9398C31.5724 15.0298 32.8624 15.7997 32.1524 16.5497C32.0724 16.6297 29.9924 16.6297 29.9124 16.5497C29.8424 16.4697 30.0024 15.6497 29.8024 15.1697C29.6424 14.7897 28.4724 14.3798 28.4324 14.3098C27.7724 13.3398 29.3324 13.6697 29.6524 13.5797C29.9724 13.4897 29.8724 12.3298 30.6524 12.8398Z" fill="#EF5268"/>
</svg>
