<svg width="40" height="62" viewBox="0 0 40 62" fill="none" xmlns="http://www.w3.org/2000/svg">
<path d="M32.1356 3.95114C36.2556 7.15114 38.2356 11.0312 38.6056 16.3012C39.0756 22.8912 36.6156 29.2711 30.7856 32.7011C33.5656 36.1911 35.8256 39.7712 37.4056 43.9812C38.6056 47.1912 40.2256 51.9312 38.7556 55.2312C38.2556 56.3512 35.9356 59.3812 34.8456 59.9012C30.1356 62.1512 25.5356 57.7212 23.2556 54.0312L21.4555 49.6812C21.5955 51.0712 20.9856 52.7612 20.4056 54.0412C17.9356 59.4812 14.1656 63.1012 7.75556 60.9612C-1.07444 58.0112 -0.124437 43.8011 0.195563 36.4411C0.585563 27.6011 1.29554 17.2712 3.20554 8.50119C4.17554 4.06119 5.72556 5.72114 8.66556 4.64114C10.0256 4.14114 11.9555 2.26119 13.7355 1.50119C20.0055 -1.18881 26.7856 -0.198859 32.1256 3.95114H32.1356ZM21.1356 22.7912C26.0556 23.4812 25.5855 12.2012 21.7355 15.7312C20.6555 16.7212 21.6656 17.5212 21.4056 18.4612C21.2856 18.9112 20.6756 19.1612 20.5356 19.4912C19.9556 20.8312 20.5456 21.6412 21.1356 22.8012V22.7912ZM8.36555 41.5111C2.87555 38.9811 4.14555 50.1512 6.74555 50.4312C9.01555 50.6712 7.42554 46.9312 7.64554 45.3612C7.81554 44.1412 8.94555 43.0411 8.36555 41.5111ZM11.3255 54.1512C11.3255 53.3712 10.6955 52.7512 9.92554 52.7512C9.15554 52.7512 8.52555 53.3812 8.52555 54.1512C8.52555 54.9212 9.15554 55.5512 9.92554 55.5512C10.6955 55.5512 11.3255 54.9212 11.3255 54.1512Z" fill="#E9549D"/>
<path d="M21.1356 22.7911C20.5456 21.6311 19.9556 20.8211 20.5356 19.4811C20.6756 19.1511 21.2855 18.9111 21.4055 18.4511C21.6555 17.5111 20.6455 16.7111 21.7355 15.7211C25.5955 12.1911 26.0556 23.4711 21.1356 22.7811V22.7911Z" fill="white"/>
<path d="M9.91565 55.5512C10.6888 55.5512 11.3156 54.9244 11.3156 54.1512C11.3156 53.378 10.6888 52.7512 9.91565 52.7512C9.14245 52.7512 8.51562 53.378 8.51562 54.1512C8.51562 54.9244 9.14245 55.5512 9.91565 55.5512Z" fill="white"/>
<path d="M8.36544 41.5111C8.94544 43.0411 7.81544 44.1411 7.64544 45.3611C7.43544 46.9311 9.01544 50.6711 6.74544 50.4311C4.14544 50.1511 2.87544 38.9911 8.36544 41.5111Z" fill="white"/>
</svg>
