<svg width="56" height="62" viewBox="0 0 56 62" fill="none" xmlns="http://www.w3.org/2000/svg">
<path d="M41.8499 60.19C40.9699 60.19 40.5199 60.03 40.3099 59.9C40.0799 59.76 39.6999 59.42 39.2199 58.61L28.4299 41.07C28.2499 40.77 27.9299 40.59 27.5799 40.59H19.9699C19.4199 40.59 18.9699 41.04 18.9699 41.59V59.2C18.9699 59.97 18.7599 60.18 17.9899 60.18H7.67993C6.82993 60.18 6.69995 59.91 6.69995 59.28V7.56999C6.69995 7.41999 6.72994 7.19998 6.96994 6.91998C7.02994 6.84998 7.18993 6.66998 7.67993 6.66998H33.4599C38.9299 6.66998 43.4399 8.28998 46.8599 11.48C50.2999 14.7 51.9799 18.53 51.9799 23.2C51.9799 24.99 51.6899 26.82 51.1099 28.65C50.5399 30.45 49.4499 32.32 47.8499 34.21C46.2799 36.07 44.2899 37.44 41.9399 38.27C41.6499 38.37 41.4299 38.6 41.3299 38.89C41.2299 39.18 41.2699 39.5 41.4399 39.76L53.8099 58.95C53.8099 58.95 53.8499 59.01 53.8799 59.04C54.1299 59.34 54.1099 59.51 53.9699 59.76C53.8299 60.02 53.64 60.19 53.14 60.19H41.8799H41.8499ZM19.95 17.13C19.4 17.13 18.95 17.58 18.95 18.13V30.19C18.95 30.74 19.4 31.19 19.95 31.19H31.3699C33.4699 31.19 35.2699 30.51 36.7299 29.18C38.2099 27.83 38.9599 26.08 38.9599 24C38.9599 21.92 38.2099 20.21 36.7399 18.96C35.3199 17.75 33.5599 17.13 31.5299 17.13H19.95Z" fill="#FC0B50"/>
<path d="M33.4399 7.66998C38.7299 7.66998 42.8799 9.14999 46.1499 12.21C49.3799 15.23 50.9499 18.82 50.9499 23.2C50.9499 24.89 50.6699 26.62 50.1299 28.35C49.5999 30.02 48.5699 31.78 47.0599 33.57C45.5899 35.32 43.7899 36.55 41.5799 37.33C40.9999 37.53 40.5499 37.99 40.3499 38.57C40.1499 39.15 40.2299 39.79 40.5599 40.3L52.7299 59.19H41.8399C41.0599 59.19 40.8199 59.05 40.8199 59.05C40.7899 59.03 40.5099 58.85 40.0499 58.08L29.2599 40.55C28.8999 39.96 28.2499 39.6 27.5599 39.6H19.9499C18.8499 39.6 17.9499 40.5 17.9499 41.6V59.19H7.66992V7.66998H33.4299M19.9499 32.18H31.3699C33.7299 32.18 35.7599 31.42 37.3999 29.91C39.0899 28.36 39.9499 26.37 39.9499 23.99C39.9499 21.61 39.0599 19.62 37.3799 18.18C35.7699 16.81 33.7999 16.12 31.5199 16.12H19.9399C18.8399 16.12 17.9399 17.02 17.9399 18.12V30.18C17.9399 31.28 18.8399 32.18 19.9399 32.18M33.4399 5.66998H7.65991C7.02991 5.66998 6.53991 5.86999 6.18991 6.25999C5.84991 6.65999 5.66992 7.08999 5.66992 7.56999V59.28C5.66992 60.55 6.3299 61.18 7.6499 61.18H17.9599C19.2799 61.18 19.9399 60.52 19.9399 59.2V41.59H27.5499L38.3399 59.12C38.8199 59.91 39.2899 60.46 39.7699 60.75C40.2499 61.04 40.9299 61.19 41.8299 61.19H53.0899C53.8799 61.19 54.4499 60.87 54.7999 60.24C55.1399 59.61 55.0799 59 54.5999 58.42L42.2299 39.23C44.7699 38.33 46.8799 36.88 48.5699 34.87C50.2599 32.86 51.4099 30.89 52.0199 28.96C52.6299 27.03 52.9299 25.11 52.9299 23.21C52.9299 18.29 51.1199 14.14 47.4999 10.76C43.8799 7.37999 39.1799 5.67999 33.4199 5.67999L33.4399 5.66998ZM19.9499 30.18V18.12H31.5299C33.3299 18.12 34.8499 18.65 36.0899 19.71C37.3299 20.77 37.9499 22.2 37.9499 23.99C37.9499 25.78 37.3199 27.27 36.0499 28.43C34.7799 29.59 33.2199 30.18 31.3699 30.18H19.9499Z" fill="#231F20"/>
<path d="M41.5599 59.91C40.6799 59.91 40.2299 59.75 40.0199 59.62C39.7899 59.48 39.4099 59.14 38.9299 58.33L28.1399 40.79C27.9599 40.49 27.6399 40.31 27.2899 40.31H19.6799C19.1299 40.31 18.6799 40.76 18.6799 41.31V58.92C18.6799 59.69 18.4699 59.9 17.6999 59.9H7.38992C6.53992 59.9 6.40991 59.63 6.40991 59V7.29002C6.40991 7.14002 6.4399 6.92001 6.6799 6.64001C6.7399 6.57001 6.89992 6.39001 7.38992 6.39001H33.1699C38.6399 6.39001 43.1499 8.01001 46.5699 11.2C50.0099 14.42 51.6899 18.25 51.6899 22.92C51.6899 24.71 51.3999 26.54 50.8199 28.37C50.2499 30.17 49.1599 32.04 47.5599 33.93C45.9899 35.79 43.9999 37.16 41.6499 37.99C41.3599 38.09 41.1399 38.32 41.0399 38.61C40.9399 38.9 40.9799 39.22 41.1499 39.48L53.5199 58.67C53.5199 58.67 53.5599 58.73 53.5899 58.76C53.8399 59.06 53.8199 59.23 53.6799 59.48C53.5399 59.74 53.3499 59.91 52.8499 59.91H41.5899H41.5599ZM19.6699 16.84C19.1199 16.84 18.6699 17.29 18.6699 17.84V29.9C18.6699 30.45 19.1199 30.9 19.6699 30.9H31.0899C33.1899 30.9 34.9899 30.22 36.4499 28.89C37.9299 27.54 38.6799 25.79 38.6799 23.71C38.6799 21.63 37.9299 19.92 36.4599 18.67C35.0399 17.46 33.2799 16.84 31.2499 16.84H19.6699Z" fill="#FC0B50"/>
<path d="M33.1499 7.39001C38.4399 7.39001 42.5899 8.87002 45.8599 11.93C49.0899 14.95 50.6599 18.54 50.6599 22.92C50.6599 24.61 50.3799 26.34 49.8399 28.07C49.3099 29.74 48.2799 31.5 46.7699 33.29C45.2999 35.04 43.4999 36.27 41.2899 37.05C40.7099 37.25 40.2599 37.71 40.0599 38.29C39.8599 38.87 39.9399 39.51 40.2699 40.02L52.4399 58.91H41.5499C40.7699 58.91 40.5299 58.77 40.5299 58.77C40.4999 58.75 40.2199 58.57 39.7599 57.8L28.9699 40.27C28.6099 39.68 27.9599 39.32 27.2699 39.32H19.6599C18.5599 39.32 17.6599 40.22 17.6599 41.32V58.91H7.37988V7.39001H33.1399M19.6699 31.9H31.0899C33.4499 31.9 35.4799 31.14 37.1199 29.63C38.8099 28.08 39.6699 26.09 39.6699 23.71C39.6699 21.33 38.7799 19.34 37.0999 17.9C35.4899 16.53 33.5199 15.84 31.2399 15.84H19.6599C18.5599 15.84 17.6599 16.74 17.6599 17.84V29.9C17.6599 31 18.5599 31.9 19.6599 31.9M33.1499 5.39001H7.36987C6.73987 5.39001 6.24987 5.59001 5.89987 5.98001C5.55987 6.38001 5.37988 6.81002 5.37988 7.29002V59C5.37988 60.27 6.03986 60.9 7.35986 60.9H17.6699C18.9899 60.9 19.6499 60.24 19.6499 58.92V41.31H27.2599L38.0499 58.84C38.5299 59.63 38.9999 60.18 39.4799 60.47C39.9599 60.76 40.6399 60.91 41.5399 60.91H52.7999C53.5899 60.91 54.1599 60.59 54.5099 59.96C54.8499 59.33 54.7899 58.72 54.3099 58.14L41.9399 38.95C44.4799 38.05 46.5899 36.6 48.2799 34.59C49.9699 32.58 51.1199 30.61 51.7299 28.68C52.3399 26.75 52.6399 24.83 52.6399 22.93C52.6399 18.01 50.8299 13.86 47.2099 10.48C43.5899 7.10001 38.8899 5.40002 33.1299 5.40002L33.1499 5.39001ZM19.6699 29.9V17.84H31.2499C33.0499 17.84 34.5699 18.37 35.8099 19.43C37.0499 20.49 37.6699 21.92 37.6699 23.71C37.6699 25.5 37.0399 26.99 35.7699 28.15C34.4999 29.31 32.9399 29.9 31.0899 29.9H19.6699Z" fill="#231F20"/>
<path d="M41.2799 59.63C40.3999 59.63 39.9499 59.47 39.7399 59.34C39.5099 59.2 39.1299 58.86 38.6499 58.05L27.8599 40.51C27.6799 40.21 27.3599 40.03 27.0099 40.03H19.3999C18.8499 40.03 18.3999 40.48 18.3999 41.03V58.64C18.3999 59.41 18.1899 59.62 17.4199 59.62H7.10986C6.25986 59.62 6.12988 59.35 6.12988 58.72V7.00999C6.12988 6.85999 6.15987 6.63999 6.39987 6.35999C6.45987 6.28999 6.61986 6.10999 7.10986 6.10999H32.8899C38.3599 6.10999 42.8699 7.72998 46.2899 10.92C49.7299 14.14 51.4099 17.97 51.4099 22.64C51.4099 24.43 51.1199 26.26 50.5399 28.09C49.9699 29.89 48.8799 31.76 47.2799 33.65C45.7099 35.51 43.7199 36.88 41.3699 37.71C41.0799 37.81 40.8599 38.04 40.7599 38.33C40.6599 38.62 40.6999 38.94 40.8699 39.2L53.2399 58.39C53.2399 58.39 53.2799 58.45 53.3099 58.48C53.5599 58.78 53.5399 58.95 53.3999 59.2C53.2599 59.46 53.0699 59.63 52.5699 59.63H41.3099H41.2799ZM19.3899 16.56C18.8399 16.56 18.3899 17.01 18.3899 17.56V29.62C18.3899 30.17 18.8399 30.62 19.3899 30.62H30.8099C32.9099 30.62 34.7099 29.94 36.1699 28.61C37.6499 27.26 38.3999 25.51 38.3999 23.43C38.3999 21.35 37.6499 19.64 36.1799 18.39C34.7599 17.18 32.9999 16.56 30.9699 16.56H19.3899Z" fill="#FC0B50"/>
<path d="M32.8701 7.10999C38.1601 7.10999 42.3101 8.58999 45.5801 11.65C48.8101 14.67 50.3801 18.26 50.3801 22.64C50.3801 24.33 50.1001 26.06 49.5601 27.79C49.0301 29.46 48.0001 31.22 46.4901 33.01C45.0201 34.76 43.2201 35.99 41.0101 36.77C40.4301 36.97 39.9801 37.43 39.7801 38.01C39.5801 38.59 39.6601 39.23 39.9901 39.74L52.1601 58.63H41.2701C40.4901 58.63 40.2501 58.49 40.2501 58.49C40.2201 58.47 39.9401 58.29 39.4801 57.52L28.6901 39.99C28.3301 39.4 27.6801 39.04 26.9901 39.04H19.3801C18.2801 39.04 17.3801 39.94 17.3801 41.04V58.63H7.1001V7.10999H32.8601M19.3901 31.62H30.8101C33.1701 31.62 35.2001 30.86 36.8401 29.35C38.5301 27.8 39.3901 25.81 39.3901 23.43C39.3901 21.05 38.5001 19.06 36.8201 17.62C35.2101 16.25 33.2401 15.56 30.9601 15.56H19.3801C18.2801 15.56 17.3801 16.46 17.3801 17.56V29.62C17.3801 30.72 18.2801 31.62 19.3801 31.62M32.8701 5.10999H7.09009C6.46009 5.10999 5.97009 5.30998 5.62009 5.69998C5.28009 6.09998 5.1001 6.52999 5.1001 7.00999V58.72C5.1001 59.99 5.76008 60.62 7.08008 60.62H17.3901C18.7101 60.62 19.3701 59.96 19.3701 58.64V41.03H26.9801L37.7701 58.56C38.2501 59.35 38.7201 59.9 39.2001 60.19C39.6801 60.48 40.3601 60.63 41.2601 60.63H52.5201C53.3101 60.63 53.8801 60.31 54.2301 59.68C54.5701 59.05 54.5101 58.44 54.0301 57.86L41.6601 38.67C44.2001 37.77 46.3101 36.32 48.0001 34.31C49.6901 32.3 50.8401 30.33 51.4501 28.4C52.0601 26.47 52.3601 24.55 52.3601 22.65C52.3601 17.73 50.5501 13.58 46.9301 10.2C43.3101 6.81998 38.6101 5.12 32.8501 5.12L32.8701 5.10999ZM19.3901 29.62V17.56H30.9701C32.7701 17.56 34.2901 18.09 35.5301 19.15C36.7701 20.21 37.3901 21.64 37.3901 23.43C37.3901 25.22 36.7601 26.71 35.4901 27.87C34.2201 29.03 32.6601 29.62 30.8101 29.62H19.3901Z" fill="#231F20"/>
<path d="M41.0001 59.34C40.1201 59.34 39.6701 59.18 39.4601 59.05C39.2301 58.91 38.8501 58.57 38.3701 57.76L27.5801 40.22C27.4001 39.92 27.0801 39.74 26.7301 39.74H19.1201C18.5701 39.74 18.1201 40.19 18.1201 40.74V58.35C18.1201 59.12 17.9101 59.33 17.1401 59.33H6.83008C5.98008 59.33 5.8501 59.06 5.8501 58.43V6.72C5.8501 6.57 5.88009 6.35001 6.12009 6.07001C6.18009 6.00001 6.34008 5.82001 6.83008 5.82001H32.6101C38.0801 5.82001 42.5901 7.44 46.0101 10.63C49.4501 13.85 51.1301 17.68 51.1301 22.35C51.1301 24.14 50.8401 25.97 50.2601 27.8C49.6901 29.6 48.6001 31.47 47.0001 33.36C45.4301 35.22 43.4401 36.59 41.0901 37.42C40.8001 37.52 40.5801 37.75 40.4801 38.04C40.3801 38.33 40.4201 38.65 40.5901 38.91L52.9601 58.1C52.9601 58.1 53.0001 58.16 53.0301 58.19C53.2801 58.49 53.2601 58.66 53.1201 58.91C52.9801 59.17 52.7901 59.34 52.2901 59.34H41.0301H41.0001ZM19.1001 16.28C18.5501 16.28 18.1001 16.73 18.1001 17.28V29.34C18.1001 29.89 18.5501 30.34 19.1001 30.34H30.5201C32.6201 30.34 34.4201 29.66 35.8801 28.33C37.3601 26.98 38.1101 25.23 38.1101 23.15C38.1101 21.07 37.3601 19.36 35.8901 18.11C34.4701 16.9 32.7101 16.28 30.6801 16.28H19.1001Z" fill="#FC0B50"/>
<path d="M32.5901 6.82001C37.8801 6.82001 42.03 8.3 45.3 11.36C48.53 14.38 50.1001 17.97 50.1001 22.35C50.1001 24.04 49.8201 25.77 49.2801 27.5C48.7501 29.17 47.7201 30.93 46.2101 32.72C44.7401 34.47 42.9401 35.7 40.7301 36.48C40.1501 36.68 39.7001 37.14 39.5001 37.72C39.3001 38.3 39.3801 38.94 39.7101 39.45L51.8801 58.34H40.9901C40.2101 58.34 39.9701 58.2 39.9701 58.2C39.9401 58.18 39.6601 58 39.2001 57.23L28.4101 39.7C28.0501 39.11 27.4001 38.75 26.7101 38.75H19.1001C18.0001 38.75 17.1001 39.65 17.1001 40.75V58.34H6.82007V6.82001H32.58M19.1001 31.33H30.5201C32.88 31.33 34.91 30.57 36.55 29.06C38.24 27.51 39.1001 25.52 39.1001 23.14C39.1001 20.76 38.2101 18.77 36.5301 17.33C34.9201 15.96 32.9501 15.27 30.6701 15.27H19.0901C17.9901 15.27 17.0901 16.17 17.0901 17.27V29.33C17.0901 30.43 17.9901 31.33 19.0901 31.33M32.5901 4.82001H6.81006C6.18006 4.82001 5.69006 5.02 5.34006 5.41C5.00006 5.81 4.82007 6.24 4.82007 6.72V58.43C4.82007 59.7 5.48005 60.33 6.80005 60.33H17.11C18.43 60.33 19.0901 59.67 19.0901 58.35V40.74H26.7001L37.4901 58.27C37.9701 59.06 38.4401 59.61 38.9201 59.9C39.4001 60.19 40.0801 60.34 40.9801 60.34H52.2401C53.0301 60.34 53.6001 60.02 53.9501 59.39C54.2901 58.76 54.2301 58.15 53.7501 57.57L41.3801 38.38C43.9201 37.48 46.0301 36.03 47.7201 34.02C49.4101 32.01 50.5601 30.04 51.1701 28.11C51.7801 26.18 52.08 24.26 52.08 22.36C52.08 17.44 50.2701 13.29 46.6501 9.91C43.0301 6.53 38.3301 4.83 32.5701 4.83L32.5901 4.82001ZM19.1001 29.33V17.27H30.6801C32.4801 17.27 34.0001 17.8 35.2401 18.86C36.4801 19.92 37.1001 21.35 37.1001 23.14C37.1001 24.93 36.4701 26.42 35.2001 27.58C33.9301 28.74 32.3701 29.33 30.5201 29.33H19.1001Z" fill="#231F20"/>
<path d="M40.7101 59.06C39.8301 59.06 39.3801 58.9 39.1701 58.77C38.9401 58.63 38.56 58.29 38.08 57.48L27.2901 39.94C27.1101 39.64 26.7901 39.46 26.4401 39.46H18.83C18.28 39.46 17.83 39.91 17.83 40.46V58.07C17.83 58.84 17.6201 59.05 16.8501 59.05H6.54007C5.69007 59.05 5.56006 58.78 5.56006 58.15V6.43997C5.56006 6.28997 5.59005 6.06998 5.83005 5.78998C5.89005 5.71998 6.05007 5.53998 6.54007 5.53998H32.3201C37.7901 5.53998 42.3001 7.15998 45.7201 10.35C49.1601 13.57 50.8401 17.4 50.8401 22.07C50.8401 23.86 50.5501 25.69 49.9701 27.52C49.4001 29.32 48.3101 31.19 46.7101 33.08C45.1401 34.94 43.15 36.31 40.8 37.14C40.51 37.24 40.2901 37.47 40.1901 37.76C40.0901 38.05 40.13 38.37 40.3 38.63L52.6701 57.82C52.6701 57.82 52.7101 57.88 52.7401 57.91C52.9901 58.21 52.97 58.38 52.83 58.63C52.69 58.89 52.5001 59.06 52.0001 59.06H40.7401H40.7101ZM18.8201 15.99C18.2701 15.99 17.8201 16.44 17.8201 16.99V29.05C17.8201 29.6 18.2701 30.05 18.8201 30.05H30.2401C32.3401 30.05 34.1401 29.37 35.6001 28.04C37.0801 26.69 37.83 24.94 37.83 22.86C37.83 20.78 37.08 19.07 35.61 17.82C34.19 16.61 32.4301 15.99 30.4001 15.99H18.8201Z" fill="#FC0B50"/>
<path d="M32.3 6.53998C37.59 6.53998 41.74 8.01997 45.01 11.08C48.24 14.1 49.81 17.69 49.81 22.07C49.81 23.76 49.53 25.49 48.99 27.22C48.46 28.89 47.43 30.65 45.92 32.44C44.45 34.19 42.65 35.42 40.44 36.2C39.86 36.4 39.41 36.86 39.21 37.44C39.01 38.02 39.09 38.66 39.42 39.17L51.59 58.06H40.7C39.92 58.06 39.68 57.92 39.68 57.92C39.65 57.9 39.37 57.72 38.91 56.95L28.12 39.42C27.76 38.83 27.11 38.47 26.42 38.47H18.81C17.71 38.47 16.81 39.37 16.81 40.47V58.06H6.53003V6.53998H32.29M18.82 31.05H30.24C32.6 31.05 34.63 30.29 36.27 28.78C37.96 27.23 38.82 25.24 38.82 22.86C38.82 20.48 37.93 18.49 36.25 17.05C34.64 15.68 32.67 14.99 30.39 14.99H18.81C17.71 14.99 16.81 15.89 16.81 16.99V29.05C16.81 30.15 17.71 31.05 18.81 31.05M32.3 4.53998H6.52002C5.89002 4.53998 5.40002 4.73997 5.05002 5.12997C4.71002 5.52997 4.53003 5.95997 4.53003 6.43997V58.15C4.53003 59.42 5.19004 60.05 6.51004 60.05H16.82C18.14 60.05 18.8 59.39 18.8 58.07V40.46H26.41L37.2 57.99C37.68 58.78 38.15 59.33 38.63 59.62C39.11 59.91 39.79 60.06 40.69 60.06H51.95C52.74 60.06 53.31 59.74 53.66 59.11C54 58.48 53.94 57.87 53.46 57.29L41.09 38.1C43.63 37.2 45.74 35.75 47.43 33.74C49.12 31.73 50.27 29.76 50.88 27.83C51.49 25.9 51.79 23.98 51.79 22.08C51.79 17.16 49.98 13.01 46.36 9.62997C42.74 6.24997 38.04 4.54997 32.28 4.54997L32.3 4.53998ZM18.82 29.05V16.99H30.4C32.2 16.99 33.72 17.52 34.96 18.58C36.2 19.64 36.82 21.07 36.82 22.86C36.82 24.65 36.19 26.14 34.92 27.3C33.65 28.46 32.09 29.05 30.24 29.05H18.82Z" fill="#231F20"/>
<path d="M40.43 58.78C39.55 58.78 39.1 58.62 38.89 58.49C38.66 58.35 38.28 58.01 37.8 57.2L27.01 39.66C26.83 39.36 26.51 39.18 26.16 39.18H18.55C18 39.18 17.55 39.63 17.55 40.18V57.79C17.55 58.56 17.34 58.77 16.57 58.77H6.26004C5.41004 58.77 5.28003 58.5 5.28003 57.87V6.16C5.28003 6.01 5.31002 5.79001 5.55002 5.51001C5.61002 5.44001 5.77004 5.26001 6.26004 5.26001H32.04C37.51 5.26001 42.02 6.88001 45.44 10.07C48.88 13.29 50.56 17.12 50.56 21.79C50.56 23.58 50.27 25.41 49.69 27.24C49.12 29.04 48.03 30.91 46.43 32.8C44.86 34.66 42.87 36.03 40.52 36.86C40.23 36.96 40.01 37.19 39.91 37.48C39.81 37.77 39.85 38.09 40.02 38.35L52.39 57.54C52.39 57.54 52.43 57.6 52.46 57.63C52.71 57.93 52.69 58.1 52.55 58.35C52.41 58.61 52.22 58.78 51.72 58.78H40.46H40.43ZM18.54 15.71C17.99 15.71 17.54 16.16 17.54 16.71V28.77C17.54 29.32 17.99 29.77 18.54 29.77H29.96C32.06 29.77 33.86 29.09 35.32 27.76C36.8 26.41 37.55 24.66 37.55 22.58C37.55 20.5 36.8 18.79 35.33 17.54C33.91 16.33 32.15 15.71 30.12 15.71H18.54Z" fill="#FC0B50"/>
<path d="M32.02 6.26001C37.31 6.26001 41.46 7.74 44.73 10.8C47.96 13.82 49.53 17.41 49.53 21.79C49.53 23.48 49.25 25.21 48.71 26.94C48.18 28.61 47.15 30.37 45.64 32.16C44.17 33.91 42.37 35.14 40.16 35.92C39.58 36.12 39.13 36.58 38.93 37.16C38.73 37.74 38.81 38.38 39.14 38.89L51.31 57.78H40.42C39.64 57.78 39.4 57.64 39.4 57.64C39.37 57.62 39.09 57.44 38.63 56.67L27.84 39.14C27.48 38.55 26.83 38.19 26.14 38.19H18.53C17.43 38.19 16.53 39.09 16.53 40.19V57.78H6.25V6.26001H32.01M18.54 30.76H29.96C32.32 30.76 34.35 30 35.99 28.49C37.68 26.94 38.54 24.95 38.54 22.57C38.54 20.19 37.65 18.2 35.97 16.76C34.36 15.39 32.39 14.7 30.11 14.7H18.53C17.43 14.7 16.53 15.6 16.53 16.7V28.76C16.53 29.86 17.43 30.76 18.53 30.76M32.02 4.26001H6.23999C5.60999 4.26001 5.11999 4.46001 4.76999 4.85001C4.42999 5.25001 4.25 5.68 4.25 6.16V57.87C4.25 59.14 4.91001 59.77 6.23001 59.77H16.54C17.86 59.77 18.52 59.11 18.52 57.79V40.18H26.13L36.92 57.71C37.4 58.5 37.87 59.05 38.35 59.34C38.83 59.63 39.51 59.78 40.41 59.78H51.67C52.46 59.78 53.03 59.46 53.38 58.83C53.72 58.2 53.66 57.59 53.18 57.01L40.81 37.82C43.35 36.92 45.46 35.47 47.15 33.46C48.84 31.45 49.99 29.48 50.6 27.55C51.21 25.62 51.51 23.7 51.51 21.8C51.51 16.88 49.7 12.73 46.08 9.35001C42.46 5.97001 37.76 4.27 32 4.27L32.02 4.26001ZM18.54 28.76V16.7H30.12C31.92 16.7 33.44 17.23 34.68 18.29C35.92 19.35 36.54 20.78 36.54 22.57C36.54 24.36 35.91 25.85 34.64 27.01C33.37 28.17 31.81 28.76 29.96 28.76H18.54Z" fill="#231F20"/>
<path d="M40.15 58.49C39.27 58.49 38.82 58.33 38.61 58.2C38.38 58.06 38 57.72 37.52 56.91L26.73 39.37C26.55 39.07 26.23 38.89 25.88 38.89H18.27C17.72 38.89 17.27 39.34 17.27 39.89V57.5C17.27 58.27 17.06 58.48 16.29 58.48H5.98001C5.13001 58.48 5 58.21 5 57.58V5.87004C5 5.72004 5.02999 5.50003 5.26999 5.22003C5.32999 5.15003 5.49001 4.97003 5.98001 4.97003H31.76C37.23 4.97003 41.74 6.59003 45.16 9.78003C48.6 13 50.28 16.83 50.28 21.5C50.28 23.29 49.99 25.12 49.41 26.95C48.84 28.75 47.75 30.62 46.15 32.51C44.58 34.37 42.59 35.74 40.24 36.57C39.95 36.67 39.73 36.9 39.63 37.19C39.53 37.48 39.57 37.8 39.74 38.06L52.11 57.25C52.11 57.25 52.15 57.31 52.18 57.34C52.43 57.64 52.41 57.81 52.27 58.06C52.13 58.32 51.94 58.49 51.44 58.49H40.18H40.15ZM18.25 15.43C17.7 15.43 17.25 15.88 17.25 16.43V28.49C17.25 29.04 17.7 29.49 18.25 29.49H29.67C31.77 29.49 33.57 28.81 35.03 27.48C36.51 26.13 37.26 24.38 37.26 22.3C37.26 20.22 36.51 18.51 35.04 17.26C33.62 16.05 31.86 15.43 29.83 15.43H18.25Z" fill="#FC0B50"/>
<path d="M31.74 5.97003C37.03 5.97003 41.18 7.45004 44.45 10.51C47.68 13.53 49.25 17.12 49.25 21.5C49.25 23.19 48.97 24.92 48.43 26.65C47.9 28.32 46.87 30.08 45.36 31.87C43.89 33.62 42.09 34.85 39.88 35.63C39.3 35.83 38.85 36.29 38.65 36.87C38.45 37.45 38.53 38.09 38.86 38.6L51.03 57.49H40.14C39.36 57.49 39.12 57.35 39.12 57.35C39.09 57.33 38.81 57.15 38.35 56.38L27.56 38.85C27.2 38.26 26.55 37.9 25.86 37.9H18.25C17.15 37.9 16.25 38.8 16.25 39.9V57.49H5.96997V5.97003H31.73M18.25 30.48H29.67C32.03 30.48 34.06 29.72 35.7 28.21C37.39 26.66 38.25 24.67 38.25 22.29C38.25 19.91 37.36 17.92 35.68 16.48C34.07 15.11 32.1 14.42 29.82 14.42H18.24C17.14 14.42 16.24 15.32 16.24 16.42V28.48C16.24 29.58 17.14 30.48 18.24 30.48M31.74 3.97003H5.95996C5.32996 3.97003 4.83996 4.17003 4.48996 4.56003C4.14996 4.96003 3.96997 5.39004 3.96997 5.87004V57.58C3.96997 58.85 4.62998 59.48 5.94998 59.48H16.26C17.58 59.48 18.24 58.82 18.24 57.5V39.89H25.85L36.64 57.42C37.12 58.21 37.59 58.76 38.07 59.05C38.55 59.34 39.23 59.49 40.13 59.49H51.39C52.18 59.49 52.75 59.17 53.1 58.54C53.44 57.91 53.38 57.3 52.9 56.72L40.53 37.53C43.07 36.63 45.18 35.18 46.87 33.17C48.56 31.16 49.71 29.19 50.32 27.26C50.93 25.33 51.23 23.41 51.23 21.51C51.23 16.59 49.42 12.44 45.8 9.06003C42.18 5.68003 37.48 3.98003 31.72 3.98003L31.74 3.97003ZM18.25 28.48V16.42H29.83C31.63 16.42 33.15 16.95 34.39 18.01C35.63 19.07 36.25 20.5 36.25 22.29C36.25 24.08 35.62 25.57 34.35 26.73C33.08 27.89 31.52 28.48 29.67 28.48H18.25Z" fill="#231F20"/>
<path d="M39.86 58.21C38.98 58.21 38.53 58.05 38.32 57.92C38.09 57.78 37.71 57.44 37.23 56.63L26.44 39.09C26.26 38.79 25.94 38.61 25.59 38.61H17.98C17.43 38.61 16.98 39.06 16.98 39.61V57.22C16.98 57.99 16.77 58.2 16 58.2H5.68997C4.83997 58.2 4.70996 57.93 4.70996 57.3V5.59C4.70996 5.44 4.73998 5.22 4.97998 4.94C5.03998 4.87 5.19997 4.69 5.68997 4.69H31.47C36.94 4.69 41.45 6.31 44.87 9.5C48.31 12.72 49.99 16.55 49.99 21.22C49.99 23.01 49.7 24.84 49.12 26.67C48.55 28.47 47.46 30.34 45.86 32.23C44.29 34.09 42.3 35.46 39.95 36.29C39.66 36.39 39.44 36.62 39.34 36.91C39.24 37.2 39.28 37.52 39.45 37.78L51.82 56.97C51.82 56.97 51.86 57.03 51.89 57.06C52.14 57.36 52.12 57.53 51.98 57.78C51.84 58.04 51.65 58.21 51.15 58.21H39.89H39.86ZM17.97 15.14C17.42 15.14 16.97 15.59 16.97 16.14V28.2C16.97 28.75 17.42 29.2 17.97 29.2H29.39C31.49 29.2 33.29 28.52 34.75 27.19C36.23 25.84 36.98 24.09 36.98 22.01C36.98 19.93 36.23 18.22 34.76 16.97C33.34 15.76 31.58 15.14 29.55 15.14H17.97Z" fill="#FC0B50"/>
<path d="M31.45 5.69C36.74 5.69 40.8899 7.17 44.1599 10.23C47.3899 13.25 48.9599 16.84 48.9599 21.22C48.9599 22.91 48.68 24.64 48.14 26.37C47.61 28.04 46.5799 29.8 45.0699 31.59C43.5999 33.34 41.7999 34.57 39.5899 35.35C39.0099 35.55 38.5599 36.01 38.3599 36.59C38.1599 37.17 38.2399 37.81 38.5699 38.32L50.7399 57.21H39.8499C39.0699 57.21 38.8299 57.07 38.8299 57.07C38.7999 57.05 38.5199 56.87 38.0599 56.1L27.2699 38.57C26.9099 37.98 26.2599 37.62 25.5699 37.62H17.9599C16.8599 37.62 15.9599 38.52 15.9599 39.62V57.21H5.67993V5.69H31.4399M17.9699 30.2H29.39C31.75 30.2 33.78 29.44 35.42 27.93C37.11 26.38 37.9699 24.39 37.9699 22.01C37.9699 19.63 37.0799 17.64 35.3999 16.2C33.7899 14.83 31.8199 14.14 29.5399 14.14H17.9599C16.8599 14.14 15.9599 15.04 15.9599 16.14V28.2C15.9599 29.3 16.8599 30.2 17.9599 30.2M31.45 3.69H5.66995C5.03995 3.69 4.54995 3.89 4.19995 4.28C3.85995 4.68 3.67993 5.11 3.67993 5.59V57.3C3.67993 58.57 4.33994 59.2 5.65994 59.2H15.9699C17.2899 59.2 17.95 58.54 17.95 57.22V39.61H25.5599L36.3499 57.14C36.8299 57.93 37.2999 58.48 37.7799 58.77C38.2599 59.06 38.9399 59.21 39.8399 59.21H51.0999C51.8899 59.21 52.4599 58.89 52.8099 58.26C53.1499 57.63 53.0899 57.02 52.6099 56.44L40.2399 37.25C42.7799 36.35 44.8899 34.9 46.5799 32.89C48.2699 30.88 49.4199 28.91 50.0299 26.98C50.6399 25.05 50.9399 23.13 50.9399 21.23C50.9399 16.31 49.1299 12.16 45.5099 8.78C41.8899 5.4 37.1899 3.7 31.4299 3.7L31.45 3.69ZM17.9699 28.2V16.14H29.5499C31.3499 16.14 32.8699 16.67 34.1099 17.73C35.3499 18.79 35.9699 20.22 35.9699 22.01C35.9699 23.8 35.3399 25.29 34.0699 26.45C32.7999 27.61 31.24 28.2 29.39 28.2H17.9699Z" fill="#231F20"/>
<path d="M39.5799 57.93C38.6999 57.93 38.2499 57.77 38.0399 57.64C37.8099 57.5 37.43 57.16 36.95 56.35L26.1599 38.81C25.9799 38.51 25.6599 38.33 25.3099 38.33H17.7C17.15 38.33 16.7 38.78 16.7 39.33V56.94C16.7 57.71 16.4899 57.92 15.7199 57.92H5.40994C4.55994 57.92 4.42993 57.65 4.42993 57.02V5.30997C4.42993 5.15997 4.45995 4.93997 4.69995 4.65997C4.75995 4.58997 4.91994 4.40997 5.40994 4.40997H31.1899C36.6599 4.40997 41.1699 6.02997 44.5899 9.21997C48.0299 12.44 49.7099 16.27 49.7099 20.94C49.7099 22.73 49.4199 24.56 48.8399 26.39C48.2699 28.19 47.1799 30.06 45.5799 31.95C44.0099 33.81 42.02 35.18 39.67 36.01C39.38 36.11 39.1599 36.34 39.0599 36.63C38.9599 36.92 39 37.24 39.17 37.5L51.5399 56.69C51.5399 56.69 51.5799 56.75 51.6099 56.78C51.8599 57.08 51.84 57.25 51.7 57.5C51.56 57.76 51.3699 57.93 50.8699 57.93H39.6099H39.5799ZM17.6899 14.86C17.1399 14.86 16.6899 15.31 16.6899 15.86V27.92C16.6899 28.47 17.1399 28.92 17.6899 28.92H29.1099C31.2099 28.92 33.0099 28.24 34.4699 26.91C35.9499 25.56 36.7 23.81 36.7 21.73C36.7 19.65 35.9499 17.94 34.4799 16.69C33.0599 15.48 31.2999 14.86 29.2699 14.86H17.6899Z" fill="#FC0B50"/>
<path d="M31.1699 5.40997C36.4599 5.40997 40.6099 6.88997 43.8799 9.94997C47.1099 12.97 48.6799 16.56 48.6799 20.94C48.6799 22.63 48.3999 24.36 47.8599 26.09C47.3299 27.76 46.2999 29.52 44.7899 31.31C43.3199 33.06 41.5199 34.29 39.3099 35.07C38.7299 35.27 38.2799 35.73 38.0799 36.31C37.8799 36.89 37.9599 37.53 38.2899 38.04L50.4599 56.93H39.5699C38.7899 56.93 38.5499 56.79 38.5499 56.79C38.5199 56.77 38.2399 56.59 37.7799 55.82L26.9899 38.29C26.6299 37.7 25.9799 37.34 25.2899 37.34H17.6799C16.5799 37.34 15.6799 38.24 15.6799 39.34V56.93H5.3999V5.40997H31.1599M17.6899 29.91H29.1099C31.4699 29.91 33.4999 29.15 35.1399 27.64C36.8299 26.09 37.6899 24.1 37.6899 21.72C37.6899 19.34 36.7999 17.35 35.1199 15.91C33.5099 14.54 31.5399 13.85 29.2599 13.85H17.6799C16.5799 13.85 15.6799 14.75 15.6799 15.85V27.91C15.6799 29.01 16.5799 29.91 17.6799 29.91M31.1699 3.40997H5.38992C4.75992 3.40997 4.26992 3.60997 3.91992 3.99997C3.57992 4.39997 3.3999 4.82997 3.3999 5.30997V57.02C3.3999 58.29 4.05991 58.92 5.37991 58.92H15.6899C17.0099 58.92 17.6699 58.26 17.6699 56.94V39.33H25.2799L36.0699 56.86C36.5499 57.65 37.0199 58.2 37.4999 58.49C37.9799 58.78 38.6599 58.93 39.5599 58.93H50.8199C51.6099 58.93 52.1799 58.61 52.5299 57.98C52.8699 57.35 52.8099 56.74 52.3299 56.16L39.9599 36.97C42.4999 36.07 44.6099 34.62 46.2999 32.61C47.9899 30.6 49.1399 28.63 49.7499 26.7C50.3599 24.77 50.6599 22.85 50.6599 20.95C50.6599 16.03 48.8499 11.88 45.2299 8.49997C41.6099 5.11997 36.9099 3.41997 31.1499 3.41997L31.1699 3.40997ZM17.6899 27.91V15.85H29.2699C31.0699 15.85 32.5899 16.38 33.8299 17.44C35.0699 18.5 35.6899 19.93 35.6899 21.72C35.6899 23.51 35.0599 25 33.7899 26.16C32.5199 27.32 30.9599 27.91 29.1099 27.91H17.6899Z" fill="#231F20"/>
<path d="M39.2901 57.64C38.4101 57.64 37.9601 57.48 37.7501 57.35C37.5201 57.21 37.1401 56.87 36.6601 56.06L25.8701 38.52C25.6901 38.22 25.3701 38.04 25.0201 38.04H17.4101C16.8601 38.04 16.4101 38.49 16.4101 39.04V56.65C16.4101 57.42 16.2001 57.63 15.4301 57.63H5.12012C4.27012 57.63 4.14014 57.36 4.14014 56.73V5.01999C4.14014 4.86999 4.17013 4.65 4.41013 4.37C4.47013 4.3 4.63012 4.12 5.12012 4.12H30.9001C36.3701 4.12 40.8801 5.73999 44.3001 8.92999C47.7401 12.15 49.4201 15.98 49.4201 20.65C49.4201 22.44 49.1301 24.27 48.5501 26.1C47.9801 27.9 46.8901 29.77 45.2901 31.66C43.7201 33.52 41.7301 34.89 39.3801 35.72C39.0901 35.82 38.8701 36.05 38.7701 36.34C38.6701 36.63 38.7101 36.95 38.8801 37.21L51.2501 56.4C51.2501 56.4 51.2901 56.46 51.3201 56.49C51.5701 56.79 51.5501 56.96 51.4101 57.21C51.2701 57.47 51.0801 57.64 50.5801 57.64H39.3201H39.2901ZM17.4001 14.57C16.8501 14.57 16.4001 15.02 16.4001 15.57V27.63C16.4001 28.18 16.8501 28.63 17.4001 28.63H28.8201C30.9201 28.63 32.7201 27.95 34.1801 26.62C35.6601 25.27 36.4101 23.52 36.4101 21.44C36.4101 19.36 35.6601 17.65 34.1901 16.4C32.7701 15.19 31.0101 14.57 28.9801 14.57H17.4001Z" fill="#FC0B50"/>
<path d="M30.8901 5.12C36.1801 5.12 40.3301 6.59999 43.6001 9.65999C46.8301 12.68 48.4001 16.27 48.4001 20.65C48.4001 22.34 48.1201 24.07 47.5801 25.8C47.0501 27.47 46.0201 29.23 44.5101 31.02C43.0401 32.77 41.2401 34 39.0301 34.78C38.4501 34.98 38.0001 35.44 37.8001 36.02C37.6001 36.6 37.6801 37.24 38.0101 37.75L50.1801 56.64H39.2901C38.5101 56.64 38.2701 56.5 38.2701 56.5C38.2401 56.48 37.9601 56.3 37.5001 55.53L26.7101 38C26.3501 37.41 25.7001 37.05 25.0101 37.05H17.4001C16.3001 37.05 15.4001 37.95 15.4001 39.05V56.64H5.12012V5.12H30.8801M17.4001 29.63H28.8201C31.1801 29.63 33.2101 28.87 34.8501 27.36C36.5401 25.81 37.4001 23.82 37.4001 21.44C37.4001 19.06 36.5101 17.07 34.8301 15.63C33.2201 14.26 31.2501 13.57 28.9701 13.57H17.3901C16.2901 13.57 15.3901 14.47 15.3901 15.57V27.63C15.3901 28.73 16.2901 29.63 17.3901 29.63M30.8901 3.12H5.11011C4.48011 3.12 3.99014 3.31999 3.64014 3.70999C3.30014 4.10999 3.12012 4.53999 3.12012 5.01999V56.73C3.12012 58 3.78013 58.63 5.10013 58.63H15.4101C16.7301 58.63 17.3901 57.97 17.3901 56.65V39.04H25.0001L35.7901 56.57C36.2701 57.36 36.7401 57.91 37.2201 58.2C37.7001 58.49 38.3801 58.64 39.2801 58.64H50.5401C51.3301 58.64 51.9001 58.32 52.2501 57.69C52.5901 57.06 52.5301 56.45 52.0501 55.87L39.6801 36.68C42.2201 35.78 44.3301 34.33 46.0201 32.32C47.7101 30.31 48.8601 28.34 49.4701 26.41C50.0801 24.48 50.3801 22.56 50.3801 20.66C50.3801 15.74 48.5701 11.59 44.9501 8.20999C41.3301 4.82999 36.6301 3.12999 30.8701 3.12999L30.8901 3.12ZM17.4001 27.63V15.57H28.9801C30.7801 15.57 32.3001 16.1 33.5401 17.16C34.7801 18.22 35.4001 19.65 35.4001 21.44C35.4001 23.23 34.7701 24.72 33.5001 25.88C32.2301 27.04 30.6701 27.63 28.8201 27.63H17.4001Z" fill="#231F20"/>
<path d="M39.0099 57.36C38.1299 57.36 37.6799 57.2 37.4699 57.07C37.2399 56.93 36.8599 56.59 36.3799 55.78L25.5899 38.24C25.4099 37.94 25.0899 37.76 24.7399 37.76H17.1299C16.5799 37.76 16.1299 38.21 16.1299 38.76V56.37C16.1299 57.14 15.9199 57.35 15.1499 57.35H4.83987C3.98987 57.35 3.85986 57.08 3.85986 56.45V4.74004C3.85986 4.59004 3.88988 4.37003 4.12988 4.09003C4.18988 4.02003 4.34987 3.84003 4.83987 3.84003H30.6199C36.0899 3.84003 40.5999 5.46004 44.0199 8.65004C47.4599 11.87 49.1399 15.7 49.1399 20.37C49.1399 22.16 48.8499 23.99 48.2699 25.82C47.6999 27.62 46.6099 29.49 45.0099 31.38C43.4399 33.24 41.4499 34.61 39.0999 35.44C38.8099 35.54 38.5899 35.77 38.4899 36.06C38.3899 36.35 38.4299 36.67 38.5999 36.93L50.9699 56.12C50.9699 56.12 51.0099 56.18 51.0399 56.21C51.2899 56.51 51.2699 56.68 51.1299 56.93C50.9899 57.19 50.7999 57.36 50.2999 57.36H39.0399H39.0099ZM17.1199 14.29C16.5699 14.29 16.1199 14.74 16.1199 15.29V27.35C16.1199 27.9 16.5699 28.35 17.1199 28.35H28.5399C30.6399 28.35 32.4399 27.67 33.8999 26.34C35.3799 24.99 36.1299 23.24 36.1299 21.16C36.1299 19.08 35.3799 17.37 33.9099 16.12C32.4899 14.91 30.7299 14.29 28.6999 14.29H17.1199Z" fill="#FC0B50"/>
<path d="M30.6001 4.84003C35.8901 4.84003 40.0401 6.32004 43.3101 9.38004C46.5401 12.4 48.1101 15.99 48.1101 20.37C48.1101 22.06 47.8301 23.79 47.2901 25.52C46.7601 27.19 45.7301 28.95 44.2201 30.74C42.7501 32.49 40.9501 33.72 38.7401 34.5C38.1601 34.7 37.7101 35.16 37.5101 35.74C37.3101 36.32 37.3901 36.96 37.7201 37.47L49.8901 56.36H39.0001C38.2201 56.36 37.9801 56.22 37.9801 56.22C37.9501 56.2 37.6701 56.02 37.2101 55.25L26.4201 37.72C26.0601 37.13 25.4101 36.77 24.7201 36.77H17.1101C16.0101 36.77 15.1101 37.67 15.1101 38.77V56.36H4.83008V4.84003H30.5901M17.1201 29.35H28.5401C30.9001 29.35 32.9301 28.59 34.5701 27.08C36.2601 25.53 37.1201 23.54 37.1201 21.16C37.1201 18.78 36.2301 16.79 34.5501 15.35C32.9401 13.98 30.9701 13.29 28.6901 13.29H17.1101C16.0101 13.29 15.1101 14.19 15.1101 15.29V27.35C15.1101 28.45 16.0101 29.35 17.1101 29.35M30.6001 2.84003H4.8201C4.1901 2.84003 3.7001 3.04004 3.3501 3.43004C3.0101 3.83004 2.83008 4.26004 2.83008 4.74004V56.45C2.83008 57.72 3.49009 58.35 4.81009 58.35H15.1201C16.4401 58.35 17.1001 57.69 17.1001 56.37V38.76H24.7101L35.5001 56.29C35.9801 57.08 36.4501 57.63 36.9301 57.92C37.4101 58.21 38.0901 58.36 38.9901 58.36H50.2501C51.0401 58.36 51.6101 58.04 51.9601 57.41C52.3001 56.78 52.2401 56.17 51.7601 55.59L39.3901 36.4C41.9301 35.5 44.0401 34.05 45.7301 32.04C47.4201 30.03 48.5701 28.06 49.1801 26.13C49.7901 24.2 50.0901 22.28 50.0901 20.38C50.0901 15.46 48.2801 11.31 44.6601 7.93004C41.0401 4.55004 36.3401 2.85004 30.5801 2.85004L30.6001 2.84003ZM17.1201 27.35V15.29H28.7001C30.5001 15.29 32.0201 15.82 33.2601 16.88C34.5001 17.94 35.1201 19.37 35.1201 21.16C35.1201 22.95 34.4901 24.44 33.2201 25.6C31.9501 26.76 30.3901 27.35 28.5401 27.35H17.1201Z" fill="#231F20"/>
<path d="M38.7301 57.08C37.8501 57.08 37.4001 56.92 37.1901 56.79C36.9601 56.65 36.5801 56.31 36.1001 55.5L25.3101 37.96C25.1301 37.66 24.8101 37.48 24.4601 37.48H16.8501C16.3001 37.48 15.8501 37.93 15.8501 38.48V56.09C15.8501 56.86 15.6401 57.07 14.8701 57.07H4.56009C3.71009 57.07 3.58008 56.8 3.58008 56.17V4.46001C3.58008 4.31001 3.6101 4.09 3.8501 3.81C3.9101 3.74 4.07009 3.56 4.56009 3.56H30.3401C35.8101 3.56 40.3201 5.18001 43.7401 8.37001C47.1801 11.59 48.8601 15.42 48.8601 20.09C48.8601 21.88 48.5701 23.71 47.9901 25.54C47.4201 27.34 46.3301 29.21 44.7301 31.1C43.1601 32.96 41.1701 34.33 38.8201 35.16C38.5301 35.26 38.3101 35.49 38.2101 35.78C38.1101 36.07 38.1501 36.39 38.3201 36.65L50.6901 55.84C50.6901 55.84 50.7301 55.9 50.7601 55.93C51.0101 56.23 50.9901 56.4 50.8501 56.65C50.7101 56.91 50.5201 57.08 50.0201 57.08H38.7601H38.7301ZM16.8401 14.01C16.2901 14.01 15.8401 14.46 15.8401 15.01V27.07C15.8401 27.62 16.2901 28.07 16.8401 28.07H28.2601C30.3601 28.07 32.1601 27.39 33.6201 26.06C35.1001 24.71 35.8501 22.96 35.8501 20.88C35.8501 18.8 35.1001 17.09 33.6301 15.84C32.2101 14.63 30.4501 14.01 28.4201 14.01H16.8401Z" fill="#FC0B50"/>
<path d="M30.3201 4.56C35.6101 4.56 39.7601 6.04001 43.0301 9.10001C46.2601 12.12 47.83 15.71 47.83 20.09C47.83 21.78 47.5501 23.51 47.0101 25.24C46.4801 26.91 45.4501 28.67 43.9401 30.46C42.4701 32.21 40.6701 33.44 38.4601 34.22C37.8801 34.42 37.4301 34.88 37.2301 35.46C37.0301 36.04 37.1101 36.68 37.4401 37.19L49.61 56.08H38.7201C37.9401 56.08 37.7001 55.94 37.7001 55.94C37.6701 55.92 37.3901 55.74 36.9301 54.97L26.1401 37.44C25.7801 36.85 25.1301 36.49 24.4401 36.49H16.83C15.73 36.49 14.83 37.39 14.83 38.49V56.08H4.55005V4.56H30.3101M16.8401 29.06H28.2601C30.6201 29.06 32.6501 28.3 34.2901 26.79C35.9801 25.24 36.8401 23.25 36.8401 20.87C36.8401 18.49 35.95 16.5 34.2701 15.06C32.6601 13.69 30.6901 13 28.4101 13H16.83C15.73 13 14.83 13.9 14.83 15V27.06C14.83 28.16 15.73 29.06 16.83 29.06M30.3201 2.56H4.54007C3.91007 2.56 3.42007 2.76001 3.07007 3.15001C2.73007 3.55001 2.55005 3.98001 2.55005 4.46001V56.17C2.55005 57.44 3.21006 58.07 4.53006 58.07H14.8401C16.1601 58.07 16.8201 57.41 16.8201 56.09V38.48H24.4301L35.2201 56.01C35.7001 56.8 36.1701 57.35 36.6501 57.64C37.1301 57.93 37.8101 58.08 38.7101 58.08H49.9701C50.7601 58.08 51.3301 57.76 51.6801 57.13C52.0201 56.5 51.9601 55.89 51.4801 55.31L39.11 36.12C41.65 35.22 43.7601 33.77 45.4501 31.76C47.1401 29.75 48.2901 27.78 48.9001 25.85C49.5101 23.92 49.8101 22 49.8101 20.1C49.8101 15.18 48.0001 11.03 44.3801 7.65001C40.7601 4.27001 36.06 2.57001 30.3 2.57001L30.3201 2.56ZM16.8401 27.06V15H28.4201C30.2201 15 31.7401 15.53 32.9801 16.59C34.2201 17.65 34.8401 19.08 34.8401 20.87C34.8401 22.66 34.2101 24.15 32.9401 25.31C31.6701 26.47 30.1101 27.06 28.2601 27.06H16.8401Z" fill="#231F20"/>
<path d="M38.44 56.79C37.56 56.79 37.11 56.63 36.9 56.5C36.67 56.36 36.29 56.02 35.81 55.21L25.02 37.67C24.84 37.37 24.52 37.19 24.17 37.19H16.56C16.01 37.19 15.56 37.64 15.56 38.19V55.8C15.56 56.57 15.35 56.78 14.58 56.78H4.27002C3.42002 56.78 3.29004 56.51 3.29004 55.88V4.17001C3.29004 4.02001 3.32003 3.80002 3.56003 3.52002C3.62003 3.45002 3.78002 3.27002 4.27002 3.27002H30.05C35.52 3.27002 40.03 4.89002 43.45 8.08002C46.89 11.3 48.57 15.13 48.57 19.8C48.57 21.59 48.28 23.42 47.7 25.25C47.13 27.05 46.04 28.92 44.44 30.81C42.87 32.67 40.88 34.04 38.53 34.87C38.24 34.97 38.02 35.2 37.92 35.49C37.82 35.78 37.86 36.1 38.03 36.36L50.4 55.55C50.4 55.55 50.44 55.61 50.47 55.64C50.72 55.94 50.7 56.11 50.56 56.36C50.42 56.62 50.23 56.79 49.73 56.79H38.47H38.44ZM16.55 13.72C16 13.72 15.55 14.17 15.55 14.72V26.78C15.55 27.33 16 27.78 16.55 27.78H27.97C30.07 27.78 31.87 27.1 33.33 25.77C34.81 24.42 35.56 22.67 35.56 20.59C35.56 18.51 34.81 16.8 33.34 15.55C31.92 14.34 30.16 13.72 28.13 13.72H16.55Z" fill="#FC0B50"/>
<path d="M30.04 4.27002C35.33 4.27002 39.48 5.75001 42.75 8.81001C45.98 11.83 47.55 15.42 47.55 19.8C47.55 21.49 47.27 23.22 46.73 24.95C46.2 26.62 45.17 28.38 43.66 30.17C42.19 31.92 40.39 33.15 38.18 33.93C37.6 34.13 37.15 34.59 36.95 35.17C36.75 35.75 36.83 36.39 37.16 36.9L49.33 55.79H38.44C37.66 55.79 37.42 55.65 37.42 55.65C37.39 55.63 37.11 55.45 36.65 54.68L25.86 37.15C25.5 36.56 24.85 36.2 24.16 36.2H16.55C15.45 36.2 14.55 37.1 14.55 38.2V55.79H4.27002V4.27002H30.03M16.55 28.78H27.97C30.33 28.78 32.36 28.02 34 26.51C35.69 24.96 36.55 22.97 36.55 20.59C36.55 18.21 35.66 16.22 33.98 14.78C32.37 13.41 30.4 12.72 28.12 12.72H16.54C15.44 12.72 14.54 13.62 14.54 14.72V26.78C14.54 27.88 15.44 28.78 16.54 28.78M30.04 2.27002H4.26004C3.63004 2.27002 3.14004 2.47002 2.79004 2.86002C2.45004 3.26002 2.27002 3.69001 2.27002 4.17001V55.88C2.27002 57.15 2.93003 57.78 4.25003 57.78H14.56C15.88 57.78 16.54 57.12 16.54 55.8V38.19H24.15L34.94 55.72C35.42 56.51 35.89 57.06 36.37 57.35C36.85 57.64 37.53 57.79 38.43 57.79H49.69C50.48 57.79 51.05 57.47 51.4 56.84C51.74 56.21 51.68 55.6 51.2 55.02L38.83 35.83C41.37 34.93 43.48 33.48 45.17 31.47C46.86 29.46 48.01 27.49 48.62 25.56C49.23 23.63 49.53 21.71 49.53 19.81C49.53 14.89 47.72 10.74 44.1 7.36002C40.48 3.98002 35.78 2.28001 30.02 2.28001L30.04 2.27002ZM16.55 26.78V14.72H28.13C29.93 14.72 31.45 15.25 32.69 16.31C33.93 17.37 34.55 18.8 34.55 20.59C34.55 22.38 33.92 23.87 32.65 25.03C31.38 26.19 29.82 26.78 27.97 26.78H16.55Z" fill="#231F20"/>
<path d="M38.16 56.51C37.28 56.51 36.83 56.35 36.62 56.22C36.39 56.08 36.01 55.74 35.53 54.93L24.74 37.39C24.56 37.09 24.24 36.91 23.89 36.91H16.28C15.73 36.91 15.28 37.36 15.28 37.91V55.52C15.28 56.29 15.07 56.5 14.3 56.5H3.98999C3.13999 56.5 3.01001 56.23 3.01001 55.6V3.88998C3.01001 3.73998 3.04 3.51999 3.28 3.23999C3.34 3.16999 3.49999 2.98999 3.98999 2.98999H29.77C35.24 2.98999 39.75 4.60999 43.17 7.79999C46.61 11.02 48.29 14.85 48.29 19.52C48.29 21.31 48 23.14 47.42 24.97C46.85 26.77 45.76 28.64 44.16 30.53C42.59 32.39 40.6 33.76 38.25 34.59C37.96 34.69 37.74 34.92 37.64 35.21C37.54 35.5 37.58 35.82 37.75 36.08L50.12 55.27C50.12 55.27 50.16 55.33 50.19 55.36C50.44 55.66 50.42 55.83 50.28 56.08C50.14 56.34 49.95 56.51 49.45 56.51H38.19H38.16ZM16.27 13.44C15.72 13.44 15.27 13.89 15.27 14.44V26.5C15.27 27.05 15.72 27.5 16.27 27.5H27.69C29.79 27.5 31.59 26.82 33.05 25.49C34.53 24.14 35.28 22.39 35.28 20.31C35.28 18.23 34.53 16.52 33.06 15.27C31.64 14.06 29.88 13.44 27.85 13.44H16.27Z" fill="#FC0B50"/>
<path d="M29.75 3.98999C35.04 3.98999 39.19 5.46998 42.46 8.52998C45.69 11.55 47.26 15.14 47.26 19.52C47.26 21.21 46.98 22.94 46.44 24.67C45.91 26.34 44.88 28.1 43.37 29.89C41.9 31.64 40.1 32.87 37.89 33.65C37.31 33.85 36.86 34.31 36.66 34.89C36.46 35.47 36.54 36.11 36.87 36.62L49.04 55.51H38.15C37.37 55.51 37.13 55.37 37.13 55.37C37.1 55.35 36.82 55.17 36.36 54.4L25.57 36.87C25.21 36.28 24.56 35.92 23.87 35.92H16.26C15.16 35.92 14.26 36.82 14.26 37.92V55.51H3.97998V3.98999H29.74M16.27 28.5H27.69C30.05 28.5 32.08 27.74 33.72 26.23C35.41 24.68 36.27 22.69 36.27 20.31C36.27 17.93 35.38 15.94 33.7 14.5C32.09 13.13 30.12 12.44 27.84 12.44H16.26C15.16 12.44 14.26 13.34 14.26 14.44V26.5C14.26 27.6 15.16 28.5 16.26 28.5M29.75 1.98999H3.96997C3.33997 1.98999 2.84997 2.18999 2.49997 2.57999C2.15997 2.97999 1.97998 3.40998 1.97998 3.88998V55.6C1.97998 56.87 2.63996 57.5 3.95996 57.5H14.27C15.59 57.5 16.25 56.84 16.25 55.52V37.91H23.86L34.65 55.44C35.13 56.23 35.6 56.78 36.08 57.07C36.56 57.36 37.24 57.51 38.14 57.51H49.4C50.19 57.51 50.76 57.19 51.11 56.56C51.45 55.93 51.39 55.32 50.91 54.74L38.54 35.55C41.08 34.65 43.19 33.2 44.88 31.19C46.57 29.18 47.72 27.21 48.33 25.28C48.94 23.35 49.24 21.43 49.24 19.53C49.24 14.61 47.43 10.46 43.81 7.07999C40.19 3.69999 35.49 1.99998 29.73 1.99998L29.75 1.98999ZM16.27 26.5V14.44H27.85C29.65 14.44 31.17 14.97 32.41 16.03C33.65 17.09 34.27 18.52 34.27 20.31C34.27 22.1 33.64 23.59 32.37 24.75C31.1 25.91 29.54 26.5 27.69 26.5H16.27Z" fill="#231F20"/>
<path d="M37.88 56.23C37 56.23 36.55 56.07 36.34 55.94C36.11 55.8 35.73 55.46 35.25 54.65L24.46 37.11C24.28 36.81 23.96 36.63 23.61 36.63H16C15.45 36.63 15 37.08 15 37.63V55.24C15 56.01 14.79 56.22 14.02 56.22H3.70996C2.85996 56.22 2.72998 55.95 2.72998 55.32V3.61002C2.72998 3.46002 2.75997 3.24002 2.99997 2.96002C3.05997 2.89002 3.21996 2.71002 3.70996 2.71002H29.49C34.96 2.71002 39.47 4.33002 42.89 7.52002C46.33 10.74 48.01 14.57 48.01 19.24C48.01 21.03 47.72 22.86 47.14 24.69C46.57 26.49 45.48 28.36 43.88 30.25C42.31 32.11 40.32 33.48 37.97 34.31C37.68 34.41 37.46 34.64 37.36 34.93C37.26 35.22 37.3 35.54 37.47 35.8L49.84 54.99C49.84 54.99 49.88 55.05 49.91 55.08C50.16 55.38 50.14 55.55 50 55.8C49.86 56.06 49.67 56.23 49.17 56.23H37.91H37.88ZM15.99 13.16C15.44 13.16 14.99 13.61 14.99 14.16V26.22C14.99 26.77 15.44 27.22 15.99 27.22H27.41C29.51 27.22 31.31 26.54 32.77 25.21C34.25 23.86 35 22.11 35 20.03C35 17.95 34.25 16.24 32.78 14.99C31.36 13.78 29.6 13.16 27.57 13.16H15.99Z" fill="#FC0B50"/>
<path d="M29.4699 3.70001C34.7599 3.70001 38.9099 5.18002 42.1799 8.24002C45.4099 11.26 46.9799 14.85 46.9799 19.23C46.9799 20.92 46.6999 22.65 46.1599 24.38C45.6299 26.05 44.5999 27.81 43.0899 29.6C41.6199 31.35 39.8199 32.58 37.6099 33.36C37.0299 33.56 36.5799 34.02 36.3799 34.6C36.1799 35.18 36.2599 35.82 36.5899 36.33L48.7599 55.22H37.8699C37.0899 55.22 36.8499 55.08 36.8499 55.08C36.8199 55.06 36.5399 54.88 36.0799 54.11L25.2899 36.58C24.9299 35.99 24.2799 35.63 23.5899 35.63H15.9799C14.8799 35.63 13.9799 36.53 13.9799 37.63V55.22H3.69995V3.70001H29.4599M15.9899 28.21H27.4099C29.7699 28.21 31.7999 27.45 33.4399 25.94C35.1299 24.39 35.9899 22.4 35.9899 20.02C35.9899 17.64 35.1 15.65 33.42 14.21C31.81 12.84 29.8399 12.15 27.5599 12.15H15.9799C14.8799 12.15 13.9799 13.05 13.9799 14.15V26.21C13.9799 27.31 14.8799 28.21 15.9799 28.21M29.4699 1.70001H3.68994C3.05994 1.70001 2.56994 1.90002 2.21994 2.29002C1.87994 2.69002 1.69995 3.12002 1.69995 3.60002V55.31C1.69995 56.58 2.35993 57.21 3.67993 57.21H13.9899C15.3099 57.21 15.9699 56.55 15.9699 55.23V37.62H23.5799L34.3699 55.15C34.8499 55.94 35.3199 56.49 35.7999 56.78C36.2799 57.07 36.9599 57.22 37.8599 57.22H49.1199C49.9099 57.22 50.4799 56.9 50.8299 56.27C51.1699 55.64 51.1099 55.03 50.6299 54.45L38.2599 35.26C40.7999 34.36 42.9099 32.91 44.5999 30.9C46.2899 28.89 47.4399 26.92 48.0499 24.99C48.6599 23.06 48.9599 21.14 48.9599 19.24C48.9599 14.32 47.1499 10.17 43.5299 6.79002C39.9099 3.41002 35.21 1.71002 29.45 1.71002L29.4699 1.70001ZM15.9899 26.21V14.15H27.5699C29.3699 14.15 30.8899 14.68 32.1299 15.74C33.3699 16.8 33.9899 18.23 33.9899 20.02C33.9899 21.81 33.3599 23.3 32.0899 24.46C30.8199 25.62 29.2599 26.21 27.4099 26.21H15.9899Z" fill="#231F20"/>
<path d="M37.5899 55.94C36.7099 55.94 36.2599 55.78 36.0499 55.65C35.8199 55.51 35.4399 55.17 34.9599 54.36L24.17 36.82C23.99 36.52 23.6699 36.34 23.3199 36.34H15.7099C15.1599 36.34 14.7099 36.79 14.7099 37.34V54.95C14.7099 55.72 14.4999 55.93 13.7299 55.93H3.41995C2.56995 55.93 2.43994 55.66 2.43994 55.03V3.31999C2.43994 3.16999 2.46993 2.94998 2.70993 2.66998C2.76993 2.59998 2.92995 2.41998 3.41995 2.41998H29.2C34.67 2.41998 39.1799 4.03998 42.5999 7.22998C46.0399 10.45 47.7199 14.28 47.7199 18.95C47.7199 20.74 47.4299 22.57 46.8499 24.4C46.2799 26.2 45.1899 28.07 43.5899 29.96C42.0199 31.82 40.0299 33.19 37.6799 34.02C37.3899 34.12 37.1699 34.35 37.0699 34.64C36.9699 34.93 37.0099 35.25 37.1799 35.51L49.5499 54.7C49.5499 54.7 49.5899 54.76 49.6199 54.79C49.8699 55.09 49.8499 55.26 49.7099 55.51C49.5699 55.77 49.3799 55.94 48.8799 55.94H37.6199H37.5899ZM15.7 12.87C15.15 12.87 14.7 13.32 14.7 13.87V25.93C14.7 26.48 15.15 26.93 15.7 26.93H27.1199C29.2199 26.93 31.0199 26.25 32.4799 24.92C33.9599 23.57 34.7099 21.82 34.7099 19.74C34.7099 17.66 33.9599 15.95 32.4899 14.7C31.0699 13.49 29.3099 12.87 27.2799 12.87H15.7Z" fill="#FC0B50"/>
<path d="M29.1899 3.41998C34.4799 3.41998 38.6299 4.89999 41.8999 7.95999C45.1299 10.98 46.6999 14.57 46.6999 18.95C46.6999 20.64 46.4199 22.37 45.8799 24.1C45.3499 25.77 44.3199 27.53 42.8099 29.32C41.3399 31.07 39.5399 32.3 37.3299 33.08C36.7499 33.28 36.2999 33.74 36.0999 34.32C35.8999 34.9 35.9799 35.54 36.3099 36.05L48.4799 54.94H37.5899C36.8099 54.94 36.5699 54.8 36.5699 54.8C36.5399 54.78 36.2599 54.6 35.7999 53.83L25.0099 36.3C24.6499 35.71 23.9999 35.35 23.3099 35.35H15.6999C14.5999 35.35 13.6999 36.25 13.6999 37.35V54.94H3.41992V3.41998H29.1799M15.6999 27.93H27.1199C29.4799 27.93 31.5099 27.17 33.1499 25.66C34.8399 24.11 35.6999 22.12 35.6999 19.74C35.6999 17.36 34.8099 15.37 33.1299 13.93C31.5199 12.56 29.5499 11.87 27.2699 11.87H15.6899C14.5899 11.87 13.6899 12.77 13.6899 13.87V25.93C13.6899 27.03 14.5899 27.93 15.6899 27.93M29.1899 1.41998H3.40991C2.77991 1.41998 2.28991 1.61999 1.93991 2.00999C1.59991 2.40999 1.41992 2.83999 1.41992 3.31999V55.03C1.41992 56.3 2.0799 56.93 3.3999 56.93H13.7099C15.0299 56.93 15.6899 56.27 15.6899 54.95V37.34H23.2999L34.0899 54.87C34.5699 55.66 35.0399 56.21 35.5199 56.5C35.9999 56.79 36.6799 56.94 37.5799 56.94H48.8399C49.6299 56.94 50.1999 56.62 50.5499 55.99C50.8899 55.36 50.8299 54.75 50.3499 54.17L37.9799 34.98C40.5199 34.08 42.6299 32.63 44.3199 30.62C46.0099 28.61 47.1599 26.64 47.7699 24.71C48.3799 22.78 48.6799 20.86 48.6799 18.96C48.6799 14.04 46.8699 9.88999 43.2499 6.50999C39.6299 3.12999 34.9299 1.42999 29.1699 1.42999L29.1899 1.41998ZM15.6999 25.93V13.87H27.2799C29.0799 13.87 30.5999 14.4 31.8399 15.46C33.0799 16.52 33.6999 17.95 33.6999 19.74C33.6999 21.53 33.0699 23.02 31.7999 24.18C30.5299 25.34 28.9699 25.93 27.1199 25.93H15.6999Z" fill="#231F20"/>
<path d="M37.3099 55.66C36.4299 55.66 35.9799 55.5 35.7699 55.37C35.5399 55.23 35.1599 54.89 34.6799 54.08L23.8899 36.54C23.7099 36.24 23.3899 36.06 23.0399 36.06H15.4299C14.8799 36.06 14.4299 36.51 14.4299 37.06V54.67C14.4299 55.44 14.2199 55.65 13.4499 55.65H3.13992C2.28992 55.65 2.15991 55.38 2.15991 54.75V3.04002C2.15991 2.89002 2.1899 2.67001 2.4299 2.39001C2.4899 2.32001 2.64992 2.14001 3.13992 2.14001H28.9199C34.3899 2.14001 38.8999 3.76001 42.3199 6.95001C45.7599 10.17 47.4399 14 47.4399 18.67C47.4399 20.46 47.1499 22.29 46.5699 24.12C45.9999 25.92 44.9099 27.79 43.3099 29.68C41.7399 31.54 39.7499 32.91 37.3999 33.74C37.1099 33.84 36.8899 34.07 36.7899 34.36C36.6899 34.65 36.7299 34.97 36.8999 35.23L49.2699 54.42C49.2699 54.42 49.3099 54.48 49.3399 54.51C49.5899 54.81 49.5699 54.98 49.4299 55.23C49.2899 55.49 49.0999 55.66 48.5999 55.66H37.3399H37.3099ZM15.4199 12.59C14.8699 12.59 14.4199 13.04 14.4199 13.59V25.65C14.4199 26.2 14.8699 26.65 15.4199 26.65H26.8399C28.9399 26.65 30.7399 25.97 32.1999 24.64C33.6799 23.29 34.4299 21.54 34.4299 19.46C34.4299 17.38 33.6799 15.67 32.2099 14.42C30.7899 13.21 29.0299 12.59 26.9999 12.59H15.4199Z" fill="#FC0B50"/>
<path d="M28.8999 3.14001C34.1899 3.14001 38.3399 4.62002 41.6099 7.68002C44.8399 10.7 46.4099 14.29 46.4099 18.67C46.4099 20.36 46.1299 22.09 45.5899 23.82C45.0599 25.49 44.0299 27.25 42.5199 29.04C41.0499 30.79 39.2499 32.02 37.0399 32.8C36.4599 33 36.0099 33.46 35.8099 34.04C35.6099 34.62 35.6899 35.26 36.0199 35.77L48.1899 54.66H37.2999C36.5199 54.66 36.2799 54.52 36.2799 54.52C36.2499 54.5 35.9699 54.32 35.5099 53.55L24.7199 36.02C24.3599 35.43 23.7099 35.07 23.0199 35.07H15.4099C14.3099 35.07 13.4099 35.97 13.4099 37.07V54.66H3.12988V3.14001H28.8899M15.4199 27.65H26.8399C29.1999 27.65 31.2299 26.89 32.8699 25.38C34.5599 23.83 35.4199 21.84 35.4199 19.46C35.4199 17.08 34.5299 15.09 32.8499 13.65C31.2399 12.28 29.2699 11.59 26.9899 11.59H15.4099C14.3099 11.59 13.4099 12.49 13.4099 13.59V25.65C13.4099 26.75 14.3099 27.65 15.4099 27.65M28.8999 1.14001H3.11987C2.48987 1.14001 1.99987 1.34001 1.64987 1.73001C1.30987 2.13001 1.12988 2.56002 1.12988 3.04002V54.75C1.12988 56.02 1.78986 56.65 3.10986 56.65H13.4199C14.7399 56.65 15.3999 55.99 15.3999 54.67V37.06H23.0099L33.7999 54.59C34.2799 55.38 34.7499 55.93 35.2299 56.22C35.7099 56.51 36.3899 56.66 37.2899 56.66H48.5499C49.3399 56.66 49.9099 56.34 50.2599 55.71C50.5999 55.08 50.5399 54.47 50.0599 53.89L37.6899 34.7C40.2299 33.8 42.3399 32.35 44.0299 30.34C45.7199 28.33 46.8699 26.36 47.4799 24.43C48.0899 22.5 48.3899 20.58 48.3899 18.68C48.3899 13.76 46.5799 9.61001 42.9599 6.23001C39.3399 2.85001 34.6399 1.15002 28.8799 1.15002L28.8999 1.14001ZM15.4199 25.65V13.59H26.9999C28.7999 13.59 30.3199 14.12 31.5599 15.18C32.7999 16.24 33.4199 17.67 33.4199 19.46C33.4199 21.25 32.7899 22.74 31.5199 23.9C30.2499 25.06 28.6899 25.65 26.8399 25.65H15.4199Z" fill="#231F20"/>
<path d="M37.0299 55.38C36.1499 55.38 35.6999 55.22 35.4899 55.09C35.2599 54.95 34.8799 54.61 34.3999 53.8L23.6099 36.26C23.4299 35.96 23.1099 35.78 22.7599 35.78H15.1499C14.5999 35.78 14.1499 36.23 14.1499 36.78V54.39C14.1499 55.16 13.9399 55.37 13.1699 55.37H2.85986C2.00986 55.37 1.87988 55.1 1.87988 54.47V2.75999C1.87988 2.60999 1.90987 2.38999 2.14987 2.10999C2.20987 2.03999 2.36986 1.85999 2.85986 1.85999H28.6399C34.1099 1.85999 38.6199 3.47998 42.0399 6.66998C45.4799 9.88998 47.1599 13.72 47.1599 18.39C47.1599 20.18 46.8699 22.01 46.2899 23.84C45.7199 25.64 44.6299 27.51 43.0299 29.4C41.4599 31.26 39.4699 32.63 37.1199 33.46C36.8299 33.56 36.6099 33.79 36.5099 34.08C36.4099 34.37 36.4499 34.69 36.6199 34.95L48.9899 54.14C48.9899 54.14 49.0299 54.2 49.0599 54.23C49.3099 54.53 49.2899 54.7 49.1499 54.95C49.0099 55.21 48.8199 55.38 48.3199 55.38H37.0599H37.0299ZM15.1399 12.31C14.5899 12.31 14.1399 12.76 14.1399 13.31V25.37C14.1399 25.92 14.5899 26.37 15.1399 26.37H26.5599C28.6599 26.37 30.4599 25.69 31.9199 24.36C33.3999 23.01 34.1499 21.26 34.1499 19.18C34.1499 17.1 33.3999 15.39 31.9299 14.14C30.5099 12.93 28.7499 12.31 26.7199 12.31H15.1399Z" fill="#FC0B50"/>
<path d="M28.6201 2.85004C33.9101 2.85004 38.0601 4.33003 41.3301 7.39003C44.5601 10.41 46.1301 14 46.1301 18.38C46.1301 20.07 45.8501 21.8 45.3101 23.53C44.7801 25.2 43.7501 26.96 42.2401 28.75C40.7701 30.5 38.9701 31.73 36.7601 32.51C36.1801 32.71 35.7301 33.17 35.5301 33.75C35.3301 34.33 35.4101 34.97 35.7401 35.48L47.9101 54.37H37.0201C36.2401 54.37 36.0001 54.23 36.0001 54.23C35.9701 54.21 35.6901 54.03 35.2301 53.26L24.4401 35.73C24.0801 35.14 23.4301 34.78 22.7401 34.78H15.1301C14.0301 34.78 13.1301 35.68 13.1301 36.78V54.37H2.8501V2.85004H28.6101M15.1401 27.36H26.5601C28.9201 27.36 30.9501 26.6 32.5901 25.09C34.2801 23.54 35.1401 21.55 35.1401 19.17C35.1401 16.79 34.2501 14.8 32.5701 13.36C30.9601 11.99 28.9901 11.3 26.7101 11.3H15.1301C14.0301 11.3 13.1301 12.2 13.1301 13.3V25.36C13.1301 26.46 14.0301 27.36 15.1301 27.36M28.6201 0.850037H2.84009C2.21009 0.850037 1.72009 1.05003 1.37009 1.44003C1.03009 1.84003 0.850098 2.27003 0.850098 2.75003V54.46C0.850098 55.73 1.51008 56.36 2.83008 56.36H13.1401C14.4601 56.36 15.1201 55.7 15.1201 54.38V36.77H22.7301L33.5201 54.3C34.0001 55.09 34.4701 55.64 34.9501 55.93C35.4301 56.22 36.1101 56.37 37.0101 56.37H48.2701C49.0601 56.37 49.6301 56.05 49.9801 55.42C50.3201 54.79 50.2601 54.18 49.7801 53.6L37.4101 34.41C39.9501 33.51 42.0601 32.06 43.7501 30.05C45.4401 28.04 46.5901 26.07 47.2001 24.14C47.8101 22.21 48.1101 20.29 48.1101 18.39C48.1101 13.47 46.3001 9.32003 42.6801 5.94003C39.0601 2.56003 34.3601 0.860031 28.6001 0.860031L28.6201 0.850037ZM15.1401 25.36V13.3H26.7201C28.5201 13.3 30.0401 13.83 31.2801 14.89C32.5201 15.95 33.1401 17.38 33.1401 19.17C33.1401 20.96 32.5101 22.45 31.2401 23.61C29.9701 24.77 28.4101 25.36 26.5601 25.36H15.1401Z" fill="#231F20"/>
<path d="M36.7401 55.09C35.8601 55.09 35.4101 54.93 35.2001 54.8C34.9701 54.66 34.5901 54.32 34.1101 53.51L23.3201 35.97C23.1401 35.67 22.8201 35.49 22.4701 35.49H14.8601C14.3101 35.49 13.8601 35.94 13.8601 36.49V54.1C13.8601 54.87 13.6501 55.08 12.8801 55.08H2.5701C1.7201 55.08 1.59009 54.81 1.59009 54.18V2.47C1.59009 2.32 1.62008 2.10001 1.86008 1.82001C1.92008 1.75001 2.0801 1.57001 2.5701 1.57001H28.3501C33.8201 1.57001 38.3301 3.19 41.7501 6.38C45.1901 9.6 46.8701 13.43 46.8701 18.1C46.8701 19.89 46.5801 21.72 46.0001 23.55C45.4301 25.35 44.3401 27.22 42.7401 29.11C41.1701 30.97 39.1801 32.34 36.8301 33.17C36.5401 33.27 36.3201 33.5 36.2201 33.79C36.1201 34.08 36.1601 34.4 36.3301 34.66L48.7001 53.85C48.7001 53.85 48.7401 53.91 48.7701 53.94C49.0201 54.24 49.0001 54.41 48.8601 54.66C48.7201 54.92 48.5301 55.09 48.0301 55.09H36.7701H36.7401ZM14.8501 12.02C14.3001 12.02 13.8501 12.47 13.8501 13.02V25.08C13.8501 25.63 14.3001 26.08 14.8501 26.08H26.2701C28.3701 26.08 30.1701 25.4 31.6301 24.07C33.1101 22.72 33.8601 20.97 33.8601 18.89C33.8601 16.81 33.1101 15.1 31.6401 13.85C30.2201 12.64 28.4601 12.02 26.4301 12.02H14.8501Z" fill="#FC0B50"/>
<path d="M28.3401 2.57001C33.6301 2.57001 37.78 4.05 41.05 7.11C44.28 10.13 45.8501 13.72 45.8501 18.1C45.8501 19.79 45.5701 21.52 45.0301 23.25C44.5001 24.92 43.4701 26.68 41.9601 28.47C40.4901 30.22 38.6901 31.45 36.4801 32.23C35.9001 32.43 35.4501 32.89 35.2501 33.47C35.0501 34.05 35.1301 34.69 35.4601 35.2L47.6301 54.09H36.7401C35.9601 54.09 35.7201 53.95 35.7201 53.95C35.6901 53.93 35.4101 53.75 34.9501 52.98L24.1601 35.45C23.8001 34.86 23.1501 34.5 22.4601 34.5H14.8501C13.7501 34.5 12.8501 35.4 12.8501 36.5V54.09H2.57007V2.57001H28.33M14.8501 27.08H26.2701C28.63 27.08 30.66 26.32 32.3 24.81C33.99 23.26 34.8501 21.27 34.8501 18.89C34.8501 16.51 33.9601 14.52 32.2801 13.08C30.6701 11.71 28.7001 11.02 26.4201 11.02H14.8401C13.7401 11.02 12.8401 11.92 12.8401 13.02V25.08C12.8401 26.18 13.7401 27.08 14.8401 27.08M28.3401 0.570007H2.56006C1.93006 0.570007 1.44006 0.770004 1.09006 1.16C0.750057 1.56 0.570068 1.99 0.570068 2.47V54.18C0.570068 55.45 1.23005 56.08 2.55005 56.08H12.86C14.18 56.08 14.8401 55.42 14.8401 54.1V36.49H22.4501L33.2401 54.02C33.7201 54.81 34.1901 55.36 34.6701 55.65C35.1501 55.94 35.8301 56.09 36.7301 56.09H47.9901C48.7801 56.09 49.3501 55.77 49.7001 55.14C50.0401 54.51 49.9801 53.9 49.5001 53.32L37.1301 34.13C39.6701 33.23 41.7801 31.78 43.4701 29.77C45.1601 27.76 46.3101 25.79 46.9201 23.86C47.5301 21.93 47.83 20.01 47.83 18.11C47.83 13.19 46.0201 9.04 42.4001 5.66C38.7801 2.28 34.0801 0.580002 28.3201 0.580002L28.3401 0.570007ZM14.8501 25.08V13.02H26.4301C28.2301 13.02 29.7501 13.55 30.9901 14.61C32.2301 15.67 32.8501 17.1 32.8501 18.89C32.8501 20.68 32.2201 22.17 30.9501 23.33C29.6801 24.49 28.1201 25.08 26.2701 25.08H14.8501Z" fill="#231F20"/>
<path d="M36.4601 54.81C35.5801 54.81 35.1301 54.65 34.9201 54.52C34.6901 54.38 34.31 54.04 33.83 53.23L23.0401 35.69C22.8601 35.39 22.5401 35.21 22.1901 35.21H14.58C14.03 35.21 13.58 35.66 13.58 36.21V53.82C13.58 54.59 13.3701 54.8 12.6001 54.8H2.29007C1.44007 54.8 1.31006 54.53 1.31006 53.9V2.18997C1.31006 2.03997 1.34005 1.81998 1.58005 1.53998C1.64005 1.46998 1.80007 1.28998 2.29007 1.28998H28.0701C33.5401 1.28998 38.0501 2.90998 41.4701 6.09998C44.9101 9.31998 46.5901 13.15 46.5901 17.82C46.5901 19.61 46.3001 21.44 45.7201 23.27C45.1501 25.07 44.0601 26.94 42.4601 28.83C40.8901 30.69 38.9 32.06 36.55 32.89C36.26 32.99 36.0401 33.22 35.9401 33.51C35.8401 33.8 35.88 34.12 36.05 34.38L48.4201 53.57C48.4201 53.57 48.4601 53.63 48.4901 53.66C48.7401 53.96 48.72 54.13 48.58 54.38C48.44 54.64 48.2501 54.81 47.7501 54.81H36.4901H36.4601ZM14.5701 11.74C14.0201 11.74 13.5701 12.19 13.5701 12.74V24.8C13.5701 25.35 14.0201 25.8 14.5701 25.8H25.9901C28.0901 25.8 29.8901 25.12 31.3501 23.79C32.8301 22.44 33.58 20.69 33.58 18.61C33.58 16.53 32.83 14.82 31.36 13.57C29.94 12.36 28.1801 11.74 26.1501 11.74H14.5701Z" fill="#FC0B50"/>
<path d="M28.05 2.28998C33.34 2.28998 37.49 3.76997 40.76 6.82997C43.99 9.84997 45.56 13.44 45.56 17.82C45.56 19.51 45.28 21.24 44.74 22.97C44.21 24.64 43.18 26.4 41.67 28.19C40.2 29.94 38.4 31.17 36.19 31.95C35.61 32.15 35.16 32.61 34.96 33.19C34.76 33.77 34.84 34.41 35.17 34.92L47.34 53.81H36.45C35.67 53.81 35.43 53.67 35.43 53.67C35.4 53.65 35.12 53.47 34.66 52.7L23.87 35.17C23.51 34.58 22.86 34.22 22.17 34.22H14.56C13.46 34.22 12.56 35.12 12.56 36.22V53.81H2.28003V2.28998H28.04M14.57 26.8H25.99C28.35 26.8 30.38 26.04 32.02 24.53C33.71 22.98 34.57 20.99 34.57 18.61C34.57 16.23 33.68 14.24 32 12.8C30.39 11.43 28.42 10.74 26.14 10.74H14.56C13.46 10.74 12.56 11.64 12.56 12.74V24.8C12.56 25.9 13.46 26.8 14.56 26.8M28.05 0.289978H2.27002C1.64002 0.289978 1.15002 0.489974 0.800018 0.879974C0.460018 1.27997 0.280029 1.70997 0.280029 2.18997V53.9C0.280029 55.17 0.94004 55.8 2.26004 55.8H12.57C13.89 55.8 14.55 55.14 14.55 53.82V36.21H22.16L32.95 53.74C33.43 54.53 33.9 55.08 34.38 55.37C34.86 55.66 35.54 55.81 36.44 55.81H47.7C48.49 55.81 49.06 55.49 49.41 54.86C49.75 54.23 49.69 53.62 49.21 53.04L36.84 33.85C39.38 32.95 41.49 31.5 43.18 29.49C44.87 27.48 46.02 25.51 46.63 23.58C47.24 21.65 47.54 19.73 47.54 17.83C47.54 12.91 45.73 8.75997 42.11 5.37997C38.49 1.99997 33.79 0.299973 28.03 0.299973L28.05 0.289978ZM14.57 24.8V12.74H26.15C27.95 12.74 29.47 13.27 30.71 14.33C31.95 15.39 32.57 16.82 32.57 18.61C32.57 20.4 31.94 21.89 30.67 23.05C29.4 24.21 27.84 24.8 25.99 24.8H14.57Z" fill="#231F20"/>
<path d="M36.18 54.53C35.3 54.53 34.85 54.37 34.64 54.24C34.41 54.1 34.03 53.76 33.55 52.95L22.76 35.41C22.58 35.11 22.26 34.93 21.91 34.93H14.3C13.75 34.93 13.3 35.38 13.3 35.93V53.54C13.3 54.31 13.09 54.52 12.32 54.52H2.01004C1.16004 54.52 1.03003 54.25 1.03003 53.62V1.91C1.03003 1.76 1.06002 1.54001 1.30002 1.26001C1.36002 1.19001 1.52004 1.01001 2.01004 1.01001H27.79C33.26 1.01001 37.77 2.63001 41.19 5.82001C44.63 9.04001 46.31 12.87 46.31 17.54C46.31 19.33 46.02 21.16 45.44 22.99C44.87 24.79 43.78 26.66 42.18 28.55C40.61 30.41 38.62 31.78 36.27 32.61C35.98 32.71 35.76 32.94 35.66 33.23C35.56 33.52 35.6 33.84 35.77 34.1L48.14 53.29C48.14 53.29 48.18 53.35 48.21 53.38C48.46 53.68 48.44 53.85 48.3 54.1C48.16 54.36 47.97 54.53 47.47 54.53H36.21H36.18ZM14.28 11.46C13.73 11.46 13.28 11.91 13.28 12.46V24.52C13.28 25.07 13.73 25.52 14.28 25.52H25.7C27.8 25.52 29.6 24.84 31.06 23.51C32.54 22.16 33.29 20.41 33.29 18.33C33.29 16.25 32.54 14.54 31.07 13.29C29.65 12.08 27.89 11.46 25.86 11.46H14.28Z" fill="#FC0B50"/>
<path d="M27.77 2C33.06 2 37.21 3.48001 40.48 6.54001C43.71 9.56001 45.28 13.15 45.28 17.53C45.28 19.22 45 20.95 44.46 22.68C43.93 24.35 42.9 26.11 41.39 27.9C39.92 29.65 38.12 30.88 35.91 31.66C35.33 31.86 34.88 32.32 34.68 32.9C34.48 33.48 34.56 34.12 34.89 34.63L47.06 53.52H36.17C35.39 53.52 35.15 53.38 35.15 53.38C35.12 53.36 34.84 53.18 34.38 52.41L23.59 34.88C23.23 34.29 22.58 33.93 21.89 33.93H14.28C13.18 33.93 12.28 34.83 12.28 35.93V53.52H2V2H27.76M14.28 26.51H25.7C28.06 26.51 30.09 25.75 31.73 24.24C33.42 22.69 34.28 20.7 34.28 18.32C34.28 15.94 33.39 13.95 31.71 12.51C30.1 11.14 28.13 10.45 25.85 10.45H14.27C13.17 10.45 12.27 11.35 12.27 12.45V24.51C12.27 25.61 13.17 26.51 14.27 26.51M27.77 0H1.98999C1.35999 0 0.869989 0.199996 0.519989 0.589996C0.179989 0.989996 0 1.42001 0 1.90001V53.61C0 54.88 0.660011 55.51 1.98001 55.51H12.29C13.61 55.51 14.27 54.85 14.27 53.53V35.92H21.88L32.67 53.45C33.15 54.24 33.62 54.79 34.1 55.08C34.58 55.37 35.26 55.52 36.16 55.52H47.42C48.21 55.52 48.78 55.2 49.13 54.57C49.47 53.94 49.41 53.33 48.93 52.75L36.56 33.56C39.1 32.66 41.21 31.21 42.9 29.2C44.59 27.19 45.74 25.22 46.35 23.29C46.96 21.36 47.26 19.44 47.26 17.54C47.26 12.62 45.45 8.47 41.83 5.09C38.21 1.71 33.51 0.0100098 27.75 0.0100098L27.77 0ZM14.28 24.51V12.45H25.86C27.66 12.45 29.18 12.98 30.42 14.04C31.66 15.1 32.28 16.53 32.28 18.32C32.28 20.11 31.65 21.6 30.38 22.76C29.11 23.92 27.55 24.51 25.7 24.51H14.28Z" fill="#231F20"/>
</svg>
