<svg width="52" height="63" viewBox="0 0 52 63" fill="none" xmlns="http://www.w3.org/2000/svg">
<path d="M48.4348 55.985C48.4348 56.175 48.4348 56.355 48.3948 56.515C48.2548 57.285 47.8648 57.915 47.2048 58.405C46.6548 58.785 46.0848 58.975 45.4848 58.975C45.3148 58.975 45.1548 58.965 44.9848 58.935C44.2248 58.805 43.5948 58.405 43.1048 57.745L26.2748 34.155H9.36484V56.025C9.36484 56.815 9.08482 57.505 8.50482 58.095C7.93482 58.685 7.23483 58.975 6.41483 58.975C5.59483 58.975 4.89483 58.685 4.32483 58.095C3.74483 57.505 3.45483 56.815 3.45483 56.025V6.41502C3.45483 5.58502 3.74483 4.89502 4.32483 4.31502C4.90483 3.73502 5.59483 3.45502 6.41483 3.45502H33.0848C35.9048 3.45502 38.4748 4.15502 40.8048 5.54502C43.1248 6.94502 44.9848 8.79502 46.3648 11.105C47.7448 13.425 48.4348 15.985 48.4348 18.805C48.4348 21.625 47.7648 24.095 46.4248 26.395C45.0848 28.695 43.2948 30.535 41.0548 31.915C38.8048 33.295 36.2948 34.045 33.4948 34.155L47.9048 54.305C48.2548 54.845 48.4348 55.405 48.4348 55.985ZM42.5248 18.805C42.5248 16.235 41.6048 14.015 39.7548 12.155C37.9148 10.295 35.6848 9.36502 33.0848 9.36502H9.36484V28.245H33.0848C35.6848 28.245 37.9148 27.315 39.7548 25.475C41.5948 23.635 42.5248 21.405 42.5248 18.805Z" fill="white"/>
<path d="M33.085 9.36499C35.685 9.36499 37.915 10.295 39.755 12.155C41.605 14.015 42.525 16.235 42.525 18.805C42.525 21.375 41.605 23.625 39.755 25.475C37.905 27.325 35.685 28.245 33.085 28.245H9.36499V9.36499H33.085ZM39.575 18.805C39.575 17.025 38.935 15.505 37.665 14.225C36.395 12.955 34.865 12.315 33.085 12.315H12.325V25.285H33.085C34.865 25.285 36.395 24.655 37.665 23.375C38.935 22.105 39.575 20.585 39.575 18.805Z" fill="#DD07D8"/>
<path d="M33.0849 0.505005C36.4549 0.505005 39.5149 1.325 42.2849 2.985C45.0449 4.635 47.2549 6.85501 48.9049 9.635C50.5649 12.405 51.3949 15.465 51.3949 18.805C51.3949 22.855 50.2149 26.455 47.8649 29.615C45.5049 32.775 42.4349 34.985 38.6249 36.245L50.2849 52.615C51.0249 53.715 51.3949 54.845 51.3949 56.025C51.3949 56.355 51.3049 56.985 51.1449 57.915C50.9849 58.845 50.2449 59.815 48.9249 60.825C47.8649 61.565 46.7249 61.935 45.5249 61.935C43.5549 61.905 41.9349 61.075 40.6849 59.435L24.7549 37.105H12.3249V56.025C12.3249 57.635 11.7449 59.025 10.6049 60.195C9.45489 61.355 8.05489 61.935 6.41489 61.935C4.77489 61.935 3.37488 61.355 2.22488 60.195C1.07488 59.025 0.504883 57.635 0.504883 56.025V6.415C0.504883 4.795 1.07488 3.405 2.22488 2.245C3.37488 1.085 4.77489 0.505005 6.41489 0.505005H33.0849ZM47.9049 54.305L33.4949 34.155C36.2949 34.045 38.8049 33.295 41.0549 31.915C43.2949 30.535 45.0849 28.695 46.4249 26.395C47.7649 24.095 48.4349 21.565 48.4349 18.805C48.4349 16.045 47.7449 13.425 46.3649 11.105C44.9849 8.795 43.1249 6.945 40.8049 5.545C38.4749 4.155 35.9049 3.455 33.0849 3.455H6.41489C5.59489 3.455 4.89489 3.74501 4.32489 4.31501C3.75489 4.88501 3.4549 5.585 3.4549 6.415V56.025C3.4549 56.815 3.74489 57.505 4.32489 58.095C4.89489 58.685 5.59489 58.975 6.41489 58.975C7.23489 58.975 7.93488 58.685 8.50488 58.095C9.08488 57.505 9.3649 56.815 9.3649 56.025V34.155H26.2749L43.1049 57.745C43.5949 58.405 44.2249 58.805 44.9849 58.935C45.1549 58.965 45.3149 58.975 45.4849 58.975C46.0849 58.975 46.6549 58.785 47.2049 58.405C47.8649 57.915 48.2549 57.285 48.3949 56.515C48.4249 56.355 48.4349 56.175 48.4349 55.985C48.4349 55.405 48.2549 54.845 47.9049 54.305Z" fill="#DD07D8"/>
<path d="M6.41489 0.505005H33.0849C36.4549 0.505005 39.5149 1.325 42.2849 2.985C45.0449 4.635 47.2549 6.85501 48.9049 9.635C50.5649 12.405 51.3949 15.465 51.3949 18.805C51.3949 22.855 50.2149 26.455 47.8649 29.615C45.5049 32.775 42.4349 34.985 38.6249 36.245L50.2849 52.615C51.0249 53.715 51.3949 54.845 51.3949 56.025C51.3949 56.355 51.3049 56.985 51.1449 57.915C50.9849 58.845 50.2449 59.815 48.9249 60.825C47.8649 61.565 46.7249 61.935 45.5249 61.935C43.5549 61.905 41.9349 61.075 40.6849 59.435L24.7549 37.105H12.3249V56.025C12.3249 57.635 11.7449 59.025 10.6049 60.195C9.45489 61.355 8.05489 61.935 6.41489 61.935C4.77489 61.935 3.37488 61.355 2.22488 60.195C1.07488 59.025 0.504883 57.635 0.504883 56.025V6.415C0.504883 4.795 1.07488 3.405 2.22488 2.245C3.37488 1.085 4.77489 0.505005 6.41489 0.505005Z" stroke="#DD07D8" stroke-width="1.01" stroke-linecap="round" stroke-linejoin="round"/>
<path d="M6.41483 3.45502C5.59483 3.45502 4.89483 3.74502 4.32483 4.31502C3.75483 4.88502 3.45483 5.58502 3.45483 6.41502V56.025C3.45483 56.815 3.74483 57.505 4.32483 58.095C4.89483 58.685 5.59483 58.975 6.41483 58.975C7.23483 58.975 7.93482 58.685 8.50482 58.095C9.08482 57.505 9.36484 56.815 9.36484 56.025V34.155H26.2748L43.1048 57.745C43.5948 58.405 44.2248 58.805 44.9848 58.935C45.1548 58.965 45.3148 58.975 45.4848 58.975C46.0848 58.975 46.6548 58.785 47.2048 58.405C47.8648 57.915 48.2548 57.285 48.3948 56.515C48.4248 56.355 48.4348 56.175 48.4348 55.985C48.4348 55.405 48.2548 54.845 47.9048 54.305L33.4948 34.155C36.2948 34.045 38.8048 33.295 41.0548 31.915C43.2948 30.535 45.0848 28.695 46.4248 26.395C47.7648 24.095 48.4348 21.565 48.4348 18.805C48.4348 16.045 47.7448 13.425 46.3648 11.105C44.9848 8.79502 43.1248 6.94502 40.8048 5.54502C38.4748 4.15502 35.9048 3.45502 33.0848 3.45502H6.41483Z" stroke="#DD07D8" stroke-width="1.01" stroke-linecap="round" stroke-linejoin="round"/>
<path d="M9.36499 28.245V9.36499H33.085C35.685 9.36499 37.915 10.295 39.755 12.155C41.605 14.015 42.525 16.235 42.525 18.805C42.525 21.375 41.605 23.625 39.755 25.475C37.905 27.325 35.685 28.245 33.085 28.245H9.36499Z" stroke="#DD07D8" stroke-width="1.01" stroke-linecap="round" stroke-linejoin="round"/>
<path d="M12.325 25.285H33.085C34.865 25.285 36.3949 24.655 37.6649 23.375C38.9349 22.105 39.575 20.585 39.575 18.805C39.575 17.025 38.9349 15.505 37.6649 14.225C36.3949 12.955 34.865 12.315 33.085 12.315H12.325V25.285Z" stroke="#DD07D8" stroke-width="1.01" stroke-linecap="round" stroke-linejoin="round"/>
</svg>
