<svg width="34" height="39" viewBox="0 0 34 39" fill="none" xmlns="http://www.w3.org/2000/svg">
<path d="M22.0522 23.04C21.9422 23.04 21.6022 22.85 21.0322 22.47C20.4622 22.09 20.0922 21.9 19.9322 21.9C19.7122 21.9 19.5522 21.85 19.4422 21.74C19.3322 21.58 17.7322 21.5 14.6422 21.5C11.5522 21.5 9.81219 21.42 9.75219 21.26C9.59219 21.1 9.18219 21.02 8.53219 21.02C7.99219 21.02 7.58219 20.95 7.31219 20.82C7.04219 20.69 6.74218 20.59 6.41218 20.54C5.92218 20.43 5.36218 20.23 4.74218 19.93C4.12218 19.63 3.59219 19.46 3.15219 19.4C2.66219 19.29 2.12218 18.94 1.52218 18.34L0.712185 17.44V13.04C0.712185 10.16 0.762189 8.67 0.872189 8.56L1.03219 8.23001C1.14219 7.96001 1.25219 7.69999 1.36219 7.45999C1.47219 7.21999 1.55218 7.09 1.60218 7.09C1.71218 7.09 1.76219 6.98001 1.76219 6.76001C1.76219 6.54001 1.84219 6.42999 2.00219 6.42999C2.11219 6.42999 2.30219 6.13 2.57219 5.53C2.79219 5.1 3.25219 4.51 3.95219 3.78C4.66219 3.05 5.23218 2.54999 5.66218 2.26999C7.61218 1.12999 8.81218 0.559998 9.24218 0.559998C9.46218 0.559998 9.71219 0.489985 10.0122 0.359985C10.3122 0.229985 10.5922 0.129987 10.8722 0.0799866C10.9222 0.0799866 11.2022 0.0700085 11.6822 0.0400085C12.1722 0.0100085 12.5822 0 12.9022 0C18.2222 0 20.9922 0.109987 21.2122 0.329987C21.3222 0.379987 21.8922 0.490004 22.9222 0.660004C23.9522 0.820004 24.5222 0.960007 24.6322 1.07001C24.7422 1.18001 25.0922 1.23001 25.6922 1.23001C26.2922 1.23001 26.6122 1.18001 26.6722 1.07001C26.7222 0.910007 27.0822 0.829987 27.7322 0.829987C28.4922 0.829987 28.9622 1.00999 29.1622 1.35999C29.3522 1.70999 29.4522 2.62 29.4522 4.09C29.4522 6.91 29.3422 8.57 29.1222 9.06C28.9022 9.44 28.5522 9.77999 28.0622 10.08C27.5722 10.38 27.1422 10.53 26.7622 10.53C26.4322 10.53 26.2422 10.45 26.1922 10.29C26.0822 10.18 25.5422 10.05 24.5622 9.88C23.5822 9.72 23.0422 9.60999 22.9322 9.54999C21.6822 9.05999 21.0022 8.82001 20.8922 8.82001C20.6722 8.77001 19.9422 8.38999 18.6922 7.67999C17.7122 7.18999 16.8222 6.58998 16.0022 5.88998L14.2122 4.51001C13.8822 4.35001 13.4822 4.26999 12.9922 4.26999C12.3422 4.26999 11.8822 4.40999 11.6122 4.67999C11.3422 4.94999 11.0922 5.09 10.8822 5.09C10.6722 5.09 10.3622 5.30999 9.98219 5.73999C9.60219 6.17999 9.3822 6.57999 9.3322 6.95999C9.2822 7.17999 9.17219 7.39999 9.00219 7.60999C8.84219 7.82999 8.76219 8.05001 8.76219 8.26001C8.76219 8.59001 8.68218 8.75 8.52218 8.75C8.41218 8.75 8.3622 9.51 8.3622 11.03C8.3622 12.66 8.41218 13.5 8.52218 13.55C8.68218 13.6 8.76219 13.79 8.76219 14.12C8.76219 14.39 9.00218 14.72 9.49218 15.1C9.98218 15.48 10.4122 15.67 10.7922 15.67C11.2222 15.67 11.5022 15.75 11.6022 15.91C11.7122 16.07 13.1522 16.15 15.9222 16.15C21.2422 16.15 24.3922 16.42 25.3722 16.96C25.7022 17.12 25.9922 17.2 26.2722 17.2C26.4322 17.2 26.7722 17.38 27.2922 17.73C27.8122 18.08 28.2522 18.42 28.6322 18.75C29.0122 19.08 29.2022 19.21 29.2022 19.16C29.2022 19.11 29.2522 19.12 29.3622 19.2C29.4722 19.28 29.6222 19.4 29.8122 19.57C30.0022 19.73 30.1822 19.9 30.3422 20.06C31.1022 20.71 31.4822 21.17 31.4822 21.44C31.4822 21.55 31.6322 21.78 31.9322 22.13C32.2322 22.48 32.3822 22.69 32.3822 22.74C32.3822 22.9 32.5122 23.12 32.7922 23.39C33.0622 23.66 33.2022 24.72 33.2022 26.57C33.2022 27.87 33.1622 28.7 33.0822 29.05C33.0022 29.4 32.7422 30.04 32.3122 30.96C31.7122 32.1 31.2822 32.78 31.0122 33C30.7422 33.16 30.6022 33.35 30.6022 33.57C30.6022 33.73 30.0622 34.34 28.9722 35.4C27.8822 36.46 27.2622 36.99 27.1022 36.99C26.9922 36.99 26.8022 37.12 26.5322 37.4C25.9322 38.05 24.6022 38.38 22.5422 38.38C20.9122 38.38 20.0222 38.3 19.8522 38.14C19.6822 37.98 18.2222 37.84 15.4522 37.73C12.6322 37.62 11.1322 37.49 10.9722 37.32C10.7522 37.1 10.1622 36.99 9.18219 36.99C8.20219 36.94 7.39218 37.07 6.74218 37.4C6.09218 37.78 5.55219 37.97 5.11219 37.97C4.84219 37.97 4.59218 38.04 4.38218 38.17C4.16218 38.3 3.94219 38.37 3.73219 38.37C3.46219 38.37 3.2422 38.45 3.0822 38.61C3.0322 38.77 2.75218 38.85 2.27218 38.85C1.46218 38.85 0.892192 38.69 0.562192 38.36C0.292192 38.09 0.112193 37.68 0.0321927 37.14C-0.0478073 36.6 0.0221897 36.22 0.23219 36C0.34219 35.89 0.392193 35.78 0.392193 35.67L1.04219 34.04C1.53219 32.95 1.77218 32.28 1.77218 32C1.77218 31.72 1.85219 31.59 2.01219 31.59C2.17219 31.59 2.25219 31.37 2.25219 30.94C2.25219 30.78 2.3622 30.47 2.5822 30C2.8022 29.54 2.88219 29.23 2.82219 29.06C2.71219 28.84 2.96218 28.44 3.55218 27.84C4.31218 27.08 5.12218 26.7 5.99218 26.7C6.86218 26.7 7.75219 27.08 8.68219 27.84C9.28219 28.33 10.0922 28.76 11.1222 29.14C12.8022 29.85 14.0522 30.42 14.8722 30.85C15.4122 31.18 16.0622 31.39 16.8222 31.5C17.2022 31.55 17.5322 31.64 17.8022 31.74C18.0722 31.85 18.3722 31.93 18.7022 31.98C19.0322 32.03 19.5422 32.06 20.2522 32.06C22.1522 32.06 23.4322 31.73 24.0822 31.08C24.2422 30.92 24.4922 30.59 24.8122 30.1C25.1422 29.61 25.2722 29.31 25.2222 29.2C25.1622 29.09 25.2222 28.96 25.3822 28.79C25.5422 28.74 25.6222 28.48 25.6222 28.02C25.6222 27.56 25.5422 27.33 25.3822 27.33C25.2722 27.33 25.2222 27.25 25.2222 27.09C25.2222 26.93 24.7322 26.28 23.7522 25.14C22.7722 24 22.2822 23.4 22.2822 23.35C22.2822 23.13 22.2022 23.02 22.0422 23.02L22.0522 23.04Z" fill="black"/>
</svg>
