<svg width="37" height="77" viewBox="0 0 37 77" fill="none" xmlns="http://www.w3.org/2000/svg">
<path d="M32.8174 1.242C33.0574 1.442 34.3574 6.75198 34.3774 7.35198C34.4374 8.68198 33.9474 9.69202 34.0774 10.952C34.1874 11.972 34.9774 12.902 35.0474 13.372C35.1574 14.142 33.1274 18.322 33.3074 19.642C31.3774 21.502 29.7274 23.902 27.5474 25.362C26.8874 24.392 25.3374 24.542 24.7774 24.192C24.2874 23.882 23.2374 21.072 23.0674 20.302L20.2174 17.572C20.5174 18.682 19.4074 18.862 19.2174 19.182C18.0774 21.082 17.6574 23.392 17.9474 25.612C18.0374 26.292 18.6274 26.082 18.7074 26.412C18.8374 26.912 18.6574 27.562 18.7974 28.112C19.1074 29.292 23.8574 33.152 25.0674 34.522C29.5974 39.672 37.1074 53.412 36.8374 60.302C36.6774 64.452 31.7674 71.452 28.2474 73.522C27.4474 73.992 26.6274 73.802 25.9074 74.162C24.9374 74.652 23.2774 75.932 22.4274 76.292C21.7874 76.552 16.0674 76.612 15.2074 76.462C13.2674 76.142 10.8674 74.012 8.83744 73.502C7.22744 74.122 5.39743 76.992 3.70743 76.412C2.68743 76.062 -0.572561 72.582 0.0874389 71.112C1.40744 68.562 2.87744 66.092 3.99744 63.442C4.32744 62.662 4.20744 61.572 4.57744 60.742C4.64744 60.572 7.02745 58.162 7.18745 58.062C8.58745 57.262 11.5274 57.292 12.7474 58.402C13.3374 58.942 13.3474 59.762 13.7274 60.422C13.8674 60.672 14.3974 60.702 14.5974 61.122C14.9974 61.972 14.7874 63.512 15.1074 64.442C15.1374 64.522 16.0474 65.782 16.1074 65.842C17.1074 66.692 21.4474 66.202 22.6574 65.702C24.1974 65.052 27.5374 61.502 27.6474 59.882C27.7974 57.682 24.4674 49.752 23.2674 47.512C20.4574 42.282 14.9274 38.022 10.8674 33.802C8.73744 31.582 7.40744 29.972 6.57744 26.892C6.24744 25.662 5.69744 23.372 6.03744 21.932C6.10744 21.652 6.69745 21.712 6.76745 21.422C7.25745 19.392 7.33743 17.482 8.34743 15.582C8.79743 14.732 12.5974 10.212 13.3574 9.79199C16.3174 8.13199 19.2074 6.982 22.6774 6.432C23.2474 6.342 24.9774 6.47202 25.0574 6.39202C25.1274 6.32202 24.9874 4.95198 25.1374 4.41198C25.1974 4.18198 26.5174 1.37201 26.6374 1.25201C26.7274 1.16201 28.9374 0.162002 29.0674 0.122002C30.6074 -0.317998 30.5874 0.542029 31.4274 0.962029C31.8774 1.19203 32.6274 1.07199 32.8174 1.23199V1.242Z" fill="#221A22"/>
</svg>
