<svg width="41" height="77" viewBox="0 0 41 77" fill="none" xmlns="http://www.w3.org/2000/svg">
<path d="M10.8129 4.12915C16.1229 -0.800848 21.1329 0.52916 27.7929 0.41916C29.0229 0.39916 30.1029 -0.070844 31.5129 0.00915602C34.9129 0.199156 36.5629 2.11917 36.9129 5.42917C37.1329 7.54917 36.4229 10.3092 36.1929 12.1592C35.8929 14.5592 36.0329 16.0992 32.9129 16.7292C31.0329 17.1092 31.0229 16.2892 30.2029 16.0592C29.9429 15.2992 30.8729 15.3692 30.9529 15.0692C31.3229 13.6892 30.2829 13.8492 30.2129 13.5792C29.8429 12.2192 30.8729 12.3592 30.9429 12.0692C31.5429 9.69915 29.5929 9.66915 29.4729 9.06915C29.3229 8.26915 29.5929 7.42915 29.4429 6.62915C29.2029 5.32915 25.1629 5.42916 24.0329 5.57916C23.4029 5.65916 23.6029 6.13915 23.1929 6.31915C22.9229 6.43915 22.4329 6.27915 22.1229 6.46915C21.9429 6.58915 19.0829 9.38915 19.0429 9.59915C18.8829 10.3592 18.8929 13.1892 19.0029 14.0192C19.0629 14.4792 20.4329 15.3192 19.7829 16.7892C19.2529 17.2592 17.7729 20.4492 17.6329 21.1692C17.3229 22.8192 17.5329 24.1892 17.9229 25.7392C16.8229 27.6692 15.9629 25.7792 15.8229 25.7392C14.5529 25.3792 14.6029 26.2892 14.4529 26.3592C14.0229 26.5492 13.4929 26.4192 13.1929 26.6092C13.1029 26.6692 11.7329 27.9692 11.6929 28.0692C11.4529 28.7492 11.7129 29.3592 11.5829 29.9592C11.5129 30.2592 10.4829 30.3292 10.8229 32.6492C10.9329 33.3992 11.9129 33.5992 12.2129 34.0592C12.4329 34.3892 12.2429 35.0292 12.4529 35.3192C12.5629 35.4692 14.5129 37.5092 14.6629 37.5592C16.5229 38.2092 16.5329 37.2192 16.9329 37.0492C17.6129 36.7592 18.3729 36.2791 18.5929 36.1891C18.9429 36.0491 19.6729 36.2792 19.7929 36.1692C19.9429 36.0392 19.6629 34.8092 19.7929 34.6792C19.9229 34.5492 21.1629 34.8092 21.2929 34.6792C21.3929 34.5792 21.1829 33.2092 21.2929 32.6992C21.3429 32.4492 22.4629 32.3192 22.0329 31.3192C22.4729 31.6292 24.0729 32.0492 24.7029 32.4792C31.9829 37.4892 36.9429 40.2691 39.5529 49.2191C38.7729 49.7491 36.7829 51.2592 36.3129 51.9392C36.1029 52.2492 36.2929 52.7991 36.1829 53.0291C35.9329 53.5291 35.2629 53.0892 35.4429 53.8792C35.5229 54.1992 35.9929 53.9792 36.0829 54.1692C36.3129 54.6392 36.9029 55.7292 36.9329 55.8192C37.1629 56.8092 36.5529 57.6191 37.8129 58.4091C38.2029 58.6491 40.4229 58.9391 40.3029 60.0291C37.8429 72.4991 22.6629 74.5392 12.3429 75.6892C12.2529 75.1392 12.4729 72.8192 12.3429 72.6992C12.2029 72.5692 10.9929 72.8492 10.8529 72.6992C10.7729 72.6092 11.1229 71.3191 9.98292 70.5891C9.69292 70.3991 9.17292 70.5091 8.74292 70.3291C8.61292 70.2791 8.60292 69.7791 8.35292 69.7191C7.77292 69.5791 5.53292 69.6092 4.98292 69.8192C4.83292 69.8792 2.82292 71.8992 2.76292 72.0492C2.55292 72.6192 2.61292 73.2292 2.65292 73.8092C-0.30708 71.7992 -1.16707 61.5991 2.03293 60.1491C3.19293 59.6191 3.87293 60.0292 4.89293 60.0092V62.2492L5.63292 60.7592C5.54292 61.8892 5.46293 62.9792 6.50293 63.6092C6.86293 63.8292 7.43293 63.6492 7.75293 63.8592C8.07293 64.0692 8.59293 65.1491 8.89293 65.2091C9.50293 65.3291 11.1829 65.3392 11.8129 65.2492C12.4429 65.1592 12.2429 64.6892 12.6529 64.5092C12.9229 64.3892 13.4229 64.5492 13.7229 64.3592C13.9329 64.2192 17.1929 60.9792 17.3129 60.7592C17.6929 60.0592 17.6229 59.6391 17.5729 58.8891C19.3329 58.4391 20.9329 57.5391 21.9829 56.0291C28.6129 46.5091 15.3229 41.5692 9.73292 36.7092C3.42292 31.2192 2.88292 23.8492 4.51292 16.0092C5.47292 16.1292 6.73293 15.8092 7.61293 16.0092C7.86293 16.0692 7.81293 17.1992 9.83293 16.7292C10.0729 16.6692 11.5529 14.6692 11.6929 14.6192C12.3829 14.3592 13.6829 14.6192 13.8329 14.5092C14.6329 13.8992 12.2829 13.6292 13.0829 13.0192C13.1829 12.9392 15.0929 13.0491 15.3029 11.9991C15.4729 11.1591 15.4729 7.41916 15.3029 6.57916C15.1529 5.79916 13.6529 5.65917 13.4029 5.51917C13.0629 5.32917 13.0529 4.98915 12.9529 4.93915C12.3429 4.62915 11.5329 4.52917 10.8429 4.05917L10.8129 4.12915ZM29.3529 40.0592C27.4029 39.3492 25.0029 40.3092 23.6229 41.5492C23.0329 43.1992 22.3429 44.2892 22.7629 46.3792C22.8229 46.6892 23.9029 47.1992 24.1129 47.5192C24.4029 47.9492 24.1129 48.8692 25.1029 49.5092C25.5929 49.8292 26.3929 49.3592 26.7229 50.3792C27.9729 50.7492 27.9329 49.8291 28.0829 49.7691C28.6729 49.4991 29.6229 48.9291 29.7129 48.9091C30.7029 48.6791 31.5129 49.2891 32.3029 48.0291C32.4929 47.7291 32.3729 47.2091 32.5529 46.7791C32.6229 46.6191 33.5129 46.6991 33.1729 45.4091C33.1029 45.1491 32.4929 45.2092 32.4329 44.9192C32.1429 43.5892 32.1629 43.7292 31.8129 42.8092C31.5329 42.0692 31.6929 41.3992 30.8129 40.8192C30.5229 40.6292 30.0029 40.7392 29.5729 40.5592C29.4429 40.5092 29.4229 40.0992 29.3429 40.0692L29.3529 40.0592ZM27.9529 60.0891C27.3729 59.5891 27.0329 61.4792 25.7329 60.8192L26.4729 61.5592C24.5529 61.2692 24.5829 62.4092 24.1129 63.6792C24.0629 63.8092 23.5629 63.8192 23.5029 64.0592C22.7929 66.9492 24.1029 66.4891 24.8629 67.6491C25.0829 67.9791 24.8929 68.6191 25.1029 68.9091C26.7529 71.1091 28.3629 70.5091 30.9429 70.5191L30.2029 69.7791C31.5629 69.4791 31.5029 67.7791 33.1829 68.2791L32.4429 67.5392C34.2129 68.1992 34.3129 66.2092 33.9429 64.7892C33.8329 64.3592 33.0429 64.8792 33.1829 63.9892C33.2429 63.6192 34.3529 64.0692 33.9329 63.0592C31.7729 63.2692 32.7529 62.8892 32.4129 61.8692C31.9829 60.5692 30.5629 61.0191 29.6929 60.8291C29.3029 60.7391 29.6129 60.1392 29.2629 60.0692C28.3629 59.8892 28.8329 60.6892 28.6929 60.7992C27.8929 61.4792 28.0029 60.1391 27.9429 60.0891H27.9529Z" fill="#EF5268"/>
<path d="M19.7631 16.8092C20.4131 15.3392 19.0431 14.4892 18.9831 14.0392C18.8731 13.2192 18.8731 10.3892 19.0231 9.61923C19.0631 9.39923 21.9231 6.59922 22.1031 6.48922C22.4031 6.29922 22.9031 6.45923 23.1731 6.33923C23.5831 6.15923 23.3831 5.67921 24.0131 5.59921C25.1431 5.44921 29.1931 5.34923 29.4231 6.64923C29.5731 7.44923 29.3031 8.28923 29.4531 9.08923C29.5631 9.68923 31.5131 9.71923 30.9231 12.0892C30.8531 12.3792 29.8131 12.2392 30.1931 13.5992C30.2631 13.8692 31.3031 13.6992 30.9331 15.0892C30.8531 15.3792 29.9231 15.3192 30.1831 16.0792C29.6431 15.9292 27.8931 15.3292 27.7631 15.3292H21.9831C21.9831 15.3292 22.0931 15.8192 21.8931 15.9792C21.7631 16.0792 20.3231 16.3092 19.7431 16.8192L19.7631 16.8092Z" fill="#F9B027"/>
<path d="M22.003 31.3592C22.433 32.3492 21.323 32.4792 21.263 32.7392C21.153 33.2492 21.363 34.6192 21.263 34.7192C21.133 34.8492 19.893 34.5892 19.763 34.7192C19.633 34.8492 19.913 36.0792 19.763 36.2092C19.643 36.3092 18.913 36.0892 18.563 36.2292C18.343 36.3192 17.583 36.7992 16.903 37.0892C16.503 37.2592 16.503 38.2492 14.633 37.5992C14.483 37.5492 12.533 35.5092 12.423 35.3592C12.213 35.0792 12.393 34.4392 12.183 34.0992C11.883 33.6392 10.903 33.4492 10.793 32.6892C10.453 30.3592 11.483 30.2892 11.553 29.9992C11.693 29.3992 11.423 28.7892 11.663 28.1092C11.703 28.0092 13.073 26.6992 13.163 26.6492C13.453 26.4692 13.983 26.5892 14.423 26.3992C14.573 26.3392 14.523 25.4192 15.793 25.7792C15.943 25.8192 16.793 27.7092 17.893 25.7792C18.393 27.7792 20.303 30.1792 21.993 31.3692L22.003 31.3592Z" fill="#F9B027"/>
<path d="M10.8132 4.12915C11.4932 4.59915 12.3132 4.69916 12.9232 5.00916C13.0232 5.05916 13.0332 5.39917 13.3732 5.58917C13.6232 5.72917 15.1231 5.86917 15.2731 6.64917C15.4431 7.48917 15.4431 11.2292 15.2731 12.0692C15.0631 13.1192 13.1531 13.0092 13.0531 13.0892C12.2531 13.6992 14.5931 13.9692 13.8031 14.5792C13.6531 14.6992 12.3431 14.4291 11.6631 14.6891C11.5331 14.7391 10.0531 16.7392 9.80315 16.7992C7.78315 17.2692 7.82316 16.1392 7.58316 16.0792C6.69316 15.8692 5.44315 16.1992 4.48315 16.0792C5.28315 12.2392 7.87315 6.88917 10.8232 4.14917L10.8132 4.12915Z" fill="#F9B027"/>
<path d="M2.61297 73.8692C2.57297 73.2792 2.51297 72.6692 2.72297 72.1092C2.78297 71.9592 4.79297 69.9392 4.94297 69.8792C5.50297 69.6692 7.73297 69.6392 8.31297 69.7792C8.56297 69.8392 8.57297 70.3392 8.70297 70.3892C9.13297 70.5592 9.65297 70.4592 9.94297 70.6492C11.083 71.3792 10.733 72.6692 10.813 72.7592C10.953 72.9092 12.173 72.6292 12.303 72.7592C12.423 72.8792 12.213 75.1992 12.303 75.7492C12.233 75.7492 11.773 76.3592 10.993 76.4792C8.67296 76.8392 2.81297 76.9792 2.61297 73.8892V73.8692Z" fill="#F9B027"/>
<path d="M17.523 58.9492C17.573 59.6992 17.653 60.1192 17.263 60.8192C17.143 61.0392 13.893 64.2792 13.673 64.4192C13.373 64.6092 12.873 64.4492 12.603 64.5692C12.193 64.7492 12.393 65.2292 11.763 65.3092C11.133 65.3892 9.45302 65.3892 8.84302 65.2692C8.54302 65.2092 8.02302 64.1292 7.70302 63.9192C7.38302 63.7092 6.81302 63.8892 6.45302 63.6692C5.41302 63.0392 5.48302 61.9392 5.58302 60.8192L4.84302 62.3092V60.0692C7.15302 60.0392 10.363 60.3792 12.503 60.0992C13.193 60.0092 12.993 59.3992 13.293 59.3292C14.523 59.0492 15.823 59.3792 17.513 58.9492H17.523Z" fill="#F9B027"/>
<path d="M40.2731 60.0692C40.4031 58.9792 38.1731 58.6892 37.7831 58.4492C36.5231 57.6492 37.1331 56.8392 36.9031 55.8592C36.8831 55.7592 36.2831 54.6791 36.0531 54.2091C35.9631 54.0191 35.4831 54.2392 35.4131 53.9192C35.2231 53.1292 35.8931 53.5692 36.1531 53.0692C36.2731 52.8392 36.0731 52.2892 36.2831 51.9792C36.7431 51.2892 38.7431 49.7792 39.5231 49.2592C40.7431 53.4292 41.1431 55.6092 40.2731 60.0692Z" fill="#F9B027"/>
<path d="M29.353 40.0592C29.443 40.0892 29.4631 40.4991 29.5831 40.5491C30.0131 40.7191 30.543 40.6192 30.823 40.8092C31.703 41.3792 31.533 42.0491 31.823 42.7991C32.173 43.7191 32.1531 43.5691 32.4431 44.9091C32.5031 45.1991 33.113 45.1392 33.183 45.3992C33.523 46.6892 32.633 46.6192 32.563 46.7692C32.373 47.1992 32.503 47.7092 32.313 48.0192C31.513 49.2792 30.7031 48.6692 29.7231 48.8992C29.6231 48.9192 28.683 49.4992 28.093 49.7592C27.943 49.8292 27.983 50.7492 26.733 50.3692C26.403 49.3492 25.6031 49.8191 25.1131 49.4991C24.1331 48.8591 24.413 47.9391 24.123 47.5091C23.903 47.1891 22.833 46.6792 22.773 46.3692C22.353 44.2892 23.043 43.1991 23.633 41.5391C25.013 40.2991 27.4131 39.3291 29.3631 40.0491L29.353 40.0592Z" fill="#F9B027"/>
<path d="M27.953 60.0891C28.003 60.1391 27.903 61.4792 28.703 60.7992C28.833 60.6792 28.373 59.8892 29.273 60.0692C29.623 60.1392 29.313 60.7391 29.703 60.8291C30.573 61.0291 31.993 60.5692 32.423 61.8692C32.763 62.8892 31.773 63.2692 33.943 63.0592C34.363 64.0692 33.253 63.6192 33.193 63.9892C33.053 64.8692 33.833 64.3592 33.953 64.7892C34.323 66.1992 34.233 68.1892 32.453 67.5392L33.193 68.2791C31.513 67.7791 31.583 69.4791 30.213 69.7791L30.953 70.5191C28.363 70.5191 26.763 71.1092 25.113 68.9092C24.903 68.6192 25.083 67.9791 24.873 67.6491C24.113 66.4891 22.803 66.9592 23.513 64.0592C23.573 63.8092 24.073 63.7992 24.123 63.6792C24.593 62.4092 24.563 61.2692 26.483 61.5592L25.743 60.8192C27.043 61.4692 27.383 59.5891 27.963 60.0891H27.953Z" fill="#F9B027"/>
</svg>
