<svg width="38" height="63" viewBox="0 0 38 63" fill="none" xmlns="http://www.w3.org/2000/svg">
<path d="M30.054 4.16947C35.094 9.53947 38.684 17.4395 36.894 24.9295C36.234 27.6595 32.824 31.4095 29.804 31.0995C28.584 30.9795 25.904 28.9395 25.234 28.9195C23.894 28.8895 24.134 31.6395 24.774 32.1995C24.934 32.3395 28.414 33.7395 28.624 33.7695C29.844 33.9695 32.444 33.4995 33.624 33.0295C35.594 42.7595 32.914 52.9595 25.054 59.3295C18.034 65.0195 1.83401 63.0495 0.234009 52.8195C-0.82599 46.0095 1.75401 39.9295 7.18401 35.8695C8.78401 34.6695 12.644 32.7295 14.454 34.1295C15.144 34.6595 15.924 40.0695 17.414 37.8995C18.674 36.0695 15.774 30.8895 12.934 30.8595C9.81401 30.8295 9.694 33.4495 6.774 29.8695C1.694 23.6395 3.07401 13.2395 7.214 6.8195C12.134 -0.800502 23.764 -2.53053 30.044 4.16947H30.054Z" fill="#E9549D"/>
</svg>
