<svg width="53" height="64" viewBox="0 0 53 64" fill="none" xmlns="http://www.w3.org/2000/svg">
<path d="M29.4862 62.6C20.1262 62.6 12.9262 60.14 8.06617 55.28C7.23617 54.45 6.76617 53.64 6.68617 52.87C6.61617 52.2 6.94617 51.54 7.70617 50.86L13.8462 45.98C14.2962 45.61 14.7062 45.43 15.1262 45.43C15.7462 45.43 16.4362 45.82 17.1862 46.6C20.6562 50.07 24.8962 51.82 29.8062 51.82C32.2162 51.82 34.1562 51.33 35.5662 50.38C37.0962 49.34 37.8662 48.05 37.8662 46.54C37.8662 44.84 37.1362 43.46 35.7562 42.54C34.5262 41.72 32.6262 41.05 29.9362 40.49L21.2162 38.59C17.2062 37.74 13.9262 35.97 11.4662 33.33C9.00617 30.7 7.80616 27.49 7.80616 23.54C7.80616 18.63 9.73618 14.7 13.6962 11.51C17.6762 8.31001 22.8262 6.69 29.0162 6.69C33.2062 6.69 36.9562 7.31 40.1662 8.53C43.3762 9.75 45.9462 11.16 47.8162 12.72C48.7662 13.53 49.2862 14.31 49.3062 14.96C49.3262 15.45 49.0762 15.95 48.5462 16.48L43.4662 21.64C42.9562 22.15 42.4362 22.39 41.8662 22.39C41.2962 22.39 40.5862 22.12 39.8262 21.6C35.9262 18.8 32.2662 17.38 28.9462 17.38C26.8762 17.38 25.1162 17.78 23.6962 18.58C21.7062 19.7 21.2862 21.25 21.2862 22.35C21.2862 24.05 22.1662 26.28 26.3562 27.21L36.5062 29.51C46.6562 31.69 51.5862 36.85 51.5862 45.27C51.5862 49.88 49.7062 53.83 45.8462 57.34C42.0062 60.83 36.5162 62.59 29.5062 62.59L29.4862 62.6Z" fill="#FC0B50"/>
<path d="M29.0161 7.69998C33.0861 7.69998 36.7161 8.29999 39.8061 9.46999C42.9061 10.65 45.3861 12.01 47.1461 13.48C47.9761 14.19 48.2861 14.73 48.2961 15C48.3061 15.26 47.9661 15.63 47.8161 15.79L42.7461 20.93C42.2761 21.4 41.9661 21.4 41.8561 21.4C41.4761 21.4 40.9661 21.19 40.4161 20.8C36.3361 17.87 32.4661 16.38 28.9361 16.38C26.6961 16.38 24.7661 16.83 23.1961 17.71C20.7761 19.07 20.2761 20.98 20.2761 22.35C20.2761 24.05 21.0361 27.06 26.1161 28.19L36.2861 30.5C45.8961 32.57 50.5661 37.4 50.5661 45.28C50.5661 49.6 48.7961 53.3 45.1561 56.61C41.5061 59.92 36.2361 61.6 29.4861 61.6C20.4061 61.6 13.4361 59.24 8.76613 54.57C8.30613 54.11 7.74613 53.43 7.67613 52.76C7.64613 52.45 7.86613 52.07 8.32613 51.64L14.4861 46.74C14.6561 46.6 14.9061 46.43 15.1161 46.43C15.4361 46.43 15.9361 46.75 16.4861 47.32C20.1361 50.97 24.6161 52.82 29.7961 52.82C32.4161 52.82 34.5461 52.28 36.1161 51.2C38.3761 49.66 38.8561 47.81 38.8561 46.53C38.8561 44.48 37.9761 42.81 36.2961 41.69C34.9561 40.8 32.9361 40.08 30.1361 39.5L21.3961 37.59C17.5361 36.77 14.5261 35.15 12.1661 32.63C9.88612 30.19 8.77612 27.21 8.77612 23.53C8.77612 18.94 10.5861 15.26 14.2961 12.28C18.0861 9.22998 23.0361 7.67999 28.9861 7.67999M29.0161 5.69998C22.5661 5.69998 17.2461 7.37999 13.0761 10.74C8.89613 14.1 6.80612 18.37 6.80612 23.55C6.80612 27.73 8.11613 31.22 10.7361 34.02C13.3561 36.82 16.7761 38.67 21.0061 39.57L29.7261 41.47C32.2661 42 34.0861 42.63 35.1961 43.37C36.3061 44.11 36.8661 45.17 36.8661 46.54C36.8661 47.7 36.2461 48.71 35.0061 49.55C33.7661 50.4 32.0361 50.82 29.8061 50.82C25.1561 50.82 21.1861 49.18 17.9061 45.9C16.9561 44.92 16.0261 44.42 15.1261 44.42C14.4761 44.42 13.8461 44.67 13.2261 45.18L7.03613 50.1C6.02613 51 5.57613 51.95 5.68613 52.96C5.79613 53.96 6.34613 54.97 7.35613 55.97C12.4361 61.05 19.8061 63.58 29.4861 63.58C36.7861 63.58 42.4561 61.74 46.4961 58.07C50.5461 54.4 52.5661 50.13 52.5661 45.26C52.5661 36.38 47.2761 30.8 36.7061 28.52L26.5561 26.22C23.6961 25.59 22.2761 24.29 22.2761 22.33C22.2761 21.11 22.9061 20.15 24.1761 19.43C25.4461 18.72 27.0361 18.36 28.9361 18.36C32.0561 18.36 35.4961 19.71 39.2461 22.4C40.1761 23.05 41.0461 23.37 41.8561 23.37C42.6661 23.37 43.4661 23.02 44.1661 22.32L49.2461 17.16C50.8861 15.52 50.6161 13.78 48.4561 11.93C46.4961 10.29 43.8561 8.83999 40.5261 7.56999C37.1961 6.29999 33.3561 5.66998 29.0261 5.66998L29.0161 5.69998Z" fill="#231F20"/>
<path d="M29.2061 62.32C19.8461 62.32 12.6461 59.86 7.78614 55C6.95614 54.17 6.48614 53.36 6.40614 52.59C6.33614 51.92 6.66614 51.26 7.42614 50.58L13.5661 45.7C14.0161 45.33 14.4261 45.15 14.8461 45.15C15.4661 45.15 16.1561 45.54 16.9061 46.32C20.3761 49.79 24.6161 51.54 29.5261 51.54C31.9361 51.54 33.8761 51.05 35.2861 50.1C36.8161 49.06 37.5861 47.77 37.5861 46.26C37.5861 44.56 36.8561 43.18 35.4761 42.26C34.2461 41.44 32.3461 40.77 29.6561 40.21L20.9361 38.31C16.9261 37.46 13.6461 35.69 11.1861 33.05C8.72614 30.42 7.52614 27.21 7.52614 23.26C7.52614 18.35 9.45613 14.42 13.4161 11.23C17.3961 8.03004 22.5461 6.41003 28.7361 6.41003C32.9261 6.41003 36.6761 7.03003 39.8861 8.25003C43.0961 9.47003 45.6661 10.88 47.5361 12.44C48.4861 13.25 49.0061 14.03 49.0261 14.68C49.0461 15.17 48.7961 15.67 48.2661 16.2L43.1861 21.36C42.6761 21.87 42.1561 22.11 41.5861 22.11C41.0161 22.11 40.3061 21.84 39.5461 21.32C35.6461 18.52 31.9861 17.1 28.6661 17.1C26.5961 17.1 24.8361 17.5 23.4161 18.3C21.4261 19.42 21.0061 20.97 21.0061 22.07C21.0061 23.77 21.8861 26 26.0761 26.93L36.2261 29.23C46.3761 31.41 51.3061 36.57 51.3061 44.99C51.3061 49.6 49.4261 53.55 45.5661 57.06C41.7261 60.55 36.2361 62.31 29.2261 62.31L29.2061 62.32Z" fill="#FC0B50"/>
<path d="M28.7263 7.42001C32.7963 7.42001 36.4263 8.02002 39.5163 9.19002C42.6163 10.37 45.0963 11.73 46.8563 13.2C47.6863 13.91 47.9963 14.45 48.0063 14.72C48.0163 14.98 47.6763 15.35 47.5263 15.51L42.4563 20.65C41.9863 21.12 41.6763 21.12 41.5663 21.12C41.1863 21.12 40.6763 20.91 40.1263 20.52C36.0463 17.59 32.1763 16.1 28.6463 16.1C26.4063 16.1 24.4763 16.55 22.9063 17.43C20.4863 18.79 19.9863 20.7 19.9863 22.07C19.9863 23.77 20.7463 26.78 25.8263 27.91L35.9963 30.22C45.6063 32.29 50.2763 37.12 50.2763 45C50.2763 49.32 48.5063 53.02 44.8663 56.33C41.2163 59.64 35.9463 61.32 29.1963 61.32C20.1163 61.32 13.1463 58.96 8.47633 54.29C8.01633 53.83 7.45632 53.15 7.38632 52.48C7.35632 52.17 7.57633 51.79 8.03633 51.36L14.1963 46.46C14.3663 46.32 14.6163 46.15 14.8263 46.15C15.1463 46.15 15.6463 46.47 16.1963 47.04C19.8463 50.69 24.3263 52.54 29.5063 52.54C32.1263 52.54 34.2563 52 35.8263 50.92C38.0863 49.38 38.5663 47.53 38.5663 46.25C38.5663 44.2 37.6863 42.53 36.0063 41.41C34.6663 40.52 32.6463 39.8 29.8463 39.22L21.1063 37.31C17.2463 36.49 14.2363 34.87 11.8763 32.35C9.59633 29.91 8.48633 26.93 8.48633 23.25C8.48633 18.66 10.2963 14.98 14.0063 12C17.7963 8.95002 22.7463 7.40002 28.6963 7.40002M28.7263 5.42001C22.2763 5.42001 16.9563 7.10002 12.7863 10.46C8.60633 13.82 6.51633 18.09 6.51633 23.27C6.51633 27.45 7.82634 30.94 10.4463 33.74C13.0663 36.54 16.4863 38.39 20.7163 39.29L29.4363 41.19C31.9763 41.72 33.7963 42.35 34.9063 43.09C36.0163 43.83 36.5763 44.89 36.5763 46.26C36.5763 47.42 35.9563 48.43 34.7163 49.27C33.4763 50.12 31.7463 50.54 29.5163 50.54C24.8663 50.54 20.8963 48.9 17.6163 45.62C16.6663 44.64 15.7363 44.14 14.8363 44.14C14.1863 44.14 13.5563 44.39 12.9363 44.9L6.74632 49.82C5.73632 50.72 5.28633 51.67 5.39633 52.68C5.50633 53.68 6.05633 54.69 7.06633 55.69C12.1463 60.77 19.5163 63.3 29.1963 63.3C36.4963 63.3 42.1663 61.46 46.2063 57.79C50.2563 54.12 52.2763 49.85 52.2763 44.98C52.2763 36.1 46.9863 30.52 36.4163 28.24L26.2663 25.94C23.4063 25.31 21.9863 24.01 21.9863 22.05C21.9863 20.83 22.6163 19.87 23.8863 19.15C25.1563 18.44 26.7463 18.08 28.6463 18.08C31.7663 18.08 35.2063 19.43 38.9563 22.12C39.8863 22.77 40.7563 23.09 41.5663 23.09C42.3763 23.09 43.1763 22.74 43.8763 22.04L48.9563 16.88C50.5963 15.24 50.3263 13.5 48.1663 11.65C46.2063 10.01 43.5663 8.56002 40.2363 7.29002C36.9063 6.02002 33.0663 5.39001 28.7363 5.39001L28.7263 5.42001Z" fill="#231F20"/>
<path d="M28.9261 62.04C19.5661 62.04 12.3661 59.58 7.50612 54.72C6.67612 53.89 6.20611 53.08 6.12611 52.31C6.05611 51.64 6.38612 50.98 7.14612 50.3L13.2861 45.42C13.7361 45.05 14.1461 44.87 14.5661 44.87C15.1861 44.87 15.8761 45.26 16.6261 46.04C20.0961 49.51 24.3361 51.26 29.2461 51.26C31.6561 51.26 33.5961 50.77 35.0061 49.82C36.5361 48.78 37.3061 47.49 37.3061 45.98C37.3061 44.28 36.5761 42.9 35.1961 41.98C33.9661 41.16 32.0661 40.49 29.3761 39.93L20.6561 38.03C16.6461 37.18 13.3661 35.41 10.9061 32.77C8.44611 30.14 7.24611 26.93 7.24611 22.98C7.24611 18.07 9.17611 14.14 13.1361 10.95C17.1161 7.75 22.2661 6.13 28.4561 6.13C32.6461 6.13 36.3961 6.75 39.6061 7.97C42.8161 9.19 45.3861 10.6 47.2561 12.16C48.2061 12.97 48.7261 13.75 48.7461 14.4C48.7661 14.89 48.5161 15.39 47.9861 15.92L42.9061 21.08C42.3961 21.59 41.8761 21.83 41.3061 21.83C40.7361 21.83 40.0261 21.56 39.2661 21.04C35.3661 18.24 31.7061 16.82 28.3861 16.82C26.3161 16.82 24.5561 17.22 23.1361 18.02C21.1461 19.14 20.7261 20.69 20.7261 21.79C20.7261 23.49 21.6061 25.72 25.7961 26.65L35.9461 28.95C46.0961 31.13 51.0261 36.29 51.0261 44.71C51.0261 49.32 49.1461 53.27 45.2861 56.78C41.4461 60.27 35.9561 62.03 28.9461 62.03L28.9261 62.04Z" fill="#FC0B50"/>
<path d="M28.4463 7.13998C32.5163 7.13998 36.1463 7.73999 39.2363 8.90999C42.3363 10.09 44.8163 11.45 46.5763 12.92C47.4063 13.63 47.7163 14.17 47.7263 14.44C47.7363 14.7 47.3963 15.07 47.2463 15.23L42.1763 20.37C41.7063 20.84 41.3963 20.84 41.2863 20.84C40.9063 20.84 40.3963 20.63 39.8463 20.24C35.7663 17.31 31.8963 15.82 28.3663 15.82C26.1263 15.82 24.1963 16.27 22.6263 17.15C20.2063 18.51 19.7063 20.42 19.7063 21.79C19.7063 23.49 20.4663 26.5 25.5463 27.63L35.7163 29.94C45.3263 32.01 49.9963 36.84 49.9963 44.72C49.9963 49.04 48.2263 52.74 44.5863 56.05C40.9363 59.36 35.6663 61.04 28.9163 61.04C19.8363 61.04 12.8663 58.68 8.19631 54.01C7.73631 53.55 7.17629 52.87 7.10629 52.2C7.07629 51.89 7.2963 51.51 7.7563 51.08L13.9163 46.18C14.0863 46.04 14.3363 45.87 14.5463 45.87C14.8663 45.87 15.3663 46.19 15.9163 46.76C19.5663 50.41 24.0463 52.26 29.2263 52.26C31.8463 52.26 33.9763 51.72 35.5463 50.64C37.8063 49.1 38.2863 47.25 38.2863 45.97C38.2863 43.92 37.4063 42.25 35.7263 41.13C34.3863 40.24 32.3663 39.52 29.5663 38.94L20.8263 37.03C16.9663 36.21 13.9563 34.59 11.5963 32.07C9.3163 29.63 8.2063 26.65 8.2063 22.97C8.2063 18.38 10.0163 14.7 13.7263 11.72C17.5163 8.66999 22.4663 7.12 28.4163 7.12M28.4463 5.13998C21.9963 5.13998 16.6763 6.81999 12.5063 10.18C8.3263 13.54 6.2363 17.81 6.2363 22.99C6.2363 27.17 7.54629 30.66 10.1663 33.46C12.7863 36.26 16.2063 38.11 20.4363 39.01L29.1563 40.91C31.6963 41.44 33.5163 42.07 34.6263 42.81C35.7363 43.55 36.2963 44.61 36.2963 45.98C36.2963 47.14 35.6763 48.15 34.4363 48.99C33.1963 49.84 31.4663 50.26 29.2363 50.26C24.5863 50.26 20.6163 48.62 17.3363 45.34C16.3863 44.36 15.4563 43.86 14.5563 43.86C13.9063 43.86 13.2763 44.11 12.6563 44.62L6.46629 49.54C5.45629 50.44 5.0063 51.39 5.1163 52.4C5.2263 53.4 5.7763 54.41 6.7863 55.41C11.8663 60.49 19.2363 63.02 28.9163 63.02C36.2163 63.02 41.8863 61.18 45.9263 57.51C49.9763 53.84 51.9963 49.57 51.9963 44.7C51.9963 35.82 46.7063 30.24 36.1363 27.96L25.9863 25.66C23.1263 25.03 21.7063 23.73 21.7063 21.77C21.7063 20.55 22.3363 19.59 23.6063 18.87C24.8763 18.16 26.4663 17.8 28.3663 17.8C31.4863 17.8 34.9263 19.15 38.6763 21.84C39.6063 22.49 40.4763 22.81 41.2863 22.81C42.0963 22.81 42.8963 22.46 43.5963 21.76L48.6763 16.6C50.3163 14.96 50.0463 13.22 47.8863 11.37C45.9263 9.73 43.2863 8.27999 39.9563 7.00999C36.6263 5.73999 32.7863 5.10999 28.4563 5.10999L28.4463 5.13998Z" fill="#231F20"/>
<path d="M28.6363 61.75C19.2763 61.75 12.0763 59.29 7.21631 54.43C6.38631 53.6 5.91632 52.79 5.83632 52.02C5.76632 51.35 6.09631 50.69 6.85631 50.01L12.9963 45.13C13.4463 44.76 13.8563 44.58 14.2763 44.58C14.8963 44.58 15.5863 44.97 16.3363 45.75C19.8063 49.22 24.0463 50.97 28.9563 50.97C31.3663 50.97 33.3063 50.48 34.7163 49.53C36.2463 48.49 37.0163 47.2 37.0163 45.69C37.0163 43.99 36.2863 42.61 34.9063 41.69C33.6763 40.87 31.7763 40.2 29.0863 39.64L20.3663 37.74C16.3563 36.89 13.0763 35.12 10.6163 32.48C8.15631 29.85 6.95631 26.64 6.95631 22.69C6.95631 17.78 8.88631 13.85 12.8463 10.66C16.8263 7.46002 21.9763 5.84003 28.1663 5.84003C32.3563 5.84003 36.1063 6.46002 39.3163 7.68002C42.5263 8.90002 45.0963 10.31 46.9663 11.87C47.9163 12.68 48.4363 13.46 48.4563 14.11C48.4763 14.6 48.2263 15.1 47.6963 15.63L42.6163 20.79C42.1063 21.3 41.5863 21.54 41.0163 21.54C40.4463 21.54 39.7363 21.27 38.9763 20.75C35.0763 17.95 31.4163 16.53 28.0963 16.53C26.0263 16.53 24.2663 16.93 22.8463 17.73C20.8563 18.85 20.4363 20.4 20.4363 21.5C20.4363 23.2 21.3163 25.43 25.5063 26.36L35.6563 28.66C45.8063 30.84 50.7363 36 50.7363 44.42C50.7363 49.03 48.8563 52.98 44.9963 56.49C41.1563 59.98 35.6663 61.74 28.6563 61.74L28.6363 61.75Z" fill="#FC0B50"/>
<path d="M28.1663 6.85001C32.2363 6.85001 35.8663 7.45001 38.9563 8.62001C42.0563 9.80001 44.5363 11.16 46.2963 12.63C47.1263 13.34 47.4363 13.88 47.4463 14.15C47.4563 14.41 47.1163 14.78 46.9663 14.94L41.8963 20.08C41.4263 20.55 41.1163 20.55 41.0063 20.55C40.6263 20.55 40.1163 20.34 39.5663 19.95C35.4863 17.02 31.6163 15.53 28.0863 15.53C25.8463 15.53 23.9163 15.98 22.3463 16.86C19.9263 18.22 19.4263 20.13 19.4263 21.5C19.4263 23.2 20.1863 26.21 25.2663 27.34L35.4363 29.65C45.0463 31.72 49.7163 36.55 49.7163 44.43C49.7163 48.75 47.9463 52.45 44.3063 55.76C40.6563 59.07 35.3863 60.75 28.6363 60.75C19.5563 60.75 12.5863 58.39 7.91626 53.72C7.45626 53.26 6.89626 52.58 6.82626 51.91C6.79626 51.6 7.01627 51.22 7.47627 50.79L13.6363 45.89C13.8063 45.75 14.0563 45.58 14.2663 45.58C14.5863 45.58 15.0863 45.9 15.6363 46.47C19.2863 50.12 23.7663 51.97 28.9463 51.97C31.5663 51.97 33.6963 51.43 35.2663 50.35C37.5263 48.81 38.0063 46.96 38.0063 45.68C38.0063 43.63 37.1263 41.96 35.4463 40.84C34.1063 39.95 32.0863 39.23 29.2863 38.65L20.5463 36.74C16.6863 35.92 13.6763 34.3 11.3163 31.78C9.03627 29.34 7.92627 26.36 7.92627 22.68C7.92627 18.09 9.73627 14.41 13.4463 11.43C17.2363 8.38001 22.1863 6.83 28.1363 6.83M28.1663 4.85001C21.7163 4.85001 16.3963 6.53 12.2263 9.89C8.04627 13.25 5.95627 17.52 5.95627 22.7C5.95627 26.88 7.26626 30.37 9.88626 33.17C12.5063 35.97 15.9263 37.82 20.1563 38.72L28.8763 40.62C31.4163 41.15 33.2363 41.78 34.3463 42.52C35.4563 43.26 36.0163 44.32 36.0163 45.69C36.0163 46.85 35.3963 47.86 34.1563 48.7C32.9163 49.55 31.1863 49.97 28.9563 49.97C24.3063 49.97 20.3363 48.33 17.0563 45.05C16.1063 44.07 15.1763 43.57 14.2763 43.57C13.6263 43.57 12.9963 43.82 12.3763 44.33L6.18626 49.25C5.17626 50.15 4.72627 51.1 4.83627 52.11C4.94627 53.11 5.49627 54.12 6.50627 55.12C11.5863 60.2 18.9563 62.73 28.6363 62.73C35.9363 62.73 41.6063 60.89 45.6463 57.22C49.6963 53.55 51.7163 49.28 51.7163 44.41C51.7163 35.53 46.4263 29.95 35.8563 27.67L25.7063 25.37C22.8463 24.74 21.4263 23.44 21.4263 21.48C21.4263 20.26 22.0563 19.3 23.3263 18.58C24.5963 17.87 26.1863 17.51 28.0863 17.51C31.2063 17.51 34.6463 18.86 38.3963 21.55C39.3263 22.2 40.1963 22.52 41.0063 22.52C41.8163 22.52 42.6163 22.17 43.3163 21.47L48.3963 16.31C50.0363 14.67 49.7663 12.93 47.6063 11.08C45.6463 9.44 43.0063 7.99 39.6763 6.72C36.3463 5.45 32.5063 4.82001 28.1763 4.82001L28.1663 4.85001Z" fill="#231F20"/>
<path d="M28.3563 61.47C18.9963 61.47 11.7963 59.01 6.93629 54.15C6.10629 53.32 5.63629 52.51 5.55629 51.74C5.48629 51.07 5.81629 50.41 6.57629 49.73L12.7163 44.85C13.1663 44.48 13.5763 44.3 13.9963 44.3C14.6163 44.3 15.3063 44.69 16.0563 45.47C19.5263 48.94 23.7663 50.69 28.6763 50.69C31.0863 50.69 33.0263 50.2 34.4363 49.25C35.9663 48.21 36.7363 46.92 36.7363 45.41C36.7363 43.71 36.0063 42.33 34.6263 41.41C33.3963 40.59 31.4963 39.92 28.8063 39.36L20.0863 37.46C16.0763 36.61 12.7963 34.84 10.3363 32.2C7.8763 29.57 6.6763 26.36 6.6763 22.41C6.6763 17.5 8.6063 13.57 12.5663 10.38C16.5463 7.18 21.6963 5.56 27.8863 5.56C32.0763 5.56 35.8263 6.18001 39.0363 7.40001C42.2463 8.62001 44.8163 10.03 46.6863 11.59C47.6363 12.4 48.1563 13.18 48.1763 13.83C48.1963 14.32 47.9463 14.82 47.4163 15.35L42.3363 20.51C41.8263 21.02 41.3063 21.26 40.7363 21.26C40.1663 21.26 39.4563 20.99 38.6963 20.47C34.7963 17.67 31.1363 16.25 27.8163 16.25C25.7463 16.25 23.9863 16.65 22.5663 17.45C20.5763 18.57 20.1563 20.12 20.1563 21.22C20.1563 22.92 21.0363 25.15 25.2263 26.08L35.3763 28.38C45.5263 30.56 50.4563 35.72 50.4563 44.14C50.4563 48.75 48.5763 52.7 44.7163 56.21C40.8763 59.7 35.3863 61.46 28.3763 61.46L28.3563 61.47Z" fill="#FC0B50"/>
<path d="M27.8762 6.57004C31.9462 6.57004 35.5762 7.17004 38.6662 8.34004C41.7662 9.52004 44.2462 10.88 46.0062 12.35C46.8362 13.06 47.1462 13.6 47.1562 13.87C47.1662 14.13 46.8262 14.5 46.6762 14.66L41.6062 19.8C41.1362 20.27 40.8262 20.27 40.7162 20.27C40.3362 20.27 39.8262 20.06 39.2762 19.67C35.1962 16.74 31.3262 15.25 27.7962 15.25C25.5562 15.25 23.6262 15.7 22.0562 16.58C19.6362 17.94 19.1362 19.85 19.1362 21.22C19.1362 22.92 19.8962 25.93 24.9762 27.06L35.1462 29.37C44.7562 31.44 49.4262 36.27 49.4262 44.15C49.4262 48.47 47.6562 52.17 44.0162 55.48C40.3662 58.79 35.0962 60.47 28.3462 60.47C19.2662 60.47 12.2962 58.11 7.62624 53.44C7.16624 52.98 6.60624 52.3 6.53624 51.63C6.50624 51.32 6.72623 50.94 7.18623 50.51L13.3462 45.61C13.5162 45.47 13.7662 45.3 13.9762 45.3C14.2962 45.3 14.7962 45.62 15.3462 46.19C18.9962 49.84 23.4762 51.69 28.6562 51.69C31.2762 51.69 33.4062 51.15 34.9762 50.07C37.2362 48.53 37.7162 46.68 37.7162 45.4C37.7162 43.35 36.8362 41.68 35.1562 40.56C33.8162 39.67 31.7962 38.95 28.9962 38.37L20.2562 36.46C16.3962 35.64 13.3862 34.02 11.0262 31.5C8.74623 29.06 7.63623 26.08 7.63623 22.4C7.63623 17.81 9.44623 14.13 13.1562 11.15C16.9462 8.10004 21.8962 6.55003 27.8462 6.55003M27.8762 4.57004C21.4262 4.57004 16.1062 6.25003 11.9362 9.61003C7.75623 12.97 5.66623 17.24 5.66623 22.42C5.66623 26.6 6.97624 30.09 9.59624 32.89C12.2162 35.69 15.6362 37.54 19.8662 38.44L28.5862 40.34C31.1262 40.87 32.9462 41.5 34.0562 42.24C35.1662 42.98 35.7262 44.04 35.7262 45.41C35.7262 46.57 35.1062 47.58 33.8662 48.42C32.6262 49.27 30.8962 49.69 28.6662 49.69C24.0162 49.69 20.0462 48.05 16.7662 44.77C15.8162 43.79 14.8862 43.29 13.9862 43.29C13.3362 43.29 12.7062 43.54 12.0862 44.05L5.89624 48.97C4.88624 49.87 4.43623 50.82 4.54623 51.83C4.65623 52.83 5.20623 53.84 6.21623 54.84C11.2962 59.92 18.6662 62.45 28.3462 62.45C35.6462 62.45 41.3162 60.61 45.3562 56.94C49.4062 53.27 51.4262 49 51.4262 44.13C51.4262 35.25 46.1362 29.67 35.5662 27.39L25.4162 25.09C22.5562 24.46 21.1362 23.16 21.1362 21.2C21.1362 19.98 21.7662 19.02 23.0362 18.3C24.3062 17.59 25.8962 17.23 27.7962 17.23C30.9162 17.23 34.3562 18.58 38.1062 21.27C39.0362 21.92 39.9062 22.24 40.7162 22.24C41.5262 22.24 42.3262 21.89 43.0262 21.19L48.1062 16.03C49.7462 14.39 49.4762 12.65 47.3162 10.8C45.3562 9.16003 42.7162 7.71003 39.3862 6.44003C36.0562 5.17003 32.2162 4.54004 27.8862 4.54004L27.8762 4.57004Z" fill="#231F20"/>
<path d="M28.0763 61.19C18.7163 61.19 11.5163 58.73 6.65626 53.87C5.82626 53.04 5.35626 52.23 5.27626 51.46C5.20626 50.79 5.53626 50.13 6.29626 49.45L12.4363 44.57C12.8863 44.2 13.2963 44.02 13.7163 44.02C14.3363 44.02 15.0263 44.41 15.7763 45.19C19.2463 48.66 23.4863 50.41 28.3963 50.41C30.8063 50.41 32.7463 49.92 34.1563 48.97C35.6863 47.93 36.4563 46.64 36.4563 45.13C36.4563 43.43 35.7263 42.05 34.3463 41.13C33.1163 40.31 31.2163 39.64 28.5263 39.08L19.8063 37.18C15.7963 36.33 12.5163 34.56 10.0563 31.92C7.59626 29.29 6.39627 26.08 6.39627 22.13C6.39627 17.22 8.32627 13.29 12.2863 10.1C16.2663 6.90004 21.4163 5.28003 27.6063 5.28003C31.7963 5.28003 35.5463 5.90004 38.7563 7.12004C41.9663 8.34004 44.5363 9.75003 46.4063 11.31C47.3563 12.12 47.8763 12.9 47.8963 13.55C47.9163 14.04 47.6663 14.54 47.1363 15.07L42.0563 20.23C41.5463 20.74 41.0263 20.98 40.4563 20.98C39.8863 20.98 39.1763 20.71 38.4163 20.19C34.5163 17.39 30.8563 15.97 27.5363 15.97C25.4663 15.97 23.7063 16.37 22.2863 17.17C20.2963 18.29 19.8763 19.84 19.8763 20.94C19.8763 22.64 20.7563 24.87 24.9463 25.8L35.0963 28.1C45.2463 30.28 50.1763 35.44 50.1763 43.86C50.1763 48.47 48.2963 52.42 44.4363 55.93C40.5963 59.42 35.1063 61.18 28.0963 61.18L28.0763 61.19Z" fill="#FC0B50"/>
<path d="M27.5962 6.29001C31.6662 6.29001 35.2962 6.89 38.3862 8.06C41.4862 9.24 43.9662 10.6 45.7262 12.07C46.5562 12.78 46.8662 13.32 46.8762 13.59C46.8862 13.85 46.5462 14.22 46.3962 14.38L41.3262 19.52C40.8562 19.99 40.5462 19.99 40.4362 19.99C40.0562 19.99 39.5462 19.78 38.9962 19.39C34.9162 16.46 31.0462 14.97 27.5162 14.97C25.2762 14.97 23.3462 15.42 21.7762 16.3C19.3562 17.66 18.8562 19.57 18.8562 20.94C18.8562 22.64 19.6162 25.65 24.6962 26.78L34.8662 29.09C44.4762 31.16 49.1462 35.99 49.1462 43.87C49.1462 48.19 47.3762 51.89 43.7362 55.2C40.0862 58.51 34.8162 60.19 28.0662 60.19C18.9862 60.19 12.0162 57.83 7.34621 53.16C6.88621 52.7 6.32621 52.02 6.25621 51.35C6.22621 51.04 6.4462 50.66 6.9062 50.23L13.0662 45.33C13.2362 45.19 13.4862 45.02 13.6962 45.02C14.0162 45.02 14.5162 45.34 15.0662 45.91C18.7162 49.56 23.1962 51.41 28.3762 51.41C30.9962 51.41 33.1262 50.87 34.6962 49.79C36.9562 48.25 37.4362 46.4 37.4362 45.12C37.4362 43.07 36.5562 41.4 34.8762 40.28C33.5362 39.39 31.5162 38.67 28.7162 38.09L19.9762 36.18C16.1162 35.36 13.1062 33.74 10.7462 31.22C8.4662 28.78 7.3562 25.8 7.3562 22.12C7.3562 17.53 9.16621 13.85 12.8762 10.87C16.6662 7.82001 21.6162 6.27 27.5662 6.27M27.5962 4.29001C21.1462 4.29001 15.8262 5.97 11.6562 9.33C7.4762 12.69 5.3862 16.96 5.3862 22.14C5.3862 26.32 6.69621 29.81 9.31621 32.61C11.9362 35.41 15.3562 37.26 19.5862 38.16L28.3062 40.06C30.8462 40.59 32.6662 41.22 33.7762 41.96C34.8862 42.7 35.4462 43.76 35.4462 45.13C35.4462 46.29 34.8262 47.3 33.5862 48.14C32.3462 48.99 30.6162 49.41 28.3862 49.41C23.7362 49.41 19.7662 47.77 16.4862 44.49C15.5362 43.51 14.6062 43.01 13.7062 43.01C13.0562 43.01 12.4262 43.26 11.8062 43.77L5.61621 48.69C4.60621 49.59 4.15621 50.54 4.26621 51.55C4.37621 52.55 4.9262 53.56 5.9362 54.56C11.0162 59.64 18.3862 62.17 28.0662 62.17C35.3662 62.17 41.0362 60.33 45.0762 56.66C49.1262 52.99 51.1462 48.72 51.1462 43.85C51.1462 34.97 45.8562 29.39 35.2862 27.11L25.1362 24.81C22.2762 24.18 20.8562 22.88 20.8562 20.92C20.8562 19.7 21.4862 18.74 22.7562 18.02C24.0262 17.31 25.6162 16.95 27.5162 16.95C30.6362 16.95 34.0762 18.3 37.8262 20.99C38.7562 21.64 39.6262 21.96 40.4362 21.96C41.2462 21.96 42.0462 21.61 42.7462 20.91L47.8262 15.75C49.4662 14.11 49.1962 12.37 47.0362 10.52C45.0762 8.88 42.4362 7.43 39.1062 6.16C35.7762 4.89 31.9362 4.26001 27.6062 4.26001L27.5962 4.29001Z" fill="#231F20"/>
<path d="M27.7862 60.9C18.4262 60.9 11.2262 58.44 6.36622 53.58C5.53622 52.75 5.06622 51.94 4.98622 51.17C4.91622 50.5 5.24622 49.84 6.00622 49.16L12.1462 44.28C12.5962 43.91 13.0062 43.73 13.4262 43.73C14.0462 43.73 14.7362 44.12 15.4862 44.9C18.9562 48.37 23.1962 50.12 28.1062 50.12C30.5162 50.12 32.4562 49.63 33.8662 48.68C35.3962 47.64 36.1662 46.35 36.1662 44.84C36.1662 43.14 35.4362 41.76 34.0562 40.84C32.8262 40.02 30.9262 39.35 28.2362 38.79L19.5162 36.89C15.5062 36.04 12.2262 34.27 9.76622 31.63C7.30622 29 6.10621 25.79 6.10621 21.84C6.10621 16.93 8.03621 13 11.9962 9.80998C15.9762 6.60998 21.1262 4.98999 27.3162 4.98999C31.5062 4.98999 35.2562 5.60999 38.4662 6.82999C41.6762 8.04999 44.2462 9.45999 46.1162 11.02C47.0662 11.83 47.5862 12.61 47.6062 13.26C47.6262 13.75 47.3762 14.25 46.8462 14.78L41.7662 19.94C41.2562 20.45 40.7362 20.69 40.1662 20.69C39.5962 20.69 38.8862 20.42 38.1262 19.9C34.2262 17.1 30.5662 15.68 27.2462 15.68C25.1762 15.68 23.4162 16.08 21.9962 16.88C20.0062 18 19.5862 19.55 19.5862 20.65C19.5862 22.35 20.4662 24.58 24.6562 25.51L34.8062 27.81C44.9562 29.99 49.8862 35.15 49.8862 43.57C49.8862 48.18 48.0062 52.13 44.1462 55.64C40.3062 59.13 34.8162 60.89 27.8062 60.89L27.7862 60.9Z" fill="#FC0B50"/>
<path d="M27.3162 5.99997C31.3862 5.99997 35.0162 6.59997 38.1062 7.76997C41.2062 8.94997 43.6862 10.31 45.4462 11.78C46.2762 12.49 46.5862 13.03 46.5962 13.3C46.6062 13.56 46.2662 13.93 46.1162 14.09L41.0462 19.23C40.5762 19.7 40.2662 19.7 40.1562 19.7C39.7762 19.7 39.2662 19.49 38.7162 19.1C34.6362 16.17 30.7662 14.68 27.2362 14.68C24.9962 14.68 23.0662 15.13 21.4962 16.01C19.0762 17.37 18.5762 19.28 18.5762 20.65C18.5762 22.35 19.3362 25.36 24.4162 26.49L34.5862 28.8C44.1962 30.87 48.8662 35.7 48.8662 43.58C48.8662 47.9 47.0962 51.6 43.4562 54.91C39.8062 58.22 34.5362 59.9 27.7862 59.9C18.7062 59.9 11.7362 57.54 7.06618 52.87C6.60618 52.41 6.04618 51.73 5.97618 51.06C5.94618 50.75 6.16618 50.37 6.62618 49.94L12.7862 45.04C12.9562 44.9 13.2062 44.73 13.4162 44.73C13.7362 44.73 14.2362 45.05 14.7862 45.62C18.4362 49.27 22.9162 51.12 28.0962 51.12C30.7162 51.12 32.8462 50.58 34.4162 49.5C36.6762 47.96 37.1562 46.11 37.1562 44.83C37.1562 42.78 36.2762 41.11 34.5962 39.99C33.2562 39.1 31.2362 38.38 28.4362 37.8L19.6962 35.89C15.8362 35.07 12.8262 33.45 10.4662 30.93C8.18617 28.49 7.07617 25.51 7.07617 21.83C7.07617 17.24 8.88618 13.56 12.5962 10.58C16.3862 7.52997 21.3362 5.97998 27.2862 5.97998M27.3162 3.99997C20.8662 3.99997 15.5462 5.67998 11.3762 9.03998C7.19618 12.4 5.10617 16.67 5.10617 21.85C5.10617 26.03 6.41618 29.52 9.03618 32.32C11.6562 35.12 15.0762 36.97 19.3062 37.87L28.0262 39.77C30.5662 40.3 32.3862 40.93 33.4962 41.67C34.6062 42.41 35.1662 43.47 35.1662 44.84C35.1662 46 34.5462 47.01 33.3062 47.85C32.0662 48.7 30.3362 49.12 28.1062 49.12C23.4562 49.12 19.4862 47.48 16.2062 44.2C15.2562 43.22 14.3262 42.72 13.4262 42.72C12.7762 42.72 12.1462 42.97 11.5262 43.48L5.33618 48.4C4.32618 49.3 3.87618 50.25 3.98618 51.26C4.09618 52.26 4.64617 53.27 5.65617 54.27C10.7362 59.35 18.1062 61.88 27.7862 61.88C35.0862 61.88 40.7562 60.04 44.7962 56.37C48.8462 52.7 50.8662 48.43 50.8662 43.56C50.8662 34.68 45.5762 29.1 35.0062 26.82L24.8562 24.52C21.9962 23.89 20.5762 22.59 20.5762 20.63C20.5762 19.41 21.2062 18.45 22.4762 17.73C23.7462 17.02 25.3362 16.66 27.2362 16.66C30.3562 16.66 33.7962 18.01 37.5462 20.7C38.4762 21.35 39.3462 21.67 40.1562 21.67C40.9662 21.67 41.7662 21.32 42.4662 20.62L47.5462 15.46C49.1862 13.82 48.9162 12.08 46.7562 10.23C44.7962 8.58998 42.1562 7.13998 38.8262 5.86998C35.4962 4.59998 31.6562 3.96997 27.3262 3.96997L27.3162 3.99997Z" fill="#231F20"/>
<path d="M27.5062 60.62C18.1462 60.62 10.9462 58.16 6.08619 53.3C5.25619 52.47 4.78619 51.66 4.70619 50.89C4.63619 50.22 4.96619 49.56 5.72619 48.88L11.8662 44C12.3162 43.63 12.7262 43.45 13.1462 43.45C13.7662 43.45 14.4562 43.84 15.2062 44.62C18.6762 48.09 22.9162 49.84 27.8262 49.84C30.2362 49.84 32.1762 49.35 33.5862 48.4C35.1162 47.36 35.8862 46.07 35.8862 44.56C35.8862 42.86 35.1562 41.48 33.7762 40.56C32.5462 39.74 30.6462 39.07 27.9562 38.51L19.2362 36.61C15.2262 35.76 11.9462 33.99 9.48619 31.35C7.02619 28.72 5.82618 25.51 5.82618 21.56C5.82618 16.65 7.75618 12.72 11.7162 9.53001C15.6962 6.33001 20.8462 4.71002 27.0362 4.71002C31.2262 4.71002 34.9762 5.33002 38.1862 6.55002C41.3962 7.77002 43.9662 9.18002 45.8362 10.74C46.7862 11.55 47.3062 12.33 47.3262 12.98C47.3462 13.47 47.0962 13.97 46.5662 14.5L41.4862 19.66C40.9762 20.17 40.4562 20.41 39.8862 20.41C39.3162 20.41 38.6062 20.14 37.8462 19.62C33.9462 16.82 30.2862 15.4 26.9662 15.4C24.8962 15.4 23.1362 15.8 21.7162 16.6C19.7262 17.72 19.3062 19.27 19.3062 20.37C19.3062 22.07 20.1862 24.3 24.3762 25.23L34.5262 27.53C44.6762 29.71 49.6062 34.87 49.6062 43.29C49.6062 47.9 47.7262 51.85 43.8662 55.36C40.0262 58.85 34.5362 60.61 27.5262 60.61L27.5062 60.62Z" fill="#FC0B50"/>
<path d="M27.0261 5.72C31.0961 5.72 34.7261 6.32001 37.8161 7.49001C40.9161 8.67001 43.3961 10.03 45.1561 11.5C45.9861 12.21 46.2961 12.75 46.3061 13.02C46.3161 13.28 45.9761 13.65 45.8261 13.81L40.7561 18.95C40.2861 19.42 39.9761 19.42 39.8661 19.42C39.4861 19.42 38.9761 19.21 38.4261 18.82C34.3461 15.89 30.4761 14.4 26.9461 14.4C24.7061 14.4 22.7761 14.85 21.2061 15.73C18.7861 17.09 18.2861 19 18.2861 20.37C18.2861 22.07 19.0461 25.08 24.1261 26.21L34.2961 28.52C43.9061 30.59 48.5761 35.42 48.5761 43.3C48.5761 47.62 46.8061 51.32 43.1661 54.63C39.5161 57.94 34.2461 59.62 27.4961 59.62C18.4161 59.62 11.4461 57.26 6.77612 52.59C6.31612 52.13 5.75613 51.45 5.68613 50.78C5.65613 50.47 5.87614 50.09 6.33614 49.66L12.4961 44.76C12.6661 44.62 12.9161 44.45 13.1261 44.45C13.4461 44.45 13.9461 44.77 14.4961 45.34C18.1461 48.99 22.6261 50.84 27.8061 50.84C30.4261 50.84 32.5561 50.3 34.1261 49.22C36.3861 47.68 36.8661 45.83 36.8661 44.55C36.8661 42.5 35.9861 40.83 34.3061 39.71C32.9661 38.82 30.9461 38.1 28.1461 37.52L19.4061 35.61C15.5461 34.79 12.5361 33.17 10.1761 30.65C7.89613 28.21 6.78613 25.23 6.78613 21.55C6.78613 16.96 8.59612 13.28 12.3061 10.3C16.0961 7.25 21.0461 5.7 26.9961 5.7M27.0261 3.72C20.5761 3.72 15.2561 5.40001 11.0861 8.76001C6.90614 12.12 4.81613 16.39 4.81613 21.57C4.81613 25.75 6.12613 29.24 8.74613 32.04C11.3661 34.84 14.7861 36.69 19.0161 37.59L27.7361 39.49C30.2761 40.02 32.0961 40.65 33.2061 41.39C34.3161 42.13 34.8761 43.19 34.8761 44.56C34.8761 45.72 34.2561 46.73 33.0161 47.57C31.7761 48.42 30.0461 48.84 27.8161 48.84C23.1661 48.84 19.1961 47.2 15.9161 43.92C14.9661 42.94 14.0361 42.44 13.1361 42.44C12.4861 42.44 11.8561 42.69 11.2361 43.2L5.04613 48.12C4.03613 49.02 3.58614 49.97 3.69614 50.98C3.80614 51.98 4.35614 52.99 5.36614 53.99C10.4461 59.07 17.8161 61.6 27.4961 61.6C34.7961 61.6 40.4661 59.76 44.5061 56.09C48.5561 52.42 50.5761 48.15 50.5761 43.28C50.5761 34.4 45.2861 28.82 34.7161 26.54L24.5661 24.24C21.7061 23.61 20.2861 22.31 20.2861 20.35C20.2861 19.13 20.9161 18.17 22.1861 17.45C23.4561 16.74 25.0461 16.38 26.9461 16.38C30.0661 16.38 33.5061 17.73 37.2561 20.42C38.1861 21.07 39.0561 21.39 39.8661 21.39C40.6761 21.39 41.4761 21.04 42.1761 20.34L47.2561 15.18C48.8961 13.54 48.6261 11.8 46.4661 9.95C44.5061 8.31 41.8661 6.86001 38.5361 5.59001C35.2061 4.32001 31.3661 3.69 27.0361 3.69L27.0261 3.72Z" fill="#231F20"/>
<path d="M27.2262 60.34C17.8662 60.34 10.6661 57.88 5.80615 53.02C4.97615 52.19 4.50616 51.38 4.42616 50.61C4.35616 49.94 4.68616 49.28 5.44616 48.6L11.5862 43.72C12.0362 43.35 12.4462 43.17 12.8662 43.17C13.4862 43.17 14.1762 43.56 14.9262 44.34C18.3962 47.81 22.6362 49.56 27.5462 49.56C29.9562 49.56 31.8961 49.07 33.3061 48.12C34.8361 47.08 35.6062 45.79 35.6062 44.28C35.6062 42.58 34.8762 41.2 33.4962 40.28C32.2662 39.46 30.3662 38.79 27.6762 38.23L18.9562 36.33C14.9462 35.48 11.6662 33.71 9.20616 31.07C6.74616 28.44 5.54615 25.23 5.54615 21.28C5.54615 16.37 7.47615 12.44 11.4362 9.24998C15.4162 6.04998 20.5662 4.42999 26.7562 4.42999C30.9462 4.42999 34.6962 5.04999 37.9062 6.26999C41.1162 7.48999 43.6861 8.89999 45.5561 10.46C46.5061 11.27 47.0262 12.05 47.0462 12.7C47.0662 13.19 46.8162 13.69 46.2862 14.22L41.2062 19.38C40.6962 19.89 40.1762 20.13 39.6062 20.13C39.0362 20.13 38.3262 19.86 37.5662 19.34C33.6662 16.54 30.0062 15.12 26.6862 15.12C24.6162 15.12 22.8562 15.52 21.4362 16.32C19.4462 17.44 19.0262 18.99 19.0262 20.09C19.0262 21.79 19.9062 24.02 24.0962 24.95L34.2462 27.25C44.3962 29.43 49.3262 34.59 49.3262 43.01C49.3262 47.62 47.4462 51.57 43.5862 55.08C39.7462 58.57 34.2562 60.33 27.2462 60.33L27.2262 60.34Z" fill="#FC0B50"/>
<path d="M26.7461 5.44003C30.8161 5.44003 34.4461 6.04004 37.5361 7.21004C40.6361 8.39004 43.1161 9.75003 44.8761 11.22C45.7061 11.93 46.0161 12.47 46.0261 12.74C46.0361 13 45.6961 13.37 45.5461 13.53L40.4761 18.67C40.0061 19.14 39.6961 19.14 39.5861 19.14C39.2061 19.14 38.6961 18.93 38.1461 18.54C34.0661 15.61 30.1961 14.12 26.6661 14.12C24.4261 14.12 22.4961 14.57 20.9261 15.45C18.5061 16.81 18.0061 18.72 18.0061 20.09C18.0061 21.79 18.7661 24.8 23.8461 25.93L34.0161 28.24C43.6261 30.31 48.2961 35.14 48.2961 43.02C48.2961 47.34 46.5261 51.04 42.8861 54.35C39.2361 57.66 33.9661 59.34 27.2161 59.34C18.1361 59.34 11.1661 56.98 6.49611 52.31C6.03611 51.85 5.47611 51.17 5.40611 50.5C5.37611 50.19 5.59611 49.81 6.05611 49.38L12.2161 44.48C12.3861 44.34 12.6361 44.17 12.8461 44.17C13.1661 44.17 13.6661 44.49 14.2161 45.06C17.8661 48.71 22.3461 50.56 27.5261 50.56C30.1461 50.56 32.2761 50.02 33.8461 48.94C36.1061 47.4 36.5861 45.55 36.5861 44.27C36.5861 42.22 35.7061 40.55 34.0261 39.43C32.6861 38.54 30.6661 37.82 27.8661 37.24L19.1261 35.33C15.2661 34.51 12.2561 32.89 9.89612 30.37C7.61612 27.93 6.50612 24.95 6.50612 21.27C6.50612 16.68 8.31611 13 12.0261 10.02C15.8161 6.97003 20.7661 5.42003 26.7161 5.42003M26.7461 3.44003C20.2961 3.44003 14.9761 5.12004 10.8061 8.48004C6.62611 11.84 4.53612 16.11 4.53612 21.29C4.53612 25.47 5.84611 28.96 8.46611 31.76C11.0861 34.56 14.5061 36.41 18.7361 37.31L27.4561 39.21C29.9961 39.74 31.8161 40.37 32.9261 41.11C34.0361 41.85 34.5961 42.91 34.5961 44.28C34.5961 45.44 33.9761 46.45 32.7361 47.29C31.4961 48.14 29.7661 48.56 27.5361 48.56C22.8861 48.56 18.9161 46.92 15.6361 43.64C14.6861 42.66 13.7561 42.16 12.8561 42.16C12.2061 42.16 11.5761 42.41 10.9561 42.92L4.76611 47.84C3.75611 48.74 3.30611 49.69 3.41611 50.7C3.52611 51.7 4.07612 52.71 5.08612 53.71C10.1661 58.79 17.5361 61.32 27.2161 61.32C34.5161 61.32 40.1861 59.48 44.2261 55.81C48.2761 52.14 50.2961 47.87 50.2961 43C50.2961 34.12 45.0061 28.54 34.4361 26.26L24.2861 23.96C21.4261 23.33 20.0061 22.03 20.0061 20.07C20.0061 18.85 20.6361 17.89 21.9061 17.17C23.1761 16.46 24.7661 16.1 26.6661 16.1C29.7861 16.1 33.2261 17.45 36.9761 20.14C37.9061 20.79 38.7761 21.11 39.5861 21.11C40.3961 21.11 41.1961 20.76 41.8961 20.06L46.9761 14.9C48.6161 13.26 48.3461 11.52 46.1861 9.67003C44.2261 8.03003 41.5861 6.58003 38.2561 5.31003C34.9261 4.04003 31.0861 3.41003 26.7561 3.41003L26.7461 3.44003Z" fill="#231F20"/>
<path d="M26.9361 60.05C17.5761 60.05 10.3761 57.59 5.51613 52.73C4.68613 51.9 4.21612 51.09 4.13612 50.32C4.06612 49.65 4.39612 48.99 5.15612 48.31L11.2961 43.43C11.7461 43.06 12.1561 42.88 12.5761 42.88C13.1961 42.88 13.8861 43.27 14.6361 44.05C18.1061 47.52 22.3461 49.27 27.2561 49.27C29.6661 49.27 31.6061 48.78 33.0161 47.83C34.5461 46.79 35.3161 45.5 35.3161 43.99C35.3161 42.29 34.5861 40.91 33.2061 39.99C31.9761 39.17 30.0761 38.5 27.3861 37.94L18.6661 36.04C14.6561 35.19 11.3761 33.42 8.91612 30.78C6.45612 28.15 5.25613 24.94 5.25613 20.99C5.25613 16.08 7.18613 12.15 11.1461 8.96002C15.1261 5.76002 20.2761 4.14001 26.4661 4.14001C30.6561 4.14001 34.4061 4.76003 37.6161 5.98003C40.8261 7.20003 43.3961 8.61001 45.2661 10.17C46.2161 10.98 46.7361 11.76 46.7561 12.41C46.7761 12.9 46.5261 13.4 45.9961 13.93L40.9161 19.09C40.4061 19.6 39.8861 19.84 39.3161 19.84C38.7461 19.84 38.0361 19.57 37.2761 19.05C33.3761 16.25 29.7161 14.83 26.3961 14.83C24.3261 14.83 22.5661 15.23 21.1461 16.03C19.1561 17.15 18.7361 18.7 18.7361 19.8C18.7361 21.5 19.6161 23.73 23.8061 24.66L33.9561 26.96C44.1061 29.14 49.0361 34.3 49.0361 42.72C49.0361 47.33 47.1561 51.28 43.2961 54.79C39.4561 58.28 33.9661 60.04 26.9561 60.04L26.9361 60.05Z" fill="#FC0B50"/>
<path d="M26.4661 5.14999C30.5361 5.14999 34.1661 5.74998 37.2561 6.91998C40.3561 8.09998 42.8361 9.45999 44.5961 10.93C45.4261 11.64 45.7361 12.18 45.7461 12.45C45.7561 12.71 45.4161 13.08 45.2661 13.24L40.1961 18.38C39.7261 18.85 39.4161 18.85 39.3061 18.85C38.9261 18.85 38.4161 18.64 37.8661 18.25C33.7861 15.32 29.9161 13.83 26.3861 13.83C24.1461 13.83 22.2161 14.28 20.6461 15.16C18.2261 16.52 17.7261 18.43 17.7261 19.8C17.7261 21.5 18.4861 24.51 23.5661 25.64L33.7361 27.95C43.3461 30.02 48.0161 34.85 48.0161 42.73C48.0161 47.05 46.2461 50.75 42.6061 54.06C38.9561 57.37 33.6861 59.05 26.9361 59.05C17.8561 59.05 10.8861 56.69 6.21608 52.02C5.75608 51.56 5.19608 50.88 5.12608 50.21C5.09608 49.9 5.31608 49.52 5.77608 49.09L11.9361 44.19C12.1061 44.05 12.3561 43.88 12.5661 43.88C12.8861 43.88 13.3861 44.2 13.9361 44.77C17.5861 48.42 22.0661 50.27 27.2461 50.27C29.8661 50.27 31.9961 49.73 33.5661 48.65C35.8261 47.11 36.3061 45.26 36.3061 43.98C36.3061 41.93 35.4261 40.26 33.7461 39.14C32.4061 38.25 30.3861 37.53 27.5861 36.95L18.8461 35.04C14.9861 34.22 11.9761 32.6 9.61609 30.08C7.33609 27.64 6.22609 24.66 6.22609 20.98C6.22609 16.39 8.03608 12.71 11.7461 9.73C15.5361 6.68 20.4861 5.12999 26.4361 5.12999M26.4661 3.14999C20.0161 3.14999 14.6961 4.82999 10.5261 8.18999C6.34608 11.55 4.25609 15.82 4.25609 21C4.25609 25.18 5.56608 28.67 8.18608 31.47C10.8061 34.27 14.2261 36.12 18.4561 37.02L27.1761 38.92C29.7161 39.45 31.5361 40.08 32.6461 40.82C33.7561 41.56 34.3161 42.62 34.3161 43.99C34.3161 45.15 33.6961 46.16 32.4561 47C31.2161 47.85 29.4861 48.27 27.2561 48.27C22.6061 48.27 18.6361 46.63 15.3561 43.35C14.4061 42.37 13.4761 41.87 12.5761 41.87C11.9261 41.87 11.2961 42.12 10.6761 42.63L4.48608 47.55C3.47608 48.45 3.02608 49.4 3.13608 50.41C3.24608 51.41 3.79608 52.42 4.80608 53.42C9.88608 58.5 17.2561 61.03 26.9361 61.03C34.2361 61.03 39.9061 59.19 43.9461 55.52C47.9961 51.85 50.0161 47.58 50.0161 42.71C50.0161 33.83 44.7261 28.25 34.1561 25.97L24.0061 23.67C21.1461 23.04 19.7261 21.74 19.7261 19.78C19.7261 18.56 20.3561 17.6 21.6261 16.88C22.8961 16.17 24.4861 15.81 26.3861 15.81C29.5061 15.81 32.9461 17.16 36.6961 19.85C37.6261 20.5 38.4961 20.82 39.3061 20.82C40.1161 20.82 40.9161 20.47 41.6161 19.77L46.6961 14.61C48.3361 12.97 48.0661 11.23 45.9061 9.37999C43.9461 7.73999 41.3061 6.28999 37.9761 5.01999C34.6461 3.74999 30.8061 3.12 26.4761 3.12L26.4661 3.14999Z" fill="#231F20"/>
<path d="M26.6561 59.77C17.2961 59.77 10.0961 57.31 5.2361 52.45C4.4061 51.62 3.93609 50.81 3.85609 50.04C3.78609 49.37 4.1161 48.71 4.8761 48.03L11.0161 43.15C11.4661 42.78 11.8761 42.6 12.2961 42.6C12.9161 42.6 13.6061 42.99 14.3561 43.77C17.8261 47.24 22.0661 48.99 26.9761 48.99C29.3861 48.99 31.3261 48.5 32.7361 47.55C34.2661 46.51 35.0361 45.22 35.0361 43.71C35.0361 42.01 34.3061 40.63 32.9261 39.71C31.6961 38.89 29.7961 38.22 27.1061 37.66L18.3861 35.76C14.3761 34.91 11.0961 33.14 8.63609 30.5C6.17609 27.87 4.9761 24.66 4.9761 20.71C4.9761 15.8 6.9061 11.87 10.8661 8.67999C14.8461 5.47999 19.9961 3.85999 26.1861 3.85999C30.3761 3.85999 34.1261 4.47998 37.3361 5.69998C40.5461 6.91998 43.1161 8.32998 44.9861 9.88998C45.9361 10.7 46.4561 11.48 46.4761 12.13C46.4961 12.62 46.2461 13.12 45.7161 13.65L40.6361 18.81C40.1261 19.32 39.6061 19.56 39.0361 19.56C38.4661 19.56 37.7561 19.29 36.9961 18.77C33.0961 15.97 29.4361 14.55 26.1161 14.55C24.0461 14.55 22.2861 14.95 20.8661 15.75C18.8761 16.87 18.4561 18.42 18.4561 19.52C18.4561 21.22 19.3361 23.45 23.5261 24.38L33.6761 26.68C43.8261 28.86 48.7561 34.02 48.7561 42.44C48.7561 47.05 46.8761 51 43.0161 54.51C39.1761 58 33.6861 59.76 26.6761 59.76L26.6561 59.77Z" fill="#FC0B50"/>
<path d="M26.1763 4.87003C30.2463 4.87003 33.8763 5.47001 36.9663 6.64001C40.0663 7.82001 42.5463 9.18002 44.3063 10.65C45.1363 11.36 45.4463 11.9 45.4563 12.17C45.4663 12.43 45.1263 12.8 44.9763 12.96L39.9063 18.1C39.4363 18.57 39.1263 18.57 39.0163 18.57C38.6363 18.57 38.1263 18.36 37.5763 17.97C33.4963 15.04 29.6263 13.55 26.0963 13.55C23.8563 13.55 21.9263 14 20.3563 14.88C17.9363 16.24 17.4363 18.15 17.4363 19.52C17.4363 21.22 18.1963 24.23 23.2763 25.36L33.4463 27.67C43.0563 29.74 47.7263 34.57 47.7263 42.45C47.7263 46.77 45.9563 50.47 42.3163 53.78C38.6663 57.09 33.3963 58.77 26.6463 58.77C17.5663 58.77 10.5963 56.41 5.92629 51.74C5.46629 51.28 4.90629 50.6 4.83629 49.93C4.80629 49.62 5.02628 49.24 5.48628 48.81L11.6463 43.91C11.8163 43.77 12.0663 43.6 12.2763 43.6C12.5963 43.6 13.0963 43.92 13.6463 44.49C17.2963 48.14 21.7763 49.99 26.9563 49.99C29.5763 49.99 31.7063 49.45 33.2763 48.37C35.5363 46.83 36.0163 44.98 36.0163 43.7C36.0163 41.65 35.1363 39.98 33.4563 38.86C32.1163 37.97 30.0963 37.25 27.2963 36.67L18.5563 34.76C14.6963 33.94 11.6863 32.32 9.32628 29.8C7.04628 27.36 5.93628 24.38 5.93628 20.7C5.93628 16.11 7.74628 12.43 11.4563 9.45001C15.2463 6.40001 20.1963 4.85002 26.1463 4.85002M26.1763 2.87003C19.7263 2.87003 14.4063 4.55002 10.2363 7.91002C6.05628 11.27 3.96628 15.54 3.96628 20.72C3.96628 24.9 5.27629 28.39 7.89629 31.19C10.5163 33.99 13.9363 35.84 18.1663 36.74L26.8863 38.64C29.4263 39.17 31.2463 39.8 32.3563 40.54C33.4663 41.28 34.0263 42.34 34.0263 43.71C34.0263 44.87 33.4063 45.88 32.1663 46.72C30.9263 47.57 29.1963 47.99 26.9663 47.99C22.3163 47.99 18.3463 46.35 15.0663 43.07C14.1163 42.09 13.1863 41.59 12.2863 41.59C11.6363 41.59 11.0063 41.84 10.3863 42.35L4.19629 47.27C3.18629 48.17 2.73628 49.12 2.84628 50.13C2.95628 51.13 3.50628 52.14 4.51628 53.14C9.59628 58.22 16.9663 60.75 26.6463 60.75C33.9463 60.75 39.6163 58.91 43.6563 55.24C47.7063 51.57 49.7263 47.3 49.7263 42.43C49.7263 33.55 44.4363 27.97 33.8663 25.69L23.7163 23.39C20.8563 22.76 19.4363 21.46 19.4363 19.5C19.4363 18.28 20.0663 17.32 21.3363 16.6C22.6063 15.89 24.1963 15.53 26.0963 15.53C29.2163 15.53 32.6563 16.88 36.4063 19.57C37.3363 20.22 38.2063 20.54 39.0163 20.54C39.8263 20.54 40.6263 20.19 41.3263 19.49L46.4063 14.33C48.0463 12.69 47.7763 10.95 45.6163 9.10002C43.6563 7.46002 41.0163 6.01002 37.6863 4.74002C34.3563 3.47002 30.5163 2.84003 26.1863 2.84003L26.1763 2.87003Z" fill="#231F20"/>
<path d="M26.3763 59.49C17.0163 59.49 9.81631 57.03 4.95631 52.17C4.12631 51.34 3.65631 50.53 3.57631 49.76C3.50631 49.09 3.83631 48.43 4.59631 47.75L10.7363 42.87C11.1863 42.5 11.5963 42.32 12.0163 42.32C12.6363 42.32 13.3263 42.71 14.0763 43.49C17.5463 46.96 21.7863 48.71 26.6963 48.71C29.1063 48.71 31.0463 48.22 32.4563 47.27C33.9863 46.23 34.7563 44.94 34.7563 43.43C34.7563 41.73 34.0263 40.35 32.6463 39.43C31.4163 38.61 29.5163 37.94 26.8263 37.38L18.1063 35.48C14.0963 34.63 10.8163 32.86 8.3563 30.22C5.8963 27.59 4.69632 24.38 4.69632 20.43C4.69632 15.52 6.62632 11.59 10.5863 8.40002C14.5663 5.20002 19.7163 3.58002 25.9063 3.58002C30.0963 3.58002 33.8463 4.20001 37.0563 5.42001C40.2663 6.64001 42.8363 8.05002 44.7063 9.61002C45.6563 10.42 46.1763 11.2 46.1963 11.85C46.2163 12.34 45.9663 12.84 45.4363 13.37L40.3563 18.53C39.8463 19.04 39.3263 19.28 38.7563 19.28C38.1863 19.28 37.4763 19.01 36.7163 18.49C32.8163 15.69 29.1563 14.27 25.8363 14.27C23.7663 14.27 22.0063 14.67 20.5863 15.47C18.5963 16.59 18.1763 18.14 18.1763 19.24C18.1763 20.94 19.0563 23.17 23.2463 24.1L33.3963 26.4C43.5463 28.58 48.4763 33.74 48.4763 42.16C48.4763 46.77 46.5963 50.72 42.7363 54.23C38.8963 57.72 33.4063 59.48 26.3963 59.48L26.3763 59.49Z" fill="#FC0B50"/>
<path d="M25.8963 4.59001C29.9663 4.59001 33.5962 5.19 36.6862 6.36C39.7862 7.54 42.2662 8.90001 44.0262 10.37C44.8562 11.08 45.1663 11.62 45.1763 11.89C45.1863 12.15 44.8463 12.52 44.6963 12.68L39.6263 17.82C39.1563 18.29 38.8463 18.29 38.7363 18.29C38.3563 18.29 37.8462 18.08 37.2962 17.69C33.2162 14.76 29.3463 13.27 25.8163 13.27C23.5763 13.27 21.6462 13.72 20.0762 14.6C17.6562 15.96 17.1563 17.87 17.1563 19.24C17.1563 20.94 17.9162 23.95 22.9962 25.08L33.1662 27.39C42.7762 29.46 47.4463 34.29 47.4463 42.17C47.4463 46.49 45.6763 50.19 42.0363 53.5C38.3863 56.81 33.1163 58.49 26.3663 58.49C17.2863 58.49 10.3163 56.13 5.64626 51.46C5.18626 51 4.62624 50.32 4.55624 49.65C4.52624 49.34 4.74625 48.96 5.20625 48.53L11.3663 43.63C11.5363 43.49 11.7862 43.32 11.9962 43.32C12.3162 43.32 12.8163 43.64 13.3663 44.21C17.0163 47.86 21.4963 49.71 26.6763 49.71C29.2963 49.71 31.4262 49.17 32.9962 48.09C35.2562 46.55 35.7363 44.7 35.7363 43.42C35.7363 41.37 34.8563 39.7 33.1763 38.58C31.8363 37.69 29.8163 36.97 27.0163 36.39L18.2762 34.48C14.4162 33.66 11.4063 32.04 9.04625 29.52C6.76625 27.08 5.65625 24.1 5.65625 20.42C5.65625 15.83 7.46626 12.15 11.1763 9.17C14.9663 6.12 19.9163 4.57001 25.8663 4.57001M25.8963 2.59001C19.4463 2.59001 14.1263 4.27 9.95625 7.63C5.77625 10.99 3.68625 15.26 3.68625 20.44C3.68625 24.62 4.99626 28.11 7.61626 30.91C10.2363 33.71 13.6562 35.56 17.8862 36.46L26.6062 38.36C29.1462 38.89 30.9662 39.52 32.0762 40.26C33.1862 41 33.7462 42.06 33.7462 43.43C33.7462 44.59 33.1262 45.6 31.8862 46.44C30.6462 47.29 28.9162 47.71 26.6862 47.71C22.0362 47.71 18.0663 46.07 14.7863 42.79C13.8363 41.81 12.9063 41.31 12.0063 41.31C11.3563 41.31 10.7262 41.56 10.1062 42.07L3.91625 46.99C2.90625 47.89 2.45625 48.84 2.56625 49.85C2.67625 50.85 3.22625 51.86 4.23625 52.86C9.31625 57.94 16.6863 60.47 26.3663 60.47C33.6663 60.47 39.3363 58.63 43.3763 54.96C47.4263 51.29 49.4463 47.02 49.4463 42.15C49.4463 33.27 44.1563 27.69 33.5863 25.41L23.4362 23.11C20.5762 22.48 19.1562 21.18 19.1562 19.22C19.1562 18 19.7862 17.04 21.0562 16.32C22.3262 15.61 23.9163 15.25 25.8163 15.25C28.9363 15.25 32.3763 16.6 36.1263 19.29C37.0563 19.94 37.9263 20.26 38.7363 20.26C39.5463 20.26 40.3462 19.91 41.0462 19.21L46.1263 14.05C47.7663 12.41 47.4963 10.67 45.3363 8.82001C43.3763 7.18001 40.7362 5.73001 37.4062 4.46001C34.0763 3.19001 30.2362 2.56 25.9062 2.56L25.8963 2.59001Z" fill="#231F20"/>
<path d="M26.0863 59.2C16.7263 59.2 9.52626 56.74 4.66626 51.88C3.83626 51.05 3.36627 50.24 3.28627 49.47C3.21627 48.8 3.54626 48.14 4.30626 47.46L10.4463 42.58C10.8963 42.21 11.3063 42.03 11.7263 42.03C12.3463 42.03 13.0363 42.42 13.7863 43.2C17.2563 46.67 21.4963 48.42 26.4063 48.42C28.8163 48.42 30.7563 47.93 32.1663 46.98C33.6963 45.94 34.4663 44.65 34.4663 43.14C34.4663 41.44 33.7363 40.06 32.3563 39.14C31.1263 38.32 29.2263 37.65 26.5363 37.09L17.8163 35.19C13.8063 34.34 10.5263 32.57 8.06627 29.93C5.60627 27.3 4.40626 24.09 4.40626 20.14C4.40626 15.23 6.33626 11.3 10.2963 8.11003C14.2763 4.91003 19.4263 3.29004 25.6163 3.29004C29.8063 3.29004 33.5563 3.91004 36.7663 5.13004C39.9763 6.35004 42.5463 7.76004 44.4163 9.32004C45.3663 10.13 45.8863 10.91 45.9063 11.56C45.9263 12.05 45.6763 12.55 45.1463 13.08L40.0663 18.24C39.5563 18.75 39.0363 18.99 38.4663 18.99C37.8963 18.99 37.1863 18.72 36.4263 18.2C32.5263 15.4 28.8663 13.98 25.5463 13.98C23.4763 13.98 21.7163 14.38 20.2963 15.18C18.3063 16.3 17.8863 17.85 17.8863 18.95C17.8863 20.65 18.7663 22.88 22.9563 23.81L33.1063 26.11C43.2563 28.29 48.1863 33.45 48.1863 41.87C48.1863 46.48 46.3063 50.43 42.4463 53.94C38.6063 57.43 33.1163 59.19 26.1063 59.19L26.0863 59.2Z" fill="#FC0B50"/>
<path d="M25.6162 4.30002C29.6862 4.30002 33.3162 4.90002 36.4062 6.07002C39.5062 7.25002 41.9862 8.61002 43.7462 10.08C44.5762 10.79 44.8862 11.33 44.8962 11.6C44.9062 11.86 44.5662 12.23 44.4162 12.39L39.3462 17.53C38.8762 18 38.5662 18 38.4562 18C38.0762 18 37.5662 17.79 37.0162 17.4C32.9362 14.47 29.0662 12.98 25.5362 12.98C23.2962 12.98 21.3662 13.43 19.7962 14.31C17.3762 15.67 16.8762 17.58 16.8762 18.95C16.8762 20.65 17.6362 23.66 22.7162 24.79L32.8862 27.1C42.4962 29.17 47.1662 34 47.1662 41.88C47.1662 46.2 45.3962 49.9 41.7562 53.21C38.1062 56.52 32.8362 58.2 26.0862 58.2C17.0062 58.2 10.0362 55.84 5.36623 51.17C4.90623 50.71 4.34622 50.03 4.27622 49.36C4.24622 49.05 4.46622 48.67 4.92622 48.24L11.0862 43.34C11.2562 43.2 11.5062 43.03 11.7162 43.03C12.0362 43.03 12.5362 43.35 13.0862 43.92C16.7362 47.57 21.2162 49.42 26.3962 49.42C29.0162 49.42 31.1462 48.88 32.7162 47.8C34.9762 46.26 35.4562 44.41 35.4562 43.13C35.4562 41.08 34.5762 39.41 32.8962 38.29C31.5562 37.4 29.5362 36.68 26.7362 36.1L17.9962 34.19C14.1362 33.37 11.1262 31.75 8.76622 29.23C6.48622 26.79 5.37622 23.81 5.37622 20.13C5.37622 15.54 7.18623 11.86 10.8962 8.88002C14.6862 5.83002 19.6362 4.28001 25.5862 4.28001M25.6162 2.30002C19.1662 2.30002 13.8462 3.98003 9.67622 7.34003C5.49622 10.7 3.40622 14.97 3.40622 20.15C3.40622 24.33 4.71623 27.82 7.33623 30.62C9.95623 33.42 13.3762 35.27 17.6062 36.17L26.3262 38.07C28.8662 38.6 30.6862 39.23 31.7962 39.97C32.9062 40.71 33.4662 41.77 33.4662 43.14C33.4662 44.3 32.8462 45.31 31.6062 46.15C30.3662 47 28.6362 47.42 26.4062 47.42C21.7562 47.42 17.7862 45.78 14.5062 42.5C13.5562 41.52 12.6262 41.02 11.7262 41.02C11.0762 41.02 10.4462 41.27 9.82622 41.78L3.63622 46.7C2.62622 47.6 2.17623 48.55 2.28623 49.56C2.39623 50.56 2.94622 51.57 3.95622 52.57C9.03622 57.65 16.4062 60.18 26.0862 60.18C33.3862 60.18 39.0562 58.34 43.0962 54.67C47.1462 51 49.1662 46.73 49.1662 41.86C49.1662 32.98 43.8762 27.4 33.3062 25.12L23.1562 22.82C20.2962 22.19 18.8762 20.89 18.8762 18.93C18.8762 17.71 19.5062 16.75 20.7762 16.03C22.0462 15.32 23.6362 14.96 25.5362 14.96C28.6562 14.96 32.0962 16.31 35.8462 19C36.7762 19.65 37.6462 19.97 38.4562 19.97C39.2662 19.97 40.0662 19.62 40.7662 18.92L45.8462 13.76C47.4862 12.12 47.2162 10.38 45.0562 8.53001C43.0962 6.89001 40.4562 5.44001 37.1262 4.17001C33.7962 2.90001 29.9562 2.27002 25.6262 2.27002L25.6162 2.30002Z" fill="#231F20"/>
<path d="M25.8062 58.92C16.4462 58.92 9.24623 56.46 4.38623 51.6C3.55623 50.77 3.08624 49.96 3.00624 49.19C2.93624 48.52 3.26623 47.86 4.02623 47.18L10.1662 42.3C10.6162 41.93 11.0262 41.75 11.4462 41.75C12.0662 41.75 12.7562 42.14 13.5062 42.92C16.9762 46.39 21.2162 48.14 26.1262 48.14C28.5362 48.14 30.4762 47.65 31.8862 46.7C33.4162 45.66 34.1862 44.37 34.1862 42.86C34.1862 41.16 33.4562 39.78 32.0762 38.86C30.8462 38.04 28.9462 37.37 26.2562 36.81L17.5362 34.91C13.5262 34.06 10.2462 32.29 7.78624 29.65C5.32624 27.02 4.12623 23.81 4.12623 19.86C4.12623 14.95 6.05623 11.02 10.0162 7.83C13.9962 4.63 19.1462 3.01001 25.3362 3.01001C29.5262 3.01001 33.2762 3.63001 36.4862 4.85001C39.6962 6.07001 42.2662 7.48001 44.1362 9.04001C45.0862 9.85001 45.6062 10.63 45.6262 11.28C45.6462 11.77 45.3962 12.27 44.8662 12.8L39.7862 17.96C39.2762 18.47 38.7562 18.71 38.1862 18.71C37.6162 18.71 36.9062 18.44 36.1462 17.92C32.2462 15.12 28.5862 13.7 25.2662 13.7C23.1962 13.7 21.4362 14.1 20.0162 14.9C18.0262 16.02 17.6062 17.57 17.6062 18.67C17.6062 20.37 18.4862 22.6 22.6762 23.53L32.8262 25.83C42.9762 28.01 47.9062 33.17 47.9062 41.59C47.9062 46.2 46.0262 50.15 42.1662 53.66C38.3262 57.15 32.8362 58.91 25.8262 58.91L25.8062 58.92Z" fill="#FC0B50"/>
<path d="M25.3262 4.01999C29.3962 4.01999 33.0262 4.61999 36.1162 5.78999C39.2162 6.96999 41.6962 8.32999 43.4562 9.79999C44.2862 10.51 44.5962 11.05 44.6062 11.32C44.6162 11.58 44.2762 11.95 44.1262 12.11L39.0562 17.25C38.5862 17.72 38.2762 17.72 38.1662 17.72C37.7862 17.72 37.2762 17.51 36.7262 17.12C32.6462 14.19 28.7762 12.7 25.2462 12.7C23.0062 12.7 21.0762 13.15 19.5062 14.03C17.0862 15.39 16.5862 17.3 16.5862 18.67C16.5862 20.37 17.3462 23.38 22.4262 24.51L32.5962 26.82C42.2062 28.89 46.8762 33.72 46.8762 41.6C46.8762 45.92 45.1062 49.62 41.4662 52.93C37.8162 56.24 32.5462 57.92 25.7962 57.92C16.7162 57.92 9.74619 55.56 5.07619 50.89C4.61619 50.43 4.05619 49.75 3.98619 49.08C3.95619 48.77 4.17619 48.39 4.63619 47.96L10.7962 43.06C10.9662 42.92 11.2162 42.75 11.4262 42.75C11.7462 42.75 12.2462 43.07 12.7962 43.64C16.4462 47.29 20.9262 49.14 26.1062 49.14C28.7262 49.14 30.8562 48.6 32.4262 47.52C34.6862 45.98 35.1662 44.13 35.1662 42.85C35.1662 40.8 34.2862 39.13 32.6062 38.01C31.2662 37.12 29.2462 36.4 26.4462 35.82L17.7062 33.91C13.8462 33.09 10.8362 31.47 8.4762 28.95C6.1962 26.51 5.0862 23.53 5.0862 19.85C5.0862 15.26 6.89619 11.58 10.6062 8.59999C14.3962 5.54999 19.3462 3.99998 25.2962 3.99998M25.3262 2.01999C18.8762 2.01999 13.5562 3.69998 9.38619 7.05998C5.20619 10.42 3.1162 14.69 3.1162 19.87C3.1162 24.05 4.42619 27.54 7.04619 30.34C9.66619 33.14 13.0862 34.99 17.3162 35.89L26.0362 37.79C28.5762 38.32 30.3962 38.95 31.5062 39.69C32.6162 40.43 33.1762 41.49 33.1762 42.86C33.1762 44.02 32.5562 45.03 31.3162 45.87C30.0762 46.72 28.3462 47.14 26.1162 47.14C21.4662 47.14 17.4962 45.5 14.2162 42.22C13.2662 41.24 12.3362 40.74 11.4362 40.74C10.7862 40.74 10.1562 40.99 9.53619 41.5L3.34619 46.42C2.33619 47.32 1.88619 48.27 1.99619 49.28C2.10619 50.28 2.65618 51.29 3.66618 52.29C8.74618 57.37 16.1162 59.9 25.7962 59.9C33.0962 59.9 38.7662 58.06 42.8062 54.39C46.8562 50.72 48.8762 46.45 48.8762 41.58C48.8762 32.7 43.5862 27.12 33.0162 24.84L22.8662 22.54C20.0062 21.91 18.5862 20.61 18.5862 18.65C18.5862 17.43 19.2162 16.47 20.4862 15.75C21.7562 15.04 23.3462 14.68 25.2462 14.68C28.3662 14.68 31.8062 16.03 35.5562 18.72C36.4862 19.37 37.3562 19.69 38.1662 19.69C38.9762 19.69 39.7762 19.34 40.4762 18.64L45.5562 13.48C47.1962 11.84 46.9262 10.1 44.7662 8.24998C42.8062 6.60998 40.1662 5.15998 36.8362 3.88998C33.5062 2.61998 29.6662 1.98999 25.3362 1.98999L25.3262 2.01999Z" fill="#231F20"/>
<path d="M25.5162 58.64C16.1562 58.64 8.9562 56.18 4.0962 51.32C3.2662 50.49 2.7962 49.68 2.7162 48.91C2.6462 48.24 2.9762 47.58 3.7362 46.9L9.8762 42.02C10.3262 41.65 10.7362 41.47 11.1562 41.47C11.7762 41.47 12.4662 41.86 13.2162 42.64C16.6862 46.11 20.9262 47.86 25.8362 47.86C28.2462 47.86 30.1862 47.37 31.5962 46.42C33.1262 45.38 33.8962 44.09 33.8962 42.58C33.8962 40.88 33.1662 39.5 31.7862 38.58C30.5562 37.76 28.6562 37.09 25.9662 36.53L17.2462 34.63C13.2362 33.78 9.9562 32.01 7.4962 29.37C5.0362 26.74 3.83621 23.53 3.83621 19.58C3.83621 14.67 5.76621 10.74 9.72621 7.54997C13.7062 4.34997 18.8562 2.72998 25.0462 2.72998C29.2362 2.72998 32.9862 3.34998 36.1962 4.56998C39.4062 5.78998 41.9762 7.19998 43.8462 8.75998C44.7962 9.56998 45.3162 10.35 45.3362 11C45.3562 11.49 45.1062 11.99 44.5762 12.52L39.4962 17.68C38.9862 18.19 38.4662 18.43 37.8962 18.43C37.3262 18.43 36.6162 18.16 35.8562 17.64C31.9562 14.84 28.2962 13.42 24.9762 13.42C22.9062 13.42 21.1462 13.82 19.7262 14.62C17.7362 15.74 17.3162 17.29 17.3162 18.39C17.3162 20.09 18.1962 22.32 22.3862 23.25L32.5362 25.55C42.6862 27.73 47.6162 32.89 47.6162 41.31C47.6162 45.92 45.7362 49.87 41.8762 53.38C38.0362 56.87 32.5462 58.63 25.5362 58.63L25.5162 58.64Z" fill="#FC0B50"/>
<path d="M25.0462 3.74002C29.1162 3.74002 32.7462 4.34003 35.8362 5.51003C38.9362 6.69002 41.4162 8.05002 43.1762 9.52002C44.0062 10.23 44.3162 10.77 44.3262 11.04C44.3362 11.3 43.9962 11.67 43.8462 11.83L38.7762 16.97C38.3062 17.44 37.9962 17.44 37.8862 17.44C37.5062 17.44 36.9962 17.23 36.4462 16.84C32.3662 13.91 28.4962 12.42 24.9662 12.42C22.7262 12.42 20.7962 12.87 19.2262 13.75C16.8062 15.11 16.3062 17.02 16.3062 18.39C16.3062 20.09 17.0662 23.1 22.1462 24.23L32.3162 26.54C41.9262 28.61 46.5962 33.44 46.5962 41.32C46.5962 45.64 44.8262 49.34 41.1862 52.65C37.5362 55.96 32.2662 57.64 25.5162 57.64C16.4362 57.64 9.46616 55.28 4.79616 50.61C4.33616 50.15 3.77616 49.47 3.70616 48.8C3.67616 48.49 3.89616 48.11 4.35616 47.68L10.5162 42.78C10.6862 42.64 10.9362 42.47 11.1462 42.47C11.4662 42.47 11.9662 42.79 12.5162 43.36C16.1662 47.01 20.6462 48.86 25.8262 48.86C28.4462 48.86 30.5762 48.32 32.1462 47.24C34.4062 45.7 34.8862 43.85 34.8862 42.57C34.8862 40.52 34.0062 38.85 32.3262 37.73C30.9862 36.84 28.9662 36.12 26.1662 35.54L17.4262 33.63C13.5662 32.81 10.5562 31.19 8.19617 28.67C5.91617 26.23 4.80615 23.25 4.80615 19.57C4.80615 14.98 6.61616 11.3 10.3262 8.32002C14.1162 5.27002 19.0662 3.72002 25.0162 3.72002M25.0462 1.74002C18.5962 1.74002 13.2762 3.42001 9.10616 6.78001C4.92616 10.14 2.83617 14.41 2.83617 19.59C2.83617 23.77 4.14616 27.26 6.76616 30.06C9.38616 32.86 12.8062 34.71 17.0362 35.61L25.7562 37.51C28.2962 38.04 30.1162 38.67 31.2262 39.41C32.3362 40.15 32.8962 41.21 32.8962 42.58C32.8962 43.74 32.2762 44.75 31.0362 45.59C29.7962 46.44 28.0662 46.86 25.8362 46.86C21.1862 46.86 17.2162 45.22 13.9362 41.94C12.9862 40.96 12.0562 40.46 11.1562 40.46C10.5062 40.46 9.87617 40.71 9.25617 41.22L3.06616 46.14C2.05616 47.04 1.60616 47.99 1.71616 49C1.82616 50 2.37615 51.01 3.38615 52.01C8.46615 57.09 15.8362 59.62 25.5162 59.62C32.8162 59.62 38.4862 57.78 42.5262 54.11C46.5762 50.44 48.5962 46.17 48.5962 41.3C48.5962 32.42 43.3062 26.84 32.7362 24.56L22.5862 22.26C19.7262 21.63 18.3062 20.33 18.3062 18.37C18.3062 17.15 18.9362 16.19 20.2062 15.47C21.4762 14.76 23.0662 14.4 24.9662 14.4C28.0862 14.4 31.5262 15.75 35.2762 18.44C36.2062 19.09 37.0762 19.41 37.8862 19.41C38.6962 19.41 39.4962 19.06 40.1962 18.36L45.2762 13.2C46.9162 11.56 46.6462 9.82002 44.4862 7.97002C42.5262 6.33002 39.8862 4.88002 36.5562 3.61002C33.2262 2.34002 29.3862 1.71002 25.0562 1.71002L25.0462 1.74002Z" fill="#231F20"/>
<path d="M25.2362 58.35C15.8762 58.35 8.67617 55.89 3.81617 51.03C2.98617 50.2 2.51617 49.39 2.43617 48.62C2.36617 47.95 2.69617 47.29 3.45617 46.61L9.59617 41.73C10.0462 41.36 10.4562 41.18 10.8762 41.18C11.4962 41.18 12.1862 41.57 12.9362 42.35C16.4062 45.82 20.6462 47.57 25.5562 47.57C27.9662 47.57 29.9062 47.08 31.3162 46.13C32.8462 45.09 33.6162 43.8 33.6162 42.29C33.6162 40.59 32.8862 39.21 31.5062 38.29C30.2762 37.47 28.3762 36.8 25.6862 36.24L16.9662 34.34C12.9562 33.49 9.67617 31.72 7.21617 29.08C4.75617 26.45 3.55616 23.24 3.55616 19.29C3.55616 14.38 5.48618 10.45 9.44618 7.26001C13.4262 4.06001 18.5762 2.44 24.7662 2.44C28.9562 2.44 32.7062 3.06 35.9162 4.28C39.1262 5.5 41.6962 6.91 43.5662 8.47C44.5162 9.28 45.0362 10.06 45.0562 10.71C45.0762 11.2 44.8262 11.7 44.2962 12.23L39.2162 17.39C38.7062 17.9 38.1862 18.14 37.6162 18.14C37.0462 18.14 36.3362 17.87 35.5762 17.35C31.6762 14.55 28.0162 13.13 24.6962 13.13C22.6262 13.13 20.8662 13.53 19.4462 14.33C17.4562 15.45 17.0362 17 17.0362 18.1C17.0362 19.8 17.9162 22.03 22.1062 22.96L32.2562 25.26C42.4062 27.44 47.3362 32.6 47.3362 41.02C47.3362 45.63 45.4562 49.58 41.5962 53.09C37.7562 56.58 32.2662 58.34 25.2562 58.34L25.2362 58.35Z" fill="#FC0B50"/>
<path d="M24.7661 3.44998C28.8361 3.44998 32.4661 4.04999 35.5561 5.21999C38.6561 6.39999 41.1361 7.76 42.8961 9.23C43.7261 9.94 44.0361 10.48 44.0461 10.75C44.0561 11.01 43.7161 11.38 43.5661 11.54L38.4961 16.68C38.0261 17.15 37.7161 17.15 37.6061 17.15C37.2261 17.15 36.7161 16.94 36.1661 16.55C32.0861 13.62 28.2161 12.13 24.6861 12.13C22.4461 12.13 20.5161 12.58 18.9461 13.46C16.5261 14.82 16.0261 16.73 16.0261 18.1C16.0261 19.8 16.7861 22.81 21.8661 23.94L32.0361 26.25C41.6461 28.32 46.3161 33.15 46.3161 41.03C46.3161 45.35 44.5461 49.05 40.9061 52.36C37.2561 55.67 31.9861 57.35 25.2361 57.35C16.1561 57.35 9.18613 54.99 4.51613 50.32C4.05613 49.86 3.49613 49.18 3.42613 48.51C3.39613 48.2 3.61613 47.82 4.07613 47.39L10.2361 42.49C10.4061 42.35 10.6561 42.18 10.8661 42.18C11.1861 42.18 11.6861 42.5 12.2361 43.07C15.8861 46.72 20.3661 48.57 25.5461 48.57C28.1661 48.57 30.2961 48.03 31.8661 46.95C34.1261 45.41 34.6061 43.56 34.6061 42.28C34.6061 40.23 33.7261 38.56 32.0461 37.44C30.7061 36.55 28.6861 35.83 25.8861 35.25L17.1461 33.34C13.2861 32.52 10.2761 30.9 7.91612 28.38C5.63612 25.94 4.52612 22.96 4.52612 19.28C4.52612 14.69 6.33613 11.01 10.0461 8.02998C13.8361 4.97998 18.7861 3.42999 24.7361 3.42999M24.7661 1.44998C18.3161 1.44998 12.9961 3.12999 8.82613 6.48999C4.64613 9.84999 2.55612 14.12 2.55612 19.3C2.55612 23.48 3.86613 26.97 6.48613 29.77C9.10613 32.57 12.5261 34.42 16.7561 35.32L25.4761 37.22C28.0161 37.75 29.8361 38.38 30.9461 39.12C32.0561 39.86 32.6161 40.92 32.6161 42.29C32.6161 43.45 31.9961 44.46 30.7561 45.3C29.5161 46.15 27.7861 46.57 25.5561 46.57C20.9061 46.57 16.9361 44.93 13.6561 41.65C12.7061 40.67 11.7761 40.17 10.8761 40.17C10.2261 40.17 9.59614 40.42 8.97614 40.93L2.78613 45.85C1.77613 46.75 1.32613 47.7 1.43613 48.71C1.54613 49.71 2.09613 50.72 3.10613 51.72C8.18613 56.8 15.5561 59.33 25.2361 59.33C32.5361 59.33 38.2061 57.49 42.2461 53.82C46.2961 50.15 48.3161 45.88 48.3161 41.01C48.3161 32.13 43.0261 26.55 32.4561 24.27L22.3061 21.97C19.4461 21.34 18.0261 20.04 18.0261 18.08C18.0261 16.86 18.6561 15.9 19.9261 15.18C21.1961 14.47 22.7861 14.11 24.6861 14.11C27.8061 14.11 31.2461 15.46 34.9961 18.15C35.9261 18.8 36.7961 19.12 37.6061 19.12C38.4161 19.12 39.2161 18.77 39.9161 18.07L44.9961 12.91C46.6361 11.27 46.3661 9.52999 44.2061 7.67999C42.2461 6.03999 39.6061 4.58999 36.2761 3.31999C32.9461 2.04999 29.1061 1.41998 24.7761 1.41998L24.7661 1.44998Z" fill="#231F20"/>
<path d="M24.9561 58.07C15.5961 58.07 8.39615 55.61 3.53614 50.75C2.70614 49.92 2.23614 49.11 2.15614 48.34C2.08614 47.67 2.41614 47.01 3.17614 46.33L9.31614 41.45C9.76614 41.08 10.1761 40.9 10.5961 40.9C11.2161 40.9 11.9061 41.29 12.6561 42.07C16.1261 45.54 20.3661 47.29 25.2761 47.29C27.6861 47.29 29.6261 46.8 31.0361 45.85C32.5661 44.81 33.3361 43.52 33.3361 42.01C33.3361 40.31 32.6061 38.93 31.2261 38.01C29.9961 37.19 28.0961 36.52 25.4061 35.96L16.6861 34.06C12.6761 33.21 9.39614 31.44 6.93614 28.8C4.47614 26.17 3.27614 22.96 3.27614 19.01C3.27614 14.1 5.20613 10.17 9.16613 6.98004C13.1461 3.78004 18.2961 2.16003 24.4861 2.16003C28.6761 2.16003 32.4261 2.78003 35.6361 4.00003C38.8461 5.22003 41.4161 6.63003 43.2861 8.19003C44.2361 9.00003 44.7561 9.78004 44.7761 10.43C44.7961 10.92 44.5461 11.42 44.0161 11.95L38.9361 17.11C38.4261 17.62 37.9061 17.86 37.3361 17.86C36.7661 17.86 36.0561 17.59 35.2961 17.07C31.3961 14.27 27.7361 12.85 24.4161 12.85C22.3461 12.85 20.5861 13.25 19.1661 14.05C17.1761 15.17 16.7561 16.72 16.7561 17.82C16.7561 19.52 17.6361 21.75 21.8261 22.68L31.9761 24.98C42.1261 27.16 47.0561 32.32 47.0561 40.74C47.0561 45.35 45.1761 49.3 41.3161 52.81C37.4761 56.3 31.9861 58.06 24.9761 58.06L24.9561 58.07Z" fill="#FC0B50"/>
<path d="M24.4763 3.17001C28.5463 3.17001 32.1763 3.77002 35.2663 4.94002C38.3663 6.12002 40.8463 7.48001 42.6063 8.95001C43.4363 9.66001 43.7463 10.2 43.7563 10.47C43.7663 10.73 43.4263 11.1 43.2763 11.26L38.2063 16.4C37.7363 16.87 37.4263 16.87 37.3163 16.87C36.9363 16.87 36.4263 16.66 35.8763 16.27C31.7963 13.34 27.9263 11.85 24.3963 11.85C22.1563 11.85 20.2263 12.3 18.6563 13.18C16.2363 14.54 15.7363 16.45 15.7363 17.82C15.7363 19.52 16.4963 22.53 21.5763 23.66L31.7463 25.97C41.3563 28.04 46.0263 32.87 46.0263 40.75C46.0263 45.07 44.2563 48.77 40.6163 52.08C36.9663 55.39 31.6963 57.07 24.9463 57.07C15.8663 57.07 8.89633 54.71 4.22633 50.04C3.76633 49.58 3.20632 48.9 3.13632 48.23C3.10632 47.92 3.32633 47.54 3.78633 47.11L9.94634 42.21C10.1163 42.07 10.3663 41.9 10.5763 41.9C10.8963 41.9 11.3963 42.22 11.9463 42.79C15.5963 46.44 20.0763 48.29 25.2563 48.29C27.8763 48.29 30.0063 47.75 31.5763 46.67C33.8363 45.13 34.3163 43.28 34.3163 42C34.3163 39.95 33.4363 38.28 31.7563 37.16C30.4163 36.27 28.3963 35.55 25.5963 34.97L16.8563 33.06C12.9963 32.24 9.98633 30.62 7.62633 28.1C5.34633 25.66 4.23633 22.68 4.23633 19C4.23633 14.41 6.04633 10.73 9.75633 7.75002C13.5463 4.70002 18.4963 3.15002 24.4463 3.15002M24.4763 1.17001C18.0263 1.17001 12.7063 2.85002 8.53633 6.21002C4.35633 9.57002 2.26633 13.84 2.26633 19.02C2.26633 23.2 3.57634 26.69 6.19634 29.49C8.81634 32.29 12.2363 34.14 16.4663 35.04L25.1863 36.94C27.7263 37.47 29.5463 38.1 30.6563 38.84C31.7663 39.58 32.3263 40.64 32.3263 42.01C32.3263 43.17 31.7063 44.18 30.4663 45.02C29.2263 45.87 27.4963 46.29 25.2663 46.29C20.6163 46.29 16.6463 44.65 13.3663 41.37C12.4163 40.39 11.4863 39.89 10.5863 39.89C9.93634 39.89 9.30633 40.14 8.68633 40.65L2.49632 45.57C1.48632 46.47 1.03633 47.42 1.14633 48.43C1.25633 49.43 1.80633 50.44 2.81633 51.44C7.89633 56.52 15.2663 59.05 24.9463 59.05C32.2463 59.05 37.9163 57.21 41.9563 53.54C46.0063 49.87 48.0263 45.6 48.0263 40.73C48.0263 31.85 42.7363 26.27 32.1663 23.99L22.0163 21.69C19.1563 21.06 17.7363 19.76 17.7363 17.8C17.7363 16.58 18.3663 15.62 19.6363 14.9C20.9063 14.19 22.4963 13.83 24.3963 13.83C27.5163 13.83 30.9563 15.18 34.7063 17.87C35.6363 18.52 36.5063 18.84 37.3163 18.84C38.1263 18.84 38.9263 18.49 39.6263 17.79L44.7063 12.63C46.3463 10.99 46.0763 9.25002 43.9163 7.40002C41.9563 5.76002 39.3163 4.31002 35.9863 3.04002C32.6563 1.77002 28.8163 1.14001 24.4863 1.14001L24.4763 1.17001Z" fill="#231F20"/>
<path d="M24.6661 57.79C15.3061 57.79 8.10609 55.33 3.24609 50.47C2.41609 49.64 1.9461 48.83 1.8661 48.06C1.7961 47.39 2.12609 46.73 2.88609 46.05L9.02609 41.17C9.47609 40.8 9.88609 40.62 10.3061 40.62C10.9261 40.62 11.6161 41.01 12.3661 41.79C15.8361 45.26 20.0761 47.01 24.9861 47.01C27.3961 47.01 29.3361 46.52 30.7461 45.57C32.2761 44.53 33.0461 43.24 33.0461 41.73C33.0461 40.03 32.3161 38.65 30.9361 37.73C29.7061 36.91 27.8061 36.24 25.1161 35.68L16.3961 33.78C12.3861 32.93 9.1061 31.16 6.6461 28.52C4.1861 25.89 2.9861 22.68 2.9861 18.73C2.9861 13.82 4.9161 9.89 8.8761 6.7C12.8561 3.5 18.0061 1.88 24.1961 1.88C28.3861 1.88 32.1361 2.5 35.3461 3.72C38.5561 4.94 41.1261 6.35 42.9961 7.91C43.9461 8.72 44.4661 9.50001 44.4861 10.15C44.5061 10.64 44.2561 11.14 43.7261 11.67L38.6461 16.83C38.1361 17.34 37.6161 17.58 37.0461 17.58C36.4761 17.58 35.7661 17.31 35.0061 16.79C31.1061 13.99 27.4461 12.57 24.1261 12.57C22.0561 12.57 20.2961 12.97 18.8761 13.77C16.8861 14.89 16.4661 16.44 16.4661 17.54C16.4661 19.24 17.3461 21.47 21.5361 22.4L31.6861 24.7C41.8361 26.88 46.7661 32.04 46.7661 40.46C46.7661 45.07 44.8861 49.02 41.0261 52.53C37.1861 56.02 31.6961 57.78 24.6861 57.78L24.6661 57.79Z" fill="#FC0B50"/>
<path d="M24.1963 2.87997C28.2663 2.87997 31.8963 3.47998 34.9863 4.64998C38.0863 5.82998 40.5663 7.18997 42.3263 8.65997C43.1563 9.36997 43.4663 9.90998 43.4763 10.18C43.4863 10.44 43.1463 10.81 42.9963 10.97L37.9263 16.11C37.4563 16.58 37.1463 16.58 37.0363 16.58C36.6563 16.58 36.1463 16.37 35.5963 15.98C31.5163 13.05 27.6463 11.56 24.1163 11.56C21.8763 11.56 19.9463 12.01 18.3763 12.89C15.9563 14.25 15.4563 16.16 15.4563 17.53C15.4563 19.23 16.2163 22.24 21.2963 23.37L31.4663 25.68C41.0763 27.75 45.7463 32.58 45.7463 40.46C45.7463 44.78 43.9763 48.48 40.3363 51.79C36.6863 55.1 31.4163 56.78 24.6663 56.78C15.5863 56.78 8.61631 54.42 3.94631 49.75C3.48631 49.29 2.92629 48.61 2.85629 47.94C2.82629 47.63 3.0463 47.25 3.5063 46.82L9.66629 41.92C9.83629 41.78 10.0863 41.61 10.2963 41.61C10.6163 41.61 11.1163 41.93 11.6663 42.5C15.3163 46.15 19.7963 48 24.9763 48C27.5963 48 29.7263 47.46 31.2963 46.38C33.5563 44.84 34.0363 42.99 34.0363 41.71C34.0363 39.66 33.1563 37.99 31.4763 36.87C30.1363 35.98 28.1163 35.26 25.3163 34.68L16.5763 32.77C12.7163 31.95 9.7063 30.33 7.3463 27.81C5.0663 25.37 3.9563 22.39 3.9563 18.71C3.9563 14.12 5.7663 10.44 9.4763 7.45998C13.2663 4.40998 18.2163 2.85997 24.1663 2.85997M24.1963 0.879974C17.7463 0.879974 12.4263 2.55997 8.2563 5.91997C4.0763 9.27997 1.9863 13.55 1.9863 18.73C1.9863 22.91 3.29629 26.4 5.91629 29.2C8.53629 32 11.9563 33.85 16.1863 34.75L24.9063 36.65C27.4463 37.18 29.2663 37.81 30.3763 38.55C31.4863 39.29 32.0463 40.35 32.0463 41.72C32.0463 42.88 31.4263 43.89 30.1863 44.73C28.9463 45.58 27.2163 46 24.9863 46C20.3363 46 16.3663 44.36 13.0863 41.08C12.1363 40.1 11.2063 39.6 10.3063 39.6C9.65629 39.6 9.0263 39.85 8.4063 40.36L2.21629 45.28C1.20629 46.18 0.756303 47.13 0.866303 48.14C0.976303 49.14 1.5263 50.15 2.5363 51.15C7.6163 56.23 14.9863 58.76 24.6663 58.76C31.9663 58.76 37.6363 56.92 41.6763 53.25C45.7263 49.58 47.7463 45.31 47.7463 40.44C47.7463 31.56 42.4563 25.98 31.8863 23.7L21.7363 21.4C18.8763 20.77 17.4563 19.47 17.4563 17.51C17.4563 16.29 18.0863 15.33 19.3563 14.61C20.6263 13.9 22.2163 13.54 24.1163 13.54C27.2363 13.54 30.6763 14.89 34.4263 17.58C35.3563 18.23 36.2263 18.55 37.0363 18.55C37.8463 18.55 38.6463 18.2 39.3463 17.5L44.4263 12.34C46.0663 10.7 45.7963 8.95997 43.6363 7.10997C41.6763 5.46997 39.0363 4.01997 35.7063 2.74997C32.3763 1.47997 28.5363 0.849976 24.2063 0.849976L24.1963 0.879974Z" fill="#231F20"/>
<path d="M24.3863 57.5C15.0263 57.5 7.82631 55.04 2.96631 50.18C2.13631 49.35 1.66632 48.54 1.58632 47.77C1.51632 47.1 1.84631 46.44 2.60631 45.76L8.7463 40.88C9.1963 40.51 9.6063 40.33 10.0263 40.33C10.6463 40.33 11.3363 40.72 12.0863 41.5C15.5563 44.97 19.7963 46.72 24.7063 46.72C27.1163 46.72 29.0563 46.23 30.4663 45.28C31.9963 44.24 32.7663 42.95 32.7663 41.44C32.7663 39.74 32.0363 38.36 30.6563 37.44C29.4263 36.62 27.5263 35.95 24.8363 35.39L16.1163 33.49C12.1063 32.64 8.82631 30.87 6.36631 28.23C3.90631 25.6 2.70631 22.39 2.70631 18.44C2.70631 13.53 4.63631 9.60002 8.59631 6.41002C12.5763 3.21002 17.7263 1.59003 23.9163 1.59003C28.1063 1.59003 31.8563 2.21002 35.0663 3.43002C38.2763 4.65002 40.8463 6.06003 42.7163 7.62003C43.6663 8.43003 44.1863 9.21002 44.2063 9.86002C44.2263 10.35 43.9763 10.85 43.4463 11.38L38.3663 16.54C37.8563 17.05 37.3363 17.29 36.7663 17.29C36.1963 17.29 35.4863 17.02 34.7263 16.5C30.8263 13.7 27.1663 12.28 23.8463 12.28C21.7763 12.28 20.0163 12.68 18.5963 13.48C16.6063 14.6 16.1863 16.15 16.1863 17.25C16.1863 18.95 17.0663 21.18 21.2563 22.11L31.4063 24.41C41.5563 26.59 46.4863 31.75 46.4863 40.17C46.4863 44.78 44.6063 48.73 40.7463 52.24C36.9063 55.73 31.4163 57.49 24.4063 57.49L24.3863 57.5Z" fill="#FC0B50"/>
<path d="M23.9063 2.60001C27.9763 2.60001 31.6063 3.20001 34.6963 4.37001C37.7963 5.55001 40.2763 6.91 42.0363 8.38C42.8663 9.09 43.1763 9.63001 43.1863 9.90001C43.1963 10.16 42.8563 10.53 42.7063 10.69L37.6363 15.83C37.1663 16.3 36.8563 16.3 36.7463 16.3C36.3663 16.3 35.8563 16.09 35.3063 15.7C31.2263 12.77 27.3563 11.28 23.8263 11.28C21.5863 11.28 19.6563 11.73 18.0863 12.61C15.6663 13.97 15.1663 15.88 15.1663 17.25C15.1663 18.95 15.9263 21.96 21.0063 23.09L31.1763 25.4C40.7863 27.47 45.4563 32.3 45.4563 40.18C45.4563 44.5 43.6863 48.2 40.0463 51.51C36.3963 54.82 31.1263 56.5 24.3763 56.5C15.2963 56.5 8.32627 54.14 3.65627 49.47C3.19627 49.01 2.63627 48.33 2.56627 47.66C2.53627 47.35 2.75626 46.97 3.21626 46.54L9.37627 41.64C9.54627 41.5 9.79627 41.33 10.0063 41.33C10.3263 41.33 10.8263 41.65 11.3763 42.22C15.0263 45.87 19.5063 47.72 24.6863 47.72C27.3063 47.72 29.4363 47.18 31.0063 46.1C33.2663 44.56 33.7463 42.71 33.7463 41.43C33.7463 39.38 32.8663 37.71 31.1863 36.59C29.8463 35.7 27.8263 34.98 25.0263 34.4L16.2863 32.49C12.4263 31.67 9.41626 30.05 7.05626 27.53C4.77626 25.09 3.66626 22.11 3.66626 18.43C3.66626 13.84 5.47626 10.16 9.18626 7.18001C12.9763 4.13001 17.9263 2.58 23.8763 2.58M23.9063 0.600006C17.4563 0.600006 12.1363 2.28 7.96626 5.64C3.78626 9 1.69627 13.27 1.69627 18.45C1.69627 22.63 3.00627 26.12 5.62627 28.92C8.24627 31.72 11.6663 33.57 15.8963 34.47L24.6163 36.37C27.1563 36.9 28.9763 37.53 30.0863 38.27C31.1963 39.01 31.7563 40.07 31.7563 41.44C31.7563 42.6 31.1363 43.61 29.8963 44.45C28.6563 45.3 26.9263 45.72 24.6963 45.72C20.0463 45.72 16.0763 44.08 12.7963 40.8C11.8463 39.82 10.9163 39.32 10.0163 39.32C9.36627 39.32 8.73627 39.57 8.11627 40.08L1.92627 45C0.91627 45.9 0.466264 46.85 0.576264 47.86C0.686264 48.86 1.23626 49.87 2.24626 50.87C7.32626 55.95 14.6963 58.48 24.3763 58.48C31.6763 58.48 37.3463 56.64 41.3863 52.97C45.4363 49.3 47.4563 45.03 47.4563 40.16C47.4563 31.28 42.1663 25.7 31.5963 23.42L21.4463 21.12C18.5863 20.49 17.1663 19.19 17.1663 17.23C17.1663 16.01 17.7963 15.05 19.0663 14.33C20.3363 13.62 21.9263 13.26 23.8263 13.26C26.9463 13.26 30.3863 14.61 34.1363 17.3C35.0663 17.95 35.9363 18.27 36.7463 18.27C37.5563 18.27 38.3563 17.92 39.0563 17.22L44.1363 12.06C45.7763 10.42 45.5063 8.68 43.3463 6.83C41.3863 5.19 38.7463 3.74 35.4163 2.47C32.0863 1.2 28.2463 0.570007 23.9163 0.570007L23.9063 0.600006Z" fill="#231F20"/>
<path d="M24.1063 57.22C14.7463 57.22 7.54629 54.76 2.68629 49.9C1.85629 49.07 1.38629 48.26 1.30629 47.49C1.23629 46.82 1.56629 46.16 2.32629 45.48L8.46629 40.6C8.91629 40.23 9.32629 40.05 9.74629 40.05C10.3663 40.05 11.0563 40.44 11.8063 41.22C15.2763 44.69 19.5163 46.44 24.4263 46.44C26.8363 46.44 28.7763 45.95 30.1863 45C31.7163 43.96 32.4863 42.67 32.4863 41.16C32.4863 39.46 31.7563 38.08 30.3763 37.16C29.1463 36.34 27.2463 35.67 24.5563 35.11L15.8363 33.21C11.8263 32.36 8.5463 30.59 6.0863 27.95C3.6263 25.32 2.4263 22.11 2.4263 18.16C2.4263 13.25 4.3563 9.32 8.3163 6.13C12.2963 2.93 17.4463 1.31 23.6363 1.31C27.8263 1.31 31.5763 1.93001 34.7863 3.15001C37.9963 4.37001 40.5663 5.78001 42.4363 7.34001C43.3863 8.15001 43.9063 8.93 43.9263 9.58C43.9463 10.07 43.6963 10.57 43.1663 11.1L38.0863 16.26C37.5763 16.77 37.0563 17.01 36.4863 17.01C35.9163 17.01 35.2063 16.74 34.4463 16.22C30.5463 13.42 26.8863 12 23.5663 12C21.4963 12 19.7363 12.4 18.3163 13.2C16.3263 14.32 15.9063 15.87 15.9063 16.97C15.9063 18.67 16.7863 20.9 20.9763 21.83L31.1263 24.13C41.2763 26.31 46.2063 31.47 46.2063 39.89C46.2063 44.5 44.3263 48.45 40.4663 51.96C36.6263 55.45 31.1363 57.21 24.1263 57.21L24.1063 57.22Z" fill="#FC0B50"/>
<path d="M23.6262 2.32004C27.6962 2.32004 31.3262 2.92004 34.4162 4.09004C37.5162 5.27004 39.9962 6.63004 41.7562 8.10004C42.5862 8.81004 42.8962 9.35004 42.9062 9.62004C42.9162 9.88004 42.5762 10.25 42.4262 10.41L37.3562 15.55C36.8862 16.02 36.5762 16.02 36.4662 16.02C36.0862 16.02 35.5762 15.81 35.0262 15.42C30.9462 12.49 27.0762 11 23.5462 11C21.3062 11 19.3762 11.45 17.8062 12.33C15.3862 13.69 14.8862 15.6 14.8862 16.97C14.8862 18.67 15.6462 21.68 20.7262 22.81L30.8962 25.12C40.5062 27.19 45.1762 32.02 45.1762 39.9C45.1762 44.22 43.4062 47.92 39.7662 51.23C36.1162 54.54 30.8462 56.22 24.0962 56.22C15.0162 56.22 8.04624 53.86 3.37624 49.19C2.91624 48.73 2.35624 48.05 2.28624 47.38C2.25624 47.07 2.47623 46.69 2.93623 46.26L9.09624 41.36C9.26624 41.22 9.51624 41.05 9.72624 41.05C10.0462 41.05 10.5462 41.37 11.0962 41.94C14.7462 45.59 19.2262 47.44 24.4062 47.44C27.0262 47.44 29.1562 46.9 30.7262 45.82C32.9862 44.28 33.4662 42.43 33.4662 41.15C33.4662 39.1 32.5862 37.43 30.9062 36.31C29.5662 35.42 27.5462 34.7 24.7462 34.12L16.0062 32.21C12.1462 31.39 9.13623 29.77 6.77623 27.25C4.49623 24.81 3.38623 21.83 3.38623 18.15C3.38623 13.56 5.19623 9.88004 8.90623 6.90004C12.6962 3.85004 17.6462 2.30003 23.5962 2.30003M23.6262 0.320038C17.1762 0.320038 11.8562 2.00003 7.68623 5.36003C3.50623 8.72003 1.41623 12.99 1.41623 18.17C1.41623 22.35 2.72624 25.84 5.34624 28.64C7.96624 31.44 11.3862 33.29 15.6162 34.19L24.3362 36.09C26.8762 36.62 28.6962 37.25 29.8062 37.99C30.9162 38.73 31.4762 39.79 31.4762 41.16C31.4762 42.32 30.8562 43.33 29.6162 44.17C28.3762 45.02 26.6462 45.44 24.4162 45.44C19.7662 45.44 15.7962 43.8 12.5162 40.52C11.5662 39.54 10.6362 39.04 9.73624 39.04C9.08624 39.04 8.45624 39.29 7.83624 39.8L1.64624 44.72C0.636241 45.62 0.186234 46.57 0.296234 47.58C0.406234 48.58 0.956233 49.59 1.96623 50.59C7.04623 55.67 14.4162 58.2 24.0962 58.2C31.3962 58.2 37.0662 56.36 41.1062 52.69C45.1562 49.02 47.1762 44.75 47.1762 39.88C47.1762 31 41.8862 25.42 31.3162 23.14L21.1662 20.84C18.3062 20.21 16.8862 18.91 16.8862 16.95C16.8862 15.73 17.5162 14.77 18.7862 14.05C20.0562 13.34 21.6462 12.98 23.5462 12.98C26.6662 12.98 30.1062 14.33 33.8562 17.02C34.7862 17.67 35.6562 17.99 36.4662 17.99C37.2762 17.99 38.0762 17.64 38.7762 16.94L43.8562 11.78C45.4962 10.14 45.2262 8.40003 43.0662 6.55003C41.1062 4.91003 38.4662 3.46003 35.1362 2.19003C31.8062 0.920033 27.9662 0.290039 23.6362 0.290039L23.6262 0.320038Z" fill="#231F20"/>
<path d="M23.8162 56.94C14.4563 56.94 7.25625 54.48 2.39625 49.62C1.56625 48.79 1.09625 47.98 1.01625 47.21C0.946247 46.54 1.27625 45.88 2.03625 45.2L8.17625 40.32C8.62625 39.95 9.03625 39.77 9.45625 39.77C10.0763 39.77 10.7662 40.16 11.5162 40.94C14.9862 44.41 19.2262 46.16 24.1362 46.16C26.5462 46.16 28.4863 45.67 29.8963 44.72C31.4263 43.68 32.1963 42.39 32.1963 40.88C32.1963 39.18 31.4663 37.8 30.0863 36.88C28.8563 36.06 26.9562 35.39 24.2662 34.83L15.5462 32.93C11.5362 32.08 8.25625 30.31 5.79625 27.67C3.33625 25.04 2.13624 21.83 2.13624 17.88C2.13624 12.97 4.06624 9.04004 8.02624 5.85004C12.0062 2.65004 17.1562 1.03003 23.3462 1.03003C27.5362 1.03003 31.2862 1.65004 34.4962 2.87004C37.7062 4.09004 40.2763 5.50003 42.1463 7.06003C43.0963 7.87003 43.6162 8.65003 43.6362 9.30003C43.6562 9.79003 43.4062 10.29 42.8762 10.82L37.7962 15.98C37.2862 16.49 36.7663 16.73 36.1963 16.73C35.6263 16.73 34.9162 16.46 34.1562 15.94C30.2562 13.14 26.5962 11.72 23.2762 11.72C21.2062 11.72 19.4462 12.12 18.0262 12.92C16.0362 14.04 15.6163 15.59 15.6163 16.69C15.6163 18.39 16.4962 20.62 20.6862 21.55L30.8363 23.85C40.9863 26.03 45.9162 31.19 45.9162 39.61C45.9162 44.22 44.0363 48.17 40.1763 51.68C36.3363 55.17 30.8463 56.93 23.8363 56.93L23.8162 56.94Z" fill="#FC0B50"/>
<path d="M23.3462 2.03C27.4162 2.03 31.0462 2.63 34.1362 3.8C37.2362 4.98 39.7162 6.34 41.4762 7.81C42.3062 8.52 42.6162 9.06 42.6262 9.33C42.6362 9.59 42.2962 9.96001 42.1462 10.12L37.0762 15.26C36.6062 15.73 36.2962 15.73 36.1862 15.73C35.8062 15.73 35.2962 15.52 34.7462 15.13C30.6662 12.2 26.7962 10.71 23.2662 10.71C21.0262 10.71 19.0962 11.16 17.5262 12.04C15.1062 13.4 14.6062 15.31 14.6062 16.68C14.6062 18.38 15.3662 21.39 20.4462 22.52L30.6162 24.83C40.2262 26.9 44.8962 31.73 44.8962 39.61C44.8962 43.93 43.1262 47.63 39.4862 50.94C35.8362 54.25 30.5662 55.93 23.8162 55.93C14.7362 55.93 7.76621 53.57 3.09621 48.9C2.63621 48.44 2.07621 47.76 2.00621 47.09C1.97621 46.78 2.1962 46.4 2.6562 45.97L8.81621 41.07C8.98621 40.93 9.23621 40.76 9.44621 40.76C9.76621 40.76 10.2662 41.08 10.8162 41.65C14.4662 45.3 18.9462 47.15 24.1262 47.15C26.7462 47.15 28.8762 46.61 30.4462 45.53C32.7062 43.99 33.1862 42.14 33.1862 40.86C33.1862 38.81 32.3062 37.14 30.6262 36.02C29.2862 35.13 27.2662 34.41 24.4662 33.83L15.7262 31.92C11.8662 31.1 8.8562 29.48 6.4962 26.96C4.2162 24.52 3.1062 21.54 3.1062 17.86C3.1062 13.27 4.91621 9.59 8.62621 6.61C12.4162 3.56 17.3662 2.01001 23.3162 2.01001M23.3462 0.0299988C16.8962 0.0299988 11.5762 1.71001 7.4062 5.07001C3.2262 8.43001 1.1362 12.7 1.1362 17.88C1.1362 22.06 2.44621 25.55 5.06621 28.35C7.68621 31.15 11.1062 33 15.3362 33.9L24.0562 35.8C26.5962 36.33 28.4162 36.96 29.5262 37.7C30.6362 38.44 31.1962 39.5 31.1962 40.87C31.1962 42.03 30.5762 43.04 29.3362 43.88C28.0962 44.73 26.3662 45.15 24.1362 45.15C19.4862 45.15 15.5162 43.51 12.2362 40.23C11.2862 39.25 10.3562 38.75 9.45621 38.75C8.80621 38.75 8.1762 39 7.5562 39.51L1.36621 44.43C0.356211 45.33 -0.0937948 46.28 0.0162052 47.29C0.126205 48.29 0.676203 49.3 1.6862 50.3C6.7662 55.38 14.1362 57.91 23.8162 57.91C31.1162 57.91 36.7862 56.07 40.8262 52.4C44.8762 48.73 46.8962 44.46 46.8962 39.59C46.8962 30.71 41.6062 25.13 31.0362 22.85L20.8862 20.55C18.0262 19.92 16.6062 18.62 16.6062 16.66C16.6062 15.44 17.2362 14.48 18.5062 13.76C19.7762 13.05 21.3662 12.69 23.2662 12.69C26.3862 12.69 29.8262 14.04 33.5762 16.73C34.5062 17.38 35.3762 17.7 36.1862 17.7C36.9962 17.7 37.7962 17.35 38.4962 16.65L43.5762 11.49C45.2162 9.85001 44.9462 8.11001 42.7862 6.26001C40.8262 4.62001 38.1862 3.17001 34.8562 1.90001C31.5262 0.630009 27.6862 0 23.3562 0L23.3462 0.0299988Z" fill="#231F20"/>
</svg>
