<svg width="52" height="63" viewBox="0 0 52 63" fill="none" xmlns="http://www.w3.org/2000/svg">
<path d="M46.4848 36.385C47.7348 38.205 48.3548 40.605 48.3548 43.595C48.3548 45.865 47.7248 47.965 46.4648 49.885C45.2048 51.815 43.4748 53.485 41.2548 54.875C39.2348 56.165 36.9048 57.165 34.2748 57.895C31.6548 58.615 28.8648 58.975 25.9048 58.975C20.3848 58.975 15.5548 57.785 11.4248 55.405C7.0148 52.895 4.40481 49.565 3.58481 45.435C3.55481 45.275 3.5448 45.105 3.5448 44.945C3.5448 44.315 3.7248 43.745 4.0748 43.225C4.5448 42.595 5.1748 42.195 5.9648 42.035C6.1248 42.005 6.2948 41.995 6.4548 41.995C7.0848 41.995 7.6448 42.165 8.1348 42.525C8.7948 42.985 9.1948 43.635 9.3248 44.455C9.7948 46.725 11.4448 48.665 14.2948 50.275C17.4948 52.145 21.3648 53.075 25.9048 53.075C30.7548 53.075 34.8248 52.005 38.1348 49.865C41.0348 48.035 42.4848 45.945 42.4848 43.595C42.4848 41.895 42.0048 40.495 41.0548 39.405C40.0948 38.315 38.8048 37.435 37.1748 36.775C35.5448 36.125 33.7248 35.595 31.7148 35.195C29.7048 34.805 27.6148 34.455 25.4548 34.155C22.6648 33.745 19.9748 33.265 17.3748 32.715C14.7748 32.165 12.4248 31.375 10.3148 30.335C8.2048 29.295 6.53481 27.855 5.28481 26.025C4.04481 24.195 3.41479 21.785 3.41479 18.805C3.41479 16.565 4.04479 14.475 5.30479 12.545C6.56479 10.615 8.3048 8.95502 10.5148 7.55502C12.5448 6.27502 14.8648 5.26502 17.4948 4.54502C20.1248 3.81502 22.9248 3.45502 25.9048 3.45502C31.3748 3.45502 36.1648 4.63502 40.2748 6.98502C44.6448 9.47502 47.2748 12.755 48.1548 16.835C48.1748 17.025 48.1948 17.215 48.1948 17.405C48.1948 18.015 48.0248 18.555 47.6948 19.045C47.2648 19.675 46.6348 20.095 45.8148 20.285C45.6448 20.305 45.4848 20.325 45.3148 20.325C44.6848 20.325 44.1248 20.145 43.6348 19.785C43.0048 19.355 42.5948 18.725 42.4048 17.905C41.9148 15.655 40.2548 13.725 37.4348 12.115C34.2148 10.285 30.3648 9.36502 25.9048 9.36502C21.0648 9.36502 16.9748 10.415 13.6348 12.525C10.7348 14.385 9.28481 16.475 9.28481 18.805C9.28481 20.525 9.76481 21.925 10.7248 23.015C11.6848 24.095 12.9748 24.965 14.6048 25.635C16.2248 26.305 18.0448 26.845 20.0648 27.235C22.0748 27.635 24.1548 27.985 26.3148 28.285C29.1048 28.695 31.8148 29.175 34.4248 29.725C37.0348 30.265 39.3848 31.065 41.4848 32.105C43.5748 33.145 45.2448 34.565 46.4848 36.385Z" fill="white"/>
<path d="M2.76488 11.085C4.26488 8.735 6.33488 6.72501 8.95488 5.05501C11.2049 3.63501 13.7749 2.515 16.6749 1.715C19.5749 0.905005 22.6549 0.505005 25.9049 0.505005C31.8749 0.505005 37.1349 1.80501 41.7049 4.395C46.8549 7.32501 49.9549 11.295 51.0249 16.305C51.0749 16.655 51.1049 17.015 51.1049 17.365C51.1049 18.595 50.7149 19.785 49.9349 20.935C49.1549 22.085 47.9549 22.825 46.3449 23.155C45.9649 23.205 45.5949 23.235 45.2349 23.235C44.0349 23.235 42.8649 22.845 41.7449 22.065C40.6249 21.285 39.9049 20.075 39.5749 18.435C39.2749 17.095 38.0949 15.845 36.0449 14.705C33.2549 13.115 29.8749 12.315 25.9049 12.315C21.6149 12.315 18.0449 13.225 15.1949 15.025C13.2049 16.285 12.2049 17.545 12.2049 18.805C12.2049 20.255 12.9149 21.385 14.3349 22.205C15.7549 23.035 17.5649 23.675 19.7549 24.135C21.9449 24.605 24.2749 25.015 26.7649 25.365C29.8649 25.805 32.8549 26.345 35.7549 26.975C38.6549 27.605 41.2749 28.525 43.6149 29.765C45.9549 30.995 47.8149 32.705 49.1949 34.895C50.5749 37.075 51.2649 39.975 51.2649 43.595C51.2649 46.405 50.5149 48.985 49.0149 51.325C47.5049 53.665 45.4449 55.685 42.8149 57.375C40.5749 58.805 38.0049 59.915 35.1049 60.725C32.2049 61.535 29.1349 61.935 25.9049 61.935C19.8849 61.935 14.5849 60.605 9.98488 57.955C4.81488 54.995 1.72487 50.995 0.714874 45.925C0.654874 45.575 0.624878 45.235 0.624878 44.905C0.624878 43.675 1.03488 42.485 1.83488 41.335C2.64488 40.185 3.85488 39.445 5.47488 39.115C5.79488 39.065 6.11487 39.035 6.41487 39.035C7.67487 39.035 8.87487 39.445 10.0249 40.265C11.1749 41.085 11.9149 42.315 12.2449 43.955C12.5149 45.305 13.6649 46.555 15.6849 47.735C18.4849 49.325 21.8849 50.115 25.9049 50.115C30.1749 50.115 33.7349 49.215 36.5749 47.405C38.5749 46.145 39.5749 44.875 39.5749 43.595C39.5749 42.165 38.8649 41.045 37.4649 40.225C36.0549 39.405 34.2449 38.765 32.0449 38.295C29.8449 37.835 27.4949 37.425 25.0049 37.065C21.9149 36.625 18.9149 36.085 16.0149 35.445C13.1149 34.805 10.5049 33.875 8.17488 32.655C5.85488 31.435 3.99488 29.735 2.59488 27.545C1.20488 25.355 0.504883 22.445 0.504883 18.805C0.504883 16.015 1.25488 13.445 2.76488 11.085ZM5.30487 12.545C4.04487 14.475 3.41487 16.565 3.41487 18.805C3.41487 21.785 4.04488 24.195 5.28488 26.025C6.53488 27.855 8.20488 29.295 10.3149 30.335C12.4249 31.375 14.7749 32.165 17.3749 32.715C19.9749 33.265 22.6649 33.745 25.4549 34.155C27.6149 34.455 29.7049 34.805 31.7149 35.195C33.7249 35.595 35.5449 36.125 37.1749 36.775C38.8049 37.435 40.0949 38.315 41.0549 39.405C42.0049 40.495 42.4849 41.895 42.4849 43.595C42.4849 45.945 41.0349 48.035 38.1349 49.865C34.8249 52.005 30.7549 53.075 25.9049 53.075C21.3649 53.075 17.4949 52.145 14.2949 50.275C11.4449 48.665 9.79487 46.725 9.32487 44.455C9.19487 43.635 8.79487 42.985 8.13487 42.525C7.64487 42.165 7.08488 41.995 6.45488 41.995C6.29488 41.995 6.12487 42.005 5.96487 42.035C5.17487 42.195 4.54487 42.595 4.07487 43.225C3.72487 43.745 3.54488 44.315 3.54488 44.945C3.54488 45.105 3.55488 45.275 3.58488 45.435C4.40488 49.565 7.01488 52.895 11.4249 55.405C15.5549 57.785 20.3849 58.975 25.9049 58.975C28.8649 58.975 31.6549 58.615 34.2749 57.895C36.9049 57.165 39.2349 56.165 41.2549 54.875C43.4749 53.485 45.2049 51.815 46.4649 49.885C47.7249 47.965 48.3549 45.865 48.3549 43.595C48.3549 40.605 47.7349 38.205 46.4849 36.385C45.2449 34.565 43.5749 33.145 41.4849 32.105C39.3849 31.065 37.0349 30.265 34.4249 29.725C31.8149 29.175 29.1049 28.695 26.3149 28.285C24.1549 27.985 22.0749 27.635 20.0649 27.235C18.0449 26.845 16.2249 26.305 14.6049 25.635C12.9749 24.965 11.6849 24.095 10.7249 23.015C9.76488 21.925 9.28488 20.525 9.28488 18.805C9.28488 16.475 10.7349 14.385 13.6349 12.525C16.9749 10.415 21.0649 9.365 25.9049 9.365C30.3649 9.365 34.2149 10.285 37.4349 12.115C40.2549 13.725 41.9149 15.655 42.4049 17.905C42.5949 18.725 43.0049 19.355 43.6349 19.785C44.1249 20.145 44.6849 20.325 45.3149 20.325C45.4849 20.325 45.6449 20.305 45.8149 20.285C46.6349 20.095 47.2649 19.675 47.6949 19.045C48.0249 18.555 48.1949 18.015 48.1949 17.405C48.1949 17.215 48.1749 17.025 48.1549 16.835C47.2749 12.755 44.6449 9.475 40.2749 6.985C36.1649 4.635 31.3749 3.455 25.9049 3.455C22.9249 3.455 20.1249 3.815 17.4949 4.545C14.8649 5.265 12.5449 6.27501 10.5149 7.55501C8.30488 8.95501 6.56487 10.615 5.30487 12.545Z" fill="#DD07D8"/>
<path d="M39.5749 18.435C39.2749 17.095 38.0949 15.845 36.0449 14.705C33.2549 13.115 29.8749 12.315 25.9049 12.315C21.6149 12.315 18.0449 13.225 15.1949 15.025C13.2049 16.285 12.2049 17.545 12.2049 18.805C12.2049 20.255 12.9149 21.385 14.3349 22.205C15.7549 23.035 17.5649 23.675 19.7549 24.135C21.9449 24.605 24.2749 25.015 26.7649 25.365C29.8649 25.805 32.8549 26.345 35.7549 26.975C38.6549 27.605 41.2749 28.525 43.6149 29.765C45.9549 30.995 47.8149 32.705 49.1949 34.895C50.5749 37.075 51.2649 39.975 51.2649 43.595C51.2649 46.405 50.5149 48.985 49.0149 51.325C47.5049 53.665 45.4449 55.685 42.8149 57.375C40.5749 58.805 38.0049 59.915 35.1049 60.725C32.2049 61.535 29.1349 61.935 25.9049 61.935C19.8849 61.935 14.5849 60.605 9.98488 57.955C4.81488 54.995 1.72487 50.995 0.714874 45.925C0.654874 45.575 0.624878 45.235 0.624878 44.905C0.624878 43.675 1.03488 42.485 1.83488 41.335C2.64488 40.185 3.85488 39.445 5.47488 39.115C5.79488 39.065 6.11487 39.035 6.41487 39.035C7.67487 39.035 8.87487 39.445 10.0249 40.265C11.1749 41.085 11.9149 42.315 12.2449 43.955C12.5149 45.305 13.6649 46.555 15.6849 47.735C18.4849 49.325 21.8849 50.115 25.9049 50.115C30.1749 50.115 33.7349 49.215 36.5749 47.405C38.5749 46.145 39.5749 44.875 39.5749 43.595C39.5749 42.165 38.8649 41.045 37.4649 40.225C36.0549 39.405 34.2449 38.765 32.0449 38.295C29.8449 37.835 27.4949 37.425 25.0049 37.065C21.9149 36.625 18.9149 36.085 16.0149 35.445C13.1149 34.805 10.5049 33.875 8.17488 32.655C5.85488 31.435 3.99488 29.735 2.59488 27.545C1.20488 25.355 0.504883 22.445 0.504883 18.805C0.504883 16.015 1.25488 13.445 2.76488 11.085C4.26488 8.735 6.33488 6.72501 8.95488 5.05501C11.2049 3.63501 13.7749 2.515 16.6749 1.715C19.5749 0.905005 22.6549 0.505005 25.9049 0.505005C31.8749 0.505005 37.1349 1.80501 41.7049 4.395C46.8549 7.32501 49.9549 11.295 51.0249 16.305C51.0749 16.655 51.1049 17.015 51.1049 17.365C51.1049 18.595 50.7149 19.785 49.9349 20.935C49.1549 22.085 47.9549 22.825 46.3449 23.155C45.9649 23.205 45.5949 23.235 45.2349 23.235C44.0349 23.235 42.8649 22.845 41.7449 22.065C40.6249 21.285 39.9049 20.075 39.5749 18.435Z" stroke="#DD07D8" stroke-width="1.01" stroke-linecap="round" stroke-linejoin="round"/>
<path d="M42.4048 17.905C42.5948 18.725 43.0048 19.355 43.6348 19.785C44.1248 20.145 44.6848 20.325 45.3148 20.325C45.4848 20.325 45.6448 20.305 45.8148 20.285C46.6348 20.095 47.2648 19.675 47.6948 19.045C48.0248 18.555 48.1948 18.015 48.1948 17.405C48.1948 17.215 48.1748 17.025 48.1548 16.835C47.2748 12.755 44.6448 9.47502 40.2748 6.98502C36.1648 4.63502 31.3748 3.45502 25.9048 3.45502C22.9248 3.45502 20.1248 3.81502 17.4948 4.54502C14.8648 5.26502 12.5448 6.27502 10.5148 7.55502C8.3048 8.95502 6.56479 10.615 5.30479 12.545C4.04479 14.475 3.41479 16.565 3.41479 18.805C3.41479 21.785 4.04481 24.195 5.28481 26.025C6.53481 27.855 8.2048 29.295 10.3148 30.335C12.4248 31.375 14.7748 32.165 17.3748 32.715C19.9748 33.265 22.6648 33.745 25.4548 34.155C27.6148 34.455 29.7048 34.805 31.7148 35.195C33.7248 35.595 35.5448 36.125 37.1748 36.775C38.8048 37.435 40.0948 38.315 41.0548 39.405C42.0048 40.495 42.4848 41.895 42.4848 43.595C42.4848 45.945 41.0348 48.035 38.1348 49.865C34.8248 52.005 30.7548 53.075 25.9048 53.075C21.3648 53.075 17.4948 52.145 14.2948 50.275C11.4448 48.665 9.7948 46.725 9.3248 44.455C9.1948 43.635 8.7948 42.985 8.1348 42.525C7.6448 42.165 7.0848 41.995 6.4548 41.995C6.2948 41.995 6.1248 42.005 5.9648 42.035C5.1748 42.195 4.5448 42.595 4.0748 43.225C3.7248 43.745 3.5448 44.315 3.5448 44.945C3.5448 45.105 3.55481 45.275 3.58481 45.435C4.40481 49.565 7.0148 52.895 11.4248 55.405C15.5548 57.785 20.3848 58.975 25.9048 58.975C28.8648 58.975 31.6548 58.615 34.2748 57.895C36.9048 57.165 39.2348 56.165 41.2548 54.875C43.4748 53.485 45.2048 51.815 46.4648 49.885C47.7248 47.965 48.3548 45.865 48.3548 43.595C48.3548 40.605 47.7348 38.205 46.4848 36.385C45.2448 34.565 43.5748 33.145 41.4848 32.105C39.3848 31.065 37.0348 30.265 34.4248 29.725C31.8148 29.175 29.1048 28.695 26.3148 28.285C24.1548 27.985 22.0748 27.635 20.0648 27.235C18.0448 26.845 16.2248 26.305 14.6048 25.635C12.9748 24.965 11.6848 24.095 10.7248 23.015C9.76481 21.925 9.28481 20.525 9.28481 18.805C9.28481 16.475 10.7348 14.385 13.6348 12.525C16.9748 10.415 21.0648 9.36502 25.9048 9.36502C30.3648 9.36502 34.2148 10.285 37.4348 12.115C40.2548 13.725 41.9148 15.655 42.4048 17.905Z" stroke="#DD07D8" stroke-width="1.01" stroke-linecap="round" stroke-linejoin="round"/>
</svg>
