<svg width="46" height="41" viewBox="0 0 46 41" fill="none" xmlns="http://www.w3.org/2000/svg">
<path d="M15.98 20.76C15.98 18.64 16.03 17.07 16.14 16.04C16.25 15.01 16.3 13.41 16.3 11.23V10.01C16.3 7.78001 16.14 6.50999 15.81 6.17999C15.48 5.84999 14.37 5.64 12.47 5.53C12.2 5.53 11.82 5.51999 11.33 5.48999C10.84 5.45999 10.52 5.45001 10.35 5.45001C8.56001 5.45001 7.47 5.75001 7.09 6.35001C6.87 6.79001 6.81999 7.03002 6.92999 7.08002C7.14999 7.19002 7.26001 7.89001 7.26001 9.20001C7.26001 10.23 7.18001 10.78 7.01001 10.83C6.90001 10.94 6.78999 11.18 6.67999 11.56C6.62999 11.94 6.33 12.29 5.78 12.62C5.24 12.89 4.59002 13.03 3.83002 13.03C3.29002 13.03 2.96001 12.95 2.85001 12.79C2.80001 12.68 2.58001 12.63 2.20001 12.63C1.87001 12.63 1.52001 12.44 1.14001 12.06C0.760015 11.68 0.570007 11.33 0.570007 11C0.570007 10.67 0.520004 10.46 0.410004 10.35C0.300004 10.24 0.190017 8.64001 0.0800171 5.54001C0.0800171 5.05001 0.0700085 4.48002 0.0400085 3.83002C0.0100085 3.18002 0 2.74 0 2.53C0 1.34 0.110017 0.630004 0.330017 0.410004C0.600017 0.140004 2.96 0 7.41 0C11.86 0 14.14 0.0799902 14.25 0.23999C14.36 0.39999 19.11 0.480011 28.5 0.480011H42.67L43.32 1.29001C44.19 2.27001 44.62 2.97 44.62 3.41C44.62 3.63 44.73 3.78999 44.95 3.89999C45.11 3.94999 45.19 5.11999 45.19 7.39999V10.82L44.13 11.96C43.48 12.67 42.69 13.02 41.77 13.02C41.17 13.02 40.75 12.97 40.51 12.86C40.27 12.75 39.84 12.4 39.25 11.8C38.44 10.99 38.03 10.42 38.03 10.09C38.03 9.87 37.95 9.76001 37.79 9.76001C37.63 9.76001 37.49 9.41001 37.38 8.70001C37.27 7.99001 37.03 7.4 36.65 6.91L36.08 6.17999H32.17C29.84 6.17999 28.45 6.28 28.02 6.47C27.59 6.66 27.37 7.3 27.37 8.38C27.37 9.14 27.29 9.60001 27.13 9.76001C26.97 9.87001 26.89 10.6 26.89 11.96C26.89 12.83 26.81 13.49 26.64 13.96C26.48 14.42 26.4 14.98 26.4 15.63C26.4 16.5 26.32 17.01 26.16 17.18C26 17.23 25.92 19.16 25.92 22.96C25.92 26.76 26 28.72 26.16 28.82C26.32 28.93 26.4 29.15 26.4 29.47C26.4 29.74 26.32 29.99 26.16 30.2C26 30.42 25.92 30.66 25.92 30.93C25.92 31.26 26 31.5 26.16 31.66C26.32 31.71 26.4 32.1 26.4 32.8C26.4 34.1 27.05 35.32 28.36 36.47C29.28 37.34 29.72 37.8 29.66 37.85C29.61 37.9 29.65 38.07 29.78 38.34C29.91 38.61 29.9 38.83 29.74 38.99C29.25 39.59 27.84 39.89 25.51 39.89H23.07C22.58 39.89 21.94 39.88 21.16 39.85C20.37 39.82 19.87 39.81 19.65 39.81C18.51 39.81 17.88 39.86 17.78 39.97C17.67 40.19 17.24 40.3 16.48 40.3C15.67 40.3 15.23 40.38 15.18 40.54C15.07 40.7 14.68 40.77 14 40.74C13.32 40.71 12.9 40.62 12.74 40.46C12.52 40.24 12.41 40 12.41 39.73C12.41 39.24 12.87 38.53 13.79 37.61C14.71 36.74 15.2 35.98 15.26 35.33C15.37 34.62 15.48 34.16 15.59 33.95C15.7 33.73 15.75 32.29 15.75 29.63C15.75 27.73 15.79 26.29 15.87 25.31C15.95 24.33 15.99 22.81 15.99 20.75L15.98 20.76Z" fill="black"/>
</svg>
