<svg width="54" height="62" viewBox="0 0 54 62" fill="none" xmlns="http://www.w3.org/2000/svg">
<path d="M24.1399 60.19C23.3699 60.19 23.1599 59.98 23.1599 59.21V18.76C23.1599 18.21 22.7099 17.76 22.1599 17.76H7.64993C6.87993 17.76 6.66992 17.55 6.66992 16.78V7.65999C6.66992 6.88999 6.87993 6.67999 7.64993 6.67999H51.4299C52.1999 6.67999 52.4099 6.88999 52.4099 7.65999V16.78C52.4099 17.55 52.1999 17.76 51.4299 17.76H36.9099C36.3599 17.76 35.9099 18.21 35.9099 18.76V59.21C35.9099 59.98 35.6999 60.19 34.9299 60.19H24.1399Z" fill="#FC0B50"/>
<path d="M51.4099 7.66998V16.76H36.9099C35.8099 16.76 34.9099 17.66 34.9099 18.76V59.19H24.1599V18.76C24.1599 17.66 23.2599 16.76 22.1599 16.76H7.65993V7.66998H51.4099ZM51.4299 5.66998H7.64993C6.32993 5.66998 5.66992 6.32999 5.66992 7.64999V16.77C5.66992 18.09 6.32993 18.75 7.64993 18.75H22.1599V59.2C22.1599 60.52 22.8199 61.18 24.1399 61.18H34.9299C36.2499 61.18 36.9099 60.52 36.9099 59.2V18.75H51.4299C52.7499 18.75 53.4099 18.09 53.4099 16.77V7.64999C53.4099 6.32999 52.7499 5.66998 51.4299 5.66998Z" fill="#231F20"/>
<path d="M23.8599 59.91C23.0899 59.91 22.8799 59.7 22.8799 58.93V18.48C22.8799 17.93 22.4299 17.48 21.8799 17.48H7.36989C6.59989 17.48 6.38989 17.27 6.38989 16.5V7.38002C6.38989 6.61002 6.59989 6.40002 7.36989 6.40002H51.1499C51.9199 6.40002 52.1299 6.61002 52.1299 7.38002V16.5C52.1299 17.27 51.9199 17.48 51.1499 17.48H36.6299C36.0799 17.48 35.6299 17.93 35.6299 18.48V58.93C35.6299 59.7 35.4199 59.91 34.6499 59.91H23.8599Z" fill="#FC0B50"/>
<path d="M51.1199 7.39001V16.48H36.6199C35.5199 16.48 34.6199 17.38 34.6199 18.48V58.91H23.8699V18.48C23.8699 17.38 22.9699 16.48 21.8699 16.48H7.36987V7.39001H51.1199ZM51.1399 5.39001H7.35988C6.03988 5.39001 5.37988 6.05003 5.37988 7.37003V16.49C5.37988 17.81 6.03988 18.47 7.35988 18.47H21.8699V58.92C21.8699 60.24 22.5299 60.9 23.8499 60.9H34.6399C35.9599 60.9 36.6199 60.24 36.6199 58.92V18.47H51.1399C52.4599 18.47 53.1199 17.81 53.1199 16.49V7.37003C53.1199 6.05003 52.4599 5.39001 51.1399 5.39001Z" fill="#231F20"/>
<path d="M23.5701 59.63C22.8001 59.63 22.5901 59.42 22.5901 58.65V18.2C22.5901 17.65 22.1401 17.2 21.5901 17.2H7.08009C6.31009 17.2 6.1001 16.99 6.1001 16.22V7.09999C6.1001 6.32999 6.31009 6.12 7.08009 6.12H50.8601C51.6301 6.12 51.8401 6.32999 51.8401 7.09999V16.22C51.8401 16.99 51.6301 17.2 50.8601 17.2H36.3401C35.7901 17.2 35.3401 17.65 35.3401 18.2V58.65C35.3401 59.42 35.1301 59.63 34.3601 59.63H23.5701Z" fill="#FC0B50"/>
<path d="M50.8401 7.10999V16.2H36.3401C35.2401 16.2 34.3401 17.1 34.3401 18.2V58.63H23.5901V18.2C23.5901 17.1 22.6901 16.2 21.5901 16.2H7.09009V7.10999H50.8401ZM50.8601 5.10999H7.08009C5.76009 5.10999 5.1001 5.76998 5.1001 7.08998V16.21C5.1001 17.53 5.76009 18.19 7.08009 18.19H21.5901V58.64C21.5901 59.96 22.2501 60.62 23.5701 60.62H34.3601C35.6801 60.62 36.3401 59.96 36.3401 58.64V18.19H50.8601C52.1801 18.19 52.8401 17.53 52.8401 16.21V7.08998C52.8401 5.76998 52.1801 5.10999 50.8601 5.10999Z" fill="#231F20"/>
<path d="M23.2901 59.34C22.5201 59.34 22.3101 59.13 22.3101 58.36V17.91C22.3101 17.36 21.8601 16.91 21.3101 16.91H6.80006C6.03006 16.91 5.82007 16.7 5.82007 15.93V6.81001C5.82007 6.04001 6.03006 5.83002 6.80006 5.83002H50.5801C51.3501 5.83002 51.5601 6.04001 51.5601 6.81001V15.93C51.5601 16.7 51.3501 16.91 50.5801 16.91H36.0601C35.5101 16.91 35.0601 17.36 35.0601 17.91V58.36C35.0601 59.13 34.8501 59.34 34.0801 59.34H23.2901Z" fill="#FC0B50"/>
<path d="M50.5601 6.82001V15.91H36.0601C34.9601 15.91 34.0601 16.81 34.0601 17.91V58.34H23.3101V17.91C23.3101 16.81 22.4101 15.91 21.3101 15.91H6.81006V6.82001H50.5601ZM50.5701 4.82001H6.79007C5.47007 4.82001 4.81006 5.48 4.81006 6.8V15.92C4.81006 17.24 5.47007 17.9 6.79007 17.9H21.3001V58.35C21.3001 59.67 21.9601 60.33 23.2801 60.33H34.0701C35.3901 60.33 36.0501 59.67 36.0501 58.35V17.9H50.5701C51.8901 17.9 52.5501 17.24 52.5501 15.92V6.8C52.5501 5.48 51.8901 4.82001 50.5701 4.82001Z" fill="#231F20"/>
<path d="M23.01 59.06C22.24 59.06 22.03 58.85 22.03 58.08V17.63C22.03 17.08 21.58 16.63 21.03 16.63H6.52003C5.75003 16.63 5.54004 16.42 5.54004 15.65V6.52998C5.54004 5.75998 5.75003 5.54999 6.52003 5.54999H50.3C51.07 5.54999 51.28 5.75998 51.28 6.52998V15.65C51.28 16.42 51.07 16.63 50.3 16.63H35.78C35.23 16.63 34.78 17.08 34.78 17.63V58.08C34.78 58.85 34.57 59.06 33.8 59.06H23.01Z" fill="#FC0B50"/>
<path d="M50.27 6.53998V15.63H35.77C34.67 15.63 33.77 16.53 33.77 17.63V58.06H23.02V17.63C23.02 16.53 22.12 15.63 21.02 15.63H6.52003V6.53998H50.27ZM50.29 4.53998H6.51003C5.19002 4.53998 4.53003 5.19997 4.53003 6.51997V15.64C4.53003 16.96 5.19002 17.62 6.51003 17.62H21.02V58.07C21.02 59.39 21.68 60.05 23 60.05H33.79C35.11 60.05 35.77 59.39 35.77 58.07V17.62H50.29C51.61 17.62 52.27 16.96 52.27 15.64V6.51997C52.27 5.19997 51.61 4.53998 50.29 4.53998Z" fill="#231F20"/>
<path d="M22.72 58.78C21.95 58.78 21.74 58.57 21.74 57.8V17.35C21.74 16.8 21.29 16.35 20.74 16.35H6.23C5.46 16.35 5.25 16.14 5.25 15.37V6.25002C5.25 5.48002 5.46 5.27002 6.23 5.27002H50.01C50.78 5.27002 50.99 5.48002 50.99 6.25002V15.37C50.99 16.14 50.78 16.35 50.01 16.35H35.49C34.94 16.35 34.49 16.8 34.49 17.35V57.8C34.49 58.57 34.28 58.78 33.51 58.78H22.72Z" fill="#FC0B50"/>
<path d="M49.99 6.26001V15.35H35.49C34.39 15.35 33.49 16.25 33.49 17.35V57.78H22.74V17.35C22.74 16.25 21.84 15.35 20.74 15.35H6.24001V6.26001H49.99ZM50.01 4.26001H6.23C4.91 4.26001 4.25 4.92001 4.25 6.24001V15.36C4.25 16.68 4.91 17.34 6.23 17.34H20.74V57.79C20.74 59.11 21.4 59.77 22.72 59.77H33.51C34.83 59.77 35.49 59.11 35.49 57.79V17.34H50.01C51.33 17.34 51.99 16.68 51.99 15.36V6.24001C51.99 4.92001 51.33 4.26001 50.01 4.26001Z" fill="#231F20"/>
<path d="M22.44 58.49C21.67 58.49 21.46 58.28 21.46 57.51V17.06C21.46 16.51 21.01 16.06 20.46 16.06H5.94997C5.17997 16.06 4.96997 15.85 4.96997 15.08V5.95999C4.96997 5.18999 5.17997 4.97998 5.94997 4.97998H49.73C50.5 4.97998 50.71 5.18999 50.71 5.95999V15.08C50.71 15.85 50.5 16.06 49.73 16.06H35.21C34.66 16.06 34.21 16.51 34.21 17.06V57.51C34.21 58.28 34 58.49 33.23 58.49H22.44Z" fill="#FC0B50"/>
<path d="M49.71 5.97003V15.06H35.21C34.11 15.06 33.21 15.96 33.21 17.06V57.49H22.46V17.06C22.46 15.96 21.56 15.06 20.46 15.06H5.95996V5.97003H49.71ZM49.72 3.97003H5.93996C4.61996 3.97003 3.95996 4.63003 3.95996 5.95003V15.07C3.95996 16.39 4.61996 17.05 5.93996 17.05H20.45V57.5C20.45 58.82 21.11 59.48 22.43 59.48H33.22C34.54 59.48 35.2 58.82 35.2 57.5V17.05H49.72C51.04 17.05 51.7 16.39 51.7 15.07V5.95003C51.7 4.63003 51.04 3.97003 49.72 3.97003Z" fill="#231F20"/>
<path d="M22.1599 58.21C21.3899 58.21 21.1799 58 21.1799 57.23V16.78C21.1799 16.23 20.7299 15.78 20.1799 15.78H5.66994C4.89994 15.78 4.68994 15.57 4.68994 14.8V5.68002C4.68994 4.91002 4.89994 4.70001 5.66994 4.70001H49.4499C50.2199 4.70001 50.4299 4.91002 50.4299 5.68002V14.8C50.4299 15.57 50.2199 15.78 49.4499 15.78H34.9299C34.3799 15.78 33.9299 16.23 33.9299 16.78V57.23C33.9299 58 33.7199 58.21 32.9499 58.21H22.1599Z" fill="#FC0B50"/>
<path d="M49.4199 5.69V14.78H34.9199C33.8199 14.78 32.9199 15.68 32.9199 16.78V57.21H22.1699V16.78C22.1699 15.68 21.2699 14.78 20.1699 14.78H5.66992V5.69H49.4199ZM49.4399 3.69H5.65993C4.33993 3.69 3.67993 4.35 3.67993 5.67V14.79C3.67993 16.11 4.33993 16.77 5.65993 16.77H20.1699V57.22C20.1699 58.54 20.8299 59.2 22.1499 59.2H32.9399C34.2599 59.2 34.9199 58.54 34.9199 57.22V16.77H49.4399C50.7599 16.77 51.4199 16.11 51.4199 14.79V5.67C51.4199 4.35 50.7599 3.69 49.4399 3.69Z" fill="#231F20"/>
<path d="M21.8699 57.93C21.0999 57.93 20.8899 57.72 20.8899 56.95V16.5C20.8899 15.95 20.4399 15.5 19.8899 15.5H5.3799C4.6099 15.5 4.3999 15.29 4.3999 14.52V5.39999C4.3999 4.62999 4.6099 4.41998 5.3799 4.41998H49.1599C49.9299 4.41998 50.1399 4.62999 50.1399 5.39999V14.52C50.1399 15.29 49.9299 15.5 49.1599 15.5H34.6399C34.0899 15.5 33.6399 15.95 33.6399 16.5V56.95C33.6399 57.72 33.4299 57.93 32.6599 57.93H21.8699Z" fill="#FC0B50"/>
<path d="M49.1399 5.40997V14.5H34.6399C33.5399 14.5 32.6399 15.4 32.6399 16.5V56.93H21.8899V16.5C21.8899 15.4 20.9899 14.5 19.8899 14.5H5.38989V5.40997H49.1399ZM49.1599 3.40997H5.3799C4.0599 3.40997 3.3999 4.06997 3.3999 5.38997V14.51C3.3999 15.83 4.0599 16.49 5.3799 16.49H19.8899V56.94C19.8899 58.26 20.5499 58.92 21.8699 58.92H32.6599C33.9799 58.92 34.6399 58.26 34.6399 56.94V16.49H49.1599C50.4799 16.49 51.1399 15.83 51.1399 14.51V5.38997C51.1399 4.06997 50.4799 3.40997 49.1599 3.40997Z" fill="#231F20"/>
<path d="M21.5901 57.64C20.8201 57.64 20.6101 57.43 20.6101 56.66V16.21C20.6101 15.66 20.1601 15.21 19.6101 15.21H5.10013C4.33013 15.21 4.12012 15 4.12012 14.23V5.11C4.12012 4.34 4.33013 4.13 5.10013 4.13H48.8801C49.6501 4.13 49.8601 4.34 49.8601 5.11V14.23C49.8601 15 49.6501 15.21 48.8801 15.21H34.3601C33.8101 15.21 33.3601 15.66 33.3601 16.21V56.66C33.3601 57.43 33.1501 57.64 32.3801 57.64H21.5901Z" fill="#FC0B50"/>
<path d="M48.8601 5.12V14.21H34.3601C33.2601 14.21 32.3601 15.11 32.3601 16.21V56.64H21.6101V16.21C21.6101 15.11 20.7101 14.21 19.6101 14.21H5.11011V5.12H48.8601ZM48.8701 3.12H5.0901C3.7701 3.12 3.11011 3.77999 3.11011 5.09999V14.22C3.11011 15.54 3.7701 16.2 5.0901 16.2H19.6001V56.65C19.6001 57.97 20.2601 58.63 21.5801 58.63H32.3701C33.6901 58.63 34.3501 57.97 34.3501 56.65V16.2H48.8701C50.1901 16.2 50.8501 15.54 50.8501 14.22V5.09999C50.8501 3.77999 50.1901 3.12 48.8701 3.12Z" fill="#231F20"/>
<path d="M21.3101 57.36C20.5401 57.36 20.3301 57.15 20.3301 56.38V15.93C20.3301 15.38 19.8801 14.93 19.3301 14.93H4.8201C4.0501 14.93 3.84009 14.72 3.84009 13.95V4.83003C3.84009 4.06003 4.0501 3.85004 4.8201 3.85004H48.6001C49.3701 3.85004 49.5801 4.06003 49.5801 4.83003V13.95C49.5801 14.72 49.3701 14.93 48.6001 14.93H34.0801C33.5301 14.93 33.0801 15.38 33.0801 15.93V56.38C33.0801 57.15 32.8701 57.36 32.1001 57.36H21.3101Z" fill="#FC0B50"/>
<path d="M48.5701 4.84003V13.93H34.0701C32.9701 13.93 32.0701 14.83 32.0701 15.93V56.36H21.3201V15.93C21.3201 14.83 20.4201 13.93 19.3201 13.93H4.82008V4.84003H48.5701ZM48.5901 2.84003H4.81007C3.49007 2.84003 2.83008 3.50004 2.83008 4.82004V13.94C2.83008 15.26 3.49007 15.92 4.81007 15.92H19.3201V56.37C19.3201 57.69 19.9801 58.35 21.3001 58.35H32.0901C33.4101 58.35 34.0701 57.69 34.0701 56.37V15.92H48.5901C49.9101 15.92 50.5701 15.26 50.5701 13.94V4.82004C50.5701 3.50004 49.9101 2.84003 48.5901 2.84003Z" fill="#231F20"/>
<path d="M21.0201 57.08C20.2501 57.08 20.0401 56.87 20.0401 56.1V15.65C20.0401 15.1 19.5901 14.65 19.0401 14.65H4.53004C3.76004 14.65 3.55005 14.44 3.55005 13.67V4.55C3.55005 3.78 3.76004 3.57001 4.53004 3.57001H48.3101C49.0801 3.57001 49.29 3.78 49.29 4.55V13.67C49.29 14.44 49.0801 14.65 48.3101 14.65H33.7901C33.2401 14.65 32.7901 15.1 32.7901 15.65V56.1C32.7901 56.87 32.58 57.08 31.81 57.08H21.0201Z" fill="#FC0B50"/>
<path d="M48.29 4.56V13.65H33.7901C32.6901 13.65 31.7901 14.55 31.7901 15.65V56.08H21.0401V15.65C21.0401 14.55 20.1401 13.65 19.0401 13.65H4.54005V4.56H48.29ZM48.3101 2.56H4.53004C3.21004 2.56 2.55005 3.22001 2.55005 4.54001V13.66C2.55005 14.98 3.21004 15.64 4.53004 15.64H19.0401V56.09C19.0401 57.41 19.7 58.07 21.0201 58.07H31.81C33.13 58.07 33.7901 57.41 33.7901 56.09V15.64H48.3101C49.6301 15.64 50.29 14.98 50.29 13.66V4.54001C50.29 3.22001 49.6301 2.56 48.3101 2.56Z" fill="#231F20"/>
<path d="M20.74 56.79C19.97 56.79 19.76 56.58 19.76 55.81V15.36C19.76 14.81 19.31 14.36 18.76 14.36H4.25002C3.48002 14.36 3.27002 14.15 3.27002 13.38V4.25998C3.27002 3.48998 3.48002 3.27997 4.25002 3.27997H48.03C48.8 3.27997 49.01 3.48998 49.01 4.25998V13.38C49.01 14.15 48.8 14.36 48.03 14.36H33.51C32.96 14.36 32.51 14.81 32.51 15.36V55.81C32.51 56.58 32.3 56.79 31.53 56.79H20.74Z" fill="#FC0B50"/>
<path d="M48.01 4.27002V13.36H33.51C32.41 13.36 31.51 14.26 31.51 15.36V55.79H20.76V15.36C20.76 14.26 19.86 13.36 18.76 13.36H4.26001V4.27002H48.01ZM48.02 2.27002H4.24002C2.92002 2.27002 2.26001 2.93002 2.26001 4.25002V13.37C2.26001 14.69 2.92002 15.35 4.24002 15.35H18.75V55.8C18.75 57.12 19.41 57.78 20.73 57.78H31.52C32.84 57.78 33.5 57.12 33.5 55.8V15.35H48.02C49.34 15.35 50 14.69 50 13.37V4.25002C50 2.93002 49.34 2.27002 48.02 2.27002Z" fill="#231F20"/>
<path d="M20.46 56.51C19.69 56.51 19.48 56.3 19.48 55.53V15.08C19.48 14.53 19.03 14.08 18.48 14.08H3.96999C3.19999 14.08 2.98999 13.87 2.98999 13.1V3.98C2.98999 3.21 3.19999 3 3.96999 3H47.75C48.52 3 48.73 3.21 48.73 3.98V13.1C48.73 13.87 48.52 14.08 47.75 14.08H33.23C32.68 14.08 32.23 14.53 32.23 15.08V55.53C32.23 56.3 32.02 56.51 31.25 56.51H20.46Z" fill="#FC0B50"/>
<path d="M47.72 3.98999V13.08H33.22C32.12 13.08 31.22 13.98 31.22 15.08V55.51H20.47V15.08C20.47 13.98 19.57 13.08 18.47 13.08H3.96999V3.98999H47.72ZM47.74 1.98999H3.95999C2.63999 1.98999 1.97998 2.64999 1.97998 3.96999V13.09C1.97998 14.41 2.63999 15.07 3.95999 15.07H18.47V55.52C18.47 56.84 19.13 57.5 20.45 57.5H31.24C32.56 57.5 33.22 56.84 33.22 55.52V15.07H47.74C49.06 15.07 49.72 14.41 49.72 13.09V3.96999C49.72 2.64999 49.06 1.98999 47.74 1.98999Z" fill="#231F20"/>
<path d="M20.17 56.23C19.4 56.23 19.19 56.02 19.19 55.25V14.8C19.19 14.25 18.74 13.8 18.19 13.8H3.67996C2.90996 13.8 2.69995 13.59 2.69995 12.82V3.70003C2.69995 2.93003 2.90996 2.72003 3.67996 2.72003H47.46C48.23 2.72003 48.4399 2.93003 48.4399 3.70003V12.82C48.4399 13.59 48.23 13.8 47.46 13.8H32.94C32.39 13.8 31.94 14.25 31.94 14.8V55.25C31.94 56.02 31.73 56.23 30.96 56.23H20.17Z" fill="#FC0B50"/>
<path d="M47.4399 3.70001V12.79H32.94C31.84 12.79 30.94 13.69 30.94 14.79V55.22H20.19V14.79C20.19 13.69 19.29 12.79 18.19 12.79H3.68996V3.70001H47.4399ZM47.46 1.70001H3.67996C2.35996 1.70001 1.69995 2.36002 1.69995 3.68002V12.8C1.69995 14.12 2.35996 14.78 3.67996 14.78H18.19V55.23C18.19 56.55 18.85 57.21 20.17 57.21H30.96C32.28 57.21 32.94 56.55 32.94 55.23V14.78H47.46C48.78 14.78 49.4399 14.12 49.4399 12.8V3.68002C49.4399 2.36002 48.78 1.70001 47.46 1.70001Z" fill="#231F20"/>
<path d="M19.8899 55.94C19.1199 55.94 18.9099 55.73 18.9099 54.96V14.51C18.9099 13.96 18.4599 13.51 17.9099 13.51H3.39993C2.62993 13.51 2.41992 13.3 2.41992 12.53V3.40999C2.41992 2.63999 2.62993 2.42999 3.39993 2.42999H47.1799C47.9499 2.42999 48.1599 2.63999 48.1599 3.40999V12.53C48.1599 13.3 47.9499 13.51 47.1799 13.51H32.6599C32.1099 13.51 31.6599 13.96 31.6599 14.51V54.96C31.6599 55.73 31.4499 55.94 30.6799 55.94H19.8899Z" fill="#FC0B50"/>
<path d="M47.1599 3.41998V12.51H32.6599C31.5599 12.51 30.6599 13.41 30.6599 14.51V54.94H19.9099V14.51C19.9099 13.41 19.0099 12.51 17.9099 12.51H3.40991V3.41998H47.1599ZM47.1699 1.41998H3.38991C2.06991 1.41998 1.40991 2.07999 1.40991 3.39999V12.52C1.40991 13.84 2.06991 14.5 3.38991 14.5H17.8999V54.95C17.8999 56.27 18.5599 56.93 19.8799 56.93H30.6699C31.9899 56.93 32.6499 56.27 32.6499 54.95V14.5H47.1699C48.4899 14.5 49.1499 13.84 49.1499 12.52V3.39999C49.1499 2.07999 48.4899 1.41998 47.1699 1.41998Z" fill="#231F20"/>
<path d="M19.5999 55.66C18.8299 55.66 18.6199 55.45 18.6199 54.68V14.23C18.6199 13.68 18.1699 13.23 17.6199 13.23H3.10988C2.33988 13.23 2.12988 13.02 2.12988 12.25V3.13002C2.12988 2.36002 2.33988 2.15002 3.10988 2.15002H46.8899C47.6599 2.15002 47.8699 2.36002 47.8699 3.13002V12.25C47.8699 13.02 47.6599 13.23 46.8899 13.23H32.3699C31.8199 13.23 31.3699 13.68 31.3699 14.23V54.68C31.3699 55.45 31.1599 55.66 30.3899 55.66H19.5999Z" fill="#FC0B50"/>
<path d="M46.8699 3.14001V12.23H32.3699C31.2699 12.23 30.3699 13.13 30.3699 14.23V54.66H19.6199V14.23C19.6199 13.13 18.7199 12.23 17.6199 12.23H3.11987V3.14001H46.8699ZM46.8899 1.14001H3.10988C1.78988 1.14001 1.12988 1.80003 1.12988 3.12003V12.24C1.12988 13.56 1.78988 14.22 3.10988 14.22H17.6199V54.67C17.6199 55.99 18.2799 56.65 19.5999 56.65H30.3899C31.7099 56.65 32.3699 55.99 32.3699 54.67V14.22H46.8899C48.2099 14.22 48.8699 13.56 48.8699 12.24V3.12003C48.8699 1.80003 48.2099 1.14001 46.8899 1.14001Z" fill="#231F20"/>
<path d="M19.3201 55.38C18.5501 55.38 18.3401 55.17 18.3401 54.4V13.95C18.3401 13.4 17.8901 12.95 17.3401 12.95H2.83009C2.06009 12.95 1.8501 12.74 1.8501 11.97V2.84999C1.8501 2.07999 2.06009 1.87 2.83009 1.87H46.6101C47.3801 1.87 47.5901 2.07999 47.5901 2.84999V11.97C47.5901 12.74 47.3801 12.95 46.6101 12.95H32.0901C31.5401 12.95 31.0901 13.4 31.0901 13.95V54.4C31.0901 55.17 30.8801 55.38 30.1101 55.38H19.3201Z" fill="#FC0B50"/>
<path d="M46.5901 2.85004V11.94H32.0901C30.9901 11.94 30.0901 12.84 30.0901 13.94V54.37H19.3401V13.94C19.3401 12.84 18.4401 11.94 17.3401 11.94H2.84009V2.85004H46.5901ZM46.6101 0.850037H2.83009C1.51009 0.850037 0.850098 1.51003 0.850098 2.83003V11.95C0.850098 13.27 1.51009 13.93 2.83009 13.93H17.3401V54.38C17.3401 55.7 18.0001 56.36 19.3201 56.36H30.1101C31.4301 56.36 32.0901 55.7 32.0901 54.38V13.93H46.6101C47.9301 13.93 48.5901 13.27 48.5901 11.95V2.83003C48.5901 1.51003 47.9301 0.850037 46.6101 0.850037Z" fill="#231F20"/>
<path d="M19.0401 55.09C18.2701 55.09 18.0601 54.88 18.0601 54.11V13.66C18.0601 13.11 17.6101 12.66 17.0601 12.66H2.55006C1.78006 12.66 1.57007 12.45 1.57007 11.68V2.56001C1.57007 1.79001 1.78006 1.58002 2.55006 1.58002H46.3301C47.1001 1.58002 47.3101 1.79001 47.3101 2.56001V11.68C47.3101 12.45 47.1001 12.66 46.3301 12.66H31.8101C31.2601 12.66 30.8101 13.11 30.8101 13.66V54.11C30.8101 54.88 30.6001 55.09 29.8301 55.09H19.0401Z" fill="#FC0B50"/>
<path d="M46.3101 2.57001V11.66H31.8101C30.7101 11.66 29.8101 12.56 29.8101 13.66V54.09H19.0601V13.66C19.0601 12.56 18.1601 11.66 17.0601 11.66H2.56006V2.57001H46.3101ZM46.3201 0.570007H2.54007C1.22007 0.570007 0.560059 1.23 0.560059 2.55V11.67C0.560059 12.99 1.22007 13.65 2.54007 13.65H17.0501V54.1C17.0501 55.42 17.7101 56.08 19.0301 56.08H29.8201C31.1401 56.08 31.8001 55.42 31.8001 54.1V13.65H46.3201C47.6401 13.65 48.3001 12.99 48.3001 11.67V2.55C48.3001 1.23 47.6401 0.570007 46.3201 0.570007Z" fill="#231F20"/>
<path d="M18.75 54.81C17.98 54.81 17.77 54.6 17.77 53.83V13.38C17.77 12.83 17.32 12.38 16.77 12.38H2.26003C1.49003 12.38 1.28003 12.17 1.28003 11.4V2.27998C1.28003 1.50998 1.49003 1.29999 2.26003 1.29999H46.04C46.81 1.29999 47.02 1.50998 47.02 2.27998V11.4C47.02 12.17 46.81 12.38 46.04 12.38H31.52C30.97 12.38 30.52 12.83 30.52 13.38V53.83C30.52 54.6 30.31 54.81 29.54 54.81H18.75Z" fill="#FC0B50"/>
<path d="M46.02 2.28998V11.38H31.52C30.42 11.38 29.52 12.28 29.52 13.38V53.81H18.77V13.38C18.77 12.28 17.87 11.38 16.77 11.38H2.27003V2.28998H46.02ZM46.04 0.289978H2.26003C0.940025 0.289978 0.280029 0.949974 0.280029 2.26997V11.39C0.280029 12.71 0.940025 13.37 2.26003 13.37H16.77V53.82C16.77 55.14 17.43 55.8 18.75 55.8H29.54C30.86 55.8 31.52 55.14 31.52 53.82V13.37H46.04C47.36 13.37 48.02 12.71 48.02 11.39V2.26997C48.02 0.949974 47.36 0.289978 46.04 0.289978Z" fill="#231F20"/>
<path d="M18.47 54.53C17.7 54.53 17.49 54.32 17.49 53.55V13.1C17.49 12.55 17.04 12.1 16.49 12.1H1.98C1.21 12.1 1 11.89 1 11.12V2.00002C1 1.23002 1.21 1.02002 1.98 1.02002H45.76C46.53 1.02002 46.74 1.23002 46.74 2.00002V11.12C46.74 11.89 46.53 12.1 45.76 12.1H31.24C30.69 12.1 30.24 12.55 30.24 13.1V53.55C30.24 54.32 30.03 54.53 29.26 54.53H18.47Z" fill="#FC0B50"/>
<path d="M45.74 2V11.09H31.24C30.14 11.09 29.24 11.99 29.24 13.09V53.52H18.49V13.09C18.49 11.99 17.59 11.09 16.49 11.09H1.99001V2H45.74ZM45.76 0H1.98C0.659996 0 0 0.659996 0 1.98V11.1C0 12.42 0.659996 13.08 1.98 13.08H16.49V53.53C16.49 54.85 17.15 55.51 18.47 55.51H29.26C30.58 55.51 31.24 54.85 31.24 53.53V13.08H45.76C47.08 13.08 47.74 12.42 47.74 11.1V1.98C47.74 0.659996 47.08 0 45.76 0Z" fill="#231F20"/>
</svg>
