<svg width="52" height="63" viewBox="0 0 52 63" fill="none" xmlns="http://www.w3.org/2000/svg">
<path d="M48.4348 6.41502C48.4348 7.23502 48.1548 7.92502 47.5748 8.50502C46.9948 9.08502 46.3048 9.36502 45.4848 9.36502H28.9048V56.025C28.9048 56.815 28.6148 57.505 28.0448 58.095C27.4648 58.685 26.7748 58.975 25.9448 58.975C25.1148 58.975 24.4348 58.685 23.8548 58.095C23.2848 57.505 22.9948 56.815 22.9948 56.025V9.36502H6.41483C5.59483 9.36502 4.89483 9.07502 4.32483 8.50502C3.75483 7.93502 3.46484 7.23502 3.46484 6.41502C3.46484 5.59502 3.74483 4.89502 4.32483 4.31502C4.90483 3.73502 5.59483 3.45502 6.41483 3.45502H45.4848C46.3048 3.45502 47.0048 3.74502 47.5748 4.31502C48.1448 4.88502 48.4348 5.58502 48.4348 6.41502Z" fill="white"/>
<path d="M20.0449 12.315H6.41489C4.77489 12.315 3.37488 11.745 2.22488 10.595C1.08488 9.44501 0.504883 8.055 0.504883 6.415C0.504883 4.775 1.08488 3.405 2.22488 2.245C3.37488 1.085 4.77489 0.505005 6.41489 0.505005H45.4849C47.1249 0.505005 48.5249 1.085 49.6649 2.245C50.8149 3.405 51.3949 4.795 51.3949 6.415C51.3949 8.035 50.8149 9.44501 49.6649 10.595C48.5249 11.745 47.1249 12.315 45.4849 12.315H31.8549V56.025C31.8549 57.635 31.2849 59.025 30.1349 60.195C28.9849 61.355 27.5949 61.935 25.9449 61.935C24.2949 61.935 22.9149 61.355 21.7649 60.195C20.6149 59.025 20.0449 57.635 20.0449 56.025V12.315ZM45.4849 3.455H6.41489C5.59489 3.455 4.89489 3.74501 4.32489 4.31501C3.75489 4.88501 3.4649 5.585 3.4649 6.415C3.4649 7.245 3.74489 7.925 4.32489 8.505C4.90489 9.085 5.59489 9.365 6.41489 9.365H22.9949V56.025C22.9949 56.815 23.2849 57.505 23.8549 58.095C24.4349 58.685 25.1249 58.975 25.9449 58.975C26.7649 58.975 27.4649 58.685 28.0449 58.095C28.6149 57.505 28.9049 56.815 28.9049 56.025V9.365H45.4849C46.3049 9.365 47.0049 9.075 47.5749 8.505C48.1449 7.935 48.4349 7.235 48.4349 6.415C48.4349 5.595 48.1549 4.89501 47.5749 4.31501C46.9949 3.73501 46.3049 3.455 45.4849 3.455Z" fill="#DD07D8"/>
<path d="M45.4849 12.315H31.8549V56.025C31.8549 57.635 31.2849 59.025 30.1349 60.195C28.9849 61.355 27.5949 61.935 25.9449 61.935C24.2949 61.935 22.9149 61.355 21.7649 60.195C20.6149 59.025 20.0449 57.635 20.0449 56.025V12.315H6.41489C4.77489 12.315 3.37488 11.745 2.22488 10.595C1.08488 9.44501 0.504883 8.055 0.504883 6.415C0.504883 4.775 1.08488 3.405 2.22488 2.245C3.37488 1.085 4.77489 0.505005 6.41489 0.505005H45.4849C47.1249 0.505005 48.5249 1.085 49.6649 2.245C50.8149 3.405 51.3949 4.795 51.3949 6.415C51.3949 8.035 50.8149 9.44501 49.6649 10.595C48.5249 11.745 47.1249 12.315 45.4849 12.315Z" stroke="#DD07D8" stroke-width="1.01" stroke-linecap="round" stroke-linejoin="round"/>
<path d="M45.4848 9.36502C46.3048 9.36502 47.0048 9.07502 47.5748 8.50502C48.1448 7.93502 48.4348 7.23502 48.4348 6.41502C48.4348 5.59502 48.1548 4.89502 47.5748 4.31502C46.9948 3.73502 46.3048 3.45502 45.4848 3.45502H6.41483C5.59483 3.45502 4.89483 3.74502 4.32483 4.31502C3.75483 4.88502 3.46484 5.58502 3.46484 6.41502C3.46484 7.24502 3.74483 7.92502 4.32483 8.50502C4.90483 9.08502 5.59483 9.36502 6.41483 9.36502H22.9948V56.025C22.9948 56.815 23.2848 57.505 23.8548 58.095C24.4348 58.685 25.1248 58.975 25.9448 58.975C26.7648 58.975 27.4648 58.685 28.0448 58.095C28.6148 57.505 28.9048 56.815 28.9048 56.025V9.36502H45.4848Z" stroke="#DD07D8" stroke-width="1.01" stroke-linecap="round" stroke-linejoin="round"/>
</svg>
