<svg width="46" height="41" viewBox="0 0 46 41" fill="none" xmlns="http://www.w3.org/2000/svg">
<path d="M15.97 20.76C15.97 18.64 16.02 17.07 16.13 16.04C16.24 15.01 16.29 13.41 16.29 11.23V10.01C16.29 7.78001 16.13 6.50999 15.8 6.17999C15.47 5.84999 14.36 5.64 12.46 5.53C12.19 5.53 11.81 5.51999 11.32 5.48999C10.83 5.45999 10.51 5.45001 10.34 5.45001C8.55 5.45001 7.46 5.75001 7.08 6.35001C6.86 6.79001 6.81 7.03002 6.92 7.08002C7.14 7.19002 7.25 7.89001 7.25 9.20001C7.25 10.23 7.17001 10.78 7.01001 10.83C6.90001 10.94 6.79001 11.18 6.68001 11.56C6.62001 11.94 6.33 12.29 5.78 12.62C5.24 12.89 4.59 13.03 3.83 13.03C3.29 13.03 2.96001 12.95 2.85001 12.79C2.80001 12.68 2.58 12.63 2.2 12.63C1.87 12.63 1.52 12.44 1.14 12.06C0.759999 11.68 0.570007 11.33 0.570007 11C0.570007 10.67 0.520004 10.46 0.410004 10.35C0.300004 10.24 0.190002 8.64001 0.0800018 5.54001C0.0800018 5.05001 0.0700085 4.48002 0.0400085 3.83002C0.0100085 3.18002 0 2.74 0 2.53C0 1.34 0.110002 0.630004 0.330002 0.410004C0.600002 0.140004 2.96 0 7.42 0C11.88 0 14.15 0.0799902 14.26 0.23999C14.37 0.39999 19.12 0.480011 28.51 0.480011H42.68L43.33 1.29001C44.2 2.27001 44.63 2.97 44.63 3.41C44.63 3.63 44.74 3.78999 44.96 3.89999C45.12 3.94999 45.2 5.11999 45.2 7.39999V10.82L44.14 11.96C43.49 12.67 42.7 13.02 41.78 13.02C41.18 13.02 40.76 12.97 40.52 12.86C40.28 12.75 39.85 12.4 39.26 11.8C38.45 10.99 38.04 10.42 38.04 10.09C38.04 9.87 37.96 9.76001 37.8 9.76001C37.64 9.76001 37.5 9.41001 37.39 8.70001C37.28 7.99001 37.04 7.4 36.66 6.91L36.09 6.17999H32.18C29.84 6.17999 28.46 6.28 28.03 6.47C27.59 6.66 27.38 7.3 27.38 8.38C27.38 9.14 27.3 9.60001 27.14 9.76001C26.98 9.87001 26.9 10.6 26.9 11.96C26.9 12.83 26.82 13.49 26.66 13.96C26.5 14.42 26.42 14.98 26.42 15.63C26.42 16.5 26.34 17.01 26.18 17.18C26.02 17.23 25.94 19.16 25.94 22.96C25.94 26.76 26.02 28.72 26.18 28.82C26.34 28.93 26.42 29.15 26.42 29.47C26.42 29.74 26.34 29.99 26.18 30.2C26.02 30.42 25.94 30.66 25.94 30.93C25.94 31.26 26.02 31.5 26.18 31.66C26.34 31.71 26.42 32.1 26.42 32.8C26.42 34.1 27.07 35.32 28.37 36.47C29.29 37.34 29.73 37.8 29.67 37.85C29.62 37.9 29.66 38.07 29.79 38.34C29.93 38.61 29.91 38.83 29.75 38.99C29.26 39.59 27.85 39.89 25.52 39.89H23.08C22.59 39.89 21.95 39.88 21.17 39.85C20.38 39.82 19.88 39.81 19.66 39.81C18.52 39.81 17.89 39.86 17.79 39.97C17.68 40.19 17.25 40.3 16.49 40.3C15.68 40.3 15.24 40.38 15.19 40.54C15.08 40.7 14.69 40.77 14.01 40.74C13.33 40.71 12.91 40.62 12.75 40.46C12.53 40.24 12.42 40 12.42 39.73C12.42 39.24 12.88 38.53 13.8 37.61C14.72 36.74 15.21 35.98 15.27 35.33C15.38 34.62 15.49 34.16 15.6 33.95C15.71 33.73 15.76 32.29 15.76 29.63C15.76 27.73 15.8 26.29 15.88 25.31C15.96 24.33 16 22.81 16 20.75L15.97 20.76Z" fill="black"/>
</svg>
