<svg width="46" height="76" viewBox="0 0 46 76" fill="none" xmlns="http://www.w3.org/2000/svg">
<path d="M43.9121 20.1522C43.6021 20.3722 40.9721 21.0522 40.4521 21.0122C36.4221 20.6722 38.2821 11.0922 37.6521 8.3022L26.4721 9.42226C26.5621 10.1223 26.8821 10.7422 26.8821 11.4622C26.9221 19.0022 25.6221 26.6722 25.3521 34.2122C25.1121 40.9022 24.8421 60.7822 27.1921 66.3122C27.6421 67.3822 28.5021 67.5423 29.1821 68.4223C30.9821 70.7823 31.3221 72.5822 28.8821 74.6422C27.5021 75.8122 24.0621 74.8222 22.1921 74.8722C19.8721 74.9422 14.1521 75.9722 12.4021 75.1322C12.2521 75.0622 9.96212 72.9522 9.89212 72.8022C8.06212 69.1422 12.7421 67.6122 14.2821 65.6222C17.0821 62.0022 17.8921 46.1822 18.2821 40.9122C18.7021 35.2222 19.1821 29.0522 19.4021 23.3822C19.5821 18.7022 19.4721 14.0522 19.4021 9.40224L6.73212 9.77223C6.97212 10.6722 6.23211 11.4922 6.16211 12.1822C6.09211 12.8722 6.63213 13.8122 6.30213 14.7622C6.14213 15.2122 5.47212 15.2723 5.36212 15.4823C4.82212 16.4923 4.73212 18.4622 2.89212 17.9322C1.85212 17.6322 0.0921173 13.3422 0.0121174 12.1922C-0.107883 10.4422 0.682126 5.53225 1.55213 4.04225C2.68213 2.10225 8.12211 1.54221 10.3221 1.25221C20.2921 -0.0877858 30.9221 -0.107759 40.8521 0.092241C42.0321 0.112241 44.7721 0.902236 45.3121 1.96224C46.2421 3.75224 45.7421 10.7123 45.4821 12.9223C45.3621 13.9623 45.2221 15.7122 45.0621 16.5722C44.9521 17.1422 44.1921 19.9722 43.9421 20.1522H43.9121Z" fill="#1E161F"/>
</svg>
