<svg width="43" height="73" viewBox="0 0 43 73" fill="none" xmlns="http://www.w3.org/2000/svg">
<path d="M41.3012 14.2751C40.9612 15.0251 38.9012 15.5451 38.0312 15.9451C37.4912 16.1951 37.0612 17.2651 35.7412 16.9551C33.9412 16.5351 33.9412 13.9751 33.5912 12.8151C33.5012 12.5051 32.9412 12.5451 32.8812 12.2851C32.6112 11.0751 33.4412 8.16506 31.2612 8.82506C30.9612 8.91506 31.1612 9.51508 30.4812 9.59508C29.0612 9.76508 26.7412 9.88505 25.4212 9.56505C25.1012 11.2851 25.7512 12.9851 25.8012 14.5851C26.2812 27.8151 23.9012 44.1851 27.9312 56.4551C28.1012 56.9751 27.9112 57.6651 28.0912 58.1751C28.1512 58.3451 29.7512 61.0151 29.8712 61.1451C30.3212 61.6151 31.3212 61.5251 31.9012 62.9151C33.0512 65.6751 32.9012 67.5651 30.5912 69.3651C28.5212 70.9751 27.8312 70.6351 25.6612 71.0951C25.3812 71.1551 25.4512 71.715 25.2212 71.745C23.8312 71.965 21.8412 71.7051 20.3712 71.8351C17.1112 72.1051 12.5912 73.7151 10.9612 69.6751C10.2712 67.9651 10.1612 66.0951 11.2312 64.5551C12.0312 63.4051 15.3312 60.7651 15.6812 59.9651C15.9412 59.3851 16.0512 57.1451 16.0812 56.3651C16.5712 45.2651 16.6212 33.8451 16.4612 22.8051C16.4012 18.6251 16.1612 14.4451 16.0612 10.2951C13.6712 11.0751 11.1612 11.4651 8.60118 11.4151C8.51118 12.9451 8.73118 14.5551 8.60118 16.0751C8.25118 19.9151 7.80118 19.0351 4.79118 20.0251C4.53118 20.1051 4.53118 20.6651 4.24118 20.7351C0.631176 21.5951 0.791179 18.5851 0.291179 16.1951C-0.298821 13.3551 0.151185 15.2351 0.391185 14.1551C0.851185 12.1551 0.201174 7.9251 1.05117 5.9251C1.35117 5.2151 4.21118 2.5751 4.88118 2.3051C6.24118 1.7551 8.76119 1.92508 10.2512 1.71508C19.3412 0.445077 27.7812 -0.434914 36.7612 0.225086C39.4812 0.425086 40.6612 0.445086 41.5912 3.22509C42.3712 5.53509 42.0412 9.4951 41.7712 11.9851C41.6912 12.6851 41.5512 13.6551 41.2612 14.2851L41.3012 14.2751Z" fill="#221A22"/>
</svg>
