<svg width="44" height="74" viewBox="0 0 44 74" fill="none" xmlns="http://www.w3.org/2000/svg">
<path d="M17.2813 1.02388C18.2813 0.973879 19.9913 1.23388 20.7713 1.02388C21.1313 0.923879 20.9913 0.303879 21.0213 0.273879C21.2313 0.113879 21.6513 1.02388 22.3213 1.02388C22.5713 1.02388 22.2913 0.33387 23.0413 0.23387C25.4513 -0.0861296 32.5813 -0.0761101 35.0213 0.25389C36.3513 0.43389 40.1513 2.09387 41.1713 3.04387C42.3713 4.15387 43.4913 7.05387 43.7213 8.70387C44.0113 10.7739 44.1813 14.9039 43.3913 16.7939C43.1513 17.3739 39.4613 18.5839 38.6313 18.8339C38.0813 19.0039 37.4013 18.7939 36.9213 18.9239C36.5513 19.0239 36.7013 19.6139 36.6513 19.6439C35.7613 20.2839 35.9913 18.9239 35.9213 18.9239H27.9013C26.7713 18.9239 27.7513 21.6039 27.7313 22.1139C27.5213 28.4839 27.3613 34.9939 27.3413 41.3039C26.2113 41.4339 24.8513 41.1339 23.7713 41.2739C23.1113 41.3639 23.3413 41.8839 22.9513 42.0339C22.6213 42.1639 21.8913 41.9339 21.7613 42.0639C21.6413 42.1839 21.8413 42.8939 21.7213 43.2339C21.4113 44.1339 19.6513 43.8939 20.2613 46.2639C20.3313 46.5439 20.9313 46.5039 20.9913 46.7739C21.1613 47.5239 20.8613 48.4339 21.0113 49.2339C21.0613 49.5239 22.1613 50.0539 22.3713 50.3639C22.5913 50.6939 22.4013 51.3339 22.6113 51.6239C23.4113 52.6839 24.5813 53.5439 25.9613 53.2239C26.2213 53.1639 26.3413 52.0639 27.3413 52.4939C27.3713 56.9239 27.9413 63.0039 27.3613 67.2439C27.2013 68.4039 26.6313 68.4239 26.3213 69.1839C25.8913 70.2439 25.7713 71.7539 24.5713 72.6539C23.3013 73.6139 22.7913 72.3939 22.3113 72.3939C22.0813 72.3939 21.6313 72.9339 21.1713 73.0039C19.9713 73.1839 17.2513 72.1539 16.5313 71.1439C17.7113 68.7239 20.4313 68.5439 19.5113 65.1839L18.7713 65.9239C19.2413 64.2839 18.1013 64.5039 18.0413 64.4239C17.4813 63.6839 18.6113 63.6839 18.6613 63.6139C19.9613 61.7239 15.0713 60.2739 16.6413 62.8539C16.7213 62.9839 17.1913 62.9039 17.2413 62.9739C17.5913 63.4639 16.0513 64.7839 15.7913 64.4339C16.4613 62.9339 15.0713 62.1339 15.0113 61.6639C14.8813 60.6439 15.0613 59.2139 15.0413 58.0939C15.0013 56.2339 15.0613 54.3639 15.0413 52.5039C15.6613 52.1139 15.4113 51.0839 15.4213 50.4539C15.4713 45.7439 15.3913 41.0239 15.3913 36.3039C16.6713 36.3639 18.2413 33.4939 18.8713 33.2139C19.3513 33.0039 20.1713 33.1739 20.2513 33.1039C20.4513 32.9239 20.3713 28.2839 20.2813 27.6739C20.1913 27.0639 19.7113 27.2439 19.5413 26.8339C19.4313 26.5639 19.5813 26.0939 19.3813 25.7739C18.3313 24.1039 15.3913 25.2639 15.0313 24.9039C14.7013 24.5639 15.5613 21.3739 14.6613 20.4239C13.6213 19.3339 9.6913 20.0639 8.1313 19.9839C7.8013 19.9639 7.63128 19.6839 7.58128 19.6739C10.0313 18.8539 10.1613 16.5239 9.85127 14.2439C9.76127 13.5739 9.24129 13.8039 9.09129 13.4239C8.96129 13.0939 9.19129 12.3639 9.06129 12.2339C8.93129 12.1039 8.20129 12.3339 7.87129 12.2039C7.49129 12.0539 7.73127 11.5539 7.04127 11.4439C5.31127 11.1639 5.44129 12.0039 5.22129 12.0939C4.79129 12.2639 4.27127 12.1639 3.98127 12.3439C2.72127 13.1439 3.33128 13.9439 3.11128 14.9439C3.05128 15.2239 2.4513 15.1739 2.3813 15.4539C1.8813 17.3839 3.56128 17.4539 3.11128 19.3039C2.78128 19.1439 1.16127 17.5939 0.981271 17.3239C0.801271 17.0539 0.921281 16.5039 0.741281 16.0639C0.691281 15.9339 0.191295 15.9339 0.131295 15.6839C-0.0487047 14.9439 -0.028734 10.3039 0.101266 9.40388C0.221266 8.57388 0.681266 8.20389 0.851266 7.53389C1.13127 6.37389 0.83127 5.38387 2.01127 4.23387C3.95127 2.34387 4.09129 3.34387 5.84129 3.14387C6.67129 3.05387 7.42128 2.03388 8.33128 1.77388C8.44128 2.62388 8.15129 3.70388 8.34129 4.49388C8.40129 4.74388 8.90127 4.75389 8.95127 4.87389C9.14127 5.35389 9.35127 6.82389 10.1013 6.97389C13.8913 7.71389 13.9613 5.79387 16.4213 3.89387L17.2913 1.02388H17.2813ZM31.4113 4.81389C31.2313 4.68389 30.9513 4.76388 30.7213 4.77388C29.9913 5.47388 30.0613 7.59388 29.2213 6.99388C29.1813 6.96388 29.3313 6.35388 28.9813 6.24388C27.4113 5.77388 26.5613 7.91387 26.9713 9.23387L26.2313 8.49388C26.3713 9.28388 26.0313 13.5339 26.2313 13.7139C26.3413 13.8239 27.3713 13.6439 27.7313 13.7139C27.9913 14.9439 26.6513 14.0139 26.9913 15.1939C28.6913 16.4439 29.4813 17.2839 31.9413 16.6839C32.0713 16.6539 33.8213 15.2439 33.9513 15.2139C34.4713 15.0839 35.8313 15.3139 35.9313 15.2139C36.0313 15.1139 35.8213 14.3539 35.9313 13.9939C36.0313 13.6539 37.2713 13.7139 36.6613 12.9939C36.5613 12.8739 36.0113 13.1739 35.9313 12.7939C35.7413 11.9439 36.5713 12.4139 36.6813 11.9939C37.1213 10.3839 36.0213 9.84389 35.4213 8.47389C35.1613 7.87389 35.2613 7.00389 35.0213 6.62389C34.6713 6.05389 33.6913 6.43389 33.2313 6.25389C33.1013 6.20389 31.9513 5.60389 31.5613 5.41389C31.4113 5.34389 31.4713 4.88388 31.4113 4.83388V4.81389Z" fill="#EF5268"/>
<path d="M27.3513 41.3038C27.3413 45.0338 27.3213 48.7338 27.3513 52.4938C26.3513 52.0638 26.2413 53.1638 25.9713 53.2238C24.5913 53.5438 23.4213 52.6838 22.6213 51.6238C22.4113 51.3438 22.5913 50.6938 22.3813 50.3638C22.1713 50.0338 21.0813 49.5238 21.0213 49.2338C20.8713 48.4338 21.1713 47.5238 21.0013 46.7738C20.9413 46.5038 20.3513 46.5438 20.2713 46.2638C19.6613 43.8838 21.4213 44.1338 21.7313 43.2338C21.8513 42.8938 21.6513 42.1738 21.7713 42.0638C21.9013 41.9338 22.6313 42.1638 22.9613 42.0338C23.3513 41.8838 23.1213 41.3638 23.7813 41.2738C24.8613 41.1338 26.2213 41.4338 27.3513 41.3038Z" fill="#F9B027"/>
<path d="M14.6714 20.4239C15.5714 21.3639 14.7114 24.5639 15.0414 24.9039C15.4014 25.2639 18.3414 24.1039 19.3914 25.7739C19.5914 26.0939 19.4414 26.5639 19.5514 26.8339C19.7314 27.2439 20.2114 27.0439 20.2914 27.6739C20.3714 28.3039 20.4614 32.9239 20.2614 33.1039C20.1814 33.1739 19.3614 33.0039 18.8814 33.2139C18.2514 33.4939 16.6814 36.3639 15.4014 36.3039C15.4014 41.0139 15.4814 45.7339 15.4314 50.4539C15.4314 51.0839 15.6714 52.1139 15.0514 52.5039C14.9614 43.4739 14.8614 34.3439 14.6814 25.4639C14.6514 23.7839 14.7014 22.1039 14.6814 20.4339L14.6714 20.4239Z" fill="#F9B027"/>
<path d="M3.1213 19.3039C3.5613 17.4539 1.89129 17.3839 2.39129 15.4539C2.46129 15.1739 3.0613 15.2239 3.1213 14.9439C3.3413 13.9439 2.7413 13.1439 3.9913 12.3439C4.2813 12.1639 4.80129 12.2639 5.23129 12.0939C5.45129 12.0039 5.32129 11.1639 7.05129 11.4439C7.74129 11.5539 7.50131 12.0539 7.88131 12.2039C8.21131 12.3339 8.94128 12.1039 9.07128 12.2339C9.20128 12.3639 8.97128 13.0939 9.10128 13.4239C9.25128 13.8139 9.77129 13.5739 9.86129 14.2439C10.1713 16.5339 10.0413 18.8639 7.5913 19.6739C6.0013 19.5539 4.5813 20.0239 3.1213 19.3039Z" fill="#F9B027"/>
<path d="M17.2812 1.02386L16.4112 3.89386C13.9512 5.79386 13.8812 7.71388 10.0912 6.97388C9.34123 6.82388 9.14123 5.36387 8.94123 4.87387C8.89123 4.74387 8.39122 4.74387 8.33122 4.49387C8.14122 3.70387 8.43121 2.62386 8.32121 1.77386C10.8912 1.02386 14.5512 1.15386 17.2712 1.02386H17.2812Z" fill="#F9B027"/>
<path d="M15.0513 58.0839C15.0713 59.2039 14.8913 60.6239 15.0213 61.6539C15.0813 62.1239 16.4713 62.9239 15.8013 64.4239C16.0713 64.7639 17.6013 63.4539 17.2513 62.9639C17.2113 62.9039 16.7313 62.9839 16.6513 62.8439C15.0813 60.2539 19.9713 61.7139 18.6713 63.6039C18.6213 63.6739 17.4913 63.6639 18.0513 64.4139C18.1113 64.4939 19.2513 64.2739 18.7813 65.9139L19.5213 65.1739C20.4413 68.5439 17.7213 68.7139 16.5413 71.1339C16.3713 70.8939 16.1813 70.7639 15.9713 70.4039C15.0813 68.8839 14.7514 65.8239 14.6614 63.8839C14.5814 62.1439 14.4413 59.7239 15.0513 58.0839Z" fill="#F9B027"/>
<path d="M31.4113 4.8139C31.4713 4.8639 31.4113 5.31388 31.5613 5.39388C31.9513 5.58388 33.1013 6.18388 33.2313 6.23388C33.6913 6.41388 34.6713 6.04387 35.0213 6.60387C35.2613 6.98387 35.1513 7.85388 35.4213 8.45388C36.0213 9.82388 37.1213 10.3639 36.6813 11.9739C36.5713 12.3939 35.7313 11.9239 35.9313 12.7739C36.0213 13.1539 36.5713 12.8539 36.6613 12.9739C37.2713 13.7039 36.0313 13.6439 35.9313 13.9739C35.8213 14.3339 36.0313 15.0939 35.9313 15.1939C35.8313 15.3039 34.4713 15.0739 33.9513 15.1939C33.8213 15.2239 32.0713 16.6339 31.9413 16.6639C29.4813 17.2639 28.6913 16.4239 26.9913 15.1739C26.6513 13.9839 27.9913 14.9239 27.7313 13.6939C27.3713 13.6239 26.3513 13.8039 26.2313 13.6939C26.0413 13.5139 26.3713 9.2639 26.2313 8.4739L26.9713 9.21389C26.5613 7.89389 27.4213 5.7539 28.9813 6.2239C29.3313 6.3239 29.1813 6.9439 29.2213 6.9739C30.0513 7.5739 29.9813 5.4539 30.7213 4.7539C30.9513 4.7439 31.2313 4.66388 31.4113 4.79388V4.8139Z" fill="#F9B027"/>
</svg>
