<svg width="44" height="70" viewBox="0 0 44 70" fill="none" xmlns="http://www.w3.org/2000/svg">
<path d="M42.5707 9.78998C41.2307 9.46998 42.0607 11.03 41.8207 11.28C41.1307 12.01 40.4407 9.24997 39.6307 9.83997C39.5707 9.87997 39.6307 10.34 39.4807 10.41C39.0407 10.61 38.5007 10.45 38.2107 10.64C38.0807 10.73 36.0307 12.71 35.9707 12.85C35.5407 13.97 36.0407 15.96 35.8607 17.23C35.7207 17.25 35.2207 17.67 34.7007 17.73C31.3907 18.12 28.0007 18.38 24.6707 18.72C24.1307 20.74 25.2407 22.46 25.4307 24.12C25.7607 27 25.2907 30.63 25.4207 33.64C23.5707 32.75 24.1507 31.73 21.4807 32.12C20.8407 32.21 21.0607 32.67 20.6407 32.86C20.4207 32.96 19.9807 32.86 19.5807 33.02C19.2807 33.14 18.7307 34.22 17.2207 33.64C18.0507 35.1 15.5907 37.34 15.7007 38.31C15.7607 38.79 17.1507 39.6 16.4807 41.1L17.2207 40.36C17.2807 41.71 16.7907 43.14 18.0907 43.96C18.3807 44.14 18.9007 44.04 19.3307 44.21C19.6007 44.31 19.6407 45.28 21.4307 44.81C21.6807 44.74 21.6907 44.26 21.8207 44.21C22.2607 44.04 22.8007 44.14 23.0707 43.96C23.9007 43.41 23.8407 41.99 25.8007 42.59C26.0907 48.56 26.3907 55.04 27.2907 60.86C26.9507 61.41 26.1507 61.13 25.5407 61.36C25.4407 61.4 25.4707 61.83 25.1407 61.97C24.8107 62.11 24.0907 61.87 23.9507 62C23.8507 62.1 24.0307 62.91 23.8307 63.37C23.7407 63.58 22.5307 64.18 22.4607 64.49C22.3407 65.1 22.3207 67.1 22.4607 67.69C22.5307 68 23.4607 67.94 23.2007 68.69C20.3907 69.09 15.7107 70.47 13.8607 67.4C13.3907 66.62 13.6407 66.31 13.5107 65.71C12.7707 64.11 17.0707 61.66 17.2207 60.97C17.5607 59.37 16.9907 57.7899 16.4507 56.3199C16.3307 55.9899 15.8207 56 15.7607 55.75C15.1707 53.21 16.6707 53.16 14.1107 50.93C13.9007 50.74 13.3107 50.86 13.2107 50.75C12.9307 50.43 13.4407 49.2 12.7707 48.93C12.5107 41.14 12.2007 33.4 12.0407 25.61C12.0107 23.92 11.5007 22 12.0207 20.22C11.0307 20.22 10.0307 20.22 9.04073 20.22C8.71073 18.88 10.3207 19.73 10.5307 19.47C10.6407 19.34 10.4107 18.62 10.5407 18.27C10.6907 17.89 11.2107 18.12 11.3007 17.45C11.3807 16.87 11.3907 15.03 11.2607 14.51C11.1907 14.23 10.5907 14.29 10.5307 14C10.2707 12.83 9.82073 11.89 9.79073 11.76C9.60073 10.92 9.94072 10.07 9.66072 9.12997C9.54072 8.71997 6.77073 7.39998 6.29073 7.53998C6.03073 7.61998 6.08073 8.20997 5.79073 8.27997C4.85073 8.49997 3.58072 8.09999 2.59072 8.29999L0.0807229 11.27C0.130723 8.98999 -0.509274 6.95999 1.38073 5.29999C4.11073 2.89999 7.88073 3.58997 11.0407 3.02997C14.6007 2.39997 18.1007 1.37999 21.7007 0.829987C21.9607 1.57999 21.0207 1.51999 20.9607 1.82999C20.8507 2.37999 21.0707 3.00997 20.9607 3.55997C20.9007 3.83997 20.3007 3.77998 20.2307 4.06998C19.7307 5.99998 21.9107 7.28999 21.7207 9.01999C22.6407 9.02999 23.6707 9.51997 24.5707 9.90997C24.8207 10.02 24.6507 10.83 26.3907 10.56C27.1007 10.45 26.8807 9.84998 27.1907 9.78998C28.5407 9.49998 28.3807 9.51998 29.3007 9.16998C29.7307 8.99998 30.2607 9.09998 30.5407 8.91998C31.7907 8.11998 31.1907 7.32998 31.4107 6.31998C31.4807 6.00998 32.0907 6.22997 32.1807 5.52997C32.3907 3.89997 31.9707 1.79998 32.1507 0.0999756C33.5107 0.189976 35.8107 0.489982 37.0807 0.949982C39.6907 1.86998 41.6307 7.24999 42.5907 9.79999L42.5707 9.78998Z" fill="#EF5268"/>
<path d="M0.060761 11.28L2.57077 8.31C3.57077 8.11 4.84077 8.51001 5.77077 8.29001C6.06077 8.22001 6.00077 7.63002 6.27077 7.55002C6.75077 7.41002 9.51076 8.73002 9.64076 9.14002C9.92076 10.08 9.58077 10.93 9.77077 11.77C9.80077 11.9 10.2608 12.83 10.5108 14.01C10.5708 14.29 11.1808 14.24 11.2408 14.52C11.3608 15.04 11.3608 16.88 11.2808 17.46C11.1908 18.13 10.6708 17.9 10.5208 18.28C10.3908 18.63 10.6108 19.35 10.5108 19.48C10.3008 19.73 8.69077 18.88 9.02077 20.23C7.12077 20.23 3.33077 20.75 1.91077 19.7C-0.449233 17.96 0.0207708 13.88 0.0707708 11.28H0.060761Z" fill="#F9B027"/>
<path d="M32.1308 0.0899282C31.9508 1.78993 32.3708 3.88995 32.1608 5.51995C32.0708 6.20995 31.4608 5.99993 31.3908 6.30993C31.1708 7.31993 31.7708 8.10994 30.5208 8.90994C30.2308 9.08994 29.7108 8.99994 29.2808 9.15994C28.3608 9.50994 28.5308 9.49993 27.1708 9.77993C26.8708 9.83993 27.0908 10.44 26.3708 10.55C24.6308 10.83 24.8108 10.0099 24.5508 9.89993C23.6508 9.51993 22.6308 9.02994 21.7008 9.00994C21.8808 7.27994 19.7008 5.98993 20.2108 4.05993C20.2808 3.77993 20.8808 3.82995 20.9408 3.54995C21.0608 3.00995 20.8408 2.36994 20.9408 1.81994C21.0008 1.50994 21.9508 1.56994 21.6808 0.819939C25.2708 0.279939 28.3108 -0.180061 32.1208 0.0699392L32.1308 0.0899282Z" fill="#F9B027"/>
<path d="M25.7909 42.6C23.8309 42 23.9008 43.43 23.0608 43.97C22.7908 44.15 22.2508 44.05 21.8108 44.22C21.6808 44.27 21.6808 44.76 21.4208 44.82C19.6308 45.29 19.5909 44.32 19.3209 44.22C18.8909 44.05 18.3708 44.15 18.0808 43.97C16.7808 43.15 17.2609 41.7199 17.2109 40.3699L16.4708 41.11C17.1408 39.61 15.7408 38.81 15.6908 38.32C15.5808 37.35 18.0409 35.1099 17.2109 33.6499C18.7209 34.2299 19.2709 33.16 19.5709 33.03C19.9709 32.86 20.4108 32.9699 20.6308 32.8699C21.0508 32.6799 20.8408 32.22 21.4708 32.13C24.1408 31.74 23.5608 32.7599 25.4108 33.6499C25.5308 36.5899 25.6508 39.79 25.7808 42.6H25.7909Z" fill="#F9B027"/>
<path d="M35.8509 17.25C36.0309 15.98 35.5309 13.99 35.9609 12.87C36.0209 12.72 38.0709 10.74 38.2009 10.66C38.4909 10.47 39.0409 10.63 39.4709 10.43C39.6209 10.36 39.5609 9.89999 39.6209 9.85999C40.4309 9.26999 41.1209 12.03 41.8109 11.3C42.0509 11.05 41.2109 9.48997 42.5609 9.80997C42.8009 10.46 43.3009 10.76 43.3309 11.09C43.4309 12.04 43.4409 14.85 43.1809 15.67C42.9809 16.31 41.6409 16.46 41.1909 16.64C41.0609 16.69 41.0609 17.19 40.8109 17.25C39.2909 17.6 36.9409 17.14 35.8509 17.25Z" fill="#F9B027"/>
<path d="M12.7407 48.9399C13.4107 49.2099 12.9007 50.4399 13.1807 50.7599C13.2807 50.8799 13.8707 50.76 14.0807 50.94C16.6407 53.17 15.1407 53.2199 15.7307 55.7599C15.7907 56.0099 16.2907 55.9999 16.4207 56.3299C16.9607 57.7999 17.5307 59.3799 17.1907 60.9799C17.0407 61.6799 12.7307 64.1299 13.4807 65.7199C12.4107 60.8499 12.9107 54.1599 12.7307 48.9399H12.7407Z" fill="#F9B027"/>
<path d="M27.2807 60.88C27.3807 61.54 28.4207 65.4 28.2407 65.73C28.1407 65.91 25.5107 68.53 25.3207 68.6C24.5807 68.86 23.9007 68.6 23.1807 68.71C23.4407 67.96 22.5107 68.02 22.4407 67.71C22.3107 67.12 22.3307 65.1199 22.4407 64.5099C22.5007 64.1999 23.7107 63.6 23.8107 63.39C24.0207 62.92 23.8407 62.11 23.9307 62.02C24.0607 61.89 24.7807 62.12 25.1207 61.99C25.4607 61.86 25.4307 61.42 25.5207 61.38C26.1307 61.15 26.9407 61.43 27.2707 60.88H27.2807Z" fill="#F9B027"/>
</svg>
