<svg width="40" height="65" viewBox="0 0 40 65" fill="none" xmlns="http://www.w3.org/2000/svg">
<path d="M36.714 22.5619C34.134 25.0719 30.974 26.6919 27.244 26.8819C29.584 34.0819 31.254 40.9619 30.544 48.6319C30.044 54.0719 25.964 62.0619 20.784 64.2419C18.564 65.1719 16.154 65.2219 14.094 63.8219C7.044 59.0219 9.54399 39.3118 11.324 32.0318C11.484 31.3518 12.884 27.8318 12.704 27.6418C12.224 27.6618 11.774 27.5318 11.334 27.3418C6.424 25.1918 2.36401 21.4619 0.884008 16.1619C-0.505992 11.2119 -0.775998 6.83184 4.004 3.83184C8.084 1.27184 15.004 0.481885 19.684 0.131885C24.824 -0.248115 28.524 0.0918803 33.174 2.50188C38.584 5.32188 42.404 17.0219 38.014 21.8219C37.544 22.3419 36.964 22.3319 36.714 22.5719V22.5619ZM29.354 6.50188C28.274 5.53188 24.084 3.96186 23.914 6.17186C23.774 7.91186 25.654 7.41184 26.844 8.08184C28.154 8.82184 28.834 12.2119 30.254 10.3219C31.164 9.11189 30.334 7.39189 29.354 6.51189V6.50188ZM33.204 11.5918C30.054 10.6118 29.234 15.5419 31.834 15.2219C33.714 14.9919 33.174 13.0018 33.204 11.5918Z" fill="#E9549D"/>
<path d="M29.3539 6.5019C30.3439 7.3919 31.1739 9.10189 30.2539 10.3119C28.8339 12.2019 28.1539 8.8119 26.8439 8.0719C25.6539 7.4019 23.7739 7.90187 23.9139 6.16187C24.0839 3.95187 28.2739 5.52189 29.3539 6.49189V6.5019Z" fill="white"/>
<path d="M33.2039 11.5918C33.1739 13.0118 33.7139 14.9918 31.8339 15.2218C29.2339 15.5418 30.0539 10.6118 33.2039 11.5918Z" fill="white"/>
</svg>
