<svg width="42" height="66" viewBox="0 0 42 66" fill="none" xmlns="http://www.w3.org/2000/svg">
<path d="M39.624 8.66842C40.394 9.58842 41.094 10.7384 41.304 12.0284C41.424 12.7784 40.514 16.4084 40.104 16.9184C39.264 17.9784 36.864 18.7384 35.874 19.4084C34.784 20.1384 33.334 21.6584 31.904 22.3184C30.944 22.7584 26.144 23.9484 26.114 24.2784C26.394 25.8384 27.324 27.4684 27.684 28.9284C29.824 37.6484 30.834 49.5884 27.354 57.6584C26.084 60.6184 21.814 65.5384 18.414 65.5284C15.014 65.5184 11.824 62.3484 10.094 59.6584C3.55398 49.4984 7.92397 35.5584 11.144 24.8584C6.35397 24.3384 1.60397 22.2784 0.423967 17.1184C-2.89603 2.60843 14.024 -2.56158 25.314 1.16842C27.054 1.73842 29.674 2.61843 31.384 3.30843C33.214 4.04843 38.474 7.26842 39.634 8.66842H39.624ZM24.094 44.3484C21.544 41.7684 21.424 47.7084 21.164 48.8784C20.844 50.3184 18.854 52.7684 21.564 53.4284C23.274 53.8484 25.624 45.8884 24.104 44.3484H24.094ZM19.624 55.5084C16.094 55.8284 18.724 59.9284 20.094 58.2484C20.854 57.3184 21.384 55.3484 19.624 55.5084Z" fill="#E9549D"/>
<path d="M24.094 44.3484C25.614 45.8884 23.264 53.8484 21.554 53.4284C18.854 52.7584 20.834 50.3184 21.154 48.8784C21.414 47.7084 21.544 41.7684 24.084 44.3484H24.094Z" fill="white"/>
<path d="M19.6239 55.5083C21.3839 55.3483 20.8539 57.3184 20.0939 58.2484C18.7239 59.9284 16.0939 55.8283 19.6239 55.5083Z" fill="white"/>
</svg>
