<svg width="54" height="62" viewBox="0 0 54 62" fill="none" xmlns="http://www.w3.org/2000/svg">
<path d="M24.1499 60.19C23.3799 60.19 23.1699 59.98 23.1699 59.21V18.76C23.1699 18.21 22.7199 17.76 22.1699 17.76H7.65991C6.88991 17.76 6.67993 17.55 6.67993 16.78V7.65999C6.67993 6.88999 6.88991 6.67999 7.65991 6.67999H51.4399C52.2099 6.67999 52.4199 6.88999 52.4199 7.65999V16.78C52.4199 17.55 52.2099 17.76 51.4399 17.76H36.9299C36.3799 17.76 35.9299 18.21 35.9299 18.76V59.21C35.9299 59.98 35.7199 60.19 34.9499 60.19H24.1599H24.1499Z" fill="#FC0B50"/>
<path d="M51.4199 7.66998V16.76H36.9199C35.8199 16.76 34.9199 17.66 34.9199 18.76V59.19H24.1699V18.76C24.1699 17.66 23.2699 16.76 22.1699 16.76H7.66992V7.66998H51.4199ZM51.4299 5.66998H7.64993C6.32993 5.66998 5.66992 6.32999 5.66992 7.64999V16.77C5.66992 18.09 6.32993 18.75 7.64993 18.75H22.1599V59.2C22.1599 60.52 22.8199 61.18 24.1399 61.18H34.9299C36.2499 61.18 36.9099 60.52 36.9099 59.2V18.75H51.4199C52.7399 18.75 53.3999 18.09 53.3999 16.77V7.64999C53.3999 6.32999 52.7399 5.66998 51.4199 5.66998H51.4299Z" fill="#231F20"/>
<path d="M23.8699 59.91C23.0999 59.91 22.8899 59.7 22.8899 58.93V18.48C22.8899 17.93 22.4399 17.48 21.8899 17.48H7.37988C6.60988 17.48 6.3999 17.27 6.3999 16.5V7.38002C6.3999 6.61002 6.60988 6.40002 7.37988 6.40002H51.1599C51.9299 6.40002 52.1399 6.61002 52.1399 7.38002V16.5C52.1399 17.27 51.9299 17.48 51.1599 17.48H36.6499C36.0999 17.48 35.6499 17.93 35.6499 18.48V58.93C35.6499 59.7 35.4399 59.91 34.6699 59.91H23.8799H23.8699Z" fill="#FC0B50"/>
<path d="M51.1301 7.39001V16.48H36.6301C35.5301 16.48 34.6301 17.38 34.6301 18.48V58.91H23.8801V18.48C23.8801 17.38 22.9801 16.48 21.8801 16.48H7.38013V7.39001H51.1301ZM51.1501 5.39001H7.37015C6.05015 5.39001 5.39014 6.05003 5.39014 7.37003V16.49C5.39014 17.81 6.05015 18.47 7.37015 18.47H21.8801V58.92C21.8801 60.24 22.5401 60.9 23.8601 60.9H34.6501C35.9701 60.9 36.6301 60.24 36.6301 58.92V18.47H51.1401C52.4601 18.47 53.1201 17.81 53.1201 16.49V7.37003C53.1201 6.05003 52.4601 5.39001 51.1401 5.39001H51.1501Z" fill="#231F20"/>
<path d="M23.5801 59.63C22.8101 59.63 22.6001 59.42 22.6001 58.65V18.2C22.6001 17.65 22.1501 17.2 21.6001 17.2H7.09012C6.32012 17.2 6.11011 16.99 6.11011 16.22V7.09999C6.11011 6.32999 6.32012 6.12 7.09012 6.12H50.8701C51.6401 6.12 51.8501 6.32999 51.8501 7.09999V16.22C51.8501 16.99 51.6401 17.2 50.8701 17.2H36.3601C35.8101 17.2 35.3601 17.65 35.3601 18.2V58.65C35.3601 59.42 35.1501 59.63 34.3801 59.63H23.5901H23.5801Z" fill="#FC0B50"/>
<path d="M50.8501 7.10999V16.2H36.3501C35.2501 16.2 34.3501 17.1 34.3501 18.2V58.63H23.6001V18.2C23.6001 17.1 22.7001 16.2 21.6001 16.2H7.1001V7.10999H50.8501ZM50.8701 5.10999H7.09012C5.77012 5.10999 5.11011 5.76998 5.11011 7.08998V16.21C5.11011 17.53 5.77012 18.19 7.09012 18.19H21.6001V58.64C21.6001 59.96 22.2601 60.62 23.5801 60.62H34.3701C35.6901 60.62 36.3501 59.96 36.3501 58.64V18.19H50.8601C52.1801 18.19 52.8401 17.53 52.8401 16.21V7.08998C52.8401 5.76998 52.1801 5.10999 50.8601 5.10999H50.8701Z" fill="#231F20"/>
<path d="M23.3001 59.34C22.5301 59.34 22.3201 59.13 22.3201 58.36V17.91C22.3201 17.36 21.8701 16.91 21.3201 16.91H6.81009C6.04009 16.91 5.83008 16.7 5.83008 15.93V6.81001C5.83008 6.04001 6.04009 5.83002 6.81009 5.83002H50.5901C51.3601 5.83002 51.5701 6.04001 51.5701 6.81001V15.93C51.5701 16.7 51.3601 16.91 50.5901 16.91H36.0801C35.5301 16.91 35.0801 17.36 35.0801 17.91V58.36C35.0801 59.13 34.8701 59.34 34.1001 59.34H23.3101H23.3001Z" fill="#FC0B50"/>
<path d="M50.5701 6.82001V15.91H36.0701C34.9701 15.91 34.0701 16.81 34.0701 17.91V58.34H23.3201V17.91C23.3201 16.81 22.4201 15.91 21.3201 15.91H6.82007V6.82001H50.5701ZM50.5801 4.82001H6.80008C5.48008 4.82001 4.82007 5.48 4.82007 6.8V15.92C4.82007 17.24 5.48008 17.9 6.80008 17.9H21.3101V58.35C21.3101 59.67 21.9701 60.33 23.2901 60.33H34.0801C35.4001 60.33 36.0601 59.67 36.0601 58.35V17.9H50.5701C51.8901 17.9 52.5501 17.24 52.5501 15.92V6.8C52.5501 5.48 51.8901 4.82001 50.5701 4.82001H50.5801Z" fill="#231F20"/>
<path d="M23.0201 59.06C22.2501 59.06 22.04 58.85 22.04 58.08V17.63C22.04 17.08 21.59 16.63 21.04 16.63H6.53006C5.76006 16.63 5.55005 16.42 5.55005 15.65V6.52998C5.55005 5.75998 5.76006 5.54999 6.53006 5.54999H50.3101C51.0801 5.54999 51.29 5.75998 51.29 6.52998V15.65C51.29 16.42 51.0801 16.63 50.3101 16.63H35.8C35.25 16.63 34.8 17.08 34.8 17.63V58.08C34.8 58.85 34.59 59.06 33.82 59.06H23.0301H23.0201Z" fill="#FC0B50"/>
<path d="M50.2801 6.53998V15.63H35.7801C34.6801 15.63 33.7801 16.53 33.7801 17.63V58.06H23.0301V17.63C23.0301 16.53 22.1301 15.63 21.0301 15.63H6.53006V6.53998H50.2801ZM50.3 4.53998H6.52005C5.20005 4.53998 4.54004 5.19997 4.54004 6.51997V15.64C4.54004 16.96 5.20005 17.62 6.52005 17.62H21.0301V58.07C21.0301 59.39 21.69 60.05 23.01 60.05H33.8C35.12 60.05 35.7801 59.39 35.7801 58.07V17.62H50.29C51.61 17.62 52.2701 16.96 52.2701 15.64V6.51997C52.2701 5.19997 51.61 4.53998 50.29 4.53998H50.3Z" fill="#231F20"/>
<path d="M22.73 58.78C21.96 58.78 21.75 58.57 21.75 57.8V17.35C21.75 16.8 21.3 16.35 20.75 16.35H6.24002C5.47002 16.35 5.26001 16.14 5.26001 15.37V6.25002C5.26001 5.48002 5.47002 5.27002 6.24002 5.27002H50.02C50.79 5.27002 51 5.48002 51 6.25002V15.37C51 16.14 50.79 16.35 50.02 16.35H35.51C34.96 16.35 34.51 16.8 34.51 17.35V57.8C34.51 58.57 34.3 58.78 33.53 58.78H22.74H22.73Z" fill="#FC0B50"/>
<path d="M50 6.26001V15.35H35.5C34.4 15.35 33.5 16.25 33.5 17.35V57.78H22.75V17.35C22.75 16.25 21.85 15.35 20.75 15.35H6.25V6.26001H50ZM50.02 4.26001H6.24002C4.92002 4.26001 4.26001 4.92001 4.26001 6.24001V15.36C4.26001 16.68 4.92002 17.34 6.24002 17.34H20.75V57.79C20.75 59.11 21.41 59.77 22.73 59.77H33.52C34.84 59.77 35.5 59.11 35.5 57.79V17.34H50.01C51.33 17.34 51.99 16.68 51.99 15.36V6.24001C51.99 4.92001 51.33 4.26001 50.01 4.26001H50.02Z" fill="#231F20"/>
<path d="M22.45 58.49C21.68 58.49 21.47 58.28 21.47 57.51V17.06C21.47 16.51 21.02 16.06 20.47 16.06H5.95999C5.18999 16.06 4.97998 15.85 4.97998 15.08V5.95999C4.97998 5.18999 5.18999 4.97998 5.95999 4.97998H49.74C50.51 4.97998 50.72 5.18999 50.72 5.95999V15.08C50.72 15.85 50.51 16.06 49.74 16.06H35.23C34.68 16.06 34.23 16.51 34.23 17.06V57.51C34.23 58.28 34.02 58.49 33.25 58.49H22.46H22.45Z" fill="#FC0B50"/>
<path d="M49.72 5.97003V15.06H35.22C34.12 15.06 33.22 15.96 33.22 17.06V57.49H22.47V17.06C22.47 15.96 21.57 15.06 20.47 15.06H5.96997V5.97003H49.72ZM49.73 3.97003H5.94998C4.62998 3.97003 3.96997 4.63003 3.96997 5.95003V15.07C3.96997 16.39 4.62998 17.05 5.94998 17.05H20.46V57.5C20.46 58.82 21.12 59.48 22.44 59.48H33.23C34.55 59.48 35.21 58.82 35.21 57.5V17.05H49.72C51.04 17.05 51.7 16.39 51.7 15.07V5.95003C51.7 4.63003 51.04 3.97003 49.72 3.97003H49.73Z" fill="#231F20"/>
<path d="M22.17 58.21C21.4 58.21 21.1899 58 21.1899 57.23V16.78C21.1899 16.23 20.7399 15.78 20.1899 15.78H5.67996C4.90996 15.78 4.69995 15.57 4.69995 14.8V5.68002C4.69995 4.91002 4.90996 4.70001 5.67996 4.70001H49.46C50.23 4.70001 50.4399 4.91002 50.4399 5.68002V14.8C50.4399 15.57 50.23 15.78 49.46 15.78H34.95C34.4 15.78 33.95 16.23 33.95 16.78V57.23C33.95 58 33.7399 58.21 32.9699 58.21H22.18H22.17Z" fill="#FC0B50"/>
<path d="M49.43 5.69V14.78H34.93C33.83 14.78 32.93 15.68 32.93 16.78V57.21H22.18V16.78C22.18 15.68 21.28 14.78 20.18 14.78H5.67996V5.69H49.43ZM49.45 3.69H5.66995C4.34995 3.69 3.68994 4.35 3.68994 5.67V14.79C3.68994 16.11 4.34995 16.77 5.66995 16.77H20.18V57.22C20.18 58.54 20.8399 59.2 22.1599 59.2H32.95C34.27 59.2 34.93 58.54 34.93 57.22V16.77H49.4399C50.7599 16.77 51.42 16.11 51.42 14.79V5.67C51.42 4.35 50.7599 3.69 49.4399 3.69H49.45Z" fill="#231F20"/>
<path d="M21.8799 57.93C21.1099 57.93 20.8999 57.72 20.8999 56.95V16.5C20.8999 15.95 20.4499 15.5 19.8999 15.5H5.38992C4.61992 15.5 4.40991 15.29 4.40991 14.52V5.39999C4.40991 4.62999 4.61992 4.41998 5.38992 4.41998H49.1699C49.9399 4.41998 50.1499 4.62999 50.1499 5.39999V14.52C50.1499 15.29 49.9399 15.5 49.1699 15.5H34.6599C34.1099 15.5 33.6599 15.95 33.6599 16.5V56.95C33.6599 57.72 33.4499 57.93 32.6799 57.93H21.8899H21.8799Z" fill="#FC0B50"/>
<path d="M49.1499 5.40997V14.5H34.6499C33.5499 14.5 32.6499 15.4 32.6499 16.5V56.93H21.8999V16.5C21.8999 15.4 20.9999 14.5 19.8999 14.5H5.39993V5.40997H49.1499ZM49.1699 3.40997H5.38992C4.06992 3.40997 3.40991 4.06997 3.40991 5.38997V14.51C3.40991 15.83 4.06992 16.49 5.38992 16.49H19.8999V56.94C19.8999 58.26 20.5599 58.92 21.8799 58.92H32.6699C33.9899 58.92 34.6499 58.26 34.6499 56.94V16.49H49.1599C50.4799 16.49 51.1399 15.83 51.1399 14.51V5.38997C51.1399 4.06997 50.4799 3.40997 49.1599 3.40997H49.1699Z" fill="#231F20"/>
<path d="M21.5999 57.64C20.8299 57.64 20.6199 57.43 20.6199 56.66V16.21C20.6199 15.66 20.1699 15.21 19.6199 15.21H5.10989C4.33989 15.21 4.12988 15 4.12988 14.23V5.11C4.12988 4.34 4.33989 4.13 5.10989 4.13H48.8899C49.6599 4.13 49.8699 4.34 49.8699 5.11V14.23C49.8699 15 49.6599 15.21 48.8899 15.21H34.3799C33.8299 15.21 33.3799 15.66 33.3799 16.21V56.66C33.3799 57.43 33.1699 57.64 32.3999 57.64H21.6099H21.5999Z" fill="#FC0B50"/>
<path d="M48.8701 5.12V14.21H34.3701C33.2701 14.21 32.3701 15.11 32.3701 16.21V56.64H21.6201V16.21C21.6201 15.11 20.7201 14.21 19.6201 14.21H5.12012V5.12H48.8701ZM48.8801 3.12H5.1001C3.7801 3.12 3.12012 3.77999 3.12012 5.09999V14.22C3.12012 15.54 3.7801 16.2 5.1001 16.2H19.6101V56.65C19.6101 57.97 20.2701 58.63 21.5901 58.63H32.3801C33.7001 58.63 34.3601 57.97 34.3601 56.65V16.2H48.8701C50.1901 16.2 50.8501 15.54 50.8501 14.22V5.09999C50.8501 3.77999 50.1901 3.12 48.8701 3.12H48.8801Z" fill="#231F20"/>
<path d="M21.3201 57.36C20.5501 57.36 20.3401 57.15 20.3401 56.38V15.93C20.3401 15.38 19.8901 14.93 19.3401 14.93H4.83011C4.06011 14.93 3.8501 14.72 3.8501 13.95V4.83003C3.8501 4.06003 4.06011 3.85004 4.83011 3.85004H48.6101C49.3801 3.85004 49.5901 4.06003 49.5901 4.83003V13.95C49.5901 14.72 49.3801 14.93 48.6101 14.93H34.1001C33.5501 14.93 33.1001 15.38 33.1001 15.93V56.38C33.1001 57.15 32.8901 57.36 32.1201 57.36H21.3301H21.3201Z" fill="#FC0B50"/>
<path d="M48.5801 4.84003V13.93H34.0801C32.9801 13.93 32.0801 14.83 32.0801 15.93V56.36H21.3301V15.93C21.3301 14.83 20.4301 13.93 19.3301 13.93H4.83008V4.84003H48.5801ZM48.6001 2.84003H4.82007C3.50007 2.84003 2.84009 3.50004 2.84009 4.82004V13.94C2.84009 15.26 3.50007 15.92 4.82007 15.92H19.3301V56.37C19.3301 57.69 19.9901 58.35 21.3101 58.35H32.1001C33.4201 58.35 34.0801 57.69 34.0801 56.37V15.92H48.5901C49.9101 15.92 50.5701 15.26 50.5701 13.94V4.82004C50.5701 3.50004 49.9101 2.84003 48.5901 2.84003H48.6001Z" fill="#231F20"/>
<path d="M21.0301 57.08C20.2601 57.08 20.05 56.87 20.05 56.1V15.65C20.05 15.1 19.6 14.65 19.05 14.65H4.54004C3.77004 14.65 3.56006 14.44 3.56006 13.67V4.55C3.56006 3.78 3.77004 3.57001 4.54004 3.57001H48.32C49.09 3.57001 49.3 3.78 49.3 4.55V13.67C49.3 14.44 49.09 14.65 48.32 14.65H33.8101C33.2601 14.65 32.8101 15.1 32.8101 15.65V56.1C32.8101 56.87 32.6 57.08 31.83 57.08H21.04H21.0301Z" fill="#FC0B50"/>
<path d="M48.3 4.56V13.65H33.8C32.7 13.65 31.8 14.55 31.8 15.65V56.08H21.05V15.65C21.05 14.55 20.15 13.65 19.05 13.65H4.55005V4.56H48.3ZM48.32 2.56H4.54004C3.22004 2.56 2.56006 3.22001 2.56006 4.54001V13.66C2.56006 14.98 3.22004 15.64 4.54004 15.64H19.05V56.09C19.05 57.41 19.7101 58.07 21.0301 58.07H31.82C33.14 58.07 33.8 57.41 33.8 56.09V15.64H48.3101C49.6301 15.64 50.29 14.98 50.29 13.66V4.54001C50.29 3.22001 49.6301 2.56 48.3101 2.56H48.32Z" fill="#231F20"/>
<path d="M20.75 56.79C19.98 56.79 19.77 56.58 19.77 55.81V15.36C19.77 14.81 19.32 14.36 18.77 14.36H4.26001C3.49001 14.36 3.28003 14.15 3.28003 13.38V4.25998C3.28003 3.48998 3.49001 3.27997 4.26001 3.27997H48.04C48.81 3.27997 49.02 3.48998 49.02 4.25998V13.38C49.02 14.15 48.81 14.36 48.04 14.36H33.53C32.98 14.36 32.53 14.81 32.53 15.36V55.81C32.53 56.58 32.32 56.79 31.55 56.79H20.76H20.75Z" fill="#FC0B50"/>
<path d="M48.02 4.27002V13.36H33.52C32.42 13.36 31.52 14.26 31.52 15.36V55.79H20.77V15.36C20.77 14.26 19.87 13.36 18.77 13.36H4.27002V4.27002H48.02ZM48.03 2.27002H4.25C2.93 2.27002 2.27002 2.93002 2.27002 4.25002V13.37C2.27002 14.69 2.93 15.35 4.25 15.35H18.76V55.8C18.76 57.12 19.42 57.78 20.74 57.78H31.53C32.85 57.78 33.51 57.12 33.51 55.8V15.35H48.02C49.34 15.35 50 14.69 50 13.37V4.25002C50 2.93002 49.34 2.27002 48.02 2.27002H48.03Z" fill="#231F20"/>
<path d="M20.46 56.51C19.69 56.51 19.48 56.3 19.48 55.53V15.08C19.48 14.53 19.03 14.08 18.48 14.08H3.96997C3.19997 14.08 2.98999 13.87 2.98999 13.1V3.98C2.98999 3.21 3.19997 3 3.96997 3H47.75C48.52 3 48.73 3.21 48.73 3.98V13.1C48.73 13.87 48.52 14.08 47.75 14.08H33.24C32.69 14.08 32.24 14.53 32.24 15.08V55.53C32.24 56.3 32.03 56.51 31.26 56.51H20.47H20.46Z" fill="#FC0B50"/>
<path d="M47.73 3.98999V13.08H33.23C32.13 13.08 31.23 13.98 31.23 15.08V55.51H20.48V15.08C20.48 13.98 19.58 13.08 18.48 13.08H3.97998V3.98999H47.73ZM47.75 1.98999H3.96997C2.64997 1.98999 1.98999 2.64999 1.98999 3.96999V13.09C1.98999 14.41 2.64997 15.07 3.96997 15.07H18.48V55.52C18.48 56.84 19.14 57.5 20.46 57.5H31.25C32.57 57.5 33.23 56.84 33.23 55.52V15.07H47.74C49.06 15.07 49.72 14.41 49.72 13.09V3.96999C49.72 2.64999 49.06 1.98999 47.74 1.98999H47.75Z" fill="#231F20"/>
<path d="M20.18 56.23C19.41 56.23 19.2 56.02 19.2 55.25V14.8C19.2 14.25 18.75 13.8 18.2 13.8H3.68994C2.91994 13.8 2.70996 13.59 2.70996 12.82V3.70003C2.70996 2.93003 2.91994 2.72003 3.68994 2.72003H47.4699C48.2399 2.72003 48.45 2.93003 48.45 3.70003V12.82C48.45 13.59 48.2399 13.8 47.4699 13.8H32.96C32.41 13.8 31.96 14.25 31.96 14.8V55.25C31.96 56.02 31.7499 56.23 30.9799 56.23H20.1899H20.18Z" fill="#FC0B50"/>
<path d="M47.45 3.70001V12.79H32.95C31.85 12.79 30.95 13.69 30.95 14.79V55.22H20.2V14.79C20.2 13.69 19.3 12.79 18.2 12.79H3.69995V3.70001H47.45ZM47.4699 1.70001H3.68994C2.36994 1.70001 1.70996 2.36002 1.70996 3.68002V12.8C1.70996 14.12 2.36994 14.78 3.68994 14.78H18.2V55.23C18.2 56.55 18.86 57.21 20.18 57.21H30.9699C32.2899 57.21 32.95 56.55 32.95 55.23V14.78H47.46C48.78 14.78 49.4399 14.12 49.4399 12.8V3.68002C49.4399 2.36002 48.78 1.70001 47.46 1.70001H47.4699Z" fill="#231F20"/>
<path d="M19.8999 55.94C19.1299 55.94 18.9199 55.73 18.9199 54.96V14.51C18.9199 13.96 18.4699 13.51 17.9199 13.51H3.40991C2.63991 13.51 2.42993 13.3 2.42993 12.53V3.40999C2.42993 2.63999 2.63991 2.42999 3.40991 2.42999H47.1899C47.9599 2.42999 48.1699 2.63999 48.1699 3.40999V12.53C48.1699 13.3 47.9599 13.51 47.1899 13.51H32.6799C32.1299 13.51 31.6799 13.96 31.6799 14.51V54.96C31.6799 55.73 31.4699 55.94 30.6999 55.94H19.9099H19.8999Z" fill="#FC0B50"/>
<path d="M47.1699 3.41998V12.51H32.6699C31.5699 12.51 30.6699 13.41 30.6699 14.51V54.94H19.9199V14.51C19.9199 13.41 19.0199 12.51 17.9199 12.51H3.41992V3.41998H47.1699ZM47.1799 1.41998H3.39993C2.07993 1.41998 1.41992 2.07999 1.41992 3.39999V12.52C1.41992 13.84 2.07993 14.5 3.39993 14.5H17.9099V54.95C17.9099 56.27 18.5699 56.93 19.8899 56.93H30.6799C31.9999 56.93 32.6599 56.27 32.6599 54.95V14.5H47.1699C48.4899 14.5 49.1499 13.84 49.1499 12.52V3.39999C49.1499 2.07999 48.4899 1.41998 47.1699 1.41998H47.1799Z" fill="#231F20"/>
<path d="M19.6101 55.66C18.8401 55.66 18.6301 55.45 18.6301 54.68V14.23C18.6301 13.68 18.1801 13.23 17.6301 13.23H3.12015C2.35015 13.23 2.14014 13.02 2.14014 12.25V3.13002C2.14014 2.36002 2.35015 2.15002 3.12015 2.15002H46.9001C47.6701 2.15002 47.8801 2.36002 47.8801 3.13002V12.25C47.8801 13.02 47.6701 13.23 46.9001 13.23H32.3901C31.8401 13.23 31.3901 13.68 31.3901 14.23V54.68C31.3901 55.45 31.1801 55.66 30.4101 55.66H19.6201H19.6101Z" fill="#FC0B50"/>
<path d="M46.8801 3.14001V12.23H32.3801C31.2801 12.23 30.3801 13.13 30.3801 14.23V54.66H19.6301V14.23C19.6301 13.13 18.7301 12.23 17.6301 12.23H3.13013V3.14001H46.8801ZM46.9001 1.14001H3.12015C1.80015 1.14001 1.14014 1.80003 1.14014 3.12003V12.24C1.14014 13.56 1.80015 14.22 3.12015 14.22H17.6301V54.67C17.6301 55.99 18.2901 56.65 19.6101 56.65H30.4001C31.7201 56.65 32.3801 55.99 32.3801 54.67V14.22H46.8901C48.2101 14.22 48.8701 13.56 48.8701 12.24V3.12003C48.8701 1.80003 48.2101 1.14001 46.8901 1.14001H46.9001Z" fill="#231F20"/>
<path d="M19.3301 55.38C18.5601 55.38 18.3501 55.17 18.3501 54.4V13.95C18.3501 13.4 17.9001 12.95 17.3501 12.95H2.84012C2.07012 12.95 1.86011 12.74 1.86011 11.97V2.84999C1.86011 2.07999 2.07012 1.87 2.84012 1.87H46.6201C47.3901 1.87 47.6001 2.07999 47.6001 2.84999V11.97C47.6001 12.74 47.3901 12.95 46.6201 12.95H32.1101C31.5601 12.95 31.1101 13.4 31.1101 13.95V54.4C31.1101 55.17 30.9001 55.38 30.1301 55.38H19.3401H19.3301Z" fill="#FC0B50"/>
<path d="M46.6001 2.85004V11.94H32.1001C31.0001 11.94 30.1001 12.84 30.1001 13.94V54.37H19.3501V13.94C19.3501 12.84 18.4501 11.94 17.3501 11.94H2.8501V2.85004H46.6001ZM46.6201 0.850037H2.84012C1.52012 0.850037 0.860107 1.51003 0.860107 2.83003V11.95C0.860107 13.27 1.52012 13.93 2.84012 13.93H17.3501V54.38C17.3501 55.7 18.0101 56.36 19.3301 56.36H30.1201C31.4401 56.36 32.1001 55.7 32.1001 54.38V13.93H46.6101C47.9301 13.93 48.5901 13.27 48.5901 11.95V2.83003C48.5901 1.51003 47.9301 0.850037 46.6101 0.850037H46.6201Z" fill="#231F20"/>
<path d="M19.0501 55.09C18.2801 55.09 18.0701 54.88 18.0701 54.11V13.66C18.0701 13.11 17.6201 12.66 17.0701 12.66H2.56009C1.79009 12.66 1.58008 12.45 1.58008 11.68V2.56001C1.58008 1.79001 1.79009 1.58002 2.56009 1.58002H46.3401C47.1101 1.58002 47.3201 1.79001 47.3201 2.56001V11.68C47.3201 12.45 47.1101 12.66 46.3401 12.66H31.8301C31.2801 12.66 30.8301 13.11 30.8301 13.66V54.11C30.8301 54.88 30.6201 55.09 29.8501 55.09H19.0601H19.0501Z" fill="#FC0B50"/>
<path d="M46.3201 2.57001V11.66H31.8201C30.7201 11.66 29.8201 12.56 29.8201 13.66V54.09H19.0701V13.66C19.0701 12.56 18.1701 11.66 17.0701 11.66H2.57007V2.57001H46.3201ZM46.3301 0.570007H2.55008C1.23008 0.570007 0.570068 1.23 0.570068 2.55V11.67C0.570068 12.99 1.23008 13.65 2.55008 13.65H17.0601V54.1C17.0601 55.42 17.7201 56.08 19.0401 56.08H29.8301C31.1501 56.08 31.8101 55.42 31.8101 54.1V13.65H46.3201C47.6401 13.65 48.3001 12.99 48.3001 11.67V2.55C48.3001 1.23 47.6401 0.570007 46.3201 0.570007H46.3301Z" fill="#231F20"/>
<path d="M18.76 54.81C17.99 54.81 17.7801 54.6 17.7801 53.83V13.38C17.7801 12.83 17.3301 12.38 16.7801 12.38H2.27005C1.50005 12.38 1.29004 12.17 1.29004 11.4V2.27998C1.29004 1.50998 1.50005 1.29999 2.27005 1.29999H46.05C46.82 1.29999 47.0301 1.50998 47.0301 2.27998V11.4C47.0301 12.17 46.82 12.38 46.05 12.38H31.54C30.99 12.38 30.54 12.83 30.54 13.38V53.83C30.54 54.6 30.3301 54.81 29.5601 54.81H18.7701H18.76Z" fill="#FC0B50"/>
<path d="M46.0301 2.28998V11.38H31.5301C30.4301 11.38 29.5301 12.28 29.5301 13.38V53.81H18.7801V13.38C18.7801 12.28 17.8801 11.38 16.7801 11.38H2.28006V2.28998H46.0301ZM46.05 0.289978H2.27005C0.95005 0.289978 0.290039 0.949974 0.290039 2.26997V11.39C0.290039 12.71 0.95005 13.37 2.27005 13.37H16.7801V53.82C16.7801 55.14 17.44 55.8 18.76 55.8H29.55C30.87 55.8 31.5301 55.14 31.5301 53.82V13.37H46.04C47.36 13.37 48.0201 12.71 48.0201 11.39V2.26997C48.0201 0.949974 47.36 0.289978 46.04 0.289978H46.05Z" fill="#231F20"/>
<path d="M18.48 54.53C17.71 54.53 17.5 54.32 17.5 53.55V13.1C17.5 12.55 17.05 12.1 16.5 12.1H1.99002C1.22002 12.1 1.01001 11.89 1.01001 11.12V2.00002C1.01001 1.23002 1.22002 1.02002 1.99002 1.02002H45.77C46.54 1.02002 46.75 1.23002 46.75 2.00002V11.12C46.75 11.89 46.54 12.1 45.77 12.1H31.26C30.71 12.1 30.26 12.55 30.26 13.1V53.55C30.26 54.32 30.05 54.53 29.28 54.53H18.49H18.48Z" fill="#FC0B50"/>
<path d="M45.75 2V11.09H31.25C30.15 11.09 29.25 11.99 29.25 13.09V53.52H18.5V13.09C18.5 11.99 17.6 11.09 16.5 11.09H2V2H45.75ZM45.76 0H1.98001C0.660011 0 0 0.659996 0 1.98V11.1C0 12.42 0.660011 13.08 1.98001 13.08H16.49V53.53C16.49 54.85 17.15 55.51 18.47 55.51H29.26C30.58 55.51 31.24 54.85 31.24 53.53V13.08H45.75C47.07 13.08 47.73 12.42 47.73 11.1V1.98C47.73 0.659996 47.07 0 45.75 0H45.76Z" fill="#231F20"/>
</svg>
