<svg width="41" height="41" viewBox="0 0 41 41" fill="none" xmlns="http://www.w3.org/2000/svg">
<path d="M40.43 33.72C40.43 34.1 40.35 34.41 40.19 34.66C40.03 34.9 39.95 35.19 39.95 35.51C39.95 36 39.87 36.24 39.71 36.24C39.55 36.24 39.47 36.57 39.47 37.22C39.47 37.87 39.2 38.47 38.66 39.01L37.85 39.82L35.65 39.66C34.24 39.55 33.45 39.42 33.29 39.25C33.13 39.08 32.85 39.01 32.48 39.01C32.15 39.01 31.9 38.93 31.71 38.77C31.52 38.61 31.29 38.5 31.02 38.44C30.75 38.39 30.23 38.05 29.47 37.42C28.71 36.8 28.22 36.46 28 36.4C27.08 36.18 26.45 36.48 26.13 37.3C26.02 37.63 25.83 37.84 25.56 37.95C25.12 38.06 24.53 38.44 23.77 39.09C23.61 39.2 23.31 39.32 22.87 39.46C22.43 39.59 21.97 39.74 21.49 39.91C21 40.07 20.68 40.18 20.51 40.24C20.24 40.4 19.34 40.48 17.82 40.48C16.84 40.48 16.3 40.43 16.19 40.32C15.65 40.05 15.1 39.86 14.56 39.75C13.31 39.48 12.14 38.91 11.06 38.04C10.25 37.44 9.80999 37.14 9.75999 37.14C9.64999 37.14 9.12 36.65 8.17 35.67C7.22 34.69 6.66 34.04 6.5 33.72C6.39 33.61 6.08999 33.08 5.59999 32.13C5.10999 31.18 4.87 30.6 4.87 30.38C4.87 30.16 4.81999 30.05 4.70999 30.05C4.54999 30.05 4.46999 29.86 4.46999 29.48C4.46999 29.1 4.39 28.88 4.23 28.83C4.01 28.78 3.89999 26.36 3.89999 21.58C3.89999 18 3.98 16.18 4.14 16.12C4.36 15.96 4.46999 14.14 4.46999 10.66C4.46999 8.05 4.39 6.63999 4.23 6.42999C4.12 6.31999 3.74 6.18999 3.09 6.01999C2.44 5.85999 2.06 5.71999 1.95 5.60999C1.84 5.49999 1.59999 5.45001 1.21999 5.45001C0.409986 5.45001 0 4.96001 0 3.98001C0 3.22001 0.259989 2.49 0.769989 1.78C1.28999 1.08 1.81 0.720001 2.36 0.720001C2.74 0.720001 3.01 0.640011 3.17 0.480011C3.28 0.320011 4.91 0.23999 8.06 0.23999C10.83 0.23999 12.58 0.339999 13.31 0.529999C14.04 0.719999 14.41 1.25 14.41 2.12C14.41 2.56 14.38 2.90999 14.33 3.17999C14.22 4.04999 14.11 4.48001 14 4.48001C13.95 4.48001 13.86 4.66999 13.76 5.04999C13.65 5.42999 13.54 5.83999 13.43 6.26999C13.32 6.70999 13.27 6.95 13.27 7C13.22 7.05 13.13 7.34001 13.03 7.85001C12.92 8.37001 12.81 8.87999 12.7 9.39999C12.59 9.91999 12.51 10.17 12.46 10.17C12.41 10.17 12.38 10.66 12.38 11.64C12.38 16.74 12.51 19.51 12.79 19.95C12.84 20.06 12.95 20.71 13.12 21.9C13.28 23.09 13.42 23.72 13.53 23.77C13.58 23.82 13.62 23.96 13.65 24.18C13.68 24.4 13.72 24.62 13.77 24.83V25.07C13.93 25.07 14.1 25.78 14.26 27.19C14.26 27.3 14.55 27.71 15.11 28.41C15.68 29.12 15.97 29.52 15.97 29.63C16.08 29.9 16.21 30.04 16.38 30.04C16.55 30.04 16.92 30.28 17.52 30.77C18.61 31.69 19.83 32.15 21.18 32.15C21.99 32.15 22.59 31.96 22.97 31.58C23.68 30.71 24.27 29.65 24.76 28.4C24.98 27.86 25.09 27.4 25.09 27.02C25.09 26.59 25.17 26.29 25.33 26.12L25.57 24.33C25.73 23.19 25.9 22.05 26.06 20.91L26.3 19.12C26.46 19.12 26.54 18.71 26.54 17.9C26.54 16.98 26.62 16.49 26.78 16.43C26.94 16.38 27.01 16.19 26.98 15.86C26.95 15.53 26.97 15.32 27.02 15.21C27.13 15.1 27.18 14.83 27.18 14.4C27.18 13.91 27.26 13.67 27.42 13.67C27.58 13.67 27.66 13.29 27.66 12.53C27.66 11.72 27.58 11.28 27.42 11.23C27.26 11.18 27.18 10.39 27.18 8.87C27.18 7.35 27.1 6.56001 26.94 6.51001C26.89 6.51001 26.86 6.34999 26.86 6.01999C26.86 5.85999 26.48 5.56 25.72 5.12C24.96 4.69 24.42 4.47 24.09 4.47C23.76 4.47 23.38 4.2 22.95 3.66C22.46 3.12 22.24 2.46999 22.3 1.70999C22.35 0.899991 22.57 0.40999 22.95 0.23999C23.28 0.0799902 23.9 0 24.82 0C24.98 0 25.34 0.0100085 25.88 0.0400085C26.42 0.0700085 26.88 0.0799866 27.26 0.0799866C28.73 0.129987 29.95 0.260012 30.93 0.450012C31.91 0.640012 32.72 0.760007 33.37 0.820007C33.91 0.870007 34.39 0.979994 34.8 1.14999C35.21 1.31999 35.55 1.38998 35.82 1.38998C36.69 1.38998 37.12 1.92999 37.12 3.01999C37.12 3.55999 36.5 4.43 35.25 5.63L33.38 7.42001V9.04999C33.38 10.14 33.3 10.71 33.14 10.76C32.98 10.81 32.9 12.04 32.9 14.43C32.9 16.82 32.82 18.01 32.66 18.18C32.44 18.4 32.33 20.9 32.33 25.67C32.33 29.25 32.41 31.1 32.57 31.21C32.73 31.37 32.95 31.73 33.22 32.27C33.55 32.92 33.95 33.27 34.44 33.33C34.98 33.44 35.25 33.55 35.25 33.66C35.25 33.93 35.44 33.96 35.82 33.74L36.06 33.5C36.17 33.28 36.33 33.17 36.55 33.17C36.82 33.17 37.09 32.93 37.36 32.44C37.69 31.95 38.12 31.71 38.66 31.71C39.15 31.71 39.57 31.9 39.92 32.28C40.27 32.66 40.45 33.15 40.45 33.75L40.43 33.72Z" fill="black"/>
</svg>
