<svg width="36" height="74" viewBox="0 0 36 74" fill="none" xmlns="http://www.w3.org/2000/svg">
<path d="M14.7888 1.25374C15.2488 1.78374 15.4388 5.38373 15.2588 6.12373C14.9788 7.28373 11.4088 7.52378 11.1388 9.54378C10.6988 12.7938 11.2388 17.6437 11.1688 21.1337C10.9288 33.7337 10.5088 46.6038 11.9088 59.1538C12.0088 60.0538 12.3688 63.2637 13.1188 63.5737C14.9288 64.3437 15.2488 62.7937 15.8788 61.9937C20.6288 55.8737 19.3888 46.0438 21.2388 38.7138C21.4188 38.0038 21.4788 38.6138 21.6788 36.7838C22.3588 30.3438 24.0988 23.3338 24.0788 16.9538C24.0788 16.4238 23.9688 13.5938 23.8488 13.4738C23.7688 13.3938 22.3988 13.5238 21.6888 13.2038C21.5088 13.1238 19.9788 11.5537 19.8588 11.3237C18.9088 9.46375 19.0688 7.02376 20.4888 5.46376C22.2488 3.53376 22.2288 4.80377 23.3088 4.91377C24.0588 4.99377 24.4788 4.28377 24.7788 4.28377C24.9988 4.28377 25.5388 4.89377 26.2488 4.91377C28.4088 4.98377 34.1388 4.26378 35.3688 6.23378C35.8988 7.07378 36.3188 10.7938 35.6888 11.5238C35.5788 11.6438 33.0588 12.7838 32.8488 13.1438C32.7488 13.3138 33.2088 16.4137 33.1988 17.0137C33.0588 24.1437 31.5488 30.9638 30.5688 37.9138C29.6688 44.3038 29.4988 52.8237 27.1788 58.6937C27.0588 58.9937 26.4288 58.9338 26.4388 59.1538C26.4588 59.8238 27.3388 60.2338 27.1888 60.4538C27.1688 60.4838 26.7488 60.3738 26.5988 60.5938C24.4788 63.6038 24.6788 66.2238 21.2388 69.6138C17.7988 73.0038 14.8688 74.8537 10.3088 72.3837C-0.771182 66.3837 3.96883 50.6938 2.59883 40.8638C2.45883 39.8838 1.77882 39.3838 1.77882 38.2738C1.78882 36.5438 2.14882 37.3837 1.83882 35.2637C1.60882 33.7137 2.56882 33.3637 2.58882 32.6837C2.58882 32.4637 1.90882 32.5537 1.82882 32.2537C1.27882 30.1137 2.68883 27.8538 2.59883 27.1038C2.57883 26.9138 1.83882 26.8938 1.80882 26.7138C1.72882 26.0338 2.46883 25.4037 2.59883 24.5037C2.78883 23.1737 2.47882 21.4137 2.55882 19.9937C2.75882 16.7237 3.00883 13.3937 3.31883 10.1237C-0.251173 10.7837 -0.741186 5.24378 0.898814 3.04378C2.53881 0.843778 5.82883 1.19375 8.31883 0.763748C9.09883 0.623748 9.49882 -0.0562613 10.5788 0.00373871C11.4588 0.0537387 13.6188 1.16374 14.7788 1.25374H14.7888Z" fill="#221A22"/>
</svg>
