<svg width="38" height="67" viewBox="0 0 38 67" fill="none" xmlns="http://www.w3.org/2000/svg">
<path d="M0.332042 20.8138C0.282042 15.3338 -0.0279599 9.6838 0.00204007 4.2638C0.0220401 -0.536201 6.34205 -0.556199 9.82205 0.703801C13.302 1.9638 12.4521 6.68379 12.6421 9.63379C11.8421 9.70379 11.5121 9.7338 10.7821 9.3538C10.7421 9.3338 10.6021 8.12379 10.0321 8.88379C9.32205 9.81379 10.742 10.5338 10.772 10.6338C10.922 11.2938 10.592 13.1138 10.822 13.3438C10.952 13.4738 11.4221 13.3138 11.6421 13.3738C12.1621 13.5238 11.3921 13.9938 11.5321 14.1138C12.0521 14.5738 12.472 13.6638 12.652 13.3738C13.432 25.4438 15.0921 37.7438 16.0121 49.9238C16.0721 50.7738 15.842 51.8938 16.022 52.6438C16.082 52.8938 16.582 52.9038 16.632 53.0238C16.812 53.4638 16.702 53.9938 16.882 54.2738C17.822 55.7638 20.942 57.0738 22.722 56.6238L21.9821 55.8838C22.4421 55.7938 24.102 56.0038 24.212 55.8838C24.312 55.7638 24.0921 55.0338 24.2321 54.6838C24.2821 54.5638 24.772 53.7138 24.992 53.2138C25.182 52.7938 25.6421 53.0038 25.7321 52.3738C26.2021 49.1838 24.652 49.9038 24.222 49.1738C23.792 48.4438 24.6721 48.4738 24.7021 48.4338C25.5721 47.4238 23.4921 47.0838 22.8421 46.8138C22.7121 46.7638 22.7121 46.2738 22.4521 46.2038C21.7621 46.0338 20.842 46.2838 20.102 46.1938C21.362 36.5138 20.672 26.8238 20.472 17.1038C21.322 16.9938 22.4121 17.2838 23.2021 17.1038C23.4821 17.0338 23.432 16.4438 23.712 16.3738C24.222 16.2538 25.592 16.4738 25.692 16.3738C25.822 16.2438 25.562 15.0138 25.692 14.8738C25.822 14.7338 27.792 15.0238 27.932 14.8738C28.082 14.7238 28.022 11.1338 27.962 10.5538C27.412 5.32381 24.6821 6.80379 20.4821 6.66379C20.5421 6.11379 20.272 5.82381 20.602 4.74381C20.862 3.90381 21.652 2.50381 22.442 2.08381C25.092 0.673806 31.932 -1.08619 33.682 2.21381C35.902 6.39381 37.4221 17.3938 37.6221 22.3238C36.7721 22.2138 35.6821 22.5038 34.8921 22.3238C34.5721 22.2438 34.492 21.2138 32.182 21.5538C31.512 21.6538 31.752 22.1638 31.362 22.3138C31.032 22.4438 30.3021 22.2138 30.1721 22.3438C30.0421 22.4738 30.2721 23.1838 30.1421 23.5238C30.0021 23.8838 29.072 24.0138 29.412 24.9438L28.6721 24.5638C29.3621 26.0238 27.922 26.9338 27.882 27.3438C27.782 28.5138 29.2721 32.6938 30.2821 33.3838C30.5621 33.5838 32.422 34.0938 32.832 34.2938C33.272 34.5038 33.042 34.9838 33.692 35.0338C34.872 35.1338 34.5421 34.3438 34.8921 34.2638C35.7521 34.0638 36.762 34.7438 37.252 33.5138C36.912 40.7538 36.9421 53.0838 32.5621 58.8438C27.7521 65.1838 16.472 68.5138 9.54205 64.0138C7.49205 62.6838 7.58204 61.9938 6.30204 60.3638C6.63204 60.5638 7.65205 59.5838 7.68205 59.5138C8.14205 58.3838 7.10205 57.8738 9.29205 58.1238L8.55204 57.3838C8.91204 57.3138 9.93205 57.4838 10.042 57.3838C10.222 57.2138 10.132 52.9438 10.022 52.4338C9.96204 52.1238 8.75205 51.5238 8.65205 51.3138C8.44205 50.8438 8.62205 50.0238 8.53205 49.9338C8.41205 49.8138 7.64204 50.0238 7.27204 49.8938C5.27204 49.2038 4.06205 48.9338 1.82205 49.1738C1.12205 44.2238 1.29205 39.2238 1.07205 34.2538C2.17205 34.1138 3.71205 34.5238 4.70205 34.1438C4.82205 34.0938 6.23205 32.1938 6.39205 32.1238C6.87205 31.9138 7.70205 32.0838 7.78205 32.0138C7.93205 31.8738 7.65205 30.6538 7.78205 30.5238C8.12205 30.1838 9.73204 31.5538 9.30204 28.8238C9.19204 28.1138 8.60205 28.3238 8.53205 28.0338C8.22205 26.6338 8.53204 25.2438 7.66204 23.9338C7.48204 23.6638 6.47205 23.1338 6.40205 22.9638C6.19205 22.4838 6.36205 21.6638 6.29205 21.5838C6.15205 21.4238 3.05205 21.6838 2.35205 21.6038C1.75205 21.5338 1.58205 20.3138 0.322047 20.8338L0.332042 20.8138Z" fill="#EF5268"/>
<path d="M37.2519 33.4938C36.7719 34.7238 35.762 34.0438 34.892 34.2438C34.552 34.3238 34.8819 35.1238 33.6919 35.0138C33.0419 34.9538 33.2719 34.4838 32.8319 34.2738C32.4219 34.0738 30.562 33.5638 30.282 33.3638C29.282 32.6638 27.782 28.4938 27.882 27.3238C27.922 26.9038 29.362 26.0038 28.672 24.5438L29.4119 24.9238C29.0819 23.9938 30.002 23.8638 30.142 23.5038C30.272 23.1638 30.052 22.4538 30.172 22.3238C30.292 22.1938 31.0319 22.4238 31.3619 22.2938C31.7519 22.1438 31.512 21.6338 32.182 21.5338C34.492 21.1938 34.572 22.2238 34.892 22.3038C35.682 22.4938 36.772 22.2038 37.622 22.3038C37.772 26.0838 37.4219 29.7838 37.2519 33.4938Z" fill="#F9B027"/>
<path d="M0.332031 20.8138C1.59203 20.3038 1.76203 21.5238 2.36203 21.5838C3.06203 21.6638 6.16203 21.4038 6.30203 21.5638C6.37203 21.6438 6.20203 22.4638 6.41203 22.9438C6.48203 23.1138 7.49204 23.6438 7.67204 23.9138C8.54204 25.2338 8.24204 26.6238 8.54204 28.0138C8.60204 28.3038 9.20204 28.0938 9.31204 28.8038C9.74204 31.5338 8.12204 30.1538 7.79204 30.5038C7.66204 30.6338 7.94204 31.8638 7.79204 31.9938C7.71204 32.0638 6.88204 31.8938 6.40204 32.1038C6.24204 32.1738 4.83204 34.0738 4.71204 34.1238C3.72204 34.5038 2.17203 34.0938 1.08203 34.2338C0.902031 30.0338 0.382031 25.5138 0.332031 20.8038V20.8138Z" fill="#F9B027"/>
<path d="M20.4721 6.64374C24.6821 6.78374 27.4121 5.30373 27.9521 10.5337C28.0121 11.1137 28.0821 14.7037 27.9221 14.8537C27.7821 14.9937 25.8121 14.7037 25.6821 14.8537C25.5521 15.0037 25.8121 16.2237 25.6821 16.3537C25.5721 16.4637 24.2121 16.2337 23.7021 16.3537C23.4221 16.4237 23.4721 17.0137 23.1921 17.0837C22.4021 17.2737 21.3121 16.9837 20.4621 17.0837C20.3921 13.3937 20.0221 10.3737 20.4621 6.64374H20.4721Z" fill="#F9B027"/>
<path d="M20.1021 46.1738C20.8421 46.2638 21.7621 46.0138 22.4521 46.1838C22.7121 46.2438 22.7121 46.7438 22.8421 46.7938C23.4921 47.0538 25.5721 47.4038 24.7021 48.4138C24.6621 48.4538 23.7721 48.3838 24.2221 49.1538C24.6721 49.9238 26.2021 49.1538 25.7321 52.3538C25.6421 52.9938 25.1821 52.7738 24.9921 53.1938C24.7621 53.7038 24.2721 54.5438 24.2321 54.6638C24.0921 55.0138 24.3121 55.7438 24.2121 55.8638C24.1021 55.9938 22.4421 55.7838 21.9821 55.8638L22.7221 56.6038C20.9421 57.0538 17.8221 55.7438 16.8821 54.2538C16.7021 53.9738 16.8121 53.4338 16.6321 53.0038C16.5821 52.8738 16.0821 52.8738 16.0221 52.6238C15.8421 51.8738 16.0721 50.7538 16.0121 49.9038C17.2821 49.5938 16.7221 51.8638 17.1421 52.1338C18.3521 52.9138 18.9021 50.5938 19.1221 50.0238C19.6821 48.5638 19.8721 48.0438 20.1121 46.1638L20.1021 46.1738Z" fill="#F9B027"/>
<path d="M1.83203 49.1537C4.07203 48.9137 5.28204 49.1838 7.28204 49.8738C7.64204 50.0038 8.42204 49.7937 8.54204 49.9137C8.63204 50.0037 8.45203 50.8237 8.66203 51.2937C8.75203 51.5037 9.96204 52.1037 10.032 52.4137C10.142 52.9237 10.232 57.1937 10.052 57.3637C9.94203 57.4737 8.91204 57.2937 8.56204 57.3637L9.30203 58.1037C7.12203 57.8537 8.16203 58.3637 7.69203 59.4937C7.66203 59.5637 6.64204 60.5537 6.31204 60.3437C3.67204 56.9837 2.51204 53.9037 1.84204 49.1537H1.83203Z" fill="#F9B027"/>
<path d="M12.6419 13.3537C12.4619 13.6437 12.0419 14.5537 11.5219 14.0937C11.3819 13.9737 12.1619 13.5037 11.6319 13.3537C11.4119 13.2937 10.9419 13.4537 10.8119 13.3237C10.5819 13.0937 10.9119 11.2838 10.7619 10.6138C10.7419 10.5138 9.32191 9.80376 10.0219 8.86376C10.5919 8.10376 10.7319 9.31376 10.7719 9.33376C11.5019 9.71376 11.8319 9.68376 12.6319 9.61376C12.7219 10.9538 12.5519 12.0837 12.6319 13.3437L12.6419 13.3537Z" fill="#F9B027"/>
</svg>
