<svg width="45" height="67" viewBox="0 0 45 67" fill="none" xmlns="http://www.w3.org/2000/svg">
<path d="M42.9349 45.1921C41.3649 50.6721 37.0349 60.2321 32.0949 63.9621C27.8849 67.1421 21.6349 66.7521 16.9149 64.9721C4.45493 60.2721 0.16493 38.7121 0.00493002 26.9021C-0.09507 19.8921 1.29494 6.54215 7.04494 1.80215C9.79494 -0.467854 16.8449 -0.4579 19.4749 2.1921C21.5649 4.3021 20.1349 5.01211 19.9749 7.45211C19.6749 11.7621 21.3149 14.4721 24.3249 17.3221C26.7949 16.5221 24.7949 14.4921 24.3549 12.7921C23.5349 9.62214 23.9049 8.31212 23.9849 5.27212C24.0049 4.30212 22.7549 4.42213 24.5049 2.66213C27.2449 -0.0778682 30.9349 -0.747856 34.4149 0.862144C39.5449 3.23214 41.3449 8.79212 42.6249 13.9021C45.1549 23.9621 45.8049 35.1622 42.9349 45.1822V45.1921ZM7.95494 34.9322C6.07494 35.4322 6.39494 39.4321 6.65494 40.9421C6.89494 42.3321 9.97493 50.1621 11.6149 46.8021C12.2349 45.5421 10.0949 42.0721 9.95494 40.2321C9.82494 38.5921 11.4649 34.0022 7.96494 34.9322H7.95494ZM12.5649 51.7021C11.7749 52.1921 12.2849 54.7121 13.8149 54.2721C15.1349 53.8921 14.2649 50.6421 12.5649 51.7021Z" fill="#E9549D"/>
<path d="M7.95485 34.9321C11.4548 34.0021 9.82484 38.5921 9.94484 40.2321C10.0848 42.0721 12.2148 45.5321 11.6048 46.8021C9.97484 50.1621 6.88483 42.3321 6.64483 40.9421C6.38483 39.4321 6.06484 35.4321 7.94484 34.9321H7.95485Z" fill="white"/>
<path d="M12.5649 51.7021C14.2749 50.6321 15.1449 53.8921 13.8149 54.2721C12.2849 54.7121 11.7749 52.2021 12.5649 51.7021Z" fill="white"/>
</svg>
