<svg width="54" height="63" viewBox="0 0 54 63" fill="none" xmlns="http://www.w3.org/2000/svg">
<path d="M29.73 61.38C26.78 61.38 23.94 60.98 21.29 60.19C18.65 59.4 16.18 58.21 13.92 56.64C11.72 55.11 9.94995 52.97 8.65995 50.29C7.35995 47.59 6.69995 44.4 6.69995 40.81V7.57999C6.69995 7.31999 6.77995 7.11999 6.95995 6.93999C7.07995 6.81999 7.26995 6.67999 7.67995 6.67999H17.99C18.4 6.67999 18.59 6.81999 18.71 6.93999C18.89 7.11999 18.9699 7.31999 18.9699 7.57999V39.62C18.9699 42.84 19.93 45.45 21.84 47.38C23.74 49.31 26.4 50.3 29.73 50.3C33.06 50.3 35.71 49.32 37.62 47.38C39.52 45.45 40.49 42.84 40.49 39.62V7.57999C40.49 7.31999 40.5699 7.11999 40.7499 6.93999C40.8699 6.81999 41.0599 6.67999 41.4699 6.67999H51.78C52.19 6.67999 52.3799 6.81999 52.4999 6.93999C52.6799 7.11999 52.76 7.31999 52.76 7.57999V40.81C52.76 44.39 52.0999 47.58 50.7999 50.29C49.5099 52.98 47.74 55.11 45.54 56.64C43.29 58.21 40.81 59.41 38.17 60.19C35.52 60.98 32.68 61.38 29.73 61.38Z" fill="#FC0B50"/>
<path d="M51.7599 7.66998V40.81C51.7599 44.24 51.1299 47.29 49.8999 49.86C48.6799 52.39 47.0199 54.4 44.9699 55.83C42.7999 57.34 40.4199 58.49 37.8899 59.24C35.3399 60 32.5899 60.39 29.7399 60.39C26.8899 60.39 24.1399 60 21.5899 59.24C19.0599 58.49 16.6699 57.34 14.5099 55.83C12.4499 54.4 10.7899 52.39 9.57993 49.86C8.33993 47.29 7.71992 44.25 7.71992 40.81V7.66998H17.9999V39.62C17.9999 43.11 19.0599 45.96 21.1499 48.08C23.2499 50.21 26.1399 51.29 29.7499 51.29C33.3599 51.29 36.2499 50.21 38.3499 48.08C40.4399 45.96 41.4999 43.11 41.4999 39.62V7.66998H51.7799M51.7799 5.66998H41.4699C40.8899 5.66998 40.4099 5.85998 40.0399 6.22998C39.6699 6.59998 39.4799 7.04999 39.4799 7.57999V39.62C39.4799 42.58 38.6199 44.93 36.8999 46.68C35.1799 48.42 32.7899 49.3 29.7199 49.3C26.6499 49.3 24.2599 48.43 22.5399 46.68C20.8199 44.93 19.9599 42.58 19.9599 39.62V7.57999C19.9599 7.04999 19.7699 6.59998 19.3999 6.22998C19.0299 5.85998 18.5499 5.66998 17.9699 5.66998H7.65992C7.07992 5.66998 6.59992 5.85998 6.22992 6.22998C5.85992 6.59998 5.66992 7.04999 5.66992 7.57999V40.81C5.66992 44.57 6.35992 47.87 7.72992 50.72C9.09992 53.58 10.9699 55.82 13.3199 57.46C15.6699 59.1 18.2199 60.33 20.9699 61.15C23.7199 61.97 26.6299 62.38 29.6899 62.38C32.7499 62.38 35.6699 61.97 38.4199 61.15C41.1699 60.33 43.7199 59.1 46.0699 57.46C48.4199 55.82 50.2899 53.57 51.6599 50.72C53.0299 47.86 53.7199 44.56 53.7199 40.81V7.57999C53.7199 7.04999 53.5299 6.59998 53.1599 6.22998C52.7899 5.85998 52.3099 5.66998 51.7299 5.66998H51.7799Z" fill="#231F20"/>
<path d="M29.4399 61.1C26.4899 61.1 23.6499 60.7 20.9999 59.91C18.3599 59.12 15.8899 57.93 13.6299 56.36C11.4299 54.83 9.65992 52.69 8.36992 50.01C7.06992 47.31 6.40991 44.12 6.40991 40.53V7.30002C6.40991 7.04002 6.48991 6.84002 6.66991 6.66002C6.78991 6.54002 6.97992 6.40002 7.38992 6.40002H17.6999C18.1099 6.40002 18.2999 6.54002 18.4199 6.66002C18.5999 6.84002 18.6799 7.04002 18.6799 7.30002V39.34C18.6799 42.56 19.6399 45.17 21.5499 47.1C23.4499 49.03 26.1099 50.02 29.4399 50.02C32.7699 50.02 35.4199 49.04 37.3299 47.1C39.2299 45.17 40.1999 42.56 40.1999 39.34V7.30002C40.1999 7.04002 40.2799 6.84002 40.4599 6.66002C40.5799 6.54002 40.7699 6.40002 41.1799 6.40002H51.4899C51.8999 6.40002 52.0899 6.54002 52.2099 6.66002C52.3899 6.84002 52.4699 7.04002 52.4699 7.30002V40.53C52.4699 44.11 51.8099 47.3 50.5099 50.01C49.2199 52.7 47.4499 54.83 45.2499 56.36C42.9999 57.93 40.5199 59.13 37.8799 59.91C35.2299 60.7 32.3899 61.1 29.4399 61.1Z" fill="#FC0B50"/>
<path d="M51.4699 7.39001V40.53C51.4699 43.96 50.8399 47.01 49.6099 49.58C48.3899 52.11 46.7299 54.12 44.6799 55.55C42.5099 57.06 40.1299 58.21 37.5999 58.96C35.0499 59.72 32.2999 60.11 29.4499 60.11C26.5999 60.11 23.8499 59.72 21.2999 58.96C18.7699 58.21 16.3799 57.06 14.2199 55.55C12.1599 54.12 10.4999 52.11 9.28989 49.58C8.04989 47.01 7.42989 43.97 7.42989 40.53V7.39001H17.7099V39.34C17.7099 42.83 18.7699 45.68 20.8599 47.8C22.9599 49.93 25.8499 51.01 29.4599 51.01C33.0699 51.01 35.9599 49.93 38.0599 47.8C40.1499 45.68 41.2099 42.83 41.2099 39.34V7.39001H51.4899M51.4899 5.39001H41.1799C40.5999 5.39001 40.1199 5.58001 39.7499 5.95001C39.3799 6.32001 39.1899 6.77002 39.1899 7.30002V39.34C39.1899 42.3 38.3299 44.65 36.6099 46.4C34.8899 48.14 32.4999 49.02 29.4299 49.02C26.3599 49.02 23.9699 48.15 22.2499 46.4C20.5299 44.65 19.6699 42.3 19.6699 39.34V7.30002C19.6699 6.77002 19.4799 6.32001 19.1099 5.95001C18.7399 5.58001 18.2599 5.39001 17.6799 5.39001H7.36989C6.78989 5.39001 6.30989 5.58001 5.93989 5.95001C5.56989 6.32001 5.37988 6.77002 5.37988 7.30002V40.53C5.37988 44.29 6.06989 47.59 7.43989 50.44C8.80989 53.3 10.6799 55.54 13.0299 57.18C15.3799 58.82 17.9299 60.05 20.6799 60.87C23.4299 61.69 26.3399 62.1 29.3999 62.1C32.4599 62.1 35.3799 61.69 38.1299 60.87C40.8799 60.05 43.4299 58.82 45.7799 57.18C48.1299 55.54 49.9999 53.29 51.3699 50.44C52.7399 47.58 53.4299 44.28 53.4299 40.53V7.30002C53.4299 6.77002 53.2399 6.32001 52.8699 5.95001C52.4999 5.58001 52.0199 5.39001 51.4399 5.39001H51.4899Z" fill="#231F20"/>
<path d="M29.1599 60.82C26.2099 60.82 23.3699 60.42 20.7199 59.63C18.0799 58.84 15.6099 57.65 13.3499 56.08C11.1499 54.55 9.37988 52.41 8.08988 49.73C6.78988 47.03 6.12988 43.84 6.12988 40.25V7.01999C6.12988 6.75999 6.20988 6.55999 6.38988 6.37999C6.50988 6.25999 6.69989 6.12 7.10989 6.12H17.4199C17.8299 6.12 18.0199 6.25999 18.1399 6.37999C18.3199 6.55999 18.3999 6.75999 18.3999 7.01999V39.06C18.3999 42.28 19.3599 44.89 21.2699 46.82C23.1699 48.75 25.8299 49.74 29.1599 49.74C32.4899 49.74 35.1399 48.76 37.0499 46.82C38.9499 44.89 39.9199 42.28 39.9199 39.06V7.01999C39.9199 6.75999 39.9999 6.55999 40.1799 6.37999C40.2999 6.25999 40.4899 6.12 40.8999 6.12H51.2099C51.6199 6.12 51.8099 6.25999 51.9299 6.37999C52.1099 6.55999 52.1899 6.75999 52.1899 7.01999V40.25C52.1899 43.83 51.5299 47.02 50.2299 49.73C48.9399 52.42 47.1699 54.55 44.9699 56.08C42.7199 57.65 40.2399 58.85 37.5999 59.63C34.9499 60.42 32.1099 60.82 29.1599 60.82Z" fill="#FC0B50"/>
<path d="M51.1901 7.10999V40.25C51.1901 43.68 50.5601 46.73 49.3301 49.3C48.1101 51.83 46.4501 53.84 44.4001 55.27C42.2301 56.78 39.8501 57.93 37.3201 58.68C34.7701 59.44 32.0201 59.83 29.1701 59.83C26.3201 59.83 23.5701 59.44 21.0201 58.68C18.4901 57.93 16.1001 56.78 13.9401 55.27C11.8801 53.84 10.2201 51.83 9.0101 49.3C7.7701 46.73 7.1501 43.69 7.1501 40.25V7.10999H17.4301V39.06C17.4301 42.55 18.4901 45.4 20.5801 47.52C22.6801 49.65 25.5701 50.73 29.1801 50.73C32.7901 50.73 35.6801 49.65 37.7801 47.52C39.8701 45.4 40.9301 42.55 40.9301 39.06V7.10999H51.2101M51.2101 5.10999H40.9001C40.3201 5.10999 39.8401 5.29998 39.4701 5.66998C39.1001 6.03998 38.9101 6.48999 38.9101 7.01999V39.06C38.9101 42.02 38.0501 44.37 36.3301 46.12C34.6101 47.86 32.2201 48.74 29.1501 48.74C26.0801 48.74 23.6901 47.87 21.9701 46.12C20.2501 44.37 19.3901 42.02 19.3901 39.06V7.01999C19.3901 6.48999 19.2001 6.03998 18.8301 5.66998C18.4601 5.29998 17.9801 5.10999 17.4001 5.10999H7.0901C6.5101 5.10999 6.0301 5.29998 5.6601 5.66998C5.2901 6.03998 5.1001 6.48999 5.1001 7.01999V40.25C5.1001 44.01 5.7901 47.31 7.1601 50.16C8.5301 53.02 10.4001 55.26 12.7501 56.9C15.1001 58.54 17.6501 59.77 20.4001 60.59C23.1501 61.41 26.0601 61.82 29.1201 61.82C32.1801 61.82 35.1001 61.41 37.8501 60.59C40.6001 59.77 43.1501 58.54 45.5001 56.9C47.8501 55.26 49.7201 53.01 51.0901 50.16C52.4601 47.3 53.1501 44 53.1501 40.25V7.01999C53.1501 6.48999 52.9601 6.03998 52.5901 5.66998C52.2201 5.29998 51.7401 5.10999 51.1601 5.10999H51.2101Z" fill="#231F20"/>
<path d="M28.8701 60.53C25.9201 60.53 23.0801 60.13 20.4301 59.34C17.7901 58.55 15.3201 57.36 13.0601 55.79C10.8601 54.26 9.09009 52.12 7.80009 49.44C6.50009 46.74 5.84009 43.55 5.84009 39.96V6.73001C5.84009 6.47001 5.92009 6.27001 6.10009 6.09001C6.22009 5.97001 6.41009 5.83002 6.82009 5.83002H17.1301C17.5401 5.83002 17.7301 5.97001 17.8501 6.09001C18.0301 6.27001 18.1101 6.47001 18.1101 6.73001V38.77C18.1101 41.99 19.0701 44.6 20.9801 46.53C22.8801 48.46 25.5401 49.45 28.8701 49.45C32.2001 49.45 34.8501 48.47 36.7601 46.53C38.6601 44.6 39.6301 41.99 39.6301 38.77V6.73001C39.6301 6.47001 39.7101 6.27001 39.8901 6.09001C40.0101 5.97001 40.2001 5.83002 40.6101 5.83002H50.9201C51.3301 5.83002 51.5201 5.97001 51.6401 6.09001C51.8201 6.27001 51.9001 6.47001 51.9001 6.73001V39.96C51.9001 43.54 51.2401 46.73 49.9401 49.44C48.6501 52.13 46.8801 54.26 44.6801 55.79C42.4301 57.36 39.9501 58.56 37.3101 59.34C34.6601 60.13 31.8201 60.53 28.8701 60.53Z" fill="#FC0B50"/>
<path d="M50.9101 6.82001V39.96C50.9101 43.39 50.2801 46.44 49.0501 49.01C47.8301 51.54 46.1701 53.55 44.1201 54.98C41.9501 56.49 39.5701 57.64 37.0401 58.39C34.4901 59.15 31.7401 59.54 28.8901 59.54C26.0401 59.54 23.2901 59.15 20.7401 58.39C18.2101 57.64 15.8201 56.49 13.6601 54.98C11.6001 53.55 9.94006 51.54 8.73006 49.01C7.49006 46.44 6.87007 43.4 6.87007 39.96V6.82001H17.1501V38.77C17.1501 42.26 18.2101 45.11 20.3001 47.23C22.4001 49.36 25.2901 50.44 28.9001 50.44C32.5101 50.44 35.4001 49.36 37.5001 47.23C39.5901 45.11 40.6501 42.26 40.6501 38.77V6.82001H50.9301M50.9301 4.82001H40.6201C40.0401 4.82001 39.5601 5.01 39.1901 5.38C38.8201 5.75 38.6301 6.2 38.6301 6.73V38.77C38.6301 41.73 37.7701 44.08 36.0501 45.83C34.3301 47.57 31.9401 48.45 28.8701 48.45C25.8001 48.45 23.4101 47.58 21.6901 45.83C19.9701 44.08 19.1101 41.73 19.1101 38.77V6.73C19.1101 6.2 18.9201 5.75 18.5501 5.38C18.1801 5.01 17.7001 4.82001 17.1201 4.82001H6.81007C6.23007 4.82001 5.75007 5.01 5.38007 5.38C5.01007 5.75 4.82007 6.2 4.82007 6.73V39.96C4.82007 43.72 5.51007 47.02 6.88007 49.87C8.25007 52.73 10.1201 54.97 12.4701 56.61C14.8201 58.25 17.3701 59.48 20.1201 60.3C22.8701 61.12 25.7801 61.53 28.8401 61.53C31.9001 61.53 34.8201 61.12 37.5701 60.3C40.3201 59.48 42.8701 58.25 45.2201 56.61C47.5701 54.97 49.4401 52.72 50.8101 49.87C52.1801 47.01 52.8701 43.71 52.8701 39.96V6.73C52.8701 6.2 52.6801 5.75 52.3101 5.38C51.9401 5.01 51.4601 4.82001 50.8801 4.82001H50.9301Z" fill="#231F20"/>
<path d="M28.5901 60.25C25.6401 60.25 22.8001 59.85 20.1501 59.06C17.5101 58.27 15.0401 57.08 12.7801 55.51C10.5801 53.98 8.81006 51.84 7.52006 49.16C6.22006 46.46 5.56006 43.27 5.56006 39.68V6.44998C5.56006 6.18998 5.64006 5.98998 5.82006 5.80998C5.94006 5.68998 6.13006 5.54999 6.54006 5.54999H16.8501C17.2601 5.54999 17.4501 5.68998 17.5701 5.80998C17.7501 5.98998 17.8301 6.18998 17.8301 6.44998V38.49C17.8301 41.71 18.7901 44.32 20.7001 46.25C22.6001 48.18 25.2601 49.17 28.5901 49.17C31.9201 49.17 34.5701 48.19 36.4801 46.25C38.3801 44.32 39.3501 41.71 39.3501 38.49V6.44998C39.3501 6.18998 39.4301 5.98998 39.6101 5.80998C39.7301 5.68998 39.9201 5.54999 40.3301 5.54999H50.6401C51.0501 5.54999 51.2401 5.68998 51.3601 5.80998C51.5401 5.98998 51.6201 6.18998 51.6201 6.44998V39.68C51.6201 43.26 50.9601 46.45 49.6601 49.16C48.3701 51.85 46.6001 53.98 44.4001 55.51C42.1501 57.08 39.6701 58.28 37.0301 59.06C34.3801 59.85 31.5401 60.25 28.5901 60.25Z" fill="#FC0B50"/>
<path d="M50.62 6.53998V39.68C50.62 43.11 49.99 46.16 48.76 48.73C47.54 51.26 45.88 53.27 43.83 54.7C41.66 56.21 39.28 57.36 36.75 58.11C34.2 58.87 31.45 59.26 28.6 59.26C25.75 59.26 23 58.87 20.45 58.11C17.92 57.36 15.53 56.21 13.37 54.7C11.31 53.27 9.65003 51.26 8.44003 48.73C7.20003 46.16 6.58003 43.12 6.58003 39.68V6.53998H16.86V38.49C16.86 41.98 17.92 44.83 20.01 46.95C22.11 49.08 25 50.16 28.61 50.16C32.22 50.16 35.11 49.08 37.21 46.95C39.3 44.83 40.36 41.98 40.36 38.49V6.53998H50.64M50.64 4.53998H40.33C39.75 4.53998 39.27 4.72998 38.9 5.09998C38.53 5.46998 38.34 5.91997 38.34 6.44997V38.49C38.34 41.45 37.48 43.8 35.76 45.55C34.04 47.29 31.65 48.17 28.58 48.17C25.51 48.17 23.12 47.3 21.4 45.55C19.68 43.8 18.82 41.45 18.82 38.49V6.44997C18.82 5.91997 18.63 5.46998 18.26 5.09998C17.89 4.72998 17.41 4.53998 16.83 4.53998H6.52003C5.94003 4.53998 5.46003 4.72998 5.09003 5.09998C4.72003 5.46998 4.53003 5.91997 4.53003 6.44997V39.68C4.53003 43.44 5.22003 46.74 6.59003 49.59C7.96003 52.45 9.83003 54.69 12.18 56.33C14.53 57.97 17.08 59.2 19.83 60.02C22.58 60.84 25.49 61.25 28.55 61.25C31.61 61.25 34.53 60.84 37.28 60.02C40.03 59.2 42.58 57.97 44.93 56.33C47.28 54.69 49.15 52.44 50.52 49.59C51.89 46.73 52.58 43.43 52.58 39.68V6.44997C52.58 5.91997 52.39 5.46998 52.02 5.09998C51.65 4.72998 51.17 4.53998 50.59 4.53998H50.64Z" fill="#231F20"/>
<path d="M28.31 59.97C25.36 59.97 22.52 59.57 19.87 58.78C17.23 57.99 14.76 56.8 12.5 55.23C10.3 53.7 8.53003 51.56 7.24003 48.88C5.94003 46.18 5.28003 42.99 5.28003 39.4V6.17001C5.28003 5.91001 5.36003 5.71001 5.54003 5.53001C5.66003 5.41001 5.85003 5.27002 6.26003 5.27002H16.57C16.98 5.27002 17.17 5.41001 17.29 5.53001C17.47 5.71001 17.55 5.91001 17.55 6.17001V38.21C17.55 41.43 18.51 44.04 20.42 45.97C22.32 47.9 24.98 48.89 28.31 48.89C31.64 48.89 34.29 47.91 36.2 45.97C38.1 44.04 39.07 41.43 39.07 38.21V6.17001C39.07 5.91001 39.15 5.71001 39.33 5.53001C39.45 5.41001 39.64 5.27002 40.05 5.27002H50.36C50.77 5.27002 50.96 5.41001 51.08 5.53001C51.26 5.71001 51.34 5.91001 51.34 6.17001V39.4C51.34 42.98 50.68 46.17 49.38 48.88C48.09 51.57 46.32 53.7 44.12 55.23C41.87 56.8 39.39 58 36.75 58.78C34.1 59.57 31.26 59.97 28.31 59.97Z" fill="#FC0B50"/>
<path d="M50.34 6.26001V39.4C50.34 42.83 49.71 45.88 48.48 48.45C47.26 50.98 45.6 52.99 43.55 54.42C41.38 55.93 39 57.08 36.47 57.83C33.92 58.59 31.17 58.98 28.32 58.98C25.47 58.98 22.72 58.59 20.17 57.83C17.64 57.08 15.25 55.93 13.09 54.42C11.03 52.99 9.37 50.98 8.16 48.45C6.92 45.88 6.3 42.84 6.3 39.4V6.26001H16.58V38.21C16.58 41.7 17.64 44.55 19.73 46.67C21.83 48.8 24.72 49.88 28.33 49.88C31.94 49.88 34.83 48.8 36.93 46.67C39.02 44.55 40.08 41.7 40.08 38.21V6.26001H50.36M50.36 4.26001H40.05C39.47 4.26001 38.99 4.45001 38.62 4.82001C38.25 5.19001 38.06 5.64 38.06 6.17V38.21C38.06 41.17 37.2 43.52 35.48 45.27C33.76 47.01 31.37 47.89 28.3 47.89C25.23 47.89 22.84 47.02 21.12 45.27C19.4 43.52 18.54 41.17 18.54 38.21V6.17C18.54 5.64 18.35 5.19001 17.98 4.82001C17.61 4.45001 17.13 4.26001 16.55 4.26001H6.24C5.66 4.26001 5.18 4.45001 4.81 4.82001C4.44 5.19001 4.25 5.64 4.25 6.17V39.4C4.25 43.16 4.94 46.46 6.31 49.31C7.68 52.17 9.55 54.41 11.9 56.05C14.25 57.69 16.8 58.92 19.55 59.74C22.3 60.56 25.21 60.97 28.27 60.97C31.33 60.97 34.25 60.56 37 59.74C39.75 58.92 42.3 57.69 44.65 56.05C47 54.41 48.87 52.16 50.24 49.31C51.61 46.45 52.3 43.15 52.3 39.4V6.17C52.3 5.64 52.11 5.19001 51.74 4.82001C51.37 4.45001 50.89 4.26001 50.31 4.26001H50.36Z" fill="#231F20"/>
<path d="M28.02 59.68C25.07 59.68 22.23 59.28 19.58 58.49C16.94 57.7 14.47 56.51 12.21 54.94C10.01 53.41 8.23999 51.27 6.94999 48.59C5.64999 45.89 4.98999 42.7 4.98999 39.11V5.87999C4.98999 5.61999 5.06999 5.41999 5.24999 5.23999C5.36999 5.11999 5.55999 4.97998 5.96999 4.97998H16.28C16.69 4.97998 16.88 5.11999 17 5.23999C17.18 5.41999 17.26 5.61999 17.26 5.87999V37.92C17.26 41.14 18.22 43.75 20.13 45.68C22.03 47.61 24.69 48.6 28.02 48.6C31.35 48.6 34 47.62 35.91 45.68C37.81 43.75 38.78 41.14 38.78 37.92V5.87999C38.78 5.61999 38.86 5.41999 39.04 5.23999C39.16 5.11999 39.35 4.97998 39.76 4.97998H50.07C50.48 4.97998 50.67 5.11999 50.79 5.23999C50.97 5.41999 51.05 5.61999 51.05 5.87999V39.11C51.05 42.69 50.39 45.88 49.09 48.59C47.8 51.28 46.03 53.41 43.83 54.94C41.58 56.51 39.1 57.71 36.46 58.49C33.81 59.28 30.97 59.68 28.02 59.68Z" fill="#FC0B50"/>
<path d="M50.06 5.97003V39.11C50.06 42.54 49.43 45.59 48.2 48.16C46.98 50.69 45.32 52.7 43.27 54.13C41.1 55.64 38.72 56.79 36.19 57.54C33.64 58.3 30.89 58.69 28.04 58.69C25.19 58.69 22.44 58.3 19.89 57.54C17.36 56.79 14.97 55.64 12.81 54.13C10.75 52.7 9.08996 50.69 7.87996 48.16C6.63996 45.59 6.01996 42.55 6.01996 39.11V5.97003H16.3V37.92C16.3 41.41 17.36 44.26 19.45 46.38C21.55 48.51 24.44 49.59 28.05 49.59C31.66 49.59 34.55 48.51 36.65 46.38C38.74 44.26 39.8 41.41 39.8 37.92V5.97003H50.08M50.07 3.97003H39.76C39.18 3.97003 38.7 4.16003 38.33 4.53003C37.96 4.90003 37.77 5.35004 37.77 5.88004V37.92C37.77 40.88 36.91 43.23 35.19 44.98C33.47 46.72 31.08 47.6 28.01 47.6C24.94 47.6 22.55 46.73 20.83 44.98C19.11 43.23 18.25 40.88 18.25 37.92V5.88004C18.25 5.35004 18.06 4.90003 17.69 4.53003C17.32 4.16003 16.84 3.97003 16.26 3.97003H5.94996C5.36996 3.97003 4.88996 4.16003 4.51996 4.53003C4.14996 4.90003 3.95996 5.35004 3.95996 5.88004V39.11C3.95996 42.87 4.64996 46.17 6.01996 49.02C7.38996 51.88 9.25996 54.12 11.61 55.76C13.96 57.4 16.51 58.63 19.26 59.45C22.01 60.27 24.92 60.68 27.98 60.68C31.04 60.68 33.96 60.27 36.71 59.45C39.46 58.63 42.01 57.4 44.36 55.76C46.71 54.12 48.58 51.87 49.95 49.02C51.32 46.16 52.01 42.86 52.01 39.11V5.88004C52.01 5.35004 51.82 4.90003 51.45 4.53003C51.08 4.16003 50.6 3.97003 50.02 3.97003H50.07Z" fill="#231F20"/>
<path d="M27.74 59.4C24.79 59.4 21.95 59 19.3 58.21C16.66 57.42 14.19 56.23 11.93 54.66C9.72996 53.13 7.95996 50.99 6.66996 48.31C5.36996 45.61 4.70996 42.42 4.70996 38.83V5.60002C4.70996 5.34002 4.78996 5.14002 4.96996 4.96002C5.08996 4.84002 5.27996 4.70001 5.68996 4.70001H16C16.41 4.70001 16.6 4.84002 16.72 4.96002C16.9 5.14002 16.98 5.34002 16.98 5.60002V37.64C16.98 40.86 17.94 43.47 19.85 45.4C21.75 47.33 24.41 48.32 27.74 48.32C31.07 48.32 33.72 47.34 35.63 45.4C37.53 43.47 38.5 40.86 38.5 37.64V5.60002C38.5 5.34002 38.58 5.14002 38.76 4.96002C38.88 4.84002 39.07 4.70001 39.48 4.70001H49.79C50.2 4.70001 50.39 4.84002 50.51 4.96002C50.69 5.14002 50.77 5.34002 50.77 5.60002V38.83C50.77 42.41 50.11 45.6 48.81 48.31C47.52 51 45.75 53.13 43.55 54.66C41.3 56.23 38.82 57.43 36.18 58.21C33.53 59 30.69 59.4 27.74 59.4Z" fill="#FC0B50"/>
<path d="M49.7699 5.69V38.83C49.7699 42.26 49.1399 45.31 47.9099 47.88C46.6899 50.41 45.0299 52.42 42.9799 53.85C40.8099 55.36 38.4299 56.51 35.8999 57.26C33.3499 58.02 30.5999 58.41 27.7499 58.41C24.8999 58.41 22.1499 58.02 19.5999 57.26C17.0699 56.51 14.6799 55.36 12.5199 53.85C10.4599 52.42 8.79993 50.41 7.58993 47.88C6.34993 45.31 5.72993 42.27 5.72993 38.83V5.69H16.0099V37.64C16.0099 41.13 17.0699 43.98 19.1599 46.1C21.2599 48.23 24.1499 49.31 27.7599 49.31C31.3699 49.31 34.2599 48.23 36.3599 46.1C38.4499 43.98 39.5099 41.13 39.5099 37.64V5.69H49.7899M49.7899 3.69H39.4799C38.8999 3.69 38.4199 3.88 38.0499 4.25C37.6799 4.62 37.4899 5.07001 37.4899 5.60001V37.64C37.4899 40.6 36.6299 42.95 34.9099 44.7C33.1899 46.44 30.7999 47.32 27.7299 47.32C24.6599 47.32 22.2699 46.45 20.5499 44.7C18.8299 42.95 17.9699 40.6 17.9699 37.64V5.60001C17.9699 5.07001 17.7799 4.62 17.4099 4.25C17.0399 3.88 16.5599 3.69 15.9799 3.69H5.66993C5.08993 3.69 4.60993 3.88 4.23993 4.25C3.86993 4.62 3.67993 5.07001 3.67993 5.60001V38.83C3.67993 42.59 4.36993 45.89 5.73993 48.74C7.10993 51.6 8.97993 53.84 11.3299 55.48C13.6799 57.12 16.2299 58.35 18.9799 59.17C21.7299 59.99 24.6399 60.4 27.6999 60.4C30.7599 60.4 33.6799 59.99 36.4299 59.17C39.1799 58.35 41.7299 57.12 44.0799 55.48C46.4299 53.84 48.2999 51.59 49.6699 48.74C51.0399 45.88 51.7299 42.58 51.7299 38.83V5.60001C51.7299 5.07001 51.5399 4.62 51.1699 4.25C50.7999 3.88 50.3199 3.69 49.7399 3.69H49.7899Z" fill="#231F20"/>
<path d="M27.4599 59.12C24.5099 59.12 21.6699 58.72 19.0199 57.93C16.3799 57.14 13.9099 55.95 11.6499 54.38C9.44993 52.85 7.67993 50.71 6.38993 48.03C5.08993 45.33 4.42993 42.14 4.42993 38.55V5.31999C4.42993 5.05999 4.50993 4.85999 4.68993 4.67999C4.80993 4.55999 4.99993 4.41998 5.40993 4.41998H15.7199C16.1299 4.41998 16.3199 4.55999 16.4399 4.67999C16.6199 4.85999 16.6999 5.05999 16.6999 5.31999V37.36C16.6999 40.58 17.6599 43.19 19.5699 45.12C21.4699 47.05 24.1299 48.04 27.4599 48.04C30.7899 48.04 33.4399 47.06 35.3499 45.12C37.2499 43.19 38.2199 40.58 38.2199 37.36V5.31999C38.2199 5.05999 38.2999 4.85999 38.4799 4.67999C38.5999 4.55999 38.7899 4.41998 39.1999 4.41998H49.5099C49.9199 4.41998 50.1099 4.55999 50.2299 4.67999C50.4099 4.85999 50.4899 5.05999 50.4899 5.31999V38.55C50.4899 42.13 49.8299 45.32 48.5299 48.03C47.2399 50.72 45.4699 52.85 43.2699 54.38C41.0199 55.95 38.5399 57.15 35.8999 57.93C33.2499 58.72 30.4099 59.12 27.4599 59.12Z" fill="#FC0B50"/>
<path d="M49.4899 5.40997V38.55C49.4899 41.98 48.8599 45.03 47.6299 47.6C46.4099 50.13 44.7499 52.14 42.6999 53.57C40.5299 55.08 38.1499 56.23 35.6199 56.98C33.0699 57.74 30.3199 58.13 27.4699 58.13C24.6199 58.13 21.8699 57.74 19.3199 56.98C16.7899 56.23 14.3999 55.08 12.2399 53.57C10.1799 52.14 8.5199 50.13 7.3099 47.6C6.0699 45.03 5.4499 41.99 5.4499 38.55V5.40997H15.7299V37.36C15.7299 40.85 16.7899 43.7 18.8799 45.82C20.9799 47.95 23.8699 49.03 27.4799 49.03C31.0899 49.03 33.9799 47.95 36.0799 45.82C38.1699 43.7 39.2299 40.85 39.2299 37.36V5.40997H49.5099M49.5099 3.40997H39.1999C38.6199 3.40997 38.1399 3.59997 37.7699 3.96997C37.3999 4.33997 37.2099 4.78998 37.2099 5.31998V37.36C37.2099 40.32 36.3499 42.67 34.6299 44.42C32.9099 46.16 30.5199 47.04 27.4499 47.04C24.3799 47.04 21.9899 46.17 20.2699 44.42C18.5499 42.67 17.6899 40.32 17.6899 37.36V5.31998C17.6899 4.78998 17.4999 4.33997 17.1299 3.96997C16.7599 3.59997 16.2799 3.40997 15.6999 3.40997H5.3899C4.8099 3.40997 4.3299 3.59997 3.9599 3.96997C3.5899 4.33997 3.3999 4.78998 3.3999 5.31998V38.55C3.3999 42.31 4.0899 45.61 5.4599 48.46C6.8299 51.32 8.6999 53.56 11.0499 55.2C13.3999 56.84 15.9499 58.07 18.6999 58.89C21.4499 59.71 24.3599 60.12 27.4199 60.12C30.4799 60.12 33.3999 59.71 36.1499 58.89C38.8999 58.07 41.4499 56.84 43.7999 55.2C46.1499 53.56 48.0199 51.31 49.3899 48.46C50.7599 45.6 51.4499 42.3 51.4499 38.55V5.31998C51.4499 4.78998 51.2599 4.33997 50.8899 3.96997C50.5199 3.59997 50.0399 3.40997 49.4599 3.40997H49.5099Z" fill="#231F20"/>
<path d="M27.1699 58.83C24.2199 58.83 21.3799 58.43 18.7299 57.64C16.0899 56.85 13.6199 55.66 11.3599 54.09C9.15989 52.56 7.38989 50.42 6.09989 47.74C4.79989 45.04 4.13989 41.85 4.13989 38.26V5.03C4.13989 4.77 4.21989 4.57 4.39989 4.39C4.51989 4.27 4.7099 4.13 5.1199 4.13H15.4299C15.8399 4.13 16.0299 4.27 16.1499 4.39C16.3299 4.57 16.4099 4.77 16.4099 5.03V37.07C16.4099 40.29 17.3699 42.9 19.2799 44.83C21.1799 46.76 23.8399 47.75 27.1699 47.75C30.4999 47.75 33.1499 46.77 35.0599 44.83C36.9599 42.9 37.9299 40.29 37.9299 37.07V5.03C37.9299 4.77 38.0099 4.57 38.1899 4.39C38.3099 4.27 38.4999 4.13 38.9099 4.13H49.2199C49.6299 4.13 49.8199 4.27 49.9399 4.39C50.1199 4.57 50.1999 4.77 50.1999 5.03V38.26C50.1999 41.84 49.5399 45.03 48.2399 47.74C46.9499 50.43 45.1799 52.56 42.9799 54.09C40.7299 55.66 38.2499 56.86 35.6099 57.64C32.9599 58.43 30.1199 58.83 27.1699 58.83Z" fill="#FC0B50"/>
<path d="M49.2101 5.12V38.26C49.2101 41.69 48.5801 44.74 47.3501 47.31C46.1301 49.84 44.4701 51.85 42.4201 53.28C40.2501 54.79 37.8701 55.94 35.3401 56.69C32.7901 57.45 30.0401 57.84 27.1901 57.84C24.3401 57.84 21.5901 57.45 19.0401 56.69C16.5101 55.94 14.1201 54.79 11.9601 53.28C9.90011 51.85 8.24011 49.84 7.03011 47.31C5.79011 44.74 5.1701 41.7 5.1701 38.26V5.12H15.4501V37.07C15.4501 40.56 16.5101 43.41 18.6001 45.53C20.7001 47.66 23.5901 48.74 27.2001 48.74C30.8101 48.74 33.7001 47.66 35.8001 45.53C37.8901 43.41 38.9501 40.56 38.9501 37.07V5.12H49.2301M49.2201 3.12H38.9101C38.3301 3.12 37.8501 3.30999 37.4801 3.67999C37.1101 4.04999 36.9201 4.49998 36.9201 5.02998V37.07C36.9201 40.03 36.0601 42.38 34.3401 44.13C32.6201 45.87 30.2301 46.75 27.1601 46.75C24.0901 46.75 21.7001 45.88 19.9801 44.13C18.2601 42.38 17.4001 40.03 17.4001 37.07V5.02998C17.4001 4.49998 17.2101 4.04999 16.8401 3.67999C16.4701 3.30999 15.9901 3.12 15.4101 3.12H5.10011C4.52011 3.12 4.0401 3.30999 3.6701 3.67999C3.3001 4.04999 3.11011 4.49998 3.11011 5.02998V38.26C3.11011 42.02 3.8001 45.32 5.1701 48.17C6.5401 51.03 8.41011 53.27 10.7601 54.91C13.1101 56.55 15.6601 57.78 18.4101 58.6C21.1601 59.42 24.0701 59.83 27.1301 59.83C30.1901 59.83 33.1101 59.42 35.8601 58.6C38.6101 57.78 41.1601 56.55 43.5101 54.91C45.8601 53.27 47.7301 51.02 49.1001 48.17C50.4701 45.31 51.1601 42.01 51.1601 38.26V5.02998C51.1601 4.49998 50.9701 4.04999 50.6001 3.67999C50.2301 3.30999 49.7501 3.12 49.1701 3.12H49.2201Z" fill="#231F20"/>
<path d="M26.8901 58.55C23.9401 58.55 21.1001 58.15 18.4501 57.36C15.8101 56.57 13.3401 55.38 11.0801 53.81C8.88011 52.28 7.11011 50.14 5.82011 47.46C4.52011 44.76 3.86011 41.57 3.86011 37.98V4.75003C3.86011 4.49003 3.94011 4.29003 4.12011 4.11003C4.24011 3.99003 4.4301 3.85004 4.8401 3.85004H15.1501C15.5601 3.85004 15.7501 3.99003 15.8701 4.11003C16.0501 4.29003 16.1301 4.49003 16.1301 4.75003V36.79C16.1301 40.01 17.0901 42.62 19.0001 44.55C20.9001 46.48 23.5601 47.47 26.8901 47.47C30.2201 47.47 32.8701 46.49 34.7801 44.55C36.6801 42.62 37.6501 40.01 37.6501 36.79V4.75003C37.6501 4.49003 37.7301 4.29003 37.9101 4.11003C38.0301 3.99003 38.2201 3.85004 38.6301 3.85004H48.9401C49.3501 3.85004 49.5401 3.99003 49.6601 4.11003C49.8401 4.29003 49.9201 4.49003 49.9201 4.75003V37.98C49.9201 41.56 49.2601 44.75 47.9601 47.46C46.6701 50.15 44.9001 52.28 42.7001 53.81C40.4501 55.38 37.9701 56.58 35.3301 57.36C32.6801 58.15 29.8401 58.55 26.8901 58.55Z" fill="#FC0B50"/>
<path d="M48.9201 4.84003V37.98C48.9201 41.41 48.2901 44.46 47.0601 47.03C45.8401 49.56 44.1801 51.57 42.1301 53C39.9601 54.51 37.5801 55.66 35.0501 56.41C32.5001 57.17 29.7501 57.56 26.9001 57.56C24.0501 57.56 21.3001 57.17 18.7501 56.41C16.2201 55.66 13.8301 54.51 11.6701 53C9.61007 51.57 7.95007 49.56 6.74007 47.03C5.50007 44.46 4.88007 41.42 4.88007 37.98V4.84003H15.1601V36.79C15.1601 40.28 16.2201 43.13 18.3101 45.25C20.4101 47.38 23.3001 48.46 26.9101 48.46C30.5201 48.46 33.4101 47.38 35.5101 45.25C37.6001 43.13 38.6601 40.28 38.6601 36.79V4.84003H48.9401M48.9401 2.84003H38.6301C38.0501 2.84003 37.5701 3.03004 37.2001 3.40004C36.8301 3.77004 36.6401 4.22003 36.6401 4.75003V36.79C36.6401 39.75 35.7801 42.1 34.0601 43.85C32.3401 45.59 29.9501 46.47 26.8801 46.47C23.8101 46.47 21.4201 45.6 19.7001 43.85C17.9801 42.1 17.1201 39.75 17.1201 36.79V4.75003C17.1201 4.22003 16.9301 3.77004 16.5601 3.40004C16.1901 3.03004 15.7101 2.84003 15.1301 2.84003H4.82008C4.24008 2.84003 3.76008 3.03004 3.39008 3.40004C3.02008 3.77004 2.83008 4.22003 2.83008 4.75003V37.98C2.83008 41.74 3.52008 45.04 4.89008 47.89C6.26008 50.75 8.13007 52.99 10.4801 54.63C12.8301 56.27 15.3801 57.5 18.1301 58.32C20.8801 59.14 23.7901 59.55 26.8501 59.55C29.9101 59.55 32.8301 59.14 35.5801 58.32C38.3301 57.5 40.8801 56.27 43.2301 54.63C45.5801 52.99 47.4501 50.74 48.8201 47.89C50.1901 45.03 50.8801 41.73 50.8801 37.98V4.75003C50.8801 4.22003 50.6901 3.77004 50.3201 3.40004C49.9501 3.03004 49.4701 2.84003 48.8901 2.84003H48.9401Z" fill="#231F20"/>
<path d="M26.6101 58.27C23.6601 58.27 20.8201 57.87 18.1701 57.08C15.5301 56.29 13.0601 55.1 10.8001 53.53C8.60007 52 6.83008 49.86 5.54008 47.18C4.24008 44.48 3.58008 41.29 3.58008 37.7V4.47C3.58008 4.21 3.66007 4.01 3.84007 3.83C3.96007 3.71 4.15007 3.57001 4.56007 3.57001H14.8701C15.2801 3.57001 15.4701 3.71 15.5901 3.83C15.7701 4.01 15.8501 4.21 15.8501 4.47V36.51C15.8501 39.73 16.8101 42.34 18.7201 44.27C20.6201 46.2 23.2801 47.19 26.6101 47.19C29.9401 47.19 32.5901 46.21 34.5001 44.27C36.4001 42.34 37.3701 39.73 37.3701 36.51V4.47C37.3701 4.21 37.4501 4.01 37.6301 3.83C37.7501 3.71 37.9401 3.57001 38.3501 3.57001H48.6601C49.0701 3.57001 49.2601 3.71 49.3801 3.83C49.5601 4.01 49.6401 4.21 49.6401 4.47V37.7C49.6401 41.28 48.9801 44.47 47.6801 47.18C46.3901 49.87 44.6201 52 42.4201 53.53C40.1701 55.1 37.6901 56.3 35.0501 57.08C32.4001 57.87 29.5601 58.27 26.6101 58.27Z" fill="#FC0B50"/>
<path d="M48.64 4.56V37.7C48.64 41.13 48.0101 44.18 46.7801 46.75C45.5601 49.28 43.9001 51.29 41.8501 52.72C39.6801 54.23 37.3001 55.38 34.7701 56.13C32.2201 56.89 29.4701 57.28 26.6201 57.28C23.7701 57.28 21.02 56.89 18.47 56.13C15.94 55.38 13.5501 54.23 11.3901 52.72C9.33005 51.29 7.67005 49.28 6.46005 46.75C5.22005 44.18 4.60005 41.14 4.60005 37.7V4.56H14.8801V36.51C14.8801 40 15.9401 42.85 18.0301 44.97C20.1301 47.1 23.0201 48.18 26.6301 48.18C30.2401 48.18 33.1301 47.1 35.2301 44.97C37.3201 42.85 38.3801 40 38.3801 36.51V4.56H48.66M48.66 2.56H38.3501C37.7701 2.56 37.2901 2.75001 36.9201 3.12001C36.5501 3.49001 36.36 3.94 36.36 4.47V36.51C36.36 39.47 35.5001 41.82 33.7801 43.57C32.0601 45.31 29.6701 46.19 26.6001 46.19C23.5301 46.19 21.1401 45.32 19.4201 43.57C17.7001 41.82 16.8401 39.47 16.8401 36.51V4.47C16.8401 3.94 16.6501 3.49001 16.2801 3.12001C15.9101 2.75001 15.4301 2.56 14.8501 2.56H4.54005C3.96005 2.56 3.48005 2.75001 3.11005 3.12001C2.74005 3.49001 2.55005 3.94 2.55005 4.47V37.7C2.55005 41.46 3.24005 44.76 4.61005 47.61C5.98005 50.47 7.85005 52.71 10.2001 54.35C12.5501 55.99 15.1001 57.22 17.8501 58.04C20.6001 58.86 23.5101 59.27 26.5701 59.27C29.6301 59.27 32.55 58.86 35.3 58.04C38.05 57.22 40.6001 55.99 42.9501 54.35C45.3001 52.71 47.1701 50.46 48.5401 47.61C49.9101 44.75 50.6001 41.45 50.6001 37.7V4.47C50.6001 3.94 50.4101 3.49001 50.0401 3.12001C49.6701 2.75001 49.19 2.56 48.61 2.56H48.66Z" fill="#231F20"/>
<path d="M26.32 57.98C23.37 57.98 20.53 57.58 17.88 56.79C15.24 56 12.77 54.81 10.51 53.24C8.31004 51.71 6.54004 49.57 5.25004 46.89C3.95004 44.19 3.29004 41 3.29004 37.41V4.17998C3.29004 3.91998 3.37003 3.71998 3.55003 3.53998C3.67003 3.41998 3.86003 3.27997 4.27003 3.27997H14.58C14.99 3.27997 15.18 3.41998 15.3 3.53998C15.48 3.71998 15.56 3.91998 15.56 4.17998V36.22C15.56 39.44 16.52 42.05 18.43 43.98C20.33 45.91 22.99 46.9 26.32 46.9C29.65 46.9 32.3 45.92 34.21 43.98C36.11 42.05 37.08 39.44 37.08 36.22V4.17998C37.08 3.91998 37.16 3.71998 37.34 3.53998C37.46 3.41998 37.65 3.27997 38.06 3.27997H48.37C48.78 3.27997 48.97 3.41998 49.09 3.53998C49.27 3.71998 49.35 3.91998 49.35 4.17998V37.41C49.35 40.99 48.69 44.18 47.39 46.89C46.1 49.58 44.33 51.71 42.13 53.24C39.88 54.81 37.4 56.01 34.76 56.79C32.11 57.58 29.27 57.98 26.32 57.98Z" fill="#FC0B50"/>
<path d="M48.36 4.27002V37.41C48.36 40.84 47.73 43.89 46.5 46.46C45.28 48.99 43.62 51 41.57 52.43C39.4 53.94 37.02 55.09 34.49 55.84C31.94 56.6 29.19 56.99 26.34 56.99C23.49 56.99 20.74 56.6 18.19 55.84C15.66 55.09 13.27 53.94 11.11 52.43C9.05001 51 7.39001 48.99 6.18001 46.46C4.94001 43.89 4.32001 40.85 4.32001 37.41V4.27002H14.6V36.22C14.6 39.71 15.66 42.56 17.75 44.68C19.85 46.81 22.74 47.89 26.35 47.89C29.96 47.89 32.85 46.81 34.95 44.68C37.04 42.56 38.1 39.71 38.1 36.22V4.27002H48.38M48.37 2.27002H38.06C37.48 2.27002 37 2.46002 36.63 2.83002C36.26 3.20002 36.07 3.65002 36.07 4.18002V36.22C36.07 39.18 35.21 41.53 33.49 43.28C31.77 45.02 29.38 45.9 26.31 45.9C23.24 45.9 20.85 45.03 19.13 43.28C17.41 41.53 16.55 39.18 16.55 36.22V4.18002C16.55 3.65002 16.36 3.20002 15.99 2.83002C15.62 2.46002 15.14 2.27002 14.56 2.27002H4.25001C3.67001 2.27002 3.19001 2.46002 2.82001 2.83002C2.45001 3.20002 2.26001 3.65002 2.26001 4.18002V37.41C2.26001 41.17 2.95001 44.47 4.32001 47.32C5.69001 50.18 7.56 52.42 9.91 54.06C12.26 55.7 14.81 56.93 17.56 57.75C20.31 58.57 23.22 58.98 26.28 58.98C29.34 58.98 32.26 58.57 35.01 57.75C37.76 56.93 40.31 55.7 42.66 54.06C45.01 52.42 46.88 50.17 48.25 47.32C49.62 44.46 50.31 41.16 50.31 37.41V4.18002C50.31 3.65002 50.12 3.20002 49.75 2.83002C49.38 2.46002 48.9 2.27002 48.32 2.27002H48.37Z" fill="#231F20"/>
<path d="M26.04 57.7C23.09 57.7 20.25 57.3 17.6 56.51C14.96 55.72 12.49 54.53 10.23 52.96C8.03 51.43 6.26001 49.29 4.97001 46.61C3.67001 43.91 3.01001 40.72 3.01001 37.13V3.90001C3.01001 3.64001 3.09 3.44001 3.27 3.26001C3.39 3.14001 3.58001 3 3.99001 3H14.3C14.71 3 14.9 3.14001 15.02 3.26001C15.2 3.44001 15.28 3.64001 15.28 3.90001V35.94C15.28 39.16 16.24 41.77 18.15 43.7C20.05 45.63 22.71 46.62 26.04 46.62C29.37 46.62 32.02 45.64 33.93 43.7C35.83 41.77 36.8 39.16 36.8 35.94V3.90001C36.8 3.64001 36.88 3.44001 37.06 3.26001C37.18 3.14001 37.37 3 37.78 3H48.09C48.5 3 48.69 3.14001 48.81 3.26001C48.99 3.44001 49.07 3.64001 49.07 3.90001V37.13C49.07 40.71 48.41 43.9 47.11 46.61C45.82 49.3 44.05 51.43 41.85 52.96C39.6 54.53 37.12 55.73 34.48 56.51C31.83 57.3 28.99 57.7 26.04 57.7Z" fill="#FC0B50"/>
<path d="M48.07 3.98999V37.13C48.07 40.56 47.44 43.61 46.21 46.18C44.99 48.71 43.33 50.72 41.28 52.15C39.11 53.66 36.73 54.81 34.2 55.56C31.65 56.32 28.9 56.71 26.05 56.71C23.2 56.71 20.45 56.32 17.9 55.56C15.37 54.81 12.98 53.66 10.82 52.15C8.75998 50.72 7.09998 48.71 5.88998 46.18C4.64998 43.61 4.02998 40.57 4.02998 37.13V3.98999H14.31V35.94C14.31 39.43 15.37 42.28 17.46 44.4C19.56 46.53 22.45 47.61 26.06 47.61C29.67 47.61 32.56 46.53 34.66 44.4C36.75 42.28 37.81 39.43 37.81 35.94V3.98999H48.09M48.09 1.98999H37.78C37.2 1.98999 36.72 2.17999 36.35 2.54999C35.98 2.91999 35.79 3.36999 35.79 3.89999V35.94C35.79 38.9 34.93 41.25 33.21 43C31.49 44.74 29.1 45.62 26.03 45.62C22.96 45.62 20.57 44.75 18.85 43C17.13 41.25 16.27 38.9 16.27 35.94V3.89999C16.27 3.36999 16.08 2.91999 15.71 2.54999C15.34 2.17999 14.86 1.98999 14.28 1.98999H3.96999C3.38999 1.98999 2.90999 2.17999 2.53999 2.54999C2.16999 2.91999 1.97998 3.36999 1.97998 3.89999V37.13C1.97998 40.89 2.66999 44.19 4.03999 47.04C5.40999 49.9 7.27998 52.14 9.62998 53.78C11.98 55.42 14.53 56.65 17.28 57.47C20.03 58.29 22.94 58.7 26 58.7C29.06 58.7 31.98 58.29 34.73 57.47C37.48 56.65 40.03 55.42 42.38 53.78C44.73 52.14 46.6 49.89 47.97 47.04C49.34 44.18 50.03 40.88 50.03 37.13V3.89999C50.03 3.36999 49.84 2.91999 49.47 2.54999C49.1 2.17999 48.62 1.98999 48.04 1.98999H48.09Z" fill="#231F20"/>
<path d="M25.76 57.42C22.81 57.42 19.97 57.02 17.32 56.23C14.68 55.44 12.21 54.25 9.94998 52.68C7.74998 51.15 5.97999 49.01 4.68999 46.33C3.38999 43.63 2.72998 40.44 2.72998 36.85V3.62004C2.72998 3.36004 2.80998 3.16003 2.98998 2.98003C3.10998 2.86003 3.29998 2.72003 3.70998 2.72003H14.02C14.43 2.72003 14.62 2.86003 14.74 2.98003C14.92 3.16003 15 3.36004 15 3.62004V35.66C15 38.88 15.96 41.49 17.87 43.42C19.77 45.35 22.43 46.34 25.76 46.34C29.09 46.34 31.74 45.36 33.65 43.42C35.55 41.49 36.52 38.88 36.52 35.66V3.62004C36.52 3.36004 36.6 3.16003 36.78 2.98003C36.9 2.86003 37.09 2.72003 37.5 2.72003H47.81C48.22 2.72003 48.41 2.86003 48.53 2.98003C48.71 3.16003 48.79 3.36004 48.79 3.62004V36.85C48.79 40.43 48.13 43.62 46.83 46.33C45.54 49.02 43.77 51.15 41.57 52.68C39.32 54.25 36.84 55.45 34.2 56.23C31.55 57.02 28.71 57.42 25.76 57.42Z" fill="#FC0B50"/>
<path d="M47.79 3.70001V36.84C47.79 40.27 47.16 43.32 45.93 45.89C44.71 48.42 43.0499 50.43 40.9999 51.86C38.8299 53.37 36.45 54.52 33.92 55.27C31.37 56.03 28.62 56.42 25.77 56.42C22.92 56.42 20.17 56.03 17.62 55.27C15.09 54.52 12.7 53.37 10.54 51.86C8.47996 50.43 6.81995 48.42 5.60995 45.89C4.36995 43.32 3.74995 40.28 3.74995 36.84V3.70001H14.03V35.65C14.03 39.14 15.09 41.99 17.18 44.11C19.28 46.24 22.17 47.32 25.78 47.32C29.39 47.32 32.28 46.24 34.38 44.11C36.47 41.99 37.53 39.14 37.53 35.65V3.70001H47.81M47.81 1.70001H37.4999C36.9199 1.70001 36.44 1.89003 36.07 2.26003C35.7 2.63003 35.51 3.08002 35.51 3.61002V35.65C35.51 38.61 34.65 40.96 32.93 42.71C31.21 44.45 28.8199 45.33 25.7499 45.33C22.6799 45.33 20.29 44.46 18.57 42.71C16.85 40.96 15.99 38.61 15.99 35.65V3.61002C15.99 3.08002 15.8 2.63003 15.43 2.26003C15.06 1.89003 14.5799 1.70001 13.9999 1.70001H3.68996C3.10996 1.70001 2.62996 1.89003 2.25996 2.26003C1.88996 2.63003 1.69995 3.08002 1.69995 3.61002V36.84C1.69995 40.6 2.38996 43.9 3.75996 46.75C5.12996 49.61 6.99995 51.85 9.34995 53.49C11.7 55.13 14.2499 56.36 16.9999 57.18C19.7499 58 22.6599 58.41 25.7199 58.41C28.7799 58.41 31.7 58 34.45 57.18C37.2 56.36 39.75 55.13 42.1 53.49C44.45 51.85 46.3199 49.6 47.6899 46.75C49.0599 43.89 49.7499 40.59 49.7499 36.84V3.61002C49.7499 3.08002 49.5599 2.63003 49.1899 2.26003C48.8199 1.89003 48.34 1.70001 47.76 1.70001H47.81Z" fill="#231F20"/>
<path d="M25.4699 57.13C22.5199 57.13 19.6799 56.73 17.0299 55.94C14.3899 55.15 11.9199 53.96 9.65993 52.39C7.45993 50.86 5.68994 48.72 4.39994 46.04C3.09994 43.34 2.43994 40.15 2.43994 36.56V3.32999C2.43994 3.06999 2.51994 2.86999 2.69994 2.68999C2.81994 2.56999 3.00994 2.42999 3.41994 2.42999H13.7299C14.1399 2.42999 14.3299 2.56999 14.4499 2.68999C14.6299 2.86999 14.7099 3.06999 14.7099 3.32999V35.37C14.7099 38.59 15.6699 41.2 17.5799 43.13C19.4799 45.06 22.1399 46.05 25.4699 46.05C28.7999 46.05 31.4499 45.07 33.3599 43.13C35.2599 41.2 36.2299 38.59 36.2299 35.37V3.32999C36.2299 3.06999 36.3099 2.86999 36.4899 2.68999C36.6099 2.56999 36.7999 2.42999 37.2099 2.42999H47.5199C47.9299 2.42999 48.1199 2.56999 48.2399 2.68999C48.4199 2.86999 48.4999 3.06999 48.4999 3.32999V36.56C48.4999 40.14 47.8399 43.33 46.5399 46.04C45.2499 48.73 43.4799 50.86 41.2799 52.39C39.0299 53.96 36.5499 55.16 33.9099 55.94C31.2599 56.73 28.4199 57.13 25.4699 57.13Z" fill="#FC0B50"/>
<path d="M47.5099 3.41998V36.56C47.5099 39.99 46.8799 43.04 45.6499 45.61C44.4299 48.14 42.7699 50.15 40.7199 51.58C38.5499 53.09 36.1699 54.24 33.6399 54.99C31.0899 55.75 28.3399 56.14 25.4899 56.14C22.6399 56.14 19.8899 55.75 17.3399 54.99C14.8099 54.24 12.4199 53.09 10.2599 51.58C8.19992 50.15 6.53992 48.14 5.32992 45.61C4.08992 43.04 3.46992 40 3.46992 36.56V3.41998H13.7499V35.37C13.7499 38.86 14.8099 41.71 16.8999 43.83C18.9999 45.96 21.8899 47.04 25.4999 47.04C29.1099 47.04 31.9999 45.96 34.0999 43.83C36.1899 41.71 37.2499 38.86 37.2499 35.37V3.41998H47.5299M47.5199 1.41998H37.2099C36.6299 1.41998 36.1499 1.60998 35.7799 1.97998C35.4099 2.34998 35.2199 2.79999 35.2199 3.32999V35.37C35.2199 38.33 34.3599 40.68 32.6399 42.43C30.9199 44.17 28.5299 45.05 25.4599 45.05C22.3899 45.05 19.9999 44.18 18.2799 42.43C16.5599 40.68 15.6999 38.33 15.6999 35.37V3.32999C15.6999 2.79999 15.5099 2.34998 15.1399 1.97998C14.7699 1.60998 14.2899 1.41998 13.7099 1.41998H3.39992C2.81992 1.41998 2.33992 1.60998 1.96992 1.97998C1.59992 2.34998 1.40991 2.79999 1.40991 3.32999V36.56C1.40991 40.32 2.09992 43.62 3.46992 46.47C4.83992 49.33 6.70991 51.57 9.05991 53.21C11.4099 54.85 13.9599 56.08 16.7099 56.9C19.4599 57.72 22.3699 58.13 25.4299 58.13C28.4899 58.13 31.4099 57.72 34.1599 56.9C36.9099 56.08 39.4599 54.85 41.8099 53.21C44.1599 51.57 46.0299 49.32 47.3999 46.47C48.7699 43.61 49.4599 40.31 49.4599 36.56V3.32999C49.4599 2.79999 49.2699 2.34998 48.8999 1.97998C48.5299 1.60998 48.0499 1.41998 47.4699 1.41998H47.5199Z" fill="#231F20"/>
<path d="M25.1899 56.85C22.2399 56.85 19.3999 56.45 16.7499 55.66C14.1099 54.87 11.6399 53.68 9.37991 52.11C7.17991 50.58 5.40992 48.44 4.11992 45.76C2.81992 43.06 2.15991 39.87 2.15991 36.28V3.05002C2.15991 2.79002 2.23991 2.59002 2.41991 2.41002C2.53991 2.29002 2.72992 2.15002 3.13992 2.15002H13.4499C13.8599 2.15002 14.0499 2.29002 14.1699 2.41002C14.3499 2.59002 14.4299 2.79002 14.4299 3.05002V35.09C14.4299 38.31 15.3899 40.92 17.2999 42.85C19.1999 44.78 21.8599 45.77 25.1899 45.77C28.5199 45.77 31.1699 44.79 33.0799 42.85C34.9799 40.92 35.9499 38.31 35.9499 35.09V3.05002C35.9499 2.79002 36.0299 2.59002 36.2099 2.41002C36.3299 2.29002 36.5199 2.15002 36.9299 2.15002H47.2399C47.6499 2.15002 47.8399 2.29002 47.9599 2.41002C48.1399 2.59002 48.2199 2.79002 48.2199 3.05002V36.28C48.2199 39.86 47.5599 43.05 46.2599 45.76C44.9699 48.45 43.1999 50.58 40.9999 52.11C38.7499 53.68 36.2699 54.88 33.6299 55.66C30.9799 56.45 28.1399 56.85 25.1899 56.85Z" fill="#FC0B50"/>
<path d="M47.2199 3.14001V36.28C47.2199 39.71 46.5899 42.76 45.3599 45.33C44.1399 47.86 42.4799 49.87 40.4299 51.3C38.2599 52.81 35.8799 53.96 33.3499 54.71C30.7999 55.47 28.0499 55.86 25.1999 55.86C22.3499 55.86 19.5999 55.47 17.0499 54.71C14.5199 53.96 12.1299 52.81 9.96989 51.3C7.90989 49.87 6.24989 47.86 5.03989 45.33C3.79989 42.76 3.17989 39.72 3.17989 36.28V3.14001H13.4599V35.09C13.4599 38.58 14.5199 41.43 16.6099 43.55C18.7099 45.68 21.5999 46.76 25.2099 46.76C28.8199 46.76 31.7099 45.68 33.8099 43.55C35.8999 41.43 36.9599 38.58 36.9599 35.09V3.14001H47.2399M47.2399 1.14001H36.9299C36.3499 1.14001 35.8699 1.33001 35.4999 1.70001C35.1299 2.07001 34.9399 2.52002 34.9399 3.05002V35.09C34.9399 38.05 34.0799 40.4 32.3599 42.15C30.6399 43.89 28.2499 44.77 25.1799 44.77C22.1099 44.77 19.7199 43.9 17.9999 42.15C16.2799 40.4 15.4199 38.05 15.4199 35.09V3.05002C15.4199 2.52002 15.2299 2.07001 14.8599 1.70001C14.4899 1.33001 14.0099 1.14001 13.4299 1.14001H3.11989C2.53989 1.14001 2.05989 1.33001 1.68989 1.70001C1.31989 2.07001 1.12988 2.52002 1.12988 3.05002V36.28C1.12988 40.04 1.81989 43.34 3.18989 46.19C4.55989 49.05 6.42988 51.29 8.77988 52.93C11.1299 54.57 13.6799 55.8 16.4299 56.62C19.1799 57.44 22.0899 57.85 25.1499 57.85C28.2099 57.85 31.1299 57.44 33.8799 56.62C36.6299 55.8 39.1799 54.57 41.5299 52.93C43.8799 51.29 45.7499 49.04 47.1199 46.19C48.4899 43.33 49.1799 40.03 49.1799 36.28V3.05002C49.1799 2.52002 48.9899 2.07001 48.6199 1.70001C48.2499 1.33001 47.7699 1.14001 47.1899 1.14001H47.2399Z" fill="#231F20"/>
<path d="M24.9099 56.57C21.9599 56.57 19.1199 56.17 16.4699 55.38C13.8299 54.59 11.3599 53.4 9.09988 51.83C6.89988 50.3 5.12988 48.16 3.83988 45.48C2.53988 42.78 1.87988 39.59 1.87988 36V2.76999C1.87988 2.50999 1.95988 2.30999 2.13988 2.12999C2.25988 2.00999 2.44989 1.87 2.85989 1.87H13.1699C13.5799 1.87 13.7699 2.00999 13.8899 2.12999C14.0699 2.30999 14.1499 2.50999 14.1499 2.76999V34.81C14.1499 38.03 15.1099 40.64 17.0199 42.57C18.9199 44.5 21.5799 45.49 24.9099 45.49C28.2399 45.49 30.8899 44.51 32.7999 42.57C34.6999 40.64 35.6699 38.03 35.6699 34.81V2.76999C35.6699 2.50999 35.7499 2.30999 35.9299 2.12999C36.0499 2.00999 36.2399 1.87 36.6499 1.87H46.9599C47.3699 1.87 47.5599 2.00999 47.6799 2.12999C47.8599 2.30999 47.9399 2.50999 47.9399 2.76999V36C47.9399 39.58 47.2799 42.77 45.9799 45.48C44.6899 48.17 42.9199 50.3 40.7199 51.83C38.4699 53.4 35.9899 54.6 33.3499 55.38C30.6999 56.17 27.8599 56.57 24.9099 56.57Z" fill="#FC0B50"/>
<path d="M46.9401 2.85004V35.99C46.9401 39.42 46.3101 42.47 45.0801 45.04C43.8601 47.57 42.2001 49.58 40.1501 51.01C37.9801 52.52 35.6001 53.67 33.0701 54.42C30.5201 55.18 27.7701 55.57 24.9201 55.57C22.0701 55.57 19.3201 55.18 16.7701 54.42C14.2401 53.67 11.8501 52.52 9.6901 51.01C7.6301 49.58 5.9701 47.57 4.7601 45.04C3.5201 42.47 2.9001 39.43 2.9001 35.99V2.85004H13.1801V34.8C13.1801 38.29 14.2401 41.14 16.3301 43.26C18.4301 45.39 21.3201 46.47 24.9301 46.47C28.5401 46.47 31.4301 45.39 33.5301 43.26C35.6201 41.14 36.6801 38.29 36.6801 34.8V2.85004H46.9601M46.9601 0.850037H36.6501C36.0701 0.850037 35.5901 1.04003 35.2201 1.41003C34.8501 1.78003 34.6601 2.23004 34.6601 2.76004V34.8C34.6601 37.76 33.8001 40.11 32.0801 41.86C30.3601 43.6 27.9701 44.48 24.9001 44.48C21.8301 44.48 19.4401 43.61 17.7201 41.86C16.0001 40.11 15.1401 37.76 15.1401 34.8V2.76004C15.1401 2.23004 14.9501 1.78003 14.5801 1.41003C14.2101 1.04003 13.7301 0.850037 13.1501 0.850037H2.8401C2.2601 0.850037 1.7801 1.04003 1.4101 1.41003C1.0401 1.78003 0.850098 2.23004 0.850098 2.76004V35.99C0.850098 39.75 1.5401 43.05 2.9101 45.9C4.2801 48.76 6.1501 51 8.5001 52.64C10.8501 54.28 13.4001 55.51 16.1501 56.33C18.9001 57.15 21.8101 57.56 24.8701 57.56C27.9301 57.56 30.8501 57.15 33.6001 56.33C36.3501 55.51 38.9001 54.28 41.2501 52.64C43.6001 51 45.4701 48.75 46.8401 45.9C48.2101 43.04 48.9001 39.74 48.9001 35.99V2.76004C48.9001 2.23004 48.7101 1.78003 48.3401 1.41003C47.9701 1.04003 47.4901 0.850037 46.9101 0.850037H46.9601Z" fill="#231F20"/>
<path d="M24.6201 56.28C21.6701 56.28 18.8301 55.88 16.1801 55.09C13.5401 54.3 11.0701 53.11 8.81009 51.54C6.61009 50.01 4.84009 47.87 3.55009 45.19C2.25009 42.49 1.59009 39.3 1.59009 35.71V2.48001C1.59009 2.22001 1.67009 2.02001 1.85009 1.84001C1.97009 1.72001 2.16009 1.58002 2.57009 1.58002H12.8801C13.2901 1.58002 13.4801 1.72001 13.6001 1.84001C13.7801 2.02001 13.8601 2.22001 13.8601 2.48001V34.52C13.8601 37.74 14.8201 40.35 16.7301 42.28C18.6301 44.21 21.2901 45.2 24.6201 45.2C27.9501 45.2 30.6001 44.22 32.5101 42.28C34.4101 40.35 35.3801 37.74 35.3801 34.52V2.48001C35.3801 2.22001 35.4601 2.02001 35.6401 1.84001C35.7601 1.72001 35.9501 1.58002 36.3601 1.58002H46.6701C47.0801 1.58002 47.2701 1.72001 47.3901 1.84001C47.5701 2.02001 47.6501 2.22001 47.6501 2.48001V35.71C47.6501 39.29 46.9901 42.48 45.6901 45.19C44.4001 47.88 42.6301 50.01 40.4301 51.54C38.1801 53.11 35.7001 54.31 33.0601 55.09C30.4101 55.88 27.5701 56.28 24.6201 56.28Z" fill="#FC0B50"/>
<path d="M46.6601 2.57001V35.71C46.6601 39.14 46.0301 42.19 44.8001 44.76C43.5801 47.29 41.9201 49.3 39.8701 50.73C37.7001 52.24 35.3201 53.39 32.7901 54.14C30.2401 54.9 27.4901 55.29 24.6401 55.29C21.7901 55.29 19.0401 54.9 16.4901 54.14C13.9601 53.39 11.5701 52.24 9.41006 50.73C7.35006 49.3 5.69006 47.29 4.48006 44.76C3.24006 42.19 2.62006 39.15 2.62006 35.71V2.57001H12.9001V34.52C12.9001 38.01 13.9601 40.86 16.0501 42.98C18.1501 45.11 21.0401 46.19 24.6501 46.19C28.2601 46.19 31.1501 45.11 33.2501 42.98C35.3401 40.86 36.4001 38.01 36.4001 34.52V2.57001H46.6801M46.6701 0.570007H36.3601C35.7801 0.570007 35.3001 0.760005 34.9301 1.13C34.5601 1.5 34.3701 1.95 34.3701 2.48V34.52C34.3701 37.48 33.5101 39.83 31.7901 41.58C30.0701 43.32 27.6801 44.2 24.6101 44.2C21.5401 44.2 19.1501 43.33 17.4301 41.58C15.7101 39.83 14.8501 37.48 14.8501 34.52V2.48C14.8501 1.95 14.6601 1.5 14.2901 1.13C13.9201 0.760005 13.4401 0.570007 12.8601 0.570007H2.55006C1.97006 0.570007 1.49006 0.760005 1.12006 1.13C0.750064 1.5 0.560059 1.95 0.560059 2.48V35.71C0.560059 39.47 1.25006 42.77 2.62006 45.62C3.99006 48.48 5.86006 50.72 8.21006 52.36C10.5601 54 13.1101 55.23 15.8601 56.05C18.6101 56.87 21.5201 57.28 24.5801 57.28C27.6401 57.28 30.5601 56.87 33.3101 56.05C36.0601 55.23 38.6101 54 40.9601 52.36C43.3101 50.72 45.1801 48.47 46.5501 45.62C47.9201 42.76 48.6101 39.46 48.6101 35.71V2.48C48.6101 1.95 48.4201 1.5 48.0501 1.13C47.6801 0.760005 47.2001 0.570007 46.6201 0.570007H46.6701Z" fill="#231F20"/>
<path d="M24.3401 56C21.3901 56 18.5501 55.6 15.9001 54.81C13.2601 54.02 10.7901 52.83 8.53006 51.26C6.33006 49.73 4.56006 47.59 3.27006 44.91C1.97006 42.21 1.31006 39.02 1.31006 35.43V2.19998C1.31006 1.93998 1.39006 1.73998 1.57006 1.55998C1.69006 1.43998 1.88006 1.29999 2.29006 1.29999H12.6001C13.0101 1.29999 13.2001 1.43998 13.3201 1.55998C13.5001 1.73998 13.5801 1.93998 13.5801 2.19998V34.24C13.5801 37.46 14.5401 40.07 16.4501 42C18.3501 43.93 21.0101 44.92 24.3401 44.92C27.6701 44.92 30.3201 43.94 32.2301 42C34.1301 40.07 35.1001 37.46 35.1001 34.24V2.19998C35.1001 1.93998 35.1801 1.73998 35.3601 1.55998C35.4801 1.43998 35.6701 1.29999 36.0801 1.29999H46.3901C46.8001 1.29999 46.9901 1.43998 47.1101 1.55998C47.2901 1.73998 47.3701 1.93998 47.3701 2.19998V35.43C47.3701 39.01 46.7101 42.2 45.4101 44.91C44.1201 47.6 42.3501 49.73 40.1501 51.26C37.9001 52.83 35.4201 54.03 32.7801 54.81C30.1301 55.6 27.2901 56 24.3401 56Z" fill="#FC0B50"/>
<path d="M46.37 2.28998V35.43C46.37 38.86 45.74 41.91 44.51 44.48C43.29 47.01 41.63 49.02 39.58 50.45C37.41 51.96 35.03 53.11 32.5 53.86C29.95 54.62 27.2 55.01 24.35 55.01C21.5 55.01 18.75 54.62 16.2 53.86C13.67 53.11 11.28 51.96 9.12003 50.45C7.06003 49.02 5.40003 47.01 4.19003 44.48C2.95003 41.91 2.33003 38.87 2.33003 35.43V2.28998H12.61V34.24C12.61 37.73 13.67 40.58 15.76 42.7C17.86 44.83 20.75 45.91 24.36 45.91C27.97 45.91 30.86 44.83 32.96 42.7C35.05 40.58 36.11 37.73 36.11 34.24V2.28998H46.39M46.39 0.289978H36.08C35.5 0.289978 35.02 0.479976 34.65 0.849976C34.28 1.21998 34.09 1.66997 34.09 2.19997V34.24C34.09 37.2 33.23 39.55 31.51 41.3C29.79 43.04 27.4 43.92 24.33 43.92C21.26 43.92 18.87 43.05 17.15 41.3C15.43 39.55 14.57 37.2 14.57 34.24V2.19997C14.57 1.66997 14.38 1.21998 14.01 0.849976C13.64 0.479976 13.16 0.289978 12.58 0.289978H2.27003C1.69003 0.289978 1.21003 0.479976 0.840027 0.849976C0.470027 1.21998 0.280029 1.66997 0.280029 2.19997V35.43C0.280029 39.19 0.970027 42.49 2.34003 45.34C3.71003 48.2 5.58003 50.44 7.93003 52.08C10.28 53.72 12.83 54.95 15.58 55.77C18.33 56.59 21.24 57 24.3 57C27.36 57 30.28 56.59 33.03 55.77C35.78 54.95 38.33 53.72 40.68 52.08C43.03 50.44 44.9 48.19 46.27 45.34C47.64 42.48 48.33 39.18 48.33 35.43V2.19997C48.33 1.66997 48.14 1.21998 47.77 0.849976C47.4 0.479976 46.92 0.289978 46.34 0.289978H46.39Z" fill="#231F20"/>
<path d="M24.06 55.72C21.11 55.72 18.27 55.32 15.62 54.53C12.98 53.74 10.51 52.55 8.25003 50.98C6.05003 49.45 4.28003 47.31 2.99003 44.63C1.69003 41.93 1.03003 38.74 1.03003 35.15V1.92001C1.03003 1.66001 1.11003 1.46001 1.29003 1.28001C1.41003 1.16001 1.60003 1.02002 2.01003 1.02002H12.32C12.73 1.02002 12.92 1.16001 13.04 1.28001C13.22 1.46001 13.3 1.66001 13.3 1.92001V33.96C13.3 37.18 14.26 39.79 16.17 41.72C18.07 43.65 20.73 44.64 24.06 44.64C27.39 44.64 30.04 43.66 31.95 41.72C33.85 39.79 34.82 37.18 34.82 33.96V1.92001C34.82 1.66001 34.9 1.46001 35.08 1.28001C35.2 1.16001 35.39 1.02002 35.8 1.02002H46.11C46.52 1.02002 46.71 1.16001 46.83 1.28001C47.01 1.46001 47.09 1.66001 47.09 1.92001V35.15C47.09 38.73 46.43 41.92 45.13 44.63C43.84 47.32 42.07 49.45 39.87 50.98C37.62 52.55 35.14 53.75 32.5 54.53C29.85 55.32 27.01 55.72 24.06 55.72Z" fill="#FC0B50"/>
<path d="M46.09 2V35.14C46.09 38.57 45.46 41.62 44.23 44.19C43.01 46.72 41.35 48.73 39.3 50.16C37.13 51.67 34.75 52.82 32.22 53.57C29.67 54.33 26.92 54.72 24.07 54.72C21.22 54.72 18.47 54.33 15.92 53.57C13.39 52.82 11 51.67 8.84 50.16C6.78 48.73 5.12 46.72 3.91 44.19C2.67 41.62 2.05 38.58 2.05 35.14V2H12.33V33.95C12.33 37.44 13.39 40.29 15.48 42.41C17.58 44.54 20.47 45.62 24.08 45.62C27.69 45.62 30.58 44.54 32.68 42.41C34.77 40.29 35.83 37.44 35.83 33.95V2H46.11M46.11 0H35.8C35.22 0 34.74 0.189998 34.37 0.559998C34 0.929998 33.81 1.38 33.81 1.91V33.95C33.81 36.91 32.95 39.26 31.23 41.01C29.51 42.75 27.12 43.63 24.05 43.63C20.98 43.63 18.59 42.76 16.87 41.01C15.15 39.26 14.29 36.91 14.29 33.95V1.91C14.29 1.38 14.1 0.929998 13.73 0.559998C13.36 0.189998 12.88 0 12.3 0H1.99C1.41 0 0.929998 0.189998 0.559998 0.559998C0.189998 0.929998 0 1.38 0 1.91V35.14C0 38.9 0.689998 42.2 2.06 45.05C3.43 47.91 5.3 50.15 7.65 51.79C10 53.43 12.55 54.66 15.3 55.48C18.05 56.3 20.96 56.71 24.02 56.71C27.08 56.71 30 56.3 32.75 55.48C35.5 54.66 38.05 53.43 40.4 51.79C42.75 50.15 44.62 47.9 45.99 45.05C47.36 42.19 48.05 38.89 48.05 35.14V1.91C48.05 1.38 47.86 0.929998 47.49 0.559998C47.12 0.189998 46.64 0 46.06 0H46.11Z" fill="#231F20"/>
</svg>
