<svg width="52" height="63" viewBox="0 0 52 63" fill="none" xmlns="http://www.w3.org/2000/svg">
<path d="M48.4348 6.41502V36.495C48.4348 39.585 47.8448 42.485 46.6748 45.195C45.4948 47.895 43.8848 50.295 41.8248 52.375C39.7748 54.425 37.3848 56.035 34.6648 57.215C31.9448 58.395 29.0348 58.975 25.9448 58.975C22.8548 58.975 19.9448 58.395 17.2248 57.215C14.5048 56.035 12.1148 54.425 10.0648 52.375C8.01483 50.295 6.39484 47.895 5.22484 45.195C4.04484 42.485 3.45483 39.585 3.45483 36.495V6.41502C3.45483 5.58502 3.74484 4.89502 4.32484 4.31502C4.90484 3.73502 5.59483 3.45502 6.41483 3.45502C7.23483 3.45502 7.93484 3.74502 8.50484 4.31502C9.07484 4.88502 9.36484 5.58502 9.36484 6.41502V36.495C9.36484 38.765 9.79483 40.895 10.6648 42.895C11.5248 44.895 12.7148 46.655 14.2548 48.185C15.7548 49.695 17.5148 50.885 19.5248 51.755C21.5348 52.635 23.6748 53.075 25.9448 53.075C28.2148 53.075 30.3548 52.635 32.3648 51.755C34.3848 50.885 36.1348 49.695 37.6448 48.185C39.1548 46.675 40.3748 44.895 41.2348 42.895C42.0948 40.895 42.5248 38.765 42.5248 36.495V6.41502C42.5248 5.58502 42.8148 4.89502 43.3848 4.31502C43.9648 3.74502 44.6648 3.45502 45.4848 3.45502C46.3048 3.45502 46.9948 3.74502 47.5748 4.31502C48.1448 4.89502 48.4348 5.58502 48.4348 6.41502Z" fill="white"/>
<path d="M17.2249 57.215C19.9449 58.395 22.8549 58.975 25.9449 58.975C29.0349 58.975 31.9449 58.395 34.6649 57.215C37.3849 56.035 39.7749 54.425 41.8249 52.375C43.8849 50.295 45.4949 47.895 46.6749 45.195C47.8449 42.485 48.4349 39.585 48.4349 36.495V6.415C48.4349 5.585 48.1449 4.89501 47.5749 4.31501C46.9949 3.74501 46.3049 3.455 45.4849 3.455C44.6649 3.455 43.9649 3.74501 43.3849 4.31501C42.8149 4.89501 42.5249 5.585 42.5249 6.415V36.495C42.5249 38.765 42.0949 40.895 41.2349 42.895C40.3749 44.895 39.1749 46.655 37.6449 48.185C36.1149 49.715 34.3849 50.885 32.3649 51.755C30.3549 52.635 28.2149 53.075 25.9449 53.075C23.6749 53.075 21.5349 52.635 19.5249 51.755C17.5149 50.885 15.7549 49.695 14.2549 48.185C12.7149 46.655 11.5249 44.895 10.6649 42.895C9.79488 40.895 9.36488 38.765 9.36488 36.495V6.415C9.36488 5.585 9.08488 4.89501 8.50488 4.31501C7.92488 3.73501 7.23488 3.455 6.41488 3.455C5.59488 3.455 4.89488 3.74501 4.32488 4.31501C3.75488 4.88501 3.45488 5.585 3.45488 6.415V36.495C3.45488 39.585 4.04488 42.485 5.22488 45.195C6.39488 47.895 8.01488 50.295 10.0649 52.375C12.1149 54.425 14.5049 56.035 17.2249 57.215ZM25.9449 61.935C22.4449 61.935 19.1549 61.275 16.0749 59.945C12.9949 58.615 10.2949 56.795 7.97488 54.465C5.64488 52.115 3.82488 49.405 2.49488 46.345C1.16488 43.275 0.504883 39.995 0.504883 36.495V6.415C0.504883 4.795 1.07488 3.405 2.22488 2.245C3.37488 1.085 4.77488 0.505005 6.41488 0.505005C8.05488 0.505005 9.44488 1.085 10.5949 2.245C11.7449 3.405 12.3249 4.795 12.3249 6.415V36.495C12.3249 40.215 13.6649 43.415 16.3449 46.095C18.9949 48.775 22.1949 50.115 25.9449 50.115C29.6949 50.115 32.8949 48.775 35.5549 46.095C38.2349 43.415 39.5749 40.215 39.5749 36.495V6.415C39.5749 4.795 40.1449 3.405 41.2949 2.245C42.4449 1.085 43.8349 0.505005 45.4849 0.505005C47.1349 0.505005 48.5149 1.085 49.6649 2.245C50.8149 3.405 51.3949 4.795 51.3949 6.415V36.495C51.3949 39.995 50.7249 43.275 49.3949 46.345C48.0749 49.405 46.2449 52.115 43.9249 54.465C41.5949 56.795 38.8949 58.615 35.8149 59.945C32.7349 61.275 29.4449 61.935 25.9449 61.935Z" fill="#DD07D8"/>
<path d="M12.3249 6.415V36.495C12.3249 40.215 13.6649 43.415 16.3449 46.095C18.9949 48.775 22.1949 50.115 25.9449 50.115C29.6949 50.115 32.8949 48.775 35.5549 46.095C38.2349 43.415 39.5749 40.215 39.5749 36.495V6.415C39.5749 4.795 40.1449 3.405 41.2949 2.245C42.4449 1.085 43.8349 0.505005 45.4849 0.505005C47.1349 0.505005 48.5149 1.085 49.6649 2.245C50.8149 3.405 51.3949 4.795 51.3949 6.415V36.495C51.3949 39.995 50.7249 43.275 49.3949 46.345C48.0749 49.405 46.2449 52.115 43.9249 54.465C41.5949 56.795 38.8949 58.615 35.8149 59.945C32.7349 61.275 29.4449 61.935 25.9449 61.935C22.4449 61.935 19.1549 61.275 16.0749 59.945C12.9949 58.615 10.2949 56.795 7.97488 54.465C5.64488 52.115 3.82488 49.405 2.49488 46.345C1.16488 43.275 0.504883 39.995 0.504883 36.495V6.415C0.504883 4.795 1.07488 3.405 2.22488 2.245C3.37488 1.085 4.77488 0.505005 6.41488 0.505005C8.05488 0.505005 9.44488 1.085 10.5949 2.245C11.7449 3.405 12.3249 4.795 12.3249 6.415Z" stroke="#DD07D8" stroke-width="1.01" stroke-linecap="round" stroke-linejoin="round"/>
<path d="M9.36484 6.41502C9.36484 5.58502 9.08484 4.89502 8.50484 4.31502C7.92484 3.73502 7.23483 3.45502 6.41483 3.45502C5.59483 3.45502 4.89484 3.74502 4.32484 4.31502C3.75484 4.88502 3.45483 5.58502 3.45483 6.41502V36.495C3.45483 39.585 4.04484 42.485 5.22484 45.195C6.39484 47.895 8.01483 50.295 10.0648 52.375C12.1148 54.425 14.5048 56.035 17.2248 57.215C19.9448 58.395 22.8548 58.975 25.9448 58.975C29.0348 58.975 31.9448 58.395 34.6648 57.215C37.3848 56.035 39.7748 54.425 41.8248 52.375C43.8848 50.295 45.4948 47.895 46.6748 45.195C47.8448 42.485 48.4348 39.585 48.4348 36.495V6.41502C48.4348 5.58502 48.1448 4.89502 47.5748 4.31502C46.9948 3.74502 46.3048 3.45502 45.4848 3.45502C44.6648 3.45502 43.9648 3.74502 43.3848 4.31502C42.8148 4.89502 42.5248 5.58502 42.5248 6.41502V36.495C42.5248 38.765 42.0948 40.895 41.2348 42.895C40.3748 44.895 39.1748 46.655 37.6448 48.185C36.1148 49.715 34.3848 50.885 32.3648 51.755C30.3548 52.635 28.2148 53.075 25.9448 53.075C23.6748 53.075 21.5348 52.635 19.5248 51.755C17.5148 50.885 15.7548 49.695 14.2548 48.185C12.7148 46.655 11.5248 44.895 10.6648 42.895C9.79483 40.895 9.36484 38.765 9.36484 36.495V6.41502Z" stroke="#DD07D8" stroke-width="1.01" stroke-linecap="round" stroke-linejoin="round"/>
</svg>
