<?xml version="1.0" encoding="UTF-8"?>
<svg id="Layer_1" data-name="Layer 1" xmlns="http://www.w3.org/2000/svg" viewBox="0 0 1024 1024">
  <defs>
    <style>
      .cls-1 {
        fill: #522182;
      }

      .cls-2 {
        fill: #fed523;
      }

      .cls-3 {
        fill: #fdfdf3;
      }

      .cls-4 {
        fill: #fd63af;
      }
    </style>
  </defs>
  <path class="cls-1" d="M178.74,254.24c22.91-3.91,22.82,17.61,29.08,32.44,4.33,10.24,10.28,19.22,19.88,25.12,12.14,7.46,30.92,6.38,32.34,24.65,1.8,23.18-18.85,20.38-32.73,28.35-9.07,5.21-15.47,15.08-19.49,24.51-5.35,12.56-5.69,34.01-23.3,34.75-19.83.83-19.08-22.44-25.33-35.75-4.09-8.72-11.14-17.52-19.49-22.51-12.46-7.44-32.46-6.49-33.73-25.27-1.46-21.62,19.17-20.38,32.71-28.37,9.49-5.6,16.79-15.99,20.81-26.19,4.23-10.72,4.87-29.28,19.26-31.74ZM196.34,307.67c-2.95-4.59-4.9-10.19-7.53-14.99l-5.81-14.68c-6.25,23.25-18.82,44.75-41.33,55.17-4.38,2.03-9.51,2.77-13.67,5.33,20.57,4.72,37.88,18.76,47.52,37.47,3.32,6.46,5.05,13.42,7.98,20.02,7.98-25.99,22.12-47.36,48.71-56.29,2.03-.68,7.91-.75,3.38-2.8s-8.85-2.88-13.61-5.38c-10.12-5.32-19.61-14.46-25.64-23.85Z"/>
  <path class="cls-1" d="M136.63,473.33c16.3-1.12,15.51,17.8,22.37,27.17,6.02,8.21,11.51,8.5,19.37,12.63,8.34,4.37,12.85,11.63,9.36,21.11-3.78,10.26-17.69,9.32-25.28,16.72-10.33,10.06-8.58,32.31-23.93,33.11-17.8.93-15.14-21.15-24.55-31.55-8.66-9.58-24.9-6.57-26.02-22.98-1.23-18.02,12.11-14.48,22.06-22.02,2.68-2.04,7.22-7.2,8.8-10.2,4.45-8.48,4.88-23.11,17.81-23.99ZM138.99,494.99c-1.34-1.59-1.76.44-2.23,1.28-1.77,3.22-2.86,7.44-4.96,11.03-6.38,10.9-14.25,15.73-25.82,20.19,15.3,4.7,26.6,16.34,31.51,31.51,3.54-12.62,12.34-23.17,24.15-28.86,1.97-.95,7.08-1.9,7.36-2.16,1.91-1.77-.65-1.66-1.49-2-11.67-4.66-19.85-9.39-25.69-21.32-1.18-2.41-2.51-9.29-2.83-9.68Z"/>
  <g>
    <path class="cls-3" d="M546.31,198.67c33.16,24.78,60.13,68.47,64.68,110.84,1.54,14.31-2.05,30.02,9.08,40.92,4.62,4.53,12.66,9.19,17.47,13.53,98.2,88.68,77.92,235.67-22.66,311.37-5.18,3.9-11.88,7.52-16.78,11.26-65.98,50.24-107.05,103.92-104.14,192.96.07,2.22,2.48,6.69-.45,6.47-6.2-.46-15.45-2.51-21.29-4.73-9.79-3.74-18.62-9.55-22.71-19.29-8.09-19.27-4.56-47.9-.02-68,9.97-44.12,47.54-111.92,87.47-133.53,17.37-9.4,34.76-15.58,50.09-28.91,8.74-7.6,29.37-30.57,30-42.08.84-15.4-16.93-18.09-24.47-7.39-.85,1.21-.82,3.09-1.58,4.21-27.67,40.47-64.89,53.47-113.45,55.76-24.33,1.15-58.18-3.62-80.75,2.25-30.8,8.01-46.37,38.12-76.83,48.17-41.93,13.84-92.91-14.08-100.69-58.23-10.05-57.01,39.52-92.46,73.76-128.7,30.07-31.84,59.9-65.14,86.36-97.53,3.23-3.95,13.05-4.88,18.39-6.72,29.23-10.08,55.43-39,72.16-66.06,1.64-2.97,4.73-11.69,7.56-12.22,7.17-1.34,13.67,1.77,18.97-7.03,4.95-8.23,1.88-39.05,2.5-50.5.94-17.32,4.91-38.23,11.87-54.13,7.28-16.64,15.03-26.85,33.58-15.19,1.07.67,1.3,2.08,1.91,2.53ZM491.36,501.38c9.79-7.15,26.58-21.28,22.19-35.43-2.56-8.26-14.02-10.03-20.89-5.78-6.48,4.02-8.51,11.68-12.11,14.88-9.64,8.57-24.68,12.81-37.41,10.3-10-1.97-28.01-18.72-35.56-5.27-4.92,8.76.57,17.03,7.37,22.46,21.06,16.81,55.26,14.29,76.41-1.17ZM272.74,585.24c-5.47.89-9.33,4.26-12.36,8.63-6.63,9.57-17.81,41.28,1.36,42.91,14.3,1.21,28.83-23.4,30.05-35.57,1.11-11.01-8.81-17.63-19.05-15.97Z"/>
    <path class="cls-2" d="M425.34,278.66c6.54,5.59,14.43,10.66,20.67,16.83,8.59,8.5,5.75,11.05,1.46,21.48-10.82,26.25-33.88,48.86-60.86,57.95l-27.54-40.43c4.68-3.77,10.29-6.15,14.95-9.97,9.97-8.17,20.74-22.21,26.17-33.83,3.96-8.46,6.69-17.61,8.83-26.68,3.76,4.18,8.87,6.91,13.01,10.47,1.54,1.32,2.29,3.31,3.31,4.19Z"/>
    <path class="cls-2" d="M360.34,303.35c-.71.62-.95,2-1.8,2.65-1.84,1.4-10.48,6.76-12.03,5.02l-29.46-59.56c.17-3.46,5.04-4.33,6.88-6.02,6.64-6.12,13.73-14.93,18.24-22.76,1.17-2.04,6.51-14.66,7.33-14.65,6.45,6.15,13.62,11.79,20.03,17.95,2.94,2.83,16.99,16.2,17.45,18.55,1.38,7.01-4.02,24.19-6.8,31.16-4.8,12.03-10.26,19.25-19.84,27.67Z"/>
    <path class="cls-2" d="M282.3,148.69c4.19,3.52,6.38,5.79,10.2,9.3,11.95,10.97,24.54,21.34,36.35,32.48-3.05,6.71-5.24,13.28-9.45,19.43-1.74,2.54-11.92,14.25-13.92,15.08-1.68.7-1.35-.67-1.7-1.27-2.51-4.25-4.93-10.38-6.96-15.05-3.18-7.31-24.57-62.92-21.82-65.67,4.21-.91,5.34,4.04,7.3,5.69Z"/>
    <path class="cls-1" d="M491.36,501.38c-21.15,15.46-55.35,17.98-76.41,1.17-6.8-5.42-12.29-13.7-7.37-22.46,7.55-13.45,25.56,3.3,35.56,5.27,12.73,2.51,27.77-1.73,37.41-10.3,3.6-3.2,5.63-10.86,12.11-14.88,6.86-4.25,18.32-2.49,20.89,5.78,4.39,14.16-12.4,28.28-22.19,35.43Z"/>
    <path class="cls-1" d="M272.74,585.24c10.24-1.66,20.15,4.96,19.05,15.97-1.22,12.17-15.75,36.78-30.05,35.57-19.17-1.63-7.99-33.34-1.36-42.91,3.03-4.37,6.89-7.75,12.36-8.63Z"/>
    <g>
      <path class="cls-1" d="M416.5,669c-34.3,3.17-49.57,34.03-78.83,47.17-55.04,24.73-128.96-10.78-142.6-69.74-19.22-83.08,49.75-128.76,98.44-181.41,23.42-25.32,45.44-52,67.5-78.5-28.21-44.44-53.22-90.96-75.19-138.84-9.67-21.09-19.85-43.78-27.28-65.72-4.89-14.46-15.91-44.89-7.38-58.29,14.67-23.07,42.39.05,56.31,11.36,39.63,32.2,76.5,70.24,114.51,104.49,16.3,14.69,33.74,28.19,49.52,43.48.92-33.84,4.83-91.32,36.19-111.8,30.54-19.96,60.6,7.2,80.97,28.65,8,.2,15.92-2.33,23.85-2.83,7.5-.47,48.64,2.11,55.82,3.16,176.92,25.65,284.37,208.06,259.5,378.17-14.99,102.5-70.27,197.96-158.31,253.69-43.49,27.52-91.88,42.46-141.31,55.69-32.69,8.76-72.82,20.27-105.85,25.15-50.18,7.41-101.9-9.91-105.41-67.32-3.87-63.14,26.83-130.34,68.05-176.55-22.07,1.5-46.74-2.01-68.5,0ZM282.3,148.69c-1.96-1.65-3.08-6.6-7.3-5.69-2.75,2.75,18.64,58.36,21.82,65.67,2.03,4.67,4.45,10.79,6.96,15.05.35.6.03,1.96,1.7,1.27,2-.83,12.19-12.54,13.92-15.08,4.21-6.15,6.39-12.73,9.45-19.43-11.81-11.14-24.4-21.51-36.35-32.48-3.82-3.51-6.01-5.78-10.2-9.3ZM546.31,198.67c-.6-.45-.84-1.86-1.91-2.53-18.55-11.66-26.31-1.45-33.58,15.19-6.95,15.9-10.93,36.81-11.87,54.13-.62,11.45,2.46,42.27-2.5,50.5-5.29,8.8-11.8,5.69-18.97,7.03-2.83.53-5.92,9.25-7.56,12.22-16.73,27.06-42.94,55.98-72.16,66.06-5.34,1.84-15.16,2.77-18.39,6.72-26.46,32.39-56.28,65.69-86.36,97.53-34.23,36.24-83.8,71.69-73.76,128.7,7.78,44.15,58.75,72.07,100.69,58.23,30.46-10.05,46.03-40.16,76.83-48.17,22.57-5.87,56.42-1.1,80.75-2.25,48.56-2.29,85.78-15.28,113.45-55.76.76-1.12.73-3,1.58-4.21,7.54-10.7,25.31-8.01,24.47,7.39-.63,11.51-21.26,34.48-30,42.08-15.32,13.33-32.72,19.51-50.09,28.91-39.92,21.61-77.5,89.41-87.47,133.53-4.54,20.1-8.08,48.74.02,68,4.09,9.74,12.92,15.56,22.71,19.29,5.83,2.22,15.09,4.27,21.29,4.73,2.94.22.52-4.25.45-6.47-2.91-89.03,38.16-142.72,104.14-192.96,4.9-3.73,11.6-7.36,16.78-11.26,100.58-75.7,120.87-222.69,22.66-311.37-4.81-4.34-12.85-9-17.47-13.53-11.13-10.9-7.54-26.61-9.08-40.92-4.55-42.37-31.52-86.06-64.68-110.84ZM360.34,303.35c9.57-8.41,15.04-15.64,19.84-27.67,2.78-6.97,8.18-24.15,6.8-31.16-.46-2.35-14.51-15.72-17.45-18.55-6.41-6.17-13.58-11.8-20.03-17.95-.82,0-6.15,12.61-7.33,14.65-4.51,7.83-11.6,16.64-18.24,22.76-1.83,1.69-6.7,2.56-6.88,6.02l29.46,59.56c1.55,1.75,10.19-3.61,12.03-5.02.86-.65,1.09-2.03,1.8-2.65ZM789.35,279.63c-33.69-25.75-68.96-42.29-111.15-50.34-22.64-4.32-46.19-6.75-69.2-4.29,16.31,25.75,26.46,55.52,28.99,86,4.39-.04,8.9.54,13.21,1.28,126.36,21.75,201.84,141.01,182.5,265.92-9.93,64.13-49.4,118.78-97.22,158.77-40.89,34.19-89.95,65.16-120.33,110.68-1.65,2.47-9.68,14.23-8.15,16.33,36.56-8.81,73.33-18.26,107.67-33.82,108.46-49.16,174.62-150.18,186.31-268.69,10.28-104.18-29.04-217.96-112.64-281.86ZM425.34,278.66c-1.03-.88-1.77-2.86-3.31-4.19-4.15-3.56-9.25-6.29-13.01-10.47-2.13,9.07-4.87,18.23-8.83,26.68-5.44,11.62-16.2,25.65-26.17,33.83-4.66,3.82-10.26,6.21-14.95,9.97l27.54,40.43c26.99-9.09,50.05-31.7,60.86-57.95,4.3-10.43,7.14-12.98-1.46-21.48-6.24-6.17-14.13-11.23-20.67-16.83ZM749.35,388.65c-15.43-14.36-29.55-24.51-48.99-33.51-16.25-7.52-33.59-12.66-51.36-15.13,1.88,4.45,7.2,5.96,10.04,8.45,87.94,76.94,89.09,213.75,16.93,302.02-48.33,59.12-124.56,85.78-148.24,163.76-6.8,22.41-8.21,45.53-5.74,68.77,18.8-2.02,37.18-6.83,55.59-10.92,6.32-19.49,16.26-37.16,28.44-53.56,36.13-48.63,80.39-72.3,124.01-109.96,93.5-80.74,114.05-231.74,19.31-319.92Z"/>
      <path class="cls-4" d="M789.35,279.63c83.6,63.89,122.92,177.67,112.64,281.86-11.69,118.51-77.86,219.53-186.31,268.69-34.34,15.56-71.11,25.02-107.67,33.82-1.53-2.1,6.5-13.86,8.15-16.33,30.38-45.53,79.44-76.49,120.33-110.68,47.82-39.99,87.29-94.64,97.22-158.77,19.34-124.91-56.14-244.17-182.5-265.92-4.31-.74-8.82-1.32-13.21-1.28-2.53-30.47-12.68-60.25-28.99-86,23.01-2.47,46.56-.04,69.2,4.29,42.19,8.05,77.46,24.59,111.15,50.34Z"/>
      <path class="cls-2" d="M749.35,388.65c94.74,88.18,74.18,239.17-19.31,319.92-43.62,37.67-87.88,61.33-124.01,109.96-12.18,16.39-22.13,34.07-28.44,53.56-18.41,4.09-36.79,8.89-55.59,10.92-2.47-23.24-1.06-46.36,5.74-68.77,23.68-77.99,99.91-104.64,148.24-163.76,72.15-88.26,71-225.08-16.93-302.02-2.84-2.49-8.16-4-10.04-8.45,17.77,2.47,35.11,7.61,51.36,15.13,19.44,9,33.56,19.15,48.99,33.51Z"/>
    </g>
  </g>
  <path class="cls-2" d="M196.34,307.67c6.03,9.38,15.52,18.53,25.64,23.85,4.77,2.51,9.23,3.4,13.61,5.38s-1.35,2.12-3.38,2.8c-26.59,8.92-40.73,30.3-48.71,56.29-2.93-6.6-4.66-13.56-7.98-20.02-9.63-18.72-26.94-32.75-47.52-37.47,4.16-2.56,9.29-3.3,13.67-5.33,22.51-10.43,35.08-31.92,41.33-55.17l5.81,14.68c2.63,4.8,4.58,10.4,7.53,14.99Z"/>
  <path class="cls-2" d="M138.99,494.99c.32.39,1.65,7.27,2.83,9.68,5.84,11.93,14.02,16.66,25.69,21.32.83.33,3.39.22,1.49,2-.28.26-5.39,1.21-7.36,2.16-11.81,5.7-20.61,16.25-24.15,28.86-4.91-15.17-16.21-26.81-31.51-31.51,11.56-4.47,19.43-9.29,25.82-20.19,2.1-3.59,3.19-7.81,4.96-11.03.47-.85.89-2.87,2.23-1.28Z"/>
</svg>